<?xml version="1.0" encoding="utf-8"?>
<!-- Generator: Adobe Illustrator 26.3.1, SVG Export Plug-In . SVG Version: 6.00 Build 0)  -->
<svg version="1.1" id="Layer_2_1_" xmlns="http://www.w3.org/2000/svg" xmlns:xlink="http://www.w3.org/1999/xlink" x="0px" y="0px"
	 viewBox="0 0 512 512" style="enable-background:new 0 0 512 512;" xml:space="preserve">
<style type="text/css">
	.st0{clip-path:url(#SVGID_00000132049865206015881340000008368233325245085871_);}
	.st1{fill:#FFFFFF;}
</style>
<g>
	<defs>
		<rect id="SVGID_1_" x="135.5" y="132.3" width="241" height="247.3"/>
	</defs>
	<clipPath id="SVGID_00000068653199615587636010000018372731711502944940_">
		<use xlink:href="#SVGID_1_"  style="overflow:visible;"/>
	</clipPath>
	<g style="clip-path:url(#SVGID_00000068653199615587636010000018372731711502944940_);">
		<path class="st1" d="M334.9,289.2c11.3,1.3,20.9,5.5,28.5,13.5c12.6,13.3,16.5,29.1,10.5,46.3c-5.8,16.9-18.3,27-36.4,30.2
			c-2.6,0.5-5.2,0.5-7.9,0.5c-63.1,0-125.9,0-188.9,0c-3.9,0-5.2-1.3-5.2-5.5c0-75.4,0-150.9,0-226.3c0-9.6,6-15.6,15.7-15.6
			c55.7,0,111.7,0,167.5,0c10.2,0,16.2,6,16.2,15.9c0,46,0,92.3,0,138.4C334.9,287.3,334.9,288.4,334.9,289.2z M143.9,371.3
			c53.4,0,106.8,0,160.1,0c-15.7-13-22.5-29.1-17-48.9c5.5-19.8,19.6-30.4,39.8-33.6c0-38.5,0-76.7,0-115.2c-61,0-121.7,0-182.6,0
			C143.9,239.7,143.9,305.5,143.9,371.3z M331,297.2c-20.7,0-37.4,16.4-37.4,36.9c0,20.5,16.7,37.2,37.2,37.2
			c20.7,0,37.4-16.4,37.4-36.9C368.1,313.9,351.4,297.5,331,297.2z M210.3,165.4c38.7,0,77.5,0,116.2,0c0-0.8,0-1.6,0-2.1
			c0-5.2,0-10.1,0-15.3c0-4.9-2.4-7.3-7.1-7.3c-35.6,0-71.4,0-107,0c-0.5,0-1.3,0-1.8,0C210.3,149,210.3,157,210.3,165.4z
			 M152,165.4c0-2.3,0-4.4,0-6.8c0-5.7,3.9-9.6,9.7-9.6c7.3,0,14.7,0,22,0c5.8,0,9.7,3.9,9.7,9.6c0,2.1,0,4.4,0,6.8
			c2.9,0,5.5,0,8.1,0c0-8.3,0-16.4,0-24.4c-0.3,0-0.5,0-0.8,0c-17,0-34,0-51,0c-3.7,0-6,2.6-6.3,6.2c0,2.9,0,5.7,0,8.6
			c0,3.1,0,6.5,0,9.9C146.8,165.4,149.4,165.4,152,165.4z M160.4,165.1c8.4,0,16.5,0,24.9,0c0-2.3,0-4.7,0-6.8c0-0.5-1-1.3-1.6-1.3
			c-7.3,0-14.7,0-22,0c-0.5,0-1.3,0.8-1.3,1.3C160.4,160.7,160.4,163,160.4,165.1z"/>
		<path class="st1" d="M310,260.3c0,40.8-33.8,74.1-74.8,74.1c-41.1,0-74.6-33.3-74.6-74.1s33.5-74.4,74.8-74.4
			C276.3,185.9,310,219.5,310,260.3z M234.9,326.1c36.6,0,66.5-29.6,66.5-66.1s-29.6-65.8-66.2-66.1c-36.9,0-66.7,29.4-66.7,65.8
			C168.7,296.4,198.6,326.1,234.9,326.1z"/>
		<path class="st1" d="M168.5,321.9c3.9,0,7.9,0,11.8,0c2.9,0,5,1.6,5,4.2c0,2.6-2.1,4.2-5,4.2c-7.9,0-15.7,0-23.6,0
			c-2.9,0-5-1.8-5-4.2s1.8-4.2,4.7-4.2C160.9,321.9,164.8,321.9,168.5,321.9z"/>
		<path class="st1" d="M168.7,355c3.9,0,7.9,0,11.8,0c2.9,0,4.7,1.8,4.7,4.2c0,2.3-1.8,3.9-4.7,3.9c-8.1,0-16,0-24.1,0
			c-2.9,0-4.7-1.8-4.7-4.2c0-2.3,1.8-3.9,4.7-3.9C160.6,355,164.8,355,168.7,355z"/>
		<path class="st1" d="M168.7,346.6c-3.9,0-7.9,0-11.8,0c-2.9,0-4.7-1.6-4.7-4.2c0-2.3,1.8-4.2,5-4.2c7.9,0,15.7,0,23.6,0
			c2.9,0,4.7,1.6,4.7,4.2c0,2.3-1.8,4.2-4.7,4.2C176.6,346.9,172.7,346.6,168.7,346.6z"/>
		<path class="st1" d="M330.7,313.9c9.9,0.3,19.1,2.9,27,8.8c2.4,1.8,2.9,3.9,1.6,6c-1.6,2.1-3.9,2.3-6.3,0.8
			c-15.2-10.4-32.4-9.6-46.6,1.8c-2.4,1.8-4.7,1.8-6.3,0c-1.6-1.8-1.3-4.4,1-6.2C309.5,317.5,319.5,313.9,330.7,313.9z"/>
		<path class="st1" d="M330.4,330.3c7.3,0,13.6,2.3,18.8,6.8c2.4,1.8,2.6,4.4,1,6.2c-1.6,1.8-3.9,1.8-6.3,0.3
			c-8.4-6.5-18.6-6.5-27,0c-2.1,1.8-4.7,1.6-6.3-0.3c-1.6-1.8-1.3-4.4,1-6.2C317.4,332.6,323.6,330.3,330.4,330.3z"/>
		<path class="st1" d="M340.7,352.9c-0.3,1.8-1,3.4-2.4,3.6c-1.3,0.3-3.1,0.5-4.2-0.3c-2.4-1.6-4.2-1.6-6.5,0
			c-1.8,1.3-4.2,0.8-5.5-1c-1.3-1.6-1-3.9,0.5-5.5c4.4-4.2,12-4.2,16.5,0C339.6,350.5,340.1,351.8,340.7,352.9z"/>
		<path class="st1" d="M268.4,157c-2.4,0-4.2-1.8-4.2-4.2s1.8-4.2,4.2-4.2s4.2,1.8,4.2,4.2S270.8,157,268.4,157z"/>
		<path class="st1" d="M287,152.9c0,1.8-1.3,3.1-3.1,3.1c-1.8,0-3.1-1.3-3.1-3.1c0-1.6,1.3-2.9,3.1-2.9
			C285.7,150,287,151.3,287,152.9z"/>
		<path class="st1" d="M252.7,156c-1.8,0-3.1-1.3-3.1-3.1c0-1.8,1.3-3.1,3.1-3.1c1.8,0.3,3.1,1.6,3.1,3.4
			C255.9,154.7,254.6,156,252.7,156z"/>
		<path class="st1" d="M268.4,257.2c0,1,0,1.6,0,2.3c0,13.5,0,27.3,0,40.8c0,3.9-1.6,5.2-5.2,5.2c-18.6,0-37.2,0-55.7,0
			c-3.9,0-5.5-1.6-5.5-5.5c0-12.7,0-25.7,0-38.5c0-0.8,0-1.3,0-2.3c-3.4,1.8-5.2,0.3-7.3-2.1c-3.9-4.7-7.9-9.4-11.8-14.3
			c-2.4-2.9-2.1-4.7,0.3-7c4.7-4.7,9.2-9.1,13.9-13.8c5-4.9,11-7.3,18.1-7.5c13.3,0,27,0,40.3,0c7.1,0,13.1,2.6,18.3,7.5
			c4.7,4.7,9.2,9.1,13.9,13.8c2.4,2.3,2.6,4.2,0.5,6.8c-3.7,4.4-7.3,9.1-10.7,13.5C273.9,260,272.4,260.3,268.4,257.2z M260.1,297.2
			c0-1,0-1.8,0-2.6c0-15.3,0-30.4,0-45.8c0-2.1,0.5-3.9,2.6-4.7c2.1-0.8,3.7,0,5.2,1.3c1.3,1.3,2.6,2.3,4.2,3.9
			c2.6-3.1,5-6.2,7.3-9.4c-3.9-3.9-7.9-7.8-11.5-11.4c-0.8-0.8-1.6-1.6-2.4-2.1c-4.2-3.1-8.6-3.6-13.9-3.1c0.5,5.2,0,9.9-3.4,14
			c-3.4,4.2-7.6,6.2-13.1,6.5c-4.2,0-7.9-1.3-11-3.9c-5-4.4-6.3-10.1-5.8-16.4c-6.3-0.8-11.5,0.5-16,4.9c-3.7,3.6-7.1,7-10.7,10.7
			c-0.3,0.3-0.5,0.8-1,1c2.6,3.1,5.5,6.5,8.1,9.6c1.3-1.6,2.6-3.1,3.9-4.4c1.3-1.3,2.6-1.8,4.4-1c1.6,0.5,2.6,1.8,2.9,3.6
			c0,0.8,0,1.3,0,2.1c0,15.1,0,30.4,0,45.5c0,0.8,0,1.6,0,2.3C227.1,297.2,243.6,297.2,260.1,297.2z M226.8,223.1c0,1.6,0,3.1,0,4.4
			c0.3,4.4,3.7,7.5,7.9,7.8c4.4,0.3,8.1-2.6,8.6-7c0.3-1.6,0-3.4,0-5.2C237.8,223.1,232.6,223.1,226.8,223.1z"/>
		<path class="st1" d="M238.6,264.5c-0.5,1.8-1,3.9-1.6,5.7c-0.8,1.8-0.8,3.6,0.3,5.2c0.8,1.3,1.3,2.6,2.1,4.2
			c0.8,1.8,0,3.9-1.8,4.9c-1.6,1-3.9,0.8-5-0.8c-2.6-3.9-5-8.1-3.9-13.3c0.3-1.3,0.5-2.3,1-3.4c0.8-1.8,0.8-3.6-0.3-5.2
			c-0.8-1.3-1.6-2.6-2.1-4.2c-0.8-1.8,0.3-3.9,1.8-4.9c1.6-0.8,3.9-0.5,5,1C236.2,256.7,238.3,260.3,238.6,264.5z"/>
		<path class="st1" d="M226,264.5c-0.5,1.8-0.8,3.9-1.6,5.7c-0.8,1.8-0.8,3.6,0.3,5.2c0.8,1.3,1.3,2.6,1.8,3.9
			c0.8,2.1,0,4.2-2.1,5.2c-1.8,1-4.2,0.5-5.2-1.3c-1.3-2.3-2.6-4.9-3.4-7.5c-1-2.9-0.5-5.7,0.8-8.3c1-2.1,0.8-3.9-0.3-6
			c-0.8-1.3-1.3-2.3-1.8-3.6c-0.8-1.8,0-3.9,1.8-4.9c1.8-1,3.9-0.5,5.2,0.8C223.7,255.6,225.8,261.3,226,264.5z"/>
		<path class="st1" d="M250.9,264.5c-0.5,1.8-0.8,3.6-1.6,5.5c-0.8,1.8-0.8,3.6,0.3,5.5c0.8,1.3,1.3,2.6,1.8,3.9
			c0.8,2.1,0,4.2-1.6,5.2c-1.8,1-4.4,0.8-5.2-1c-1.6-2.9-2.9-5.7-3.9-8.8c-0.8-2.6,0-5.2,1-7.5c1-1.8,0.8-3.6-0.3-5.5
			c-0.8-1.3-1.3-2.6-1.8-3.9c-0.8-1.8,0-3.9,1.8-4.9c1.8-1,3.9-0.5,5.2,1C248.5,255.6,250.6,261.3,250.9,264.5z"/>
	</g>
</g>
</svg>
