<?xml version="1.0" encoding="utf-8"?>
<!-- Generator: Adobe Illustrator 26.3.1, SVG Export Plug-In . SVG Version: 6.00 Build 0)  -->
<svg version="1.1" id="Layer_2_1_" xmlns="http://www.w3.org/2000/svg" xmlns:xlink="http://www.w3.org/1999/xlink" x="0px" y="0px"
	 viewBox="0 0 512 512" style="enable-background:new 0 0 512 512;" xml:space="preserve">
<style type="text/css">
	.st0{clip-path:url(#SVGID_00000043422522592351287680000003607207381641978514_);}
	.st1{fill:#FFFFFF;}
</style>
<g>
	<defs>
		<rect id="SVGID_1_" x="135.5" y="177.2" width="241" height="157.6"/>
	</defs>
	<clipPath id="SVGID_00000083070010913944503320000014934103405229942456_">
		<use xlink:href="#SVGID_1_"  style="overflow:visible;"/>
	</clipPath>
	<g style="clip-path:url(#SVGID_00000083070010913944503320000014934103405229942456_);">
		<path class="st1" d="M336.2,226.7c-8.9,0-17.6,0-26.6,0c0-0.8,0-1.6,0-2.3c0-8.6,0.1-17.2,0-25.8c-0.1-12.1-9.1-21.3-20.5-21.2
			c-11,0.1-19.7,9.4-19.8,21.3c-0.1,8.5,0,17.1,0,25.6c0,0.8,0,1.5,0,2.4c-8.9,0-17.5,0-26.5,0c0-0.7,0-1.5,0-2.2
			c0-8.7,0.1-17.3,0-26c-0.1-9-4.2-15.8-12.1-19.4c-7.7-3.5-15-2.2-21.4,3.6c-4.6,4.2-6.8,9.7-6.8,16.1c0,8.5,0,17.1,0,25.6
			c0,0.8,0,1.5,0,2.4c-8.9,0-17.6,0-26.6,0c0-0.8,0-1.5,0-2.2c0-8.7,0.1-17.4,0-26.1c-0.1-10.1-6.5-18.4-15.7-20.6
			c-9.2-2.1-18.6,2.5-22.5,11.4c-1.2,2.7-2,6-2,9c-0.1,44.2-0.1,88.4-0.1,132.6c0,2.9,1,3.9,3.8,3.9c10.9,0,21.8,0,32.7,0
			c3,0,3.9-1,3.9-4.2c0-14.4,0-28.7,0-43.1c0-0.8,0-1.5,0-2.4c8.9,0,17.6,0,26.5,0c0,4.4,0,8.7,0,13.3c-0.7,0-1.3,0-1.9,0
			c-5.1,0-10.2,0-15.3,0c-2,0-3.2,1.3-3.2,3.1c0,1.8,1.2,2.9,3.3,3c0.7,0,1.4,0,2,0c5,0,10,0,15.2,0c0,0.8,0.1,1.6,0.1,2.3
			c0,7.9,0,15.8,0,23.7c0,3.4,0.9,4.3,4.2,4.3c10.7,0,21.3,0,32,0c3.4,0,4.2-0.9,4.2-4.4c0-14.3,0-28.6,0-42.9c0-0.7,0-1.5,0-2.3
			c8.9,0,17.6,0,26.4,0c0,4.4,0,8.7,0,13.3c-1.5,0-2.9,0-4.4,0c-4.2,0-8.4,0-12.6,0c-2.2,0-3.4,1.2-3.5,3.1c0,1.9,1.3,3.1,3.4,3.1
			c5,0,10,0,15,0c0.7,0,1.3,0,2.2,0c0,0.9,0,1.7,0,2.4c0,7.8,0,15.6,0,23.5c0,3.4,0.9,4.3,4.1,4.3c10.8,0,21.5,0,32.3,0
			c3,0,3.9-1,3.9-4.1c0-14.4,0-28.7,0-43.1c0-0.8,0-1.5,0-2.4c8.9,0,17.6,0,26.4,0c0,4.4,0,8.7,0,13.2c-4,0-7.9,0-11.8,0
			c-1.6,0-3.3,0-4.9,0c-2.5,0-3.8,1.1-3.8,3.1s1.4,3.1,3.8,3.1c5.5,0,11.1,0,16.8,0c0,0.8,0,1.5,0,2.2c0,7.9,0,15.8,0,23.7
			c0,3.5,0.8,4.4,4.2,4.4c10.7,0,21.4,0,32.1,0c3,0,3.9-1,3.9-4.1c0-44,0-88,0-132c0.1-10.9-7.8-20-18.1-21.1
			c-10.3-1.1-19.7,6.1-21.8,16.9c-0.3,1.7-0.4,3.5-0.4,5.3c0,8.2,0,16.4,0,24.6C336.2,225.1,336.2,225.8,336.2,226.7z M208.3,328.6
			c0-0.9,0-1.6,0-2.3c0-42.2,0-84.5,0-126.7c0-1,0-2,0.1-3.1c0.9-8.5,8.8-14.5,16.8-12.8c7.2,1.5,11.6,7.6,11.6,16
			c0,42.2,0,84.5,0,126.7c0,0.7,0,1.4,0,2.1C227.3,328.6,217.9,328.6,208.3,328.6z M275.2,328.6c0-0.9,0-1.6,0-2.3
			c0-42.2,0-84.5,0-126.7c0-1,0-2,0.1-3.1c0.9-8.5,8.8-14.5,16.8-12.8c7.2,1.5,11.6,7.5,11.6,15.8c0,42.4,0,84.7,0,127
			c0,0.6,0,1.2,0,1.9C294.1,328.6,284.8,328.6,275.2,328.6z M141.4,328.5c0-1.3,0-2.4,0-3.5c0-21.8,0-43.5,0-65.3
			c0-20.3,0-40.6,0-60.9c0-6.9,3.7-12.5,9.5-14.6c9.4-3.5,19,3.6,19,14.3c0.1,42.8,0,85.6,0,128.4c0,0.5-0.1,1-0.1,1.5
			C160.3,328.5,151,328.5,141.4,328.5z M342.1,328.5c0-1,0-1.7,0-2.5c0-39.6,0-79.2,0-118.8c0-3.2-0.1-6.5,0.1-9.7
			c0.4-9,8.7-15.6,17.1-13.7c6.9,1.6,11.4,7.6,11.4,15.4c0,42.5,0,85,0,127.4c0,0.6,0,1.2,0,1.9C361,328.5,351.7,328.5,342.1,328.5z
			 M175.9,252.7c8.8,0,17.6,0,26.3,0c0,8.8,0,17.4,0,26.1c-8.8,0-17.5,0-26.3,0C175.9,270.1,175.9,261.5,175.9,252.7z M336.1,252.7
			c0,8.8,0,17.4,0,26.1c-8.8,0-17.5,0-26.3,0c0-8.8,0-17.4,0-26.1C318.6,252.7,327.2,252.7,336.1,252.7z M242.9,278.8
			c0-8.7,0-17.4,0-26.1c8.8,0,17.6,0,26.3,0c0,8.8,0,17.4,0,26.1C260.3,278.8,251.7,278.8,242.9,278.8z M202.3,246.4
			c-8.9,0-17.6,0-26.4,0c0-4.4,0-8.8,0-13.2c8.8,0,17.6,0,26.4,0C202.3,237.6,202.3,241.9,202.3,246.4z M309.7,246.4
			c0-4.5,0-8.8,0-13.2c8.8,0,17.6,0,26.3,0c0,4.5,0,8.8,0,13.2C327.2,246.4,318.5,246.4,309.7,246.4z M242.8,233.2
			c8.9,0,17.5,0,26.3,0c0,4.5,0,8.8,0,13.2c-8.8,0-17.5,0-26.3,0C242.8,241.9,242.8,237.5,242.8,233.2z"/>
	</g>
</g>
</svg>
