<?xml version="1.0" encoding="utf-8"?>
<!-- Generator: Adobe Illustrator 27.0.1, SVG Export Plug-In . SVG Version: 6.00 Build 0)  -->
<svg version="1.1" id="Layer_2" xmlns="http://www.w3.org/2000/svg" xmlns:xlink="http://www.w3.org/1999/xlink" x="0px" y="0px"
	 viewBox="0 0 512 512" style="enable-background:new 0 0 512 512;" xml:space="preserve">
<style type="text/css">
	.st0{fill:#FFFFFF;}
</style>
<g>
	<path class="st0" d="M256,366.355c60.851,0,110.355-49.505,110.355-110.355S316.851,145.645,256,145.645
		S145.645,195.149,145.645,256S195.149,366.355,256,366.355z M256,153.645c56.439,0,102.355,45.916,102.355,102.355
		S312.439,358.355,256,358.355S153.645,312.439,153.645,256S199.561,153.645,256,153.645z"/>
	<path class="st0" d="M233.85,176.609c0.22,0.15,0.45,0.271,0.69,0.37c0.239,0.101,0.489,0.181,0.75,0.23
		c0.26,0.05,0.52,0.07,0.779,0.07c1.051,0,2.08-0.421,2.83-1.171c0.181-0.18,0.351-0.39,0.5-0.6c0.141-0.22,0.261-0.45,0.36-0.7
		c0.1-0.24,0.18-0.49,0.23-0.74c0.05-0.26,0.079-0.52,0.079-0.789c0-1.051-0.43-2.08-1.17-2.82c-0.18-0.19-0.39-0.351-0.609-0.5
		c-0.221-0.141-0.45-0.271-0.69-0.37s-0.49-0.17-0.75-0.22c-0.51-0.11-1.04-0.11-1.56,0c-0.261,0.05-0.511,0.12-0.75,0.22
		c-0.24,0.1-0.471,0.229-0.69,0.37c-0.22,0.149-0.42,0.31-0.609,0.5c-0.74,0.74-1.171,1.77-1.171,2.82
		c0,1.06,0.431,2.09,1.171,2.829C233.43,176.3,233.63,176.47,233.85,176.609z"/>
	<path class="st0" d="M256,173.983c21.908,0,42.504,8.531,57.995,24.021c0.78,0.781,1.805,1.172,2.828,1.172
		s2.048-0.391,2.828-1.172c1.562-1.562,1.562-4.095,0-5.656c-17.001-17.002-39.606-26.365-63.651-26.365c-2.209,0-4,1.791-4,4
		S253.791,173.983,256,173.983z"/>
	<path class="st0" d="M256,320.17c35.384,0,64.17-28.786,64.17-64.17s-28.786-64.17-64.17-64.17s-64.17,28.786-64.17,64.17
		S220.616,320.17,256,320.17z M256,199.83c30.973,0,56.17,25.197,56.17,56.17s-25.197,56.17-56.17,56.17s-56.17-25.197-56.17-56.17
		S225.027,199.83,256,199.83z"/>
</g>
</svg>
