<?xml version="1.0" encoding="utf-8"?>
<!-- Generator: Adobe Illustrator 27.0.1, SVG Export Plug-In . SVG Version: 6.00 Build 0)  -->
<svg version="1.1" id="Layer_2" xmlns="http://www.w3.org/2000/svg" xmlns:xlink="http://www.w3.org/1999/xlink" x="0px" y="0px"
	 viewBox="0 0 512 512" style="enable-background:new 0 0 512 512;" xml:space="preserve">
<style type="text/css">
	.st0{fill:#FFFFFF;}
</style>
<g>
	<path class="st0" d="M305.253,235.857c0.393-0.393,0.686-0.846,0.881-1.331l11.938-17.842c0.003-0.005,0.007-0.01,0.01-0.015
		l11.813-17.656c0.043-0.039,0.092-0.068,0.134-0.109c0.429-0.429,0.729-0.933,0.922-1.468l20.374-30.449
		c1.062-1.587,0.854-3.703-0.496-5.053l-17.978-17.978c-0.75-0.75-1.768-1.171-2.828-1.171s-2.078,0.421-2.828,1.171
		L192.893,278.259c-1.393-0.449-2.859-0.691-4.364-0.691c-3.791,0-7.354,1.477-10.034,4.157l-22.932,22.931
		c-2.681,2.681-4.157,6.245-4.157,10.036c0,3.791,1.477,7.354,4.157,10.035l48.923,48.923c2.767,2.767,6.4,4.149,10.035,4.149
		c3.634,0,7.269-1.383,10.035-4.149l22.931-22.932c2.681-2.68,4.157-6.244,4.157-10.035c0-3.791-1.477-7.355-4.157-10.036
		l-3.397-3.397l12.12-18.114c0.001-0.002,0.003-0.004,0.004-0.006l24.151-36.094c0.061-0.054,0.129-0.095,0.188-0.153
		c0.446-0.446,0.75-0.975,0.941-1.534l11.37-16.992c0.004-0.004,0.01-0.007,0.014-0.011c0.39-0.39,0.683-0.841,0.879-1.323
		l11.476-17.151C305.239,235.867,305.247,235.863,305.253,235.857z M241.831,345.062L218.9,367.994
		c-2.414,2.414-6.344,2.414-8.758,0L161.22,319.07c-1.169-1.169-1.813-2.725-1.813-4.378c0-1.654,0.645-3.209,1.813-4.378
		l22.933-22.932c1.169-1.169,2.724-1.813,4.377-1.813c1.654,0,3.209,0.644,4.379,1.814l48.923,48.923
		c1.169,1.169,1.813,2.725,1.813,4.378S243,343.893,241.831,345.062z M199.653,282.813l130.37-130.372l12.826,12.827l-16.356,24.444
		l-7.401-7.401c-1.561-1.562-4.096-1.562-5.656,0c-1.562,1.562-1.562,4.095,0,5.657l8.522,8.523l-7.838,11.714l-7.493-7.493
		c-1.562-1.562-4.096-1.562-5.656,0c-1.562,1.562-1.562,4.095,0,5.657l8.614,8.614l-7.837,11.713l-7.432-7.432
		c-1.561-1.562-4.096-1.562-5.656,0c-1.562,1.562-1.562,4.095,0,5.657l8.553,8.553l-7.838,11.714l-7.433-7.434
		c-1.561-1.562-4.096-1.562-5.656,0c-1.562,1.562-1.562,4.095,0,5.657l8.555,8.555l-7.837,11.713l-7.387-7.386
		c-1.562-1.562-4.096-1.562-5.656,0c-1.562,1.562-1.562,4.095,0,5.657l8.508,8.507l-7.838,11.714L257,274.541
		c-1.561-1.562-4.096-1.562-5.656,0c-1.562,1.562-1.562,4.095,0,5.657l8.75,8.75l-7.838,11.714l-7.493-7.493
		c-1.561-1.562-4.096-1.562-5.656,0c-1.562,1.562-1.562,4.095,0,5.657l8.614,8.614l-9.398,14.045L199.653,282.813z"/>
	<path class="st0" d="M192.086,295.674c-1.562-1.562-4.096-1.562-5.656,0l-16.918,16.917c-0.75,0.75-1.172,1.768-1.172,2.829
		s0.422,2.078,1.172,2.829l41.453,41.453c0.781,0.781,1.805,1.171,2.828,1.171s2.048-0.391,2.828-1.171l16.918-16.917
		c0.75-0.75,1.172-1.768,1.172-2.829s-0.422-2.078-1.172-2.829L192.086,295.674z M213.793,351.216l-35.796-35.796l11.261-11.261
		l35.796,35.796L213.793,351.216z"/>
</g>
</svg>
