<?xml version="1.0" encoding="utf-8"?>
<!-- Generator: Adobe Illustrator 27.0.1, SVG Export Plug-In . SVG Version: 6.00 Build 0)  -->
<svg version="1.1" id="Layer_2" xmlns="http://www.w3.org/2000/svg" xmlns:xlink="http://www.w3.org/1999/xlink" x="0px" y="0px"
	 viewBox="0 0 512 512" style="enable-background:new 0 0 512 512;" xml:space="preserve">
<style type="text/css">
	.st0{fill:#FFFFFF;}
</style>
<g>
	<path class="st0" d="M195.054,296.441l-7.973,18.439c-0.534,1.236-0.41,2.658,0.329,3.784c0.739,1.125,1.996,1.803,3.343,1.803
		h44.091c1.347,0,2.604-0.678,3.343-1.803s0.863-2.548,0.329-3.784l-7.972-18.439h57.053c2.209,0,4-1.791,4-4v-96.909
		c0-2.209-1.791-4-4-4H138c-2.209,0-4,1.791-4,4v96.909c0,2.209,1.791,4,4,4H195.054z M228.757,312.468H196.84l6.93-16.027h18.058
		L228.757,312.468z M224.456,288.441h-23.314H142v-14.602h141.597v14.602H224.456z M283.597,199.532v66.307H142v-66.307H283.597z"/>
	<path class="st0" d="M374,191.532h-62.093c-2.209,0-4,1.791-4,4v120.936c0,2.209,1.791,4,4,4H374c2.209,0,4-1.791,4-4V195.532
		C378,193.323,376.209,191.532,374,191.532z M370,312.468h-54.093V199.532H370V312.468z"/>
	<path class="st0" d="M327.608,220.191h30.69c2.209,0,4-1.791,4-4s-1.791-4-4-4h-30.69c-2.209,0-4,1.791-4,4
		S325.399,220.191,327.608,220.191z"/>
	<path class="st0" d="M327.608,236.607h15.346c2.209,0,4-1.791,4-4s-1.791-4-4-4h-15.346c-2.209,0-4,1.791-4,4
		S325.399,236.607,327.608,236.607z"/>
	<path class="st0" d="M342.953,250.852c-2.209,0-4,1.791-4,4v15.345c0,2.209,1.791,4,4,4s4-1.791,4-4v-15.345
		C346.953,252.643,345.162,250.852,342.953,250.852z"/>
</g>
</svg>
