<?xml version="1.0" encoding="utf-8"?>
<!-- Generator: Adobe Illustrator 27.0.1, SVG Export Plug-In . SVG Version: 6.00 Build 0)  -->
<svg version="1.1" id="Layer_2" xmlns="http://www.w3.org/2000/svg" xmlns:xlink="http://www.w3.org/1999/xlink" x="0px" y="0px"
	 viewBox="0 0 512 512" style="enable-background:new 0 0 512 512;" xml:space="preserve">
<style type="text/css">
	.st0{fill:#FFFFFF;}
</style>
<g>
	<path class="st0" d="M327.94,253.819c0.05,0.25,0.12,0.5,0.22,0.75c0.1,0.24,0.23,0.471,0.37,0.69c0.15,0.22,0.31,0.42,0.5,0.6
		c0.18,0.19,0.39,0.36,0.61,0.5c0.21,0.15,0.45,0.271,0.69,0.37c0.24,0.101,0.49,0.181,0.75,0.23c0.25,0.05,0.52,0.08,0.78,0.08
		c0.26,0,0.52-0.03,0.78-0.08c0.25-0.05,0.51-0.13,0.75-0.23c0.24-0.1,0.47-0.22,0.69-0.37c0.22-0.14,0.42-0.31,0.61-0.5
		c0.18-0.18,0.35-0.38,0.49-0.6c0.15-0.22,0.27-0.45,0.37-0.69c0.1-0.25,0.18-0.5,0.23-0.75c0.05-0.26,0.08-0.52,0.08-0.779
		c0-1.061-0.43-2.09-1.17-2.83c-0.94-0.93-2.32-1.36-3.61-1.101c-0.26,0.061-0.51,0.131-0.75,0.23c-0.24,0.1-0.48,0.229-0.69,0.37
		c-0.22,0.149-0.43,0.31-0.61,0.5c-0.75,0.74-1.17,1.77-1.17,2.83C327.86,253.3,327.88,253.56,327.94,253.819z"/>
	<path class="st0" d="M291.47,305.74c-0.1-0.24-0.22-0.471-0.37-0.69c-0.14-0.22-0.31-0.42-0.49-0.6c-0.19-0.19-0.39-0.36-0.61-0.5
		c-0.22-0.15-0.45-0.271-0.69-0.37c-0.24-0.101-0.49-0.181-0.75-0.23c-0.51-0.1-1.05-0.1-1.56,0c-0.26,0.05-0.51,0.13-0.75,0.23
		c-0.24,0.1-0.47,0.22-0.69,0.37c-0.22,0.14-0.42,0.31-0.61,0.5c-0.18,0.18-0.35,0.38-0.5,0.6c-0.14,0.22-0.26,0.45-0.36,0.69
		c-0.1,0.239-0.18,0.5-0.23,0.75c-0.05,0.26-0.08,0.52-0.08,0.779c0,1.061,0.43,2.09,1.17,2.83c0.75,0.75,1.78,1.17,2.83,1.17
		c0.26,0,0.52-0.02,0.78-0.08c0.26-0.05,0.51-0.12,0.75-0.22c0.24-0.1,0.47-0.229,0.69-0.37c0.22-0.149,0.42-0.31,0.61-0.5
		c0.74-0.74,1.17-1.77,1.17-2.83c0-0.26-0.03-0.52-0.08-0.779C291.65,306.24,291.57,305.979,291.47,305.74z"/>
	<path class="st0" d="M203.72,284.149c1.05,0,2.08-0.42,2.82-1.17c0.75-0.739,1.18-1.77,1.18-2.83c0-1.05-0.43-2.08-1.18-2.819
		c-0.93-0.931-2.31-1.36-3.61-1.101c-0.25,0.051-0.5,0.13-0.75,0.23c-0.24,0.1-0.47,0.22-0.69,0.37c-0.21,0.14-0.42,0.31-0.6,0.5
		c-0.19,0.18-0.36,0.38-0.5,0.6c-0.14,0.22-0.27,0.45-0.37,0.69c-0.1,0.239-0.18,0.5-0.23,0.75c-0.05,0.26-0.07,0.52-0.07,0.779
		c0,1.061,0.42,2.091,1.17,2.83C201.63,283.729,202.66,284.149,203.72,284.149z"/>
	<path class="st0" d="M367.441,180.573H144.559c-2.209,0-4,1.791-4,4v21.005c0,2.209,1.791,4,4,4h16.339v16.339v108.475
		c0,2.209,1.791,4,4,4h17.187v17.187c0,2.209,1.791,4,4,4s4-1.791,4-4v-17.187h131.83v17.187c0,2.209,1.791,4,4,4s4-1.791,4-4
		v-17.187h17.187c2.209,0,4-1.791,4-4V225.917v-16.339h16.339c2.209,0,4-1.791,4-4v-21.005
		C371.441,182.364,369.65,180.573,367.441,180.573z M168.898,229.917h55.559v100.475h-55.559V229.917z M283.78,229.917v46.237
		h-51.322v-46.237H283.78z M343.102,229.917v46.237H291.78v-46.237H343.102z M232.458,330.392v-46.237h110.644v46.237H232.458z
		 M343.102,221.917H168.898v-12.339h174.203V221.917z M363.441,201.578h-16.339H164.898h-16.339v-13.005h214.882V201.578z"/>
	<path class="st0" d="M219.071,319.807v-79.305c0-2.209-1.791-4-4-4h-36c-2.209,0-4,1.791-4,4v79.305c0,2.209,1.791,4,4,4h36
		C217.28,323.807,219.071,322.016,219.071,319.807z M211.071,315.807h-28v-71.305h28V315.807z"/>
</g>
</svg>
