<?xml version="1.0" encoding="utf-8"?>
<!-- Generator: Adobe Illustrator 27.0.1, SVG Export Plug-In . SVG Version: 6.00 Build 0)  -->
<svg version="1.1" id="Layer_2" xmlns="http://www.w3.org/2000/svg" xmlns:xlink="http://www.w3.org/1999/xlink" x="0px" y="0px"
	 viewBox="0 0 512 512" style="enable-background:new 0 0 512 512;" xml:space="preserve">
<style type="text/css">
	.st0{fill:#FFFFFF;}
</style>
<g>
	<path class="st0" d="M156.863,320.286h26.459h57.271h57.271h57.271c2.209,0,4-1.791,4-4v-24.114v-24.114v-24.114v-24.114v-24.114
		c0-2.209-1.791-4-4-4h-57.271h-57.271h-57.271h-26.459c-2.209,0-4,1.791-4,4v24.114v24.114v24.114v24.114v24.114
		C152.863,318.495,154.654,320.286,156.863,320.286z M160.863,223.829h22.459h26.812v16.114h-26.812h-22.459V223.829z
		 M240.594,223.829h26.812v16.114h-26.812h-22.459v-16.114H240.594z M297.865,223.829h26.812v16.114h-26.812h-22.459v-16.114
		H297.865z M351.137,223.829v16.114h-18.459v-16.114H351.137z M297.865,288.171h-22.459v-16.114h22.459h26.812v16.114H297.865z
		 M240.594,288.171h-22.459v-16.114h22.459h26.812v16.114H240.594z M183.322,288.171h-22.459v-16.114h22.459h26.812v16.114H183.322z
		 M187.322,247.943h26.812h22.459v16.114h-22.459h-26.812V247.943z M271.406,247.943h22.459v16.114h-22.459h-26.812v-16.114H271.406
		z M328.678,247.943h22.459v16.114h-22.459h-26.812v-16.114H328.678z M332.678,272.057h18.459v16.114h-18.459V272.057z
		 M179.322,247.943v16.114h-18.459v-16.114H179.322z M160.863,296.171h18.459v16.114h-18.459V296.171z M187.322,296.171h26.812
		h22.459v16.114h-49.271V296.171z M244.594,296.171h26.812h22.459v16.114h-49.271V296.171z M301.865,296.171h26.812h22.459v16.114
		h-49.271V296.171z M351.137,215.829h-22.459h-26.812v-16.114h49.271V215.829z M293.865,215.829h-22.459h-26.812v-16.114h49.271
		V215.829z M236.594,215.829h-22.459h-26.812v-16.114h49.271V215.829z M179.322,199.714v16.114h-18.459v-16.114H179.322z"/>
</g>
</svg>
