<?xml version="1.0" encoding="utf-8"?>
<!-- Generator: Adobe Illustrator 27.0.1, SVG Export Plug-In . SVG Version: 6.00 Build 0)  -->
<svg version="1.1" id="Layer_2" xmlns="http://www.w3.org/2000/svg" xmlns:xlink="http://www.w3.org/1999/xlink" x="0px" y="0px"
	 viewBox="0 0 512 512" style="enable-background:new 0 0 512 512;" xml:space="preserve">
<style type="text/css">
	.st0{fill:#FFFFFF;}
</style>
<g>
	<path class="st0" d="M322.386,335.804v-27.84c0-0.003,0.001-0.006,0.001-0.01v-47.39h13.618v4.676
		c0,9.347,7.604,16.951,16.951,16.951s16.951-7.604,16.951-16.951v-63.703c0-9.347-7.604-16.951-16.951-16.951
		s-16.951,7.604-16.951,16.951v4.676h-13.618v-22.779c0-2.209-1.791-4-4-4h-31.786v-13.622c0-6.148-5.002-11.15-11.15-11.15
		s-11.15,5.002-11.15,11.15v13.622h-24.46v-3.505c0-7.706-6.269-13.975-13.975-13.975s-13.976,6.269-13.976,13.975v3.505h-5.021
		v-3.505c0-7.706-6.269-13.975-13.975-13.975s-13.976,6.269-13.976,13.975v3.505h-6.396c-2.209,0-4,1.791-4,4v55.031v4.651
		c0,8.453,6.878,15.331,15.331,15.331h5.04v22.154c0,2.209,1.791,4,4,4s4-1.791,4-4v-22.154h5.036c8.453,0,15.33-6.878,15.33-15.331
		v-0.651h42.095v61.492h-89.897c-1.426,0-2.744,0.759-3.46,1.992l-16.163,27.847c-0.718,1.237-0.721,2.764-0.007,4.004
		s2.036,2.004,3.467,2.004h165.091C320.595,339.804,322.386,338.013,322.386,335.804z M344.005,201.537
		c0-4.936,4.016-8.951,8.951-8.951s8.951,4.016,8.951,8.951v63.703c0,4.936-4.016,8.951-8.951,8.951s-8.951-4.016-8.951-8.951
		v-8.676v-46.352V201.537z M336.005,214.213v38.352h-13.618v-38.352H336.005z M272.3,165.812c0-1.737,1.413-3.15,3.15-3.15
		s3.15,1.413,3.15,3.15v13.622H272.3V165.812z M219.89,175.929c0-3.294,2.681-5.975,5.976-5.975c3.294,0,5.975,2.681,5.975,5.975
		v3.505h-11.95V175.929z M186.919,175.929c0-3.294,2.681-5.975,5.976-5.975c3.294,0,5.975,2.681,5.975,5.975v3.505h-11.95V175.929z
		 M209.261,243.116c0,4.042-3.288,7.331-7.33,7.331h-18.076c-4.042,0-7.331-3.289-7.331-7.331v-0.651h32.737V243.116z
		 M213.261,234.465h-36.737v-47.031h6.396h19.95h13.021h19.95h32.46h14.301h31.786v22.77c0,0.003-0.001,0.006-0.001,0.01v46.352
		c0,0.003,0.001,0.006,0.001,0.01v47.38h-47.031v-65.489c0-2.209-1.791-4-4-4H213.261z M314.386,331.804H160.241l11.521-19.847
		h142.624V331.804z"/>
	<path class="st0" d="M275.45,226.462c8.96,0,16.249-7.289,16.249-16.249s-7.289-16.249-16.249-16.249s-16.249,7.289-16.249,16.249
		S266.49,226.462,275.45,226.462z M275.45,201.964c4.549,0,8.249,3.7,8.249,8.249s-3.7,8.249-8.249,8.249s-8.249-3.7-8.249-8.249
		S270.901,201.964,275.45,201.964z"/>
	<path class="st0" d="M278.942,247.718c0,7.084,5.763,12.847,12.847,12.847s12.847-5.763,12.847-12.847
		c0-7.083-5.763-12.846-12.847-12.846S278.942,240.635,278.942,247.718z M291.789,242.872c2.673,0,4.847,2.174,4.847,4.846
		c0,2.673-2.174,4.847-4.847,4.847s-4.847-2.174-4.847-4.847C286.942,245.046,289.116,242.872,291.789,242.872z"/>
	<path class="st0" d="M201.15,193.964h-16.516c-2.209,0-4,1.791-4,4s1.791,4,4,4h16.516c2.209,0,4-1.791,4-4
		S203.359,193.964,201.15,193.964z"/>
	<path class="st0" d="M201.15,206.949h-16.516c-2.209,0-4,1.791-4,4s1.791,4,4,4h16.516c2.209,0,4-1.791,4-4
		S203.359,206.949,201.15,206.949z"/>
	<path class="st0" d="M201.15,219.935h-16.516c-2.209,0-4,1.791-4,4s1.791,4,4,4h16.516c2.209,0,4-1.791,4-4
		S203.359,219.935,201.15,219.935z"/>
</g>
</svg>
