<?xml version="1.0" encoding="utf-8"?>
<!-- Generator: Adobe Illustrator 27.0.1, SVG Export Plug-In . SVG Version: 6.00 Build 0)  -->
<svg version="1.1" id="Layer_2" xmlns="http://www.w3.org/2000/svg" xmlns:xlink="http://www.w3.org/1999/xlink" x="0px" y="0px"
	 viewBox="0 0 512 512" style="enable-background:new 0 0 512 512;" xml:space="preserve">
<style type="text/css">
	.st0{fill:#FFFFFF;}
</style>
<g>
	<path class="st0" d="M356.42,222.419h-20.754c1.265-2.254,1.993-4.846,1.993-7.609c0-4.612-2.022-8.75-5.212-11.609
		c3.19-2.86,5.212-6.998,5.212-11.609c0-8.607-7.002-15.61-15.61-15.61H267.61c-4.612,0-8.75,2.022-11.61,5.212
		c-2.86-3.19-6.998-5.212-11.61-5.212h-54.439c-8.607,0-15.61,7.003-15.61,15.61c0,4.612,2.022,8.75,5.212,11.609
		c-3.19,2.86-5.212,6.998-5.212,11.609c0,2.763,0.729,5.356,1.993,7.609H155.58c-4.693,0-9.103,1.826-12.417,5.142
		c-3.316,3.314-5.143,7.726-5.143,12.419c0,9.683,7.877,17.56,17.56,17.56h0.548l9.195,55.465
		c2.211,13.336,13.627,23.016,27.146,23.016H319.53c13.519,0,24.935-9.68,27.146-23.016l9.195-55.465h0.548
		c4.693,0,9.104-1.826,12.418-5.142c3.315-3.315,5.142-7.726,5.142-12.418C373.98,230.297,366.103,222.419,356.42,222.419z
		 M329.659,214.81c0,4.196-3.414,7.609-7.61,7.609H267.61c-4.196,0-7.61-3.413-7.61-7.609s3.414-7.609,7.61-7.609h54.439
		C326.245,207.2,329.659,210.613,329.659,214.81z M254.788,203.2c0.426-0.382,0.83-0.786,1.212-1.212
		c0.382,0.426,0.786,0.83,1.212,1.212c-0.426,0.382-0.83,0.786-1.212,1.212C255.618,203.986,255.214,203.582,254.788,203.2z
		 M267.61,183.98h54.439c4.196,0,7.61,3.414,7.61,7.61s-3.414,7.609-7.61,7.609H267.61c-4.196,0-7.61-3.413-7.61-7.609
		S263.414,183.98,267.61,183.98z M182.341,191.591c0-4.196,3.414-7.61,7.61-7.61h54.439c4.196,0,7.61,3.414,7.61,7.61
		s-3.414,7.609-7.61,7.609h-54.439C185.755,199.2,182.341,195.787,182.341,191.591z M182.341,214.81c0-4.196,3.414-7.609,7.61-7.609
		h54.439c4.196,0,7.61,3.413,7.61,7.609s-3.414,7.609-7.61,7.609h-54.439C185.755,222.419,182.341,219.006,182.341,214.81z
		 M338.784,311.695c-1.568,9.459-9.665,16.324-19.253,16.324H192.47c-9.588,0-17.686-6.865-19.253-16.324l-8.979-54.156h183.524
		L338.784,311.695z M363.181,246.741c-1.804,1.805-4.205,2.798-6.761,2.798h-3.94H159.52h-3.94c-5.271,0-9.56-4.288-9.56-9.56
		c0-2.557,0.994-4.957,2.799-6.762c1.805-1.805,4.206-2.799,6.761-2.799h34.371h54.439h23.22h54.439h34.371
		c5.271,0,9.56,4.289,9.56,9.561C365.98,242.535,364.986,244.937,363.181,246.741z"/>
	<path class="st0" d="M301,314.802c7.247,0,13.143-5.896,13.143-13.143v-22.32c0-7.247-5.896-13.144-13.143-13.144
		s-13.143,5.896-13.143,13.144v22.32C287.857,308.906,293.753,314.802,301,314.802z M295.857,279.339
		c0-2.836,2.307-5.144,5.143-5.144s5.143,2.308,5.143,5.144v22.32c0,2.836-2.307,5.143-5.143,5.143s-5.143-2.307-5.143-5.143
		V279.339z"/>
	<path class="st0" d="M256,314.802c7.247,0,13.143-5.896,13.143-13.143v-22.32c0-7.247-5.896-13.144-13.143-13.144
		s-13.143,5.896-13.143,13.144v22.32C242.857,308.906,248.753,314.802,256,314.802z M250.857,279.339
		c0-2.836,2.307-5.144,5.143-5.144s5.143,2.308,5.143,5.144v22.32c0,2.836-2.307,5.143-5.143,5.143s-5.143-2.307-5.143-5.143
		V279.339z"/>
	<path class="st0" d="M211,314.802c7.247,0,13.143-5.896,13.143-13.143v-22.32c0-7.247-5.896-13.144-13.143-13.144
		s-13.143,5.896-13.143,13.144v22.32C197.857,308.906,203.753,314.802,211,314.802z M205.857,279.339
		c0-2.836,2.307-5.144,5.143-5.144s5.143,2.308,5.143,5.144v22.32c0,2.836-2.307,5.143-5.143,5.143s-5.143-2.307-5.143-5.143
		V279.339z"/>
</g>
</svg>
