<?xml version="1.0" encoding="utf-8"?>
<!-- Generator: Adobe Illustrator 27.0.1, SVG Export Plug-In . SVG Version: 6.00 Build 0)  -->
<svg version="1.1" id="Layer_2" xmlns="http://www.w3.org/2000/svg" xmlns:xlink="http://www.w3.org/1999/xlink" x="0px" y="0px"
	 viewBox="0 0 512 512" style="enable-background:new 0 0 512 512;" xml:space="preserve">
<style type="text/css">
	.st0{fill:#FFFFFF;}
</style>
<g>
	<path class="st0" d="M305.82,234.149c0.22,0.141,0.45,0.261,0.69,0.36c0.25,0.1,0.5,0.18,0.75,0.23
		c0.26,0.05,0.52,0.079,0.78,0.079c0.26,0,0.53-0.029,0.79-0.079c0.25-0.051,0.5-0.131,0.74-0.23c0.25-0.1,0.48-0.22,0.69-0.36
		c0.22-0.149,0.43-0.319,0.61-0.5c0.75-0.739,1.17-1.779,1.17-2.83c0-0.26-0.02-0.52-0.07-0.779c-0.06-0.26-0.13-0.51-0.23-0.75
		s-0.23-0.471-0.37-0.69c-0.15-0.22-0.31-0.42-0.5-0.609c-0.18-0.181-0.39-0.351-0.61-0.49c-0.21-0.15-0.44-0.271-0.69-0.37
		c-0.24-0.1-0.49-0.18-0.74-0.23c-1.3-0.27-2.69,0.16-3.61,1.091c-0.19,0.189-0.36,0.39-0.5,0.609c-0.15,0.22-0.27,0.45-0.37,0.69
		c-0.1,0.24-0.18,0.49-0.23,0.75c-0.05,0.26-0.07,0.52-0.07,0.779c0,1.051,0.42,2.08,1.17,2.83
		C305.4,233.83,305.6,234,305.82,234.149z"/>
	<path class="st0" d="M207.65,229.29c-0.1-0.24-0.22-0.471-0.37-0.69c-0.14-0.22-0.31-0.42-0.5-0.609
		c-0.92-0.931-2.31-1.36-3.61-1.091c-0.25,0.051-0.5,0.131-0.74,0.23c-0.25,0.1-0.48,0.22-0.7,0.37c-0.21,0.14-0.42,0.31-0.6,0.49
		c-0.19,0.189-0.36,0.39-0.5,0.609s-0.27,0.45-0.37,0.69s-0.17,0.49-0.23,0.75c-0.05,0.26-0.07,0.52-0.07,0.779
		c0,1.051,0.42,2.08,1.17,2.83c0.18,0.181,0.39,0.351,0.6,0.5c0.22,0.141,0.45,0.261,0.7,0.36c0.24,0.1,0.49,0.18,0.74,0.23
		c0.26,0.05,0.53,0.079,0.79,0.079c0.26,0,0.52-0.029,0.78-0.079c0.25-0.051,0.5-0.131,0.75-0.23c0.24-0.1,0.47-0.22,0.69-0.36
		c0.22-0.149,0.42-0.319,0.6-0.5c0.19-0.18,0.36-0.39,0.5-0.609c0.14-0.221,0.27-0.45,0.37-0.69s0.18-0.49,0.23-0.75
		c0.05-0.25,0.08-0.52,0.08-0.78c0-0.26-0.03-0.52-0.08-0.779C207.83,229.78,207.75,229.53,207.65,229.29z"/>
	<path class="st0" d="M239.44,304.83c-0.1-0.24-0.22-0.48-0.36-0.69c-0.15-0.22-0.32-0.43-0.5-0.609c-0.19-0.19-0.39-0.351-0.61-0.5
		c-0.22-0.141-0.45-0.271-0.69-0.37c-0.24-0.101-0.49-0.17-0.75-0.221c-0.51-0.109-1.05-0.109-1.56,0
		c-0.26,0.051-0.51,0.12-0.75,0.221c-0.24,0.1-0.47,0.229-0.69,0.37c-0.22,0.149-0.42,0.31-0.61,0.5
		c-0.74,0.739-1.17,1.779-1.17,2.829c0,1.051,0.43,2.08,1.17,2.83c0.75,0.74,1.78,1.17,2.83,1.17c1.05,0,2.08-0.43,2.83-1.17
		c0.74-0.75,1.17-1.779,1.17-2.83c0-0.26-0.03-0.529-0.08-0.779C239.62,305.319,239.54,305.069,239.44,304.83z"/>
	<path class="st0" d="M276.25,310.359c1.05,0,2.08-0.43,2.83-1.17c0.74-0.75,1.17-1.779,1.17-2.83c0-1.05-0.43-2.09-1.17-2.829
		c-0.18-0.19-0.39-0.351-0.61-0.5c-0.22-0.141-0.45-0.271-0.69-0.37c-0.24-0.101-0.49-0.17-0.75-0.221
		c-0.51-0.109-1.05-0.109-1.56,0c-0.26,0.051-0.51,0.12-0.75,0.221c-0.24,0.1-0.47,0.229-0.69,0.37c-0.22,0.149-0.43,0.31-0.61,0.5
		c-0.74,0.739-1.17,1.779-1.17,2.829c0,1.051,0.43,2.08,1.17,2.83C274.17,309.93,275.2,310.359,276.25,310.359z"/>
	<path class="st0" d="M364.607,180.464c0-2.209-1.791-4-4-4H151.393c-2.209,0-4,1.791-4,4v100.715c0,0.01,0.003,0.019,0.003,0.029
		c0.002,0.234,0.027,0.467,0.07,0.699c0.01,0.054,0.021,0.106,0.033,0.159c0.049,0.214,0.109,0.427,0.194,0.634l0.011,0.026
		c0.002,0.005,0.004,0.011,0.007,0.017l20.696,50.315c0.617,1.5,2.078,2.479,3.699,2.479h167.786c1.622,0,3.083-0.979,3.699-2.479
		l20.696-50.314c0.003-0.006,0.005-0.012,0.007-0.018l0.01-0.025c0.085-0.207,0.145-0.42,0.194-0.634
		c0.012-0.053,0.023-0.105,0.033-0.159c0.043-0.232,0.069-0.465,0.07-0.699c0-0.01,0.003-0.019,0.003-0.029V180.464z
		 M356.607,277.179H260v-92.715h96.607V277.179z M155.393,184.464H252v92.715h-96.607V184.464z M337.213,327.536H174.787
		l-17.423-42.357h197.272L337.213,327.536z"/>
	<path class="st0" d="M203.956,289.5c-4.593,0-8.758,1.851-11.801,4.84c-0.038,0.035-0.082,0.06-0.119,0.097
		c-0.037,0.037-0.062,0.081-0.098,0.12c-2.989,3.043-4.839,7.208-4.839,11.8c0,9.295,7.562,16.856,16.857,16.856
		c4.595,0,8.763-1.853,11.806-4.845c0.036-0.034,0.078-0.057,0.114-0.093c0.036-0.036,0.059-0.078,0.093-0.114
		c2.991-3.044,4.844-7.21,4.844-11.805C220.812,297.062,213.25,289.5,203.956,289.5z M212.812,306.357
		c0,0.962-0.159,1.887-0.445,2.755L201.2,297.945c0.868-0.285,1.793-0.445,2.756-0.445
		C208.839,297.5,212.812,301.474,212.812,306.357z M195.098,306.357c0-0.963,0.159-1.887,0.445-2.756l11.168,11.168
		c-0.868,0.285-1.793,0.445-2.756,0.445C199.072,315.214,195.098,311.241,195.098,306.357z"/>
	<path class="st0" d="M226.753,247.962c3.6-4.776,5.738-10.713,5.738-17.141c0-6.428-2.138-12.365-5.738-17.141l3.593-3.593
		c1.562-1.562,1.562-4.095,0-5.656c-1.562-1.562-4.095-1.562-5.657,0l-3.592,3.592c-4.776-3.6-10.713-5.738-17.141-5.738
		c-6.428,0-12.365,2.138-17.141,5.738l-3.592-3.592c-1.562-1.562-4.095-1.562-5.657,0c-1.562,1.562-1.562,4.095,0,5.656l3.593,3.593
		c-3.6,4.776-5.738,10.713-5.738,17.141c0,6.428,2.138,12.365,5.738,17.141l-3.592,3.592c-1.562,1.562-1.562,4.095,0,5.656
		c0.781,0.781,1.805,1.172,2.829,1.172s2.047-0.391,2.829-1.172l3.592-3.592c4.776,3.6,10.713,5.738,17.142,5.738
		c6.428,0,12.365-2.138,17.141-5.738l3.592,3.592c0.781,0.781,1.805,1.172,2.829,1.172s2.047-0.391,2.829-1.172
		c1.562-1.562,1.562-4.095,0-5.656L226.753,247.962z M203.956,251.357c-4.219,0-8.142-1.282-11.408-3.472l3.099-3.099
		c1.562-1.562,1.562-4.095,0-5.656c-1.562-1.562-4.095-1.562-5.657,0l-3.099,3.099c-2.19-3.265-3.472-7.189-3.472-11.407
		s1.282-8.142,3.472-11.407l3.099,3.099c0.781,0.781,1.805,1.172,2.829,1.172s2.047-0.391,2.829-1.172
		c1.562-1.562,1.562-4.095,0-5.656l-3.099-3.099c3.265-2.19,7.189-3.471,11.408-3.471c4.218,0,8.142,1.281,11.407,3.471
		l-3.099,3.099c-1.562,1.562-1.562,4.095,0,5.656c0.781,0.781,1.805,1.172,2.829,1.172s2.047-0.391,2.829-1.172l3.099-3.099
		c2.19,3.265,3.472,7.189,3.472,11.407s-1.282,8.142-3.472,11.407l-3.099-3.099c-1.562-1.562-4.095-1.562-5.657,0
		c-1.562,1.562-1.562,4.095,0,5.656l3.099,3.099C212.098,250.076,208.174,251.357,203.956,251.357z"/>
	<path class="st0" d="M308.044,323.214c4.595,0,8.762-1.853,11.806-4.844c0.036-0.034,0.079-0.058,0.114-0.093
		c0.036-0.036,0.06-0.078,0.094-0.115c2.991-3.044,4.843-7.21,4.843-11.804c0-9.295-7.562-16.857-16.857-16.857
		c-4.593,0-8.758,1.851-11.801,4.841c-0.038,0.035-0.082,0.06-0.119,0.097c-0.037,0.037-0.062,0.081-0.097,0.119
		c-2.989,3.043-4.84,7.208-4.84,11.801C291.188,315.652,298.75,323.214,308.044,323.214z M299.188,306.357
		c0-0.963,0.159-1.888,0.445-2.756l11.168,11.168c-0.868,0.285-1.793,0.445-2.756,0.445
		C303.161,315.214,299.188,311.241,299.188,306.357z M316.902,306.357c0,0.962-0.159,1.887-0.445,2.755l-11.168-11.168
		c0.868-0.285,1.793-0.445,2.755-0.445C312.928,297.5,316.902,301.474,316.902,306.357z"/>
	<path class="st0" d="M285.247,213.681c-3.6,4.776-5.738,10.713-5.738,17.141c0,6.428,2.138,12.365,5.738,17.141l-3.592,3.592
		c-1.562,1.562-1.562,4.095,0,5.656c0.781,0.781,1.805,1.172,2.829,1.172s2.047-0.391,2.829-1.172l3.592-3.592
		c4.776,3.6,10.713,5.738,17.141,5.738c6.428,0,12.365-2.138,17.142-5.738l3.592,3.592c0.781,0.781,1.805,1.172,2.829,1.172
		s2.047-0.391,2.829-1.172c1.562-1.562,1.562-4.095,0-5.656l-3.592-3.592c3.6-4.776,5.738-10.713,5.738-17.141
		c0-6.428-2.138-12.365-5.738-17.141l3.593-3.593c1.562-1.562,1.562-4.095,0-5.656c-1.562-1.562-4.095-1.562-5.657,0l-3.592,3.592
		c-4.776-3.6-10.713-5.738-17.141-5.738c-6.428,0-12.365,2.138-17.141,5.738l-3.592-3.592c-1.562-1.562-4.095-1.562-5.657,0
		c-1.562,1.562-1.562,4.095,0,5.656L285.247,213.681z M308.044,210.286c4.219,0,8.142,1.281,11.408,3.471l-3.099,3.099
		c-1.562,1.562-1.562,4.095,0,5.656c0.781,0.781,1.805,1.172,2.829,1.172s2.047-0.391,2.829-1.172l3.099-3.099
		c2.19,3.265,3.472,7.189,3.472,11.407s-1.282,8.142-3.472,11.407l-3.099-3.099c-1.562-1.562-4.095-1.562-5.657,0
		c-1.562,1.562-1.562,4.095,0,5.656l3.099,3.099c-3.265,2.19-7.189,3.472-11.408,3.472c-4.219,0-8.142-1.282-11.407-3.472
		l3.099-3.099c1.562-1.562,1.562-4.095,0-5.656c-1.562-1.562-4.095-1.562-5.657,0l-3.099,3.099
		c-2.19-3.265-3.472-7.189-3.472-11.407s1.282-8.142,3.472-11.407l3.099,3.099c0.781,0.781,1.805,1.172,2.829,1.172
		s2.047-0.391,2.829-1.172c1.562-1.562,1.562-4.095,0-5.656l-3.099-3.099C299.903,211.568,303.826,210.286,308.044,210.286z"/>
	<path class="st0" d="M243.857,306.357c0,2.209,1.791,4,4,4h16.286c2.209,0,4-1.791,4-4s-1.791-4-4-4h-16.286
		C245.648,302.357,243.857,304.148,243.857,306.357z"/>
</g>
</svg>
