<?xml version="1.0" encoding="utf-8"?>
<!-- Generator: Adobe Illustrator 27.0.1, SVG Export Plug-In . SVG Version: 6.00 Build 0)  -->
<svg version="1.1" id="Layer_2" xmlns="http://www.w3.org/2000/svg" xmlns:xlink="http://www.w3.org/1999/xlink" x="0px" y="0px"
	 viewBox="0 0 512 512" style="enable-background:new 0 0 512 512;" xml:space="preserve">
<style type="text/css">
	.st0{fill:#FFFFFF;}
</style>
<g>
	<path class="st0" d="M339.463,282.649c0.751-1.048,0.952-2.393,0.539-3.613l-20.372-60.225
		c-2.476-7.319-9.331-12.237-17.058-12.237h-11.22l-5.489-16.226c-2.431-7.188-9.163-12.017-16.751-12.017H260v-35.188
		c0-2.209-1.791-4-4-4s-4,1.791-4,4v35.188h-9.112c-7.588,0-14.32,4.83-16.751,12.017l-5.489,16.226h-11.22
		c-7.727,0-14.582,4.917-17.058,12.237l-20.372,60.225c-0.413,1.221-0.212,2.565,0.539,3.613c0.751,1.047,1.961,1.668,3.25,1.668
		h52.896v27.106c0,14.881,12.161,27.079,27.109,27.192c0.068,0,0.134,0.001,0.202,0.001c7.08,0,13.811-2.814,18.972-7.937
		c5.307-5.268,8.351-12.528,8.351-19.92v-26.443h52.896C337.502,284.317,338.712,283.696,339.463,282.649z M233.715,192.912
		c1.332-3.936,5.018-6.581,9.173-6.581h26.224c4.156,0,7.842,2.645,9.173,6.581l4.622,13.662h-53.813L233.715,192.912z
		 M199.948,221.375c1.376-4.067,5.186-6.8,9.479-6.8h14.09h64.965h14.09c4.294,0,8.104,2.733,9.479,6.8l10.417,30.796H189.531
		L199.948,221.375z M275.317,310.761c0,5.274-2.182,10.466-5.986,14.241c-3.652,3.624-8.383,5.615-13.339,5.615
		c-0.046,0-0.093-0.001-0.14-0.001c-10.57-0.079-19.17-8.689-19.17-19.192v-27.106h38.635V310.761z M279.317,276.317h-46.635h-51.32
		l5.462-16.147h138.106c0.081,0,0.157-0.019,0.236-0.024l5.47,16.171H279.317z"/>
	<path class="st0" d="M206.467,303.706l-23.578,23.577c-1.562,1.562-1.562,4.095,0,5.656c0.781,0.781,1.805,1.172,2.829,1.172
		c1.023,0,2.047-0.391,2.829-1.172l23.578-23.577c1.562-1.562,1.562-4.095,0-5.656C210.562,302.145,208.03,302.145,206.467,303.706z
		"/>
	<path class="st0" d="M299.876,305.058c-1.562,1.562-1.562,4.095,0,5.656l22.226,22.226c0.781,0.781,1.805,1.172,2.829,1.172
		s2.047-0.391,2.829-1.172c1.562-1.562,1.562-4.095,0-5.656l-22.226-22.226C303.971,303.495,301.438,303.495,299.876,305.058z"/>
	<path class="st0" d="M227.367,349.748l-5.807,17.873c-0.683,2.102,0.467,4.358,2.568,5.041c0.411,0.133,0.827,0.196,1.237,0.196
		c1.686,0,3.254-1.074,3.803-2.765l5.807-17.873c0.683-2.102-0.467-4.358-2.568-5.041
		C230.305,346.5,228.049,347.646,227.367,349.748z"/>
	<path class="st0" d="M275.934,347.18c-2.101,0.683-3.251,2.939-2.568,5.041l5.807,17.873c0.549,1.69,2.117,2.765,3.803,2.765
		c0.41,0,0.827-0.063,1.237-0.196c2.101-0.683,3.251-2.939,2.568-5.041l-5.807-17.873
		C280.292,347.647,278.034,346.502,275.934,347.18z"/>
</g>
</svg>
