<?xml version="1.0" encoding="utf-8"?>
<!-- Generator: Adobe Illustrator 27.0.1, SVG Export Plug-In . SVG Version: 6.00 Build 0)  -->
<svg version="1.1" id="Layer_2" xmlns="http://www.w3.org/2000/svg" xmlns:xlink="http://www.w3.org/1999/xlink" x="0px" y="0px"
	 viewBox="0 0 512 512" style="enable-background:new 0 0 512 512;" xml:space="preserve">
<style type="text/css">
	.st0{fill:#FFFFFF;}
</style>
<g>
	<path class="st0" d="M154.112,174.625v114.071c0,11.511,9.364,20.875,20.875,20.875h53.974v14.272c0,4.834,3.933,8.768,8.768,8.768
		h6.859v5.183c0,11.279,9.176,20.456,20.456,20.456h31.473c11.279,0,20.456-9.177,20.456-20.456v-91.669h7.826c2.209,0,4-1.791,4-4
		v-6.888h12.827c2.209,0,4-1.791,4-4v-0.123h16.661c2.209,0,4-1.791,4-4v-15.397c0-2.209-1.791-4-4-4h-16.661v-0.131
		c0-2.209-1.791-4-4-4h-35.598c-4.897,0-8.881,3.984-8.881,8.881v29.658c0,2.209,1.791,4,4,4h7.826v91.669
		c0,6.868-5.588,12.456-12.456,12.456h-31.473c-6.868,0-12.456-5.588-12.456-12.456v-5.183h6.859c4.834,0,8.768-3.934,8.768-8.768
		v-14.272h0.57c11.511,0,20.875-9.364,20.875-20.875V174.625c0-11.511-9.364-20.875-20.875-20.875h-93.798
		C163.476,153.75,154.112,163.114,154.112,174.625z M358.286,215.717v7.397h-12.661v-7.397H358.286z M305.146,212.467
		c0-0.485,0.395-0.881,0.881-0.881h31.598v0.131v15.397v0.123h-12.827c-2.209,0-4,1.791-4,4v6.888h-15.651V212.467z M211.806,161.75
		l-49.694,49.694v-14.889c0.03-0.029,0.066-0.048,0.096-0.078l34.728-34.728H211.806z M237.99,161.75l-75.878,75.878V222.74
		c0.03-0.029,0.066-0.048,0.096-0.078l60.912-60.912H237.99z M260.214,323.844c0,0.423-0.344,0.768-0.768,0.768h-21.719
		c-0.423,0-0.768-0.345-0.768-0.768v-14.272h23.254V323.844z M281.66,174.625v114.071c0,7.1-5.776,12.875-12.875,12.875h-4.57
		H232.96h-57.974c-7.099,0-12.875-5.775-12.875-12.875v-39.772c0.03-0.029,0.066-0.048,0.096-0.078l87.096-87.096h19.481
		C275.884,161.75,281.66,167.525,281.66,174.625z M174.987,161.75h10.635l-23.51,23.51v-10.635
		C162.112,167.525,167.888,161.75,174.987,161.75z"/>
	<path class="st0" d="M219.904,242.125v45.707c0,2.209,1.791,4,4,4h42.546c3.948,0,7.161-3.212,7.161-7.16v-42.547
		c0-2.209-1.791-4-4-4h-45.707C221.695,238.125,219.904,239.916,219.904,242.125z M227.904,246.125h37.707v37.707h-37.707V246.125z"
		/>
</g>
</svg>
