<?xml version="1.0" encoding="utf-8"?>
<!-- Generator: Adobe Illustrator 27.0.1, SVG Export Plug-In . SVG Version: 6.00 Build 0)  -->
<svg version="1.1" id="Layer_2" xmlns="http://www.w3.org/2000/svg" xmlns:xlink="http://www.w3.org/1999/xlink" x="0px" y="0px"
	 viewBox="0 0 512 512" style="enable-background:new 0 0 512 512;" xml:space="preserve">
<style type="text/css">
	.st0{fill:#FFFFFF;}
</style>
<g>
	<path class="st0" d="M256,148.286c-59.394,0-107.714,48.32-107.714,107.714S196.606,363.714,256,363.714
		S363.714,315.394,363.714,256S315.394,148.286,256,148.286z M256,355.714c-54.983,0-99.714-44.731-99.714-99.714
		s44.731-99.714,99.714-99.714s99.714,44.731,99.714,99.714S310.983,355.714,256,355.714z"/>
	<path class="st0" d="M256,178c-43.009,0-78,34.991-78,78s34.991,78,78,78s78-34.991,78-78S299.009,178,256,178z M256,326
		c-38.598,0-70-31.402-70-70s31.402-70,70-70s70,31.402,70,70S294.598,326,256,326z"/>
	<path class="st0" d="M275.714,268.071h-21.286v-40.286c0-2.209-1.791-4-4-4s-4,1.791-4,4v44.286c0,2.209,1.791,4,4,4h25.286
		c2.209,0,4-1.791,4-4S277.923,268.071,275.714,268.071z"/>
</g>
</svg>
