<?xml version="1.0" encoding="utf-8"?>
<!-- Generator: Adobe Illustrator 27.0.1, SVG Export Plug-In . SVG Version: 6.00 Build 0)  -->
<svg version="1.1" id="Layer_2" xmlns="http://www.w3.org/2000/svg" xmlns:xlink="http://www.w3.org/1999/xlink" x="0px" y="0px"
	 viewBox="0 0 512 512" style="enable-background:new 0 0 512 512;" xml:space="preserve">
<style type="text/css">
	.st0{fill:#FFFFFF;}
</style>
<g>
	<path class="st0" d="M178.8,196.964v120.522c0,2.209,1.791,4,4,4s4-1.791,4-4V196.964c0-17.369,14.131-31.5,31.5-31.5h25.687
		c16.208,0,29.592,12.307,31.309,28.066h-4.405c-5.336,0-9.677,4.341-9.677,9.677v11.226c-8.022,1.502-14.605,7.52-16.655,15.669
		l-7.568,30.084h-0.252c-6.045,0-10.964,4.918-10.964,10.964v4.354c0,6.046,4.918,10.964,10.964,10.964h85.497
		c6.046,0,10.964-4.918,10.964-10.964v-4.354c0-6.046-4.918-10.964-10.964-10.964h-0.252l-7.568-30.084
		c-2.05-8.149-8.633-14.167-16.655-15.669v-11.226c0-5.336-4.341-9.677-9.677-9.677h-4.755
		c-1.747-20.177-18.719-36.066-39.341-36.066H218.3C196.52,157.464,178.8,175.184,178.8,196.964z M325.2,271.151v4.354
		c0,1.635-1.33,2.964-2.964,2.964h-85.497c-1.634,0-2.964-1.33-2.964-2.964v-4.354c0-1.635,1.33-2.964,2.964-2.964h3.371h78.755
		h3.371C323.87,268.187,325.2,269.517,325.2,271.151z M306.657,232.054l7.077,28.133H245.24l7.077-28.133
		c1.48-5.885,6.752-9.995,12.821-9.995h0.076h28.546h0.076C299.904,222.059,305.176,226.169,306.657,232.054z M289.76,203.208
		v10.852h-20.546v-10.852c0-0.925,0.752-1.677,1.677-1.677h17.192C289.008,201.53,289.76,202.283,289.76,203.208z"/>
	<path class="st0" d="M283.487,298.783c0-2.209-1.791-4-4-4s-4,1.791-4,4v12.938c0,2.209,1.791,4,4,4s4-1.791,4-4V298.783z"/>
	<path class="st0" d="M279.487,333.598c-2.209,0-4,1.791-4,4v12.938c0,2.209,1.791,4,4,4s4-1.791,4-4v-12.938
		C283.487,335.389,281.696,333.598,279.487,333.598z"/>
	<path class="st0" d="M256.852,317.487v12.938c0,2.209,1.791,4,4,4s4-1.791,4-4v-12.938c0-2.209-1.791-4-4-4
		S256.852,315.278,256.852,317.487z"/>
	<path class="st0" d="M294.542,317.487v12.938c0,2.209,1.791,4,4,4s4-1.791,4-4v-12.938c0-2.209-1.791-4-4-4
		S294.542,315.278,294.542,317.487z"/>
	<path class="st0" d="M236.109,305.252v12.938c0,2.209,1.791,4,4,4s4-1.791,4-4v-12.938c0-2.209-1.791-4-4-4
		S236.109,303.043,236.109,305.252z"/>
	<path class="st0" d="M318.864,301.252c-2.209,0-4,1.791-4,4v12.938c0,2.209,1.791,4,4,4s4-1.791,4-4v-12.938
		C322.864,303.043,321.073,301.252,318.864,301.252z"/>
</g>
</svg>
