<?xml version="1.0" encoding="utf-8"?>
<!-- Generator: Adobe Illustrator 27.0.1, SVG Export Plug-In . SVG Version: 6.00 Build 0)  -->
<svg version="1.1" id="Layer_2" xmlns="http://www.w3.org/2000/svg" xmlns:xlink="http://www.w3.org/1999/xlink" x="0px" y="0px"
	 viewBox="0 0 512 512" style="enable-background:new 0 0 512 512;" xml:space="preserve">
<style type="text/css">
	.st0{fill:#FFFFFF;}
</style>
<g>
	<path class="st0" d="M203.807,347.286c19.43,0,35.593-14.574,37.597-33.9l9.949-95.939c1.394-13.441-2.996-26.905-12.045-36.941
		c-9.049-10.035-21.988-15.791-35.501-15.791s-26.452,5.756-35.501,15.791c-9.049,10.036-13.438,23.5-12.045,36.941l9.949,95.939
		C168.214,332.712,184.377,347.286,203.807,347.286z M174.247,185.862c7.534-8.355,18.309-13.148,29.56-13.148
		s22.025,4.793,29.56,13.148c7.534,8.356,11.189,19.567,10.029,30.758l-9.949,95.941c-1.58,15.235-14.322,26.725-29.64,26.725
		s-28.06-11.489-29.64-26.726l-9.949-95.94C163.058,205.43,166.713,194.219,174.247,185.862z"/>
	<path class="st0" d="M181.015,271.313c0.513,4.975,2.58,9.543,5.98,13.211c0.759,0.819,1.823,1.281,2.934,1.281
		c0.067,0,0.136-0.002,0.204-0.005c1.184-0.061,2.279-0.643,2.991-1.589c2.549-3.386,6.442-5.327,10.683-5.327
		s8.134,1.941,10.684,5.327c0.713,0.946,1.809,1.528,2.992,1.589c1.18,0.058,2.332-0.407,3.138-1.276
		c3.398-3.669,5.466-8.236,5.979-13.208l5.566-53.682c0.105-0.973,0.158-1.981,0.158-2.999c0-15.697-12.793-28.468-28.517-28.468
		c-8.062,0-15.781,3.435-21.18,9.422c-5.396,5.986-8.014,14.016-7.181,22.029L181.015,271.313z M188.569,200.946
		c3.884-4.308,9.438-6.778,15.237-6.778c11.312,0,20.517,9.182,20.517,20.468c0,0.732-0.038,1.453-0.113,2.158l-5.568,53.7
		c-0.185,1.791-0.68,3.501-1.459,5.075c-3.744-3.019-8.411-4.685-13.376-4.685s-9.632,1.666-13.375,4.685
		c-0.78-1.575-1.274-3.285-1.459-5.078l-5.569-53.698C182.805,211.028,184.688,205.253,188.569,200.946z"/>
	<path class="st0" d="M203.807,295.792c-9.16,0-16.613,7.453-16.613,16.614s7.453,16.614,16.613,16.614
		c9.161,0,16.614-7.453,16.614-16.614S212.968,295.792,203.807,295.792z M203.807,321.021c-4.749,0-8.613-3.864-8.613-8.614
		s3.864-8.614,8.613-8.614c4.75,0,8.614,3.864,8.614,8.614S208.557,321.021,203.807,321.021z"/>
	<path class="st0" d="M353.748,275.353c-0.211-2.039-1.929-3.588-3.979-3.588h-19.162c-1.133,0-2.212,0.48-2.971,1.321
		c-0.758,0.841-1.125,1.964-1.008,3.091l1.969,19.033c0.602,5.761-1.278,11.534-5.158,15.841c-3.884,4.311-9.439,6.782-15.243,6.782
		c-11.31,0-20.511-9.182-20.511-20.467c0-0.728,0.036-1.437,0.109-2.159l5.567-53.702c0.186-1.789,0.682-3.498,1.462-5.073
		c3.745,3.016,8.412,4.68,13.372,4.68c4.963,0,9.631-1.665,13.378-4.684c0.78,1.574,1.274,3.284,1.456,5.076l1.893,18.266
		c0.211,2.039,1.929,3.588,3.979,3.588h19.173c1.133,0,2.212-0.48,2.971-1.321c0.759-0.842,1.125-1.965,1.008-3.091l-6.256-60.331
		c-2-19.323-18.165-33.896-37.601-33.896c-19.43,0-35.59,14.572-37.59,33.895l-9.952,95.935c-0.174,1.638-0.263,3.326-0.263,5.017
		c0,26.312,21.445,47.717,47.805,47.717c13.513,0,26.452-5.756,35.501-15.791c9.047-10.034,13.436-23.495,12.042-36.932
		L353.748,275.353z M337.756,326.133c-7.534,8.356-18.308,13.148-29.56,13.148c-21.948,0-39.805-17.816-39.805-39.717
		c0-1.409,0.073-2.812,0.219-4.181l9.953-95.945c1.577-15.232,14.316-26.72,29.633-26.72c15.322,0,28.066,11.487,29.644,26.72
		l5.798,55.919h-11.129l-1.521-14.669c-0.504-4.972-2.572-9.541-5.98-13.212c-0.806-0.867-1.938-1.329-3.135-1.273
		c-1.182,0.061-2.276,0.641-2.989,1.585c-2.555,3.383-6.45,5.323-10.688,5.323s-8.133-1.94-10.688-5.323
		c-0.714-0.945-1.811-1.526-2.993-1.585c-1.175-0.059-2.332,0.41-3.136,1.279c-3.393,3.669-5.459,8.231-5.975,13.197l-5.568,53.711
		c-0.101,0.987-0.151,1.988-0.151,2.976c0,15.696,12.79,28.467,28.511,28.467c8.066,0,15.788-3.437,21.187-9.428
		c5.395-5.986,8.008-14.015,7.172-22.021l-1.512-14.619h11.12l1.619,15.619C348.942,306.571,345.288,317.779,337.756,326.133z"/>
	<path class="st0" d="M308.198,216.208c9.161,0,16.614-7.453,16.614-16.614s-7.453-16.614-16.614-16.614
		s-16.614,7.453-16.614,16.614S299.037,216.208,308.198,216.208z M308.198,190.979c4.75,0,8.614,3.864,8.614,8.614
		s-3.864,8.614-8.614,8.614s-8.614-3.864-8.614-8.614S303.448,190.979,308.198,190.979z"/>
</g>
</svg>
