<?xml version="1.0" encoding="utf-8"?>
<!-- Generator: Adobe Illustrator 27.0.1, SVG Export Plug-In . SVG Version: 6.00 Build 0)  -->
<svg version="1.1" id="Layer_2" xmlns="http://www.w3.org/2000/svg" xmlns:xlink="http://www.w3.org/1999/xlink" x="0px" y="0px"
	 viewBox="0 0 512 512" style="enable-background:new 0 0 512 512;" xml:space="preserve">
<style type="text/css">
	.st0{fill:#FFFFFF;}
</style>
<g>
	<path class="st0" d="M231.72,283.29c-0.22-0.14-0.45-0.26-0.69-0.36c-0.25-0.1-0.5-0.18-0.75-0.23c-1.3-0.26-2.69,0.16-3.61,1.09
		c-0.75,0.75-1.17,1.78-1.17,2.83c0,1.05,0.42,2.08,1.17,2.83c0.74,0.74,1.77,1.17,2.83,1.17c0.26,0,0.52-0.03,0.78-0.08
		c0.25-0.05,0.5-0.13,0.75-0.23c0.24-0.1,0.47-0.22,0.69-0.36c0.22-0.15,0.42-0.32,0.61-0.5c0.18-0.19,0.35-0.39,0.49-0.61
		c0.15-0.22,0.27-0.45,0.37-0.69c0.1-0.24,0.18-0.49,0.23-0.75c0.05-0.26,0.08-0.52,0.08-0.78c0-1.05-0.43-2.08-1.17-2.83
		C232.14,283.61,231.94,283.44,231.72,283.29z"/>
	<path class="st0" d="M359.459,283.375c0-11.049-8.989-20.039-20.039-20.039h-2.657v-9.457c0-19.728-15.091-35.994-34.335-37.87
		v-13.237c7.8-6.784,9.015-14.333,9.015-18.373c0-7.449-3.454-17.848-19.91-25.087c-10.466-4.605-24.673-7.141-40.006-7.141
		s-29.54,2.536-40.006,7.141c-16.456,7.24-19.91,17.639-19.91,25.087c0,4.039,1.215,11.588,9.016,18.373v13.237
		c-19.244,1.875-34.335,18.141-34.335,37.87v53.315c0,14.435,11.744,26.178,26.179,26.178h1.04v11.434c0,2.209,1.791,4,4,4
		s4-1.791,4-4v-11.434h100.034v11.434c0,2.209,1.791,4,4,4s4-1.791,4-4v-11.434h1.04c14.435,0,26.179-11.744,26.179-26.178v-3.781
		h2.657C350.47,303.414,359.459,294.425,359.459,283.375z M199.612,184.4c0-16.646,26.912-24.228,51.916-24.228
		s51.916,7.582,51.916,24.228c0,3.451-1.294,8.561-7.457,13.312c-0.982,0.757-1.558,1.927-1.558,3.168v14.946h-3.588v-18.975
		c7.384-4.302,9.015-9.076,9.015-12.451c0-13.55-24.312-20.64-48.328-20.64S203.2,170.85,203.2,184.4
		c0,3.375,1.632,8.149,9.016,12.451v18.975h-3.588V200.88c0-1.241-0.576-2.411-1.558-3.168
		C200.906,192.961,199.612,187.851,199.612,184.4z M217.987,190.873c-4.25-2.099-6.787-4.519-6.787-6.472
		c0-5.154,15.71-12.64,40.328-12.64s40.328,7.486,40.328,12.64c0,1.954-2.537,4.373-6.787,6.472
		c-1.365,0.674-2.229,2.064-2.229,3.586v21.367h-62.625v-21.367C220.216,192.937,219.352,191.547,217.987,190.873z M328.764,307.195
		c0,10.023-8.155,18.178-18.179,18.178H192.471c-10.024,0-18.179-8.155-18.179-18.178V253.88c0-16.572,13.482-30.054,30.054-30.054
		h0.282h11.588h70.625h11.588h0.282c16.572,0,30.054,13.482,30.054,30.054v13.457v32.077V307.195z M339.421,295.414h-2.657v-24.077
		h2.657c6.638,0,12.039,5.4,12.039,12.039S346.059,295.414,339.421,295.414z"/>
	<path class="st0" d="M214.449,258.579h-20.746c-2.209,0-4,1.791-4,4s1.791,4,4,4h20.746c2.209,0,4-1.791,4-4
		S216.658,258.579,214.449,258.579z"/>
	<path class="st0" d="M214.449,282.62h-20.746c-2.209,0-4,1.791-4,4s1.791,4,4,4h20.746c2.209,0,4-1.791,4-4
		S216.658,282.62,214.449,282.62z"/>
	<path class="st0" d="M297.425,245.785h-5.448v-8.709c0-2.209-1.791-4-4-4s-4,1.791-4,4v8.709h-5.449
		c-7.044,0-12.776,5.731-12.776,12.776s5.731,12.776,12.776,12.776h5.449v40.787c0,2.209,1.791,4,4,4s4-1.791,4-4v-40.787h5.448
		c7.044,0,12.776-5.731,12.776-12.776S304.469,245.785,297.425,245.785z M297.425,263.337h-18.897c-2.633,0-4.776-2.143-4.776-4.776
		s2.143-4.776,4.776-4.776h18.897c2.633,0,4.776,2.143,4.776,4.776S300.058,263.337,297.425,263.337z"/>
</g>
</svg>
