<?xml version="1.0" encoding="utf-8"?>
<!-- Generator: Adobe Illustrator 27.0.1, SVG Export Plug-In . SVG Version: 6.00 Build 0)  -->
<svg version="1.1" id="Layer_2" xmlns="http://www.w3.org/2000/svg" xmlns:xlink="http://www.w3.org/1999/xlink" x="0px" y="0px"
	 viewBox="0 0 512 512" style="enable-background:new 0 0 512 512;" xml:space="preserve">
<style type="text/css">
	.st0{fill:#FFFFFF;}
</style>
<g>
	<path class="st0" d="M289.149,297.1c-0.21-0.149-0.449-0.27-0.689-0.37c-0.24-0.1-0.49-0.18-0.74-0.229
		c-0.52-0.101-1.05-0.101-1.57,0c-0.25,0.05-0.51,0.13-0.75,0.229c-0.239,0.101-0.47,0.221-0.689,0.37
		c-0.22,0.15-0.42,0.311-0.61,0.5c-0.74,0.74-1.17,1.771-1.17,2.83c0,1.05,0.43,2.08,1.17,2.82c0.75,0.75,1.78,1.17,2.83,1.17
		c1.061,0,2.09-0.42,2.83-1.17c0.75-0.74,1.17-1.771,1.17-2.82c0-1.06-0.42-2.09-1.17-2.83
		C289.58,297.41,289.37,297.25,289.149,297.1z"/>
	<path class="st0" d="M258.83,199.06c0.739-0.74,1.17-1.77,1.17-2.83c0-1.05-0.431-2.08-1.17-2.819
		c-0.75-0.75-1.78-1.181-2.83-1.181s-2.08,0.431-2.83,1.181c-0.74,0.739-1.17,1.77-1.17,2.819c0,1.061,0.43,2.09,1.17,2.83
		c0.75,0.75,1.78,1.181,2.83,1.181S258.08,199.81,258.83,199.06z"/>
	<path class="st0" d="M315.42,297.1c-0.21-0.149-0.45-0.27-0.69-0.37c-0.239-0.1-0.489-0.18-0.75-0.229
		c-0.51-0.101-1.04-0.101-1.56,0c-0.25,0.05-0.51,0.13-0.75,0.229c-0.24,0.101-0.47,0.221-0.69,0.37
		c-0.22,0.15-0.42,0.311-0.609,0.5c-0.74,0.74-1.17,1.771-1.17,2.83c0,1.05,0.43,2.08,1.18,2.82c0.74,0.75,1.77,1.17,2.82,1.17
		c1.06,0,2.09-0.42,2.83-1.17c0.75-0.74,1.17-1.771,1.17-2.82c0-1.06-0.42-2.09-1.17-2.83C315.85,297.41,315.64,297.25,315.42,297.1
		z"/>
	<path class="st0" d="M338.689,296.5c-0.25,0.05-0.5,0.13-0.75,0.229c-0.239,0.101-0.47,0.221-0.689,0.37
		c-0.22,0.15-0.42,0.311-0.61,0.5c-0.74,0.74-1.17,1.771-1.17,2.83c0,1.05,0.43,2.08,1.18,2.82c0.74,0.75,1.771,1.17,2.83,1.17
		c0.25,0,0.521-0.021,0.78-0.08c0.25-0.05,0.5-0.12,0.74-0.22c0.24-0.101,0.479-0.23,0.689-0.37c0.221-0.15,0.431-0.311,0.61-0.5
		c0.75-0.74,1.18-1.771,1.18-2.82c0-1.06-0.43-2.09-1.18-2.83C341.37,296.67,340,296.24,338.689,296.5z"/>
	<path class="st0" d="M349.221,254.052H162.779c-10.383,0-18.83,8.447-18.83,18.83v32.204c0,10.383,8.447,18.83,18.83,18.83h4.898
		v10.743c0,6.166,5.016,11.182,11.182,11.182s11.182-5.016,11.182-11.182v-10.743h131.918v10.743
		c0,6.166,5.016,11.182,11.182,11.182s11.182-5.016,11.182-11.182v-10.743h4.898c10.383,0,18.83-8.447,18.83-18.83v-32.204
		C368.051,262.499,359.604,254.052,349.221,254.052z M182.041,334.659c0,1.754-1.428,3.182-3.182,3.182s-3.182-1.428-3.182-3.182
		v-10.743h6.363V334.659z M336.322,334.659c0,1.754-1.428,3.182-3.182,3.182s-3.182-1.428-3.182-3.182v-10.743h6.363V334.659z
		 M360.051,305.086c0,5.972-4.858,10.83-10.83,10.83h-8.898h-14.363H186.041h-14.363h-8.898c-5.972,0-10.83-4.858-10.83-10.83
		v-32.204c0-5.972,4.858-10.83,10.83-10.83h186.441c5.972,0,10.83,4.858,10.83,10.83V305.086z"/>
	<path class="st0" d="M249.645,273.543H170.83c-2.209,0-4,1.791-4,4v22.882c0,2.209,1.791,4,4,4h78.814c2.209,0,4-1.791,4-4v-22.882
		C253.645,275.334,251.854,273.543,249.645,273.543z M245.645,296.425H174.83v-14.882h70.814V296.425z"/>
	<path class="st0" d="M343.475,277.543c0-2.209-1.791-4-4-4h-52.542c-2.209,0-4,1.791-4,4s1.791,4,4,4h52.542
		C341.684,281.543,343.475,279.752,343.475,277.543z"/>
	<path class="st0" d="M308,196.234c0-28.673-23.327-52-52-52s-52,23.327-52,52s23.327,52,52,52S308,224.907,308,196.234z
		 M212,196.234c0-24.262,19.738-44,44-44s44,19.738,44,44s-19.738,44-44,44S212,220.496,212,196.234z"/>
	<path class="st0" d="M281.964,196.234c0-14.317-11.647-25.965-25.964-25.965s-25.964,11.647-25.964,25.965
		c0,14.316,11.647,25.964,25.964,25.964S281.964,210.551,281.964,196.234z M238.036,196.234c0-9.906,8.059-17.965,17.964-17.965
		s17.964,8.059,17.964,17.965c0,9.905-8.059,17.964-17.964,17.964S238.036,206.14,238.036,196.234z"/>
</g>
</svg>
