<?xml version="1.0" encoding="utf-8"?>
<!-- Generator: Adobe Illustrator 27.0.1, SVG Export Plug-In . SVG Version: 6.00 Build 0)  -->
<svg version="1.1" id="Layer_2" xmlns="http://www.w3.org/2000/svg" xmlns:xlink="http://www.w3.org/1999/xlink" x="0px" y="0px"
	 viewBox="0 0 512 512" style="enable-background:new 0 0 512 512;" xml:space="preserve">
<style type="text/css">
	.st0{fill:#FFFFFF;}
</style>
<g>
	<path class="st0" d="M167.12,204.13c-0.221-0.15-0.45-0.271-0.69-0.37s-0.5-0.18-0.75-0.229c-0.52-0.101-1.05-0.101-1.56,0
		c-0.261,0.05-0.511,0.13-0.75,0.229c-0.24,0.1-0.48,0.22-0.69,0.37c-0.22,0.14-0.43,0.31-0.61,0.49
		c-0.75,0.75-1.17,1.779-1.17,2.83c0,1.06,0.431,2.09,1.17,2.83c0.74,0.75,1.78,1.17,2.83,1.17c1.051,0,2.08-0.42,2.82-1.17
		c0.75-0.74,1.18-1.771,1.18-2.83c0-1.051-0.43-2.08-1.17-2.83C167.54,204.439,167.34,204.27,167.12,204.13z"/>
	<path class="st0" d="M202.37,205.92c-0.101-0.24-0.23-0.47-0.37-0.69c-0.15-0.22-0.311-0.42-0.5-0.609
		c-0.181-0.181-0.391-0.351-0.61-0.49c-0.21-0.15-0.45-0.271-0.689-0.37c-0.24-0.1-0.49-0.18-0.75-0.229
		c-0.511-0.101-1.04-0.101-1.561,0c-0.25,0.05-0.51,0.13-0.75,0.229s-0.47,0.22-0.689,0.37c-0.221,0.14-0.42,0.31-0.61,0.49
		c-0.18,0.189-0.35,0.39-0.49,0.609c-0.149,0.221-0.27,0.45-0.37,0.69c-0.1,0.24-0.18,0.5-0.229,0.75
		c-0.05,0.26-0.08,0.52-0.08,0.78c0,0.26,0.03,0.529,0.08,0.779c0.05,0.261,0.13,0.511,0.229,0.75c0.101,0.24,0.221,0.48,0.37,0.69
		c0.141,0.22,0.311,0.43,0.49,0.61c0.19,0.189,0.39,0.35,0.61,0.5c0.22,0.14,0.449,0.27,0.689,0.369c0.24,0.101,0.5,0.17,0.75,0.221
		c0.26,0.06,0.521,0.08,0.78,0.08c1.06,0,2.08-0.42,2.83-1.17c0.18-0.181,0.35-0.391,0.5-0.61c0.14-0.21,0.27-0.45,0.37-0.69
		c0.1-0.239,0.17-0.489,0.22-0.75c0.06-0.25,0.08-0.52,0.08-0.779c0-0.261-0.021-0.521-0.08-0.78
		C202.54,206.42,202.47,206.16,202.37,205.92z"/>
	<path class="st0" d="M358.966,180.714H153.034c-9.683,0-17.56,7.877-17.56,17.56v68.645c0,9.682,7.877,17.559,17.56,17.559h11.864
		h182.203h11.864c9.683,0,17.56-7.877,17.56-17.559v-68.645C376.525,188.591,368.648,180.714,358.966,180.714z M168.898,276.477
		v-30.321c0-5.271,4.288-9.56,9.56-9.56h155.084c5.271,0,9.56,4.288,9.56,9.56v30.321H168.898z M368.525,266.918
		c0,5.271-4.288,9.559-9.56,9.559h-7.864v-30.321c0-9.683-7.877-17.56-17.56-17.56H178.458c-9.683,0-17.56,7.877-17.56,17.56v30.321
		h-7.864c-5.271,0-9.56-4.288-9.56-9.559v-68.645c0-5.271,4.288-9.56,9.56-9.56h205.932c5.271,0,9.56,4.288,9.56,9.56V266.918z"/>
	<path class="st0" d="M323.179,243.215H188.821c-2.209,0-4,1.791-4,4s1.791,4,4,4h134.357c2.209,0,4-1.791,4-4
		S325.388,243.215,323.179,243.215z"/>
	<path class="st0" d="M323.179,261.857H188.821c-2.209,0-4,1.791-4,4s1.791,4,4,4h134.357c2.209,0,4-1.791,4-4
		S325.388,261.857,323.179,261.857z"/>
	<path class="st0" d="M213.598,342.093c-1.729,1.376-2.016,3.892-0.641,5.621c0.79,0.992,1.956,1.51,3.134,1.51
		c0.872,0,1.751-0.284,2.487-0.869c23.347-18.57,19.626-46.648,19.456-47.834c-0.313-2.188-2.35-3.703-4.526-3.394
		c-2.188,0.313-3.706,2.34-3.394,4.526C230.149,301.898,233.395,326.347,213.598,342.093z"/>
	<path class="st0" d="M278.492,297.127c-2.179-0.313-4.213,1.206-4.526,3.394c-0.17,1.186-3.891,29.264,19.456,47.834
		c0.736,0.585,1.615,0.869,2.487,0.869c1.178,0,2.344-0.518,3.134-1.51c1.375-1.729,1.088-4.245-0.641-5.621
		c-19.657-15.636-16.663-39.374-16.517-40.444C282.196,299.464,280.678,297.44,278.492,297.127z"/>
	<path class="st0" d="M161.86,348.632c-1.729,1.376-2.016,3.893-0.641,5.621c0.79,0.993,1.956,1.51,3.134,1.51
		c0.872,0,1.751-0.284,2.487-0.869c29.737-23.656,25.001-59.401,24.785-60.911c-0.314-2.187-2.341-3.704-4.526-3.394
		c-2.188,0.313-3.706,2.34-3.394,4.526C183.753,295.44,188.048,327.801,161.86,348.632z"/>
	<path class="st0" d="M324.9,290.589c-2.187-0.314-4.213,1.206-4.526,3.394c-0.216,1.51-4.952,37.255,24.785,60.911
		c0.736,0.585,1.615,0.869,2.487,0.869c1.178,0,2.344-0.518,3.134-1.51c1.375-1.729,1.088-4.245-0.641-5.621
		c-26.025-20.701-21.906-53.075-21.846-53.521C328.604,292.926,327.086,290.902,324.9,290.589z"/>
</g>
</svg>
