<?xml version="1.0" encoding="utf-8"?>
<!-- Generator: Adobe Illustrator 27.0.1, SVG Export Plug-In . SVG Version: 6.00 Build 0)  -->
<svg version="1.1" id="Layer_2" xmlns="http://www.w3.org/2000/svg" xmlns:xlink="http://www.w3.org/1999/xlink" x="0px" y="0px"
	 viewBox="0 0 512 512" style="enable-background:new 0 0 512 512;" xml:space="preserve">
<style type="text/css">
	.st0{fill:#FFFFFF;}
</style>
<g>
	<path class="st0" d="M258.676,301.063l5.875,5.875c0.781,0.781,1.805,1.172,2.828,1.172s2.048-0.391,2.828-1.172l49.447-49.446
		c13.168-13.168,23.255-29.47,29.173-47.143c5.91-17.676,7.663-36.768,5.07-55.211c-0.211-1.502-1.254-2.756-2.691-3.236
		c-1.441-0.482-3.026-0.106-4.098,0.965l-14.018,14.018c-0.001,0.001-0.002,0.002-0.003,0.003L217.913,282.061
		c-4.145-1.582-9.02-0.713-12.354,2.622l-24.165,24.164c-0.001,0.001-0.002,0.001-0.002,0.002s-0.001,0.002-0.002,0.002
		l-13.457,13.457c0,0,0,0-0.001,0s0,0-0.001,0.001l-5.417,5.417c-3.604,3.604-5.59,8.396-5.59,13.494s1.985,9.89,5.589,13.493
		c3.604,3.604,8.396,5.59,13.494,5.59s9.89-1.985,13.493-5.59l5.414-5.414c0.002-0.002,0.004-0.003,0.005-0.004
		s0.003-0.004,0.004-0.005l13.45-13.45c0.002-0.002,0.004-0.003,0.005-0.004s0.003-0.004,0.004-0.005l24.162-24.162
		c3.149-3.149,4.1-7.669,2.866-11.654C242.191,294.359,252.315,294.704,258.676,301.063z M341.24,207.812
		c-5.525,16.503-14.946,31.727-27.242,44.024l-46.619,46.617l-3.047-3.046c-0.812-0.812-1.67-1.551-2.559-2.229l45.557-45.557
		c12.862-12.862,22.638-28.859,28.27-46.265c2.744-8.487,4.113-18.047,4.29-29.958l6.931-6.931
		C347.781,179.087,345.886,193.918,341.24,207.812z M192.091,340.812l-15.673-15.673l7.804-7.804l15.674,15.674L192.091,340.812z
		 M176.008,352.305c-2.96,0-5.743-1.153-7.837-3.247c-2.093-2.093-3.246-4.876-3.246-7.836s1.153-5.743,3.246-7.837l2.59-2.59
		l15.673,15.673l-2.591,2.591C181.751,351.151,178.968,352.305,176.008,352.305z M226.89,306.014l-21.339,21.338l-15.674-15.674
		l21.338-21.338c0.703-0.702,1.626-1.054,2.549-1.054c0.808,0,1.608,0.286,2.268,0.825l11.087,11.087
		C228.273,302.612,228.207,304.696,226.89,306.014z M230.763,293.477l-6.476-6.476l107.232-107.232
		c-0.555,7.269-1.71,13.492-3.531,19.126c-5.244,16.205-14.344,31.099-26.314,43.07l-47.316,47.316
		c-2.56-0.838-5.226-1.263-7.894-1.263C240.903,288.018,235.342,289.839,230.763,293.477z"/>
</g>
</svg>
