<?xml version="1.0" encoding="utf-8"?>
<!-- Generator: Adobe Illustrator 27.0.1, SVG Export Plug-In . SVG Version: 6.00 Build 0)  -->
<svg version="1.1" id="Layer_2" xmlns="http://www.w3.org/2000/svg" xmlns:xlink="http://www.w3.org/1999/xlink" x="0px" y="0px"
	 viewBox="0 0 512 512" style="enable-background:new 0 0 512 512;" xml:space="preserve">
<style type="text/css">
	.st0{fill:#FFFFFF;}
</style>
<g>
	<path class="st0" d="M322.896,212.082c-0.594-17.135-7.729-33.248-20.09-45.365c-12.359-12.115-28.61-18.932-45.757-19.194
		c-18.075-0.28-35.139,6.553-48.015,19.234c-12.878,12.683-19.971,29.622-19.971,47.696c0,13.686,4.104,26.844,11.869,38.054
		c8.832,12.751,13.634,27.886,13.963,43.872c-4.441,2.432-7.461,7.149-7.461,12.559c0,4.05,1.698,7.704,4.411,10.309
		c-2.713,2.606-4.411,6.26-4.411,10.31c0,7.396,5.64,13.499,12.844,14.235c-0.965,1.925-1.522,4.088-1.522,6.384
		c0,7.89,6.419,14.309,14.31,14.309h45.869c7.89,0,14.31-6.419,14.31-14.309c0-2.296-0.557-4.459-1.522-6.384
		c7.204-0.736,12.844-6.839,12.844-14.235c0-4.05-1.698-7.704-4.411-10.31c2.713-2.605,4.411-6.26,4.411-10.309
		c0-5.415-3.025-10.137-7.472-12.566c0.212-16.004,4.922-31.005,13.679-43.442C319.214,240.941,323.407,226.816,322.896,212.082z
		 M278.935,356.485h-45.869c-3.479,0-6.31-2.83-6.31-6.309s2.831-6.31,6.31-6.31h45.869c3.479,0,6.31,2.831,6.31,6.31
		S282.414,356.485,278.935,356.485z M296.566,329.557c0,3.479-2.831,6.31-6.31,6.31h-11.322h-45.869h-11.322
		c-3.479,0-6.31-2.831-6.31-6.31s2.831-6.31,6.31-6.31h68.514C293.736,323.247,296.566,326.078,296.566,329.557z M221.743,315.247
		c-3.479,0-6.31-2.83-6.31-6.309s2.831-6.31,6.31-6.31h68.514c3.479,0,6.31,2.831,6.31,6.31s-2.831,6.309-6.31,6.309H221.743z
		 M289.118,294.628H260v-41.361l16.362-10.575c1.855-1.199,2.387-3.675,1.188-5.531c-1.199-1.855-3.675-2.389-5.531-1.188
		L256,246.327l-15.031-9.715c-1.856-1.2-4.333-0.667-5.531,1.188c-1.199,1.855-0.667,4.332,1.188,5.531L252,253.267v41.362h-29.14
		c-0.638-16.978-5.914-33.05-15.353-46.677c-6.833-9.865-10.445-21.449-10.445-33.499c0-15.914,6.245-30.829,17.584-41.996
		c11.337-11.165,26.351-17.185,42.279-16.935c31.423,0.482,56.889,25.447,57.975,56.836c0.449,12.978-3.24,25.415-10.669,35.965
		C294.841,261.661,289.642,277.616,289.118,294.628z"/>
</g>
</svg>
