<?xml version="1.0" encoding="utf-8"?>
<!-- Generator: Adobe Illustrator 27.0.1, SVG Export Plug-In . SVG Version: 6.00 Build 0)  -->
<svg version="1.1" id="Layer_2" xmlns="http://www.w3.org/2000/svg" xmlns:xlink="http://www.w3.org/1999/xlink" x="0px" y="0px"
	 viewBox="0 0 512 512" style="enable-background:new 0 0 512 512;" xml:space="preserve">
<style type="text/css">
	.st0{fill:#FFFFFF;}
</style>
<g>
	<path class="st0" d="M223.788,362.609h64.424c2.209,0,4-1.791,4-4v-26.798h30.891c14.775,0,26.796-12.021,26.796-26.796v-66.697
		c0-14.775-12.021-26.796-26.796-26.796h-6.173v-38.265c0-2.209-1.791-4-4-4h-20.718v-15.867c0-2.209-1.791-4-4-4h-64.424
		c-2.209,0-4,1.791-4,4v15.867H199.07c-2.209,0-4,1.791-4,4v38.265h-6.173c-14.775,0-26.796,12.021-26.796,26.796v66.697
		c0,14.775,12.021,26.796,26.796,26.796h30.891v26.798C219.788,360.818,221.579,362.609,223.788,362.609z M284.212,354.609h-56.424
		v-26.798v-52.145h56.424v52.145V354.609z M308.93,177.258v34.265h-16.718v-34.265H308.93z M227.788,157.391h56.424v15.867v38.265
		h-56.424v-38.265V157.391z M203.07,177.258h16.718v34.265H203.07V177.258z M188.897,323.812c-10.364,0-18.796-8.432-18.796-18.796
		v-66.697c0-10.364,8.432-18.796,18.796-18.796h10.173h24.718h64.424h24.718h10.173c10.364,0,18.796,8.432,18.796,18.796v66.697
		c0,10.364-8.432,18.796-18.796,18.796h-30.891v-48.145h13.24c2.209,0,4-1.791,4-4s-1.791-4-4-4h-17.24h-64.424h-17.24
		c-2.209,0-4,1.791-4,4s1.791,4,4,4h13.24v48.145H188.897z"/>
	<path class="st0" d="M268.078,332.873h-24.157c-2.209,0-4,1.791-4,4s1.791,4,4,4h24.157c2.209,0,4-1.791,4-4
		S270.287,332.873,268.078,332.873z"/>
	<path class="st0" d="M268.078,311.138h-24.157c-2.209,0-4,1.791-4,4s1.791,4,4,4h24.157c2.209,0,4-1.791,4-4
		S270.287,311.138,268.078,311.138z"/>
	<path class="st0" d="M268.078,289.402h-24.157c-2.209,0-4,1.791-4,4s1.791,4,4,4h24.157c2.209,0,4-1.791,4-4
		S270.287,289.402,268.078,289.402z"/>
	<path class="st0" d="M318.344,255.531c7.08,0,12.84-5.76,12.84-12.839c0-7.08-5.76-12.84-12.84-12.84
		c-7.08,0-12.839,5.76-12.839,12.84C305.504,249.771,311.264,255.531,318.344,255.531z M318.344,237.853
		c2.668,0,4.84,2.171,4.84,4.84c0,2.668-2.171,4.839-4.84,4.839s-4.839-2.171-4.839-4.839
		C313.504,240.023,315.675,237.853,318.344,237.853z"/>
	<path class="st0" d="M192.638,237.853h25.84c2.209,0,4-1.791,4-4s-1.791-4-4-4h-25.84c-2.209,0-4,1.791-4,4
		S190.429,237.853,192.638,237.853z"/>
	<path class="st0" d="M222.478,249.932c0-2.209-1.791-4-4-4h-25.84c-2.209,0-4,1.791-4,4s1.791,4,4,4h25.84
		C220.687,253.932,222.478,252.141,222.478,249.932z"/>
</g>
</svg>
