<?xml version="1.0" encoding="utf-8"?>
<!-- Generator: Adobe Illustrator 27.0.1, SVG Export Plug-In . SVG Version: 6.00 Build 0)  -->
<svg version="1.1" id="Layer_2" xmlns="http://www.w3.org/2000/svg" xmlns:xlink="http://www.w3.org/1999/xlink" x="0px" y="0px"
	 viewBox="0 0 512 512" style="enable-background:new 0 0 512 512;" xml:space="preserve">
<style type="text/css">
	.st0{fill:#FFFFFF;}
</style>
<g>
	<path class="st0" d="M268.62,320.93c-0.1-0.25-0.22-0.48-0.37-0.7c-0.14-0.21-0.31-0.42-0.49-0.6c-0.19-0.19-0.39-0.35-0.61-0.5
		c-0.22-0.14-0.45-0.27-0.69-0.37c-0.24-0.1-0.49-0.18-0.75-0.23c-0.52-0.1-1.05-0.1-1.56,0c-0.26,0.05-0.51,0.13-0.75,0.23
		c-0.24,0.1-0.47,0.23-0.69,0.37c-0.22,0.15-0.42,0.31-0.61,0.5c-0.18,0.18-0.35,0.39-0.5,0.6c-0.14,0.22-0.26,0.45-0.36,0.7
		c-0.1,0.24-0.18,0.49-0.23,0.74c-0.05,0.26-0.08,0.52-0.08,0.79c0,0.26,0.03,0.52,0.08,0.78c0.05,0.25,0.13,0.5,0.23,0.75
		c0.1,0.24,0.22,0.47,0.36,0.69c0.15,0.21,0.32,0.42,0.5,0.6c0.19,0.19,0.39,0.36,0.61,0.5c0.22,0.15,0.45,0.27,0.69,0.37
		c0.24,0.1,0.49,0.18,0.75,0.23c0.26,0.05,0.52,0.08,0.78,0.08c0.26,0,0.52-0.03,0.78-0.08c0.26-0.05,0.51-0.13,0.75-0.23
		c0.24-0.1,0.47-0.22,0.69-0.37c0.22-0.14,0.42-0.31,0.61-0.5c0.18-0.18,0.35-0.39,0.49-0.6c0.15-0.22,0.27-0.45,0.37-0.69
		c0.1-0.25,0.18-0.5,0.23-0.75c0.05-0.26,0.08-0.52,0.08-0.78c0-0.27-0.03-0.53-0.08-0.79C268.8,321.42,268.72,321.17,268.62,320.93
		z"/>
	<path class="st0" d="M151.29,240.33H173v110.34c0,2.209,1.791,4,4,4h56.571h44.857H335c2.209,0,4-1.791,4-4V240.33h21.71
		c1.738,0,3.277-1.122,3.809-2.777c0.531-1.655-0.066-3.463-1.479-4.475l-104.71-75c-1.393-0.997-3.266-0.997-4.658,0L222,180.763
		V161.39c0-2.209-1.791-4-4-4h-27c-2.209,0-4,1.791-4,4v44.442l-38.039,27.246c-1.413,1.012-2.011,2.82-1.479,4.475
		C148.013,239.208,149.552,240.33,151.29,240.33z M237.571,346.67v-48.428h36.857v48.428H237.571z M331,346.67h-48.571v-52.428
		c0-2.209-1.791-4-4-4h-44.857c-2.209,0-4,1.791-4,4v52.428H181V241.527h150V346.67z M195,165.39h19v21.103l-19,13.609V165.39z
		 M193.31,211.154c0.006-0.004,0.013-0.007,0.019-0.012l27-19.34c0.004-0.003,0.008-0.007,0.013-0.01L256,166.25l92.256,66.08
		H163.745L193.31,211.154z"/>
</g>
</svg>
