<?xml version="1.0" encoding="utf-8"?>
<!-- Generator: Adobe Illustrator 27.0.1, SVG Export Plug-In . SVG Version: 6.00 Build 0)  -->
<svg version="1.1" id="Layer_2" xmlns="http://www.w3.org/2000/svg" xmlns:xlink="http://www.w3.org/1999/xlink" x="0px" y="0px"
	 viewBox="0 0 512 512" style="enable-background:new 0 0 512 512;" xml:space="preserve">
<style type="text/css">
	.st0{fill:#FFFFFF;}
</style>
<g>
	<path class="st0" d="M206.876,282.438h-40.34v-35.92c0-6.232-5.07-11.303-11.302-11.303s-11.302,5.07-11.302,11.303v84.815
		c0,6.232,5.07,11.303,11.302,11.303s11.302-5.07,11.302-11.303v-11.338h29.038v11.338c0,6.232,5.07,11.303,11.302,11.303
		c6.232,0,11.303-5.07,11.303-11.303V293.74C218.179,287.508,213.109,282.438,206.876,282.438z M166.536,311.995v-6.953h29.038
		v6.953H166.536z M210.179,331.333c0,1.821-1.481,3.303-3.303,3.303c-1.821,0-3.302-1.481-3.302-3.303v-30.291c0-2.209-1.791-4-4-4
		h-37.038c-2.209,0-4,1.791-4,4v30.291c0,1.821-1.481,3.303-3.302,3.303s-3.302-1.481-3.302-3.303v-84.815
		c0-1.821,1.481-3.303,3.302-3.303s3.302,1.481,3.302,3.303v39.92c0,2.209,1.791,4,4,4h44.34c1.821,0,3.303,1.481,3.303,3.303
		V331.333z"/>
	<path class="st0" d="M356.766,235.215c-6.232,0-11.302,5.07-11.302,11.303v35.92h-40.34c-6.232,0-11.303,5.07-11.303,11.303v37.593
		c0,6.232,5.07,11.303,11.303,11.303c6.232,0,11.302-5.07,11.302-11.303v-11.338h29.038v11.338c0,6.232,5.07,11.303,11.302,11.303
		s11.302-5.07,11.302-11.303v-84.815C368.068,240.285,362.998,235.215,356.766,235.215z M316.426,311.995v-6.953h29.038v6.953
		H316.426z M360.068,331.333c0,1.821-1.481,3.303-3.302,3.303s-3.302-1.481-3.302-3.303v-30.291c0-2.209-1.791-4-4-4h-37.038
		c-2.209,0-4,1.791-4,4v30.291c0,1.821-1.481,3.303-3.302,3.303c-1.821,0-3.303-1.481-3.303-3.303V293.74
		c0-1.821,1.481-3.303,3.303-3.303h44.34c2.209,0,4-1.791,4-4v-39.92c0-1.821,1.481-3.303,3.302-3.303s3.302,1.481,3.302,3.303
		V331.333z"/>
	<path class="st0" d="M288.565,286.088c5.705,0,10.346-4.641,10.346-10.346v-1.597c0-5.705-4.641-10.347-10.346-10.347h-21.635
		v-43.096h0.376c4.603,0,8.733-2.017,11.589-5.199c2.856,3.182,6.987,5.199,11.589,5.199h22.613c8.596,0,15.589-6.993,15.589-15.589
		v-7.586c0-0.036-0.01-0.069-0.01-0.104c-0.005-0.2-0.025-0.397-0.06-0.594c-0.008-0.045-0.01-0.092-0.02-0.137
		c-0.048-0.225-0.118-0.445-0.205-0.659c-0.027-0.068-0.061-0.131-0.092-0.196c-0.07-0.149-0.147-0.294-0.236-0.434
		c-0.042-0.067-0.085-0.133-0.131-0.197c-0.098-0.137-0.208-0.268-0.325-0.393c-0.045-0.048-0.085-0.099-0.132-0.145
		c-0.015-0.015-0.027-0.033-0.043-0.047l-68.654-64.873c-0.002-0.002-0.004-0.004-0.006-0.006l-0.027-0.026
		c-0.02-0.019-0.043-0.031-0.062-0.049c-0.151-0.137-0.311-0.261-0.481-0.374c-0.067-0.045-0.137-0.083-0.206-0.124
		c-0.133-0.077-0.269-0.146-0.411-0.208c-0.078-0.034-0.155-0.067-0.234-0.095c-0.149-0.054-0.301-0.095-0.457-0.131
		c-0.07-0.016-0.138-0.038-0.209-0.05c-0.225-0.039-0.453-0.063-0.687-0.063s-0.462,0.024-0.687,0.063
		c-0.071,0.012-0.139,0.034-0.209,0.05c-0.155,0.036-0.308,0.077-0.457,0.131c-0.079,0.029-0.156,0.062-0.234,0.095
		c-0.142,0.062-0.278,0.131-0.411,0.208c-0.069,0.04-0.139,0.079-0.206,0.124c-0.17,0.112-0.33,0.237-0.481,0.374
		c-0.02,0.018-0.043,0.03-0.062,0.049l-0.027,0.026c-0.002,0.002-0.004,0.004-0.006,0.006l-68.654,64.873
		c-0.016,0.015-0.028,0.032-0.043,0.047c-0.047,0.046-0.087,0.097-0.132,0.145c-0.117,0.126-0.226,0.256-0.325,0.393
		c-0.046,0.064-0.089,0.13-0.131,0.197c-0.088,0.141-0.166,0.286-0.236,0.435c-0.031,0.065-0.064,0.128-0.092,0.195
		c-0.086,0.214-0.157,0.434-0.205,0.659c-0.01,0.045-0.012,0.092-0.02,0.137c-0.035,0.196-0.055,0.394-0.06,0.594
		c-0.001,0.035-0.01,0.069-0.01,0.104v7.586c0,8.596,6.993,15.589,15.589,15.589h22.613c4.603,0,8.733-2.017,11.589-5.199
		c2.856,3.182,6.986,5.199,11.589,5.199h0.376v43.096h-21.635c-5.705,0-10.346,4.642-10.346,10.347v1.597
		c0,5.705,4.641,10.346,10.346,10.346h18.478l4.389,48.548h-8.245c-2.209,0-4,1.791-4,4s1.791,4,4,4h12.623h10.641h12.623
		c2.209,0,4-1.791,4-4s-1.791-4-4-4h-8.245l4.389-48.548H288.565z M273.243,193.528h-34.486L256,144.648L273.243,193.528z
		 M320.687,205.114c0,4.185-3.405,7.589-7.589,7.589h-22.613c-4.185,0-7.589-3.404-7.589-7.589v-3.586h37.792V205.114z
		 M281.726,193.528l-16.452-46.638l49.356,46.638H281.726z M246.726,146.89l-16.452,46.638H197.37L246.726,146.89z M221.515,212.703
		h-22.613c-4.185,0-7.589-3.404-7.589-7.589v-3.586h37.792v3.586C229.104,209.299,225.7,212.703,221.515,212.703z M237.104,205.114
		v-3.586h37.791v3.586c0,4.185-3.404,7.589-7.589,7.589h-4.376h-13.861h-4.376C240.509,212.703,237.104,209.299,237.104,205.114z
		 M253.069,220.703h5.861v43.096h-5.861V220.703z M221.088,275.742v-1.597c0-1.294,1.053-2.347,2.346-2.347h25.635h13.861h25.635
		c1.293,0,2.346,1.053,2.346,2.347v1.597c0,1.293-1.053,2.346-2.346,2.346h-22.133h-20.864h-22.133
		C222.141,278.088,221.088,277.035,221.088,275.742z M257.666,334.636h-3.331l-4.389-48.548h12.108L257.666,334.636z"/>
</g>
</svg>
