<?xml version="1.0" encoding="utf-8"?>
<!-- Generator: Adobe Illustrator 27.0.1, SVG Export Plug-In . SVG Version: 6.00 Build 0)  -->
<svg version="1.1" id="Layer_2" xmlns="http://www.w3.org/2000/svg" xmlns:xlink="http://www.w3.org/1999/xlink" x="0px" y="0px"
	 viewBox="0 0 512 512" style="enable-background:new 0 0 512 512;" xml:space="preserve">
<style type="text/css">
	.st0{fill:#FFFFFF;}
</style>
<g>
	<path class="st0" d="M152.093,192.83v126.34c0,2.209,1.791,4,4,4h57.547h84.72h57.547c2.209,0,4-1.791,4-4V192.83
		c0-2.209-1.791-4-4-4H298.36c-2.209,0-4,1.791-4,4v56.854h-76.72V192.83c0-2.209-1.791-4-4-4h-57.547
		C153.884,188.83,152.093,190.621,152.093,192.83z M302.36,196.83h49.547v118.34H302.36v-61.485V196.83z M294.36,257.685v57.485
		h-76.72v-57.485H294.36z M160.093,196.83h49.547v56.854v61.485h-49.547V196.83z"/>
	<path class="st0" d="M184.867,202.694c-10.974,0-19.902,8.928-19.902,19.902c0,10.974,8.928,19.901,19.902,19.901
		c10.974,0,19.901-8.928,19.901-19.901C204.768,211.622,195.84,202.694,184.867,202.694z M184.867,234.498
		c-6.562,0-11.902-5.339-11.902-11.901s5.339-11.902,11.902-11.902s11.901,5.34,11.901,11.902S191.429,234.498,184.867,234.498z"/>
	<path class="st0" d="M195.734,253.685c0-5.992-4.875-10.867-10.868-10.867s-10.868,4.875-10.868,10.867
		c0,5.993,4.875,10.868,10.868,10.868S195.734,259.678,195.734,253.685z M181.999,253.685c0-1.581,1.287-2.867,2.868-2.867
		c1.581,0,2.868,1.286,2.868,2.867s-1.287,2.868-2.868,2.868C183.285,256.553,181.999,255.266,181.999,253.685z"/>
	<path class="st0" d="M316.266,253.685c0,5.993,4.875,10.868,10.868,10.868s10.868-4.875,10.868-10.868
		c0-5.992-4.875-10.867-10.868-10.867S316.266,247.692,316.266,253.685z M330.001,253.685c0,1.581-1.287,2.868-2.868,2.868
		c-1.581,0-2.868-1.287-2.868-2.868s1.287-2.867,2.868-2.867C328.715,250.817,330.001,252.104,330.001,253.685z"/>
	<path class="st0" d="M184.867,266.525c-10.974,0-19.902,8.928-19.902,19.901c0,10.975,8.928,19.902,19.902,19.902
		c10.974,0,19.901-8.928,19.901-19.902C204.768,275.453,195.84,266.525,184.867,266.525z M184.867,298.329
		c-6.562,0-11.902-5.34-11.902-11.902s5.339-11.901,11.902-11.901s11.901,5.339,11.901,11.901S191.429,298.329,184.867,298.329z"/>
	<path class="st0" d="M327.133,242.498c10.974,0,19.902-8.928,19.902-19.901c0-10.975-8.928-19.902-19.902-19.902
		c-10.974,0-19.901,8.928-19.901,19.902C307.232,233.57,316.16,242.498,327.133,242.498z M327.133,210.694
		c6.562,0,11.902,5.34,11.902,11.902s-5.339,11.901-11.902,11.901s-11.901-5.339-11.901-11.901S320.571,210.694,327.133,210.694z"/>
	<path class="st0" d="M327.133,306.329c10.974,0,19.902-8.928,19.902-19.902c0-10.974-8.928-19.901-19.902-19.901
		c-10.974,0-19.901,8.928-19.901,19.901C307.232,297.401,316.16,306.329,327.133,306.329z M327.133,274.525
		c6.562,0,11.902,5.339,11.902,11.901s-5.339,11.902-11.902,11.902s-11.901-5.34-11.901-11.902S320.571,274.525,327.133,274.525z"/>
	<path class="st0" d="M225.504,313.299h60.992c2.209,0,4-1.791,4-4v-31.109c0-2.209-1.791-4-4-4h-60.992c-2.209,0-4,1.791-4,4
		v31.109C221.504,311.508,223.295,313.299,225.504,313.299z M229.504,282.189h52.992v23.109h-52.992V282.189z"/>
	<path class="st0" d="M225.504,270.648h10.314c2.209,0,4-1.791,4-4s-1.791-4-4-4h-10.314c-2.209,0-4,1.791-4,4
		S223.295,270.648,225.504,270.648z"/>
	<path class="st0" d="M244.19,292.21c-0.1-0.24-0.22-0.47-0.36-0.69c-0.15-0.22-0.32-0.42-0.5-0.6c-0.18-0.19-0.39-0.36-0.61-0.5
		c-0.22-0.15-0.45-0.271-0.69-0.37c-0.24-0.1-0.49-0.18-0.75-0.23c-0.51-0.1-1.04-0.1-1.56,0c-0.26,0.051-0.51,0.131-0.75,0.23
		c-0.24,0.1-0.47,0.22-0.69,0.37c-0.22,0.14-0.42,0.31-0.61,0.5c-0.18,0.18-0.35,0.38-0.5,0.6c-0.14,0.221-0.26,0.45-0.36,0.69
		c-0.1,0.24-0.18,0.5-0.23,0.75c-0.05,0.26-0.08,0.52-0.08,0.79c0,0.26,0.03,0.52,0.08,0.779c0.05,0.25,0.13,0.5,0.23,0.74
		c0.1,0.25,0.22,0.48,0.36,0.69c0.15,0.22,0.32,0.43,0.5,0.609c0.75,0.75,1.78,1.181,2.83,1.181c1.05,0,2.08-0.431,2.83-1.181
		c0.18-0.18,0.35-0.39,0.5-0.609c0.14-0.21,0.26-0.44,0.36-0.69c0.1-0.24,0.18-0.49,0.23-0.74c0.05-0.26,0.08-0.52,0.08-0.779
		c0-0.271-0.03-0.53-0.08-0.79C244.37,292.71,244.29,292.45,244.19,292.21z"/>
	<path class="st0" d="M259.69,292.21c-0.1-0.24-0.22-0.47-0.36-0.69c-0.15-0.22-0.32-0.42-0.5-0.6c-0.19-0.19-0.39-0.36-0.61-0.5
		c-0.22-0.15-0.45-0.271-0.69-0.37c-0.24-0.1-0.49-0.18-0.75-0.23c-1.3-0.26-2.68,0.171-3.61,1.101c-0.18,0.18-0.35,0.38-0.5,0.6
		c-0.14,0.221-0.26,0.45-0.36,0.69c-0.1,0.24-0.18,0.5-0.23,0.75c-0.05,0.26-0.08,0.52-0.08,0.79c0,0.26,0.03,0.52,0.08,0.779
		c0.05,0.25,0.13,0.5,0.23,0.74c0.1,0.25,0.22,0.48,0.36,0.69c0.15,0.22,0.32,0.43,0.5,0.609c0.19,0.19,0.39,0.351,0.61,0.5
		c0.22,0.141,0.45,0.271,0.69,0.37c0.24,0.101,0.49,0.17,0.75,0.23c0.26,0.05,0.52,0.08,0.78,0.08c1.05,0,2.08-0.431,2.83-1.181
		c0.18-0.18,0.35-0.39,0.5-0.609c0.14-0.21,0.26-0.44,0.36-0.69c0.1-0.24,0.18-0.49,0.23-0.74c0.05-0.26,0.08-0.52,0.08-0.779
		c0-0.271-0.03-0.53-0.08-0.79C259.87,292.71,259.79,292.45,259.69,292.21z"/>
	<path class="st0" d="M275.19,292.21c-0.1-0.24-0.22-0.47-0.37-0.69c-0.14-0.22-0.31-0.42-0.49-0.6c-0.93-0.93-2.32-1.37-3.61-1.101
		c-0.26,0.051-0.51,0.131-0.75,0.23c-0.24,0.1-0.47,0.22-0.69,0.37c-0.22,0.14-0.42,0.31-0.61,0.5c-0.18,0.18-0.35,0.38-0.5,0.6
		c-0.14,0.221-0.26,0.45-0.36,0.69c-0.1,0.24-0.18,0.5-0.23,0.75c-0.06,0.26-0.08,0.52-0.08,0.79c0,0.26,0.02,0.52,0.08,0.779
		c0.05,0.25,0.13,0.5,0.23,0.74c0.1,0.25,0.22,0.48,0.36,0.69c0.15,0.22,0.32,0.43,0.5,0.609c0.75,0.75,1.78,1.181,2.83,1.181
		c0.26,0,0.52-0.03,0.78-0.08c0.26-0.061,0.51-0.13,0.75-0.23c0.24-0.1,0.47-0.229,0.69-0.37c0.22-0.149,0.42-0.31,0.61-0.5
		c0.18-0.18,0.35-0.39,0.49-0.609c0.15-0.21,0.27-0.44,0.37-0.69c0.1-0.24,0.18-0.49,0.23-0.74c0.05-0.26,0.08-0.52,0.08-0.779
		c0-0.271-0.03-0.53-0.08-0.79C275.37,292.71,275.29,292.45,275.19,292.21z"/>
	<path class="st0" d="M276.182,270.648h10.314c2.209,0,4-1.791,4-4s-1.791-4-4-4h-10.314c-2.209,0-4,1.791-4,4
		S273.973,270.648,276.182,270.648z"/>
</g>
</svg>
