<?xml version="1.0" encoding="utf-8"?>
<!-- Generator: Adobe Illustrator 27.0.1, SVG Export Plug-In . SVG Version: 6.00 Build 0)  -->
<svg version="1.1" id="Layer_2" xmlns="http://www.w3.org/2000/svg" xmlns:xlink="http://www.w3.org/1999/xlink" x="0px" y="0px"
	 viewBox="0 0 512 512" style="enable-background:new 0 0 512 512;" xml:space="preserve">
<style type="text/css">
	.st0{fill:#FFFFFF;}
</style>
<g>
	<path class="st0" d="M231.464,311.263c-5.159,5.792-7.448,13.739-6.447,22.378c2.008,17.314,12.93,29.456,31.584,35.112
		c9.616,2.915,18.853,3.36,23.596,3.36c1.938,0,3.127-0.074,3.282-0.084c1.533-0.102,2.87-1.075,3.443-2.5
		c0.573-1.425,0.278-3.055-0.757-4.19c-0.165-0.182-16.492-18.36-10.281-34.603v0c3.931-10.282,1.813-16.714-0.654-20.299
		c-2.247-3.265-5.633-5.576-10.099-6.932c10.411-12.762,16.172-40.476,16.172-49.622v-86.623c0-15.092-12.277-27.37-27.369-27.37
		s-27.37,12.278-27.37,27.37v86.623c0,9.214,5.845,37.274,16.402,49.906C238.422,305.308,234.533,307.818,231.464,311.263z
		 M273.303,253.882c0,0.518-0.017,1.063-0.044,1.625c-0.476-0.199-0.997-0.311-1.545-0.311h-35.56c-0.548,0-1.07,0.111-1.545,0.311
		c-0.027-0.561-0.044-1.107-0.044-1.625v-13.156c0.488,0.212,1.024,0.332,1.59,0.332h35.56c0.566,0,1.102-0.121,1.59-0.332V253.882z
		 M236.153,263.196h35.56c0.21,0,0.413-0.031,0.614-0.062c-2.899,16.237-11.71,38.935-18.394,38.935
		c-6.685,0-15.495-22.698-18.395-38.935C235.741,263.165,235.943,263.196,236.153,263.196z M253.934,147.89
		c10.681,0,19.369,8.689,19.369,19.37v66.131c-0.488-0.212-1.024-0.332-1.59-0.332h-35.56c-0.566,0-1.102,0.12-1.59,0.332v-66.131
		C234.563,156.579,243.253,147.89,253.934,147.89z M237.438,316.584c3.797-4.262,9.581-6.515,16.728-6.515
		c7.262,0,12.268,1.695,14.475,4.903c2.501,3.633,1.256,9.024-0.229,12.907c-5.333,13.947,1.383,27.988,6.674,36.04
		c-13.328-0.914-39.195-5.962-42.121-31.199C232.229,326.379,233.817,320.649,237.438,316.584z"/>
</g>
</svg>
