<?xml version="1.0" encoding="utf-8"?>
<!-- Generator: Adobe Illustrator 27.0.1, SVG Export Plug-In . SVG Version: 6.00 Build 0)  -->
<svg version="1.1" id="Layer_2" xmlns="http://www.w3.org/2000/svg" xmlns:xlink="http://www.w3.org/1999/xlink" x="0px" y="0px"
	 viewBox="0 0 512 512" style="enable-background:new 0 0 512 512;" xml:space="preserve">
<style type="text/css">
	.st0{fill:#FFFFFF;}
</style>
<g>
	<path class="st0" d="M256,380.049c2.209,0,4-1.791,4-4v-32.415h5.493c7.065,0,12.813-5.748,12.813-12.812v-5.493h11.657
		c24.169,0,43.832-19.663,43.832-43.832v-47.431h6.901c8.281,0,15.019-6.737,15.019-15.019v-3.821
		c0-8.281-6.737-15.019-15.019-15.019h-16.481v-24.139c0-2.209-1.791-4-4-4h-10.07v-18.151c0-2.209-1.791-4-4-4h-14.07
		c-2.209,0-4,1.791-4,4s1.791,4,4,4h10.07v14.151h-10.07c-2.209,0-4,1.791-4,4v24.139H260v-26.421
		c0-16.464-13.394-29.857-29.858-29.857c-2.209,0-4,1.791-4,4v14.633h-6.433c-2.209,0-4,1.791-4,4s1.791,4,4,4h10.433h10.311
		c2.209,0,4-1.791,4-4s-1.791-4-4-4h-6.311v-10.266C244.291,154.18,252,163.1,252,173.786v26.421h-80.696
		c-8.281,0-15.019,6.737-15.019,15.019v3.821c0,8.281,6.737,15.019,15.019,15.019h6.901v47.431
		c0,24.169,19.663,43.832,43.832,43.832h11.657v5.493c0,7.064,5.748,12.812,12.813,12.812H252v32.415
		C252,378.258,253.791,380.049,256,380.049z M296.075,180.068h20.14v20.139h-20.14V180.068z M164.286,219.047v-3.821
		c0-3.87,3.148-7.019,7.019-7.019h120.771h28.14h20.481c3.87,0,7.019,3.148,7.019,7.019v3.821c0,3.87-3.148,7.019-7.019,7.019
		h-10.901H182.206h-10.901C167.434,226.065,164.286,222.917,164.286,219.047z M186.206,281.496v-47.431h139.589v47.431
		c0,19.758-16.074,35.832-35.832,35.832h-15.657h-36.612h-15.657C202.279,317.328,186.206,301.254,186.206,281.496z
		 M241.694,330.821v-5.493h28.612v5.493c0,2.653-2.159,4.812-4.813,4.812h-18.986C243.853,335.634,241.694,333.475,241.694,330.821z
		"/>
</g>
</svg>
