<?xml version="1.0" encoding="utf-8"?>
<!-- Generator: Adobe Illustrator 27.0.1, SVG Export Plug-In . SVG Version: 6.00 Build 0)  -->
<svg version="1.1" id="Layer_2" xmlns="http://www.w3.org/2000/svg" xmlns:xlink="http://www.w3.org/1999/xlink" x="0px" y="0px"
	 viewBox="0 0 512 512" style="enable-background:new 0 0 512 512;" xml:space="preserve">
<style type="text/css">
	.st0{fill:#FFFFFF;}
</style>
<g>
	<path class="st0" d="M357.034,325.082V213.842c0-0.911-0.311-1.794-0.88-2.504l-21.61-26.924c-0.759-0.946-1.907-1.496-3.12-1.496
		s-2.36,0.55-3.12,1.496l-21.61,26.924c-0.57,0.71-0.88,1.593-0.88,2.504v16.971H281.61v-16.971c0-0.911-0.311-1.794-0.88-2.504
		l-21.61-26.924c-0.759-0.946-1.907-1.496-3.12-1.496s-2.36,0.55-3.12,1.496l-21.61,26.924c-0.57,0.71-0.88,1.593-0.88,2.504v16.971
		h-24.203v-16.971c0-0.911-0.311-1.794-0.88-2.504l-21.61-26.924c-0.759-0.946-1.907-1.496-3.12-1.496s-2.36,0.55-3.12,1.496
		l-21.61,26.924c-0.57,0.71-0.88,1.593-0.88,2.504v111.239c0,2.209,1.791,4,4,4h43.22c2.209,0,4-1.791,4-4V313.39h24.203v11.692
		c0,2.209,1.791,4,4,4h43.221c2.209,0,4-1.791,4-4V313.39h24.203v11.692c0,2.209,1.791,4,4,4h43.22
		C355.243,329.082,357.034,327.291,357.034,325.082z M281.61,259.152h24.203v25.898H281.61V259.152z M305.813,238.813v12.339H281.61
		v-12.339H305.813z M206.187,259.152h24.203v25.898h-24.203V259.152z M230.39,238.813v12.339h-24.203v-12.339H230.39z
		 M198.187,321.082h-35.22V215.249l17.61-21.94l17.61,21.94v19.564v20.339v33.898v20.339V321.082z M206.187,305.39v-12.339h24.203
		v12.339H206.187z M273.61,321.082H238.39V309.39v-20.339v-33.898v-20.339v-19.564l17.61-21.94l17.61,21.94v19.564v20.339v33.898
		v20.339V321.082z M281.61,305.39v-12.339h24.203v12.339H281.61z M349.034,321.082h-35.22V309.39v-20.339v-33.898v-20.339v-19.564
		l17.61-21.94l17.61,21.94V321.082z"/>
	<path class="st0" d="M180.576,213.676c-6.931,0-12.569,5.638-12.569,12.569s5.638,12.569,12.569,12.569s12.569-5.638,12.569-12.569
		S187.507,213.676,180.576,213.676z M180.576,230.813c-2.519,0-4.569-2.05-4.569-4.569s2.05-4.569,4.569-4.569
		c2.52,0,4.569,2.05,4.569,4.569S183.096,230.813,180.576,230.813z"/>
	<path class="st0" d="M256,213.676c-6.931,0-12.569,5.638-12.569,12.569s5.638,12.569,12.569,12.569s12.569-5.638,12.569-12.569
		S262.931,213.676,256,213.676z M256,230.813c-2.519,0-4.569-2.05-4.569-4.569s2.05-4.569,4.569-4.569s4.569,2.05,4.569,4.569
		S258.519,230.813,256,230.813z"/>
	<path class="st0" d="M318.854,226.245c0,6.931,5.639,12.569,12.569,12.569s12.569-5.638,12.569-12.569s-5.638-12.569-12.569-12.569
		S318.854,219.314,318.854,226.245z M335.993,226.245c0,2.519-2.05,4.569-4.569,4.569c-2.52,0-4.569-2.05-4.569-4.569
		s2.05-4.569,4.569-4.569C333.943,221.676,335.993,223.726,335.993,226.245z"/>
</g>
</svg>
