<?xml version="1.0" encoding="utf-8"?>
<!-- Generator: Adobe Illustrator 27.0.1, SVG Export Plug-In . SVG Version: 6.00 Build 0)  -->
<svg version="1.1" id="Layer_2" xmlns="http://www.w3.org/2000/svg" xmlns:xlink="http://www.w3.org/1999/xlink" x="0px" y="0px"
	 viewBox="0 0 512 512" style="enable-background:new 0 0 512 512;" xml:space="preserve">
<style type="text/css">
	.st0{fill:#FFFFFF;}
</style>
<g>
	<path class="st0" d="M191.743,344.982c-2.196,4.708-1.842,10.136,0.95,14.519c2.791,4.382,7.56,6.999,12.756,6.999h101.102
		c5.228,0,10.011-2.641,12.797-7.063c2.785-4.423,3.101-9.878,0.843-14.593l-1.315-2.747c-8.977-18.74-13.348-39.624-12.641-60.394
		l0.227-6.658c0.141-4.135-1.366-8.05-4.241-11.025c-1.884-1.949-4.196-3.312-6.728-4.028c0.251-0.885,0.395-1.814,0.395-2.779
		v-2.243c0-11.845-9.637-21.482-21.482-21.482h-1.029v-71.861c0-8.893-7.235-16.128-16.128-16.128h-2.298
		c-8.893,0-16.128,7.235-16.128,16.128v71.861h-1.029c-11.846,0-21.482,9.637-21.482,21.482v2.243c0,0.965,0.144,1.896,0.396,2.781
		c-2.53,0.718-4.84,2.081-6.723,4.031c-2.876,2.978-4.38,6.896-4.236,11.033l0.21,6.023c0.711,20.352-3.465,40.865-12.076,59.322
		L191.743,344.982z M246.821,161.628c0-4.482,3.646-8.128,8.128-8.128h2.298c4.481,0,8.128,3.646,8.128,8.128v71.861h-18.554
		V161.628z M224.31,254.971c0-7.434,6.048-13.482,13.482-13.482h5.029h26.554h5.029c7.435,0,13.482,6.048,13.482,13.482v2.243
		c0,1.209-0.984,2.194-2.194,2.194h-59.188c-1.21,0-2.194-0.984-2.194-2.194V254.971z M198.993,348.365l2.137-4.579
		c9.143-19.596,13.576-41.375,12.822-62.983l-0.21-6.023c-0.068-1.949,0.64-3.794,1.994-5.197c1.354-1.402,3.175-2.175,5.124-2.175
		h5.644h59.188h5.653c1.949,0,3.768,0.771,5.122,2.173c1.354,1.401,2.063,3.246,1.997,5.193l-0.227,6.658
		c-0.75,22.052,3.892,44.225,13.422,64.122l1.315,2.747c1.079,2.253,0.935,4.759-0.397,6.873s-3.528,3.327-6.027,3.327h-22.209
		v-32.75c0-2.209-1.791-4-4-4s-4,1.791-4,4v32.75h-16.244v-32.75c0-2.209-1.791-4-4-4s-4,1.791-4,4v32.75h-16.243v-32.75
		c0-2.209-1.791-4-4-4s-4,1.791-4,4v32.75h-22.405c-2.484,0-4.674-1.202-6.009-3.297
		C198.106,353.108,197.943,350.615,198.993,348.365z"/>
</g>
</svg>
