<?xml version="1.0" encoding="utf-8"?>
<!-- Generator: Adobe Illustrator 27.0.1, SVG Export Plug-In . SVG Version: 6.00 Build 0)  -->
<svg version="1.1" id="Layer_2" xmlns="http://www.w3.org/2000/svg" xmlns:xlink="http://www.w3.org/1999/xlink" x="0px" y="0px"
	 viewBox="0 0 512 512" style="enable-background:new 0 0 512 512;" xml:space="preserve">
<style type="text/css">
	.st0{fill:#FFFFFF;}
</style>
<g>
	<path class="st0" d="M156.491,237.032v47.105c0,2.209,1.791,4,4,4h8.647v43.113c0,2.209,1.791,4,4,4h40.472c2.209,0,4-1.791,4-4
		v-43.113h8.647c2.209,0,4-1.791,4-4v-47.105c0-2.209-1.791-4-4-4h-65.767C158.282,233.032,156.491,234.823,156.491,237.032z
		 M164.491,241.032h57.767v39.105h-8.647c-2.209,0-4,1.791-4,4v43.113h-32.472v-43.113c0-2.209-1.791-4-4-4h-8.647V241.032z"/>
	<path class="st0" d="M193.375,225.22c13.363,0,24.235-10.872,24.235-24.235s-10.872-24.235-24.235-24.235
		s-24.235,10.872-24.235,24.235S180.012,225.22,193.375,225.22z M193.375,184.75c8.952,0,16.235,7.283,16.235,16.235
		s-7.283,16.235-16.235,16.235s-16.235-7.283-16.235-16.235S184.423,184.75,193.375,184.75z"/>
	<path class="st0" d="M354.699,305.526c0.756-1,1-2.295,0.659-3.501l-18.676-66.081c-0.487-1.723-2.059-2.912-3.849-2.912h-40.472
		c-1.803,0-3.383,1.207-3.858,2.946l-18.05,66.081c-0.329,1.203-0.078,2.49,0.679,3.481s1.932,1.573,3.179,1.573h14.05v24.138
		c0,2.209,1.791,4,4,4h40.472c2.209,0,4-1.791,4-4v-24.138h14.676C352.762,307.112,353.943,306.525,354.699,305.526z
		 M332.833,299.112c-2.209,0-4,1.791-4,4v24.138h-32.472v-24.138c0-2.209-1.791-4-4-4H279.55l15.864-58.081h34.392l16.416,58.081
		H332.833z"/>
	<path class="st0" d="M312.597,176.75c-13.363,0-24.235,10.872-24.235,24.235s10.872,24.235,24.235,24.235
		s24.235-10.872,24.235-24.235S325.96,176.75,312.597,176.75z M312.597,217.22c-8.952,0-16.235-7.283-16.235-16.235
		s7.283-16.235,16.235-16.235s16.235,7.283,16.235,16.235S321.549,217.22,312.597,217.22z"/>
	<path class="st0" d="M259.574,331.25v-150.5c0-2.209-1.791-4-4-4s-4,1.791-4,4v150.5c0,2.209,1.791,4,4,4
		S259.574,333.459,259.574,331.25z"/>
</g>
</svg>
