<?xml version="1.0" encoding="utf-8"?>
<!-- Generator: Adobe Illustrator 27.0.1, SVG Export Plug-In . SVG Version: 6.00 Build 0)  -->
<svg version="1.1" id="Layer_2" xmlns="http://www.w3.org/2000/svg" xmlns:xlink="http://www.w3.org/1999/xlink" x="0px" y="0px"
	 viewBox="0 0 512 512" style="enable-background:new 0 0 512 512;" xml:space="preserve">
<style type="text/css">
	.st0{fill:#FFFFFF;}
</style>
<g>
	<path class="st0" d="M345.057,228.004c-9.118-2.652-18.776,0.679-24.279,8.272c-10.187,1.105-18.73,8.191-21.635,18.178
		c-0.234,0.802-0.42,1.616-0.575,2.435c-0.57,0.163-1.134,0.35-1.683,0.592l-35.65,15.739v-32.618
		c1.666-0.411,3.318-0.894,4.941-1.464c5.053,2.017,10.392,3.038,15.895,3.038c23.651,0,42.893-19.247,42.893-42.904
		c0-19.431-13.366-36.624-32.015-41.505c-10.082-14.824-26.653-23.624-44.656-23.624c-19.936,0-37.878,10.688-47.38,28.056
		c-19.037,1.566-34.143,17.713-34.143,37.073c0,20.515,16.69,37.205,37.206,37.205c5.094,0,10.165-1.058,14.804-3.074
		c5.084,3.314,10.73,5.75,16.571,7.187v44.129l-11.914-4.738c1.24-1.865,2.205-3.92,2.847-6.117c0,0,0,0,0-0.001
		c1.671-5.725,1.014-11.757-1.853-16.985c-2.866-5.228-7.595-9.024-13.314-10.689c-9.115-2.665-18.802,0.722-24.294,8.262
		c-10.174,1.118-18.717,8.206-21.633,18.186c-3.926,13.471,3.846,27.634,17.324,31.57c2.32,0.679,4.701,1.009,7.069,1.009
		c5.355,0,10.638-1.71,15.036-4.893c0.245,0.115,0.49,0.23,0.74,0.328l29.993,11.934v47.416h-30.028c-2.209,0-4,1.791-4,4
		s1.791,4,4,4h34.028h17.884h34.028c2.209,0,4-1.791,4-4s-1.791-4-4-4h-30.028v-58.48l46.085-20.352
		c2.666,2.212,5.773,3.871,9.138,4.857c2.368,0.69,4.756,1.02,7.108,1.02c10.61-0.001,20.45-6.696,24.068-17.099
		c6.089-2.625,10.72-7.822,12.592-14.253C363.675,243.879,356.872,231.459,345.057,228.004z M217.303,225.251
		c-4.081,2.11-8.69,3.226-13.329,3.226c-16.104,0-29.206-13.102-29.206-29.205c0-15.837,12.875-28.934,28.699-29.194
		c0.108-0.002,0.213-0.017,0.32-0.027c0.063,0.003,0.122,0.019,0.185,0.019c16.104,0,29.205,13.101,29.205,29.204
		c0,2.209,1.791,4,4,4s4-1.791,4-4c0-18.45-13.502-33.798-31.143-36.702c8.478-12.732,22.648-20.427,38.257-20.427
		c12.775,0,24.701,5.207,33.294,14.245c-7.745,0.086-15.303,2.24-21.886,6.268c-1.884,1.153-2.477,3.615-1.324,5.5
		c0.754,1.232,2.069,1.913,3.416,1.913c0.711,0,1.433-0.19,2.084-0.589c5.461-3.342,11.751-5.108,18.19-5.108
		c2.369,0,4.737,0.238,7.039,0.709c0.084,0.017,0.166,0.014,0.249,0.026c0.088,0.026,0.171,0.065,0.262,0.085
		c15.846,3.487,27.347,17.82,27.347,34.08c0,19.246-15.653,34.904-34.893,34.904c-4.935,0-9.703-1.007-14.174-2.993
		c-0.516-0.229-1.07-0.345-1.624-0.345c-0.489,0-0.979,0.09-1.444,0.27c-2.749,1.064-5.604,1.86-8.492,2.366
		c-3.969,0.702-8.099,0.875-12.11,0.521c-0.671-0.059-1.339-0.134-2.004-0.222c-0.018-0.002-0.036-0.006-0.055-0.009
		c-0.646-0.087-1.289-0.188-1.928-0.303c-6.696-1.167-13.186-3.901-18.767-7.906C220.25,224.677,218.639,224.561,217.303,225.251z
		 M184.755,296.526c-9.247-2.701-14.579-12.415-11.888-21.65c1.52-5.2,5.272-9.245,10.044-11.231
		c-0.68,3.729-0.414,7.544,0.82,11.162c0.567,1.662,2.121,2.709,3.785,2.709c0.429,0,0.864-0.069,1.292-0.215
		c2.09-0.714,3.207-2.987,2.494-5.078c-0.953-2.792-1.018-5.772-0.188-8.618c0.415-1.423,1.039-2.76,1.853-3.973
		c0.013-0.02,0.02-0.041,0.032-0.061c2.696-3.981,7.163-6.281,11.846-6.281c1.338,0,2.694,0.188,4.031,0.578
		c3.668,1.067,6.7,3.502,8.538,6.854c1.838,3.354,2.261,7.224,1.188,10.896c-0.798,2.729-2.351,5.12-4.499,6.924
		c-0.367,0.309-0.745,0.599-1.133,0.868c-1.166,0.807-2.43,1.431-3.77,1.862c-0.843,0.271-1.561,0.827-2.057,1.543
		c-0.298,0.43-0.515,0.917-0.632,1.435l-0.114,0.43c-0.881,2.984-2.542,5.688-4.807,7.824
		C197.084,296.701,190.636,298.246,184.755,296.526z M255.618,295.253c-1.449,0.64-2.384,2.075-2.384,3.659v61.087h-9.884v-50.13
		c0-1.639-0.999-3.111-2.521-3.717l-30.178-12.007c0.054-0.079,0.101-0.162,0.154-0.242c0.177-0.265,0.346-0.535,0.513-0.807
		c0.116-0.189,0.233-0.377,0.345-0.568c0.165-0.285,0.32-0.576,0.475-0.867c0.099-0.186,0.201-0.37,0.295-0.559
		c0.16-0.322,0.308-0.65,0.455-0.979c0.073-0.165,0.153-0.326,0.223-0.492c0.209-0.497,0.405-1,0.583-1.511
		c0.574-0.249,1.133-0.528,1.684-0.824c0.17-0.091,0.335-0.191,0.502-0.287c0.385-0.22,0.764-0.449,1.136-0.692
		c0.091-0.06,0.188-0.109,0.279-0.17l20.578,8.184c1.231,0.489,2.627,0.338,3.724-0.407c1.097-0.744,1.754-1.983,1.754-3.31v-48.664
		c0.045,0.004,0.09,0.005,0.135,0.009c0.108,0.01,0.218,0.013,0.326,0.022c2.876,0.24,5.796,0.244,8.692,0.02
		c0.186-0.014,0.372-0.022,0.558-0.038c0.058-0.005,0.115-0.006,0.173-0.012v37.407c0,1.353,0.683,2.613,1.816,3.352
		c1.132,0.738,2.561,0.854,3.799,0.308l39.582-17.476c0.025,0.16,0.06,0.317,0.088,0.476c0.038,0.211,0.074,0.422,0.117,0.631
		c0.042,0.204,0.091,0.406,0.137,0.608c0.048,0.206,0.093,0.413,0.146,0.618c0.052,0.203,0.112,0.404,0.169,0.605
		c0.057,0.202,0.112,0.405,0.174,0.606c0.063,0.202,0.133,0.402,0.201,0.602c0.066,0.197,0.13,0.395,0.201,0.59
		c0.074,0.202,0.155,0.401,0.234,0.601c0.075,0.191,0.147,0.383,0.226,0.572c0.083,0.198,0.174,0.392,0.263,0.588
		c0.085,0.188,0.166,0.377,0.255,0.563c0.091,0.188,0.189,0.373,0.284,0.56c0.096,0.189,0.189,0.379,0.29,0.566
		c0.092,0.17,0.193,0.337,0.289,0.505c0.113,0.198,0.223,0.398,0.341,0.593c0.002,0.004,0.004,0.007,0.006,0.011L255.618,295.253z
		 M352.546,253.449c0,0.001,0,0.003-0.001,0.004c-1.33,4.573-4.84,8.176-9.389,9.637c-1.3,0.418-2.298,1.471-2.646,2.791
		l-0.166,0.603c-2.71,9.23-12.415,14.552-21.644,11.861c-3.044-0.892-5.783-2.582-7.919-4.889c-0.402-0.434-0.78-0.886-1.133-1.356
		c-2.472-3.283-3.737-7.381-3.507-11.489c0.079-1.319,0.308-2.638,0.682-3.922c1.513-5.201,5.263-9.243,10.036-11.223
		c-0.683,3.735-0.418,7.551,0.819,11.162c0.569,1.661,2.122,2.705,3.784,2.705c0.43,0,0.867-0.069,1.297-0.217
		c2.09-0.716,3.204-2.99,2.488-5.08c-0.953-2.781-1.016-5.759-0.177-8.631c0.351-1.226,0.872-2.395,1.548-3.474
		c0.002-0.004,0.003-0.008,0.005-0.011c0.017-0.027,0.035-0.054,0.051-0.082c0.071-0.121,0.142-0.235,0.246-0.389
		c2.71-4.045,7.174-6.347,11.856-6.347c1.34,0,2.699,0.189,4.039,0.579C350.394,237.9,354.759,245.869,352.546,253.449z"/>
</g>
</svg>
