<?xml version="1.0" encoding="utf-8"?>
<!-- Generator: Adobe Illustrator 27.0.1, SVG Export Plug-In . SVG Version: 6.00 Build 0)  -->
<svg version="1.1" id="Layer_2" xmlns="http://www.w3.org/2000/svg" xmlns:xlink="http://www.w3.org/1999/xlink" x="0px" y="0px"
	 viewBox="0 0 512 512" style="enable-background:new 0 0 512 512;" xml:space="preserve">
<style type="text/css">
	.st0{fill:#FFFFFF;}
</style>
<g>
	<path class="st0" d="M236.452,193.258c0-28.822-15.18-51.4-34.559-51.4c-19.378,0-34.558,22.578-34.558,51.4
		c0,20.346,8.079,38.763,20.326,46.917l-7.177,108.285c-0.006,0.088-0.009,0.177-0.009,0.265c0,11.81,9.608,21.418,21.418,21.418
		s21.418-9.608,21.418-21.418c0-0.088-0.003-0.176-0.009-0.263l-7.177-108.288C228.376,232.014,236.452,213.6,236.452,193.258z
		 M175.336,193.258c0-23.525,12.162-43.4,26.558-43.4c14.396,0,26.559,19.875,26.559,43.4c0,18.713-7.388,35.287-18.392,41.247
		c-3.934,2.144-8.203,2.681-12.305,1.609c-1.369-0.358-2.721-0.896-4.037-1.614C182.724,228.545,175.336,211.971,175.336,193.258z
		 M201.894,362.143c-7.357,0-13.351-5.952-13.417-13.294l6.964-105.064c0.05,0.014,0.1,0.022,0.149,0.036
		c0.32,0.086,0.641,0.158,0.963,0.231c0.196,0.044,0.39,0.094,0.586,0.133c0.37,0.074,0.742,0.132,1.114,0.189
		c0.149,0.023,0.297,0.052,0.446,0.072c0.464,0.062,0.931,0.106,1.398,0.141c0.061,0.005,0.122,0.014,0.183,0.018
		c0.536,0.036,1.073,0.055,1.613,0.055c0.54,0,1.077-0.02,1.613-0.055c0.079-0.005,0.158-0.017,0.237-0.023
		c0.449-0.034,0.897-0.076,1.343-0.136c0.161-0.021,0.32-0.053,0.481-0.077c0.361-0.055,0.722-0.112,1.081-0.183
		c0.197-0.039,0.393-0.089,0.589-0.134c0.323-0.073,0.646-0.146,0.966-0.232c0.048-0.013,0.097-0.022,0.145-0.035l6.826,102.979
		l0.137,2.084C215.244,356.189,209.251,362.143,201.894,362.143z"/>
	<path class="st0" d="M344.664,209.762v-63.904c0-2.209-1.791-4-4-4H326.87c-2.209,0-4,1.791-4,4v59.216h-5.874v-59.216
		c0-2.209-1.791-4-4-4h-13.219c-2.209,0-4,1.791-4,4v59.216h-5.874v-59.216c0-2.209-1.791-4-4-4h-13.456c-2.209,0-4,1.791-4,4
		v63.904c0,14.647,9.669,27.167,23.425,31.026l-6.653,107.69c-0.005,0.083-0.008,0.165-0.008,0.247
		c0,11.81,9.608,21.418,21.418,21.418c11.811,0,21.419-9.608,21.419-21.418c0-0.088-0.003-0.176-0.009-0.263l-0.146-2.207
		l-6.508-105.522C335.067,236.816,344.664,224.321,344.664,209.762z M306.629,362.143c-7.36,0-13.355-5.956-13.418-13.303
		l6.601-106.834c0.296,0.008,0.594,0.012,0.892,0.012h11.695c0.352,0,0.701-0.006,1.05-0.017l6.462,104.763l0.137,2.084
		C319.98,356.189,313.987,362.143,306.629,362.143z M316.472,233.664c-1.315,0.237-2.647,0.354-4.073,0.354h-11.695
		c-1.366,0-2.695-0.109-3.98-0.331c-11.748-1.93-20.275-11.991-20.275-23.925v-59.904h5.456v59.216c0,2.209,1.791,4,4,4h13.874
		c2.209,0,4-1.791,4-4v-59.216h5.219v59.216c0,2.209,1.791,4,4,4h13.874c2.209,0,4-1.791,4-4v-59.216h5.794v59.904
		C336.664,221.63,328.19,231.679,316.472,233.664z"/>
</g>
</svg>
