<?xml version="1.0" encoding="utf-8"?>
<!-- Generator: Adobe Illustrator 27.0.1, SVG Export Plug-In . SVG Version: 6.00 Build 0)  -->
<svg version="1.1" id="Layer_2" xmlns="http://www.w3.org/2000/svg" xmlns:xlink="http://www.w3.org/1999/xlink" x="0px" y="0px"
	 viewBox="0 0 512 512" style="enable-background:new 0 0 512 512;" xml:space="preserve">
<style type="text/css">
	.st0{fill:#FFFFFF;}
</style>
<g>
	<path class="st0" d="M330.32,234.474c-0.86-1.555-2.651-2.359-4.376-1.967c-1.734,0.389-3.003,1.875-3.116,3.649
		c-0.668,10.506-6.64,20.771-9.568,25.228c-11.884-22.423-15.169-42.102-9-54.22c1.74-3.396,3.804-6.547,6.134-9.366
		c1.152-1.394,1.226-3.387,0.18-4.862c-1.047-1.476-2.952-2.065-4.648-1.438c-5.088,1.879-9.757,4.574-13.871,8.005
		c-16.798,13.952-17.189,44.319-16.798,54.543c-16.279-14.378-22.994-43.392-18.74-61.796c3.127-13.383,15.982-26.734,23.366-33.501
		c1.326-1.215,1.678-3.166,0.861-4.767c-0.817-1.601-2.597-2.46-4.365-2.101c-14.253,2.915-32.674,11.758-40.255,19.34
		c-7.581,7.739-14.959,16.564-17.583,28.599c-2.547,11.155-2.149,23.043,1.151,34.384c9.869,33.704,7.014,44.536,4.449,47.972
		c-1.192,1.575-2.867,2.374-4.98,2.374c-1.328,0-2.995-0.337-4.796-0.967c-23.03-8.221-18.926-44.461-16.092-59.66
		c0.331-1.779-0.573-3.56-2.206-4.341c-1.635-0.781-3.589-0.368-4.765,1.007c-13.157,15.367-20.112,34.313-20.112,54.792
		c0,46.77,38.046,84.82,84.811,84.82s84.811-38.05,84.811-84.82C340.811,260.822,337.281,247.059,330.32,234.474z M275.442,257.291
		l-0.004,0c-0.005-0.043-0.007-0.086-0.007-0.129C275.436,257.21,275.439,257.253,275.442,257.291z M256,352.2
		c-42.354,0-76.811-34.461-76.811-76.82c0-13.074,3.126-25.453,9.141-36.489c-1.244,19.334,1.688,44.496,23.369,52.235
		c2.703,0.945,5.213,1.424,7.461,1.424c4.619,0,8.653-1.97,11.375-5.567c6.258-8.382,5.222-26.382-3.164-55.02
		c-2.92-10.031-3.276-20.53-1.023-30.4c2.079-9.534,7.696-16.787,15.461-24.714c3.8-3.8,12.328-8.802,21.621-12.578
		c-6.303,7.415-12.481,16.645-14.707,26.168c-5.118,22.146,3.354,56.346,24.095,71.937c1.147,0.879,2.528,1.344,3.993,1.344
		c1.16,0,2.319-0.303,3.188-0.81c2.352-1.302,3.656-3.747,3.403-6.381c-0.001-0.019-0.003-0.037-0.005-0.055
		c-0.067-0.804-2.498-34.788,12.197-49.386c-5.407,14.896-1.243,36.514,11.715,60.114c0.957,1.82,2.692,3.043,4.724,3.361
		c0.315,0.079,0.665,0.127,1.048,0.127c2.088,0,4.026-0.97,5.318-2.662c0.023-0.031,0.091-0.124,0.113-0.155
		c1.339-1.862,6.485-9.362,9.704-18.811c3.053,8.343,4.595,17.155,4.595,26.318C332.811,317.739,298.354,352.2,256,352.2z"/>
	<path class="st0" d="M260.631,274.389c-1.865,0.736-2.896,2.739-2.413,4.685c1.88,7.571,1.637,13.3-0.723,17.029
		c-2.703,4.272-7.996,5.341-11.159,5.979c-0.721,0.146-1.339,0.273-1.855,0.411c-5.226,1.436-9.427,5.325-11.238,10.402
		c-1.671,4.683-1.013,9.647,1.825,13.647c3.736,5.174,10.254,7.798,19.372,7.798c1.927,0,3.901-0.156,6.273-0.389
		c0.012-0.001,0.024-0.003,0.037-0.004c8.658-0.936,12.714-5.461,14.592-9.092c8.139-15.739-7.894-45.366-9.749-48.693
		C264.617,274.411,262.494,273.655,260.631,274.389z M268.235,321.18c-0.9,1.74-2.301,3.007-4.242,3.824
		c-1.165,0.49-2.523,0.817-4.084,0.987c-2.129,0.209-3.874,0.349-5.47,0.349c-1.601,0-3.073-0.094-4.413-0.282
		c-4.021-0.562-6.858-1.963-8.454-4.173c-1.323-1.863-1.368-3.752-1.114-5.124c0.085-0.457,0.202-0.856,0.317-1.178
		c0.807-2.259,2.616-4.119,4.821-5.034c0.315-0.131,0.638-0.242,0.967-0.333c0.357-0.095,0.818-0.185,1.354-0.293
		c3.832-0.773,11.807-2.384,16.337-9.543c0.698-1.104,1.282-2.292,1.752-3.56C269.106,305.705,271.152,315.541,268.235,321.18z"/>
</g>
</svg>
