<?xml version="1.0" encoding="utf-8"?>
<!-- Generator: Adobe Illustrator 27.0.1, SVG Export Plug-In . SVG Version: 6.00 Build 0)  -->
<svg version="1.1" id="Layer_2" xmlns="http://www.w3.org/2000/svg" xmlns:xlink="http://www.w3.org/1999/xlink" x="0px" y="0px"
	 viewBox="0 0 512 512" style="enable-background:new 0 0 512 512;" xml:space="preserve">
<style type="text/css">
	.st0{fill:#FFFFFF;}
</style>
<g>
	<path class="st0" d="M372.768,210.286l-114.831-63.56c-1.205-0.666-2.669-0.666-3.874,0l-114.831,63.56
		c-1.596,0.884-2.392,2.734-1.936,4.5c0.456,1.767,2.049,3,3.873,3h26.508v131.593c0,2.209,1.791,4,4,4h31.621h105.402h31.621
		c2.209,0,4-1.791,4-4V217.786h26.508c1.824,0,3.417-1.233,3.873-3C375.16,213.021,374.363,211.17,372.768,210.286z
		 M207.299,345.379v-102.17h97.402v102.17H207.299z M336.322,345.379h-23.621v-106.17c0-2.209-1.791-4-4-4H203.299
		c-2.209,0-4,1.791-4,4v106.17h-23.621V217.786h160.645V345.379z M340.322,209.786H171.678h-15.022L256,154.799l99.344,54.987
		H340.322z"/>
	<path class="st0" d="M294.571,250.04h-77.143c-2.209,0-4,1.791-4,4s1.791,4,4,4h77.143c2.209,0,4-1.791,4-4
		S296.78,250.04,294.571,250.04z"/>
	<path class="st0" d="M294.571,266.075h-77.143c-2.209,0-4,1.791-4,4s1.791,4,4,4h77.143c2.209,0,4-1.791,4-4
		S296.78,266.075,294.571,266.075z"/>
	<path class="st0" d="M294.571,282.11h-77.143c-2.209,0-4,1.791-4,4s1.791,4,4,4h77.143c2.209,0,4-1.791,4-4
		S296.78,282.11,294.571,282.11z"/>
	<path class="st0" d="M294.571,298.146h-77.143c-2.209,0-4,1.791-4,4s1.791,4,4,4h77.143c2.209,0,4-1.791,4-4
		S296.78,298.146,294.571,298.146z"/>
	<path class="st0" d="M294.571,314.181h-77.143c-2.209,0-4,1.791-4,4s1.791,4,4,4h77.143c2.209,0,4-1.791,4-4
		S296.78,314.181,294.571,314.181z"/>
	<path class="st0" d="M294.571,330.216h-77.143c-2.209,0-4,1.791-4,4s1.791,4,4,4h77.143c2.209,0,4-1.791,4-4
		S296.78,330.216,294.571,330.216z"/>
</g>
</svg>
