<?xml version="1.0" encoding="utf-8"?>
<!-- Generator: Adobe Illustrator 27.0.1, SVG Export Plug-In . SVG Version: 6.00 Build 0)  -->
<svg version="1.1" id="Layer_2" xmlns="http://www.w3.org/2000/svg" xmlns:xlink="http://www.w3.org/1999/xlink" x="0px" y="0px"
	 viewBox="0 0 512 512" style="enable-background:new 0 0 512 512;" xml:space="preserve">
<style type="text/css">
	.st0{fill:#FFFFFF;}
</style>
<g>
	<path class="st0" d="M342.76,147.051l-43.684,3.215c-4.954,0.365-9.617,2.501-13.132,6.015l-53.078,53.078
		c-7.511,7.51-7.511,19.729,0,27.239l9.148,9.148l-4.973,4.973c-2.875,2.876-3.816,6.986-2.705,10.683l-54.032,54.032l-3.634-3.634
		c-2.794-2.794-6.508-4.333-10.459-4.333c-3.95,0-7.664,1.539-10.458,4.333l-7.587,7.587c-1.562,1.562-1.562,4.095,0,5.656
		l38.792,38.792c0.78,0.781,1.805,1.172,2.828,1.172s2.048-0.391,2.828-1.172l7.587-7.587c2.794-2.794,4.333-6.508,4.333-10.458
		c0-3.951-1.539-7.665-4.333-10.458l-3.635-3.635l54.028-54.028c1.006,0.302,2.042,0.456,3.077,0.456
		c2.767,0,5.517-1.073,7.61-3.167l4.973-4.973l9.148,9.148c3.755,3.755,8.688,5.633,13.619,5.633c4.933,0,9.865-1.878,13.62-5.633
		l53.079-53.078c3.513-3.515,5.648-8.178,6.014-13.132l3.215-43.685c0.442-6.015-1.75-11.91-6.015-16.174
		C354.671,148.801,348.774,146.606,342.76,147.051z M194.545,350.591l-4.759,4.758l-33.135-33.135l4.758-4.759
		c1.283-1.282,2.988-1.989,4.802-1.989s3.519,0.706,4.802,1.989l23.532,23.533c1.283,1.282,1.989,2.987,1.989,4.801
		S195.827,349.308,194.545,350.591z M190.91,326.039l-4.949-4.949l53.104-53.104l4.95,4.95L190.91,326.039z M356.971,168.652
		l-3.215,43.684c-0.225,3.042-1.536,5.905-3.692,8.063l-53.078,53.078c-4.391,4.392-11.536,4.391-15.927,0l-9.148-9.148
		l30.129-30.129c1.562-1.562,1.562-4.095,0-5.656c-1.561-1.562-4.096-1.562-5.656,0l-32.932,32.931
		c-0.009,0.009-0.019,0.014-0.028,0.023c-0.009,0.009-0.014,0.019-0.023,0.028l-7.775,7.775c-0.96,0.962-2.453,1.086-3.547,0.305
		c-0.054-0.038-0.107-0.075-0.163-0.11c-0.008-0.006-0.082-0.055-0.229-0.201l-8.985-8.985c-0.142-0.142-0.19-0.216-0.196-0.224
		c-0.035-0.056-0.072-0.109-0.11-0.163c-0.783-1.095-0.655-2.587,0.304-3.547l7.772-7.771c0.01-0.01,0.022-0.016,0.032-0.026
		s0.016-0.022,0.026-0.032l32.928-32.928c1.562-1.562,1.562-4.095,0-5.656c-1.561-1.562-4.096-1.562-5.656,0l-30.129,30.128
		l-9.148-9.148c-4.391-4.392-4.391-11.535,0-15.927l53.078-53.077c2.158-2.157,5.021-3.469,8.063-3.693l43.683-3.215
		c3.7-0.271,7.313,1.074,9.932,3.692S357.242,164.96,356.971,168.652z"/>
</g>
</svg>
