<?xml version="1.0" encoding="utf-8"?>
<!-- Generator: Adobe Illustrator 27.0.1, SVG Export Plug-In . SVG Version: 6.00 Build 0)  -->
<svg version="1.1" id="Layer_2" xmlns="http://www.w3.org/2000/svg" xmlns:xlink="http://www.w3.org/1999/xlink" x="0px" y="0px"
	 viewBox="0 0 512 512" style="enable-background:new 0 0 512 512;" xml:space="preserve">
<style type="text/css">
	.st0{fill:#FFFFFF;}
</style>
<g>
	<path class="st0" d="M158.357,322.361c0,7.813,6.356,14.169,14.169,14.169h166.947c7.812,0,14.169-6.356,14.169-14.169V189.639
		c0-7.813-6.356-14.169-14.169-14.169H172.526c-7.812,0-14.169,6.356-14.169,14.169V322.361z M339.474,328.53H172.526
		c-3.401,0-6.169-2.768-6.169-6.169V222.25h179.285v100.111C345.643,325.763,342.875,328.53,339.474,328.53z M172.526,183.47
		h166.947c3.401,0,6.169,2.768,6.169,6.169v24.611H166.357v-24.611C166.357,186.237,169.125,183.47,172.526,183.47z"/>
	<path class="st0" d="M313.517,241.067H198.483c-2.209,0-4,1.791-4,4v60.844c0,2.209,1.791,4,4,4h54.959h5.115h54.959
		c2.209,0,4-1.791,4-4v-60.844C317.517,242.858,315.726,241.067,313.517,241.067z M253.442,301.911c-7.997,0-14.722-5.55-16.524-13
		h38.164c-1.803,7.45-8.527,13-16.524,13H253.442z M309.517,301.911h-32.651c4.148-4.464,6.692-10.439,6.692-17c0-2.209-1.791-4-4-4
		h-47.115c-2.209,0-4,1.791-4,4c0,6.561,2.544,12.536,6.692,17h-32.651v-52.844h107.033V301.911z"/>
	<path class="st0" d="M232.442,203.028h47.115c2.209,0,4-1.791,4-4s-1.791-4-4-4h-47.115c-2.209,0-4,1.791-4,4
		S230.233,203.028,232.442,203.028z"/>
	<path class="st0" d="M190.769,203.028h15.429c2.209,0,4-1.791,4-4s-1.791-4-4-4h-15.429c-2.209,0-4,1.791-4,4
		S188.56,203.028,190.769,203.028z"/>
	<path class="st0" d="M305.803,203.028h15.429c2.209,0,4-1.791,4-4s-1.791-4-4-4h-15.429c-2.209,0-4,1.791-4,4
		S303.594,203.028,305.803,203.028z"/>
	<path class="st0" d="M268.429,276.286c2.209,0,4-1.791,4-4v-6.429c0-2.209-1.791-4-4-4s-4,1.791-4,4v6.429
		C264.429,274.495,266.22,276.286,268.429,276.286z"/>
	<path class="st0" d="M256,276.286c2.209,0,4-1.791,4-4v-6.429c0-2.209-1.791-4-4-4s-4,1.791-4,4v6.429
		C252,274.495,253.791,276.286,256,276.286z"/>
	<path class="st0" d="M243.571,276.286c2.209,0,4-1.791,4-4v-6.429c0-2.209-1.791-4-4-4s-4,1.791-4,4v6.429
		C239.571,274.495,241.362,276.286,243.571,276.286z"/>
</g>
</svg>
