<?xml version="1.0" encoding="utf-8"?>
<!-- Generator: Adobe Illustrator 27.0.1, SVG Export Plug-In . SVG Version: 6.00 Build 0)  -->
<svg version="1.1" id="Layer_2" xmlns="http://www.w3.org/2000/svg" xmlns:xlink="http://www.w3.org/1999/xlink" x="0px" y="0px"
	 viewBox="0 0 512 512" style="enable-background:new 0 0 512 512;" xml:space="preserve">
<style type="text/css">
	.st0{fill:#FFFFFF;}
</style>
<g>
	<path class="st0" d="M226.867,166.782c-1.562,1.562-1.562,4.095,0,5.656c1.561,1.562,4.094,1.562,5.656,0
		c12.946-12.943,34.009-12.942,46.953,0c0.78,0.781,1.805,1.172,2.828,1.172s2.048-0.391,2.828-1.172
		c1.562-1.562,1.562-4.095,0-5.656C269.07,150.718,242.932,150.718,226.867,166.782z"/>
	<path class="st0" d="M293.996,158.218c1.023,0,2.048-0.391,2.828-1.172c1.562-1.562,1.562-4.095,0-5.656
		c-10.904-10.905-25.402-16.911-40.824-16.911c-15.421,0-29.92,6.006-40.824,16.911c-1.562,1.562-1.562,4.095,0,5.656
		c1.561,1.562,4.096,1.562,5.656,0c9.395-9.394,21.884-14.567,35.168-14.567c13.285,0,25.774,5.174,35.168,14.567
		C291.948,157.827,292.973,158.218,293.996,158.218z"/>
	<path class="st0" d="M193.897,230.704l-9.156,64.778c-2.919,20.648,3.251,41.521,16.927,57.265
		c13.675,15.744,33.479,24.774,54.332,24.774s40.657-9.03,54.332-24.774c13.676-15.744,19.846-36.616,16.927-57.265l-9.156-64.779
		c-2.653-18.767-18.946-32.918-37.899-32.918h-2.861v-3.31c0-11.768-9.574-21.342-21.342-21.342s-21.341,9.574-21.341,21.342v3.31
		h-2.862C212.844,197.785,196.551,211.938,193.897,230.704z M242.659,194.476c0-7.356,5.984-13.342,13.341-13.342
		s13.342,5.985,13.342,13.342v3.31h-26.683V194.476z M231.797,205.785h6.862h34.683h6.861c14.991,0,27.879,11.193,29.978,26.037
		l9.156,64.779c2.595,18.354-2.889,36.905-15.044,50.899S274.535,369.521,256,369.521s-36.138-8.026-48.293-22.021
		s-17.639-32.546-15.044-50.899l9.156-64.778C203.918,216.979,216.806,205.785,231.797,205.785z"/>
	<path class="st0" d="M212.976,342.924c10.829,12.468,26.511,19.618,43.024,19.618s32.195-7.15,43.024-19.618
		c10.829-12.467,15.714-28.995,13.403-45.346l-9.156-64.778c-1.615-11.423-11.532-20.036-23.067-20.036h-48.408
		c-11.535,0-21.452,8.613-23.067,20.036l-9.156,64.778C197.262,313.929,202.146,330.457,212.976,342.924z M207.494,298.697
		l9.156-64.778c1.06-7.5,7.571-13.155,15.146-13.155h48.408c7.574,0,14.086,5.655,15.146,13.155l9.156,64.778
		c1.987,14.056-2.212,28.264-11.521,38.98c-9.309,10.718-22.789,16.864-36.984,16.864s-27.676-6.146-36.984-16.864
		C209.706,326.961,205.507,312.753,207.494,298.697z"/>
	<path class="st0" d="M256,345.383c20.625,0,37.405-16.78,37.405-37.405s-16.78-37.405-37.405-37.405s-37.405,16.78-37.405,37.405
		S235.375,345.383,256,345.383z M256,278.572c16.214,0,29.405,13.191,29.405,29.405S272.214,337.383,256,337.383
		s-29.405-13.191-29.405-29.405S239.786,278.572,256,278.572z"/>
	<path class="st0" d="M256,324.55c9.138,0,16.571-7.435,16.571-16.572c0-4.426-1.724-8.587-4.853-11.718
		c-1.562-1.562-4.094-1.562-5.657-0.001c-1.562,1.562-1.562,4.095-0.001,5.657c1.619,1.619,2.511,3.772,2.511,6.062
		c0,4.727-3.845,8.572-8.571,8.572s-8.571-3.846-8.571-8.572c0-2.175,0.815-4.248,2.296-5.839c1.505-1.617,1.415-4.148-0.202-5.653
		c-1.618-1.508-4.148-1.413-5.653,0.202c-2.863,3.076-4.44,7.086-4.44,11.29C239.429,317.115,246.862,324.55,256,324.55z"/>
	<path class="st0" d="M256,309.294c2.209,0,4-1.791,4-4v-12.411c0-2.209-1.791-4-4-4s-4,1.791-4,4v12.411
		C252,307.503,253.791,309.294,256,309.294z"/>
	<path class="st0" d="M238.888,258.434c6.712,0,12.173-5.461,12.173-12.173s-5.461-12.173-12.173-12.173
		c-6.713,0-12.174,5.461-12.174,12.173S232.175,258.434,238.888,258.434z M238.888,242.088c2.301,0,4.173,1.872,4.173,4.173
		s-1.872,4.173-4.173,4.173c-2.302,0-4.174-1.872-4.174-4.173S236.586,242.088,238.888,242.088z"/>
	<path class="st0" d="M265.397,242.088h15.889c2.209,0,4-1.791,4-4s-1.791-4-4-4h-15.889c-2.209,0-4,1.791-4,4
		S263.188,242.088,265.397,242.088z"/>
	<path class="st0" d="M265.397,258.434h15.889c2.209,0,4-1.791,4-4s-1.791-4-4-4h-15.889c-2.209,0-4,1.791-4,4
		S263.188,258.434,265.397,258.434z"/>
</g>
</svg>
