<?xml version="1.0" encoding="utf-8"?>
<!-- Generator: Adobe Illustrator 27.0.1, SVG Export Plug-In . SVG Version: 6.00 Build 0)  -->
<svg version="1.1" id="Layer_2" xmlns="http://www.w3.org/2000/svg" xmlns:xlink="http://www.w3.org/1999/xlink" x="0px" y="0px"
	 viewBox="0 0 512 512" style="enable-background:new 0 0 512 512;" xml:space="preserve">
<style type="text/css">
	.st0{fill:#FFFFFF;}
</style>
<g>
	<path class="st0" d="M295.995,286.185c2.454-2.454,3.806-5.717,3.806-9.188c0-3.471-1.352-6.734-3.806-9.188
		c-21.696-21.695-57.001-21.692-78.702,0.007c-2.455,2.454-3.806,5.717-3.806,9.188c0,3.471,1.352,6.734,3.806,9.188
		c2.454,2.455,5.717,3.806,9.188,3.806s6.734-1.352,9.188-3.806c11.568-11.568,30.388-11.57,41.951-0.007
		C282.686,291.251,290.929,291.25,295.995,286.185z M230.011,280.536c-0.943,0.943-2.197,1.462-3.531,1.462s-2.588-0.52-3.531-1.463
		c-0.943-0.943-1.462-2.197-1.462-3.531c0-1.333,0.519-2.587,1.462-3.531c9.293-9.292,21.497-13.938,33.702-13.938
		c12.2,0,24.401,4.644,33.688,13.93c0.943,0.943,1.462,2.197,1.462,3.531s-0.52,2.588-1.462,3.531c-1.946,1.946-5.115,1.948-7.062,0
		C268.593,265.845,244.698,265.849,230.011,280.536z"/>
	<path class="st0" d="M313.616,252.03c3.471,0,6.734-1.352,9.188-3.806c2.455-2.454,3.806-5.717,3.806-9.188
		c0-3.471-1.352-6.734-3.806-9.188c-36.838-36.837-96.774-36.841-133.608-0.008c-2.455,2.454-3.806,5.717-3.806,9.188
		c0,3.471,1.352,6.734,3.806,9.188c5.067,5.066,13.31,5.065,18.375,0c26.701-26.702,70.151-26.698,96.856,0.007
		C306.882,250.678,310.145,252.03,313.616,252.03z M255.993,220.197c-19.584,0-39.17,7.455-54.078,22.363
		c-1.946,1.947-5.115,1.947-7.062,0c-0.943-0.943-1.462-2.197-1.462-3.531c0-1.334,0.519-2.588,1.463-3.531
		c33.714-33.715,88.576-33.71,122.294,0.008c0.943,0.943,1.462,2.197,1.462,3.531c0,1.334-0.519,2.588-1.463,3.531
		c-0.943,0.943-2.197,1.462-3.531,1.462s-2.588-0.52-3.531-1.463C295.17,227.653,275.582,220.197,255.993,220.197z"/>
	<path class="st0" d="M159.542,204.509c0,3.247,1.265,6.299,3.56,8.595c4.739,4.738,12.449,4.738,17.188,0
		c41.743-41.743,109.67-41.738,151.42,0.011c2.296,2.295,5.348,3.56,8.594,3.56s6.298-1.264,8.594-3.559
		c2.296-2.296,3.561-5.348,3.561-8.595c0-3.247-1.265-6.299-3.56-8.595c-24.777-24.777-57.77-38.423-92.9-38.425
		c-0.004,0-0.004,0-0.008,0c-35.126,0-68.117,13.644-92.888,38.415C160.806,198.21,159.542,201.262,159.542,204.509z
		 M168.759,201.572c23.262-23.262,54.239-36.072,87.231-36.072c0.002,0,0.006,0,0.008,0c32.994,0.002,63.978,12.816,87.244,36.083
		c0.785,0.785,1.217,1.828,1.217,2.938c0,1.109-0.432,2.152-1.217,2.937c-0.784,0.785-1.828,1.217-2.937,1.217
		s-2.153-0.432-2.937-1.217c-22.438-22.437-51.907-33.654-81.377-33.654c-29.463,0-58.928,11.215-81.357,33.644
		c-1.619,1.62-4.254,1.619-5.875,0c-0.785-0.785-1.217-1.828-1.217-2.938C167.542,203.399,167.974,202.356,168.759,201.572z"/>
	<path class="st0" d="M256.647,300.86c-14.789,0-26.82,12.031-26.82,26.82s12.031,26.82,26.82,26.82s26.82-12.032,26.82-26.82
		S271.436,300.86,256.647,300.86z M256.647,346.5c-10.377,0-18.82-8.443-18.82-18.82s8.442-18.82,18.82-18.82
		s18.82,8.442,18.82,18.82S267.025,346.5,256.647,346.5z"/>
</g>
</svg>
