<?xml version="1.0" encoding="utf-8"?>
<!-- Generator: Adobe Illustrator 27.0.1, SVG Export Plug-In . SVG Version: 6.00 Build 0)  -->
<svg version="1.1" id="Layer_2" xmlns="http://www.w3.org/2000/svg" xmlns:xlink="http://www.w3.org/1999/xlink" x="0px" y="0px"
	 viewBox="0 0 512 512" style="enable-background:new 0 0 512 512;" xml:space="preserve">
<style type="text/css">
	.st0{fill:#FFFFFF;}
</style>
<g>
	<path class="st0" d="M153.169,327.226c0,8.442,3.288,16.379,9.257,22.348c5.969,5.97,13.906,9.257,22.349,9.257
		c8.442,0,16.379-3.288,22.349-9.257l36.241-36.241c3.266,3.183,7.509,4.783,11.758,4.783c4.316,0,8.634-1.644,11.92-4.93
		c6.572-6.573,6.572-17.267,0-23.84l-10.541-10.541l69.044-69.044l18.723-13.108c0.389-0.272,0.727-0.612,0.997-1.002l12.768-18.469
		c1.099-1.589,0.904-3.737-0.462-5.103l-17.648-17.648c-1.337-1.336-3.427-1.556-5.011-0.523l-18.92,12.317
		c-0.459,0.299-0.853,0.689-1.155,1.147l-12.635,19.124l-69.006,69.006l-10.541-10.541h0c-6.572-6.572-17.267-6.572-23.84,0
		c-6.52,6.521-6.563,17.093-0.146,23.678l-36.241,36.241C156.457,310.847,153.169,318.784,153.169,327.226z M308.144,191.865
		c0.19-0.19,0.36-0.399,0.509-0.624l12.4-18.768l15.506-10.094l12.996,12.997l-10.463,15.134l-18.422,12.897
		c-0.191,0.134-0.37,0.284-0.535,0.448l-69.292,69.292l-11.992-11.992L308.144,191.865z M204.471,250.615
		c1.727-1.727,3.995-2.59,6.263-2.59s4.537,0.864,6.264,2.59l13.365,13.365c0.002,0.002,0.003,0.004,0.004,0.005l17.648,17.648
		c0.002,0.002,0.004,0.003,0.005,0.004l13.365,13.365c3.454,3.454,3.454,9.073,0,12.527c-3.454,3.454-9.074,3.453-12.526,0
		l-2.674-2.674l-39.04-39.04l-2.674-2.674C201.017,259.688,201.017,254.069,204.471,250.615z M204.316,274.301l33.383,33.383
		l-36.233,36.233c-4.458,4.458-10.386,6.914-16.691,6.914c-6.306,0-12.233-2.455-16.692-6.914
		c-4.458-4.458-6.914-10.386-6.914-16.691c0-6.305,2.456-12.233,6.914-16.691L204.316,274.301z"/>
</g>
</svg>
