<?xml version="1.0" encoding="utf-8"?>
<!-- Generator: Adobe Illustrator 27.0.1, SVG Export Plug-In . SVG Version: 6.00 Build 0)  -->
<svg version="1.1" id="Layer_2" xmlns="http://www.w3.org/2000/svg" xmlns:xlink="http://www.w3.org/1999/xlink" x="0px" y="0px"
	 viewBox="0 0 512 512" style="enable-background:new 0 0 512 512;" xml:space="preserve">
<style type="text/css">
	.st0{fill:#FFFFFF;}
</style>
<g>
	<path class="st0" d="M166.42,291.71c0.1,0.24,0.22,0.48,0.359,0.69c0.15,0.22,0.32,0.43,0.5,0.61c0.75,0.75,1.78,1.17,2.83,1.17
		c0.261,0,0.521-0.02,0.78-0.08c0.26-0.05,0.51-0.12,0.75-0.22s0.47-0.23,0.69-0.37c0.22-0.15,0.42-0.32,0.609-0.5
		c0.74-0.74,1.17-1.78,1.17-2.83c0-1.05-0.43-2.08-1.17-2.83c-0.189-0.18-0.39-0.35-0.609-0.49c-0.221-0.15-0.45-0.27-0.69-0.37
		s-0.49-0.18-0.75-0.23c-1.3-0.26-2.68,0.16-3.61,1.09c-0.739,0.75-1.17,1.78-1.17,2.83c0,0.26,0.03,0.53,0.08,0.78
		C166.24,291.22,166.31,291.47,166.42,291.71z"/>
	<path class="st0" d="M180.02,293.51c0.21,0.14,0.44,0.27,0.69,0.37c0.24,0.1,0.49,0.17,0.74,0.22c0.26,0.06,0.529,0.08,0.79,0.08
		c1.05,0,2.079-0.43,2.819-1.17c0.75-0.75,1.181-1.78,1.181-2.83c0-0.26-0.03-0.52-0.08-0.78c-0.051-0.25-0.131-0.51-0.23-0.75
		c-0.1-0.24-0.229-0.47-0.37-0.69c-0.149-0.22-0.31-0.42-0.5-0.61c-0.74-0.74-1.77-1.17-2.819-1.17c-1.061,0-2.091,0.43-2.83,1.17
		c-0.19,0.19-0.351,0.39-0.5,0.61c-0.141,0.22-0.271,0.45-0.37,0.69c-0.101,0.24-0.181,0.5-0.23,0.75
		c-0.05,0.26-0.08,0.52-0.08,0.78c0,1.06,0.431,2.09,1.181,2.83C179.59,293.19,179.8,293.36,180.02,293.51z"/>
	<path class="st0" d="M192.14,293.51c0.22,0.14,0.45,0.27,0.69,0.37c0.239,0.1,0.489,0.17,0.75,0.22c0.26,0.06,0.52,0.08,0.779,0.08
		c1.051,0,2.08-0.42,2.83-1.17c0.181-0.18,0.351-0.39,0.5-0.61c0.141-0.21,0.261-0.45,0.37-0.69c0.09-0.24,0.17-0.49,0.22-0.75
		c0.061-0.25,0.08-0.52,0.08-0.78c0-0.26-0.02-0.52-0.08-0.78c-0.05-0.25-0.13-0.51-0.22-0.75c-0.109-0.24-0.229-0.47-0.37-0.69
		c-0.149-0.22-0.319-0.42-0.5-0.61c-0.93-0.92-2.31-1.35-3.609-1.09c-0.261,0.05-0.511,0.13-0.75,0.23
		c-0.24,0.1-0.471,0.22-0.69,0.37c-0.22,0.14-0.42,0.31-0.61,0.49c-0.18,0.19-0.35,0.39-0.489,0.61c-0.15,0.22-0.271,0.45-0.37,0.69
		c-0.101,0.24-0.18,0.5-0.23,0.75c-0.05,0.26-0.08,0.52-0.08,0.78c0,1.06,0.431,2.09,1.17,2.83
		C191.72,293.19,191.92,293.36,192.14,293.51z"/>
	<path class="st0" d="M360.599,184.429c0-3.309-2.691-6-6-6H157.401c-3.309,0-6,2.691-6,6v91.849c0,0.007,0.002,0.013,0.002,0.02
		s-0.002,0.013-0.002,0.02v27.729c0,2.209,1.791,4,4,4h42.521l-3.704,10.593c-0.971,2.911-0.749,6.015,0.626,8.738
		c1.338,2.651,3.626,4.623,6.447,5.556c1.21,0.427,2.447,0.629,3.666,0.629c4.614,0,8.974-2.908,10.647-7.571l6.266-17.945h68.259
		l6.279,17.978c1.665,4.637,6.02,7.539,10.634,7.539c1.219,0,2.457-0.203,3.668-0.63c2.821-0.933,5.109-2.904,6.447-5.556
		c1.375-2.724,1.597-5.827,0.606-8.793l-3.685-10.539h42.521c2.209,0,4-1.791,4-4v-27.729c0-0.007-0.002-0.013-0.002-0.02
		s0.002-0.013,0.002-0.02V184.429z M159.401,186.429h193.197v85.849H159.401V186.429z M208.063,323.322
		c-0.633,1.76-2.443,2.667-4.127,2.062c-0.038-0.014-0.077-0.027-0.116-0.04c-1.03-0.335-1.566-1.039-1.835-1.57
		c-0.406-0.805-0.47-1.729-0.197-2.548l4.608-13.179h7.001L208.063,323.322z M310.192,321.171c0.292,0.873,0.229,1.797-0.178,2.603
		c-0.269,0.532-0.805,1.235-1.835,1.57c-0.039,0.013-0.078,0.026-0.116,0.04c-1.685,0.605-3.494-0.303-4.115-2.029l-5.347-15.308
		h7.002L310.192,321.171z M352.599,300.047h-44.156h-15.081h-74.723h-15.081h-44.156v-19.729h193.197V300.047z"/>
	<path class="st0" d="M246.271,294.567h19.763c2.209,0,4-1.791,4-4s-1.791-4-4-4h-19.763c-2.209,0-4,1.791-4,4
		S244.062,294.567,246.271,294.567z"/>
</g>
</svg>
