<?xml version="1.0" encoding="utf-8"?>
<!-- Generator: Adobe Illustrator 27.0.1, SVG Export Plug-In . SVG Version: 6.00 Build 0)  -->
<svg version="1.1" id="Layer_2" xmlns="http://www.w3.org/2000/svg" xmlns:xlink="http://www.w3.org/1999/xlink" x="0px" y="0px"
	 viewBox="0 0 512 512" style="enable-background:new 0 0 512 512;" xml:space="preserve">
<style type="text/css">
	.st0{fill:#FFFFFF;}
</style>
<g>
	<path class="st0" d="M192.478,300.251c-5.256,0-10.197,2.047-13.914,5.764c-7.672,7.672-7.672,20.155,0,27.829
		c3.836,3.835,8.875,5.753,13.914,5.753s10.078-1.918,13.914-5.754c3.717-3.717,5.764-8.658,5.764-13.914
		c0-5.257-2.047-10.198-5.763-13.914C202.676,302.298,197.734,300.251,192.478,300.251z M200.735,328.187
		c-4.554,4.553-11.961,4.554-16.515,0s-4.554-11.963-0.001-16.516c2.206-2.206,5.139-3.42,8.258-3.42s6.052,1.214,8.258,3.421
		c2.206,2.205,3.42,5.138,3.42,8.257S202.941,325.98,200.735,328.187z"/>
	<path class="st0" d="M248.368,244.303c-4.209,4.208-4.209,11.057,0,15.266c2.104,2.104,4.868,3.154,7.632,3.154
		s5.527-1.051,7.632-3.154v-0.001c4.209-4.208,4.209-11.057,0-15.265C259.425,240.094,252.575,240.094,248.368,244.303z
		 M257.976,253.91c-1.091,1.091-2.862,1.088-3.951,0.001c-1.089-1.09-1.089-2.862,0-3.952c0.545-0.544,1.26-0.816,1.976-0.816
		s1.431,0.272,1.976,0.816C259.064,251.049,259.064,252.821,257.976,253.91z"/>
	<path class="st0" d="M357.846,319.929c0-10.234-3.987-19.857-11.228-27.097c-8.01-8.01-18.875-11.996-30.072-11.107l-29.972-29.972
		l38.377-43.874c0.578-0.661,0.923-1.493,0.98-2.369l3.147-47.496c0.11-1.663-0.821-3.22-2.339-3.907
		c-1.516-0.689-3.302-0.364-4.48,0.814L256,221.179l-66.259-66.258c-1.179-1.179-2.964-1.501-4.48-0.814
		c-1.518,0.688-2.449,2.244-2.339,3.907l3.147,47.496c0.058,0.876,0.402,1.708,0.98,2.369l38.376,43.874l-29.972,29.972
		c-11.201-0.889-22.062,3.099-30.073,11.108c-7.24,7.239-11.228,16.862-11.228,27.097c0,10.233,3.987,19.856,11.228,27.096
		c7.239,7.24,16.862,11.228,27.096,11.228c10.234,0,19.857-3.987,27.097-11.228c8.207-8.207,12.234-19.763,10.991-31.241
		L256,286.706l25.434,29.078c-1.242,11.48,2.785,23.035,10.991,31.241c7.239,7.24,16.862,11.228,27.097,11.228
		c10.233,0,19.856-3.987,27.096-11.228C353.858,339.785,357.846,330.162,357.846,319.929z M320.393,168.101l-2.354,35.529
		l-37.134,42.453l-19.248-19.248L320.393,168.101z M191.607,168.101L307.15,283.643c-0.036,0.012-0.07,0.027-0.106,0.039
		c-0.611,0.209-1.214,0.434-1.812,0.673c-0.136,0.055-0.271,0.114-0.406,0.17c-0.48,0.199-0.957,0.408-1.428,0.626
		c-0.159,0.073-0.317,0.146-0.475,0.222c-0.587,0.282-1.169,0.574-1.741,0.887c-0.002,0.001-0.005,0.003-0.007,0.004
		c-0.568,0.31-1.125,0.64-1.678,0.98c-0.147,0.09-0.293,0.183-0.439,0.276c-0.452,0.286-0.898,0.583-1.338,0.889
		c-0.108,0.075-0.218,0.147-0.325,0.223c-0.532,0.378-1.055,0.77-1.569,1.177c-0.11,0.087-0.217,0.177-0.325,0.265
		c-0.414,0.335-0.822,0.679-1.224,1.032c-0.135,0.118-0.269,0.236-0.402,0.356c-0.491,0.444-0.977,0.897-1.449,1.369
		c-0.435,0.435-0.854,0.881-1.266,1.333c-0.119,0.13-0.234,0.262-0.351,0.394c-0.305,0.344-0.603,0.693-0.894,1.046
		c-0.109,0.132-0.219,0.263-0.326,0.396c-0.38,0.474-0.752,0.953-1.108,1.443c-0.017,0.023-0.032,0.047-0.049,0.071
		c-0.338,0.467-0.662,0.942-0.977,1.422c-0.096,0.146-0.189,0.294-0.283,0.441c-0.245,0.385-0.483,0.773-0.714,1.166
		c-0.083,0.141-0.168,0.282-0.25,0.424c-0.298,0.522-0.586,1.05-0.859,1.585c-0.027,0.053-0.051,0.107-0.077,0.16
		c-0.245,0.486-0.477,0.978-0.7,1.474c-0.072,0.159-0.141,0.319-0.21,0.48c-0.184,0.424-0.36,0.852-0.528,1.283
		c-0.038,0.098-0.082,0.192-0.119,0.29L193.962,203.63L191.607,168.101z M213.918,341.368c-5.729,5.729-13.344,8.884-21.44,8.884
		s-15.711-3.155-21.439-8.884s-8.884-13.343-8.884-21.439s3.155-15.711,8.884-21.44c5.758-5.757,13.378-8.89,21.367-8.89
		c1.33,0,2.671,0.087,4.016,0.263c6.675,0.874,12.726,3.856,17.497,8.627c0.569,0.569,1.113,1.157,1.632,1.763
		c3.628,4.24,5.989,9.339,6.869,14.884C223.949,324.708,220.771,334.515,213.918,341.368z M228.285,306.239
		c-0.039-0.103-0.086-0.203-0.126-0.306c-0.165-0.422-0.337-0.841-0.517-1.257c-0.072-0.166-0.143-0.331-0.217-0.496
		c-0.22-0.49-0.45-0.975-0.691-1.455c-0.029-0.058-0.055-0.117-0.085-0.174c-0.272-0.535-0.56-1.061-0.857-1.582
		c-0.082-0.143-0.167-0.284-0.25-0.425c-0.231-0.393-0.469-0.782-0.714-1.167c-0.094-0.147-0.186-0.294-0.282-0.439
		c-0.317-0.483-0.643-0.961-0.983-1.43c-0.015-0.021-0.029-0.042-0.043-0.062c-0.357-0.491-0.729-0.971-1.111-1.447
		c-0.105-0.131-0.214-0.26-0.321-0.39c-0.293-0.355-0.592-0.706-0.898-1.051c-0.116-0.131-0.231-0.262-0.349-0.392
		c-0.412-0.452-0.831-0.899-1.267-1.334c-0.472-0.472-0.958-0.926-1.45-1.37c-0.132-0.12-0.266-0.237-0.4-0.354
		c-0.404-0.355-0.815-0.701-1.231-1.038c-0.106-0.085-0.21-0.174-0.316-0.258c-0.516-0.408-1.042-0.802-1.575-1.182
		c-0.104-0.074-0.209-0.143-0.314-0.216c-0.444-0.309-0.894-0.608-1.35-0.896c-0.144-0.091-0.287-0.182-0.432-0.271
		c-1.113-0.685-2.258-1.311-3.434-1.875c-0.154-0.074-0.31-0.145-0.465-0.217c-0.475-0.22-0.955-0.431-1.44-0.631
		c-0.133-0.055-0.264-0.113-0.398-0.167c-0.6-0.24-1.206-0.466-1.818-0.675c-0.035-0.012-0.068-0.026-0.103-0.038l25.855-25.856
		l19.981,22.843L228.285,306.239z M319.522,350.252c-8.097,0-15.711-3.155-21.44-8.884c-6.853-6.854-10.031-16.66-8.501-26.235
		c1.007-6.334,3.946-12.09,8.501-16.644c0.596-0.596,1.213-1.165,1.848-1.705c4.446-3.779,9.809-6.158,15.65-6.923
		c1.344-0.176,2.685-0.263,4.015-0.263c7.989,0,15.609,3.133,21.367,8.89c5.729,5.729,8.884,13.344,8.884,21.44
		s-3.155,15.711-8.884,21.439S327.619,350.252,319.522,350.252z"/>
	<path class="st0" d="M319.522,300.251c-5.257,0-10.198,2.047-13.914,5.763c-3.717,3.717-5.764,8.658-5.764,13.915
		c0,5.256,2.047,10.197,5.764,13.914c3.836,3.836,8.874,5.754,13.913,5.754s10.079-1.918,13.916-5.754
		c7.671-7.673,7.671-20.156-0.001-27.828C329.72,302.298,324.778,300.251,319.522,300.251z M327.78,328.186
		c-4.555,4.555-11.963,4.552-16.516,0.001c-2.206-2.206-3.42-5.139-3.42-8.258s1.214-6.052,3.421-8.258
		c2.205-2.206,5.138-3.42,8.257-3.42s6.052,1.214,8.258,3.42C332.333,316.224,332.333,323.633,327.78,328.186z"/>
</g>
</svg>
