<?xml version="1.0" encoding="utf-8"?>
<!-- Generator: Adobe Illustrator 27.0.1, SVG Export Plug-In . SVG Version: 6.00 Build 0)  -->
<svg version="1.1" id="Layer_2" xmlns="http://www.w3.org/2000/svg" xmlns:xlink="http://www.w3.org/1999/xlink" x="0px" y="0px"
	 viewBox="0 0 512 512" style="enable-background:new 0 0 512 512;" xml:space="preserve">
<style type="text/css">
	.st0{fill:#FFFFFF;}
</style>
<g>
	<path class="st0" d="M363.224,176.854c0-7.579-6.166-13.745-13.745-13.745c-4.151,0-7.87,1.857-10.392,4.775
		c-1.8-1.281-3.993-2.042-6.366-2.042h-152.72c-2.372,0-4.566,0.762-6.366,2.042c-2.522-2.918-6.241-4.775-10.392-4.775
		c-7.578,0-13.744,6.166-13.744,13.745s6.166,13.745,13.744,13.745c4.151,0,7.87-1.857,10.392-4.775
		c1.474,1.049,3.211,1.746,5.096,1.963v173.86c0,2.209,1.791,4,4,4h36.814c0,0,0,0,0,0c0.021,0,0.043,0,0.064-0.001
		c0.118-0.002,0.228-0.028,0.343-0.04c0.145-0.015,0.292-0.021,0.432-0.05c0.125-0.027,0.241-0.074,0.361-0.112
		c0.13-0.041,0.263-0.073,0.386-0.127c0.12-0.052,0.227-0.122,0.34-0.185c0.112-0.062,0.229-0.116,0.335-0.189
		c0.108-0.074,0.201-0.165,0.301-0.249c0.096-0.081,0.198-0.155,0.286-0.244c0.09-0.092,0.164-0.197,0.246-0.298
		c0.08-0.099,0.167-0.192,0.238-0.298c0.07-0.106,0.122-0.223,0.182-0.336c0.061-0.115,0.131-0.225,0.181-0.346
		c0.049-0.118,0.076-0.244,0.114-0.367c0.039-0.128,0.087-0.252,0.113-0.385c0.024-0.125,0.026-0.256,0.039-0.384
		c0.013-0.13,0.039-0.256,0.039-0.389c0-0.012-0.003-0.023-0.003-0.035c0-0.01,0.003-0.02,0.003-0.03
		c-0.162-10.042-0.981-19.123-2.285-27.336h70.202c-1.304,8.213-2.123,17.294-2.285,27.336c0,0.01,0.003,0.02,0.003,0.03
		c0,0.012-0.003,0.023-0.003,0.035c0,0.133,0.026,0.259,0.039,0.389c0.013,0.128,0.014,0.26,0.039,0.384
		c0.026,0.133,0.073,0.256,0.112,0.384c0.038,0.124,0.066,0.251,0.115,0.369c0.05,0.121,0.119,0.23,0.18,0.344
		c0.06,0.113,0.112,0.231,0.183,0.338c0.071,0.107,0.158,0.199,0.238,0.298c0.081,0.1,0.155,0.206,0.246,0.298
		c0.088,0.09,0.19,0.163,0.286,0.244c0.1,0.084,0.193,0.174,0.301,0.249c0.105,0.072,0.222,0.126,0.334,0.188
		c0.113,0.063,0.221,0.133,0.341,0.185c0.123,0.053,0.256,0.086,0.385,0.126c0.12,0.038,0.236,0.085,0.361,0.112
		c0.14,0.03,0.287,0.036,0.432,0.05c0.115,0.012,0.225,0.038,0.343,0.04c0.021,0.001,0.043,0.001,0.064,0.001c0,0,0,0,0,0h36.812
		c2.209,0,4-1.791,4-4v-97.739c0-0.007,0.002-0.013,0.002-0.019s-0.002-0.013-0.002-0.019v-76.081
		c1.886-0.217,3.624-0.914,5.098-1.964c2.522,2.918,6.241,4.775,10.392,4.775C357.058,190.6,363.224,184.434,363.224,176.854z
		 M163.243,182.6c-3.167,0-5.744-2.577-5.744-5.745s2.577-5.745,5.744-5.745c3.168,0,5.745,2.577,5.745,5.745
		S166.411,182.6,163.243,182.6z M310.707,273.913c-1.661,0-3.013-1.351-3.013-3.012s1.352-3.013,3.013-3.013h15.281v6.024H310.707z
		 M325.988,259.889h-15.281c-0.655,0-1.293,0.068-1.916,0.178c-20.18-7.375-34.453-22.186-42.406-44.075
		c-4.265-11.74-5.511-22.553-5.874-28.125h65.477V259.889z M186.731,273.913v-6.024h15.283c1.661,0,3.013,1.352,3.013,3.013
		s-1.352,3.012-3.013,3.012H186.731z M203.931,260.067c-0.624-0.11-1.261-0.178-1.916-0.178h-15.283v-72.022h65.48
		c-0.363,5.572-1.61,16.386-5.875,28.126C238.383,237.882,224.11,252.693,203.931,260.067z M186.731,281.913h4.049
		c9.155,10.648,23.147,33.65,24.658,75.734h-28.708V281.913z M219.783,326.247c-4.266-20.187-11.547-34.459-18.789-44.334h1.021
		c6.072,0,11.013-4.939,11.013-11.012c0-1.936-0.506-3.755-1.387-5.337c19.748-8.762,34.315-24.908,42.31-47.1
		c0.934-2.594,1.729-5.134,2.411-7.59c0.682,2.456,1.476,4.995,2.41,7.589c7.995,22.193,22.563,38.339,42.31,47.102
		c-0.881,1.583-1.387,3.401-1.387,5.337c0,6.072,4.94,11.012,11.013,11.012h1.021c-7.242,9.875-14.523,24.147-18.789,44.334H219.783
		z M297.283,357.647c1.512-42.085,15.504-65.086,24.659-75.734h4.047v75.734H297.283z M332.721,179.867h-2.732H182.731h-2.73
		c-1.661,0-3.013-1.351-3.013-3.012s1.352-3.012,3.013-3.012h152.72c1.661,0,3.013,1.351,3.013,3.012
		S334.382,179.867,332.721,179.867z M349.479,182.6c-3.168,0-5.745-2.577-5.745-5.745s2.577-5.745,5.745-5.745
		s5.745,2.577,5.745,5.745S352.646,182.6,349.479,182.6z"/>
</g>
</svg>
