<?xml version="1.0" encoding="utf-8"?>
<!-- Generator: Adobe Illustrator 27.0.1, SVG Export Plug-In . SVG Version: 6.00 Build 0)  -->
<svg version="1.1" id="Layer_2" xmlns="http://www.w3.org/2000/svg" xmlns:xlink="http://www.w3.org/1999/xlink" x="0px" y="0px"
	 viewBox="0 0 512 512" style="enable-background:new 0 0 512 512;" xml:space="preserve">
<style type="text/css">
	.st0{fill:#FFFFFF;}
</style>
<g>
	<path class="st0" d="M239.66,186.41c-0.221-0.14-0.45-0.27-0.69-0.37c-0.24-0.1-0.49-0.17-0.75-0.22c-1.3-0.27-2.68,0.16-3.61,1.09
		c-0.18,0.18-0.35,0.39-0.5,0.61c-0.14,0.21-0.26,0.45-0.359,0.69c-0.101,0.24-0.181,0.49-0.23,0.75c-0.05,0.25-0.08,0.52-0.08,0.78
		c0,1.05,0.431,2.08,1.17,2.83c0.74,0.74,1.78,1.17,2.83,1.17c0.261,0,0.521-0.03,0.78-0.08c0.26-0.05,0.51-0.13,0.75-0.23
		s0.47-0.22,0.69-0.37c0.22-0.14,0.42-0.31,0.609-0.49c0.74-0.75,1.17-1.78,1.17-2.83c0-1.06-0.43-2.09-1.17-2.83
		C240.08,186.72,239.88,186.56,239.66,186.41z"/>
	<path class="st0" d="M258.22,186.41c-0.22-0.14-0.45-0.26-0.689-0.37c-0.24-0.1-0.49-0.17-0.75-0.22
		c-0.521-0.11-1.051-0.11-1.561,0c-0.26,0.05-0.51,0.12-0.75,0.22c-0.24,0.11-0.47,0.23-0.689,0.37c-0.221,0.15-0.421,0.32-0.61,0.5
		c-0.74,0.74-1.17,1.77-1.17,2.83c0,0.26,0.03,0.52,0.08,0.78c0.05,0.25,0.13,0.51,0.229,0.75c0.101,0.24,0.221,0.47,0.36,0.69
		c0.149,0.22,0.32,0.42,0.5,0.61c0.189,0.18,0.39,0.35,0.61,0.49c0.22,0.15,0.449,0.27,0.689,0.37s0.49,0.18,0.75,0.23
		c0.26,0.05,0.521,0.08,0.78,0.08s0.52-0.03,0.78-0.08c0.26-0.05,0.51-0.13,0.75-0.23c0.239-0.1,0.47-0.22,0.689-0.37
		c0.22-0.14,0.42-0.31,0.61-0.49c0.18-0.19,0.35-0.39,0.5-0.61c0.14-0.22,0.26-0.45,0.359-0.69c0.101-0.24,0.181-0.5,0.23-0.75
		c0.05-0.26,0.08-0.52,0.08-0.78c0-1.06-0.431-2.09-1.17-2.83C258.64,186.73,258.439,186.56,258.22,186.41z"/>
	<path class="st0" d="M278.25,188.21c-0.101-0.24-0.22-0.48-0.37-0.69c-0.14-0.22-0.311-0.43-0.49-0.61
		c-0.189-0.18-0.39-0.35-0.609-0.5c-0.221-0.14-0.45-0.26-0.69-0.37c-0.24-0.09-0.49-0.17-0.75-0.22c-0.521-0.11-1.05-0.11-1.56,0
		c-0.261,0.05-0.511,0.13-0.75,0.22c-0.24,0.11-0.471,0.23-0.69,0.37c-0.22,0.15-0.43,0.32-0.61,0.5c-0.18,0.18-0.35,0.39-0.5,0.61
		c-0.14,0.21-0.26,0.45-0.359,0.69c-0.101,0.24-0.181,0.49-0.23,0.75c-0.05,0.25-0.08,0.52-0.08,0.78c0,0.26,0.03,0.52,0.08,0.78
		c0.05,0.25,0.13,0.51,0.23,0.75c0.1,0.24,0.22,0.47,0.359,0.69c0.15,0.22,0.32,0.42,0.5,0.61c0.181,0.18,0.391,0.35,0.61,0.49
		c0.22,0.15,0.45,0.27,0.69,0.37c0.239,0.1,0.489,0.18,0.75,0.23c0.25,0.05,0.52,0.08,0.779,0.08s0.521-0.03,0.78-0.08
		c0.26-0.05,0.51-0.13,0.75-0.23s0.47-0.22,0.69-0.37c0.22-0.14,0.42-0.31,0.609-0.49c0.18-0.19,0.351-0.39,0.49-0.61
		c0.15-0.22,0.27-0.45,0.37-0.69c0.1-0.24,0.18-0.49,0.229-0.75c0.051-0.26,0.08-0.52,0.08-0.78c0-0.26-0.029-0.53-0.08-0.78
		C278.43,188.7,278.35,188.45,278.25,188.21z"/>
	<path class="st0" d="M340.464,166.915H171.536c-5.495,0-9.965,4.47-9.965,9.965v25.717c0,5.495,4.47,9.965,9.965,9.965h11.359
		v103.492c-11.887,0.771-21.324,10.681-21.324,22.76v2.272c0,2.209,1.791,4,4,4h180.857c2.209,0,4-1.791,4-4v-2.272
		c0-12.079-9.437-21.989-21.324-22.76V212.562h11.359c5.495,0,9.965-4.47,9.965-9.965v-25.717
		C350.429,171.385,345.959,166.915,340.464,166.915z M342.328,337.085H169.672c0.858-7.357,7.129-13.086,14.713-13.086h2.511h23.692
		h90.824h23.692h2.511C335.199,324,341.47,329.728,342.328,337.085z M244.6,282.602v-16.435H267.4v2.388v14.047
		c0,6.287-5.114,11.401-11.4,11.401S244.6,288.889,244.6,282.602z M275.4,272.555h1.34c2.192,0,3.976,1.784,3.976,3.976
		s-1.783,3.976-3.976,3.976h-1.34V272.555z M287.43,302.003c5.504,0,9.982,4.478,9.982,9.982V316h-82.824v-4.015
		c0-5.504,4.479-9.982,9.982-9.982H287.43z M321.104,316h-15.692v-4.015c0-9.915-8.066-17.982-17.982-17.982h-15.767
		c1.209-1.657,2.173-3.502,2.812-5.496h2.266c6.604,0,11.976-5.373,11.976-11.976s-5.372-11.976-11.976-11.976h-1.34v-2.388
		c0-2.209-1.791-4-4-4H240.6c-2.209,0-4,1.791-4,4v20.435c0,4.263,1.398,8.196,3.738,11.401H224.57
		c-9.916,0-17.982,8.067-17.982,17.982V316h-15.692V212.562H236.6v9.625c0,3.05,1.776,5.687,4.344,6.951v3.16
		c0,6.755,5.495,12.25,12.25,12.25h5.613c6.755,0,12.25-5.495,12.25-12.25v-2.361h13.659c2.209,0,4-1.791,4-4s-1.791-4-4-4H275.4
		v-9.375h45.704V316z M248.943,229.936h14.113v2.361c0,2.343-1.906,4.25-4.25,4.25h-5.613c-2.344,0-4.25-1.907-4.25-4.25V229.936z
		 M267.4,221.936h-0.344h-22.113H244.6v-9.375H267.4V221.936z M342.429,202.597c0,1.083-0.882,1.965-1.965,1.965h-15.359H271.4
		H240.6h-53.704h-15.359c-1.083,0-1.965-0.881-1.965-1.965v-25.717c0-1.083,0.882-1.965,1.965-1.965h168.928
		c1.083,0,1.965,0.881,1.965,1.965V202.597z"/>
	<path class="st0" d="M203.875,180.555h-21.62c-2.209,0-4,1.791-4,4s1.791,4,4,4h21.62c2.209,0,4-1.791,4-4
		S206.084,180.555,203.875,180.555z"/>
	<path class="st0" d="M203.875,190.921h-21.62c-2.209,0-4,1.791-4,4s1.791,4,4,4h21.62c2.209,0,4-1.791,4-4
		S206.084,190.921,203.875,190.921z"/>
	<path class="st0" d="M329.745,180.555h-21.62c-2.209,0-4,1.791-4,4s1.791,4,4,4h21.62c2.209,0,4-1.791,4-4
		S331.954,180.555,329.745,180.555z"/>
	<path class="st0" d="M329.745,190.921h-21.62c-2.209,0-4,1.791-4,4s1.791,4,4,4h21.62c2.209,0,4-1.791,4-4
		S331.954,190.921,329.745,190.921z"/>
</g>
</svg>
