<?xml version="1.0" encoding="utf-8"?>
<!-- Generator: Adobe Illustrator 27.0.1, SVG Export Plug-In . SVG Version: 6.00 Build 0)  -->
<svg version="1.1" id="Layer_2" xmlns="http://www.w3.org/2000/svg" xmlns:xlink="http://www.w3.org/1999/xlink" x="0px" y="0px"
	 viewBox="0 0 512 512" style="enable-background:new 0 0 512 512;" xml:space="preserve">
<style type="text/css">
	.st0{fill:#FFFFFF;}
</style>
<g>
	<path class="st0" d="M317.21,232.55c-0.1-0.24-0.22-0.47-0.37-0.69c-0.14-0.22-0.31-0.42-0.5-0.609c-0.18-0.181-0.38-0.351-0.6-0.5
		c-0.22-0.141-0.45-0.26-0.69-0.36c-0.25-0.1-0.5-0.18-0.75-0.229c-0.52-0.11-1.05-0.11-1.57,0c-0.25,0.05-0.5,0.13-0.74,0.229
		c-0.25,0.101-0.48,0.22-0.69,0.36c-0.22,0.149-0.43,0.319-0.61,0.5c-0.19,0.189-0.35,0.39-0.5,0.609
		c-0.14,0.221-0.27,0.45-0.37,0.69s-0.17,0.49-0.22,0.75c-0.06,0.26-0.08,0.52-0.08,0.78c0,0.26,0.02,0.52,0.08,0.779
		c0.05,0.261,0.12,0.511,0.22,0.75c0.1,0.24,0.23,0.471,0.37,0.69c0.15,0.22,0.31,0.42,0.5,0.61c0.18,0.18,0.39,0.35,0.61,0.5
		c0.21,0.14,0.44,0.26,0.69,0.359c0.24,0.101,0.49,0.181,0.74,0.23c0.26,0.06,0.53,0.08,0.79,0.08c0.26,0,0.52-0.021,0.78-0.08
		c0.25-0.05,0.5-0.13,0.75-0.23c0.24-0.1,0.47-0.22,0.69-0.359c0.22-0.15,0.42-0.32,0.6-0.5c0.19-0.19,0.36-0.391,0.5-0.61
		c0.15-0.22,0.27-0.45,0.37-0.69c0.1-0.239,0.18-0.489,0.23-0.75c0.05-0.26,0.08-0.52,0.08-0.779c0-0.261-0.03-0.521-0.08-0.78
		C317.39,233.04,317.31,232.79,317.21,232.55z"/>
	<path class="st0" d="M339.615,174.216l-25.329-25.33c-0.75-0.75-1.768-1.172-2.829-1.172s-2.078,0.422-2.829,1.172l-85.681,85.681
		c-0.009,0.009-0.015,0.02-0.024,0.029l-66.002,66.002c-1.562,1.562-1.562,4.095,0,5.656l16.898,16.898
		c0.75,0.75,1.768,1.172,2.829,1.172s2.078-0.422,2.829-1.172l66.031-66.031c0.705-0.705,1.075-1.609,1.143-2.531
		c5.265-3.543,12.485-2.994,17.136,1.658c4.653,4.653,5.202,11.873,1.658,17.138c-0.951,0.072-1.852,0.464-2.531,1.142
		l-66.031,66.031c-1.562,1.562-1.562,4.095,0,5.656l16.898,16.898c0.75,0.75,1.768,1.172,2.829,1.172s2.078-0.422,2.829-1.172
		l66.002-66.002c0.009-0.009,0.02-0.015,0.029-0.024l14.087-14.087l5.842,5.842c6.806,6.805,17.878,6.805,24.684,0l9.896-9.896
		c1.144-1.144,1.486-2.864,0.867-4.359c-0.619-1.494-2.078-2.469-3.695-2.469h-13.884c-2.125,0-4.119-0.824-5.615-2.32l-2.445-2.445
		l18.374-18.374l19.132-2.228c2.016-0.234,3.537-1.942,3.537-3.973v-17.396c0-2.011-1.493-3.71-3.488-3.967l-0.612-0.079
		C356.682,204.65,352.016,186.616,339.615,174.216z M228.573,262.743l-11.241-11.241l8.448-8.448l11.241,11.241L228.573,262.743z
		 M176.649,314.667l-11.241-11.241l46.268-46.267l11.241,11.241L176.649,314.667z M268.535,302.705l-11.241-11.241l8.448-8.448
		l11.242,11.241L268.535,302.705z M216.611,354.629l-11.241-11.241l46.267-46.267l11.241,11.241L216.611,354.629z M306.721,264.524
		c-0.75,0.75-1.171,1.768-1.171,2.828s0.421,2.078,1.172,2.828l5.273,5.273c3.008,3.008,7.011,4.664,11.272,4.664h4.228
		l-3.067,3.068c-3.687,3.686-9.684,3.686-13.37,0l-8.67-8.671c-0.75-0.75-1.768-1.172-2.829-1.172s-2.078,0.422-2.829,1.172
		l-14.085,14.085l-10.632-10.632c5.723-8.384,4.867-19.943-2.567-27.377c-7.434-7.436-18.992-8.292-27.377-2.568l-10.632-10.632
		l80.021-80.021l22.501,22.501c10.623,10.623,14.451,26.195,10.166,40.428l-30.096-3.887c-0.34-0.045-0.685-0.045-1.024,0
		l-38.733,5.002c-1.995,0.257-3.488,1.956-3.488,3.967v17.396c0,2.03,1.521,3.738,3.537,3.973l38.733,4.511
		c0.154,0.019,0.309,0.027,0.463,0.027s0.309-0.009,0.463-0.027l6.796-0.792L306.721,264.524z M348.249,239.217l-34.733,4.045
		l-34.733-4.045v-10.318l34.733-4.485l32.426,4.188c0.27,0.063,0.539,0.098,0.808,0.104l1.499,0.194V239.217z"/>
	<path class="st0" d="M311.337,204.176c3.973,0,7.708-1.547,10.517-4.356c2.809-2.809,4.356-6.544,4.356-10.516
		c0-3.973-1.547-7.708-4.356-10.517c-2.809-2.81-6.543-4.356-10.517-4.356c-3.973,0-7.708,1.547-10.517,4.356
		c-5.798,5.799-5.798,15.233,0,21.032C303.629,202.629,307.364,204.176,311.337,204.176z M306.478,184.443
		c1.298-1.298,3.024-2.013,4.859-2.013c1.836,0,3.562,0.715,4.859,2.013c2.68,2.68,2.68,7.04,0,9.72
		c-1.298,1.298-3.023,2.013-4.859,2.013c-1.835,0-3.562-0.715-4.859-2.013C303.798,191.483,303.798,187.123,306.478,184.443z"/>
</g>
</svg>
