<?xml version="1.0" encoding="utf-8"?>
<!-- Generator: Adobe Illustrator 27.0.1, SVG Export Plug-In . SVG Version: 6.00 Build 0)  -->
<svg version="1.1" id="Layer_2" xmlns="http://www.w3.org/2000/svg" xmlns:xlink="http://www.w3.org/1999/xlink" x="0px" y="0px"
	 viewBox="0 0 512 512" style="enable-background:new 0 0 512 512;" xml:space="preserve">
<style type="text/css">
	.st0{fill:#FFFFFF;}
</style>
<g>
	<path class="st0" d="M256,322.299c17.264,0,31.31-14.045,31.31-31.31V190.735c0-8.246-3.217-16.082-9.093-22.099
		c-5.938-5.94-13.829-9.211-22.217-9.211c-17.264,0-31.31,14.045-31.31,31.31v100.254c0,3.651,0.635,7.156,1.789,10.417
		c0.047,0.15,0.092,0.301,0.156,0.443C231.06,313.776,242.553,322.299,256,322.299z M256,167.425c6.251,0,12.132,2.439,16.526,6.834
		c4.374,4.48,6.783,10.331,6.783,16.476v100.254c0,12.853-10.457,23.31-23.31,23.31c-7.945,0-14.971-3.999-19.181-10.087h11.26
		c2.209,0,4-1.791,4-4s-1.791-4-4-4h-14.791c-0.334-1.451-0.531-2.952-0.579-4.492h6.469c2.209,0,4-1.791,4-4s-1.791-4-4-4h-6.487
		v-4.444h15.389c2.209,0,4-1.791,4-4s-1.791-4-4-4H232.69v-4.492h6.487c2.209,0,4-1.791,4-4s-1.791-4-4-4h-6.487v-4.444h15.389
		c2.209,0,4-1.791,4-4s-1.791-4-4-4H232.69v-4.492h6.487c2.209,0,4-1.791,4-4s-1.791-4-4-4h-6.487v-4.444h15.389
		c2.209,0,4-1.791,4-4s-1.791-4-4-4H232.69v-4.492h6.487c2.209,0,4-1.791,4-4s-1.791-4-4-4h-6.487v-4.444h15.389
		c2.209,0,4-1.791,4-4s-1.791-4-4-4H232.69v-5.733C232.69,177.882,243.147,167.425,256,167.425z"/>
	<path class="st0" d="M242.816,367.369c3.838,2.843,8.397,4.345,13.184,4.345s9.346-1.502,13.181-4.343
		c5.636-4.166,9-10.834,9-17.838v-13.242c17.255-8.463,28.266-25.958,28.266-45.299V190.732c0-13.262-5.147-25.845-14.533-35.471
		l-0.16-0.16c-9.563-9.554-22.261-14.815-35.753-14.815c-27.816,0-50.446,22.63-50.446,50.446v100.261
		c0,19.341,11.01,36.835,28.266,45.299v13.242C233.819,356.537,237.184,363.206,242.816,367.369z M270.181,349.534
		c0,4.544-2.098,8.701-5.759,11.407c-2.45,1.815-5.362,2.774-8.422,2.774s-5.972-0.959-8.425-2.776
		c-3.658-2.704-5.756-6.86-5.756-11.404v-10.12c0.481,0.141,0.965,0.271,1.45,0.397c0.073,0.019,0.145,0.041,0.218,0.06
		c0.724,0.186,1.453,0.35,2.185,0.503c0.198,0.042,0.397,0.079,0.595,0.118c0.587,0.115,1.177,0.22,1.768,0.314
		c0.175,0.028,0.349,0.058,0.523,0.084c0.738,0.109,1.479,0.203,2.223,0.28c0.156,0.016,0.312,0.027,0.467,0.041
		c0.612,0.057,1.226,0.103,1.841,0.138c0.21,0.012,0.42,0.024,0.63,0.033c0.758,0.034,1.517,0.057,2.28,0.057
		s1.522-0.023,2.28-0.057c0.21-0.009,0.42-0.021,0.63-0.033c0.616-0.035,1.229-0.081,1.841-0.138
		c0.156-0.014,0.312-0.025,0.468-0.041c0.744-0.077,1.484-0.17,2.222-0.279c0.175-0.026,0.35-0.057,0.525-0.085
		c0.591-0.094,1.181-0.199,1.768-0.314c0.198-0.039,0.397-0.077,0.595-0.118c0.731-0.153,1.46-0.317,2.184-0.503
		c0.075-0.019,0.149-0.042,0.224-0.062c0.483-0.126,0.965-0.255,1.444-0.396V349.534z M213.554,290.993V190.732
		c0-23.405,19.041-42.446,42.446-42.446c11.356,0,22.046,4.43,30.102,12.478l0.123,0.123c7.882,8.083,12.222,18.683,12.222,29.846
		v100.261c0,17.028-10.142,32.361-25.835,39.064c-5.264,2.244-10.853,3.382-16.611,3.382c-2.432,0-4.832-0.215-7.192-0.619
		c-1.83-0.313-3.638-0.734-5.412-1.288c-1.354-0.422-2.69-0.914-4.005-1.475C223.695,323.354,213.554,308.021,213.554,290.993z"/>
</g>
</svg>
