<?xml version="1.0" encoding="utf-8"?>
<!-- Generator: Adobe Illustrator 27.0.1, SVG Export Plug-In . SVG Version: 6.00 Build 0)  -->
<svg version="1.1" id="Layer_2" xmlns="http://www.w3.org/2000/svg" xmlns:xlink="http://www.w3.org/1999/xlink" x="0px" y="0px"
	 viewBox="0 0 512 512" style="enable-background:new 0 0 512 512;" xml:space="preserve">
<style type="text/css">
	.st0{fill:#FFFFFF;}
</style>
<g>
	<path class="st0" d="M180.095,175.492v142.46c0,10.617,8.637,19.254,19.254,19.254h2.05v5.278c0,7.321,5.957,13.278,13.278,13.278
		c7.321,0,13.278-5.957,13.278-13.278v-5.278h56.089v5.278c0,7.321,5.957,13.278,13.278,13.278c7.322,0,13.278-5.957,13.278-13.278
		v-5.278h2.05c10.617,0,19.254-8.638,19.254-19.254v-142.46c0-10.617-8.637-19.254-19.254-19.254H199.349
		C188.732,156.237,180.095,164.875,180.095,175.492z M219.956,342.485c0,2.91-2.368,5.278-5.278,5.278
		c-2.911,0-5.278-2.368-5.278-5.278v-5.278h10.556V342.485z M302.601,342.485c0,2.91-2.368,5.278-5.278,5.278
		c-2.91,0-5.278-2.368-5.278-5.278v-5.278h10.556V342.485z M312.651,329.207h-6.05h-18.556h-64.089h-18.556h-6.05
		c-6.206,0-11.254-5.049-11.254-11.254V205.988h135.81v111.964C323.905,324.158,318.856,329.207,312.651,329.207z M323.905,175.492
		v22.497h-92.733v-33.751h81.479C318.856,164.237,323.905,169.286,323.905,175.492z M199.349,164.237h23.823v33.751h-35.077v-22.497
		C188.095,169.286,193.144,164.237,199.349,164.237z"/>
	<path class="st0" d="M256,233.257c-22.852,0-41.443,18.591-41.443,41.443s18.591,41.444,41.443,41.444s41.443-18.592,41.443-41.444
		S278.852,233.257,256,233.257z M256,308.144c-18.441,0-33.443-15.003-33.443-33.444s15.002-33.443,33.443-33.443
		s33.443,15.002,33.443,33.443S274.441,308.144,256,308.144z"/>
	<path class="st0" d="M205.616,194.162c7.195,0,13.049-5.854,13.049-13.049s-5.854-13.049-13.049-13.049
		s-13.049,5.854-13.049,13.049S198.421,194.162,205.616,194.162z M205.616,176.064c2.784,0,5.049,2.265,5.049,5.049
		s-2.265,5.049-5.049,5.049s-5.049-2.265-5.049-5.049S202.832,176.064,205.616,176.064z"/>
	<path class="st0" d="M296.106,185.113h12.735c2.209,0,4-1.791,4-4s-1.791-4-4-4h-12.735c-2.209,0-4,1.791-4,4
		S293.897,185.113,296.106,185.113z"/>
	<path class="st0" d="M215.984,228.354c0-2.209-1.791-4-4-4h-12.736c-2.209,0-4,1.791-4,4s1.791,4,4,4h12.736
		C214.193,232.354,215.984,230.563,215.984,228.354z"/>
</g>
</svg>
