<?xml version="1.0" encoding="utf-8"?>
<!-- Generator: Adobe Illustrator 26.3.1, SVG Export Plug-In . SVG Version: 6.00 Build 0)  -->
<svg version="1.1" id="Layer_2_1_" xmlns="http://www.w3.org/2000/svg" xmlns:xlink="http://www.w3.org/1999/xlink" x="0px" y="0px"
	 viewBox="0 0 512 512" style="enable-background:new 0 0 512 512;" xml:space="preserve">
<style type="text/css">
	.st0{clip-path:url(#SVGID_00000095338431846135282400000002891885709677337243_);}
	.st1{fill:#FFFFFF;}
</style>
<g>
	<defs>
		<rect id="SVGID_1_" x="137.7" y="95.1" width="241" height="322.4"/>
	</defs>
	<clipPath id="SVGID_00000047782506193971953350000018006871080263108278_">
		<use xlink:href="#SVGID_1_"  style="overflow:visible;"/>
	</clipPath>
	<g style="clip-path:url(#SVGID_00000047782506193971953350000018006871080263108278_);">
		<path class="st1" d="M296.8,212.5c1.7-3,3.2-5.7,4.7-8.4c3.1-5.5,6-11.2,9.5-16.5c3.9-5.8,9.3-9.6,16.5-10.6
			c6.4-0.8,10.3,2.3,10.2,8.8c-0.1,18.6,5.4,35.4,15.7,50.9c5.4,8,10.6,16.1,15.1,24.6c8.6,16.3,11.3,34.1,9.8,52.3
			c-3.9,46.3-27.8,78.5-70.6,96.6c-11.8,5-24.3,7.2-37.1,7.2c-11.1,0-22.3,0.7-33.2-0.6c-45-5.5-76.4-29.6-92.5-71.8
			c-12.8-33.4-8.3-65.8,11.2-95.7c8.5-13.2,18.4-25.6,27.7-38.3c6.8-9.3,13.4-18.8,18.2-29.4c8.7-19,9.4-38.5,3.9-58.4
			c-1.5-5.5-3.4-10.9-5.3-16.3c-2.4-6.9,0.9-11.8,8.3-11.6c17.3,0.5,31.9,7.5,44.7,18.8c15.6,13.8,25.6,31.2,32.8,50.4
			c5.5,14.8,8.6,30.1,9.8,45.8c0,0.6,0.1,1.1,0.2,1.6C296.3,211.9,296.4,212,296.8,212.5z M322.4,197.3c-2.2,4-4.2,8-6.3,11.8
			c-2.6,4.6-5.1,9.4-8.2,13.8c-4.1,5.9-9.7,9.6-17.1,10.3c-5.6,0.5-9.4-2.8-9.4-8.4c0-11.2-1.1-22.3-3.3-33.3
			c-4-19.8-11.1-38.3-23.5-54.4c-8.2-10.6-18-19.1-30.8-23.7c-1.6-0.6-3.1-1-5-1.6c1,3.8,1.9,7,2.7,10.4c5.3,22.3,4.1,44.1-5.4,65.2
			c-5.7,12.8-13.7,24.1-22,35.3c-8.2,11.1-16.6,21.9-24.3,33.4c-11.6,17.3-17.9,36.5-16,57.6c3.5,38.4,23.5,65.1,58.4,81
			c0.6,0.3,1.4,0.5,2.5,0.9c-0.6-1-0.9-1.4-1.1-1.8c-8.4-11.7-13.1-24.8-13.7-39c-1.6-38.1,14.5-66.7,47.7-85.5
			c12.6-7.1,26.5-10.2,40.9-10.3c5.8,0,9.3,4.5,7.8,10.1c-0.6,2.2-1.3,4.2-1.9,6.4c-2.2,8.2-3.8,16.5-3.2,25.1
			c0.7,9.7,5,17.9,10.2,25.9c3.5,5.3,7,10.6,9.8,16.3c6.2,12.8,8.2,26.2,3.6,40c-1,3-2.6,5.8-3.9,8.7c0.1,0,0.3,0.1,0.4,0
			c0.8-0.4,1.5-0.7,2.2-1.1c28.5-16.3,45.4-40.6,49.3-73.3c1.9-16,0.3-31.7-6.8-46.4c-4.2-8.7-9.7-16.8-14.9-25
			c-5.5-8.7-10.8-17.5-13.7-27.4C325.4,211.6,324.1,204.6,322.4,197.3z M278.4,275.3c-1,0.1-2,0.2-2.9,0.4
			c-41.5,7.9-67.8,47.6-58.8,88.8c2.4,11.1,7.5,20.8,16.3,28.3c10.2,8.7,22.1,10.6,34.9,8.7c8.4-1.3,16.3-4.1,22.9-9.6
			c8.5-7.1,12.1-16.2,11-27.3c-0.7-7.7-3.4-14.7-7.5-21.1c-2.9-4.6-5.9-9.1-8.8-13.7c-7.6-12.1-10.7-25.2-9.2-39.4
			C276.7,285.4,277.6,280.5,278.4,275.3z"/>
	</g>
</g>
</svg>
