<?xml version="1.0" encoding="utf-8"?>
<!-- Generator: Adobe Illustrator 26.3.1, SVG Export Plug-In . SVG Version: 6.00 Build 0)  -->
<svg version="1.1" id="Layer_2_1_" xmlns="http://www.w3.org/2000/svg" xmlns:xlink="http://www.w3.org/1999/xlink" x="0px" y="0px"
	 viewBox="0 0 512 512" style="enable-background:new 0 0 512 512;" xml:space="preserve">
<style type="text/css">
	.st0{clip-path:url(#SVGID_00000149355230183931943580000012439948878406227615_);}
	.st1{fill:#FFFFFF;}
</style>
<g>
	<defs>
		<rect id="SVGID_1_" x="135.5" y="99.2" width="241" height="313.6"/>
	</defs>
	<clipPath id="SVGID_00000080926023943666497410000017755231387699494020_">
		<use xlink:href="#SVGID_1_"  style="overflow:visible;"/>
	</clipPath>
	<g style="clip-path:url(#SVGID_00000080926023943666497410000017755231387699494020_);">
		<path class="st1" d="M376.5,412.8c-80.4,0-160.6,0-241,0c0-104.5,0-209,0-313.6c80.3,0,160.6,0,241,0
			C376.5,203.7,376.5,308.1,376.5,412.8z M147.5,400.7c72.4,0,144.7,0,217,0c0-76.5,0-152.7,0-229c-72.4,0-144.7,0-217,0
			C147.5,248.1,147.5,324.3,147.5,400.7z M364.5,159.2c0-16.1,0-32,0-48c-72.4,0-144.7,0-217,0c0,16.1,0,32,0,48
			C219.9,159.2,292.2,159.2,364.5,159.2z"/>
		<path class="st1" d="M256,195.6c46.6,0,84.4,37.8,84.4,84.5c0,46.6-37.8,84.6-84.4,84.6c-46.6,0-84.4-37.9-84.4-84.5
			C171.6,233.4,209.3,195.6,256,195.6z M255.9,352.5c39.9,0.1,72.5-32.4,72.5-72.4c0-39.9-32.3-72.3-72.1-72.4
			c-40.2-0.1-72.7,32.2-72.8,72.3C183.5,320,215.9,352.5,255.9,352.5z"/>
		<path class="st1" d="M231.8,123.2c6.7,0,12.1,5.4,12.1,12c0.1,6.7-5.5,12.1-12.2,12.1c-6.6-0.1-12-5.5-12-12.1
			C219.8,128.5,225.2,123.2,231.8,123.2z"/>
		<path class="st1" d="M280,147.2c-6.6-0.1-12-5.5-12-12.1c0.1-6.7,5.6-12.1,12.3-12c6.7,0.1,11.9,5.6,11.8,12.2
			C292.1,142,286.7,147.3,280,147.2z"/>
		<path class="st1" d="M328.5,123.2c6.7,0,12,5.3,12,12c0,6.8-5.4,12.1-12.2,12.1c-6.7-0.1-11.9-5.5-11.8-12.1
			C316.5,128.4,321.8,123.2,328.5,123.2z"/>
		<path class="st1" d="M195.6,135.3c-0.1,6.7-5.4,12-12,12c-6.8,0-12.1-5.4-12-12.2c0.1-6.7,5.5-11.9,12.2-11.8
			C190.4,123.3,195.6,128.6,195.6,135.3z"/>
		<path class="st1" d="M207.8,279.9c0.1-26.5,21.7-48.1,48.3-48c26.8,0.1,48.3,21.8,48.2,48.7c-0.1,26.5-21.9,48-48.4,47.9
			C229.1,328.3,207.7,306.6,207.8,279.9z M256.1,243.9c-20-0.1-36.2,16-36.4,35.9c-0.1,20.1,16,36.4,36.1,36.5
			c20,0.1,36.4-16.2,36.4-36.3C292.2,260.2,276.1,244,256.1,243.9z"/>
	</g>
</g>
</svg>
