<?xml version="1.0" encoding="utf-8"?>
<!-- Generator: Adobe Illustrator 26.3.1, SVG Export Plug-In . SVG Version: 6.00 Build 0)  -->
<svg version="1.1" id="Layer_2_1_" xmlns="http://www.w3.org/2000/svg" xmlns:xlink="http://www.w3.org/1999/xlink" x="0px" y="0px"
	 viewBox="0 0 512 512" style="enable-background:new 0 0 512 512;" xml:space="preserve">
<style type="text/css">
	.st0{fill:#FFFFFF;}
</style>
<path class="st0" d="M376.5,175.1c0,54.4,0,108.8,0,162.8c-80.2,0-160.8,0-241,0c0-54,0-108.4,0-162.8
	C215.7,175.1,295.9,175.1,376.5,175.1z M142.9,330.3c58,0,115.6,0,173.2,0c0-49.3,0-98.6,0-147.5c-58,0-115.6,0-173.2,0
	C142.9,232,142.9,281,142.9,330.3z M323.8,182.7c0,49.3,0,98.2,0,147.5c15.2,0,30,0,44.9,0c0-49.3,0-98.2,0-147.5
	C353.9,182.7,339,182.7,323.8,182.7z"/>
<path class="st0" d="M229.5,314.9c-17.3,0-34.6,0-51.9,0c-9.2,0-16.6-5.8-18.7-15c-0.4-1.5-0.7-3.3-0.7-4.7c0-25.6,0-51.5,0-77
	c0-11.3,8.1-19.7,19.1-19.7c35,0,70,0,105,0c11,0,19.1,8.4,19.1,19.4c0,25.9,0,51.8,0,77.4c0,11.3-8.1,19.7-19.4,19.7
	C264.5,314.9,246.8,314.9,229.5,314.9z M229.5,307.2c17.3,0,34.6,0,51.9,0c7.4,0,12-4.7,12-12.4c0-25.2,0-50.8,0-75.9
	c0-7.7-4.6-12.8-12.4-12.8c-34.6,0-69.3,0-103.5,0c-7.4,0-12.4,4.7-12.4,12.8c0,25.2,0,50.4,0,75.9c0,7.7,4.6,12.8,12,12.8
	C194.9,307.2,212.2,307.2,229.5,307.2z"/>
<path class="st0" d="M361.3,206.1c0,8.8-6.7,15.7-15.2,15.7c-8.1,0-14.8-6.9-15.2-15.7c0-8.8,6.7-15.7,15.2-15.7
	C354.9,190.4,361.3,197.4,361.3,206.1z M346.5,198.4c-4.2,0-7.4,3.3-7.4,7.7c0,4.4,3.5,7.7,7.8,7.7s7.4-3.7,7.4-7.7
	C353.9,201.7,350.7,198.4,346.5,198.4z"/>
<path class="st0" d="M353.9,291.5c0,4.4-3.5,7.7-7.4,7.7c-4.2,0-7.4-3.7-7.4-7.7c0-4.4,3.5-8,7.8-8
	C350.7,283.9,353.9,287.5,353.9,291.5z"/>
<path class="st0" d="M353.9,260.5c0,4.4-3.5,7.7-7.4,7.7c-4.2,0-7.4-3.7-7.4-7.7c0-4.4,3.5-7.7,7.8-7.7
	C350.7,252.8,353.9,256.1,353.9,260.5z"/>
</svg>
