<?xml version="1.0" encoding="utf-8"?>
<!-- Generator: Adobe Illustrator 26.3.1, SVG Export Plug-In . SVG Version: 6.00 Build 0)  -->
<svg version="1.1" id="Layer_2_1_" xmlns="http://www.w3.org/2000/svg" xmlns:xlink="http://www.w3.org/1999/xlink" x="0px" y="0px"
	 viewBox="0 0 512 512" style="enable-background:new 0 0 512 512;" xml:space="preserve">
<style type="text/css">
	.st0{clip-path:url(#SVGID_00000008862404745332346870000007510214145035280285_);}
	.st1{fill:#FFFFFF;}
</style>
<g>
	<defs>
		<rect id="SVGID_1_" x="135.5" y="148.8" width="241" height="215.6"/>
	</defs>
	<clipPath id="SVGID_00000036242888891749995480000007087238085502882486_">
		<use xlink:href="#SVGID_1_"  style="overflow:visible;"/>
	</clipPath>
	<g style="clip-path:url(#SVGID_00000036242888891749995480000007087238085502882486_);">
		<path class="st1" d="M256.2,364.4c-18,0-36.1-2.3-53.4-8.3c-11.4-4.1-22.1-9.4-30.9-18.4c-8.8-9-13.2-19.1-11.8-32.3
			c1.5-10.5,6.6-19.1,14.7-25.5c3.3-2.6,4.8-5.2,4.4-9.8c-0.4-6.7,2.9-12,7.4-16.5c7-7.5,15.8-11.6,25-15c16.2-5.6,33.1-7.5,50-6.8
			c14,0.4,28,2.6,41.2,7.9c7.4,2.6,14.3,6.4,20.2,11.6c6.6,6,10.7,13.1,9.9,22.1c0,2.3,0.4,3.4,2.2,4.9c8.1,6.4,14.3,14.3,16.2,24.8
			c2.9,13.9-1.8,25.1-11.4,34.9c-9.6,9.8-21.3,15-33.9,19.1C290,362.5,273.1,364.4,256.2,364.4z M256.2,301.4
			c6.3-0.4,12.1-0.7,18.4-1.5c11.8-1.5,23.2-4.1,33.5-9.8c5.2-2.6,9.6-6,12.9-10.5c3.7-5.2,3.7-10.5,0-15.8
			c-1.5-1.9-3.3-3.8-5.2-5.2c-5.9-4.9-12.5-7.9-19.5-10.1c-20.6-6.8-41.6-7.5-62.5-4.1c-11,1.9-21.7,4.5-31.6,10.5
			c-3.7,2.3-7.4,5.2-10.3,8.6c-4.8,5.2-4.4,11.3-0.4,16.9c1.5,1.9,2.9,3.4,4.8,4.9c4.8,4.1,10.3,6.8,16.2,9
			C226.4,299.2,241.1,301,256.2,301.4z M333.5,290.2c-0.4,0-0.4,0-0.7,0.4c0,3.4,0,6.7,0,9.8c0,5.2-1.5,10.1-4.8,14.6
			c-4.8,6.4-11,10.9-18,14.3c-11.8,5.6-24.3,8.6-37.2,10.1c-19.9,2.3-39.4,0.8-58.9-4.9c-9.6-3-18.4-7.1-26.1-13.9
			c-6.3-5.6-9.9-12.8-9.6-21.8c0-2.2,0-4.5,0-6.7c0-0.4,0-1.1-0.4-1.9c-5.5,6-9.2,13.5-8.5,22.9c0.7,7.5,4.4,13.9,9.6,18.8
			c5.9,5.6,12.9,9.8,20.2,13.1c14.7,6.4,30.2,9,45.6,9.8c18.8,1.1,37.5,0,55.9-5.6c11.4-3.4,22.1-7.9,30.9-15.8
			c7.7-7.1,12.5-15.4,11-26.6C341.5,300.3,338.2,294.7,333.5,290.2z M241.5,329.9c9.9,0.7,19.1,1.1,28.7,0c0-6.8,0-13.1,0-19.5
			c-4.8,0.4-9.6,0.4-14.3,0.4c-4.8,0-9.6-0.4-14.3-0.4C241.5,316.8,241.5,323.2,241.5,329.9z M304.4,302.9
			c-7.7,1.9-15.5,3.8-23.2,5.6c-1.5,0.4-1.1,1.1-1.1,2.3c0,5.2,0,10.9,0,16.1c0,0.4,0,1.1,0.4,1.9c8.1-1.5,15.5-3.4,22.8-6.8
			c0.4-0.4,1.1-1.1,1.1-1.5C304.4,314.2,304.4,308.5,304.4,302.9z M212.4,304c0,6,0,12,0,18c0,0.4,1.1,1.5,1.5,1.5
			c4,1.1,8.1,2.3,12.1,3.4c1.8,0.4,3.7,0.8,5.5,1.1c0-5.2,0-10.5,0-15.4c0-4.5,0-4.5-4-5.3c-0.7,0-1.8-0.4-2.6-0.7
			C221.2,306.3,216.8,305.2,212.4,304z M203.2,318.7c0-6,0-11.6,0-17.6c0-0.4-0.7-1.1-1.5-1.5c-3.3-2.3-7-4.1-10.3-6.4
			c-1.1-0.8-1.8-1.5-2.6-2.3C187,304.8,191.4,313.4,203.2,318.7z M323.5,291.3c-2.9,2.3-6.3,4.1-9.2,6.4c-0.4,0.4-0.7,1.1-0.7,1.9
			c0,4.9,0,9.4,0,14.3c0,0.7,0,1.1,0.4,1.9C322.4,310.4,325.4,302.2,323.5,291.3z"/>
		<path class="st1" d="M276.4,188.1c0,12.8-2.2,21.4-6.3,29.6c-2.2,4.1-5.2,4.9-8.5,1.9c-3.7-3-8.1-3-11.8,0c-3.3,3-6.3,2.3-8.5-1.9
			c-11.4-22.1-7-50.3,10.7-67.5c2.6-2.6,5.2-2.6,7.7,0C270.9,161.9,276.4,175.8,276.4,188.1z M256.2,161.1
			c-11.4,12.4-14.3,34.1-7.7,48.4c5.2-2.3,10.3-1.9,15.1,0C270.5,193.4,266.9,173.1,256.2,161.1z"/>
		<path class="st1" d="M328.7,191.5c-0.4,12-5.2,25.1-15.5,36c-3.3,3.8-6.6,3.4-9.2-1.1c-2.6-4.1-7-5.2-11.4-3
			c-4.4,2.3-7.4,0.8-8.1-4.5c-1.8-23.3,10.3-46.1,31.3-57c3.7-1.9,6.3-1.1,7.7,2.6C327.2,172,328.7,180.3,328.7,191.5z M294.4,212.9
			c5.5-0.7,10.7,1.1,14.7,4.5c10.3-12.4,12.5-31.5,7.4-44.6C305.1,177.6,293,199.4,294.4,212.9z"/>
		<path class="st1" d="M183,188.5c0.4-8.3,1.8-16.1,5.5-24c1.5-3.4,4-4.5,7.4-2.6c21,10.5,33.9,34.5,30.9,58.1
			c-0.4,3.8-3.7,5.6-7,3.8c-5.5-2.6-9.2-1.5-12.5,3.4c-1.8,3.4-5.2,3.8-8.1,1.1c-8.1-8.3-13.2-18.4-15.1-30
			C183.7,194.9,183.3,191.5,183,188.5z M202.8,217.8c4.4-3.8,9.6-5.2,15.1-4.9c0.7-15-11.8-36.8-22.4-39.8
			C190.3,186.6,192.5,205,202.8,217.8z"/>
		<path class="st1" d="M376.5,203.5c-1.1,23.3-11,40.9-30.9,52.5c-3.7,2.3-7.4,0-7.4-4.5c0-6.4-3.3-10.1-9.6-10.9
			c-4-0.4-5.5-3-4.8-6.8c4.8-20.3,23.2-36,43.4-37.5c0.7,0,1.8,0,2.6-0.4c4.4-0.4,6.3,1.5,6.3,6
			C376.5,202.4,376.5,203.1,376.5,203.5z M346.3,243.7c13.2-9,21-27,20.2-37.5c-16.2,1.5-29.1,15-32,25.9
			C340.1,234.3,344.1,238,346.3,243.7z"/>
		<path class="st1" d="M142.9,196.4c19.5,0.8,37.9,14.3,44.2,34.9c0,0.4,0,0.4,0.4,0.8c1.8,6,0.7,7.9-5.5,8.6
			c-4.4,0.8-8.1,4.9-8.1,9.8c0,2.3-0.4,4.1-2.2,5.2c-2.2,1.1-4,0.8-5.9-0.7c-16.9-10.1-26.9-25.1-29.8-45c-0.4-2.3-0.4-4.9-0.4-7.9
			c0-4.5,2.2-6.4,6.6-6C142.5,196.4,142.9,196.4,142.9,196.4z M145.4,206.1c-1.5,10.9,10.3,32.3,20.2,37.5
			c2.2-5.6,6.3-9.4,11.8-11.6C173.4,219.3,160.2,207.6,145.4,206.1z"/>
	</g>
</g>
</svg>
