<?xml version="1.0" encoding="utf-8"?>
<!-- Generator: Adobe Illustrator 26.3.1, SVG Export Plug-In . SVG Version: 6.00 Build 0)  -->
<svg version="1.1" id="Layer_2_1_" xmlns="http://www.w3.org/2000/svg" xmlns:xlink="http://www.w3.org/1999/xlink" x="0px" y="0px"
	 viewBox="0 0 512 512" style="enable-background:new 0 0 512 512;" xml:space="preserve">
<style type="text/css">
	.st0{clip-path:url(#SVGID_00000163069197739105610540000014575559048610188991_);}
	.st1{fill:#FFFFFF;}
</style>
<g>
	<defs>
		<rect id="SVGID_1_" x="135.4" y="132.6" width="241" height="248.1"/>
	</defs>
	<clipPath id="SVGID_00000069382625082664553800000017486233944047096474_">
		<use xlink:href="#SVGID_1_"  style="overflow:visible;"/>
	</clipPath>
	<g style="clip-path:url(#SVGID_00000069382625082664553800000017486233944047096474_);">
		<path class="st1" d="M363.8,220.4c-8.9-11.3-20.5-18.5-34.5-21.3c-1.2-0.2-1.4-0.5-1.5-1.7c-0.1-2.2-0.4-4.7-1.1-7.6
			c-3.7-18.1-13.9-33.9-28.9-44.3c-14.9-10.3-33.3-14.7-51.7-12c-15.6,2.2-30.2,9.9-41.3,21.6c-11,11.7-17.8,26.8-19.1,42.5
			c-0.1,1.1-0.2,1.2-1.4,1.5c-15.3,2.7-28.7,10.8-37.7,23.1c-9,12.2-12.9,27.4-10.9,42.9c1.8,13.9,8.7,26.9,19.3,36.4
			c10.7,9.5,24.3,14.8,38.4,15c5.6,0,11.2,0.1,16.8,0.1c4.4,0,8.9,0,13.2,0c4.1,0,8.3,0,12.4,0c0.5,0,0.9,0,1.4-0.1
			c0.2,0,0.4,0,0.7,0l1-0.1V305h-14c-9.4,0-19.1,0-28.7,0c-3,0-5.5-0.1-7.6-0.4c-19.5-2.3-35.5-16.2-40.6-35.4
			c-4.9-18.6,2.2-38.9,17.7-50.4c7.2-5.3,15.2-8.4,24-9.1c5.2-0.4,6.8-2.1,7.1-7.4V202c0.2-3.2,0.3-6.6,1.1-9.7
			c6.1-26,21.8-41.8,46.8-47c24.3-5.1,44.6,2.7,60.4,23c7.5,9.6,11.5,21.3,11.8,34.7c0.1,4.1,1.6,5.9,5.7,6.5
			c0.6,0.1,1.3,0.2,1.9,0.3c1.2,0.2,2.2,0.3,3.3,0.5c23.5,5.2,39.3,27.3,36.9,51.4c-2.4,24.5-22.7,43.1-47.1,43.2
			c-9.5,0-19.1,0-28.5,0c-4.3,0-8.5,0-12.8,0h-3.7v11.1l1.1,0c0.3,0,0.5,0,0.7,0c0.5,0,0.9,0,1.4,0c3.4,0,6.8,0,10.1,0
			c10.4,0,21.2,0,31.8,0c3.2,0,6.6-0.4,9.9-0.9c20.5-3.7,37.2-17.7,44.6-37.3C379.9,258.3,376.6,236.8,363.8,220.4z"/>
		<path class="st1" d="M284,238c1.7-1.2,2.7-2.8,3-4.4c0.2-1.4-0.2-2.8-1.1-4c-2-2.8-5.4-3-8.6-0.7c-2.9,2.1-5.8,4.2-8.7,6.4
			c-2.2,1.6-4.4,3.2-6.5,4.8c-0.2,0.1-0.4,0.3-0.6,0.4v-31c0-4.8-1.9-7.2-5.5-7.2c-1.6,0-2.9,0.4-3.9,1.4c-1.2,1.2-1.8,3.2-1.8,6
			c0,15.1,0,30.2,0,45.3v16.7c-0.1-0.1-0.3-0.2-0.4-0.3c-3.6-2.7-7.3-5.4-10.9-8.1l-5.3-4c-1.3-1-2.7-2-4-3c-3.5-2.6-7.2-5.3-10.7-8
			c-2.8-2-6.1-1.6-8.1,0.9c-2,2.6-1.5,5.9,1.3,8.2c0.2,0.2,0.4,0.3,0.6,0.4c0.1,0.1,0.2,0.1,0.3,0.2c2.8,2.1,5.7,4.2,8.5,6.4
			c8.9,6.6,18,13.5,27.1,20.2c1.2,0.9,1.6,1.8,1.6,3.3c0,21.1,0,42.5,0,63.2v13.9c0,0.9,0,1.8,0,2.7c0,2.5,0,5.2,0,7.7
			c0.1,3.1,2.4,5.4,5.6,5.4c3.1,0,5.3-2.2,5.6-5.3c0-0.6,0-1.2,0-1.8V373v-16.4c0-32.9,0-66.9,0-100.4c0-1.3,0.3-2,1.4-2.8
			c6.4-4.5,12.7-9.3,18.9-13.8L284,238z"/>
	</g>
</g>
</svg>
