<?xml version="1.0" encoding="utf-8"?>
<!-- Generator: Adobe Illustrator 26.3.1, SVG Export Plug-In . SVG Version: 6.00 Build 0)  -->
<svg version="1.1" id="Layer_2_1_" xmlns="http://www.w3.org/2000/svg" xmlns:xlink="http://www.w3.org/1999/xlink" x="0px" y="0px"
	 viewBox="0 0 512 512" style="enable-background:new 0 0 512 512;" xml:space="preserve">
<style type="text/css">
	.st0{clip-path:url(#SVGID_00000152222027315841168490000002121759247236072093_);}
	.st1{fill:#FFFFFF;}
</style>
<g>
	<defs>
		<rect id="SVGID_1_" x="135.5" y="109.6" width="241" height="293.7"/>
	</defs>
	<clipPath id="SVGID_00000021113403335160102040000007993545006142174362_">
		<use xlink:href="#SVGID_1_"  style="overflow:visible;"/>
	</clipPath>
	<g style="clip-path:url(#SVGID_00000021113403335160102040000007993545006142174362_);">
		<path class="st1" d="M135.7,206.7c3.8,0,7.4,0,11.3,0c0,2.8,0,5.6,0,8.3c0,53.8,0,107.6,0,161.4c0,10,5,15.3,14.8,15.3
			c62.6,0,125.3-0.1,188,0.1c8.7,0.1,15.5-5.2,15.4-15.7c-0.2-55.9-0.1-111.8-0.1-167.7c0-5.4,0-10.8,0-16.2c0-1-0.1-2-0.2-3.3
			c-1.4,0-2.6,0-3.8,0c-72.6,0-145.2,0-217.8,0c-0.7,0-1.3,0-2,0c-3.6-0.2-5.8-2.3-5.8-5.9c-0.1-16.7-0.2-33.5,0.1-50.2
			c0.2-12.7,11.3-23,24.4-23.1c22-0.1,44.1-0.1,66.1-0.1c41.7,0,83.3,0,124.9,0c13.1,0,23,8.3,25.1,21.2c0.3,1.8,0.3,3.6,0.3,5.4
			c0,80.3,0,160.6,0,240.9c0,15.7-10.3,26.3-25.7,26.3c-63.2,0-126.4,0-189.6,0c-11.7,0-20.8-6.2-24.3-16.7
			c-0.9-2.6-1.3-5.6-1.3-8.3c-0.1-56.3-0.1-112.6-0.1-168.8C135.6,208.6,135.7,207.8,135.7,206.7z M364.9,177.2
			c0.1-1.1,0.2-1.8,0.2-2.6c0-13.1,0.1-26.1,0-39.2c-0.1-9-5.4-14.1-14.2-14.1c-63.2,0-126.4,0-189.6,0c-9,0-14.2,5.3-14.3,14.4
			c-0.1,12.4-0.1,24.8-0.1,37.2c0,1.4,0,2.8,0,4.3C219.8,177.2,292.2,177.2,364.9,177.2z"/>
		<path class="st1" d="M325.8,289.5c-0.1,39.4-31.1,71-69.8,71c-38.8,0-69.9-31.8-69.8-71.3c0.1-39.2,31.3-70.7,69.8-70.7
			C294.7,218.4,325.9,250.1,325.8,289.5z M197.6,284.8c1.3-0.6,2-0.9,2.6-1.2c18.1-9.6,35.5-8.4,52.3,3.3c4.3,3,8.8,5.8,13.5,7.9
			c16.8,7.3,32.7,6.6,46.8-6.7c0.9-0.9,1.5-2.6,1.4-3.8c-2.6-32.8-31.1-57-63.5-54.1c-24.9,2.3-45.8,20.6-51.5,45.3
			C198.5,278.4,198.1,281.4,197.6,284.8z M312.9,303c-1.1,0.6-1.6,0.8-2.1,1.1c-10.1,6-20.9,7.9-32.5,6.3
			c-11.9-1.7-22.5-6.8-32.3-13.7c-14.9-10.7-30.8-10.4-45.6,0.3c-1.8,1.3-2.2,2.6-1.7,4.7c9.7,44.8,62.4,62.4,96.2,32.1
			C303.9,325.7,309.8,315.6,312.9,303z"/>
		<path class="st1" d="M196.1,154.3c-5.7,0-11.3,0-17,0c-4,0-6.6-2.3-6.5-5.7c0-3.4,2.6-5.8,6.5-5.8c11.3-0.1,22.5-0.1,33.7,0
			c4.1,0,6.5,2.3,6.5,5.8c0,3.6-2.4,5.7-6.4,5.8C207.2,154.4,201.6,154.3,196.1,154.3z"/>
		<path class="st1" d="M325.4,139.4c5-0.1,9.1,4,9.1,9c0,4.9-3.9,9-8.8,9.2c-5,0.2-9.1-3.9-9.3-8.9
			C316.3,143.7,320.3,139.5,325.4,139.4z"/>
		<path class="st1" d="M291.4,139.4c5-0.1,9.1,4,9.1,9c0,4.9-3.9,9-8.8,9.1c-4.9,0.2-9.1-3.9-9.3-9
			C282.4,143.6,286.4,139.5,291.4,139.4z"/>
	</g>
</g>
</svg>
