<svg width="35" height="27" viewBox="0 0 35 27" fill="none" xmlns="http://www.w3.org/2000/svg">
<g clip-path="url(#clip0_2775_50)">
<path d="M5.53821 25.7411C5.66531 25.7472 5.76215 25.7532 5.86504 25.7532C7.75341 25.7532 9.63572 25.7472 11.5241 25.7593C11.8207 25.7593 11.8933 25.6685 11.8872 25.384C11.8751 23.5562 11.8812 21.7344 11.8812 19.9065C11.8812 19.2892 12.0749 19.0955 12.6983 19.0955C14.3203 19.0955 15.9484 19.0955 17.5705 19.0955C18.2 19.0955 18.4057 19.3013 18.4057 19.9247C18.4057 21.7223 18.4057 23.5138 18.4057 25.3114C18.4057 25.4385 18.4057 25.5716 18.4057 25.729C20.5241 25.729 22.6122 25.729 24.7366 25.729C24.7427 25.6079 24.7487 25.4929 24.7548 25.378C24.7548 24.0767 24.7608 22.7754 24.7548 21.4741C24.7548 21.2441 24.8032 21.1412 25.0574 21.1594C25.354 21.1836 25.6566 21.1654 25.9774 21.1654C25.9834 21.2986 25.9955 21.3954 25.9955 21.4923C25.9955 23.078 25.9955 24.6577 25.9955 26.2435C25.9955 26.7821 25.7837 27 25.245 27C22.8059 27 20.3607 27 17.9215 27C17.3889 27 17.171 26.7761 17.171 26.2435C17.171 24.4277 17.171 22.612 17.171 20.7962C17.171 20.6631 17.171 20.536 17.171 20.3665C17.0621 20.3605 16.9653 20.3423 16.8684 20.3423C15.7184 20.3423 14.5685 20.3484 13.4185 20.3363C13.1583 20.3363 13.0977 20.427 13.1038 20.6691C13.1098 22.5151 13.1098 24.3611 13.1098 26.2071C13.1098 26.8124 12.9162 27 12.3109 27C9.90203 27 7.4871 27 5.07822 27C4.50324 27 4.28535 26.7821 4.28535 26.2192C4.28535 22.4244 4.28535 18.6355 4.2793 14.8406C4.2793 14.5441 4.37008 14.3201 4.59402 14.1264C7.93498 11.1365 11.2759 8.14056 14.6229 5.1446C14.974 4.82987 15.2706 4.81171 15.5913 5.08407C16.8866 6.20378 18.1818 7.32953 19.471 8.45529C19.5073 8.48555 19.5375 8.52792 19.586 8.58239C19.3257 8.88501 19.0655 9.18158 18.787 9.50236C17.5705 8.44924 16.3721 7.40822 15.1495 6.34298C15.0587 6.41561 14.974 6.48219 14.8953 6.55482C11.8449 9.28448 8.79443 12.0202 5.74399 14.7498C5.60479 14.8769 5.514 14.998 5.514 15.2098C5.52005 18.6295 5.52005 22.0491 5.52005 25.4687C5.52005 25.5474 5.53216 25.6261 5.53821 25.7411Z" fill="white"/>
<path d="M30.8194 18.0545C31.0736 17.8063 31.3339 17.5884 31.5518 17.3282C32.617 16.0814 33.1315 14.6106 33.3191 13.0007C33.6096 10.5555 32.7441 8.49765 31.237 6.63954C29.5787 4.58776 27.5874 2.94149 25.2935 1.65837C25.2391 1.62811 25.1846 1.6039 25.1059 1.56759C25.0454 1.65232 24.9788 1.72495 24.9243 1.80363C23.4233 4.11567 22.5397 6.65165 22.225 9.39341C22.0676 10.7552 22.0313 12.111 22.4731 13.4304C23.2054 15.6153 24.5128 17.3342 26.6432 18.3268C27.1759 18.575 27.769 18.6779 28.3863 18.8594C28.3682 19.1863 28.35 19.5676 28.3319 20.0518C27.7811 19.9307 27.2485 19.8642 26.7582 19.6947C24.6944 18.9926 23.2236 17.5703 22.1402 15.7243C21.075 13.9025 20.7482 11.9294 20.9358 9.84129C21.2021 6.90585 22.0434 4.15198 23.5868 1.63416C23.9257 1.07734 24.3252 0.556826 24.7125 0C24.9728 0.121049 25.1967 0.205783 25.4025 0.314728C28.5437 1.961 31.1826 4.17619 33.1315 7.154C34.9714 9.96839 35.0259 12.9462 33.8154 15.9966C33.3554 17.1587 32.6473 18.1574 31.6607 18.9442C31.6244 18.9744 31.5699 18.9926 31.467 19.041C32.1752 19.8339 32.8228 20.5783 33.4886 21.3046C33.7851 21.6315 34.118 21.928 34.4327 22.2367C34.7172 22.5212 34.7414 22.8964 34.4993 23.1506C34.2451 23.4169 33.888 23.4169 33.5854 23.1325C30.2263 19.9731 27.7508 16.2629 26.5343 11.7781C26.1893 10.501 25.9654 9.19973 25.9472 7.87424C25.9412 7.60188 26.0198 7.37794 26.2619 7.23268C26.6796 6.98453 27.1819 7.28716 27.1819 7.80767C27.194 8.91527 27.3635 9.9926 27.6237 11.0639C28.2169 13.5091 29.264 15.7545 30.6621 17.8426C30.6923 17.9092 30.7408 17.9576 30.8194 18.0545Z" fill="white"/>
<path d="M20.2574 4.67249C19.979 4.99327 19.7308 5.28379 19.4584 5.60457C19.3192 5.48957 19.1921 5.38668 19.065 5.27774C17.8182 4.20645 16.5654 3.14122 15.3246 2.06388C15.137 1.90047 15.0402 1.93678 14.8767 2.08204C12.5465 4.12172 10.2103 6.15534 7.8801 8.18897C7.80747 8.25554 7.72879 8.31607 7.58958 8.43107C7.58958 6.88164 7.58958 5.39273 7.58958 3.87962C6.90566 3.87962 6.2762 3.87962 5.60438 3.87962C5.60438 4.02488 5.60438 4.15198 5.60438 4.27908C5.60438 6.14324 5.61043 8.01345 5.59833 9.8776C5.59833 10.0289 5.53175 10.2226 5.42281 10.3194C3.93995 11.6389 2.43895 12.9462 0.94399 14.2535C0.907675 14.2838 0.865308 14.3141 0.804783 14.3625C0.538475 14.0598 0.284272 13.7693 0.00585938 13.4485C0.102699 13.3578 0.181381 13.273 0.272167 13.2004C1.56134 12.0686 2.84446 10.9368 4.14574 9.81708C4.32126 9.65971 4.38784 9.50235 4.38784 9.27236C4.38178 7.19637 4.38178 5.11432 4.38784 3.03833C4.38784 2.91728 4.38784 2.79623 4.38784 2.65097C5.86463 2.65097 7.32328 2.65097 8.80613 2.65097C8.80613 3.64963 8.80613 4.64223 8.80613 5.64088C8.83034 5.65904 8.85455 5.67115 8.87876 5.6893C10.9487 3.88567 13.0126 2.08204 15.1067 0.260254C16.8075 1.72495 18.5203 3.18964 20.2574 4.67249Z" fill="white"/>
</g>
<defs>
<clipPath id="clip0_2775_50">
<rect width="34.6564" height="27" fill="white"/>
</clipPath>
</defs>
</svg>
