<svg width="19" height="27" viewBox="0 0 19 27" fill="none" xmlns="http://www.w3.org/2000/svg">
<g clip-path="url(#clip0_2490_2601)">
<path d="M18.6421 17.5095C18.5717 22.2196 15.2631 26.1361 10.649 26.8913C6.63001 27.5441 2.51505 25.2658 0.831951 21.458C-0.307182 18.8662 -0.217587 16.2551 0.742356 13.6377C1.52311 11.5002 2.68784 9.56113 3.92297 7.67324C5.52287 5.21578 7.15478 2.78393 8.77388 0.339274C9.06186 -0.0959 9.47784 -0.121499 9.75302 0.300876C11.7881 3.39829 13.8488 6.48291 15.8391 9.61232C16.9142 11.2954 17.8037 13.0873 18.2517 15.052C18.4373 15.8584 18.5141 16.6903 18.6421 17.5095ZM9.29225 1.6512C9.22185 1.74719 9.17706 1.80479 9.13226 1.86238C8.04432 3.46869 6.94999 5.06859 5.86845 6.6813C4.57573 8.61398 3.2958 10.5531 2.32946 12.6777C1.49111 14.5272 0.972742 16.4407 1.19673 18.5014C1.6767 23.0451 5.79166 26.3281 10.3162 25.765C14.5271 25.2402 17.9061 21.3108 17.375 16.5303C17.183 14.8088 16.5558 13.2281 15.7687 11.705C14.6231 9.48433 13.2088 7.42365 11.8137 5.35658C10.9818 4.14065 10.1498 2.91832 9.29225 1.6512Z" fill="white"/>
<path d="M3.77567 15.2631C4.13404 15.3527 4.47322 15.4359 4.8252 15.5254C4.76121 15.9158 4.67161 16.287 4.63962 16.6646C4.47962 18.4757 4.934 20.082 6.34192 21.3043C7.77543 22.5586 9.88091 22.7442 11.6408 21.8163C11.98 21.6371 12.2936 21.4259 12.6455 21.2147C12.8759 21.4835 13.0999 21.7587 13.3303 22.0339C11.2184 23.8322 8.3322 24.005 6.18193 22.6226C3.60288 20.9587 3.00771 17.5989 3.77567 15.2631Z" fill="white"/>
</g>
<defs>
<clipPath id="clip0_2490_2601">
<rect width="18.6421" height="27" fill="white"/>
</clipPath>
</defs>
</svg>
