<svg width="24" height="27" viewBox="0 0 24 27" fill="none" xmlns="http://www.w3.org/2000/svg">
<g clip-path="url(#clip0_2490_2598)">
<path d="M19.4273 9.78478C19.9053 9.91514 20.3358 10.0297 20.7664 10.1482C21.4577 10.3339 22.153 10.5156 22.8443 10.7052C23.1208 10.7802 23.2788 10.9659 23.2946 11.2148C23.3222 11.6375 22.9786 11.9258 22.5598 11.8152C21.5288 11.5466 20.5018 11.2661 19.4747 10.9896C19.0283 10.8711 18.5859 10.7486 18.1395 10.6341C18.0644 10.6143 17.9657 10.6183 17.8985 10.6578C16.2829 11.5822 14.6712 12.5105 13.0555 13.4427C13.0358 13.4546 13.016 13.4743 12.9805 13.502C13.0358 13.5415 13.0832 13.577 13.1306 13.6047C14.6909 14.5053 16.2552 15.402 17.8156 16.3067C17.9459 16.3817 18.0565 16.3975 18.2027 16.358C19.605 15.9748 21.0074 15.6035 22.4097 15.2243C22.4532 15.2124 22.5006 15.2006 22.544 15.1927C22.8877 15.1097 23.1998 15.2717 23.2788 15.5798C23.3657 15.9077 23.1879 16.2 22.8364 16.2988C22.3505 16.4331 21.8606 16.5634 21.3708 16.6938C20.7941 16.8478 20.2173 17.0059 19.6367 17.1599C19.5813 17.1757 19.526 17.1955 19.4312 17.2271C19.5339 17.2903 19.6051 17.3337 19.6762 17.3772C20.8691 18.0645 22.0582 18.7479 23.2511 19.4353C23.5158 19.5854 23.6304 19.8066 23.5909 20.0476C23.5158 20.4663 23.0971 20.6638 22.7139 20.4465C22.0147 20.0515 21.3234 19.6486 20.6282 19.2456C20.0475 18.9099 19.4668 18.5781 18.8506 18.2225C18.8624 18.3134 18.8664 18.3647 18.8822 18.42C19.1587 19.4471 19.4352 20.4781 19.7078 21.5052C19.7196 21.5565 19.7354 21.6079 19.7473 21.6593C19.8342 22.0187 19.6762 22.311 19.3483 22.4019C19.0362 22.4888 18.7399 22.2992 18.6412 21.9437C18.5069 21.4617 18.3805 20.9798 18.2501 20.4979C17.9854 19.5222 17.7287 18.5425 17.4561 17.5668C17.4324 17.4759 17.3613 17.3772 17.2823 17.3298C15.714 16.4173 14.1379 15.5127 12.5657 14.608C12.5183 14.5804 12.463 14.5606 12.3879 14.5251C12.384 14.612 12.38 14.6752 12.38 14.7384C12.38 16.5358 12.38 18.3331 12.3761 20.1305C12.3761 20.2688 12.4195 20.3636 12.5143 20.4584C13.5691 21.5091 14.6198 22.5639 15.6706 23.6107C15.8405 23.7805 15.9432 23.9662 15.8839 24.2111C15.7772 24.6496 15.2519 24.7997 14.9161 24.4837C14.6238 24.2072 14.3473 23.9188 14.0628 23.6344C13.5651 23.1367 13.0674 22.6389 12.5696 22.1412C12.5222 22.0938 12.4748 22.0503 12.3879 21.9674C12.384 22.0819 12.3761 22.153 12.3761 22.2241C12.3761 23.5791 12.3761 24.938 12.3761 26.2929C12.3761 26.3917 12.3721 26.4904 12.3484 26.5852C12.2892 26.8301 12.064 27 11.8151 27.004C11.5584 27.0079 11.3174 26.838 11.2542 26.5892C11.2305 26.4944 11.2265 26.3956 11.2265 26.2969C11.2265 24.9419 11.2265 23.583 11.2265 22.2281C11.2265 22.157 11.2265 22.0859 11.2265 21.9595C11.1357 22.0424 11.0764 22.0938 11.0251 22.1451C10.2666 22.9036 9.51213 23.666 8.74183 24.4165C8.62728 24.5271 8.45741 24.6101 8.2994 24.6377C8.06634 24.6772 7.88068 24.5548 7.76612 24.3415C7.65551 24.1282 7.67921 23.9228 7.82142 23.7292C7.86487 23.6699 7.91623 23.6225 7.96758 23.5712C9.00255 22.5362 10.0336 21.5012 11.0685 20.4742C11.1752 20.3715 11.2226 20.2648 11.2226 20.1147C11.2186 18.3292 11.2186 16.5476 11.2186 14.7621C11.2186 14.691 11.2186 14.6199 11.2186 14.5132C11.1238 14.5606 11.0606 14.5883 11.0014 14.6238C9.46078 15.5087 7.92413 16.3975 6.38353 17.2784C6.23342 17.3653 6.15441 17.472 6.11096 17.6339C5.73963 19.0402 5.36436 20.4426 4.98909 21.8449C4.97723 21.8844 4.96933 21.92 4.95748 21.9595C4.85478 22.2992 4.56246 22.4849 4.25434 22.4019C3.92252 22.311 3.76055 22.0148 3.85141 21.6632C4.05682 20.889 4.26619 20.1147 4.4716 19.3405C4.56641 18.9849 4.66121 18.6334 4.76787 18.2225C4.64936 18.2857 4.57826 18.3252 4.50715 18.3647C3.31022 19.056 2.1133 19.7434 0.916367 20.4347C0.51344 20.6638 0.0947127 20.4939 0.00780697 20.0673C-0.0435464 19.8145 0.0749614 19.5933 0.343579 19.4392C1.4615 18.7953 2.57943 18.1514 3.6934 17.5075C3.83561 17.4246 3.97387 17.3416 4.15558 17.2389C4.06867 17.2073 4.02127 17.1836 3.96992 17.1718C2.89545 16.8834 1.82493 16.595 0.750456 16.3067C0.450236 16.2277 0.292226 16.0262 0.292226 15.7457C0.292226 15.4811 0.438385 15.2598 0.691202 15.2006C0.80576 15.1729 0.944019 15.1769 1.05858 15.2085C2.51622 15.5917 3.96597 15.9827 5.42361 16.3659C5.51052 16.3896 5.62903 16.3896 5.70013 16.3462C7.31579 15.4218 8.9275 14.4935 10.5432 13.5612C10.559 13.5533 10.5748 13.5375 10.6103 13.5099C10.559 13.4743 10.5155 13.4388 10.4681 13.4111C8.90774 12.5105 7.34344 11.6138 5.78309 10.7091C5.64878 10.6301 5.52632 10.6143 5.37621 10.6578C3.98177 11.037 2.58338 11.4083 1.18498 11.7836C1.12968 11.7994 1.07043 11.8152 1.01512 11.8271C0.695152 11.8982 0.394933 11.7362 0.311977 11.4399C0.221121 11.12 0.390982 10.8119 0.722804 10.717C1.12178 10.6025 1.52076 10.4998 1.92368 10.3931C2.61103 10.2075 3.29442 10.0258 3.98177 9.84009C4.02917 9.82824 4.07658 9.80849 4.16348 9.77688C3.98572 9.67418 3.83956 9.58727 3.6934 9.50432C2.57943 8.85252 1.4615 8.20863 0.343579 7.56474C0.0828619 7.41463 -0.0356459 7.18947 0.00780697 6.95245C0.0828619 6.53372 0.50159 6.34016 0.888715 6.55743C1.50891 6.90505 2.1212 7.26452 2.73744 7.62004C3.34578 7.97162 3.95807 8.32319 4.56641 8.67476C4.61776 8.70241 4.66911 8.73007 4.75602 8.77747C4.73627 8.67871 4.72442 8.61946 4.70862 8.5602C4.42815 7.51734 4.14768 6.47842 3.87511 5.43555C3.83956 5.30124 3.82376 5.14718 3.84746 5.00892C3.89486 4.75611 4.13583 4.5823 4.39655 4.5823C4.66121 4.5823 4.87848 4.74821 4.95353 5.02868C5.10364 5.56591 5.24585 6.1071 5.38806 6.64828C5.63693 7.58054 5.88579 8.51675 6.14256 9.44506C6.16626 9.52802 6.23342 9.62677 6.30452 9.67023C7.88463 10.5867 9.47263 11.4992 11.0567 12.4117C11.0962 12.4354 11.1357 12.4512 11.2028 12.4828C11.2107 12.4038 11.2186 12.3406 11.2186 12.2813C11.2186 10.4761 11.2226 8.67476 11.2147 6.86949C11.2147 6.76284 11.1515 6.62853 11.0764 6.54952C10.0494 5.51061 9.0144 4.47959 7.97943 3.44462C7.91623 3.38142 7.84512 3.31426 7.79377 3.23921C7.63971 3.0101 7.67131 2.70593 7.86882 2.51631C8.06634 2.32275 8.39026 2.29905 8.61147 2.46496C8.67863 2.51631 8.73788 2.57952 8.80109 2.63877C9.53979 3.37747 10.2824 4.12012 11.0211 4.85882C11.0725 4.91017 11.1238 4.95362 11.2186 5.04448C11.2186 4.91807 11.2186 4.84301 11.2186 4.76796C11.2186 3.44462 11.2186 2.12129 11.2186 0.797952C11.2186 0.726847 11.2147 0.651792 11.2186 0.580688C11.2423 0.244916 11.4794 0 11.7954 0C12.1114 0 12.3563 0.240966 12.3721 0.576737C12.3761 0.643892 12.3721 0.707096 12.3721 0.77425C12.3721 2.10549 12.3721 3.43277 12.3721 4.76401C12.3721 4.83906 12.3721 4.91412 12.3721 5.04448C12.4709 4.95362 12.5262 4.90227 12.5815 4.85091C13.3518 4.08457 14.1142 3.31426 14.8884 2.54792C15.2321 2.20819 15.7535 2.3346 15.876 2.78098C15.9432 3.02195 15.8484 3.21551 15.6785 3.38537C14.8055 4.25443 13.9364 5.12743 13.0674 5.99649C12.8738 6.19005 12.6723 6.38361 12.4827 6.58508C12.4274 6.64433 12.38 6.74309 12.38 6.82209C12.3761 8.66686 12.3761 10.5077 12.3761 12.3525C12.3761 12.3841 12.38 12.4157 12.3879 12.4828C12.463 12.4473 12.5262 12.4196 12.5854 12.388C14.1458 11.4873 15.7101 10.5906 17.2665 9.68603C17.3495 9.63863 17.4285 9.53197 17.4561 9.43716C17.8432 8.02297 18.2225 6.60878 18.6017 5.19064C18.6175 5.13533 18.6293 5.07608 18.6491 5.02078C18.7439 4.70871 19.0402 4.52699 19.3325 4.60205C19.6564 4.68105 19.8421 4.98127 19.7552 5.31704C19.5892 5.96094 19.4154 6.60088 19.2416 7.24082C19.1192 7.69905 18.9928 8.15333 18.8703 8.61156C18.8585 8.65501 18.8545 8.69846 18.8426 8.78537C19.2258 8.56415 19.5774 8.36664 19.925 8.16518C20.8494 7.63189 21.7698 7.09861 22.6942 6.56928C23.0892 6.34411 23.5158 6.53767 23.5869 6.9643C23.6264 7.19737 23.5119 7.41858 23.259 7.56474C22.5085 7.99927 21.754 8.4338 20.9995 8.86833C20.5373 9.13299 20.0751 9.39766 19.613 9.66628C19.5695 9.68998 19.5221 9.72158 19.4273 9.78478Z" fill="white"/>
</g>
<defs>
<clipPath id="clip0_2490_2598">
<rect width="23.5988" height="27" fill="white"/>
</clipPath>
</defs>
</svg>
