<svg width="21" height="27" viewBox="0 0 21 27" fill="none" xmlns="http://www.w3.org/2000/svg">
<g clip-path="url(#clip0_2490_2501)">
<path d="M13.3215 9.82865C13.4598 9.5789 13.5866 9.34836 13.7172 9.12166C13.9785 8.66058 14.2167 8.18413 14.5087 7.74227C14.8315 7.25813 15.2849 6.93538 15.8881 6.85853C16.4261 6.78937 16.7488 7.05449 16.745 7.59242C16.7334 9.1524 17.1984 10.5587 18.0629 11.8536C18.5124 12.5221 18.9505 13.2022 19.327 13.913C20.0494 15.2809 20.2761 16.7717 20.1493 18.2933C19.8227 22.174 17.8247 24.8713 14.2398 26.3814C13.2523 26.7964 12.2033 26.9846 11.1313 26.9846C10.2053 26.9846 9.26397 27.0423 8.3495 26.9308C4.58018 26.4736 1.95203 24.4525 0.60338 20.9138C-0.464786 18.1165 -0.0882383 15.4039 1.54091 12.8987C2.25558 11.7959 3.07784 10.7585 3.85783 9.69417C4.43033 8.91418 4.97594 8.11881 5.37939 7.23508C6.10558 5.64436 6.16322 4.00753 5.70983 2.33996C5.58303 1.87888 5.42165 1.42549 5.26412 0.972091C5.06047 0.3919 5.34096 -0.0153858 5.95573 0.0038258C7.40813 0.042249 8.62999 0.630125 9.69816 1.57918C11.0007 2.73188 11.846 4.18812 12.4416 5.80189C12.8988 7.03912 13.1639 8.32246 13.2638 9.63653C13.2677 9.68264 13.2715 9.72491 13.2792 9.77101C13.2792 9.77486 13.2907 9.78638 13.3215 9.82865ZM15.4693 8.553C15.2887 8.89112 15.1197 9.22156 14.9391 9.54047C14.7201 9.92855 14.5087 10.3281 14.2551 10.6932C13.9132 11.185 13.4406 11.5001 12.822 11.5539C12.3532 11.5961 12.0381 11.3233 12.0381 10.8545C12.0381 9.91702 11.9498 8.98718 11.7615 8.06886C11.4234 6.41282 10.8316 4.86052 9.79037 3.51187C9.10644 2.62429 8.28034 1.91346 7.20833 1.52539C7.07769 1.47928 6.94705 1.4447 6.78568 1.39475C6.86636 1.70982 6.94705 1.98262 7.01237 2.26311C7.45808 4.13432 7.35434 5.95943 6.55898 7.7269C6.07869 8.79506 5.41012 9.74796 4.71466 10.6855C4.02689 11.6115 3.32374 12.5221 2.68208 13.4827C1.70997 14.9351 1.17973 16.5412 1.34495 18.3087C1.64081 21.5247 3.31606 23.7609 6.24007 25.0904C6.29386 25.1134 6.35534 25.1288 6.45139 25.1634C6.40144 25.0827 6.37839 25.0481 6.35534 25.0097C5.65219 24.0337 5.26027 22.931 5.21032 21.7399C5.07584 18.5469 6.4245 16.1531 9.2025 14.5816C10.2591 13.986 11.4195 13.7286 12.6298 13.7171C13.114 13.7132 13.4098 14.0975 13.283 14.5662C13.2369 14.7468 13.1716 14.9197 13.1217 15.1003C12.9334 15.7881 12.8028 16.4836 12.8527 17.2021C12.9103 18.0166 13.2754 18.7044 13.7095 19.373C14.0016 19.8187 14.2974 20.2606 14.5318 20.737C15.0544 21.809 15.2196 22.931 14.8315 24.0875C14.747 24.3373 14.6163 24.5716 14.5087 24.8137C14.5203 24.8137 14.5356 24.8214 14.5433 24.8176C14.6086 24.7868 14.6701 24.7561 14.7316 24.7215C17.1215 23.3575 18.5355 21.3249 18.8582 18.5815C19.0158 17.2443 18.8851 15.9226 18.2896 14.6969C17.9361 13.9707 17.4789 13.2906 17.0447 12.6066C16.5836 11.8804 16.1417 11.1427 15.8958 10.3128C15.7191 9.7518 15.6115 9.16777 15.4693 8.553ZM11.7807 15.0888C11.6962 15.1003 11.6155 15.108 11.5348 15.1234C8.06133 15.7843 5.85583 19.1117 6.60893 22.5621C6.81257 23.492 7.23523 24.3065 7.97295 24.9328C8.82595 25.659 9.82111 25.8204 10.8931 25.659C11.6001 25.5514 12.2571 25.3171 12.8143 24.8521C13.5251 24.2566 13.8248 23.4958 13.7364 22.5698C13.675 21.9243 13.4483 21.3403 13.1063 20.7985C12.8642 20.4143 12.6106 20.0377 12.3686 19.6535C11.7346 18.6429 11.4695 17.5402 11.6001 16.3529C11.6424 15.9341 11.7154 15.5268 11.7807 15.0888Z" fill="white"/>
</g>
<defs>
<clipPath id="clip0_2490_2501">
<rect width="20.1837" height="27" fill="white"/>
</clipPath>
</defs>
</svg>
