<svg width="24" height="30" viewBox="0 0 24 30" fill="none" xmlns="http://www.w3.org/2000/svg">
<g clip-path="url(#clip0_2490_2580)">
<path d="M23.0542 30C15.3591 30 7.6899 30 0 30C0 20 0 10.0052 0 0C7.67955 0 15.3591 0 23.0542 0C23.0542 9.99482 23.0542 19.9845 23.0542 30ZM1.14365 28.8458C8.06767 28.8458 14.9813 28.8458 21.9002 28.8458C21.9002 21.5321 21.9002 14.234 21.9002 6.93582C14.971 6.93582 8.05732 6.93582 1.14365 6.93582C1.14365 14.2443 1.14365 21.5373 1.14365 28.8458ZM21.9054 5.74017C21.9054 4.2029 21.9054 2.68116 21.9054 1.14907C14.9762 1.14907 8.06767 1.14907 1.14365 1.14907C1.14365 2.68634 1.14365 4.20807 1.14365 5.74017C8.07285 5.74017 14.9865 5.74017 21.9054 5.74017Z" fill="white"/>
<path d="M11.5243 9.21838C15.9851 9.21838 19.6023 12.8364 19.6023 17.3033C19.6023 21.765 15.9851 25.3933 11.5243 25.3933C7.06355 25.3933 3.44629 21.7701 3.44629 17.3084C3.45146 12.8416 7.06355 9.21838 11.5243 9.21838ZM11.5191 24.2339C15.3382 24.2391 18.4535 21.1335 18.4535 17.3084C18.4535 13.4937 15.3641 10.3882 11.5554 10.3778C7.71041 10.3726 4.60029 13.4627 4.59512 17.2981C4.59512 21.1231 7.69488 24.2287 11.5191 24.2339Z" fill="white"/>
<path d="M9.2165 2.2981C9.85302 2.2981 10.3705 2.81052 10.3757 3.44199C10.3809 4.08381 9.85302 4.60141 9.20615 4.59623C8.57481 4.59106 8.0625 4.07346 8.0625 3.44199C8.06767 2.80534 8.57999 2.2981 9.2165 2.2981Z" fill="white"/>
<path d="M13.8275 4.59627C13.1962 4.59109 12.6787 4.07349 12.6787 3.44202C12.6839 2.8002 13.2117 2.28778 13.8586 2.29813C14.4951 2.30848 14.9971 2.83125 14.9919 3.46272C14.9815 4.09937 14.4641 4.60144 13.8275 4.59627Z" fill="white"/>
<path d="M18.459 2.29814C19.0955 2.29814 19.6027 2.80538 19.6027 3.4472C19.6027 4.0942 19.0852 4.60663 18.4331 4.60145C17.7966 4.59627 17.2947 4.07867 17.2998 3.44203C17.3102 2.79503 17.8173 2.29296 18.459 2.29814Z" fill="white"/>
<path d="M5.74898 3.45237C5.74381 4.08902 5.23667 4.59627 4.60015 4.59627C3.95329 4.59627 3.44098 4.07867 3.45133 3.42649C3.4565 2.78985 3.97399 2.28778 4.61568 2.29813C5.25219 2.30331 5.74898 2.81055 5.74898 3.45237Z" fill="white"/>
<path d="M6.91407 17.2826C6.91925 14.7463 8.99438 12.6811 11.5301 12.6863C14.0917 12.6915 16.1461 14.767 16.1409 17.3447C16.1357 19.8757 14.0503 21.941 11.5094 21.9306C8.95816 21.9202 6.9089 19.8447 6.91407 17.2826ZM11.5404 13.8457C9.62572 13.8405 8.07325 15.3726 8.0629 17.2774C8.05255 19.1977 9.59467 20.7608 11.5146 20.7712C13.4241 20.7815 14.9921 19.2184 14.9921 17.3033C14.9921 15.3985 13.45 13.8509 11.5404 13.8457Z" fill="white"/>
</g>
<defs>
<clipPath id="clip0_2490_2580">
<rect width="23.0542" height="30" fill="white"/>
</clipPath>
</defs>
</svg>
