<svg width="33" height="28" viewBox="0 0 33 28" fill="none" xmlns="http://www.w3.org/2000/svg">
<mask id="path-1-outside-1_2490_2590" maskUnits="userSpaceOnUse" x="0" y="0" width="33" height="28" fill="black">
<rect fill="white" width="33" height="28"/>
<path d="M29.3537 6.80288C29.9504 6.80288 30.5114 6.80288 31.0769 6.80288C32.0609 6.80288 32.6576 7.39954 32.662 8.37911C32.6665 8.99358 32.6665 9.61249 32.662 10.227C32.6576 11.1754 32.0476 11.7854 31.0992 11.7854C30.5292 11.7854 29.9593 11.7854 29.3716 11.7854C29.3716 13.7401 29.3716 15.6814 29.3716 17.6495C29.4473 17.6539 29.5229 17.6584 29.6031 17.6584C30.1151 17.6584 30.6272 17.6539 31.1392 17.6584C32.0342 17.6628 32.6487 18.2729 32.662 19.1678C32.6709 19.8224 32.6709 20.4724 32.662 21.127C32.6531 22.0309 32.0298 22.6364 31.1214 22.6409C30.5426 22.6453 29.9638 22.6409 29.3627 22.6409C29.3627 24.1013 29.3627 25.544 29.3627 27C27.1675 27 24.9991 27 22.7995 27C22.7995 25.5573 22.7995 24.1147 22.7995 22.6587C21.9001 22.6587 21.0274 22.6587 20.1279 22.6587C20.1279 24.1013 20.1279 25.544 20.1279 27C17.9283 27 15.7599 27 13.5603 27C13.5603 25.5618 13.5603 24.1191 13.5603 22.6631C12.7054 22.6631 11.8817 22.6631 11.0357 22.6631C11.0357 24.1102 11.0357 25.544 11.0357 27C8.84054 27 6.66321 27 4.46361 27C4.46361 25.5529 4.46361 24.1102 4.46361 22.6453C4.01835 22.6453 3.59535 22.6498 3.17681 22.6453C2.86512 22.6409 2.54899 22.6542 2.24621 22.6142C1.56051 22.5251 1.044 21.9774 1.02174 21.2873C0.995023 20.5392 0.99057 19.7867 1.02174 19.0387C1.05291 18.2639 1.69408 17.6851 2.4822 17.6762C3.05213 17.6673 3.62652 17.6762 4.19646 17.6762C4.2766 17.6762 4.35675 17.6762 4.45025 17.6762C4.45025 15.7081 4.45025 13.7579 4.45025 11.7898C3.90258 11.7898 3.36382 11.7943 2.8206 11.7898C2.61578 11.7898 2.40205 11.7943 2.20168 11.7587C1.52043 11.634 1.03955 11.0863 1.01729 10.3917C0.999475 9.66592 0.995023 8.93569 1.01729 8.20991C1.044 7.40399 1.66737 6.81624 2.47774 6.80734C3.04768 6.80288 3.62207 6.80734 4.192 6.80734C4.27215 6.80734 4.3523 6.80734 4.45916 6.80734C4.45916 6.41551 4.47252 6.04594 4.45471 5.68082C4.4369 5.23556 4.55712 4.83928 4.79756 4.46526C5.35859 3.58364 5.89736 2.68866 6.44948 1.79813C7.09511 0.756219 8.38637 0.747313 9.03645 1.78032C9.60639 2.68421 10.163 3.59254 10.7374 4.49642C10.9288 4.80366 11.0268 5.12425 11.0179 5.48491C11.009 5.91236 11.0179 6.34426 11.0179 6.78953C11.8639 6.78953 12.6876 6.78953 13.5514 6.78953C13.5514 6.58916 13.5692 6.38434 13.547 6.17952C13.4624 5.3825 13.6939 4.68789 14.1525 4.03335C14.6557 3.31203 15.0876 2.53727 15.5551 1.78923C16.2007 0.751766 17.4875 0.751766 18.1421 1.78923C18.6986 2.68421 19.2552 3.58364 19.8251 4.47861C20.03 4.80366 20.1324 5.14651 20.1235 5.52943C20.1146 5.94353 20.1235 6.35762 20.1235 6.78507C21.014 6.78507 21.8867 6.78507 22.795 6.78507C22.795 6.5758 22.8129 6.35762 22.7906 6.14835C22.7104 5.36469 22.9242 4.68789 23.3739 4.04226C23.877 3.32093 24.3089 2.54617 24.7765 1.79813C25.4354 0.733956 26.7178 0.733956 27.3857 1.79813C27.9556 2.70202 28.5167 3.61035 29.0866 4.51424C29.2647 4.7992 29.3582 5.10198 29.3537 5.44038C29.3493 5.88119 29.3537 6.32645 29.3537 6.80288ZM10.2787 26.2431C10.2787 26.1406 10.2787 26.0694 10.2787 25.9937C10.2787 19.1678 10.2787 12.342 10.2698 5.52053C10.2698 5.32016 10.1986 5.09308 10.0962 4.91497C9.5485 4.00664 8.97857 3.11166 8.41754 2.21223C8.06578 1.65565 7.48694 1.65565 7.13518 2.20777C6.55189 3.12947 5.96414 4.04671 5.39866 4.97731C5.29625 5.14651 5.23392 5.36469 5.23392 5.5606C5.22501 12.3687 5.22501 19.1812 5.22501 25.9893C5.22501 26.0694 5.22501 26.1451 5.22501 26.2341C6.91701 26.2431 8.58228 26.2431 10.2787 26.2431ZM19.3532 26.2431C19.3576 26.1585 19.3621 26.0872 19.3621 26.016C19.3621 19.1812 19.3621 12.3509 19.3576 5.51608C19.3576 5.32016 19.2953 5.10198 19.1929 4.93278C18.6452 4.02445 18.0753 3.12947 17.5142 2.23004C17.1491 1.6512 16.5658 1.6512 16.2052 2.23449C15.6352 3.15618 15.0608 4.07343 14.5043 5.00402C14.4019 5.17322 14.3395 5.3914 14.3395 5.58732C14.3262 12.3909 14.3173 19.1945 14.3128 25.9982C14.3128 26.0783 14.3128 26.1585 14.3128 26.2475C16.0093 26.2431 17.6745 26.2431 19.3532 26.2431ZM28.5879 26.2475C28.5924 26.1674 28.5968 26.105 28.5968 26.0471C28.5968 19.1856 28.5968 12.3241 28.5923 5.46264C28.5923 5.28899 28.5345 5.09308 28.441 4.94169C27.8888 4.0289 27.3189 3.12502 26.749 2.22113C26.3928 1.6512 25.8095 1.65565 25.4533 2.22559C24.8833 3.14728 24.3045 4.06007 23.7524 4.99067C23.6455 5.17322 23.5787 5.40476 23.5787 5.61849C23.5653 12.4132 23.5609 19.2079 23.5564 26.0026C23.5564 26.0828 23.5564 26.1585 23.5564 26.2475C25.2484 26.2475 26.9048 26.2475 28.5879 26.2475ZM20.1324 17.6495C21.0274 17.6495 21.9001 17.6495 22.7772 17.6495C22.7772 15.6903 22.7772 13.749 22.7772 11.8032C21.8867 11.8032 21.014 11.8032 20.1324 11.8032C20.1324 13.7534 20.1324 15.6948 20.1324 17.6495ZM13.538 11.8076C12.6876 11.8076 11.8639 11.8076 11.0357 11.8076C11.0357 13.7623 11.0357 15.7037 11.0357 17.6495C11.8772 17.6495 12.701 17.6495 13.538 17.6495C13.538 15.6948 13.538 13.7579 13.538 11.8076ZM20.1324 21.8706C21.0274 21.8706 21.9001 21.8706 22.7772 21.8706C22.7772 20.7173 22.7772 19.5819 22.7772 18.4421C21.8867 18.4421 21.014 18.4421 20.1324 18.4421C20.1324 19.5864 20.1324 20.7218 20.1324 21.8706ZM20.1368 7.58209C20.1368 8.73087 20.1368 9.86629 20.1368 11.0017C21.0318 11.0017 21.9045 11.0017 22.7772 11.0017C22.7772 9.84848 22.7772 8.71751 22.7772 7.58209C21.8867 7.58209 21.014 7.58209 20.1368 7.58209ZM4.44135 11.0151C4.44135 9.85293 4.44135 8.71751 4.44135 7.57319C3.76455 7.57319 3.10556 7.56428 2.44658 7.57764C2.0592 7.58655 1.78759 7.88042 1.78314 8.27225C1.77868 8.96241 1.77868 9.64811 1.78314 10.3383C1.78759 10.7034 2.02803 10.9973 2.39314 11.0106C3.06994 11.0284 3.74674 11.0151 4.44135 11.0151ZM4.45471 18.451C3.80017 18.451 3.1679 18.4465 2.53118 18.451C2.04584 18.4554 1.77868 18.7315 1.77868 19.2168C1.77868 19.8535 1.77868 20.4903 1.77868 21.127C1.77868 21.6212 2.05475 21.8973 2.54899 21.9017C3.11892 21.9062 3.68886 21.9017 4.25879 21.9017C4.32113 21.9017 4.38347 21.8928 4.45471 21.8884C4.45471 20.7441 4.45471 19.6175 4.45471 18.451ZM13.538 7.58655C12.6876 7.58655 11.8639 7.58655 11.0312 7.58655C11.0312 8.73532 11.0312 9.86629 11.0312 11.0106C11.8728 11.0106 12.701 11.0106 13.538 11.0106C13.538 9.86184 13.538 8.73087 13.538 7.58655ZM11.0446 18.4421C11.0357 18.4821 11.0268 18.5133 11.0268 18.54C11.0268 19.5997 11.0312 20.6595 11.0268 21.7192C11.0268 21.8661 11.0936 21.8884 11.2138 21.8884C11.9307 21.8839 12.652 21.8884 13.3688 21.8839C13.4223 21.8839 13.4802 21.8706 13.5336 21.8617C13.5336 20.7129 13.5336 19.5819 13.5336 18.4376C12.7054 18.4421 11.8861 18.4421 11.0446 18.4421ZM29.3627 11.0106C30.0172 11.0106 30.6539 11.0284 31.2906 11.0017C31.6513 10.9884 31.8873 10.69 31.8873 10.3205C31.8917 9.63921 31.8917 8.95796 31.8873 8.2767C31.8828 7.85816 31.6068 7.58209 31.1882 7.56874C30.9433 7.55983 30.6984 7.56874 30.4535 7.56874C30.0929 7.56874 29.7322 7.56874 29.3582 7.56874C29.3627 8.72642 29.3627 9.85739 29.3627 11.0106ZM29.3716 18.451C29.3716 19.6086 29.3716 20.7396 29.3716 21.875C30.0261 21.875 30.6628 21.8928 31.2951 21.8661C31.6513 21.8528 31.8873 21.55 31.8917 21.1804C31.8962 20.5214 31.8962 19.8624 31.8917 19.199C31.8873 18.727 31.6157 18.4554 31.1482 18.4465C30.8008 18.442 30.4491 18.4465 30.1018 18.4465C29.8569 18.451 29.6165 18.451 29.3716 18.451Z"/>
</mask>
<path d="M29.3537 6.80288C29.9504 6.80288 30.5114 6.80288 31.0769 6.80288C32.0609 6.80288 32.6576 7.39954 32.662 8.37911C32.6665 8.99358 32.6665 9.61249 32.662 10.227C32.6576 11.1754 32.0476 11.7854 31.0992 11.7854C30.5292 11.7854 29.9593 11.7854 29.3716 11.7854C29.3716 13.7401 29.3716 15.6814 29.3716 17.6495C29.4473 17.6539 29.5229 17.6584 29.6031 17.6584C30.1151 17.6584 30.6272 17.6539 31.1392 17.6584C32.0342 17.6628 32.6487 18.2729 32.662 19.1678C32.6709 19.8224 32.6709 20.4724 32.662 21.127C32.6531 22.0309 32.0298 22.6364 31.1214 22.6409C30.5426 22.6453 29.9638 22.6409 29.3627 22.6409C29.3627 24.1013 29.3627 25.544 29.3627 27C27.1675 27 24.9991 27 22.7995 27C22.7995 25.5573 22.7995 24.1147 22.7995 22.6587C21.9001 22.6587 21.0274 22.6587 20.1279 22.6587C20.1279 24.1013 20.1279 25.544 20.1279 27C17.9283 27 15.7599 27 13.5603 27C13.5603 25.5618 13.5603 24.1191 13.5603 22.6631C12.7054 22.6631 11.8817 22.6631 11.0357 22.6631C11.0357 24.1102 11.0357 25.544 11.0357 27C8.84054 27 6.66321 27 4.46361 27C4.46361 25.5529 4.46361 24.1102 4.46361 22.6453C4.01835 22.6453 3.59535 22.6498 3.17681 22.6453C2.86512 22.6409 2.54899 22.6542 2.24621 22.6142C1.56051 22.5251 1.044 21.9774 1.02174 21.2873C0.995023 20.5392 0.99057 19.7867 1.02174 19.0387C1.05291 18.2639 1.69408 17.6851 2.4822 17.6762C3.05213 17.6673 3.62652 17.6762 4.19646 17.6762C4.2766 17.6762 4.35675 17.6762 4.45025 17.6762C4.45025 15.7081 4.45025 13.7579 4.45025 11.7898C3.90258 11.7898 3.36382 11.7943 2.8206 11.7898C2.61578 11.7898 2.40205 11.7943 2.20168 11.7587C1.52043 11.634 1.03955 11.0863 1.01729 10.3917C0.999475 9.66592 0.995023 8.93569 1.01729 8.20991C1.044 7.40399 1.66737 6.81624 2.47774 6.80734C3.04768 6.80288 3.62207 6.80734 4.192 6.80734C4.27215 6.80734 4.3523 6.80734 4.45916 6.80734C4.45916 6.41551 4.47252 6.04594 4.45471 5.68082C4.4369 5.23556 4.55712 4.83928 4.79756 4.46526C5.35859 3.58364 5.89736 2.68866 6.44948 1.79813C7.09511 0.756219 8.38637 0.747313 9.03645 1.78032C9.60639 2.68421 10.163 3.59254 10.7374 4.49642C10.9288 4.80366 11.0268 5.12425 11.0179 5.48491C11.009 5.91236 11.0179 6.34426 11.0179 6.78953C11.8639 6.78953 12.6876 6.78953 13.5514 6.78953C13.5514 6.58916 13.5692 6.38434 13.547 6.17952C13.4624 5.3825 13.6939 4.68789 14.1525 4.03335C14.6557 3.31203 15.0876 2.53727 15.5551 1.78923C16.2007 0.751766 17.4875 0.751766 18.1421 1.78923C18.6986 2.68421 19.2552 3.58364 19.8251 4.47861C20.03 4.80366 20.1324 5.14651 20.1235 5.52943C20.1146 5.94353 20.1235 6.35762 20.1235 6.78507C21.014 6.78507 21.8867 6.78507 22.795 6.78507C22.795 6.5758 22.8129 6.35762 22.7906 6.14835C22.7104 5.36469 22.9242 4.68789 23.3739 4.04226C23.877 3.32093 24.3089 2.54617 24.7765 1.79813C25.4354 0.733956 26.7178 0.733956 27.3857 1.79813C27.9556 2.70202 28.5167 3.61035 29.0866 4.51424C29.2647 4.7992 29.3582 5.10198 29.3537 5.44038C29.3493 5.88119 29.3537 6.32645 29.3537 6.80288ZM10.2787 26.2431C10.2787 26.1406 10.2787 26.0694 10.2787 25.9937C10.2787 19.1678 10.2787 12.342 10.2698 5.52053C10.2698 5.32016 10.1986 5.09308 10.0962 4.91497C9.5485 4.00664 8.97857 3.11166 8.41754 2.21223C8.06578 1.65565 7.48694 1.65565 7.13518 2.20777C6.55189 3.12947 5.96414 4.04671 5.39866 4.97731C5.29625 5.14651 5.23392 5.36469 5.23392 5.5606C5.22501 12.3687 5.22501 19.1812 5.22501 25.9893C5.22501 26.0694 5.22501 26.1451 5.22501 26.2341C6.91701 26.2431 8.58228 26.2431 10.2787 26.2431ZM19.3532 26.2431C19.3576 26.1585 19.3621 26.0872 19.3621 26.016C19.3621 19.1812 19.3621 12.3509 19.3576 5.51608C19.3576 5.32016 19.2953 5.10198 19.1929 4.93278C18.6452 4.02445 18.0753 3.12947 17.5142 2.23004C17.1491 1.6512 16.5658 1.6512 16.2052 2.23449C15.6352 3.15618 15.0608 4.07343 14.5043 5.00402C14.4019 5.17322 14.3395 5.3914 14.3395 5.58732C14.3262 12.3909 14.3173 19.1945 14.3128 25.9982C14.3128 26.0783 14.3128 26.1585 14.3128 26.2475C16.0093 26.2431 17.6745 26.2431 19.3532 26.2431ZM28.5879 26.2475C28.5924 26.1674 28.5968 26.105 28.5968 26.0471C28.5968 19.1856 28.5968 12.3241 28.5923 5.46264C28.5923 5.28899 28.5345 5.09308 28.441 4.94169C27.8888 4.0289 27.3189 3.12502 26.749 2.22113C26.3928 1.6512 25.8095 1.65565 25.4533 2.22559C24.8833 3.14728 24.3045 4.06007 23.7524 4.99067C23.6455 5.17322 23.5787 5.40476 23.5787 5.61849C23.5653 12.4132 23.5609 19.2079 23.5564 26.0026C23.5564 26.0828 23.5564 26.1585 23.5564 26.2475C25.2484 26.2475 26.9048 26.2475 28.5879 26.2475ZM20.1324 17.6495C21.0274 17.6495 21.9001 17.6495 22.7772 17.6495C22.7772 15.6903 22.7772 13.749 22.7772 11.8032C21.8867 11.8032 21.014 11.8032 20.1324 11.8032C20.1324 13.7534 20.1324 15.6948 20.1324 17.6495ZM13.538 11.8076C12.6876 11.8076 11.8639 11.8076 11.0357 11.8076C11.0357 13.7623 11.0357 15.7037 11.0357 17.6495C11.8772 17.6495 12.701 17.6495 13.538 17.6495C13.538 15.6948 13.538 13.7579 13.538 11.8076ZM20.1324 21.8706C21.0274 21.8706 21.9001 21.8706 22.7772 21.8706C22.7772 20.7173 22.7772 19.5819 22.7772 18.4421C21.8867 18.4421 21.014 18.4421 20.1324 18.4421C20.1324 19.5864 20.1324 20.7218 20.1324 21.8706ZM20.1368 7.58209C20.1368 8.73087 20.1368 9.86629 20.1368 11.0017C21.0318 11.0017 21.9045 11.0017 22.7772 11.0017C22.7772 9.84848 22.7772 8.71751 22.7772 7.58209C21.8867 7.58209 21.014 7.58209 20.1368 7.58209ZM4.44135 11.0151C4.44135 9.85293 4.44135 8.71751 4.44135 7.57319C3.76455 7.57319 3.10556 7.56428 2.44658 7.57764C2.0592 7.58655 1.78759 7.88042 1.78314 8.27225C1.77868 8.96241 1.77868 9.64811 1.78314 10.3383C1.78759 10.7034 2.02803 10.9973 2.39314 11.0106C3.06994 11.0284 3.74674 11.0151 4.44135 11.0151ZM4.45471 18.451C3.80017 18.451 3.1679 18.4465 2.53118 18.451C2.04584 18.4554 1.77868 18.7315 1.77868 19.2168C1.77868 19.8535 1.77868 20.4903 1.77868 21.127C1.77868 21.6212 2.05475 21.8973 2.54899 21.9017C3.11892 21.9062 3.68886 21.9017 4.25879 21.9017C4.32113 21.9017 4.38347 21.8928 4.45471 21.8884C4.45471 20.7441 4.45471 19.6175 4.45471 18.451ZM13.538 7.58655C12.6876 7.58655 11.8639 7.58655 11.0312 7.58655C11.0312 8.73532 11.0312 9.86629 11.0312 11.0106C11.8728 11.0106 12.701 11.0106 13.538 11.0106C13.538 9.86184 13.538 8.73087 13.538 7.58655ZM11.0446 18.4421C11.0357 18.4821 11.0268 18.5133 11.0268 18.54C11.0268 19.5997 11.0312 20.6595 11.0268 21.7192C11.0268 21.8661 11.0936 21.8884 11.2138 21.8884C11.9307 21.8839 12.652 21.8884 13.3688 21.8839C13.4223 21.8839 13.4802 21.8706 13.5336 21.8617C13.5336 20.7129 13.5336 19.5819 13.5336 18.4376C12.7054 18.4421 11.8861 18.4421 11.0446 18.4421ZM29.3627 11.0106C30.0172 11.0106 30.6539 11.0284 31.2906 11.0017C31.6513 10.9884 31.8873 10.69 31.8873 10.3205C31.8917 9.63921 31.8917 8.95796 31.8873 8.2767C31.8828 7.85816 31.6068 7.58209 31.1882 7.56874C30.9433 7.55983 30.6984 7.56874 30.4535 7.56874C30.0929 7.56874 29.7322 7.56874 29.3582 7.56874C29.3627 8.72642 29.3627 9.85739 29.3627 11.0106ZM29.3716 18.451C29.3716 19.6086 29.3716 20.7396 29.3716 21.875C30.0261 21.875 30.6628 21.8928 31.2951 21.8661C31.6513 21.8528 31.8873 21.55 31.8917 21.1804C31.8962 20.5214 31.8962 19.8624 31.8917 19.199C31.8873 18.727 31.6157 18.4554 31.1482 18.4465C30.8008 18.442 30.4491 18.4465 30.1018 18.4465C29.8569 18.451 29.6165 18.451 29.3716 18.451Z" fill="white"/>
<path d="M29.3537 6.80288C29.9504 6.80288 30.5114 6.80288 31.0769 6.80288C32.0609 6.80288 32.6576 7.39954 32.662 8.37911C32.6665 8.99358 32.6665 9.61249 32.662 10.227C32.6576 11.1754 32.0476 11.7854 31.0992 11.7854C30.5292 11.7854 29.9593 11.7854 29.3716 11.7854C29.3716 13.7401 29.3716 15.6814 29.3716 17.6495C29.4473 17.6539 29.5229 17.6584 29.6031 17.6584C30.1151 17.6584 30.6272 17.6539 31.1392 17.6584C32.0342 17.6628 32.6487 18.2729 32.662 19.1678C32.6709 19.8224 32.6709 20.4724 32.662 21.127C32.6531 22.0309 32.0298 22.6364 31.1214 22.6409C30.5426 22.6453 29.9638 22.6409 29.3627 22.6409C29.3627 24.1013 29.3627 25.544 29.3627 27C27.1675 27 24.9991 27 22.7995 27C22.7995 25.5573 22.7995 24.1147 22.7995 22.6587C21.9001 22.6587 21.0274 22.6587 20.1279 22.6587C20.1279 24.1013 20.1279 25.544 20.1279 27C17.9283 27 15.7599 27 13.5603 27C13.5603 25.5618 13.5603 24.1191 13.5603 22.6631C12.7054 22.6631 11.8817 22.6631 11.0357 22.6631C11.0357 24.1102 11.0357 25.544 11.0357 27C8.84054 27 6.66321 27 4.46361 27C4.46361 25.5529 4.46361 24.1102 4.46361 22.6453C4.01835 22.6453 3.59535 22.6498 3.17681 22.6453C2.86512 22.6409 2.54899 22.6542 2.24621 22.6142C1.56051 22.5251 1.044 21.9774 1.02174 21.2873C0.995023 20.5392 0.99057 19.7867 1.02174 19.0387C1.05291 18.2639 1.69408 17.6851 2.4822 17.6762C3.05213 17.6673 3.62652 17.6762 4.19646 17.6762C4.2766 17.6762 4.35675 17.6762 4.45025 17.6762C4.45025 15.7081 4.45025 13.7579 4.45025 11.7898C3.90258 11.7898 3.36382 11.7943 2.8206 11.7898C2.61578 11.7898 2.40205 11.7943 2.20168 11.7587C1.52043 11.634 1.03955 11.0863 1.01729 10.3917C0.999475 9.66592 0.995023 8.93569 1.01729 8.20991C1.044 7.40399 1.66737 6.81624 2.47774 6.80734C3.04768 6.80288 3.62207 6.80734 4.192 6.80734C4.27215 6.80734 4.3523 6.80734 4.45916 6.80734C4.45916 6.41551 4.47252 6.04594 4.45471 5.68082C4.4369 5.23556 4.55712 4.83928 4.79756 4.46526C5.35859 3.58364 5.89736 2.68866 6.44948 1.79813C7.09511 0.756219 8.38637 0.747313 9.03645 1.78032C9.60639 2.68421 10.163 3.59254 10.7374 4.49642C10.9288 4.80366 11.0268 5.12425 11.0179 5.48491C11.009 5.91236 11.0179 6.34426 11.0179 6.78953C11.8639 6.78953 12.6876 6.78953 13.5514 6.78953C13.5514 6.58916 13.5692 6.38434 13.547 6.17952C13.4624 5.3825 13.6939 4.68789 14.1525 4.03335C14.6557 3.31203 15.0876 2.53727 15.5551 1.78923C16.2007 0.751766 17.4875 0.751766 18.1421 1.78923C18.6986 2.68421 19.2552 3.58364 19.8251 4.47861C20.03 4.80366 20.1324 5.14651 20.1235 5.52943C20.1146 5.94353 20.1235 6.35762 20.1235 6.78507C21.014 6.78507 21.8867 6.78507 22.795 6.78507C22.795 6.5758 22.8129 6.35762 22.7906 6.14835C22.7104 5.36469 22.9242 4.68789 23.3739 4.04226C23.877 3.32093 24.3089 2.54617 24.7765 1.79813C25.4354 0.733956 26.7178 0.733956 27.3857 1.79813C27.9556 2.70202 28.5167 3.61035 29.0866 4.51424C29.2647 4.7992 29.3582 5.10198 29.3537 5.44038C29.3493 5.88119 29.3537 6.32645 29.3537 6.80288ZM10.2787 26.2431C10.2787 26.1406 10.2787 26.0694 10.2787 25.9937C10.2787 19.1678 10.2787 12.342 10.2698 5.52053C10.2698 5.32016 10.1986 5.09308 10.0962 4.91497C9.5485 4.00664 8.97857 3.11166 8.41754 2.21223C8.06578 1.65565 7.48694 1.65565 7.13518 2.20777C6.55189 3.12947 5.96414 4.04671 5.39866 4.97731C5.29625 5.14651 5.23392 5.36469 5.23392 5.5606C5.22501 12.3687 5.22501 19.1812 5.22501 25.9893C5.22501 26.0694 5.22501 26.1451 5.22501 26.2341C6.91701 26.2431 8.58228 26.2431 10.2787 26.2431ZM19.3532 26.2431C19.3576 26.1585 19.3621 26.0872 19.3621 26.016C19.3621 19.1812 19.3621 12.3509 19.3576 5.51608C19.3576 5.32016 19.2953 5.10198 19.1929 4.93278C18.6452 4.02445 18.0753 3.12947 17.5142 2.23004C17.1491 1.6512 16.5658 1.6512 16.2052 2.23449C15.6352 3.15618 15.0608 4.07343 14.5043 5.00402C14.4019 5.17322 14.3395 5.3914 14.3395 5.58732C14.3262 12.3909 14.3173 19.1945 14.3128 25.9982C14.3128 26.0783 14.3128 26.1585 14.3128 26.2475C16.0093 26.2431 17.6745 26.2431 19.3532 26.2431ZM28.5879 26.2475C28.5924 26.1674 28.5968 26.105 28.5968 26.0471C28.5968 19.1856 28.5968 12.3241 28.5923 5.46264C28.5923 5.28899 28.5345 5.09308 28.441 4.94169C27.8888 4.0289 27.3189 3.12502 26.749 2.22113C26.3928 1.6512 25.8095 1.65565 25.4533 2.22559C24.8833 3.14728 24.3045 4.06007 23.7524 4.99067C23.6455 5.17322 23.5787 5.40476 23.5787 5.61849C23.5653 12.4132 23.5609 19.2079 23.5564 26.0026C23.5564 26.0828 23.5564 26.1585 23.5564 26.2475C25.2484 26.2475 26.9048 26.2475 28.5879 26.2475ZM20.1324 17.6495C21.0274 17.6495 21.9001 17.6495 22.7772 17.6495C22.7772 15.6903 22.7772 13.749 22.7772 11.8032C21.8867 11.8032 21.014 11.8032 20.1324 11.8032C20.1324 13.7534 20.1324 15.6948 20.1324 17.6495ZM13.538 11.8076C12.6876 11.8076 11.8639 11.8076 11.0357 11.8076C11.0357 13.7623 11.0357 15.7037 11.0357 17.6495C11.8772 17.6495 12.701 17.6495 13.538 17.6495C13.538 15.6948 13.538 13.7579 13.538 11.8076ZM20.1324 21.8706C21.0274 21.8706 21.9001 21.8706 22.7772 21.8706C22.7772 20.7173 22.7772 19.5819 22.7772 18.4421C21.8867 18.4421 21.014 18.4421 20.1324 18.4421C20.1324 19.5864 20.1324 20.7218 20.1324 21.8706ZM20.1368 7.58209C20.1368 8.73087 20.1368 9.86629 20.1368 11.0017C21.0318 11.0017 21.9045 11.0017 22.7772 11.0017C22.7772 9.84848 22.7772 8.71751 22.7772 7.58209C21.8867 7.58209 21.014 7.58209 20.1368 7.58209ZM4.44135 11.0151C4.44135 9.85293 4.44135 8.71751 4.44135 7.57319C3.76455 7.57319 3.10556 7.56428 2.44658 7.57764C2.0592 7.58655 1.78759 7.88042 1.78314 8.27225C1.77868 8.96241 1.77868 9.64811 1.78314 10.3383C1.78759 10.7034 2.02803 10.9973 2.39314 11.0106C3.06994 11.0284 3.74674 11.0151 4.44135 11.0151ZM4.45471 18.451C3.80017 18.451 3.1679 18.4465 2.53118 18.451C2.04584 18.4554 1.77868 18.7315 1.77868 19.2168C1.77868 19.8535 1.77868 20.4903 1.77868 21.127C1.77868 21.6212 2.05475 21.8973 2.54899 21.9017C3.11892 21.9062 3.68886 21.9017 4.25879 21.9017C4.32113 21.9017 4.38347 21.8928 4.45471 21.8884C4.45471 20.7441 4.45471 19.6175 4.45471 18.451ZM13.538 7.58655C12.6876 7.58655 11.8639 7.58655 11.0312 7.58655C11.0312 8.73532 11.0312 9.86629 11.0312 11.0106C11.8728 11.0106 12.701 11.0106 13.538 11.0106C13.538 9.86184 13.538 8.73087 13.538 7.58655ZM11.0446 18.4421C11.0357 18.4821 11.0268 18.5133 11.0268 18.54C11.0268 19.5997 11.0312 20.6595 11.0268 21.7192C11.0268 21.8661 11.0936 21.8884 11.2138 21.8884C11.9307 21.8839 12.652 21.8884 13.3688 21.8839C13.4223 21.8839 13.4802 21.8706 13.5336 21.8617C13.5336 20.7129 13.5336 19.5819 13.5336 18.4376C12.7054 18.4421 11.8861 18.4421 11.0446 18.4421ZM29.3627 11.0106C30.0172 11.0106 30.6539 11.0284 31.2906 11.0017C31.6513 10.9884 31.8873 10.69 31.8873 10.3205C31.8917 9.63921 31.8917 8.95796 31.8873 8.2767C31.8828 7.85816 31.6068 7.58209 31.1882 7.56874C30.9433 7.55983 30.6984 7.56874 30.4535 7.56874C30.0929 7.56874 29.7322 7.56874 29.3582 7.56874C29.3627 8.72642 29.3627 9.85739 29.3627 11.0106ZM29.3716 18.451C29.3716 19.6086 29.3716 20.7396 29.3716 21.875C30.0261 21.875 30.6628 21.8928 31.2951 21.8661C31.6513 21.8528 31.8873 21.55 31.8917 21.1804C31.8962 20.5214 31.8962 19.8624 31.8917 19.199C31.8873 18.727 31.6157 18.4554 31.1482 18.4465C30.8008 18.442 30.4491 18.4465 30.1018 18.4465C29.8569 18.451 29.6165 18.451 29.3716 18.451Z" stroke="white" stroke-width="0.4" mask="url(#path-1-outside-1_2490_2590)"/>
<path d="M7.67803 10.5119C7.00123 10.5119 6.46246 9.9687 6.45801 9.29636C6.45801 8.61956 7.01904 8.05853 7.69584 8.07189C8.36819 8.08079 8.90695 8.63292 8.9025 9.30526C8.9025 9.97315 8.35483 10.5119 7.67803 10.5119ZM7.67358 9.75052C7.91847 9.75497 8.1322 9.55015 8.13665 9.30526C8.1411 9.06037 7.94073 8.85109 7.69139 8.84219C7.43313 8.83328 7.21941 9.04256 7.21941 9.29636C7.22386 9.5457 7.42868 9.75052 7.67358 9.75052Z" fill="white"/>
<path d="M7.66958 21.3318C7.00169 21.3273 6.45847 20.7752 6.46292 20.1029C6.46737 19.435 7.02395 18.8873 7.68739 18.8918C8.35529 18.8962 8.90742 19.4439 8.90296 20.1118C8.90296 20.793 8.35529 21.3362 7.66958 21.3318ZM8.14156 20.1207C8.14601 19.8758 7.94119 19.671 7.69185 19.6621C7.43359 19.6576 7.21987 19.8669 7.22432 20.1207C7.22877 20.3656 7.43359 20.5704 7.68294 20.5659C7.93229 20.5659 8.13711 20.3656 8.14156 20.1207Z" fill="white"/>
<path d="M17.9147 20.1073C17.9191 20.7841 17.3804 21.3273 16.708 21.3318C16.0223 21.3362 15.4702 20.7886 15.4746 20.1073C15.4791 19.435 16.0223 18.8918 16.6947 18.8918C17.367 18.8873 17.9147 19.4305 17.9147 20.1073ZM16.7125 19.6621C16.4587 19.6531 16.2538 19.8402 16.2449 20.094C16.236 20.3478 16.4186 20.557 16.6679 20.5704C16.9262 20.5837 17.1444 20.3834 17.1488 20.1251C17.1533 19.8758 16.9618 19.671 16.7125 19.6621Z" fill="white"/>
<path d="M16.7085 10.5119C16.0317 10.5164 15.4885 9.98653 15.4796 9.30973C15.4707 8.63293 16.0273 8.0719 16.7041 8.0719C17.3764 8.07635 17.9196 8.61957 17.9196 9.29192C17.9152 9.97317 17.3853 10.5075 16.7085 10.5119ZM16.7041 8.84666C16.4503 8.8422 16.2499 9.03367 16.2454 9.28747C16.241 9.54127 16.428 9.74609 16.6773 9.75499C16.9356 9.7639 17.1493 9.56353 17.1493 9.30528C17.1493 9.04702 16.9579 8.85111 16.7041 8.84666Z" fill="white"/>
<path d="M26.0588 10.512C25.3864 10.5075 24.8477 9.95984 24.8477 9.28749C24.8521 8.6196 25.4042 8.06747 26.0721 8.07193C26.7445 8.07638 27.2921 8.62405 27.2921 9.29195C27.2966 9.9732 26.7489 10.5164 26.0588 10.512ZM26.0677 9.75057C26.3126 9.75057 26.5218 9.54575 26.5263 9.30085C26.5307 9.0426 26.317 8.83778 26.0588 8.84223C25.8139 8.84668 25.6091 9.05596 25.6135 9.30085C25.6135 9.5502 25.8228 9.75057 26.0677 9.75057Z" fill="white"/>
<path d="M26.0771 21.3319C25.4047 21.3319 24.857 20.7931 24.8526 20.1207C24.8481 19.4439 25.4047 18.8829 26.0815 18.8874C26.7494 18.8918 27.2971 19.4439 27.2971 20.1118C27.2926 20.7842 26.7494 21.3274 26.0771 21.3319ZM26.0726 20.5705C26.3219 20.5705 26.5268 20.3656 26.5312 20.1207C26.5357 19.8669 26.3219 19.6577 26.0637 19.6621C25.8143 19.6666 25.614 19.8758 25.6184 20.1207C25.614 20.3656 25.8232 20.5705 26.0726 20.5705Z" fill="white"/>
</svg>
