<svg width="64" height="64" viewBox="0 0 64 64" fill="none" xmlns="http://www.w3.org/2000/svg">
<path d="M32 0C49.6552 0 64 14.3613 64 32.0368C63.9264 49.7123 49.5816 64 32 64C14.2713 63.9264 0 49.565 0 31.9632C0 14.2877 14.4184 0 32 0ZM32 61.4223C48.2575 61.4223 61.4253 48.2394 61.4253 32.0368C61.4253 15.7606 48.331 2.65132 32 2.57768C15.7425 2.50403 2.50115 15.7606 2.57471 32.0368C2.57471 48.2394 15.7425 61.4223 32 61.4223Z" fill="#D74238"/>
<path d="M33.3233 30.7111C34.3532 30.7111 35.3095 30.7111 36.1922 30.7111C38.9876 30.7111 41.8566 30.7111 44.652 30.7111C45.6819 30.7111 46.2704 31.4476 45.9761 32.3314C45.829 32.9206 45.3141 33.2152 44.5784 33.2152C41.0474 33.2152 37.5164 33.2152 33.9853 33.2152C33.7647 33.2152 33.544 33.2152 33.2497 33.2152C33.2497 33.5097 33.2497 33.7307 33.2497 33.9516C33.2497 37.4131 33.2497 40.8745 33.2497 44.336C33.2497 44.5569 33.2497 44.7779 33.1761 44.9988C33.029 45.588 32.5141 46.0299 31.9256 46.0299C31.3371 46.0299 30.8221 45.588 30.675 44.9988C30.6014 44.7779 30.6014 44.5569 30.6014 44.336C30.6014 40.8745 30.6014 37.4867 30.6014 34.0253C30.6014 33.8043 30.6014 33.5834 30.6014 33.2152C30.3807 33.2152 30.1601 33.2152 29.9394 33.2152C26.4083 33.2152 22.8037 33.2152 19.2727 33.2152C18.3899 33.2152 17.875 32.7733 17.875 31.9631C17.875 31.2267 18.3899 30.6375 19.1991 30.6375C20.4497 30.6375 21.6267 30.6375 22.8773 30.6375C25.452 30.6375 27.9532 30.6375 30.675 30.6375C30.675 30.4165 30.675 30.1956 30.675 29.9747C30.675 26.5132 30.675 23.0518 30.675 19.5903C30.675 19.3694 30.675 19.2221 30.675 19.0011C30.7486 18.3383 31.3371 17.8228 31.9256 17.8228C32.5876 17.8228 33.1026 18.3383 33.1761 19.0011C33.1761 19.2221 33.1761 19.3694 33.1761 19.5903C33.1761 23.0518 33.1761 26.4396 33.1761 29.901C33.3233 30.1956 33.3233 30.4165 33.3233 30.7111Z" fill="#D74238"/>
</svg>
