<svg width="50" height="50" viewBox="0 0 50 50" fill="none" xmlns="http://www.w3.org/2000/svg">
<rect x="1" y="1" width="48" height="48" rx="24" fill="#0052A3" stroke="#0052A3" stroke-width="2"/>
<path d="M37.6228 25.9876C35.6166 25.9876 33.6806 25.9876 31.7245 25.9876C31.7245 27.8986 31.7245 29.8095 31.7245 31.7405C32.9182 31.7405 34.1219 31.7405 35.3909 31.7405C35.0197 31.4597 34.6937 31.2239 34.3727 30.9731C34.2674 30.8929 34.1671 30.8026 34.0918 30.6973C33.9715 30.5267 33.9965 30.3462 34.132 30.1907C34.2624 30.0453 34.4279 30.0051 34.6084 30.0804C34.6937 30.1155 34.774 30.1656 34.8442 30.2208C35.5464 30.7424 36.2536 31.264 36.9558 31.7957C37.362 32.1067 37.367 32.3725 36.9608 32.6734C36.2435 33.2051 35.5213 33.7317 34.794 34.2533C34.5382 34.4389 34.3175 34.4439 34.152 34.2985C33.9163 34.0878 33.9414 33.7969 34.2273 33.5712C34.5382 33.3305 34.8592 33.1048 35.1752 32.8741C35.2304 32.8339 35.2805 32.7838 35.3708 32.7085C34.1219 32.7085 32.9232 32.7085 31.6944 32.7085C31.6894 32.8088 31.6793 32.9041 31.6793 32.9994C31.6793 34.0026 31.6793 35.0057 31.6793 36.0088C31.6793 37.2727 30.9471 38 29.6831 38C26.1822 38 22.6763 38 19.1754 38C17.9316 38 17.2143 37.2828 17.2093 36.0389C17.2043 35.0257 17.2093 34.0176 17.2093 33.0045C17.2093 32.9142 17.2093 32.8239 17.2093 32.7085C15.1329 32.7085 13.0815 32.7085 11.005 32.7085C11.005 32.3926 11.005 32.1067 11.005 31.7907C11.1053 31.7857 11.2006 31.7756 11.2959 31.7756C13.1617 31.7756 15.0225 31.7756 16.8883 31.7756C17.1993 31.7756 17.2244 31.7506 17.2244 31.4546C17.2193 29.7343 17.2143 28.0089 17.2093 26.2886C17.2093 26.1983 17.2093 26.108 17.2093 25.9826C15.8802 25.9826 14.5711 25.9826 13.247 25.9826C13.247 25.6616 13.247 25.3707 13.247 25.0547C13.3373 25.0497 13.4276 25.0447 13.5128 25.0397C14.6313 25.0397 15.7548 25.0296 16.8733 25.0397C17.104 25.0397 17.2093 24.9695 17.2093 24.7287C17.2043 22.9482 17.2043 21.1676 17.2043 19.3871C17.2043 19.362 17.1943 19.3369 17.1842 19.2767C15.1329 19.2767 13.0714 19.2767 11 19.2767C11 18.9507 11 18.6648 11 18.3288C11.2157 18.3288 11.4163 18.3288 11.6119 18.3288C13.3523 18.3288 15.0877 18.3288 16.8281 18.3288C17.1893 18.3288 17.2244 18.2786 17.2193 17.9225C17.2093 16.8843 17.1893 15.8511 17.2143 14.8129C17.2394 13.6944 17.9717 13.0072 19.0952 13.0022C22.6563 12.9972 26.2173 13.0022 29.7784 13.0022C30.937 13.0022 31.6743 13.7445 31.6793 14.9031C31.6844 16.0066 31.6844 17.11 31.6844 18.2134C31.6844 18.2285 31.6894 18.2486 31.6994 18.2837C32.9082 18.2837 34.1169 18.2837 35.3909 18.2837C35.0398 18.0178 34.7288 17.7871 34.4179 17.5514C34.3125 17.4711 34.1972 17.3909 34.1169 17.2906C33.9765 17.11 33.9815 16.9144 34.132 16.7389C34.2724 16.5733 34.458 16.5432 34.6536 16.6385C34.7589 16.6887 34.8492 16.7639 34.9445 16.8342C35.6066 17.3307 36.2736 17.8222 36.9307 18.3188C37.372 18.6498 37.367 18.9206 36.9206 19.2467C36.2285 19.7582 35.5313 20.2648 34.8342 20.7664C34.7489 20.8316 34.6486 20.8817 34.5483 20.9219C34.3476 20.9971 34.1871 20.9219 34.0718 20.7513C33.9564 20.5908 33.9564 20.4153 34.0868 20.2648C34.1821 20.1545 34.3025 20.0592 34.4229 19.9689C34.7238 19.7432 35.0247 19.5225 35.3758 19.2667C34.127 19.2667 32.9332 19.2667 31.7195 19.2667C31.7195 21.1726 31.7195 23.0886 31.7195 25.0196C33.6806 25.0196 35.6366 25.0196 37.6479 25.0196C37.2617 24.7337 36.9156 24.4779 36.5746 24.2171C36.4843 24.1469 36.389 24.0667 36.3288 23.9714C36.2134 23.8008 36.2385 23.6203 36.3739 23.4648C36.5043 23.3193 36.6648 23.2692 36.8504 23.3544C36.9407 23.3946 37.026 23.4497 37.1062 23.5099C37.8084 24.0315 38.5156 24.5582 39.2178 25.0848C39.604 25.3757 39.599 25.6566 39.2128 25.9425C38.4855 26.4741 37.7582 27.0108 37.021 27.5324C36.9006 27.6177 36.715 27.6829 36.5896 27.6528C36.4642 27.6227 36.3037 27.4722 36.2786 27.3469C36.2486 27.2114 36.3138 27.0008 36.4191 26.9105C36.715 26.6447 37.051 26.424 37.3771 26.1832C37.4322 26.1281 37.4974 26.0779 37.6228 25.9876ZM29.9339 13.9401C29.9339 21.6642 29.9339 29.3681 29.9339 37.0721C30.4305 37.0069 30.6662 36.7963 30.7514 36.3398C30.7765 36.2195 30.7866 36.0891 30.7866 35.9687C30.7866 28.9569 30.7866 21.9501 30.7815 14.9383C30.7815 14.7426 30.7364 14.537 30.6612 14.3564C30.5308 14.0505 30.27 13.9151 29.9339 13.9401ZM26.5684 13.9201C26.5584 14.0505 26.5484 14.1658 26.5484 14.2812C26.5484 21.7193 26.5484 29.1575 26.5484 36.5956C26.5484 36.711 26.5534 36.8314 26.5885 36.9417C26.6086 37.0069 26.6938 37.0872 26.754 37.0972C26.9296 37.1173 27.1101 37.1022 27.2957 37.1022C27.2957 29.3581 27.2957 21.6441 27.2957 13.9201C27.0549 13.9201 26.8343 13.9201 26.5684 13.9201ZM28.2236 13.9251C28.2236 14.0405 28.2236 14.1307 28.2236 14.221C28.2186 18.2235 28.2136 22.2259 28.2136 26.2284C28.2136 29.5688 28.2136 32.9142 28.2136 36.2546C28.2136 36.4401 28.2186 36.6207 28.2286 36.8063C28.2436 37.0771 28.3239 37.1373 28.6198 37.1273C28.986 37.1122 28.986 37.1122 28.986 36.7963C28.986 29.2678 28.986 21.7394 28.986 14.211C28.986 14.1207 28.986 14.0304 28.986 13.9251C28.7201 13.9251 28.4944 13.9251 28.2236 13.9251ZM24.9333 25.9826C24.9333 29.6992 24.9333 33.3806 24.9333 37.0721C25.1791 37.0721 25.4048 37.0721 25.6355 37.0721C25.6355 33.3656 25.6355 29.6741 25.6355 25.9826C25.3948 25.9826 25.1691 25.9826 24.9333 25.9826ZM25.6405 25.0146C25.6405 21.3131 25.6405 17.6216 25.6405 13.9251C25.3948 13.9251 25.1691 13.9251 24.9384 13.9251C24.9384 17.6316 24.9384 21.3181 24.9384 25.0146C25.1791 25.0146 25.4048 25.0146 25.6405 25.0146ZM18.1322 19.2667C18.1322 21.2027 18.1322 23.1037 18.1322 24.9945C18.1623 25.0046 18.1773 25.0196 18.1924 25.0196C18.3428 25.0246 18.4933 25.0246 18.6438 25.0246C18.9848 25.0296 18.9949 25.0196 18.9949 24.6786C18.9949 22.9833 18.9949 21.288 18.9949 19.5977C18.9949 19.5325 19.0099 19.4573 18.9848 19.4021C18.9598 19.347 18.8996 19.2767 18.8494 19.2767C18.6137 19.2567 18.383 19.2667 18.1322 19.2667ZM18.1272 31.7305C18.4231 31.7305 18.6839 31.7305 18.9547 31.7305C18.9547 29.8095 18.9547 27.9036 18.9547 25.9876C18.6689 25.9876 18.398 25.9876 18.1272 25.9876C18.1272 27.9136 18.1272 29.8145 18.1272 31.7305ZM24.0055 19.2667C23.8299 19.2667 23.6845 19.2767 23.539 19.2617C23.2983 19.2366 23.218 19.3219 23.223 19.5677C23.228 21.2629 23.223 22.9582 23.218 24.6585C23.218 24.7739 23.228 24.8892 23.2381 25.0296C23.3434 25.0296 23.4237 25.0296 23.5039 25.0296C24.0055 25.0296 24.0055 25.0347 24.0055 24.5331C24.0055 22.888 24.0055 21.2429 24.0055 19.5927C24.0055 19.4924 24.0055 19.3971 24.0055 19.2667ZM23.2331 25.9826C23.228 26.0578 23.223 26.098 23.218 26.1381C23.213 27.3268 23.208 28.5105 23.208 29.6992C23.208 30.301 23.213 30.9029 23.218 31.5048C23.218 31.6202 23.1979 31.7556 23.3735 31.7606C23.5641 31.7656 23.7547 31.7606 23.9553 31.7606C23.9553 29.8195 23.9553 27.9036 23.9553 25.9826C23.7146 25.9826 23.4838 25.9826 23.2331 25.9826ZM22.2851 31.7205C22.2851 29.7995 22.2851 27.8986 22.2851 25.9726C22.1146 25.9726 21.9541 25.9876 21.7986 25.9676C21.5879 25.9425 21.5328 26.0278 21.5328 26.2334C21.5428 27.8785 21.5328 29.5236 21.5378 31.1687C21.5378 31.7806 21.5127 31.7957 22.1998 31.7405C22.2299 31.7455 22.255 31.7305 22.2851 31.7205ZM22.2951 24.9945C22.2951 23.0836 22.2951 21.1927 22.2951 19.2868C22.0494 19.2868 21.8086 19.2868 21.5428 19.2868C21.5428 19.3821 21.5428 19.4724 21.5428 19.5626C21.5428 21.1827 21.5428 22.8027 21.5428 24.4177C21.5428 25.0698 21.5578 25.0848 22.2049 25.0196C22.2299 25.0196 22.25 25.0046 22.2951 24.9945ZM19.9127 24.9996C20.1635 24.9996 20.3842 24.9996 20.6099 24.9996C20.6099 23.0836 20.6099 21.1877 20.6099 19.2868C20.3691 19.2868 20.1434 19.2868 19.9127 19.2868C19.9127 21.2027 19.9127 23.0986 19.9127 24.9996ZM20.6149 31.7305C20.6149 29.7995 20.6149 27.8986 20.6149 25.9876C20.3742 25.9876 20.1434 25.9876 19.9127 25.9876C19.9127 27.9136 19.9127 29.8145 19.9127 31.7405C20.0933 31.7405 20.2588 31.7405 20.4243 31.7405C20.4845 31.7405 20.5447 31.7355 20.6149 31.7305ZM18.9949 13.9101C18.8595 13.9301 18.7692 13.9351 18.6839 13.9602C18.3378 14.0655 18.1071 14.3615 18.1071 14.7527C18.0971 15.9063 18.1021 17.0548 18.1021 18.2084C18.1021 18.2385 18.1171 18.2686 18.1322 18.3138C18.2977 18.3138 18.4532 18.3087 18.6137 18.3138C18.9648 18.3288 18.9949 18.3037 18.9949 17.9376C18.9949 16.7288 18.9949 15.515 18.9949 14.3063C18.9949 14.1909 18.9949 14.0756 18.9949 13.9101ZM18.9547 37.0621C18.9547 35.6176 18.9547 34.1681 18.9547 32.7136C18.6638 32.7136 18.398 32.7136 18.1222 32.7136C18.1171 32.7637 18.1071 32.7938 18.1071 32.8239C18.1071 33.9675 18.1021 35.111 18.1071 36.2546C18.1121 36.7311 18.4381 37.032 18.9547 37.0621ZM23.9854 13.905C23.8048 13.905 23.6393 13.9151 23.4738 13.9C23.2581 13.88 23.208 13.9652 23.208 14.1709C23.218 15.0887 23.213 16.0066 23.213 16.9244C23.213 17.3106 23.208 17.6918 23.228 18.073C23.2331 18.1633 23.3233 18.3087 23.3936 18.3188C23.5842 18.3539 23.7848 18.3288 23.9854 18.3288C23.9854 16.8442 23.9854 15.3897 23.9854 13.905ZM21.5578 13.905C21.5528 13.9953 21.5428 14.0806 21.5428 14.1608C21.5428 15.3796 21.5428 16.5984 21.5428 17.8172C21.5428 17.9025 21.5478 17.9827 21.5578 18.068C21.593 18.3087 21.6732 18.3388 22.0544 18.3288C22.265 18.3238 22.3102 18.2385 22.3102 18.0429C22.3002 16.7489 22.3052 15.4549 22.3052 14.1608C22.3052 14.0806 22.2951 14.0003 22.2901 13.9101C22.0393 13.905 21.8086 13.905 21.5578 13.905ZM22.2851 37.1022C22.2851 35.6226 22.2851 34.1681 22.2851 32.7136C22.0343 32.7136 21.8036 32.7136 21.5428 32.7136C21.5428 32.8189 21.5428 32.9092 21.5428 32.9994C21.5428 33.9023 21.5428 34.8051 21.5428 35.7029C21.5428 36.0941 21.5428 36.4853 21.5428 36.8815C21.5428 36.9969 21.5478 37.1072 21.7083 37.1072C21.8939 37.1022 22.0845 37.1022 22.2851 37.1022ZM23.9653 32.6935C23.8249 32.6935 23.6895 32.6935 23.5591 32.6935C23.223 32.6935 23.223 32.6985 23.218 33.0245C23.213 34.0527 23.213 35.0759 23.208 36.1041C23.208 36.3699 23.203 36.6408 23.218 36.9066C23.223 36.9718 23.3033 37.0771 23.3534 37.0821C23.549 37.1022 23.7497 37.0922 23.9603 37.0922C23.9653 35.6126 23.9653 34.1681 23.9653 32.6935ZM19.9228 13.895C19.9228 15.3646 19.9228 16.8241 19.9228 18.2837C20.1685 18.2837 20.3942 18.2837 20.635 18.2837C20.635 17.0097 20.635 15.7608 20.635 14.5069C20.63 13.8449 20.63 13.8449 19.9228 13.895ZM20.6149 37.0771C20.6149 35.6176 20.6149 34.1731 20.6149 32.7186C20.3691 32.7186 20.1434 32.7186 19.9177 32.7186C19.9177 34.1831 19.9177 35.6326 19.9177 37.0972C20.1134 37.0972 20.2839 37.0972 20.4594 37.0972C20.5046 37.0922 20.5547 37.0821 20.6149 37.0771Z" fill="white"/>
</svg>
