<svg width="22" height="24" viewBox="0 0 22 24" fill="none" xmlns="http://www.w3.org/2000/svg">
<path d="M11.1003 22.4197C11.4596 22.4191 11.8188 22.2837 12.0878 22.0137C12.3569 21.7437 12.5359 21.384 12.5352 20.9797L13.9727 20.9772C13.9741 21.7858 13.6609 22.4602 13.1228 23.0002C12.5398 23.5852 11.8665 23.8559 11.1028 23.8572C10.2942 23.8587 9.61989 23.5903 9.0798 23.0073C8.49486 22.4693 8.22415 21.7959 8.22272 20.9873L9.66022 20.9848C9.66093 21.3891 9.79633 21.7482 10.0663 22.0173C10.3363 22.2863 10.696 22.4205 11.1003 22.4197ZM20.4774 15.8895C20.7924 16.2034 21.0177 16.5624 21.1082 16.9666C21.1989 17.4156 21.1547 17.82 20.9757 18.2246C20.7967 18.6292 20.5727 18.9441 20.2137 19.1693C19.8548 19.4395 19.4506 19.53 19.0014 19.5308L3.18895 19.5587C2.73973 19.5595 2.33527 19.4703 1.97543 19.2014C1.61566 18.9775 1.34557 18.6635 1.16517 18.2595C0.984772 17.8555 0.98406 17.4512 1.07311 17.0018C1.16224 16.5974 1.3413 16.2377 1.70012 15.9226C2.4176 15.2026 2.9554 14.4829 3.2685 13.7187C3.6709 12.6398 3.8929 11.157 3.88949 9.22539C3.88744 8.05742 4.15507 6.97883 4.73731 5.98952C5.27463 5.00029 6.08172 4.14535 7.06889 3.5147C8.05606 2.88406 9.13348 2.47786 10.3462 2.38588L10.3448 1.57729C10.3445 1.3976 10.3891 1.21783 10.5236 1.08283C10.6581 0.947829 10.8377 0.857669 11.0623 0.857273C11.242 0.856957 11.4218 0.946484 11.5568 1.08101C11.6918 1.21554 11.782 1.39507 11.7823 1.57476L11.7837 2.38335C12.9518 2.47113 14.0756 2.87345 15.065 3.50062C16.0544 4.12778 16.8195 4.97995 17.4053 5.9672C17.9461 6.95453 18.2624 8.0321 18.2645 9.20007C18.2679 11.1317 18.4502 12.6138 18.9013 13.6911C19.1722 14.4543 19.7125 15.1721 20.4774 15.8895ZM18.9989 18.0933C19.3133 18.0928 19.5377 17.9576 19.672 17.6878C19.7614 17.4181 19.716 17.1487 19.491 16.9245C18.591 16.0725 17.9605 15.1752 17.5994 14.1876C17.0582 12.9756 16.8307 11.3139 16.827 9.2026C16.8252 8.21432 16.5541 7.31636 16.0585 6.46371C15.518 5.65607 14.843 4.98343 13.9437 4.49087C13.0444 3.99832 12.1005 3.73045 11.0673 3.73227C9.98921 3.73417 9.04632 4.00536 8.14876 4.50108C7.25119 4.99681 6.57855 5.67182 6.08584 6.48128C5.54828 7.33575 5.32525 8.23458 5.32699 9.22286C5.33071 11.3342 5.06411 12.9968 4.57219 14.2554C4.21447 15.1994 3.58715 16.099 2.69022 16.9541C2.42108 17.1792 2.37664 17.4488 2.51188 17.7181C2.60219 17.9874 2.82704 18.1218 3.18642 18.1212L18.9989 18.0933Z" fill="#494949"/>
</svg>
