<svg width="14" height="15" viewBox="0 0 14 15" fill="none" xmlns="http://www.w3.org/2000/svg">
<path d="M13.3984 1.87112C14 2.47269 14 3.42972 13.3984 4.03128L12.5781 4.85159L9.89844 2.17191L10.7188 1.35159C11.3203 0.750031 12.2773 0.750031 12.8789 1.35159L13.3984 1.87112ZM4.70312 7.36722L9.26953 2.80081L11.9492 5.4805L7.38281 10.0469C7.21875 10.211 7 10.3477 6.78125 10.4297L4.34766 11.2227C4.10156 11.3047 3.85547 11.25 3.69141 11.0586C3.5 10.8946 3.44531 10.6211 3.52734 10.4024L4.32031 7.96878C4.40234 7.75003 4.53906 7.53128 4.70312 7.36722ZM5.25 2.50003C5.71484 2.50003 6.125 2.91019 6.125 3.37503C6.125 3.86722 5.71484 4.25003 5.25 4.25003H2.625C2.13281 4.25003 1.75 4.66019 1.75 5.12503V12.125C1.75 12.6172 2.13281 13 2.625 13H9.625C10.0898 13 10.5 12.6172 10.5 12.125V9.50003C10.5 9.03519 10.8828 8.62503 11.375 8.62503C11.8398 8.62503 12.25 9.03519 12.25 9.50003V12.125C12.25 13.5742 11.0742 14.75 9.625 14.75H2.625C1.14844 14.75 0 13.5742 0 12.125V5.12503C0 3.67581 1.14844 2.50003 2.625 2.50003H5.25Z" fill="#0061C1"/>
</svg>
