<?xml version="1.0" encoding="utf-8"?>
<!-- Generator: Adobe Illustrator 26.3.1, SVG Export Plug-In . SVG Version: 6.00 Build 0)  -->
<svg version="1.1" id="Layer_2_1_" xmlns="http://www.w3.org/2000/svg" xmlns:xlink="http://www.w3.org/1999/xlink" x="0px" y="0px"
	 viewBox="0 0 512 512" style="enable-background:new 0 0 512 512;" xml:space="preserve">
<style type="text/css">
	.st0{fill:#FFFFFF;}
</style>
<path d="M-2287.4-1297.5c2.6,0.1,5.3,0.4,7.9,0.4c628.8,0,1257.5,0,1886.3,0c9.5,0,8.4-1.3,8.4,8.6c0.1,13.2-0.1,26.3,0.1,39.5
	c0.1,3.8-0.8,5.7-5,5.2c-1.6-0.2-3.3,0-5,0c-628.3,0-1256.5,0-1884.8,0c-2.7,0-5.3,0.2-8,0.4
	C-2287.4-1261.5-2287.4-1279.5-2287.4-1297.5z M-2253.4-1275.6c-1.7-1.1-3.5-2.2-6.2-4c2-0.2,2.4-0.2,2.9-0.3
	c1.2-0.4,2.3-0.9,3.5-1.3c-1-0.8-2-2.3-3.2-2.4c-3.2-0.4-6,0.4-6.5,4.3l0,0c-2.8,0.4-5.1,0.9-4.8,4.7c0.3,4-0.9,8.9,6.1,6.8
	c0.7-0.2,1.7,0.7,2.4,0.5c2.1-0.5,5-0.7,6-2.2c1-1.3-0.1-4.1-0.2-6.2c1,1.6,1.7,3.5,3,4.8c1.4,1.5,3.4,2.4,5.1,3.6
	c0.4-1.4,0.9-2.9,1.3-4.3c4.4,5.5,6.1,5.8,11.8,2.5c3.4,0.7,5.9,1.6,8.3,1.7c4.4,0.2,8.8-2.2,13.3,0c0.4,0.2,1.1-0.3,2.2-0.6
	c-1.6-2.1-3-3.8-4.3-5.6c1.3-1.6,2.4-3,4.3-5.5c-3.2,0.5-5.1,0.8-6.7,1c-0.9-1.9-1.9-3.7-2.8-5.6c-1.2,1.7-2.4,3.4-3.1,4.4
	c-3.6,0.7-7.1,1.4-11.5,2.2c-4.8-3.2-6.3-3.1-10.9,1.5c1.1-4.3-3.4-4.2-5.1-6.3C-2250.2-1279.7-2251.8-1277.6-2253.4-1275.6z
	 M-1667.6-1256.1c-0.2,0.6-0.4,1.2-0.6,1.8c3.6,1,7.3,2.7,10.9,2.7c18.3,0.3,36.6,0.2,54.9,0.2c12.5,0,24.9,0,37.4-0.1
	c3.9,0,7.7-0.9,10.9-4.6C-1592.4-1256.1-1630-1256.1-1667.6-1256.1z M-2235-1258.5c8.5-0.2,16.8-0.2,25.1-0.6c0.7,0,1.2-2.6,2.2-4.9
	c-9.9,0-18.3,0-27,0C-2234.8-1262.7-2234.9-1261-2235-1258.5z M-2236.8-1263.4c-5.7-0.5-10.9-1.1-16.2-1.3c-1.1,0-2.3,1.7-3.5,2.6
	c1,1.1,1.9,3,3.1,3.2c3.4,0.4,6.8,0.2,10.2,0c1-0.1,1.9-1,2.4-1.2c0.1,0.2,0.6,1.4,1.5,3.7
	C-2238.2-1259.5-2237.6-1261.2-2236.8-1263.4z M-1579.2-1269.8c-2.8-2.2-4.6-4.6-6-4.4c-1.6,0.2-3.9,2.7-3.9,4.3
	c0,1.5,2.3,4,3.9,4.3C-1583.9-1265.4-1582.1-1267.7-1579.2-1269.8z M-1578.5-1274.5c-0.5,0.2-1,0.4-1.5,0.5c0.9,2.9,1.7,5.8,2.6,8.7
	c0.5-0.1,0.9-0.1,1.4-0.2c0.6-1.3,1.2-2.6,1.9-4c0.9,1.5,1.6,2.8,3.2,5.4c1.2-4.3,1.9-7.1,2.7-10c-0.4-0.1-0.8-0.3-1.2-0.4
	c-0.7,1.3-1.5,2.6-2.2,3.9c-0.7-1.5-1.3-2.8-2.3-4.7c-1.1,2-1.8,3.3-2.7,4.7C-1577.4-1272.1-1577.9-1273.3-1578.5-1274.5z
	 M-1803.9-1259.2c0.6,0,1.2,0.1,1.7,0.1c1.7-0.9,4.1-1.3,4.8-2.6c2.3-4.2,2.4-8.5-4.1-6.7C-1803-1268-1803.1-1262.4-1803.9-1259.2z
	 M-2013.4-1260.6c-0.8-3.9-1.3-6.8-2.1-9.6c-0.2-0.7-1.6-1.5-2.3-1.4c-1,0.1-2.4,1-2.6,1.8c-0.4,2.5-1.3,5.5-0.2,7.4
	C-2019.9-1261.1-2016.4-1261.3-2013.4-1260.6z M-1872.6-1258.4c2.5-1.3,4.4-1.8,5.5-3.1c1.1-1.2,1.9-3.2,1.7-4.7
	c-0.2-1.1-2-2.5-3.3-2.8c-1.1-0.3-3.5,0.8-3.6,1.4C-1872.8-1264.7-1872.6-1261.7-1872.6-1258.4z M-2119.4-1259.2
	c0.6,0.2,1.2,0.4,1.7,0.6c2.2-2.7,8.5-2.4,5.9-8.4c-0.5-1.1-3.2-1.2-4.9-1.8C-2117.6-1265.6-2118.5-1262.4-2119.4-1259.2z
	 M-2153.3-1271.3c-3.5,2.1-8.3,2.6-6.3,8c1.3,3.5,3.9,2.5,6.3,1.5C-2153.3-1265-2153.3-1267.9-2153.3-1271.3z M-1905.8-1264.7
	c-2.5-2.1-3.9-4.1-5.5-4.3c-1.1-0.1-3.6,2.3-3.5,3.5c0.1,1.6,1.8,4.1,3.2,4.4C-1910.3-1260.9-1908.5-1263-1905.8-1264.7z
	 M-1779.8-1264.7c-2.5-2.1-3.9-4.1-5.5-4.3c-1.1-0.1-3.6,2.3-3.6,3.5c0.1,1.6,1.8,4.1,3.2,4.4
	C-1784.3-1260.9-1782.5-1262.9-1779.8-1264.7z M-1885-1261.9c0.6,0.1,1.2,0.2,1.8,0.3c0.6-1.5,1.2-3.1,1.9-5.1
	c0.6,2.2,1,3.8,1.3,5.3c0.4-0.1,0.8-0.1,1.1-0.2c0.4-1.5,0.8-3.1,1.4-5.4c0.6,2.5,1,4,1.4,5.5c0.6-0.1,1.2-0.2,1.8-0.3
	c-0.3-2.2-0.1-5.9-1.2-6.3c-2.5-1-5.8-1.2-8.3-0.3C-1884.7-1268-1884.6-1264.2-1885-1261.9z M-1704.5-1269.9c-0.6,0-1.2,0.1-1.8,0.1
	c-0.8,1.7-2.4,3.4-2.3,5c0.1,1.4,2.2,2.6,3.5,3.9c1.3-1.4,3.6-2.8,3.7-4.3C-1701.4-1266.7-1703.4-1268.3-1704.5-1269.9z
	 M-1628.9-1274.1c0,2.8,0,5.6,0,9.9c1.3-2.2,1.7-3,3-5.1c0.7,1.8,1.2,3.2,1.7,4.6C-1623.5-1274.7-1623.5-1274.7-1628.9-1274.1z
	 M-2048-1260.3c0.6,0,1.2,0,1.9,0c1-1.6,2.9-3.4,2.7-4.9c-0.3-1.5-2.6-2.7-4-4.1c-1.1,1.4-3.1,2.7-3.2,4.2
	C-2050.7-1263.5-2049-1261.9-2048-1260.3z M-1888.9-1269.9c-0.6,0-1.2,0-1.8,0c-1,1.6-2.9,3.4-2.7,4.9c0.2,1.5,2.5,2.7,3.8,4.1
	c1.2-1.3,3.3-2.6,3.3-4C-1886.3-1266.6-1888-1268.2-1888.9-1269.9z M-1945.7-1269.8c-0.6,0-1.2,0-1.8,0c-1,1.6-3,3.3-2.8,4.8
	c0.2,1.5,2.5,2.7,3.8,4.1c1.2-1.3,3.2-2.6,3.3-3.9C-1943.2-1266.5-1944.8-1268.2-1945.7-1269.8z M-1740.1-1264.8
	c-2.7-2.1-4.4-4.4-5.6-4.2c-1.5,0.3-3.4,2.5-3.7,4.1c-0.2,1.1,2.1,3.6,3.4,3.7C-1744.5-1261.1-1742.9-1263-1740.1-1264.8z
	 M-2125.2-1264.5c0.3-0.5,0.7-0.9,1-1.4c-1.3-1.1-2.4-2.9-3.9-3.2c-1-0.2-3.4,1.4-3.5,2.4c-0.2,1.7,0.4,4,1.5,5.1
	c0.8,0.8,3.1-0.1,4.7-0.2c-0.1-0.5-0.1-1-0.2-1.5c-1.1,0-2.2,0-3.3,0c0-0.2,0-0.4-0.1-0.6
	C-2127.7-1264.1-2126.4-1264.3-2125.2-1264.5z M-2103.2-1264.5c0.3-0.5,0.6-1,0.9-1.5c-1.3-1.1-2.6-3-3.9-3.1
	c-1.2-0.1-3.3,1.7-3.6,3c-0.3,1.4,0.6,3.7,1.7,4.5c1,0.7,3.1-0.1,4.7-0.3c-0.1-0.5-0.1-1-0.2-1.5c-1.1,0-2.2,0-3.3,0
	c0-0.2,0-0.4,0-0.5C-2105.6-1264.1-2104.4-1264.3-2103.2-1264.5z M-2086.4-1263.2c1.3-1.1,2.4-2.1,3.5-3.1c-1-1-2.1-2.9-2.9-2.7
	c-1.5,0.3-3.7,1.5-3.9,2.7c-0.3,1.6,0.6,3.8,1.8,4.9c0.8,0.7,3-0.3,4.5-0.5c-0.1-0.5-0.2-1-0.3-1.5
	C-2084.6-1263.4-2085.7-1263.3-2086.4-1263.2z M-1853.3-1264.5c0.3-0.5,0.7-1,1-1.5c-1.4-1.1-2.8-2.9-4.3-3.1
	c-1.1-0.1-3.1,2-3.3,3.3c-0.2,1.4,0.9,3.5,2.2,4.3c0.9,0.6,2.9-0.4,4.4-0.7c-0.1-0.5-0.3-1-0.4-1.4c-1,0.1-2.1,0.2-3.1,0.3
	c0-0.2-0.1-0.4-0.1-0.7C-1855.7-1264.1-1854.5-1264.3-1853.3-1264.5z M-2181.2-1261.6c0.5,0,1,0,1.5,0c1.5-1.6,3.1-3.3,4.7-5
	c-0.8-0.7-1.6-1.3-2.4-1.9c1.1-0.8,2-1.5,2.9-2.1c-0.1-0.4-0.3-0.8-0.4-1.2c-1.8,0.3-5,0.1-5.2,0.8
	C-2181-1268-2181-1264.8-2181.2-1261.6z M-1716.6-1268.7c0.2-0.6,0.3-1.3,0.5-1.9c-1.9-0.2-4.5-1.2-5.5-0.3c-4.9,4.5,2.3,4.7,3.6,8
	c-2.1-0.6-3.5-0.9-4.9-1.3c-0.2,0.4-0.5,0.9-0.7,1.3c1.5,0.7,2.9,1.8,4.4,1.9c1,0.1,3.1-1.7,3-1.9c-0.9-2.1-2.1-4.1-3.2-6.1
	C-1719-1268.9-1717.8-1268.8-1716.6-1268.7z M-1839.2-1261.4c0-0.7-0.1-1.4-0.1-2.1c-1,0-2,0.1-2.6,0.1c1-0.9,2.1-2,3.2-3
	c-1-0.9-2-2.5-3.1-2.7c-1.1-0.2-3.4,0.9-3.5,1.8c-0.3,1.7-0.2,4.3,0.9,5.3C-1843.5-1260.9-1841-1261.5-1839.2-1261.4z
	 M-1965.1-1266.6c-0.5-0.5-1-1.1-1.6-1.6c-0.4,1.5-1,2.9-1.2,4.4c-0.1,0.8,0.7,2.4,1.1,2.4c1.7,0.1,4.4,0.2,4.9-0.7
	c0.8-1.5,0.6-3.9-0.1-5.6c-0.4-0.9-2.7-1-4.2-1.2c-0.3,0-0.8,1.1-1.1,1.7C-1966.6-1266.9-1965.8-1266.8-1965.1-1266.6z
	 M-1633.7-1274.7c-0.6,0-1.3,0.1-1.9,0.1c-0.9,2.9-1.9,5.7-2.6,7.9c2.8,0.1,5,0.2,7.6,0.4
	C-1631.6-1268.9-1632.7-1271.8-1633.7-1274.7z M-1652.4-1272.6c1.8,0.3,2.9,0.5,4,0.7c0-0.6,0.1-1.2,0.1-1.8
	c-1.8,0.1-4.5-0.6-5.3,0.4c-3.3,4,2.9,3.3,3.5,6.2c-1.7-0.3-3-0.6-4.3-0.8c-0.1,0.5-0.2,1.1-0.3,1.6c1.7,0.3,3.4,0.7,5.1,0.7
	c0.6,0,1.8-1.8,1.7-2C-1649-1269.2-1650.5-1270.6-1652.4-1272.6z M-2266.8-1259.3c2.7,0.4,4.8,0.7,7.3,1.1c0.4-1.4,0.9-3.2,1.5-5.3
	c-3.3-0.3-6-0.6-8.9-0.8C-2266.8-1262.5-2266.8-1260.9-2266.8-1259.3z M-1591.3-1274.1c-0.3,0-0.7-0.1-1-0.1
	c-0.3,1.2-0.6,2.4-1.3,4.9c-1.4-2.5-2.4-4.2-3.3-5.8c-0.3,0.3-0.6,0.7-0.9,1c0,2.8,0,5.6,0,8.4c0.3,0,0.7,0,1,0.1
	c0.3-1.1,0.6-2.2,1-3.6c1.4,1.4,2.7,2.5,4.6,4.4C-1591.3-1268.6-1591.3-1271.3-1591.3-1274.1z M-1772.6-1263.2
	c1.1-1.1,2.2-2.1,3.3-3.1c-1.2-1-2.5-2.8-3.5-2.7c-1.4,0.2-3.5,1.9-3.6,3.1c-0.1,1.5,1.1,3.6,2.4,4.6c0.8,0.6,2.8-0.5,4.3-0.8
	c-0.1-0.5-0.3-1-0.4-1.4C-1771.1-1263.4-1772-1263.3-1772.6-1263.2z M-1826.8-1260.7c0.5-0.5,1-1,1.5-1.6c-1-2.3-2-4.5-3-6.8
	c-1.2,0.5-2.4,1.1-3.6,1.6c0.7,0.4,1.3,0.8,1.4,0.9c-0.6,1.2-1.2,2.6-1.9,4C-1830.5-1262-1828.7-1261.4-1826.8-1260.7z
	 M-2140.1-1261.7c0.5,0,0.9,0.1,1.4,0.1c0.5-1.7,0.9-3.4,1.4-5.1c0.3,0,0.6,0,0.9,0.1c0.5,1.7,0.9,3.3,1.5,5.6
	c2.7-5.9,2.3-6.5-5.2-10.1C-2140.1-1267.8-2140.1-1264.8-2140.1-1261.7z M-1640.3-1273.4c0-0.3-0.1-0.5-0.1-0.8c-1.7,0-3.3,0-5.3,0
	c0,2.8,0,5.5,0,8.3c1.9,0,3.5,0,6.1,0c-1.9-1.2-2.9-1.8-4.3-2.6c1.5-0.6,2.4-1,3.6-1.6c-1.4-0.5-2.4-0.9-4.2-1.5
	C-1642.6-1272.4-1641.5-1272.9-1640.3-1273.4z M-1613.2-1267.7c-1.9-0.3-3.6-0.3-5.2-0.9c-0.3-0.1-0.2-2.9,0.2-3
	c1.5-0.5,3.1-0.4,5-0.5c-1.4-2.9-4-3.5-5.7-1.5c-1.2,1.5-1.6,5.3-0.5,6.8C-1617.9-1264.3-1615.1-1264.7-1613.2-1267.7z
	 M-1691.5-1261.8c1.8,0,3.8,0,5.5,0c-0.1-2.1-0.2-4.3-0.3-6.5c-1.3-0.7-3.1-1.6-5.1-2.7C-1691.5-1267.9-1691.5-1265-1691.5-1261.8z
	 M-2158.8-1278.9c-2.5-1.9-3.8-3.8-4.9-3.7c-1.2,0.1-2.8,1.9-3.2,3.2c-0.2,0.8,1.6,2.9,2.6,3.1
	C-2163-1276.2-2161.5-1277.6-2158.8-1278.9z M-2069-1284.7c-1.8,2.7-3.5,4.1-3.3,5.3c0.2,1.2,2,2.7,3.4,3c0.7,0.2,2.7-1.8,2.7-2.9
	C-2066.1-1280.6-2067.5-1282-2069-1284.7z M-2121.9-1276.9c0.4,0.4,0.8,0.7,1.2,1.1c1.6-0.7,3.6-1,4.7-2.1c0.6-0.6,0.2-3.1-0.6-3.8
	c-0.8-0.8-3.7-1.1-3.9-0.8C-2121.3-1280.8-2121.5-1278.8-2121.9-1276.9z M-2152.8-1282.4c-2.2,0-3.9,0-5.8,0c0,2,0,3.8,0,5.8
	c1.9,0,3.7,0,5.8,0C-2152.8-1278.5-2152.8-1280.2-2152.8-1282.4z M-1818.9-1261.5c0.6-0.1,1.2-0.2,1.8-0.2c-0.4-2.2-0.4-4.7-1.5-6.6
	c-0.4-0.7-4.4-0.5-4.6,0.1c-0.7,2-0.5,4.3-0.6,6.5c0.5,0,0.9,0,1.4-0.1c0.4-1.6,0.8-3.2,1.3-4.8c0.3,0,0.6,0,0.9,0
	C-1819.9-1264.9-1819.4-1263.2-1818.9-1261.5z M-2135.4-1279.3c-2.6-1.8-3.9-3.5-5.1-3.3c-1.2,0.1-2.7,2-3,3.3
	c-0.2,0.8,1.7,2.9,2.8,2.9C-2139.4-1276.3-2138.1-1277.7-2135.4-1279.3z M-1815.7-1269.8c0.5,4.8,0.8,8.1,1.2,11.4
	c0.5,0.2,0.9,0.4,1.4,0.6c1.3-3.3,2.5-6.7,3.8-10c0.1-0.1-0.4-0.5-0.8-1c-0.9,1-1.7,1.8-2.4,2.6
	C-1813.4-1267.1-1814.1-1268-1815.7-1269.8z M-1936.1-1261.6c0.6-0.1,1.1-0.2,1.7-0.3c-0.4-2.2-0.4-4.7-1.4-6.5
	c-0.4-0.7-4.4-0.6-4.7,0c-0.8,2-0.7,4.4-0.9,6.7c0.5,0.1,1,0.1,1.6,0.2c0.5-1.7,1-3.4,2-6.5C-1937-1265-1936.5-1263.3-1936.1-1261.6
	z M-1740.8-1261.9c0.7,0.1,1.3,0.3,2,0.4c0.5-1.7,1-3.4,1.9-6.5c0.9,3.1,1.4,4.8,1.8,6.5c0.5-0.1,1-0.1,1.6-0.2
	c-0.3-2.1-0.1-4.5-1-6.3c-0.5-0.8-4.3-1.1-4.6-0.5C-1740.2-1266.6-1740.3-1264.2-1740.8-1261.9z M-2165.5-1266.6c0.4,0,0.7,0,1.1,0
	c0.4,1.7,0.9,3.3,1.3,5c0.6-0.1,1.3-0.3,1.9-0.4c-0.6-2.2-0.7-4.8-1.9-6.6c-0.4-0.7-4.5-0.2-5,0.7c-0.9,1.6-0.2,4.1-0.2,6.1
	c0.6,0,1.1,0,1.7,0C-2166.2-1263.3-2165.8-1264.9-2165.5-1266.6z M-2027.1-1266.8c-1.5-1.4-1.5-1.4-3.6,3.3
	c-0.9,0.1-1.7,0.1-2.6,0.1c0,0.6,0.1,1.2,0.1,1.9c1.8-0.2,3.7-0.4,5.5-0.6c-0.5-1.5-0.9-3.1-1.4-4.6
	C-2029.3-1266.6-2028.5-1266.7-2027.1-1266.8z M-1993.7-1268.4c-0.6,0-1.2,0.1-1.9,0.1c0.4,2.1,0.3,4.6,1.4,6.3
	c0.5,0.8,4.5,0.6,4.7,0c0.8-1.9,0.5-4.2,0.6-6.3c-0.5,0-0.9,0-1.4-0.1c-0.5,1.6-0.9,3.2-1.4,4.8c-0.3,0-0.6,0-0.9,0
	C-1992.8-1265.1-1993.2-1266.7-1993.7-1268.4z M-1928.9-1266.5c0.5-0.3,1.1-0.6,1.7-0.9c-0.8-0.6-1.8-1.9-2.5-1.8
	c-6,1.5-2.3,3.8-0.5,5.8c-0.8-0.1-1.7-0.1-2.5-0.2c-0.1,0.4-0.2,0.8-0.3,1.3c1.3,0.4,2.6,1.2,3.9,1.1c0.8-0.1,2.3-1.5,2.2-2.1
	C-1927.1-1264.4-1928.2-1265.5-1928.9-1266.5z M-1984.7-1263.4c-0.3,0.1-1.1,0.2-2,0.4c0.4,0.6,0.8,1.7,1.2,1.7
	c1.4,0,2.8-0.4,4.1-0.6c-0.3-1.3-0.5-2.5-0.8-3.8c-0.1-0.3-0.5-0.9-0.4-0.9c2.5-1.6,0.8-2.4-0.7-2.5c-1.1-0.1-3.2,1.1-3.2,1.5
	C-1986.1-1266.1-1985.2-1264.7-1984.7-1263.4z M-1611-1265.8c2.3-5.4,4.4-4.4,6.6,1.3c0-4.2,0-6.9,0-10.1c-1.4,1.7-2.3,2.8-3.2,3.9
	c-1-1.2-2-2.4-3.4-4.1C-1611-1271.4-1611-1268.6-1611-1265.8z M-2042.1-1262c0.6,0.1,1.1,0.2,1.7,0.4c0.6-1.6,1.3-3.2,2.1-5.2
	c0.8,2.2,1.4,3.7,1.9,5.3c0.5-0.2,1-0.3,1.6-0.5c-0.5-2.2-0.7-4.6-1.7-6.5c-0.3-0.6-3.7-0.6-3.9-0.1
	C-2041.4-1266.6-2041.6-1264.2-2042.1-1262z M-2106.3-1283.3c-0.6,0-1.2,0.1-1.8,0.1c-0.5,1.2-1.7,2.6-1.5,3.6
	c0.3,1.3,1.7,2.3,2.7,3.4c0.9-1,2.5-2.1,2.6-3.2C-2104.3-1280.7-2105.6-1282-2106.3-1283.3z M-1693.7-1267.2c0.1-0.5,0.1-1,0.2-1.5
	c-1.9,0.2-4.7-0.2-5.4,0.9c-0.9,1.4-0.8,4.3,0.1,5.7c0.6,0.9,3.5,0.4,5.4,0.5c-0.1-0.4-0.1-0.7-0.2-1.1c-1.4-0.8-2.8-1.7-4.2-2.5
	C-1696.5-1265.8-1695.1-1266.5-1693.7-1267.2z M-2052.9-1267.2c0.2-0.5,0.3-0.9,0.5-1.4c-1.9,0.1-5-0.2-5.3,0.5
	c-0.8,1.8-0.5,4.3,0.2,6.2c0.2,0.6,3.4,0,5.2-0.1c-0.1-0.3-0.3-0.7-0.4-1c-1.3-0.7-2.7-1.4-4-2.1
	C-2055.6-1265.7-2054.2-1266.4-2052.9-1267.2z M-2075.3-1267.2c0.1-0.5,0.1-1,0.2-1.5c-1.9,0.3-4.6-0.1-5.3,0.9
	c-0.9,1.3-0.8,4.3,0.1,5.6c0.7,1,3.5,0.4,5.3,0.6c0-0.4-0.1-0.8-0.1-1.1c-1.3-0.7-2.6-1.5-3.9-2.2
	C-2077.8-1265.7-2076.6-1266.5-2075.3-1267.2z M-2145.7-1282.3c-3.1-0.8-5.4-1.1-5.1,2.5c0.1,1.3,1.5,3.5,2.3,3.5
	C-2143.6-1276.2-2146.7-1279.9-2145.7-1282.3z M-2136.2-1276.6c2.6,0,4.2,0,6.4,0c-0.6-2.2-0.8-4.1-1.6-5.8
	c-0.3-0.5-2.9-0.6-3.1-0.2C-2135.3-1280.9-2135.6-1279.1-2136.2-1276.6z M-1760.4-1268.5c-2.8,0.2-5.9-0.2-6.2,0.5
	c-0.7,1.9-0.2,4.2-0.1,6.3c1.8,0,3.6-0.1,5.4-0.1c-0.1-0.4-0.3-0.7-0.4-1.1c-1.3-0.6-2.6-1.2-3.8-1.7
	C-1764.3-1265.6-1763-1266.6-1760.4-1268.5z M-2051.3-1282.5c-1.4,0-3.1,0-5,0c0,2.1,0,4,0,6c2,0,3.6,0,5,0
	C-2051.3-1278.5-2051.3-1280.4-2051.3-1282.5z M-2087.3-1277.6c0.7,0.7,1.4,1.3,2.1,2c1.3-1,3.6-1.9,3.7-3.1
	c0.2-1.2-1.6-2.7-2.6-4.1C-2085.1-1281.1-2086.2-1279.4-2087.3-1277.6z M-1895.8-1267.2c0.1-0.5,0.2-1,0.3-1.4
	c-1.9,0.2-4.7-0.1-5.3,0.9c-0.9,1.4-0.7,4.2,0.2,5.7c0.5,0.9,3.4,0.3,5.2,0.4c-0.1-0.4-0.2-0.7-0.2-1.1c-1.3-0.7-2.7-1.4-4-2.2
	C-1898.3-1265.7-1897.1-1266.5-1895.8-1267.2z M-2182.4-1275.5c3-0.9,5.2-1,5.8-2c0.7-1.1,0.1-3.2-0.5-4.6c-0.2-0.5-2.9-0.7-3-0.4
	C-2180.9-1280.8-2181.3-1278.9-2182.4-1275.5z M-2058.5-1280.3c0-0.7,0.1-1.3,0.1-2c-1.7,0.1-3.9-0.3-4.9,0.6
	c-0.8,0.7-0.8,3.8,0.1,4.6c0.9,0.8,3.2,0.2,4.8,0.2c0-0.5-0.1-0.9-0.1-1.4c-1.1-0.3-2.1-0.6-3.2-0.9c0-0.2,0.1-0.4,0.1-0.7
	C-2060.6-1280-2059.5-1280.1-2058.5-1280.3z"/>
<path d="M-812.9-957c-83.8,0-167.6,0-251.4,0c-8.7,0-9.7-1-9.7-9.8c0-10.2,0-20.3,0-30.5c0-10.2,0.6-10.9,10.6-10.9
	c112.1,0,224.3,0,336.4,0c55.6,0,111.3,0,166.9,0c8,0,9.2,1.2,9.2,9.3c0,10.3,0,20.7,0,31c0,10.2-0.6,10.9-10.6,10.9
	C-645.3-957-729.1-957-812.9-957z M-860.7-984.7c-0.3-0.2-1.5-1.7-2.9-2.1c-1.8-0.5-5.3-0.5-5.4-0.1c-0.7,2.9-1,6.1-0.8,9.1
	c0.1,0.7,2.9,1.5,4.5,1.5c1.7,0,4.2-1.9,5-1.3c4.7,3.7,9.5-1.1,14,0.7c4.5,1.8,5.3-1.3,6.1-4.8c0.4,2.1,0.8,3.7,1.2,5.4
	c0.5,0,0.9,0.1,1.4,0.1c0.7-1.5,1.3-2.9,1.7-3.8c0.8,1.1,1.7,3.3,2.9,3.5c3.2,0.7,6.7,0.6,10,0.6c4.4,0,8.9-0.2,13.3-0.5
	c2.3-0.2,6.1,0,6.6-1.1c1.2-3.1,1.9-6.9-1.2-10.3c-3.4,3.7-7,3.7-11.4,3c-3.8-0.6-7.8,0.3-11.7,0.6c-0.6-1.1-1.2-2.2-2-3.6
	c-1.5,1.4-2.6,3.1-3.7,3.1c-5.5,0.2-11,0-16.5-0.1C-853-984.8-856.4-984.7-860.7-984.7z M-754.6-983.2c-3-5.9-10.7-5.8-15.2-0.3
	c-0.8-3.6-3-3.7-6.2-3.8c-3.1-0.1-6.1-0.8-6.9,2.5c-0.4,1.5,2,3.7,2.9,5.3c-0.4,0-1.8,0-3.2,0c-0.2,0.5-0.3,1-0.5,1.6
	c1.9,0.7,3.7,2,5.6,2c1.2,0,3.6-1.9,3.5-2.7c-0.3-1.9-1.7-3.6-2.5-5c2.7-0.5,3.9,1.7,4.8,4.6c0.4,1.1,1.8,2.3,3,2.6
	c0.7,0.1,1.9-1.3,2.7-2.3c0.6-0.8,0.9-1.8,1.5-3.1c1.3,5.4,5.4,7.7,8.6,5c1.2-0.9,1.5-3,1.9-4.7c0.1-0.3-2-1.6-2.7-1.3
	c-1.2,0.5-2.2,1.7-3.3,2.7c0-0.9,0-2.3,0-3.9C-758.5-983.6-756.9-983.4-754.6-983.2z M-743.4-981.3c-0.1,10,0,10,9.8,9.8
	c0.7,0,1.3,0,2-0.1c6.3-1,4-6,4-9.5c0-3.5,2.3-8.6-4-9.4c-2.4-0.3-5.1-0.6-7.4,0.1c-1.7,0.5-3.4,2.4-4.3,4.2
	C-743.9-984.9-743.4-982.9-743.4-981.3z M-792.5-976.4c0.3-1.5,0.7-3,1.3-5.8c0.5,2.5,0.4,3.8,1.1,4.7c0.4,0.6,2.2,0.9,2.6,0.5
	c1.7-1.5,0.4-7-1.8-7.7c-2.8-0.9-5.8-1.6-9-2.5c0,3.3,0,7,0,10.8C-796.3-976.4-794.5-976.4-792.5-976.4z M-894-989.9
	c-0.5,0.3-1.1,0.7-1.6,1c2.6,2.5,5.3,6.9,7.9,6.8c3-0.1,5.8-4.2,8.7-6.5c-0.5-0.6-0.9-1.1-1.4-1.7c-2.2,1.7-4.3,4.7-6.5,4.7
	C-889.3-985.6-891.6-988.3-894-989.9z M-877.7-977.1c0-0.5,0.1-0.9,0.1-1.4c-6.5,0-13,0-19.5,0c0,0.4,0,0.8,0,1.3
	C-890.7-975.8-884.2-976-877.7-977.1z"/>
<path class="st0" d="M220.5,307.5c1.4-1.7,2.2-2.8,3.1-3.7c42.5-42.5,85-85,127.5-127.6c4.2-4.2,8.9-6.5,14.9-4.9
	c9.9,2.6,13.9,14.1,7.7,22.3c-0.7,1-1.6,1.8-2.5,2.7c-46.4,46.4-92.9,92.9-139.3,139.3c-4.4,4.4-9.3,6.9-15.5,4.9
	c-2.3-0.8-4.7-2.2-6.4-3.9c-23.5-23.3-46.8-46.7-70.2-70.1c-6.1-6.1-6.2-14.8-0.4-20.5c5.7-5.7,14.5-5.5,20.5,0.5
	c19.3,19.2,38.5,38.4,57.7,57.6C218.5,305,219.2,306,220.5,307.5z"/>
<path d="M-2265.7-1323.1c1.1,1.4,1.9,2.4,2.7,3.4c-1-5.6-0.5-10.6,2.7-15.2c4.3-6.1,7.8-7.1,12.5-3.1c-2,0.2-3.9,0.5-6.4,0.8
	c10.3,2.7,15.2,8.1,15.8,16.2c0.3,3.9-2,5.2-5.7,6.2c0.8-1.6,1.3-2.8,2.2-4.5c-0.9,0.3-1.4,0.3-1.6,0.5c-5.8,5.4-11.9,6.4-18.7,3.5
	C-2265.8-1316.8-2267.2-1318.9-2265.7-1323.1z M-2252.5-1330.9c-3.6,0.7-8.2,0-9,5.1c-0.6,3.8,4,7.5,8.9,7.5c5.1,0.1,10-3.7,9.3-7.6
	C-2244.2-1330.9-2248.8-1330.2-2252.5-1330.9z"/>
<path d="M-1062.7-1137.9c-4.5,0-8.7-3.9-8.9-8.4c-0.2-3.8,4.4-9,8-9c5.8,0,10.2,3.5,10.4,8.5
	C-1052.9-1142.2-1057.5-1137.9-1062.7-1137.9z M-1068.2-1145c0.8,0.9,2.2,2.4,4.8,5.4c2.3-3,4.1-5.3,5.8-7.8c0.6-0.8,0.6-2,0.9-3
	c-1.1,0.2-2.4,0.1-3.4,0.6C-1062.4-1148.5-1064.8-1147-1068.2-1145z"/>
<path d="M-1964.7-1440.8c-5.3,0-10.2,0-15.4,0c0-5.1,0-10,0-15.3c5,0,10,0,15.4,0C-1964.7-1451.1-1964.7-1446.2-1964.7-1440.8z
	 M-1970.9-1453.2c-1.8,3.1-3.1,5.3-4.5,7.6c0.4,0.2,0.8,0.5,1.2,0.7c1.4-1.1,2.8-2.3,4.5-3.6
	C-1969.9-1449.5-1970.3-1450.9-1970.9-1453.2z"/>
<path d="M-2062.4-1456.5c8,0,8,0,8,8.3c0,7.6,0,7.6-8.6,7.6c-7.2,0-7.2,0-7.2-8.5C-2070.3-1456.5-2070.3-1456.5-2062.4-1456.5z
	 M-2066.3-1446.2c1.6,0,3.2-0.2,4.8,0c5.6,0.9,5.8,0.9,5-5C-2067.2-1452.7-2067.4-1452.6-2066.3-1446.2z"/>
<path d="M-2003.4-1150.9c0-3.4,0.2-5.7-0.1-8c-0.2-1.2-1.4-2.2-2.1-3.2c-0.7,1.1-1.7,2.2-1.9,3.4c-0.3,1.6,0.1,3.4-0.2,5
	c-0.2,0.8-1.3,1.4-2,2.1c-0.5-0.7-1.4-1.3-1.5-2.1c-0.2-1.6,0.2-3.4-0.2-5c-0.3-1.2-1.3-2.3-2-3.4c-0.7,1.1-1.8,2.1-2.1,3.3
	c-0.4,1.6,0.2,3.4-0.2,4.9c-0.3,1-1.6,1.8-3.3,3.6c0-6,0-10.2,0-14.2c5.2-0.3,10.1-0.8,14.9-0.7c1.4,0,3.7,1.6,4,2.9
	c0.7,3,0.5,6.3,0.3,9.4C-1999.9-1152.4-2001.6-1151.9-2003.4-1150.9z"/>
<path d="M-2152.7-1328c-2.6,2.5,1.6,7.8-4.3,8.8c0-5.3,0-10.1,0-14.9c2.7-0.1,2.7-0.1,10.6,7.6c0.1-3,0.2-5.3,0.3-7.6
	c3.8,0.1,4.6,4.2,2.7,15.7C-2146.9-1321.9-2149.8-1324.9-2152.7-1328z"/>
<path d="M-2191.5-1335.2c2.9,2.6,5.8,5.1,8.7,7.7c2.6-1.5-2.1-7.3,4.3-6.9c0,4.9,0,9.7,0,16.3c-3.9-3.9-6.9-6.9-10.8-10.7
	c0,2.6,0.2,4.3-0.1,5.9c-0.2,1.2-1,2.3-1.6,3.5c-0.7-1.1-1.9-2.1-2-3.2c-0.2-3.8-0.1-7.6-0.1-11.4
	C-2192.6-1334.4-2192-1334.8-2191.5-1335.2z"/>
<path d="M-1177.6-1379.5c7.1,0,7.1,0,7.1,6.6c0,6.6,0,6.6-7,6.6c-6.9,0-6.9,0-6.9-6.8C-1184.4-1379.5-1184.4-1379.5-1177.6-1379.5z
	 M-1181.8-1369.6c3.6-0.4,5.4-0.6,7.4-0.8c-0.1-1.5-0.3-3.3-0.5-6.1c-1.4,1.8-2.1,2.7-3,3.8c-0.4-1.4-0.7-3-0.9-3
	C-1184.2-1375.1-1177.9-1371.4-1181.8-1369.6z"/>
<path d="M-2203.9-1318.8c-4.5,0-8.3-3.8-8.2-8.2c0-4.4,3.9-8.1,8.4-8.1c4.5,0.1,8.2,3.8,8.2,8.3
	C-2195.5-1322.4-2199.3-1318.8-2203.9-1318.8z M-2205-1321.6c0.7,0,1.4,0.1,2.2,0.1c1.2-1.8,3.6-3.7,3.4-5.3
	c-0.2-1.8-2.7-3.3-4.2-4.9c-1.6,1.5-4.3,2.9-4.5,4.6C-2208.4-1325.5-2206.2-1323.4-2205-1321.6z"/>
<path d="M-2107.5-1325c-1.1,2.1-2,3.9-2.9,5.7c-0.6-2.1-1.5-4.3-1.7-6.4c-0.3-2.6-0.1-5.3-0.1-9.4c3.7,1,7.1,1.3,9.7,2.9
	c1,0.6,0.2,4.2-0.9,6.5c1.2,1.9,2.5,3.9,3.7,5.9C-2102.2-1319.7-2102.2-1319.7-2107.5-1325z"/>
<path d="M-2103.4-1163.2c-4.8-0.7-10.7-8.4-12.2,2c-0.5,3.2,0.6,6.5,4.4,6.4c2.4,0,4.7-2,7.8-3.4c-2.2,5.8-5,7.6-9.8,6.5
	c-4.6-1.1-6.2-4.5-6.2-9c0-4.4,1.6-7.9,6.3-8.9C-2108.2-1170.6-2105.6-1169-2103.4-1163.2z"/>
<path d="M-2097.3-1164.3c8-2.4,9.5-0.3,8.6,11.9c-3.4,0.6-3.2,0.6-3.6-2.5c-0.3-2.5,1.8-6.9-2.3-6.9c-4.5-0.1-2.2,4.5-2.8,7.1
	c-0.2,0.8-0.1,1.6-1.3,3.4c-0.8-1.1-2.2-2.1-2.3-3.2c-0.3-3.8-0.2-7.6,0-11.4c0.1-1.2,1.1-2.3,1.6-3.4c0.6,1.1,1.4,2.1,1.9,3.2
	C-2097.3-1165.7-2097.4-1165-2097.3-1164.3z"/>
<path d="M-2053.1-1155.9c-1.1,1.5-2.2,3.1-3.3,4.6c-2.6-13.3-1.9-17.5,1.9-17.9c0.2,2.6,0.3,5.1,0.5,7.9c2.5-1.6,4.7-2.9,6.9-4.3
	c0.3,0.4,0.6,0.8,0.9,1.2c-1.2,1.7-2.5,3.4-3.8,5.3c1.5,2.4,3,4.7,4.5,7c-0.4,0.4-0.7,0.8-1.1,1.3
	C-2048.9-1152.6-2051.1-1154.3-2053.1-1155.9z"/>
<path d="M-1996.8-1163.6c2.6-0.4,5.4-1.7,7.7-1c1.6,0.5,2.8,3.5,3.4,5.6c0.6,2.2,0.1,4.6,0.1,7c-2.6,0.2-5.1,0.8-7.3,0.3
	c-1.7-0.4-3.1-2.1-4.6-3.2c1.3-1.5,2.3-3.3,3.8-4.3c1.1-0.8,2.9-0.7,4.4-1c-0.1-0.6-0.1-1.2-0.2-1.8c-2.2,0.2-4.5,0.4-6.7,0.6
	C-1996.4-1162.2-1996.6-1162.9-1996.8-1163.6z"/>
<path d="M-2073.6-1157.7c-3.1,0.2-5.9,0.3-8.7,0.4c0.5,1.2,3.7,2.1,8.3,2.4c-1.7,4.2-5.3,3.9-8.4,3c-3.9-1.1-4.4-4.7-3.8-8.2
	c0.6-3.4,3-5.3,6.3-5.2C-2075.8-1165.1-2073.8-1162.5-2073.6-1157.7z"/>
<path d="M-2139.4-1319.4c-0.1-1.9-0.3-3.2-0.3-4.5c0-3.3,0-6.6,0-10c4.6-0.9,9.2-1.8,11.8,2.6c1.2,2.1,1.4,5.9,0.3,8.2
	C-2129.8-1318.5-2134.6-1319.2-2139.4-1319.4z M-2136.1-1322.7c4,0.6,6.3-0.9,6-4.7c-0.2-3.4-2.6-4.6-6-3.8
	C-2136.1-1328.3-2136.1-1325.5-2136.1-1322.7z"/>
<path class="st0" d="M-2187.4-1444.1c-2.3-3-2.3-5.9,0-8.9c2.8-0.2,5.7-0.9,8.2-0.2c1.3,0.4,2.5,3.5,2.4,5.4
	C-2177-1442.9-2181.9-1441.3-2187.4-1444.1z"/>
<path class="st0" d="M-2147.4-1444.1c-2.3-3-2.3-5.9,0-8.9c2.8-0.2,5.7-0.9,8.2-0.2c1.3,0.4,2.5,3.5,2.4,5.4
	C-2137-1442.9-2141.9-1441.3-2147.4-1444.1z"/>
<path d="M-1928.5-1151.3c-0.9-0.8-2.1-1.4-2.5-2.3c-0.4-1.2-0.1-2.6-0.1-3.9c0-7.5,1.4-9,8.4-7.6c1.5,0.3,3.4,2.3,3.9,3.8
	c0.7,2.5,0.3,5.3,0.2,7.9c0,0.6-1.1,1.7-1.7,1.7c-0.6,0-1.6-1-1.7-1.7c-0.3-1.6,0.2-3.4-0.2-4.9c-0.3-1.3-1.5-2.5-2.3-3.7
	c-0.9,1.3-2.3,2.5-2.6,3.9c-0.5,1.9-0.1,3.9-0.1,5.9C-1927.7-1152-1928.1-1151.6-1928.5-1151.3z"/>
<path d="M-1933.3-1158.4c0.1,4.5-2.3,6.9-6.5,6.9c-4.4,0-6.3-2.4-6.5-6.4c-0.2-4.2,2.5-7.3,6.3-7.4
	C-1936.1-1165.5-1933.3-1162.7-1933.3-1158.4z M-1935.8-1158.3c-1.7-1.8-2.8-3-3.9-4.2c-1,1.4-2.6,2.8-2.7,4.3
	c-0.1,1.2,1.7,2.5,2.7,3.7C-1938.6-1155.5-1937.5-1156.6-1935.8-1158.3z"/>
<path d="M-959.7-1030c-18.8,0-37.6,0-56.4,0c0-0.2,0-0.5,0-0.7c18.8,0,37.6,0,56.4,0C-959.7-1030.5-959.7-1030.3-959.7-1030z"/>
<path d="M-1060.2-628c-3.9,0-6.4,0-10,0c0.3-3.1,0.2-6.5,1.4-9.5c0.3-0.8,5.8-1.1,6.2-0.3C-1061.1-635-1060.9-631.5-1060.2-628z"/>
<path d="M-1741.3-1445.6c-2.3,3.5-5.4,5-9.3,2.7c-3.3-1.9-4.4-5-3-8.5c1.4-3.6,4.5-4.7,8.2-3.9c4.4,1,5.7,4.4,4,9.8
	c-1.1-1.7-1.9-4-3.5-5c-0.9-0.6-3.5,0.3-4.6,1.3c-0.7,0.6-0.8,3.2-0.1,3.9c0.8,0.8,2.7,0.7,4.1,0.7
	C-1744.2-1444.7-1742.7-1445.3-1741.3-1445.6z"/>
<path d="M-2114.7-1380c5.1,0,9.8,0,14.8,0c0,2.2,0,4.1,0,6c-4.8,0-9.6,0-14.8,0C-2114.7-1375.9-2114.7-1377.8-2114.7-1380z"/>
<path d="M-2033.4-1155.4c2.8,0.4,5.3,0.7,7.8,1.1c0.1-0.5,0.3-1.1,0.4-1.6c-1.2-0.4-2.7-0.6-3.6-1.4c-1.6-1.3-2.8-2.9-4.2-4.5
	c2-1.2,3.8-3.1,5.9-3.4c1.6-0.3,3.5,1.4,5.3,2.1c-0.2,0.5-0.3,1-0.5,1.5c-2.2-0.3-4.5-0.5-6.7-0.8c-0.1,0.5-0.2,1-0.3,1.5
	c1.6,0.5,3.3,0.7,4.6,1.6c1.3,0.9,3.1,2.5,3,3.7c-0.1,1.3-1.9,3.4-3.2,3.6C-2028-1151.2-2031.6-1150.6-2033.4-1155.4z"/>
<path d="M-1291.8-1443.5c-3.8,0.2-7.6,0.4-11.4,0.7c-0.2-0.6-0.5-1.1-0.7-1.7c1.7-3.5,3.3-7,5-10.5c0.6,0,1.2,0.1,1.9,0.1
	c2.2,3.2,4.5,6.5,6.7,9.7C-1290.8-1444.6-1291.3-1444.1-1291.8-1443.5z"/>
<path d="M-2060-1155.8c-1,4.5-4.6,5.1-7.6,3.9c-2.1-0.8-3.9-3.7-4.5-6.1c-0.9-3.4,1.2-6.2,4.7-7.1c3.4-1,6,0.4,7.8,4.1
	c-2.9,1.8-9.7-5.4-8.7,3.3C-2067.6-1150-2062.8-1158.3-2060-1155.8z"/>
<path d="M-1947.9-1161c-2.8,2.1-8.8-5.8-8.5,2.8c0.2,8.3,5.6,0.3,8.3,2.3c-0.4,4-3.2,4.6-6.5,4.4c-3.9-0.3-5.4-2.7-5.7-6.3
	c-0.3-3.8,1.5-6.6,5.2-7.3C-1951.8-1165.9-1949.1-1164.6-1947.9-1161z"/>
<path d="M-2099.9-1370.6c0,1.9,0,3.5,0,5.4c-4.9,0-9.7,0-14.8,0c-0.1-1.6-0.3-3.2-0.5-5.4C-2110-1370.6-2105-1370.6-2099.9-1370.6z"
	/>
<path d="M-2114.3-1334.2c-0.7,1.2-0.9,1.8-1.2,2c-1.5,0.8-3.1,1.5-4.7,2.3c1.5,0.9,3,1.8,4.5,2.7c-1.5,1.5-2.9,2.9-4.3,4.3
	c1.9,0.6,3.8,1.2,5.8,1.8c-0.1,0.5-0.2,0.9-0.3,1.4c-2.8,0-5.6,0-8.8,0c0-4.7,0-9.4,0-14.5
	C-2120.5-1334.2-2117.8-1334.2-2114.3-1334.2z"/>
<path d="M-2214.2-1331.7c-4.3-0.3-8.6-0.7-8.7,4.5c-0.2,5.6,4.3,5.2,8.3,5c0.2,0.5,0.4,0.9,0.6,1.4c-1.5,0.7-3.1,2-4.6,1.8
	c-4.1-0.3-7.3-2.2-7.9-6.9c-0.5-4.5,1.7-7.8,6.1-8.9C-2216.7-1335.6-2215.8-1335.2-2214.2-1331.7z"/>
<path class="st0" d="M-2008.6-1407.4c0.4,2.4,0.8,4.8,1.2,7.2c-2.9,0.4-5.8,1.5-8.5,1.2c-2.6-0.3-2.3-5.7,0.5-8.7
	C-2013.2-1407.6-2010.9-1407.5-2008.6-1407.4z"/>
<path d="M-2175.4-1334.2c3.4,0,6.1,0,8.8,0c0.1,0.3,0.3,0.6,0.4,1c-0.8,0.5-1.5,1-2.3,1.4c-1,0.6-2,1.1-3,1.7
	c0.9,0.6,1.9,1.2,2.8,1.8c0.5,0.3,1,0.6,2.3,1.5c-2.1,0.8-3.5,1.3-5,1.9c-0.1,0.6,0,1.3-0.3,1.8c-0.6,1.3-1.4,2.5-2,3.7
	c-0.6-1.3-1.5-2.6-1.6-4C-2175.6-1326.8-2175.4-1330.3-2175.4-1334.2z"/>
<path d="M-1249.1-1319.6c-0.8-0.6-1.8-1.1-2.5-1.8c-1.8-1.9-3.3-3.3-6.6-2.4c-3.6,1-6.4-1.6-7-5.4c-0.5-3.8,1.6-6.5,5.3-7.1
	c3.8-0.6,7.5,1.7,7,5.1c-0.7,5,1.5,7.8,5.1,10.6C-1248.2-1320.3-1248.6-1319.9-1249.1-1319.6z M-1259-1336.3c-2,2.9-4.4,4.8-4.1,6.2
	c0.4,1.8,2.9,3.1,4.5,4.6c1.4-1.6,3.7-3.1,3.8-4.7C-1254.6-1331.8-1256.9-1333.5-1259-1336.3z"/>
<path d="M-2261.2-1444.4c-4.5,3.5-8,4-10.6,1.4c-1.7-1.7-2.1-4.8-3.3-8.1C-2269.7-1448.5-2265.9-1446.7-2261.2-1444.4z"/>
<path d="M-1983.4-1152.3c0-4.8-0.1-9.5,0.1-14.3c0-1,1-1.9,1.6-2.9c0.7,0.9,1.9,1.7,2,2.6c0.2,4.3,0.2,8.6,0,12.8
	c-0.1,1-1.5,1.9-2.3,2.9C-1982.4-1151.5-1982.9-1151.9-1983.4-1152.3z"/>
<path d="M-1973.6-1169c0,5.6,0,11.2,0,16.8c-3.5,0.1-3.5,0.1-3.5-3.6C-1977.4-1169-1977.4-1169-1973.6-1169z"/>
<path d="M-987-1150.6c2.2,3,4.5,4.7,4.2,6.2c-0.3,1.8-2.3,4.2-4.1,4.7c-2.9,0.8-4.7-1.6-4.3-4.4
	C-990.8-1146-989.1-1147.6-987-1150.6z"/>
<path d="M-1620.8-1372.2c-1.8,1.7-3.9,3.8-6.1,5.8c-2.1-2-4.3-4.1-6.1-5.7C-1629.2-1377.4-1624.5-1376-1620.8-1372.2z"/>
<path d="M-2266.9-1366.4c-2.1-2-4.2-4-6.2-5.9c3.8-3.5,8.4-4.4,12.3,0.2C-2262.6-1370.4-2264.8-1368.4-2266.9-1366.4z"/>
<path d="M-1048.9-774.6c2.7,0.6,6.3-1.7,6.2,3.5c-0.2,6.6,0,6.6-6.2,6.2C-1048.9-767.8-1048.9-770.9-1048.9-774.6z"/>
<path d="M-2160.7-1319.5c-3.6-1-4.3-3.4-3.3-12.2c0.1-1.1,1.3-2.2,2-3.2c0.4,0.2,0.9,0.5,1.3,0.7
	C-2160.7-1329.4-2160.7-1324.6-2160.7-1319.5z"/>
<path d="M-2231.4-1319.3c-3.5-2.9-1.2-7.5-1.6-11.2c-0.1-1.3,1.1-2.8,1.7-4.3c0.5,0.2,1,0.4,1.6,0.6c0,4.7,0,9.5,0,14.2
	C-2230.3-1319.8-2230.8-1319.5-2231.4-1319.3z"/>
<path d="M-437-1329.1c0.6,9.2,0.1,9.9-5.4,8.7c1.5-0.4,2.8-0.7,4.1-1c0.1-0.4,0.3-0.8,0.4-1.3c-3.9,0.4-6.3-0.9-5.4-4.7
	C-442.4-1331.5-439.6-1329.9-437-1329.1z"/>
<path d="M-505.4-1320.4c2.4-0.4,3.7-0.6,4.5-0.8c-1.7-1.9-3.6-3.3-4.4-5.2c-0.3-0.7,1.8-2.5,2.8-3.7c1.2,1.1,3.4,2.1,3.6,3.4
	C-498.1-1320.9-499.4-1319.5-505.4-1320.4z"/>
<path d="M-1021.7-1140.5c-2,0.1-4.5,1.1-5.8,0.2c-1.3-0.9-2.1-3.7-1.8-5.4c0.3-1.2,2.9-2.8,4.3-2.7c1.5,0.1,2.8,2.1,5.2,4.2
	c-3.6,0.5-5.5,0.7-7.3,0.9c0,0.4,0,0.8,0,1.2c1.8,0.1,3.5,0.2,5.3,0.3C-1021.8-1141.3-1021.8-1140.9-1021.7-1140.5z"/>
<path d="M-1011.7-1143.9c-1.8,0.2-3.5,0.3-5.3,0.5c0,0.4-0.1,0.8-0.1,1.2c1.7,0.1,3.4,0.3,5.1,0.4c0.1,0.4,0.2,0.7,0.2,1.1
	c-1.9,0.3-4.3,1.3-5.5,0.5c-1.4-0.9-2.2-3.5-2.1-5.3c0.1-1.1,2.4-3.1,3.6-3c1.7,0.1,3.3,1.8,4.9,2.8
	C-1011.1-1145-1011.4-1144.4-1011.7-1143.9z"/>
<path d="M-441.1-1443.9c-0.8-9.5-0.1-10.2,9.1-9.4C-429.8-1446.6-432.1-1441.9-441.1-1443.9z M-440.2-1444.9c2.1,0,3.8,0,5.5,0
	c0-1.9,0-3.5,0-5.3c-1.9,0-3.6,0-5.5,0C-440.2-1448.4-440.2-1446.8-440.2-1444.9z"/>
<path d="M-786.8-1121.7c0.7,11.1,0,12.2-5.3,9.9c1.3-0.1,2.7-0.2,3.2-0.3c-1.5-2.4-2.9-4.5-4.2-6.7
	C-791.2-1119.6-789.3-1120.5-786.8-1121.7z"/>
<path d="M-933-1122.5c0,2.7,0,5.4,0,8.1c-5.5,1.2-9-2.6-5.4-5.7C-937-1121.3-935-1121.7-933-1122.5z"/>
<path d="M-1010.9-1110.6c0-3.8,0-6.4,0-10.3c2.1,0.5,5.1,0.2,5.8,1.4C-1001.6-1113.9-1008.6-1114.4-1010.9-1110.6z"/>
<path d="M-1962.4-1150.5c-1.9-1.5-3.5-2.2-3.6-3c-0.3-3.3-0.2-6.6,0-9.9c0-0.6,1.2-1.2,1.9-1.7c0.6,0.6,1.6,1.3,1.6,1.9
	C-1962.3-1159.6-1962.4-1155.9-1962.4-1150.5z"/>
<path d="M-2105.2-1445.2c-0.2,1.1-0.4,2.2-0.7,3.6c-3.8-2.4-5.4-5.5-3.8-9.5c1.5-3.7,4.3-5.7,9.2-4.9c-2.3,3.6-11.9,4.2-4.6,10.9
	C-2105.1-1445.1-2105.2-1445.2-2105.2-1445.2z"/>
<path d="M-497-1224.3c-2.2,1.9-3.4,3.3-3.9,3.2c-2.2-0.8-4.2-2.1-6.2-3.3c0.9-0.9,1.9-2.7,2.6-2.5
	C-502.4-1226.6-500.4-1225.5-497-1224.3z"/>
<path d="M-842.3-720.7c0-2.7,0-5.5,0-8.3c5.4-1.6,9.2,2,5.7,5.3C-837.9-722.3-840.1-721.8-842.3-720.7z"/>
<path d="M-414.1-1330.5c2.4,0.9,5.3,1.1,6,2.5c2.8,5.8-4,4.6-6,7.7C-414.1-1323.5-414.1-1326.2-414.1-1330.5z"/>
<path d="M-831.2-875.4c0-3.3,0-5.9,0-9.4c2,0.7,4.5,0.8,5,1.8c0.8,1.9,0.8,4.4,0.1,6.3C-826.4-875.8-829.2-875.8-831.2-875.4z"/>
<path d="M-943.6-765.6c0-2.4,0-5.3,0-9.3c2.2,0.7,4.2,1.3,6.1,1.9c-0.7,1.5-1.1,3.2-2.1,4.5C-940.6-767.3-942.1-766.6-943.6-765.6z"
	/>
<path d="M-2228.5-1452.3c3.2,0.4,6.3,0.2,9,1.2c1.5,0.5,2.3,3,3.4,4.5c-0.4,0.3-0.8,0.5-1.2,0.8c-0.5-0.8-0.9-1.7-1.4-2.5
	C-2224-1446.6-2228-1448.4-2228.5-1452.3z"/>
<path d="M-2029.9-1449.5c0-2.6,0-4.3,0-6.4c1.8,0,3.6,0,6.1,0c-0.1,1.8,0.5,4.2-0.5,5.3C-2025.2-1449.5-2027.7-1449.8-2029.9-1449.5
	z"/>
<path d="M-2013.2-1452.8c-2.3,1.4-3.8,2.9-4.6,2.6c-1.3-0.5-2.1-2.2-3.1-3.3c1.1-0.9,2.2-2.3,3.4-2.4
	C-2016.5-1455.9-2015.4-1454.4-2013.2-1452.8z"/>
<path d="M-913-723.5c0-2.7,0-5.6,0-8.8c1.3-0.1,2.6-0.5,3.5-0.1c1.2,0.5,2.8,1.5,2.9,2.5c0.1,1-1,2.4-2,3.3
	C-909.8-725.4-911.4-724.6-913-723.5z"/>
<path d="M-958.8-764c-0.8-1.5-2.5-3.1-2.3-4.4c0.2-1.4,2.2-2.6,3.4-3.9c1.1,1.2,2.9,2.4,3,3.8c0.1,1.4-1.4,3-2.2,4.5
	C-957.5-764-958.1-764-958.8-764z"/>
<path d="M-927.8-722c-0.8-1.5-2.5-3.1-2.3-4.4c0.2-1.4,2.2-2.6,3.4-3.9c1.1,1.3,2.9,2.4,3,3.8c0.1,1.4-1.4,3-2.2,4.5
	C-926.5-722-927.1-722-927.8-722z"/>
<path d="M-1038.1-1145.2c-1.8,0.4-3.1,0.7-4.4,0.9c-0.5,1.6-0.9,3.1-1.3,4.6c-0.3,0-0.7-0.1-1-0.1c0-3.7,0-7.4,0-11.4
	c2.2,0,4.6,0,8.4,0c-3,1.4-4.7,2.2-6.4,3C-1041.5-1147.4-1040.2-1146.5-1038.1-1145.2z"/>
<path d="M-979.5-1122.7c0,3,0,5.6,0,9.5c-2.5-1.3-5.8-1.8-6.3-3.3C-987.5-1121.8-981.7-1120.2-979.5-1122.7z"/>
<path d="M-807.6-1122.8c0,3.3,0,5.9,0,9.5c-2.4-1-5.6-1.4-6.2-2.8C-815.8-1121.4-809.8-1120.2-807.6-1122.8z"/>
<path d="M-1044.1-723.7c0-2.5,0-5.4,0-8.7c1.5,0,2.9-0.3,4,0.1c1,0.4,2.4,1.6,2.4,2.4c0,1.1-1,2.5-1.9,3.4
	C-1041-725.4-1042.7-724.6-1044.1-723.7z"/>
<path d="M-864.3-1122.5c0,2.7,0,5.3,0,9c-2.2-0.6-5.2-0.6-5.8-1.8C-872.7-1120.8-867.3-1120.7-864.3-1122.5z"/>
<path d="M-996.3-728.1c-0.1,1.7-0.3,3.4-0.4,5.1c-0.4,0-0.7,0-1.1,0c-0.1-2-0.2-3.9-0.4-6.9c3.4,0.2,6.7-0.1,9.6,0.7
	c0.9,0.3,0.7,3.9,1,5.9c-0.5,0.1-0.9,0.1-1.4,0.2c-0.2-1.8-0.4-3.6-0.6-5.4c-0.5-0.1-0.9-0.3-1.4-0.4c-0.6,1.8-1.3,3.5-1.9,5.2
	c-0.6-1.6-1.3-3.4-2-5.2C-995.3-728.6-995.8-728.4-996.3-728.1z"/>
<path d="M-1056.8-1117.5c-2.3,1.9-3.7,3.9-4.6,3.7c-1.5-0.4-3.3-2.1-3.5-3.5c-0.2-1.1,1.8-3.5,2.9-3.6
	C-1060.7-1121-1059.2-1119.2-1056.8-1117.5z"/>
<path d="M-853.8-1117.5c-2.3,1.9-3.7,3.9-4.6,3.6c-1.5-0.4-3.3-2.1-3.5-3.5c-0.2-1.1,1.8-3.5,2.9-3.6
	C-857.6-1121-856.2-1119.2-853.8-1117.5z"/>
<path d="M-992.7-1145.5c-2.4-0.6-3.7-0.9-5.6-1.3c0,1.9,0,3.4,0,5.2c1.7-0.3,3.2-0.5,5.1-0.8c-1.9,3.7-4.8,3.7-6.5,1.6
	c-1.2-1.4-1.4-5-0.3-6.4C-998.1-1149.7-995.2-1149.5-992.7-1145.5z"/>
<path d="M-822.3-1117.1c-2.3,1.6-3.9,3.5-4.8,3.3c-1.4-0.4-3-2.3-3.1-3.7c-0.1-1.1,2.1-3.5,3-3.4
	C-825.7-1120.7-824.5-1119-822.3-1117.1z"/>
<path d="M-1058-732.2c1.6,3,3.3,4.7,3.1,6.1c-0.2,1.3-2.4,2.3-3.7,3.5c-1-1.3-2.8-2.6-2.7-3.8
	C-1061.3-727.9-1059.7-729.3-1058-732.2z"/>
<path d="M-872.5-726.2c2.5-1.9,4.1-4,5.1-3.8c1.4,0.3,3,2.4,3.3,3.9c0.2,1-1.9,3.2-3.1,3.3C-868.5-722.7-869.9-724.5-872.5-726.2z"
	/>
<path d="M-980.4-1139.8c-0.2-2.6-0.3-5.2-0.5-8.7c2.9,0.3,6.3-0.2,7.4,1.1c1.3,1.7,0.7,4.9,1,7.5c-0.6,0.1-1.1,0.1-1.7,0.2
	c-0.2-1.3-0.3-2.6-0.7-3.8c-0.4-1.1-1.1-2-1.7-3c-0.6,1-1.4,1.9-1.7,3c-0.4,1.2-0.3,2.5-0.5,3.7
	C-979.3-1139.8-979.9-1139.8-980.4-1139.8z"/>
<path d="M-807-920.5c0-3.4,0-5.7,0-9.4c1.8,3.7,8,2.4,5.3,7.7C-802.2-921-805-921.1-807-920.5z"/>
<path d="M-974.8-1051.7c-1.9,0.3-4,0.3-5.6,1.2c-0.6,0.3-0.1,3,0.5,4.5c0.2,0.5,2.1,0.3,3.2,0.4c0-1,0-1.9,0-3.7
	c1.1,0.8,2.8,1.8,2.7,2c-0.6,1.3-1.6,3.3-2.4,3.3c-1.9-0.1-5.2-0.9-5.4-1.9c-0.4-2.3,0.1-5.2,1.4-7c0.6-0.9,3.8,0.1,5.9,0.3
	C-974.6-1052.3-974.7-1052-974.8-1051.7z"/>
<path d="M-1018.7-775.4c2.9,1.2,5.6,1.5,6.8,3c1,1.2,0.9,4.6-0.1,5.8c-1.3,1.5-4,1.8-6.7,2.8
	C-1018.7-767.9-1018.7-770.9-1018.7-775.4z M-1017.2-766.4c0.5,0.4,1.1,0.8,1.6,1.2c1.1-1.5,3.1-3.1,3-4.6c0-1.4-2.2-2.8-3.4-4.2
	c-0.4,0.3-0.8,0.6-1.3,0.9C-1017.2-770.9-1017.2-768.6-1017.2-766.4z"/>
<path d="M-1784.6-1368.8c-2.6-0.5-4-0.8-6.2-1.3c0.8-2.7,1.6-5.5,2.4-8.2c0.5,0,1.1-0.1,1.6-0.1
	C-1786-1375.1-1785.3-1371.9-1784.6-1368.8z"/>
<path class="st0" d="M-2008.6-1407.4c-2.3-0.1-4.5-0.2-6.8-0.3c1.1-1.8,2.1-3.5,3.2-5.3C-2011-1411.1-2009.8-1409.3-2008.6-1407.4z"
	/>
<path d="M-889-927.3c2,0.8,4.8,1,5.3,2.2c1.9,4.5-3,4.2-5.3,6.2C-889-921.5-889-923.9-889-927.3z"/>
<path d="M-774.6-929.8c0,3.6,0,5.9,0,9.3c-2-0.6-4.7-0.6-5.3-1.7C-782.5-927.1-776.4-926.3-774.6-929.8z"/>
<path d="M-848.8-882.3c2.2,0.9,4.7,1.1,5.1,2.2c2,4.6-3,4-5.1,6.4C-848.8-876.5-848.8-878.7-848.8-882.3z"/>
<path d="M-1064.8-1443c-1.8-4.2-3.1-7-4.2-9.9c-0.2-0.6-0.3-1.3-0.4-2.2c1.6-0.1,3-0.1,4.7-0.2
	C-1064.8-1451.5-1064.8-1448-1064.8-1443z"/>
<path d="M-2187.4-1444.1c5.6,2.8,10.5,1.2,10.6-3.7c0.1-1.9-1.1-5-2.4-5.4c-2.5-0.7-5.5,0.1-8.2,0.2c1.1-4,4.3-3.1,6.8-2.5
	c3.5,0.8,5.2,3.4,5.2,7c0,3.6-1.8,6.2-5.2,7C-2183.2-1440.9-2186.4-1440.1-2187.4-1444.1z"/>
<path d="M-2147.4-1444.1c5.6,2.8,10.5,1.2,10.6-3.7c0.1-1.9-1.1-5-2.4-5.4c-2.5-0.7-5.5,0.1-8.2,0.2c1.1-4,4.3-3.1,6.8-2.5
	c3.5,0.8,5.2,3.4,5.2,7c0,3.6-1.8,6.2-5.2,7C-2143.2-1440.9-2146.4-1440.1-2147.4-1444.1z"/>
<path d="M-1075-1455c-1.5,3.7-2.9,7.2-4.9,12c0-4.8,0-8.3,0-12C-1078.5-1455-1077-1455-1075-1455z"/>
<path d="M-995-1051.6c-1.5,0-2.9,0-4.9,0c1.7,3.1,7.6,2.3,5,6.6c-1.5,2.6-4.5,2.1-6.8-0.9c2.1,0.1,3.8,0.2,5.2,0.3
	c-1.7-2.6-3.1-4.7-4.4-6.8c2-0.3,4.1-0.7,6.1-1C-994.9-1052.7-994.9-1052.2-995-1051.6z"/>
<path d="M-814.4-919.4c0-2.1,0-4.3,0-7.8c2,0.8,3.8,1.4,5.5,2.1c-1.4,2.2-2.8,4.3-4.2,6.5C-813.5-918.9-814-919.1-814.4-919.4z"/>
<path d="M-2096.7-1448.9c0.7,0.7,2,1.5,1.9,2c-1.2,4.4-4.2,6.4-9.6,6.3C-2101.5-1443.8-2099.1-1446.3-2096.7-1448.9L-2096.7-1448.9z
	"/>
<path d="M-1039.3-1121.3c0.7,1.7,1.1,2.7,1.7,4.5c0.9-1.5,1.5-2.6,2.2-3.6c0.2,0.1,0.4,0.2,0.7,0.3c-0.6,2.1-1.3,4.2-2.2,7.2
	c-1.2-2.1-1.9-3.4-2.8-5c-0.7,1.6-1.2,2.8-2.4,5.5c-1.1-3.3-1.7-5.3-2.3-7.4c0.2-0.1,0.4-0.2,0.6-0.3c0.6,1,1.3,2,2,3.1
	C-1041.1-1118.3-1040.4-1119.6-1039.3-1121.3z"/>
<path d="M-931.5-770.4c-0.9-0.1-1.9-0.3-2.9-0.5c0-0.2,0-0.5,0-0.7c1.2,0,3.3-0.4,3.5,0.1c0.9,1.9,1.3,4,2.2,7.6
	c-3.1-0.9-4.9-1.5-6.7-2C-934.1-767.4-932.9-768.8-931.5-770.4z"/>
<path d="M-906-1121.3c0.8,1.7,1.3,2.9,2.1,4.5c0.8-1.3,1.4-2.4,2-3.5c0.2,0.1,0.4,0.2,0.6,0.3c-0.6,2.1-1.2,4.2-2.2,7.4
	c-1.1-2.3-1.8-3.5-2.5-5.1c-0.8,1.4-1.6,2.7-2.8,4.8c-0.9-2.9-1.6-5-2.3-7.1c0.3-0.1,0.5-0.2,0.8-0.3c0.5,1,1,2.1,1.8,3.6
	C-907.6-1118.5-906.9-1119.7-906-1121.3z"/>
<path d="M-780.4-1120.4c0.5,1,1.1,2,1.9,3.5c0.8-1.6,1.4-2.7,2.3-4.4c0.9,1.8,1.5,3,2.3,4.6c0.7-1.4,1.2-2.5,1.8-3.7
	c0.2,0.1,0.5,0.2,0.7,0.3c-0.6,2.1-1.2,4.1-2,7.3c-1.2-2.2-1.9-3.5-2.8-5c-0.7,1.5-1.4,2.7-2.5,4.9c-1-2.9-1.7-5-2.4-7.2
	C-780.9-1120.2-780.6-1120.3-780.4-1120.4z"/>
<path d="M-983.7-1052.8c-1.2,3.1-2.3,6.2-3.5,9.3c-0.6,0.1-1.1,0.2-1.7,0.2c-1.2-3.2-2.4-6.4-3.6-9.7c0.5-0.2,0.9-0.4,1.4-0.6
	c0.9,2.1,1.7,4.3,2.9,7.1c1.3-2.7,2.3-4.9,3.2-7C-984.5-1053.2-984.1-1053-983.7-1052.8z"/>
<path d="M-996.6-1117.4c-1.5,0.3-3,0.6-4.5,0.9c0,0.3-0.1,0.7-0.1,1c1.3,0.3,2.6,0.7,3.9,1c-0.3,0.4-0.5,0.8-0.8,1.2
	c-1.5-1-3.8-1.8-4.2-3.2c-0.3-1.3,1.4-3.1,2.2-4.7c1.4,0.8,2.8,1.5,4.1,2.3C-996.2-1118.3-996.4-1117.8-996.6-1117.4z"/>
<path d="M-941.9-1117.3c-1.4,0.3-2.8,0.5-4.2,0.8c-0.1,0.4-0.1,0.7-0.2,1.1c1.3,0.3,2.7,0.7,4,1c-0.3,0.4-0.5,0.8-0.8,1.2
	c-1.5-1-3.9-1.7-4.3-3.1c-0.4-1.3,1.3-3.1,2.1-4.7c1.4,0.7,2.8,1.5,4.2,2.2C-941.3-1118.3-941.6-1117.8-941.9-1117.3z"/>
<path d="M-916.7-764.7c-1-0.9-2-1.8-3.1-2.8c-0.5,1-0.9,1.8-1.8,3.6c0-4.1,0-6.9,0-9.8c0.2,0,0.5-0.1,0.7-0.1
	c0.2,1.2,0.5,2.5,0.8,4.1c1-0.6,1.8-1.1,2.4-1.5C-917.4-769.3-917.1-767.1-916.7-764.7z"/>
<path d="M-978.6-768.2c-1.4,0.2-2.8,0.5-4.2,0.7c-0.1,0.3-0.2,0.6-0.2,0.9c1.3,0.4,2.6,0.7,3.9,1.1c-0.2,0.4-0.4,0.8-0.5,1.2
	c-1.6-0.8-4-1.3-4.5-2.6c-0.5-1.2,0.9-3.3,1.5-4.9c1.6,0.6,3.2,1.1,4.8,1.7C-978.2-769.5-978.4-768.9-978.6-768.2z"/>
<path d="M-889.8-731.9c0.1,1.3,0.3,2.5,0.5,4.2c1.1-0.7,2-1.3,2.4-1.6c0.4,2.1,0.7,4.2,1.2,6.6c-1.1-1-2.1-1.9-3.2-2.9
	c-0.5,1.1-0.9,1.8-1.9,3.8c0-4.3,0-7.2,0-10.2C-890.4-731.9-890.1-731.9-889.8-731.9z"/>
<path d="M-759.6-883.8c-3,1.6-4.7,2.1-5.9,3.3c-0.3,0.3,1,2.3,1.6,3.6c1-0.9,2.1-1.8,4.3-3.7c-0.8,2.1-1,4.1-1.7,4.3
	c-1.5,0.3-4.5,0-4.6-0.6c-0.5-1.9-0.5-4.4,0.3-6.2C-765.1-884-762.3-883.5-759.6-883.8z"/>
<path d="M-848.2-928.8c-2.8,1.7-4.5,2.8-6.1,3.8c0.8,1.1,1.7,2.1,2.5,3.2c0.6-1,1.2-2.1,1.9-3.1c0.3,0,0.6-0.1,0.9-0.1
	c-0.1,1.2,0.1,3.3-0.2,3.4c-1.5,0.4-4.6,0.6-4.7,0.3c-0.5-2.1-1-4.6-0.3-6.6C-853.9-928.8-850.7-928.5-848.2-928.8z"/>
<path class="st0" d="M-2220.7-1369.1c0.7-2.1,1.3-4.2,2-6.3c0.9,0.5,2.7,1.1,2.6,1.4c-0.4,2-1.1,4-1.8,5.9
	C-2218.8-1368.4-2219.8-1368.7-2220.7-1369.1z"/>
<path class="st0" d="M-1613.7-1369c0.7-2.2,1.3-4.3,2-6.5c0.9,0.5,2.6,1.2,2.6,1.6c-0.4,2-1.3,3.9-1.9,5.9
	C-1611.9-1368.3-1612.8-1368.6-1613.7-1369z"/>
<path class="st0" d="M-968.4-1113.9c-0.8-0.2-1.6-0.4-2.4-0.5c-1.7-2.9-2.5-5.7,0.8-8.2C-965.8-1120.3-968.4-1116.9-968.4-1113.9z"
	/>
<path d="M-829-730.1c0.6,1.9,1.3,4.2,2.1,6.9c-2,0.3-3.2,0.6-4.3,0.5c-0.8-0.1-1.6-0.9-2.4-1.4c0.5-0.8,1.1-1.7,1.7-2.5
	C-831.3-727.4-830.5-728.2-829-730.1z"/>
<path d="M-1052.8-722c0-3.1,0-5.1,0-7.2c5.9-1.7,6.7-0.8,5.5,6.1c-0.3-0.1-0.7-0.1-0.8-0.3c-0.7-1.7-1.3-3.5-2-5.3
	C-1050.8-726.8-1051.5-725-1052.8-722z"/>
<path d="M-1035.7-1139.7c-0.1-2.6-0.3-5.3-0.5-8.4c2-0.1,3.7-0.2,4.8-0.2c-1.1,3-2.1,5.8-3.1,8.5
	C-1034.9-1139.8-1035.3-1139.7-1035.7-1139.7z"/>
<path d="M-1021.6-768.2c-1.4,0.3-2.8,0.5-4.9,0.9c1.6,1.1,2.5,1.7,3.5,2.4c-0.1,0.2-0.2,0.4-0.4,0.6c-1.2-0.7-3.5-1.4-3.5-2.1
	c0-1.8,0.9-3.7,1.5-5.5c1.5,0.6,3.1,1.2,4.6,1.8C-1021.1-769.4-1021.4-768.8-1021.6-768.2z"/>
<path d="M-995.8-765.2c-0.2-1.7-0.4-3.4-0.6-5.1c-0.5-0.2-1-0.3-1.6-0.5c-0.7,1.8-1.5,3.5-2.6,6.2c-0.2-2.5-0.3-4.4-0.4-6.2
	C-995-773.2-994.1-772.3-995.8-765.2z"/>
<path d="M-842.1-1119.9c5.9-2,6.9-0.9,5.7,5.3c-0.9-1.6-1.8-3.3-2.7-5c-0.8,1.7-1.5,3.3-2.7,5.8
	C-841.9-1116.3-842-1118.1-842.1-1119.9z"/>
<path d="M-817.8-1119.5c-0.9-0.2-1.9-0.4-3.3-0.6c0.8-0.4,1.3-1,1.8-1c4.7,0.4,2.6,4,3.7,7.7c-2.7-0.6-4.5-1-6.3-1.4
	C-820.7-1116.3-819.4-1117.7-817.8-1119.5z"/>
<path d="M-1004.8-770.5c-1-0.1-2-0.2-3-0.4c0.1-0.3,0.2-0.7,0.3-0.7c0.9-0.2,2.5-0.6,2.6-0.3c0.9,2,1.6,4.2,2.3,6.3
	c-0.4,0.4-0.8,0.8-1.1,1.2c-1.8-0.5-3.6-1-5.4-1.6C-1007.8-767.4-1006.5-768.7-1004.8-770.5z"/>
<path d="M-1031.6-728.6c-1.1-0.1-2.2-0.2-3.2-0.3c0.1-0.3,0.2-0.7,0.3-0.7c0.9-0.2,2.5-0.6,2.7-0.3c1,2,1.7,4.2,2.4,6.4
	c-0.4,0.4-0.8,0.8-1.2,1.2c-1.8-0.5-3.6-1.1-5.5-1.6C-1034.7-725.4-1033.4-726.7-1031.6-728.6z"/>
<path d="M-475.5-1323.5c-0.7-1.7-1.5-3.5-2.2-5.2c-0.9,1.6-1.9,3.3-3,5.3c-0.1-1.7-0.3-3.4-0.5-6.2c1.9,0,4.6-0.7,5.2,0.1
	c1.1,1.5,1,3.9,1.4,5.9C-475-1323.5-475.2-1323.5-475.5-1323.5z"/>
<path d="M-1000.5-722.1c-2.2-0.8-4-1.4-5.7-2c1.4-1.3,2.7-2.7,4.3-4.2c-1-0.2-2-0.5-3-0.7C-1000.6-731.1-1000.1-730.4-1000.5-722.1z
	"/>
<path d="M-788.8-925.4c-0.5-0.1-1.2-0.3-1.9-0.5c4-1.5,4.3-1.1,4,5.5c-1.8-0.5-3.5-0.9-5.1-1.4C-790.8-923-789.9-924.2-788.8-925.4z
	"/>
<path d="M-878.6-732.2c0.9,2.2,1.7,4.5,2.8,7.3c1.3-2.8,2.3-5.2,3.3-7.5c0.3,0.1,0.7,0.3,1,0.4c-1.1,3.1-2.3,6.2-3.4,9.3
	c-0.5,0.1-1,0.2-1.4,0.3c-1.2-3.1-2.3-6.3-3.5-9.4C-879.4-731.9-879-732.1-878.6-732.2z"/>
<path d="M-899.3-927.6c-1.8,0.4-3.5,0.6-4.9,1.4c-0.4,0.2-0.2,3,0.5,3.4c1,0.7,2.7,0.4,4.5,1.3c-1.8,0.1-4.9,0.7-5,0.2
	c-0.8-2-1.5-4.9-0.6-6.4C-903.4-930.4-900.9-929.8-899.3-927.6z"/>
<path d="M-866.4-927.5c-1.2,0-2.4,0-3.1,0c1.1,2.1,2.2,4.1,3.3,6.1c-1.7,0.2-3.3,0.5-5,0.7c-0.1-0.5-0.1-1-0.2-1.4
	c1.3,0.1,2.5,0.1,3.9,0.2c0.3-3.3-6.5-2.2-3.3-6.3c0.7-0.8,2.9-0.5,4.4-0.7C-866.3-928.5-866.3-928-866.4-927.5z"/>
<path d="M-778.7-877.2c-1.7-2.3-2.9-3.9-4.1-5.5c1.5-0.5,3-1.1,4.6-1.6c0.2,0.5,0.3,1,0.5,1.5c-1.2,0.1-2.4,0.2-3.3,0.3
	c1.2,2.1,2.3,4,3.4,6c-1.7,0.3-3.4,0.5-5.1,0.8c0-0.5-0.1-1-0.1-1.5C-781.5-877.2-780.1-877.2-778.7-877.2z"/>
<path d="M-861-920.6c-1-2.7-1.9-5.4-2.9-8.1c0.3-0.2,0.7-0.3,1-0.5c0.8,1.7,1.6,3.4,2.8,5.9c1-2.4,1.8-4.2,2.6-6
	c0.3,0.1,0.7,0.3,1,0.4c-1,2.8-1.9,5.5-2.9,8.3C-860-920.5-860.5-920.6-861-920.6z"/>
<path d="M-859.3-882.8c-1.5,0.4-3.2,0.6-4.5,1.4c-0.5,0.3-0.4,2.8,0.1,3c1.4,0.7,3.1,0.9,4.8,2.1c-1.9-0.2-4.7,0.2-5.4-0.8
	c-1-1.4-1-4.3-0.1-5.7c0.7-1.1,3.4-0.9,5.3-1.2C-859.2-883.5-859.2-883.2-859.3-882.8z"/>
<path d="M-772.1-878c1.1-2.6,1.9-4.3,2.7-6.1c0.3,0.1,0.6,0.2,0.9,0.4c-1,2.7-2,5.4-2.9,8.2c-0.4,0-0.9,0-1.3,0c-1-2.7-2-5.4-3-8.1
	c0.3-0.1,0.7-0.3,1-0.4C-774-882.3-773.2-880.6-772.1-878z"/>
<path d="M-2096.7-1448.9c-1.6,1-3.3,2-5.3,3.3c-0.2-1.7-0.3-3.1-0.5-4.6c-0.4-0.1-0.7-0.2-1.1-0.3c-0.6,1.8-1.1,3.5-1.6,5.3
	c0,0,0.1,0.1,0.1,0.1c-0.1-1.1-0.6-2.3-0.4-3.3c0.2-1.1,0.9-2.5,1.8-3c0.8-0.4,2.2,0.2,3.3,0.6
	C-2099.1-1450.3-2097.9-1449.5-2096.7-1448.9C-2096.7-1448.9-2096.7-1448.9-2096.7-1448.9z"/>
<path d="M-853.7-732.7c1.6,0.5,4.5,0.7,4.6,1.5c0.6,2.5,0.5,5.3-0.2,7.7c-0.2,0.6-3.2,0.5-5,0.3c1.2-1.6,8.5,0.9,2.3-4.6
	c4-4,1.4-3.9-2.2-3.3C-853.9-731.6-853.8-732.1-853.7-732.7z"/>
<path d="M-1040.2-772.5c1.1,2.2,1.7,3.4,2.6,5.2c0.9-1.7,1.7-3,2.4-4.3c0.3,0.1,0.6,0.3,0.9,0.4c-1.3,3.2-2.7,6.5-4.3,10.4
	C-1039.1-765.1-1039.6-768.3-1040.2-772.5z"/>
<path d="M-976.7-719.2c-0.6-4-1.1-7.1-1.7-11.3c1.2,2.3,1.9,3.6,2.8,5.4c0.8-1.7,1.5-3.2,2.2-4.6c0.4,0.2,0.7,0.3,1.1,0.5
	C-973.7-726-975.1-722.7-976.7-719.2z"/>
<path d="M-579.9-1374.9c0.2,0.3,0.5,0.9,0.7,0.8c1.2-0.2,2.3-0.5,3.4-0.8c0.2,1.1,0.3,2.1,0.5,3.2c0.2,1.3,0.3,2.6,0.4,4.1
	c-1.2-1.7-2.2-3.4-3.3-5c-0.4,1.6-0.8,3.2-1.2,4.7c-0.2,0.1-0.4,0.1-0.6,0.2c-0.3-2.3-0.5-4.7-0.8-7
	C-580.5-1374.8-580.2-1374.8-579.9-1374.9z"/>
<path d="M-429.1-1323.5c-1-1.7-1.9-3.4-2.9-5.1c-0.8,1.6-1.5,3.3-2.5,5.5c-0.1-2.2-0.2-4-0.3-6.4c1.9,0,4.4-0.6,4.9,0.1
	c1.1,1.6,1,3.9,1.4,5.9C-428.7-1323.5-428.9-1323.5-429.1-1323.5z"/>
<path d="M-963.6-764.5c-1.6-0.5-3.9-0.4-4.6-1.4c-0.8-1.1-0.7-3.6,0.1-4.8c0.7-1,2.9-0.8,4.3-0.4c-1.3,0.9-2.6,1.9-3.9,2.8
	C-966.5-767.3-965.4-766.2-963.6-764.5z"/>
<path d="M-968.4-1113.9c0.1-2.9,2.6-6.3-1.6-8.8c-3.3,2.6-2.5,5.4-0.8,8.2c-2.7-1.9-3.6-6.3-1.4-8.1c2.3-1.9,4.9-1.4,5.3,1.5
	C-966.5-1118.9-967.9-1116.3-968.4-1113.9z"/>
<path d="M-1014-1120.2c-1,0.2-2,0.4-2.9,0.6c1.4,1.7,2.6,3.1,3.8,4.5c-1.5,0.5-2.9,1.1-4.4,1.6c-0.1-0.5-0.2-0.9-0.3-1.4
	c1.1,0,2.1,0,4,0c-1.9-1.8-3.2-3-4.5-4.2c1.2-0.9,2.3-1.7,3.5-2.6C-1014.6-1121.1-1014.3-1120.6-1014-1120.2z"/>
<path d="M-2021.7-1371.3c-1-0.8-2.1-1.7-3.1-2.5c0.2-0.3,0.5-0.6,0.7-0.9c1,0.8,2.1,1.6,3.1,2.3
	C-2021.2-1372-2021.4-1371.6-2021.7-1371.3z"/>
<path class="st0" d="M-1667.6-1256.1c37.6,0,75.1,0,113.4,0c-3.2,3.7-7,4.6-10.9,4.6c-12.5,0.1-24.9,0.1-37.4,0.1
	c-18.3,0-36.6,0.1-54.9-0.2c-3.7-0.1-7.3-1.8-10.9-2.7C-1668-1254.9-1667.8-1255.5-1667.6-1256.1z"/>
<path class="st0" d="M-2243.5-1275.4c4.6-4.6,6.2-4.8,10.9-1.5c4.3-0.8,7.8-1.5,11.5-2.2c0.7-1.1,1.9-2.8,3.1-4.4
	c0.9,1.9,1.9,3.7,2.8,5.6c1.5-0.2,3.5-0.5,6.7-1c-1.9,2.5-3,3.8-4.3,5.5c1.3,1.7,2.7,3.5,4.3,5.6c-1,0.3-1.8,0.8-2.2,0.6
	c-4.5-2.2-8.9,0.2-13.3,0c-2.5-0.1-4.9-1-8.3-1.7c-5.7,3.3-7.4,3-11.8-2.5C-2243.9-1272.8-2243.7-1274.1-2243.5-1275.4z
	 M-2224.6-1275.6c-1,1-2.1,1.7-2.4,2.6c-0.1,0.5,1.4,2.1,1.9,2c1.5-0.3,3-1.2,4.4-1.9C-2221.7-1273.7-2222.8-1274.5-2224.6-1275.6z"
	/>
<path class="st0" d="M-2253.5-1275.7c0.2,2.1,1.2,4.9,0.2,6.2c-1,1.4-3.9,1.7-6,2.2c-0.7,0.2-1.7-0.7-2.4-0.5c-7,2-5.8-2.8-6.1-6.8
	c-0.2-3.8,2.1-4.3,4.9-4.7c-0.1,2.4-0.3,4.8-0.4,7.2c2.5,0.4,4.4,0.7,6.4,1.1c-2.3-3.2-4.1-5.7-6-8.3c0.5-3.9,3.3-4.7,6.5-4.3
	c1.1,0.1,2.1,1.6,3.2,2.4c-1.2,0.4-2.3,0.9-3.5,1.3c-0.4,0.1-0.9,0.1-2.9,0.3c2.7,1.8,4.5,2.9,6.2,4
	C-2253.4-1275.6-2253.5-1275.7-2253.5-1275.7z"/>
<path class="st0" d="M-2235-1258.5c0.1-2.5,0.2-4.3,0.3-5.6c8.7,0,17,0,27,0c-1,2.3-1.5,4.9-2.2,4.9
	C-2218.2-1258.7-2226.5-1258.6-2235-1258.5z"/>
<path class="st0" d="M-2243.5-1275.4c-0.2,1.3-0.4,2.6-0.6,3.9c-0.4,1.4-0.9,2.9-1.3,4.3c-1.7-1.2-3.7-2.2-5.1-3.6
	c-1.3-1.3-2-3.2-3-4.8c0,0,0.1,0.1,0.1,0.1c1.6-2.1,3.2-4.1,4.8-6.2C-2246.9-1279.6-2242.4-1279.7-2243.5-1275.4z"/>
<path class="st0" d="M-2236.8-1263.4c-0.7,2.2-1.4,4-2.4,7c-1-2.3-1.4-3.5-1.5-3.7c-0.5,0.3-1.5,1.2-2.4,1.2
	c-3.4,0.2-6.8,0.4-10.2,0c-1.1-0.1-2-2.1-3.1-3.2c1.2-0.9,2.3-2.7,3.5-2.6C-2247.8-1264.6-2242.5-1263.9-2236.8-1263.4z"/>
<path class="st0" d="M-1579.2-1269.8c-2.9,2.1-4.7,4.4-6.1,4.1c-1.6-0.2-3.9-2.8-3.9-4.3c0-1.5,2.4-4.1,3.9-4.3
	C-1583.8-1274.4-1582-1272-1579.2-1269.8z"/>
<path class="st0" d="M-1578.5-1274.5c0.6,1.2,1.2,2.5,1.9,4c0.8-1.4,1.5-2.7,2.7-4.7c0.9,1.9,1.5,3.2,2.3,4.7
	c0.8-1.4,1.5-2.6,2.2-3.9c0.4,0.1,0.8,0.3,1.2,0.4c-0.8,2.9-1.6,5.7-2.7,10c-1.6-2.7-2.3-3.9-3.2-5.4c-0.7,1.4-1.3,2.7-1.9,4
	c-0.5,0.1-0.9,0.1-1.4,0.2c-0.9-2.9-1.7-5.8-2.6-8.7C-1579.5-1274.2-1579-1274.4-1578.5-1274.5z"/>
<path class="st0" d="M-1803.9-1259.2c0.8-3.2,0.9-8.8,2.5-9.2c6.5-1.9,6.4,2.4,4.1,6.7c-0.7,1.4-3.2,1.8-4.8,2.6
	C-1802.7-1259.1-1803.3-1259.2-1803.9-1259.2z"/>
<path class="st0" d="M-2013.4-1260.6c-3-0.7-6.5-0.5-7.2-1.9c-1-1.9-0.2-4.9,0.2-7.4c0.1-0.8,1.6-1.7,2.6-1.8
	c0.7-0.1,2.1,0.7,2.3,1.4C-2014.7-1267.4-2014.2-1264.5-2013.4-1260.6z"/>
<path class="st0" d="M-1872.6-1258.4c0-3.3-0.2-6.3,0.2-9.1c0.1-0.7,2.5-1.7,3.6-1.4c1.3,0.3,3.2,1.7,3.3,2.8
	c0.2,1.5-0.6,3.5-1.7,4.7C-1868.2-1260.2-1870.1-1259.7-1872.6-1258.4z"/>
<path class="st0" d="M-2119.4-1259.2c0.9-3.2,1.8-6.4,2.7-9.7c1.7,0.6,4.4,0.7,4.9,1.8c2.6,6-3.7,5.7-5.9,8.4
	C-2118.3-1258.8-2118.9-1259-2119.4-1259.2z"/>
<path class="st0" d="M-2153.3-1271.3c0,3.4,0,6.3,0,9.5c-2.4,1-5.1,2-6.3-1.5C-2161.6-1268.6-2156.8-1269.2-2153.3-1271.3z"/>
<path class="st0" d="M-1905.8-1264.7c-2.7,1.8-4.5,3.8-5.8,3.5c-1.4-0.3-3.1-2.8-3.2-4.4c-0.1-1.2,2.4-3.6,3.5-3.5
	C-1909.7-1268.8-1908.3-1266.8-1905.8-1264.7z"/>
<path class="st0" d="M-1779.8-1264.7c-2.7,1.7-4.5,3.8-5.8,3.5c-1.4-0.3-3.1-2.8-3.2-4.4c-0.1-1.2,2.4-3.6,3.6-3.5
	C-1783.7-1268.8-1782.3-1266.8-1779.8-1264.7z"/>
<path class="st0" d="M-1885-1261.9c0.4-2.2,0.3-6,1.4-6.4c2.5-0.9,5.8-0.8,8.3,0.3c1.1,0.5,0.8,4.1,1.2,6.3
	c-0.6,0.1-1.2,0.2-1.8,0.3c-0.4-1.5-0.8-3.1-1.4-5.5c-0.6,2.3-1,3.9-1.4,5.4c-0.4,0.1-0.8,0.1-1.1,0.2c-0.4-1.5-0.8-3-1.3-5.3
	c-0.8,2-1.4,3.6-1.9,5.1C-1883.8-1261.7-1884.4-1261.8-1885-1261.9z"/>
<path class="st0" d="M-1704.5-1269.9c1.1,1.6,3.2,3.2,3,4.7c-0.1,1.5-2.4,2.9-3.7,4.3c-1.2-1.3-3.3-2.5-3.5-3.9
	c-0.2-1.6,1.4-3.4,2.3-5C-1705.7-1269.8-1705.1-1269.8-1704.5-1269.9z"/>
<path class="st0" d="M-1628.9-1274.1c5.5-0.6,5.5-0.6,4.7,9.3c-0.5-1.4-1-2.8-1.7-4.6c-1.2,2.1-1.7,3-3,5.1
	C-1628.9-1268.5-1628.9-1271.3-1628.9-1274.1z"/>
<path class="st0" d="M-2048-1260.3c-1-1.6-2.7-3.2-2.6-4.8c0.1-1.4,2-2.8,3.2-4.2c1.4,1.3,3.7,2.5,4,4.1c0.2,1.4-1.7,3.2-2.7,4.9
	C-2046.8-1260.3-2047.4-1260.3-2048-1260.3z"/>
<path class="st0" d="M-1888.9-1269.9c1,1.6,2.7,3.3,2.6,4.9c0,1.4-2.1,2.7-3.3,4c-1.4-1.3-3.6-2.6-3.8-4.1c-0.2-1.5,1.7-3.2,2.7-4.9
	C-1890.1-1269.9-1889.5-1269.9-1888.9-1269.9z"/>
<path class="st0" d="M-1945.7-1269.8c0.9,1.6,2.5,3.3,2.4,4.9c-0.1,1.4-2.1,2.6-3.3,3.9c-1.4-1.4-3.7-2.6-3.8-4.1
	c-0.2-1.5,1.8-3.2,2.8-4.8C-1946.9-1269.8-1946.3-1269.8-1945.7-1269.8z"/>
<path class="st0" d="M-1740.1-1264.8c-2.8,1.9-4.4,3.8-5.8,3.7c-1.3-0.1-3.6-2.6-3.4-3.7c0.2-1.6,2.1-3.8,3.7-4.1
	C-1744.5-1269.2-1742.8-1267-1740.1-1264.8z"/>
<path class="st0" d="M-2125.2-1264.5c-1.2,0.2-2.4,0.4-3.6,0.6c0,0.2,0,0.4,0.1,0.6c1.1,0,2.2,0,3.3,0c0.1,0.5,0.1,1,0.2,1.5
	c-1.6,0.1-3.9,1-4.7,0.2c-1.2-1.1-1.8-3.4-1.5-5.1c0.1-1,2.5-2.7,3.5-2.4c1.4,0.3,2.6,2.1,3.9,3.2
	C-2124.6-1265.4-2124.9-1264.9-2125.2-1264.5z"/>
<path class="st0" d="M-2103.2-1264.5c-1.2,0.2-2.4,0.4-3.7,0.6c0,0.2,0,0.4,0,0.5c1.1,0,2.2,0,3.3,0c0.1,0.5,0.1,1,0.2,1.5
	c-1.6,0.2-3.7,1-4.7,0.3c-1.2-0.8-2.1-3.2-1.7-4.5c0.3-1.3,2.4-3.1,3.6-3c1.4,0.1,2.6,2,3.9,3.1
	C-2102.5-1265.5-2102.9-1265-2103.2-1264.5z"/>
<path class="st0" d="M-2086.4-1263.2c0.8-0.1,1.8-0.2,2.8-0.2c0.1,0.5,0.2,1,0.3,1.5c-1.6,0.2-3.8,1.2-4.5,0.5
	c-1.2-1.1-2.1-3.4-1.8-4.9c0.2-1.1,2.4-2.4,3.9-2.7c0.8-0.1,1.9,1.8,2.9,2.7C-2084-1265.3-2085.2-1264.3-2086.4-1263.2z"/>
<path class="st0" d="M-1853.3-1264.5c-1.2,0.2-2.4,0.4-3.6,0.6c0,0.2,0.1,0.4,0.1,0.7c1-0.1,2.1-0.2,3.1-0.3c0.1,0.5,0.3,1,0.4,1.4
	c-1.5,0.3-3.5,1.3-4.4,0.7c-1.2-0.8-2.4-2.9-2.2-4.3c0.2-1.3,2.2-3.4,3.3-3.3c1.5,0.1,2.9,2,4.3,3.1
	C-1852.6-1265.4-1852.9-1265-1853.3-1264.5z"/>
<path class="st0" d="M-2181.2-1261.6c0.3-3.1,0.2-6.4,1-9.3c0.2-0.7,3.4-0.6,5.2-0.8c0.1,0.4,0.3,0.8,0.4,1.2
	c-0.9,0.7-1.8,1.3-2.9,2.1c0.8,0.6,1.6,1.2,2.4,1.9c-1.6,1.7-3.2,3.3-4.7,5C-2180.2-1261.6-2180.7-1261.6-2181.2-1261.6z"/>
<path class="st0" d="M-1716.6-1268.7c-1.2-0.1-2.4-0.2-2.8-0.3c1.1,2,2.4,3.9,3.2,6.1c0.1,0.2-2,2-3,1.9c-1.5-0.1-2.9-1.2-4.4-1.9
	c0.2-0.4,0.5-0.9,0.7-1.3c1.4,0.4,2.8,0.7,4.9,1.3c-1.3-3.3-8.5-3.5-3.6-8c0.9-0.9,3.6,0.2,5.5,0.3
	C-1716.3-1269.9-1716.4-1269.3-1716.6-1268.7z"/>
<path class="st0" d="M-1839.2-1261.4c-1.8-0.1-4.3,0.5-5.2-0.5c-1.1-1.1-1.2-3.6-0.9-5.3c0.2-0.8,2.4-1.9,3.5-1.8
	c1.1,0.1,2.1,1.7,3.1,2.7c-1.1,1-2.2,2.1-3.2,3c0.6,0,1.6-0.1,2.6-0.1C-1839.3-1262.8-1839.2-1262.1-1839.2-1261.4z"/>
<path class="st0" d="M-1965.1-1266.6c-0.7-0.1-1.5-0.3-2.2-0.4c0.4-0.6,0.8-1.8,1.1-1.7c1.5,0.2,3.8,0.3,4.2,1.2
	c0.7,1.6,0.9,4.1,0.1,5.6c-0.5,0.9-3.2,0.7-4.9,0.7c-0.4,0-1.2-1.6-1.1-2.4c0.1-1.5,0.7-3,1.2-4.4
	C-1966.2-1267.7-1965.6-1267.1-1965.1-1266.6z"/>
<path class="st0" d="M-1633.7-1274.7c1.1,2.9,2.2,5.8,3.1,8.3c-2.6-0.1-4.8-0.2-7.6-0.4c0.7-2.1,1.6-5,2.6-7.9
	C-1635-1274.6-1634.4-1274.7-1633.7-1274.7z"/>
<path class="st0" d="M-1652.4-1272.6c1.9,2,3.4,3.4,4.6,4.9c0.1,0.2-1.1,2-1.7,2c-1.7,0.1-3.4-0.4-5.1-0.7c0.1-0.5,0.2-1.1,0.3-1.6
	c1.3,0.2,2.6,0.5,4.3,0.8c-0.6-2.9-6.8-2.2-3.5-6.2c0.8-0.9,3.5-0.3,5.3-0.4c0,0.6-0.1,1.2-0.1,1.8
	C-1649.5-1272.1-1650.6-1272.3-1652.4-1272.6z"/>
<path class="st0" d="M-2266.8-1259.3c0-1.6,0-3.2,0-5c2.9,0.3,5.6,0.5,8.9,0.8c-0.6,2.1-1.1,3.9-1.5,5.3
	C-2262-1258.6-2264.1-1258.9-2266.8-1259.3z"/>
<path class="st0" d="M-1591.3-1274.1c0,2.8,0,5.5,0,9.2c-1.9-1.8-3.1-3-4.6-4.4c-0.4,1.4-0.7,2.5-1,3.6c-0.3,0-0.7,0-1-0.1
	c0-2.8,0-5.6,0-8.4c0.3-0.3,0.6-0.7,0.9-1c0.9,1.6,1.9,3.3,3.3,5.8c0.7-2.5,1-3.7,1.3-4.9C-1592-1274.2-1591.7-1274.1-1591.3-1274.1
	z"/>
<path class="st0" d="M-1772.6-1263.2c0.6-0.1,1.5-0.2,2.4-0.3c0.1,0.5,0.3,1,0.4,1.4c-1.5,0.3-3.5,1.4-4.3,0.8
	c-1.3-1-2.5-3.1-2.4-4.6c0.1-1.2,2.2-2.9,3.6-3.1c1-0.2,2.3,1.7,3.5,2.7C-1770.4-1265.3-1771.5-1264.3-1772.6-1263.2z"/>
<path class="st0" d="M-1826.8-1260.7c-1.9-0.6-3.8-1.3-5.6-1.9c0.7-1.4,1.3-2.8,1.9-4c-0.1,0-0.7-0.5-1.4-0.9
	c1.2-0.5,2.4-1.1,3.6-1.6c1,2.3,2,4.5,3,6.8C-1825.7-1261.8-1826.3-1261.2-1826.8-1260.7z"/>
<path class="st0" d="M-2140.1-1261.7c0-3.1,0-6.1,0-9.3c7.6,3.5,8,4.2,5.2,10.1c-0.6-2.3-1.1-3.9-1.5-5.6c-0.3,0-0.6,0-0.9-0.1
	c-0.5,1.7-0.9,3.4-1.4,5.1C-2139.2-1261.6-2139.6-1261.7-2140.1-1261.7z"/>
<path class="st0" d="M-1640.3-1273.4c-1.1,0.5-2.3,1-4.2,1.9c1.8,0.6,2.8,1,4.2,1.5c-1.2,0.5-2.1,0.9-3.6,1.6
	c1.3,0.8,2.4,1.4,4.3,2.6c-2.6,0-4.3,0-6.1,0c0-2.8,0-5.6,0-8.3c2,0,3.6,0,5.3,0C-1640.4-1273.9-1640.4-1273.7-1640.3-1273.4z"/>
<path class="st0" d="M-1613.2-1267.7c-1.8,3-4.7,3.4-6.3,1c-1-1.5-0.7-5.3,0.5-6.8c1.7-2.1,4.3-1.4,5.7,1.5c-1.8,0.1-3.5,0-5,0.5
	c-0.4,0.1-0.4,2.9-0.2,3C-1616.9-1268-1615.1-1268-1613.2-1267.7z"/>
<path class="st0" d="M-1691.5-1261.8c0-3.2,0-6.1,0-9.2c2.1,1.1,3.8,2,5.1,2.7c0.1,2.3,0.2,4.5,0.3,6.5
	C-1687.7-1261.8-1689.6-1261.8-1691.5-1261.8z"/>
<path class="st0" d="M-2158.8-1278.9c-2.7,1.4-4.2,2.7-5.5,2.6c-1-0.1-2.8-2.3-2.6-3.1c0.3-1.3,2-3.1,3.2-3.2
	C-2162.5-1282.7-2161.2-1280.9-2158.8-1278.9z"/>
<path class="st0" d="M-2069-1284.7c1.5,2.7,2.9,4.1,2.8,5.4c0,1.1-2.1,3.1-2.7,2.9c-1.4-0.4-3.2-1.8-3.4-3
	C-2072.4-1280.6-2070.7-1282-2069-1284.7z"/>
<path class="st0" d="M-2121.9-1276.9c0.4-1.9,0.7-3.9,1.5-5.7c0.2-0.3,3,0,3.9,0.8c0.8,0.8,1.2,3.3,0.6,3.8
	c-1.2,1.1-3.1,1.5-4.7,2.1C-2121.2-1276.2-2121.5-1276.5-2121.9-1276.9z"/>
<path class="st0" d="M-2152.8-1282.4c0,2.2,0,3.9,0,5.8c-2.1,0-3.8,0-5.8,0c0-2,0-3.8,0-5.8
	C-2156.7-1282.4-2155-1282.4-2152.8-1282.4z"/>
<path class="st0" d="M-1818.9-1261.5c-0.5-1.7-1-3.4-1.5-5.1c-0.3,0-0.6,0-0.9,0c-0.4,1.6-0.8,3.2-1.3,4.8c-0.5,0-0.9,0-1.4,0.1
	c0.1-2.2-0.1-4.5,0.6-6.5c0.2-0.6,4.3-0.8,4.6-0.1c1,1.9,1,4.4,1.5,6.6C-1817.8-1261.7-1818.4-1261.6-1818.9-1261.5z"/>
<path class="st0" d="M-2135.4-1279.3c-2.6,1.5-4,2.9-5.3,2.9c-1,0-2.9-2.1-2.8-2.9c0.3-1.3,1.8-3.2,3-3.3
	C-2139.4-1282.7-2138-1281-2135.4-1279.3z"/>
<path class="st0" d="M-1815.7-1269.8c1.6,1.9,2.3,2.7,3.1,3.6c0.7-0.8,1.5-1.7,2.4-2.6c0.5,0.5,0.9,0.9,0.8,1
	c-1.2,3.4-2.5,6.7-3.8,10c-0.5-0.2-0.9-0.4-1.4-0.6C-1814.9-1261.7-1815.2-1265-1815.7-1269.8z"/>
<path class="st0" d="M-1936.1-1261.6c-0.5-1.7-0.9-3.4-1.8-6.5c-0.9,3.1-1.5,4.8-2,6.5c-0.5-0.1-1-0.1-1.6-0.2
	c0.2-2.3,0.1-4.7,0.9-6.7c0.3-0.6,4.3-0.7,4.7,0c1,1.9,1,4.3,1.4,6.5C-1934.9-1261.8-1935.5-1261.7-1936.1-1261.6z"/>
<path class="st0" d="M-1740.8-1261.9c0.5-2.3,0.6-4.7,1.7-6.6c0.3-0.6,4.2-0.3,4.6,0.5c1,1.8,0.8,4.2,1,6.3c-0.5,0.1-1,0.1-1.6,0.2
	c-0.5-1.7-1-3.4-1.8-6.5c-0.9,3.1-1.4,4.8-1.9,6.5C-1739.5-1261.7-1740.1-1261.8-1740.8-1261.9z"/>
<path class="st0" d="M-2165.5-1266.6c-0.4,1.6-0.8,3.3-1.1,4.9c-0.6,0-1.1,0-1.7,0c0-2.1-0.6-4.5,0.2-6.1c0.5-0.9,4.5-1.4,5-0.7
	c1.2,1.8,1.3,4.3,1.9,6.6c-0.6,0.1-1.3,0.3-1.9,0.4c-0.4-1.7-0.9-3.3-1.3-5C-2164.7-1266.5-2165.1-1266.6-2165.5-1266.6z"/>
<path class="st0" d="M-2027.1-1266.8c-1.4,0.1-2.2,0.2-1.9,0.2c0.5,1.5,0.9,3,1.4,4.6c-1.8,0.2-3.7,0.4-5.5,0.6
	c0-0.6-0.1-1.2-0.1-1.9c0.8,0,1.7-0.1,2.6-0.1C-2028.6-1268.2-2028.6-1268.2-2027.1-1266.8z"/>
<path class="st0" d="M-1993.7-1268.4c0.4,1.6,0.9,3.2,1.3,4.8c0.3,0,0.6,0,0.9,0c0.5-1.6,0.9-3.2,1.4-4.8c0.5,0,0.9,0,1.4,0.1
	c-0.1,2.1,0.1,4.4-0.6,6.3c-0.3,0.6-4.3,0.8-4.7,0c-1.1-1.7-1-4.2-1.4-6.3C-1994.9-1268.3-1994.3-1268.3-1993.7-1268.4z"/>
<path class="st0" d="M-1928.9-1266.5c0.7,1,1.8,2.1,2.1,3.3c0.1,0.5-1.4,2-2.2,2.1c-1.3,0.1-2.6-0.7-3.9-1.1
	c0.1-0.4,0.2-0.8,0.3-1.3c0.9,0.1,1.7,0.1,2.5,0.2c-1.8-2-5.5-4.4,0.5-5.8c0.6-0.2,1.6,1.2,2.5,1.8
	C-1927.7-1267.1-1928.3-1266.8-1928.9-1266.5z"/>
<path class="st0" d="M-1984.7-1263.4c-0.6-1.3-1.5-2.7-1.7-4.2c-0.1-0.3,2.1-1.5,3.2-1.5c1.5,0.1,3.2,0.9,0.7,2.5
	c0,0,0.4,0.6,0.4,0.9c0.3,1.3,0.5,2.5,0.8,3.8c-1.4,0.2-2.8,0.6-4.1,0.6c-0.4,0-0.8-1.1-1.2-1.7
	C-1985.8-1263.2-1984.9-1263.4-1984.7-1263.4z"/>
<path class="st0" d="M-1611-1265.8c0-2.8,0-5.6,0-9c1.4,1.7,2.4,2.9,3.4,4.1c0.9-1.1,1.8-2.2,3.2-3.9c0,3.2,0,5.9,0,10.1
	C-1606.6-1270.2-1608.7-1271.2-1611-1265.8z"/>
<path class="st0" d="M-2042.1-1262c0.5-2.2,0.7-4.6,1.6-6.7c0.2-0.5,3.7-0.5,3.9,0.1c1,2,1.2,4.3,1.7,6.5c-0.5,0.2-1,0.3-1.6,0.5
	c-0.6-1.6-1.1-3.1-1.9-5.3c-0.8,2-1.5,3.6-2.1,5.2C-2041-1261.7-2041.5-1261.9-2042.1-1262z"/>
<path class="st0" d="M-2106.3-1283.3c0.7,1.3,2,2.7,2,4c0,1.1-1.6,2.1-2.6,3.2c-0.9-1.1-2.4-2.2-2.7-3.4c-0.2-1,0.9-2.4,1.5-3.6
	C-2107.5-1283.3-2106.9-1283.3-2106.3-1283.3z"/>
<path class="st0" d="M-1693.7-1267.2c-1.4,0.7-2.7,1.4-4.1,2c1.4,0.8,2.8,1.7,4.2,2.5c0.1,0.3,0.1,0.7,0.2,1.1
	c-1.9-0.1-4.7,0.4-5.4-0.5c-0.9-1.4-1-4.3-0.1-5.7c0.7-1,3.5-0.6,5.4-0.9C-1693.6-1268.2-1693.7-1267.7-1693.7-1267.2z"/>
<path class="st0" d="M-2052.9-1267.2c-1.3,0.7-2.7,1.5-4,2.2c1.3,0.7,2.7,1.4,4,2.1c0.1,0.3,0.3,0.7,0.4,1c-1.8,0.1-5,0.6-5.2,0.1
	c-0.7-1.9-1-4.4-0.2-6.2c0.3-0.8,3.5-0.4,5.3-0.5C-2052.6-1268.1-2052.8-1267.6-2052.9-1267.2z"/>
<path class="st0" d="M-2075.3-1267.2c-1.2,0.8-2.5,1.6-3.7,2.3c1.3,0.7,2.6,1.5,3.9,2.2c0,0.4,0.1,0.8,0.1,1.1
	c-1.9-0.1-4.6,0.4-5.3-0.6c-0.9-1.3-1-4.3-0.1-5.6c0.7-1,3.5-0.7,5.3-0.9C-2075.2-1268.2-2075.3-1267.7-2075.3-1267.2z"/>
<path class="st0" d="M-2145.7-1282.3c-0.9,2.5,2.2,6.1-2.8,6c-0.8,0-2.2-2.2-2.3-3.5C-2151.2-1283.4-2148.8-1283.1-2145.7-1282.3z"
	/>
<path class="st0" d="M-2136.2-1276.6c0.6-2.4,0.9-4.3,1.7-5.9c0.2-0.4,2.9-0.3,3.1,0.2c0.8,1.6,1,3.5,1.6,5.8
	C-2132.1-1276.6-2133.6-1276.6-2136.2-1276.6z"/>
<path class="st0" d="M-1760.4-1268.5c-2.6,2-3.9,2.9-5.1,3.8c1.3,0.6,2.6,1.2,3.8,1.7c0.1,0.4,0.3,0.7,0.4,1.1
	c-1.8,0-3.6,0.1-5.4,0.1c-0.1-2.1-0.6-4.4,0.1-6.3C-1766.3-1268.7-1763.2-1268.4-1760.4-1268.5z"/>
<path class="st0" d="M-2051.3-1282.5c0,2.1,0,4,0,6c-1.4,0-3,0-5,0c0-2,0-3.9,0-6C-2054.3-1282.5-2052.6-1282.5-2051.3-1282.5z"/>
<path class="st0" d="M-2087.3-1277.6c1.1-1.8,2.2-3.5,3.3-5.3c0.9,1.4,2.8,2.9,2.6,4.1c-0.2,1.2-2.4,2.1-3.7,3.1
	C-2085.9-1276.3-2086.6-1276.9-2087.3-1277.6z"/>
<path class="st0" d="M-1895.8-1267.2c-1.3,0.8-2.6,1.5-3.9,2.3c1.3,0.7,2.7,1.4,4,2.2c0.1,0.4,0.2,0.7,0.2,1.1
	c-1.8-0.1-4.7,0.5-5.2-0.4c-0.9-1.5-1-4.3-0.2-5.7c0.6-1,3.5-0.6,5.3-0.9C-1895.6-1268.2-1895.7-1267.7-1895.8-1267.2z"/>
<path class="st0" d="M-2182.4-1275.5c1-3.4,1.4-5.3,2.3-7c0.2-0.3,2.8-0.1,3,0.4c0.6,1.4,1.2,3.5,0.5,4.6
	C-2177.2-1276.5-2179.4-1276.5-2182.4-1275.5z"/>
<path class="st0" d="M-2058.5-1280.3c-1,0.2-2.1,0.3-3.1,0.5c0,0.2-0.1,0.4-0.1,0.7c1.1,0.3,2.1,0.6,3.2,0.9c0,0.5,0.1,0.9,0.1,1.4
	c-1.7,0-3.9,0.6-4.8-0.2c-0.8-0.7-0.9-3.8-0.1-4.6c1-0.9,3.2-0.5,4.9-0.6C-2058.4-1281.6-2058.5-1280.9-2058.5-1280.3z"/>
<path class="st0" d="M-743.2-402.9c-2.1-0.1-4.9,0.1-7.4-0.6c-1.5-0.4-3.1-2-3.6-3.4c-0.4-1.2,0.6-3,1.5-4.3c0.9-1.5,2.4-2.6,3.6-4
	c3-3.7,7.1-4.2,11-1.4c1.3,1,2.9,1.6,3.9,2.9c1.4,1.8,3.5,4.1,3.3,5.8c-0.3,1.8-2.9,3.7-4.9,4.5C-737.8-402.5-740.3-403-743.2-402.9
	z"/>
<path class="st0" d="M-401.4-403.6c-1.6-0.6-4.1-1.6-6.9-2.7c0-3.6,0-7.6,0-12c5.2,0,10.2,0,15.6,0c0,2.4,0,4.7,0,6.4
	C-395.7-409-398.5-406.3-401.4-403.6z"/>
<path class="st0" d="M-460.5-400.2c0-2.6-0.4-4,0.1-4.7c0.6-0.8,2-1.1,3.1-1.6c0.6,2.4,1.4,4.7,1.5,7.1c0,0.3-2.8,1-4.3,1.3
	c-0.7,0.1-1.4-0.4-2.1-0.4c-1.4-0.1-3.9,0.2-4-0.4c-0.6-1.7-0.6-3.8-0.4-5.7c0.1-0.8,1.5-2,2.3-2c0.9,0,2,1,2.6,1.8
	C-461.2-403.8-461.2-402.7-460.5-400.2z"/>
<path class="st0" d="M-478.3-402.7c1.1-1.2,2.3-2.5,3.5-3.8c0.8,2.3,1.8,4.5,2.1,6.8c0.1,0.6-2.2,1.7-3.6,2.1
	c-1,0.3-2.5-0.8-3.4-0.4c-2.6,1.2-4.3,0.2-4.3-2.1c0-2.1,1.3-4.3,2.1-6.4C-480.7-405.3-479.5-404-478.3-402.7
	C-478.1-402.4-478-402-478.3-402.7z"/>
<path class="st0" d="M-649.3-414.8c1.4,1.7,3,3.7,4.9,6c0.6-1.1,1.3-2.4,2-3.6c0.4,0.2,0.8,0.4,1.2,0.6c-1.5,3.3-3,6.5-4.8,10.3
	c-0.5-3.9-0.8-6.7-1.1-9.4c-0.4,0-0.9,0.1-1.3,0.1c-0.2,1.6-0.4,3.1-0.7,4.7c-5.4,1-8.5-1.5-6-4.8
	C-653.9-412.6-651.5-413.4-649.3-414.8z"/>
<path d="M-587.5-415.9c2.1,2.4,4,3.6,4.2,5.1c0.2,1-2,3.5-3,3.4c-1.4-0.2-3.3-1.7-3.8-3.2C-590.4-411.6-588.8-413.3-587.5-415.9z"/>
<path class="st0" d="M-445.5-402.2c1.7-1.8,2.9-3.1,4.1-4.3c1,1.4,2.8,3,2.7,4.3c-0.1,1.6-1.9,3.2-2.9,4.7
	C-442.7-398.9-443.8-400.2-445.5-402.2z"/>
<path class="st0" d="M-662.9-409.3c-2.6,1.8-4,3.5-5.4,3.6c-1.2,0.1-3.5-2.1-3.4-2.9c0.2-1.5,1.8-3.5,3.1-3.8
	C-667.2-412.6-665.6-410.9-662.9-409.3z"/>
<path class="st0" d="M-432.4-424.3c0,2.7,0,5.4,0,8.1c-0.2,0.1-0.3,0.2-0.5,0.2c-0.3-1-0.7-2.1-1.1-3.5c-0.9,1.3-1.8,2.5-2.9,3.9
	c-0.8-1.3-1.5-2.4-2.5-4c-0.4,1.4-0.8,2.5-1.1,3.5c-0.2,0-0.4,0-0.6-0.1c0-2.8,0-5.5,0-8.3c0.3-0.2,0.7-0.3,1-0.5
	c1,1.9,2.1,3.7,3.3,5.9c1.2-2,2.2-3.9,3.3-5.7C-433.2-424.5-432.8-424.4-432.4-424.3z"/>
<path class="st0" d="M-708.6-415.2c0,3.1,0,6.2,0,9.4c-2.3-0.9-4.1-1.6-6.4-2.4c1.6-2.5,3.2-5,4.8-7.6
	C-709.6-415.5-709.1-415.4-708.6-415.2z"/>
<path class="st0" d="M-445.7-424.5c1.1,2.8,2.1,5.6,3,7.9c-2.5,0-4.7,0-7.4,0c0.8-2.3,1.9-5.1,2.9-7.9
	C-446.7-424.5-446.2-424.5-445.7-424.5z"/>
<path class="st0" d="M-396.4-399.7c1.5-2.1,2.5-3.7,3.8-5.5c-1-0.6-2.1-1.2-3.2-1.8c0.1-0.5,0.1-0.9,0.2-1.4
	c1.5,0.1,4.1-0.1,4.2,0.3c0.5,1.9,0.2,3.9,0.2,5.9c-0.4,0.1-0.8,0.1-1.2,0.2c0.8,0.6,1.5,1.2,2.9,2.3
	C-392.2-399.7-393.9-399.7-396.4-399.7z"/>
<path class="st0" d="M-507.9-410.1c0.3-2,0.5-3.5,0.7-4.9c0.3,0,0.6,0.1,0.8,0.1c0,2.7,0,5.4,0,8.2c-0.3,0.2-0.7,0.3-1,0.5
	c-1.2-1.6-2.4-3.2-3.9-5.3c-0.4,1.8-0.8,3.2-1.1,4.5c-0.2,0-0.4,0-0.6,0c0-2.7,0-5.4,0-9.4C-511.1-414-509.7-412.3-507.9-410.1z"/>
<path class="st0" d="M-719.1-406.8c0.6,0.1,1.9,0.3,3.1,0.5c0,0.2,0,0.4-0.1,0.6c-1.8,0-3.6,0-6.4,0c1.3-1.8,2.3-3,3.1-4.2
	c0.7-1,1.2-2.2,1.8-3.2c-1.1-0.5-2.3-1-3.4-1.6c0.1-0.3,0.2-0.7,0.2-1c1.5,0.5,3.1,1.1,4.6,1.6C-717-411.8-718-409.5-719.1-406.8z"
	/>
<path class="st0" d="M-695.1-404.9c-1.9-0.8-4.5-1.2-5.5-2.7c-0.9-1.4-0.9-4.4,0.1-5.8c1-1.5,3.6-1.8,5.5-2.7
	c-1.9,2.4-3.9,4.2-4.7,6.4c-0.2,0.7,2.9,2.6,4.5,4C-695.1-405.5-695.1-405.2-695.1-404.9z"/>
<path class="st0" d="M-677.5-404.9c-1.9-0.9-4.4-1.5-5.6-3c-0.9-1.1-0.7-4.2,0.2-5.3c1.2-1.5,3.7-2,6.2-3.2
	c-2.4,2.8-4.5,4.5-5.3,6.6c-0.3,0.7,2.9,2.6,4.5,4C-677.5-405.5-677.5-405.2-677.5-404.9z"/>
<path class="st0" d="M-2255.6-402.3c-3-0.4-5.6-0.8-8.6-1.2c0-2.3,0-4.5,0-6.9c2.8,0,5.6,0,8.6,0
	C-2255.6-407.8-2255.6-405.4-2255.6-402.3z"/>
<path class="st0" d="M-2264.3-417.5c2.9-0.4,5.6-0.9,8.7-1.3c0,2.5,0,4.6,0,7c-2.7,0-5.6,0-8.7,0
	C-2264.3-413.7-2264.3-415.4-2264.3-417.5z"/>
<path class="st0" d="M-2265.5-410.3c0,2.3,0,4.3,0,6.6c-2-0.3-3.7-0.6-5.7-0.9c0-1.9,0-3.6,0-5.8
	C-2269.4-410.3-2267.4-410.3-2265.5-410.3z"/>
<path class="st0" d="M-2265.6-411.5c-2,0-3.6,0-5.6,0c0-1.7,0-3.2,0-4.9c1.8-0.4,3.5-0.7,5.6-1.1
	C-2265.6-415.5-2265.6-413.7-2265.6-411.5z"/>
<path class="st0" d="M-860.7-984.7c4.4,0,7.7,0,11.1,0c5.5,0.1,11,0.3,16.5,0.1c1.1,0,2.1-1.8,3.7-3.1c0.7,1.3,1.4,2.5,2,3.6
	c3.9-0.2,7.9-1.1,11.7-0.6c4.3,0.7,8,0.7,11.4-3c3.1,3.4,2.4,7.2,1.2,10.3c-0.4,1.1-4.3,1-6.6,1.1c-4.4,0.3-8.8,0.5-13.3,0.5
	c-3.3,0-6.8,0.1-10-0.6c-1.2-0.2-2-2.4-2.9-3.5c-0.4,0.9-1.1,2.4-1.7,3.8c-0.5,0-0.9-0.1-1.4-0.1c-0.4-1.7-0.7-3.3-1.2-5.4
	c-0.8,3.5-1.6,6.6-6.1,4.8c-4.5-1.8-9.3,2.9-14-0.7c-0.8-0.6-3.3,1.3-5,1.3c-1.6,0-4.4-0.9-4.5-1.5c-0.3-3,0-6.2,0.8-9.1
	c0.1-0.4,3.7-0.4,5.4,0.1C-862.2-986.4-861-985-860.7-984.7z"/>
<path class="st0" d="M-754.6-983.2c-2.3-0.3-3.9-0.4-5.9-0.7c0,1.6,0,3,0,3.9c1.1-1,2.1-2.3,3.3-2.7c0.7-0.3,2.7,1.1,2.7,1.3
	c-0.4,1.6-0.7,3.7-1.9,4.7c-3.2,2.6-7.3,0.3-8.6-5c-0.6,1.3-0.8,2.4-1.5,3.1c-0.8,0.9-2,2.4-2.7,2.3c-1.2-0.2-2.6-1.5-3-2.6
	c-0.9-3-2.1-5.1-4.8-4.6c0.8,1.5,2.2,3.2,2.5,5c0.1,0.8-2.3,2.7-3.5,2.7c-1.9,0-3.7-1.3-5.6-2c0.2-0.5,0.3-1,0.5-1.6
	c1.4,0,2.8,0,3.2,0c-0.9-1.5-3.3-3.7-2.9-5.3c0.8-3.3,3.8-2.6,6.9-2.5c3.2,0.1,5.4,0.2,6.2,3.8C-765.3-989-757.6-989.1-754.6-983.2z
	"/>
<path class="st0" d="M-743.4-981.3c0-1.7-0.5-3.6,0.1-4.9c0.9-1.7,2.6-3.6,4.3-4.2c2.3-0.7,4.9-0.4,7.4-0.1c6.4,0.8,4,6,4,9.4
	c0,3.5,2.3,8.5-4,9.5c-0.7,0.1-1.3,0-2,0.1C-743.4-971.3-743.4-971.3-743.4-981.3z M-742.2-981.2c0,5.6,2.2,8.4,6.7,8.5
	c4.5,0,6.8-2.6,6.9-7.8c0.1-6-2.2-8.8-7-8.7C-740-989.2-742.2-986.5-742.2-981.2z"/>
<path class="st0" d="M-792.5-976.4c-2,0-3.7,0-5.8,0c0-3.9,0-7.5,0-10.8c3.2,0.9,6.1,1.6,9,2.5c2.2,0.7,3.5,6.2,1.8,7.7
	c-0.4,0.4-2.2,0-2.6-0.5c-0.6-0.8-0.5-2.2-1.1-4.7C-791.9-979.4-792.2-978-792.5-976.4z"/>
<path class="st0" d="M-894-989.9c2.4,1.6,4.8,4.3,7.1,4.3c2.2,0,4.3-3,6.5-4.7c0.5,0.6,0.9,1.1,1.4,1.7c-2.9,2.4-5.7,6.4-8.7,6.5
	c-2.6,0.1-5.3-4.4-7.9-6.8C-895.1-989.2-894.5-989.6-894-989.9z"/>
<path class="st0" d="M-877.7-977.1c-6.5,1.1-13,1.3-19.5-0.1c0-0.4,0-0.8,0-1.3c6.5,0,13,0,19.5,0
	C-877.7-978-877.7-977.5-877.7-977.1z"/>
<path class="st0" d="M-2252.5-1330.9c3.7,0.7,8.2-0.1,9.2,5c0.7,3.9-4.2,7.7-9.3,7.6c-4.9-0.1-9.5-3.7-8.9-7.5
	C-2260.7-1330.9-2256.1-1330.2-2252.5-1330.9z M-2251.3-1330c-2.2,2.3-3.5,3.7-5.7,5.9c1.8,0.9,3.5,2.2,5.3,2.3c1,0.1,3-2.1,2.9-3.1
	C-2248.9-1326.7-2250.3-1328.3-2251.3-1330z"/>
<path class="st0" d="M-1068.2-1145c3.4-2,5.7-3.5,8.2-4.8c1-0.5,2.3-0.4,3.4-0.6c-0.3,1-0.4,2.2-0.9,3c-1.7,2.5-3.6,4.8-5.8,7.8
	C-1066-1142.6-1067.4-1144.1-1068.2-1145z"/>
<path class="st0" d="M-1970.9-1453.2c0.6,2.3,0.9,3.7,1.2,4.7c-1.7,1.4-3.1,2.5-4.5,3.6c-0.4-0.2-0.8-0.5-1.2-0.7
	C-1974-1447.9-1972.7-1450.1-1970.9-1453.2z"/>
<path class="st0" d="M-2066.3-1446.2c-1.1-6.4-0.9-6.5,9.8-5c0.7,5.9,0.6,6-5,5C-2063.1-1446.4-2064.7-1446.2-2066.3-1446.2z"/>
<path class="st0" d="M-1181.8-1369.6c3.9-1.8-2.4-5.5,3-6.1c0.1,0,0.5,1.6,0.9,3c0.9-1.1,1.6-2,3-3.8c0.2,2.8,0.4,4.5,0.5,6.1
	C-1176.4-1370.2-1178.2-1370-1181.8-1369.6z"/>
<path class="st0" d="M-2205-1321.6c-1.1-1.9-3.4-3.9-3.1-5.6c0.3-1.7,2.9-3.1,4.5-4.6c1.5,1.6,4,3.2,4.2,4.9
	c0.2,1.7-2.2,3.6-3.4,5.3C-2203.6-1321.5-2204.3-1321.5-2205-1321.6z"/>
<path class="st0" d="M-2136.1-1322.7c0-2.8,0-5.6,0-8.5c3.4-0.8,5.8,0.4,6,3.8C-2129.8-1323.6-2132.1-1322.2-2136.1-1322.7z"/>
<path class="st0" d="M-1935.8-1158.3c-1.7,1.7-2.8,2.8-3.9,3.9c-1-1.3-2.8-2.6-2.7-3.7c0.1-1.5,1.8-2.9,2.7-4.3
	C-1938.5-1161.3-1937.4-1160.1-1935.8-1158.3z"/>
<path class="st0" d="M-1741.3-1445.6c-1.4,0.3-2.9,0.9-4.3,1c-1.4,0.1-3.3,0.1-4.1-0.7c-0.7-0.7-0.6-3.3,0.1-3.9
	c1.2-1,3.7-1.9,4.6-1.3c1.6,1,2.4,3.3,3.5,5C-1741.5-1445.5-1741.3-1445.6-1741.3-1445.6z"/>
<path class="st0" d="M-1259-1336.3c2.1,2.8,4.4,4.5,4.3,6c-0.1,1.6-2.5,3.1-3.8,4.7c-1.6-1.5-4.1-2.8-4.5-4.6
	C-1263.4-1331.5-1261-1333.4-1259-1336.3z"/>
<path class="st0" d="M-440.2-1444.9c0-1.9,0-3.5,0-5.3c1.9,0,3.6,0,5.5,0c0,1.8,0,3.4,0,5.3C-436.3-1444.9-438-1444.9-440.2-1444.9z
	"/>
<path class="st0" d="M-1017.2-766.4c0-2.2,0-4.5,0-6.7c0.4-0.3,0.8-0.6,1.3-0.9c1.2,1.4,3.4,2.8,3.4,4.2c0,1.5-1.9,3.1-3,4.6
	C-1016.1-765.6-1016.7-766-1017.2-766.4z"/>
<path d="M-2224.6-1275.6c1.7,1.2,2.8,1.9,4,2.7c-1.5,0.7-2.9,1.6-4.4,1.9c-0.5,0.1-2-1.5-1.9-2
	C-2226.7-1274-2225.6-1274.6-2224.6-1275.6z"/>
<path d="M-2262.9-1279.3c1.9,2.6,3.7,5.1,6,8.3c-2.1-0.3-3.9-0.7-6.4-1.1C-2263.2-1274.5-2263-1276.9-2262.9-1279.3
	C-2262.9-1279.3-2262.9-1279.3-2262.9-1279.3z"/>
<path d="M-742.2-981.2c0-5.3,2.2-8,6.6-8.1c4.8-0.1,7.1,2.7,7,8.7c-0.1,5.2-2.4,7.9-6.9,7.8C-740-972.8-742.2-975.6-742.2-981.2z
	 M-733.4-984.7c-8.7-1.7-2.2,5.3-5,7.3C-729.5-975.9-733.9-981.7-733.4-984.7z"/>
<path d="M-2251.3-1330c0.9,1.7,2.4,3.3,2.6,5.1c0.1,1-2,3.2-2.9,3.1c-1.8-0.1-3.6-1.5-5.3-2.3
	C-2254.7-1326.3-2253.4-1327.7-2251.3-1330z"/>
<path class="st0" d="M-733.4-984.7c-0.5,3.1,3.9,8.8-5,7.3C-735.6-979.4-742.1-986.4-733.4-984.7z"/>
</svg>
