<svg width="56" height="57" viewBox="0 0 56 57" fill="none" xmlns="http://www.w3.org/2000/svg">
<circle cx="28.0762" cy="28.4359" r="26.5" fill="white" stroke="#00B071" stroke-width="2"/>
<path d="M38.623 19.0491C38.7402 18.9319 38.8574 18.8734 39.0918 18.8734C39.2676 18.8734 39.4434 18.9319 39.6191 19.0491L41.2598 20.7484C41.377 20.8655 41.4941 21.0413 41.4941 21.2171C41.4941 21.4515 41.377 21.6273 41.2598 21.7444L23.6816 39.3226C23.5645 39.4398 23.3887 39.4984 23.2129 39.4984C22.9785 39.4984 22.8027 39.4398 22.6855 39.3226L14.8926 31.471C14.7168 31.3538 14.6582 31.2366 14.6582 31.0023C14.6582 30.8265 14.7168 30.6507 14.8926 30.4749L16.5332 28.8343C16.6504 28.7171 16.8262 28.5999 17.0605 28.5999C17.2363 28.5999 17.4121 28.7171 17.5293 28.8343L23.2129 34.5179L38.623 19.0491Z" fill="#00B071"/>
</svg>
