<svg width="171" height="172" viewBox="0 0 171 172" fill="none" xmlns="http://www.w3.org/2000/svg">
<circle r="84.805" transform="matrix(-1 0 0 1 85.6955 85.8695)" stroke="#C6C6C6" stroke-dasharray="2 2"/>
<g clip-path="url(#clip0_296_1086)">
<path d="M118.698 122.512C119.937 122.512 121.065 122.512 122.206 122.512C123.125 122.512 123.473 122.162 123.473 121.252C123.473 105.176 123.556 89.1003 123.431 73.0104C123.32 58.6569 113.13 45.6757 99.2102 41.7968C81.0585 36.7415 62.4614 47.6642 57.9652 66.0087C57.297 68.7113 57.0047 71.47 57.0047 74.2567C57.0047 89.8285 57.0047 105.386 57.0047 120.958C57.0047 122.26 57.2553 122.512 58.5498 122.512C59.5521 122.512 60.5404 122.512 61.5426 122.526C61.5844 122.526 61.6262 122.554 61.7514 122.582C61.7654 122.807 61.7793 123.045 61.7793 123.297C61.7793 125.257 61.7793 127.218 61.7793 129.178C61.7793 130.214 62.0994 130.536 63.0878 130.536C65.134 130.536 67.1802 130.634 69.2126 130.508C70.7298 130.41 72.2332 130.032 73.7366 129.752C79.1097 128.716 84.4828 127.666 89.8559 126.657C90.3153 126.573 90.8164 126.671 91.2897 126.77C97.6233 127.988 103.943 129.22 110.277 130.452C110.569 130.508 110.875 130.55 111.167 130.55C113.255 130.564 115.343 130.564 117.431 130.55C118.336 130.55 118.684 130.186 118.698 129.276C118.712 127.316 118.698 125.355 118.698 123.395C118.698 123.115 118.698 122.863 118.698 122.512ZM59.0092 120.44C59.0092 120.188 59.0092 120.006 59.0092 119.81C59.0092 104.504 58.9953 89.1983 59.0231 73.8926C59.0231 72.3382 59.1623 70.7698 59.399 69.2295C62.1969 50.983 79.8753 39.1081 97.7068 43.4912C111.655 46.922 121.454 59.5251 121.468 74.1447C121.482 89.3384 121.468 104.518 121.468 119.712C121.468 119.936 121.468 120.16 121.468 120.44C100.644 120.44 79.8753 120.44 59.0092 120.44ZM63.8673 122.568C81.4622 122.568 99.0292 122.568 116.624 122.568C116.624 124.557 116.624 126.503 116.624 128.422C114.62 128.422 112.601 128.702 110.708 128.366C104.013 127.204 97.3588 125.831 90.6911 124.557C90.4266 124.501 90.1343 124.501 89.8698 124.557C83.7868 125.719 77.7038 126.84 71.6486 128.1C69.0734 128.632 66.4982 128.436 63.8673 128.52C63.8673 126.503 63.8673 124.557 63.8673 122.568Z" fill="#31C780"/>
<path d="M53.0375 89.5904C53.0375 84.4092 53.0375 79.2279 53.0375 74.0466C53.0375 73.8086 53.0514 73.5845 53.0236 73.3465C52.9679 72.7443 52.6477 72.3942 52.0492 72.3802C51.4506 72.3662 51.1026 72.7163 51.0469 73.3185C51.0191 73.5565 51.033 73.7806 51.033 74.0186C51.033 84.4232 51.033 94.8277 51.033 105.232C51.033 105.484 51.0191 105.75 51.0609 106.002C51.1583 106.521 51.4924 106.829 52.0213 106.829C52.5503 106.843 52.8983 106.549 53.0096 106.016C53.0653 105.764 53.0375 105.512 53.0375 105.246C53.0514 100.037 53.0375 94.8137 53.0375 89.5904Z" fill="#31C780"/>
<path d="M66.0247 74.3967C66.1778 88.5822 77.6479 98.9588 90.6214 98.7627C104.193 98.5527 114.954 87.0278 114.452 73.3885C113.979 60.4633 102.732 49.7787 89.8836 50.0588C76.8545 50.3249 66.0943 60.9395 66.0247 74.3967ZM76.0889 57.0885C86.5985 67.6611 96.9689 78.0937 107.437 88.6242C106.49 89.6745 105.488 90.7808 104.597 91.775C93.9482 81.0624 83.5918 70.6438 73.1378 60.1273C74.0983 59.133 75.1284 58.0687 76.0889 57.0885ZM102.62 93.0213C101.437 93.6375 100.296 94.2116 99.1822 94.8277C98.6115 95.1498 98.2356 95.0798 97.7484 94.5897C91.9159 88.6802 86.0556 82.7988 80.2092 76.9174C76.8266 73.5145 73.458 70.1257 70.0894 66.7229C69.9084 66.5408 69.6578 66.2047 69.7274 66.0647C70.3538 64.6924 71.0498 63.334 71.7319 61.9477C82.0884 72.3662 92.2918 82.6308 102.62 93.0213ZM77.982 55.7162C79.3044 55.058 80.5711 54.3858 81.8796 53.7837C82.0606 53.6997 82.4503 53.8537 82.6174 54.0218C91.9298 63.362 101.214 72.7163 110.527 82.0566C110.833 82.3647 110.945 82.6168 110.722 83.0229C110.137 84.1011 109.58 85.2074 109.01 86.2997C108.926 86.4537 108.801 86.5657 108.745 86.6357C98.5001 76.3432 88.2967 66.0927 77.982 55.7162ZM68.8783 68.5853C77.9402 77.7016 86.9882 86.8038 96.0502 95.92C94.3519 96.3961 92.5702 96.6762 90.7606 96.6902C90.5657 96.6902 90.343 96.5082 90.1898 96.3541C82.9375 89.0723 75.6852 81.7766 68.4329 74.4668C68.2798 74.3127 68.0988 74.0887 68.0988 73.8926C68.1406 72.0722 68.3772 70.2797 68.8783 68.5853ZM111.78 80.2782C102.593 71.0359 93.5863 61.9757 84.427 52.7615C86.1391 52.5514 87.7817 52.3554 89.4242 52.1313C89.9114 52.0613 90.2455 52.2573 90.5796 52.5934C93.5446 55.6041 96.5374 58.6009 99.5163 61.6116C103.664 65.7846 107.813 69.9577 111.947 74.1307C112.142 74.3267 112.392 74.6348 112.378 74.8729C112.225 76.6513 111.989 78.4157 111.78 80.2782ZM87.2806 96.4661C77.2303 95.4579 69.0871 86.3977 68.3633 77.4495C74.6273 83.737 80.947 90.0946 87.2806 96.4661ZM93.3497 52.3273C98.2635 53.0555 102.481 55.184 105.989 58.7409C109.427 62.2418 111.487 66.4428 112.197 71.288C105.919 64.9584 99.6415 58.6569 93.3497 52.3273Z" fill="#31C780"/>
<path d="M101.688 109.657C101.716 114.419 105.53 118.199 110.276 118.171C114.926 118.143 118.726 114.25 118.698 109.545C118.67 104.826 114.8 101.031 110.068 101.073C105.418 101.115 101.66 104.966 101.688 109.657ZM111.195 103.216C114.55 103.622 116.958 106.829 116.638 110.358C116.332 113.718 113.228 116.351 109.845 116.127C106.268 115.903 103.581 112.934 103.706 109.377C103.818 106.283 106.504 103.244 109.191 103.258C109.191 103.538 109.191 103.804 109.191 104.084C109.191 105.876 109.177 107.669 109.191 109.475C109.191 110.203 109.608 110.638 110.221 110.61C110.805 110.596 111.167 110.175 111.195 109.475C111.209 108.817 111.195 108.173 111.195 107.515C111.195 106.101 111.195 104.686 111.195 103.216Z" fill="#31C780"/>
<path d="M78.7895 109.629C78.7895 104.854 75.0033 101.073 70.2566 101.073C65.5795 101.073 61.7932 104.924 61.7932 109.643C61.7932 114.348 65.6212 118.171 70.2983 118.171C75.0033 118.171 78.8034 114.348 78.7895 109.629ZM71.3006 103.244C74.4465 103.524 76.966 106.689 76.785 109.993C76.6041 113.438 73.6809 116.183 70.2427 116.141C66.7209 116.099 63.8951 113.298 63.8116 109.741C63.742 106.493 66.3033 103.426 69.2822 103.23C69.2822 103.468 69.2822 103.692 69.2822 103.916C69.2822 105.708 69.2822 107.515 69.2822 109.307C69.2822 110.161 69.6441 110.624 70.2983 110.61C70.9386 110.596 71.2866 110.147 71.3006 109.293C71.3006 108.873 71.3006 108.453 71.3006 108.033C71.3006 106.451 71.3006 104.868 71.3006 103.244Z" fill="#31C780"/>
<path d="M90.2315 108.621C88.2827 108.621 86.3479 108.621 84.3991 108.621C83.6056 108.621 83.1463 108.985 83.1323 109.601C83.1184 110.245 83.5917 110.624 84.413 110.638C88.3245 110.638 92.236 110.638 96.1475 110.638C96.941 110.638 97.3864 110.274 97.4142 109.657C97.4282 109.013 96.9688 108.635 96.1336 108.635C94.1709 108.607 92.1943 108.621 90.2315 108.621Z" fill="#31C780"/>
</g>
<defs>
<clipPath id="clip0_296_1086">
<rect width="72.4675" height="90" fill="white" transform="matrix(-1 0 0 1 123.5 40.5645)"/>
</clipPath>
</defs>
</svg>
