<?xml version="1.0" encoding="utf-8"?>
<!-- Generator: Adobe Illustrator 24.2.1, SVG Export Plug-In . SVG Version: 6.00 Build 0)  -->
<svg version="1.1" id="Layer_2_1_" xmlns="http://www.w3.org/2000/svg" xmlns:xlink="http://www.w3.org/1999/xlink" x="0px" y="0px"
	 viewBox="0 0 512 512" style="enable-background:new 0 0 512 512;" xml:space="preserve">
<style type="text/css">
	.st0{clip-path:url(#SVGID_1_);}
	.st1{fill:#FFFFFF;}
</style>
<g>
	<defs>
		<rect id="SVGID_3_" x="135.5" y="118.1" width="241" height="275.8"/>
	</defs>
	<clipPath id="SVGID_1_">
		<use xlink:href="#SVGID_3_"  style="overflow:visible;"/>
	</clipPath>
	<g class="st0">
		<path class="st1" d="M333.9,218.1c4.9,1.3,9.3,2.5,13.7,3.7c7.1,1.9,14.2,3.8,21.2,5.7c2.8,0.8,4.4,2.7,4.6,5.2
			c0.3,4.3-3.2,7.3-7.5,6.1c-10.5-2.7-21-5.6-31.5-8.4c-4.6-1.2-9.1-2.5-13.6-3.6c-0.8-0.2-1.8-0.2-2.5,0.2
			c-16.5,9.4-33,18.9-49.5,28.4c-0.2,0.1-0.4,0.3-0.8,0.6c0.6,0.4,1,0.8,1.5,1c15.9,9.2,31.9,18.4,47.9,27.6c1.3,0.8,2.5,0.9,4,0.5
			c14.3-3.9,28.6-7.7,43-11.6c0.4-0.1,0.9-0.2,1.4-0.3c3.5-0.8,6.7,0.8,7.5,4c0.9,3.3-0.9,6.3-4.5,7.3c-5,1.4-10,2.7-15,4
			c-5.9,1.6-11.8,3.2-17.7,4.8c-0.6,0.2-1.1,0.4-2.1,0.7c1,0.6,1.8,1.1,2.5,1.5c12.2,7,24.3,14,36.5,21c2.7,1.5,3.9,3.8,3.5,6.3
			c-0.8,4.3-5,6.3-9,4.1c-7.1-4-14.2-8.2-21.3-12.3c-5.9-3.4-11.9-6.8-18.2-10.5c0.1,0.9,0.2,1.5,0.3,2c2.8,10.5,5.6,21,8.4,31.5
			c0.1,0.5,0.3,1,0.4,1.6c0.9,3.7-0.7,6.7-4.1,7.6c-3.2,0.9-6.2-1-7.2-4.7c-1.4-4.9-2.7-9.8-4-14.8c-2.7-10-5.3-20-8.1-29.9
			c-0.2-0.9-1-1.9-1.8-2.4c-16-9.3-32.1-18.6-48.2-27.8c-0.5-0.3-1-0.5-1.8-0.8c0,0.9-0.1,1.5-0.1,2.2c0,18.4,0,36.7,0,55.1
			c0,1.4,0.4,2.4,1.4,3.3c10.8,10.7,21.5,21.5,32.2,32.2c1.7,1.7,2.8,3.6,2.2,6.1c-1.1,4.5-6.5,6-9.9,2.8c-3-2.8-5.8-5.8-8.7-8.7
			c-5.1-5.1-10.2-10.2-15.3-15.3c-0.5-0.5-1-0.9-1.9-1.8c0,1.2-0.1,1.9-0.1,2.6c0,13.8,0,27.7,0,41.6c0,1,0,2-0.3,3
			c-0.6,2.5-2.9,4.2-5.4,4.3c-2.6,0-5.1-1.7-5.7-4.2c-0.2-1-0.3-2-0.3-3c0-13.8,0-27.7,0-41.6c0-0.7,0-1.5,0-2.7
			c-0.9,0.8-1.5,1.4-2.1,1.9c-7.7,7.7-15.5,15.5-23.3,23.2c-1.2,1.1-2.9,2-4.5,2.3c-2.4,0.4-4.3-0.8-5.4-3c-1.1-2.2-0.9-4.3,0.6-6.3
			c0.4-0.6,1-1.1,1.5-1.6c10.6-10.6,21.1-21.1,31.7-31.6c1.1-1,1.6-2.1,1.6-3.7c0-18.2,0-36.4,0-54.7c0-0.7,0-1.5,0-2.5
			c-1,0.5-1.6,0.8-2.2,1.1c-15.7,9-31.4,18.1-47.2,27.1c-1.5,0.9-2.3,2-2.8,3.6c-3.8,14.4-7.6,28.7-11.5,43
			c-0.1,0.4-0.2,0.8-0.3,1.2c-1,3.5-4,5.4-7.2,4.5c-3.4-0.9-5-4-4.1-7.5c2.1-7.9,4.2-15.8,6.3-23.7c1-3.6,1.9-7.2,3-11.4
			c-1.2,0.6-1.9,1-2.7,1.5c-12.2,7.1-24.5,14.1-36.7,21.1c-4.1,2.3-8.4,0.6-9.3-3.8c-0.5-2.6,0.7-4.8,3.4-6.4
			c11.4-6.6,22.8-13.2,34.2-19.7c1.5-0.8,2.9-1.7,4.7-2.7c-0.9-0.3-1.4-0.6-1.9-0.7c-11-2.9-21.9-5.9-32.9-8.8
			c-3.1-0.8-4.7-2.9-4.7-5.7c0-2.7,1.5-5,4.1-5.6c1.2-0.3,2.6-0.2,3.8,0.1c14.9,3.9,29.7,7.9,44.6,11.8c0.9,0.2,2.1,0.2,2.8-0.2
			c16.5-9.4,33-18.9,49.5-28.4c0.2-0.1,0.3-0.2,0.7-0.5c-0.5-0.4-1-0.7-1.5-1c-15.9-9.2-31.9-18.4-47.9-27.6c-1.4-0.8-2.6-1-4.2-0.5
			c-14.2,3.9-28.5,7.7-42.8,11.5c-0.6,0.2-1.2,0.3-1.7,0.4c-3.3,0.7-6.3-0.9-7.2-4c-0.9-3.3,0.8-6.4,4.2-7.4
			c4.1-1.2,8.2-2.2,12.3-3.3c7-1.9,14-3.8,21-5.6c0.5-0.1,1-0.3,1.9-0.6c-1.8-1-3.3-1.9-4.8-2.8c-11.4-6.7-22.8-13.2-34.2-19.8
			c-2.7-1.5-3.9-3.8-3.4-6.3c0.8-4.3,5-6.3,9-4c6.3,3.6,12.6,7.2,18.9,10.9c6.2,3.6,12.5,7.2,18.7,10.8c0.5,0.3,1,0.6,1.9,1
			c-0.2-1-0.3-1.6-0.5-2.2c-2.9-10.7-5.7-21.3-8.5-31.9c-0.4-1.4-0.5-2.9-0.3-4.4c0.5-2.6,2.9-4.4,5.6-4.4c2.7,0,4.9,1.7,5.7,4.6
			c1.5,5.5,3,11,4.4,16.5c2.5,9.5,5.1,19.1,7.7,28.6c0.2,0.8,0.9,1.9,1.7,2.3c16.1,9.4,32.4,18.7,48.5,28c0.4,0.2,0.8,0.4,1.5,0.7
			c0.1-0.8,0.2-1.5,0.2-2.1c0-18.4,0-36.8,0-55.3c0-1.1-0.6-2.5-1.4-3.3c-10.5-10.6-21.1-21.1-31.6-31.7c-0.6-0.6-1.4-1.3-1.9-2.1
			c-1.6-2.3-1.3-5.4,0.8-7.4c2-2,5.3-2.2,7.6-0.5c0.7,0.5,1.3,1.2,1.9,1.8c7.5,7.5,15.1,15.1,22.7,22.7c0.5,0.5,1,1,2,1.9
			c0-1.3,0-2.1,0-2.8c0-13.5,0-27,0-40.6c0-0.7,0-1.5,0-2.2c0.2-3.4,2.7-5.9,5.9-5.9c3.2,0,5.7,2.5,5.9,5.9c0,0.7,0,1.3,0,2
			c0,13.6,0,27.2,0,40.8c0,0.8,0,1.5,0,2.9c1-0.9,1.6-1.5,2.1-2c7.9-7.8,15.7-15.7,23.6-23.5c3.5-3.5,8.8-2.2,10.1,2.4
			c0.7,2.5-0.3,4.4-2,6.2c-8.9,8.9-17.8,17.8-26.7,26.7c-2,2-4,4-6,6c-0.6,0.6-1,1.6-1,2.4c0,18.8,0,37.6,0,56.5
			c0,0.3,0,0.6,0.1,1.3c0.8-0.4,1.4-0.6,2-1c15.9-9.2,31.9-18.4,47.8-27.6c0.8-0.5,1.7-1.6,1.9-2.5c4-14.4,7.8-28.9,11.7-43.4
			c0.2-0.6,0.3-1.2,0.5-1.7c1-3.2,4-5,7-4.3c3.3,0.8,5.2,3.9,4.3,7.3c-1.7,6.6-3.5,13.1-5.2,19.7c-1.3,4.7-2.5,9.3-3.8,14
			c-0.1,0.4-0.2,0.9-0.3,1.8c3.9-2.3,7.5-4.3,11.1-6.3c9.4-5.4,18.8-10.9,28.3-16.3c4-2.3,8.4-0.3,9.1,4c0.4,2.4-0.8,4.6-3.3,6.1
			c-7.7,4.4-15.4,8.9-23.1,13.3c-4.7,2.7-9.4,5.4-14.2,8.2C335.4,217.1,334.9,217.4,333.9,218.1z"/>
	</g>
</g>
</svg>
