<svg width="171" height="172" viewBox="0 0 171 172" fill="none" xmlns="http://www.w3.org/2000/svg">
<circle r="84.805" transform="matrix(-1 0 0 1 85.6955 86.0311)" stroke="#C6C6C6" stroke-dasharray="2 2"/>
<g clip-path="url(#clip0_296_1075)">
<path d="M85.7027 53.5589C97.9045 53.5589 110.106 53.6149 122.322 53.5309C126.352 53.503 129.437 56.6802 129.368 60.5992C129.27 66.6177 129.34 72.6362 129.34 78.6548C129.34 82.8957 126.588 85.653 122.377 85.653C97.9045 85.653 73.4176 85.653 48.9447 85.653C44.8034 85.653 42.0239 82.8677 42.0239 78.7247C42.0239 72.6642 42.0239 66.5897 42.0239 60.5292C42.0378 56.3303 44.7617 53.5729 48.9447 53.5729C61.202 53.5589 73.4454 53.5589 85.7027 53.5589ZM117.555 82.9937C119.251 82.9937 120.849 82.9937 122.433 82.9937C122.739 82.9937 123.031 82.9937 123.336 82.9517C125.212 82.6858 126.658 81.1461 126.672 79.2286C126.699 72.8182 126.699 66.4078 126.672 59.9834C126.658 58.2478 125.49 56.8061 123.809 56.3722C123.281 56.2323 122.711 56.2183 122.155 56.2183C107.563 56.2043 92.971 56.2183 78.3928 56.2183C68.5536 56.2183 58.7144 56.2183 48.8613 56.2183C46.3737 56.2183 44.6783 57.7999 44.6783 60.1793C44.6644 66.4638 44.6644 72.7342 44.6783 79.0047C44.6783 81.3141 46.3321 82.9517 48.639 82.9797C50.1955 83.0077 51.7381 82.9797 53.2945 82.9797C53.4474 82.9797 53.6003 82.9517 53.8087 82.9237C53.8087 82.6578 53.8087 82.4198 53.8087 82.1959C53.8087 81.3141 53.8087 80.4183 53.8087 79.5365C53.8226 76.4433 55.796 74.4558 58.8673 74.4558C69.0817 74.4558 79.2962 74.4558 89.5106 74.4558C97.154 74.4558 104.797 74.4558 112.441 74.4558C113.817 74.4558 115.054 74.7917 116.068 75.7575C117.055 76.7092 117.569 77.871 117.569 79.2426C117.555 80.4743 117.555 81.706 117.555 82.9937ZM114.859 82.9517C114.859 81.5241 114.929 80.1384 114.831 78.7527C114.776 77.9549 114.178 77.4231 113.386 77.2271C113.052 77.1431 112.705 77.1291 112.358 77.1291C95.4169 77.1291 78.4623 77.1291 61.5217 77.1291C60.5489 77.1291 59.5761 77.1151 58.6033 77.1291C57.5054 77.1571 56.5882 77.815 56.5187 78.8087C56.4214 80.1664 56.4909 81.5381 56.4909 82.9517C75.9608 82.9517 95.3891 82.9517 114.859 82.9517Z" fill="#31C780"/>
<path d="M100.865 98.0681C100.503 99.4817 100.198 100.909 99.753 102.295C99.2805 103.779 98.6412 105.206 98.1548 106.69C97.4738 108.747 97.5433 110.763 98.7385 112.666C99.0442 113.156 99.1832 113.744 98.7663 114.164C98.4466 114.486 97.9046 114.766 97.4738 114.752C97.1125 114.738 96.6539 114.346 96.4316 113.996C95.0418 111.799 94.6388 109.405 95.3615 106.9C95.8618 105.178 96.5705 103.527 97.1542 101.833C97.446 100.979 97.724 100.112 97.8908 99.2158C98.1687 97.6762 97.9047 96.2065 97.0847 94.8489C97.0291 94.7509 96.9596 94.6529 96.918 94.5409C96.5566 93.7991 96.7373 93.0993 97.3905 92.7214C98.0714 92.3295 98.7524 92.4834 99.1971 93.1693C100.17 94.6389 100.698 96.2625 100.698 98.0401C100.74 98.0261 100.809 98.0541 100.865 98.0681Z" fill="#31C780"/>
<path d="M73.6263 98.11C73.6541 96.8644 73.2649 95.7306 72.6396 94.6669C72.0976 93.7431 72.4033 92.8893 73.3205 92.5814C73.9459 92.3715 74.4879 92.5814 74.9048 93.2393C76.3084 95.4367 76.7253 97.8301 76.0166 100.336C75.5163 102.071 74.7936 103.751 74.2099 105.458C73.9181 106.34 73.6402 107.236 73.4734 108.146C73.1955 109.741 73.529 111.239 74.3767 112.624C74.8631 113.408 74.6825 114.178 74.0154 114.57C73.3066 115.004 72.584 114.78 72.0698 113.982C70.4577 111.435 70.3187 108.733 71.2637 105.934C71.7363 104.52 72.3616 103.163 72.8202 101.749C73.2094 100.559 73.4734 99.3417 73.7791 98.138C73.7374 98.138 73.6819 98.124 73.6263 98.11Z" fill="#31C780"/>
<path d="M82.6733 112.932C83.0486 111.505 83.3682 110.049 83.8129 108.649C84.3271 107.012 85.0359 105.43 85.5362 103.793C86.1059 101.903 85.8558 100.07 84.7857 98.362C84.48 97.8721 84.3688 97.2842 84.7857 96.8643C85.1192 96.5424 85.6612 96.3045 86.1059 96.3185C86.4534 96.3325 86.8842 96.7104 87.0926 97.0463C88.7047 99.5237 88.8715 102.197 87.9543 104.94C87.454 106.438 86.8425 107.894 86.3005 109.391C85.7446 110.917 85.2999 112.47 85.6751 114.094C85.8558 114.85 86.1754 115.592 86.5229 116.292C86.9537 117.187 86.8842 117.887 86.1893 118.307C85.4528 118.755 84.744 118.531 84.2159 117.677C83.3404 116.236 82.8262 114.696 82.8679 112.974C82.8123 112.96 82.7428 112.946 82.6733 112.932Z" fill="#31C780"/>
<path d="M68.067 62.1109C68.0531 62.9087 67.5389 63.4266 66.7607 63.3986C66.0102 63.3846 65.4404 62.8107 65.4404 62.0689C65.4404 61.3271 66.038 60.7532 66.7885 60.7672C67.5389 60.7812 68.0809 61.3411 68.067 62.1109Z" fill="#31C780"/>
<path d="M59.6317 60.7812C60.3961 60.7952 60.952 61.3691 60.9242 62.1249C60.8964 62.8667 60.3127 63.4126 59.5483 63.3846C58.8118 63.3566 58.2837 62.8247 58.2837 62.0829C58.2976 61.3271 58.8813 60.7672 59.6317 60.7812Z" fill="#31C780"/>
<path d="M52.5717 63.4126C51.7935 63.4126 51.2793 62.8807 51.2793 62.0829C51.2793 61.3271 51.8491 60.7672 52.6134 60.7812C53.3778 60.7952 53.9198 61.3551 53.9059 62.1109C53.892 62.8667 53.35 63.3986 52.5717 63.4126Z" fill="#31C780"/>
</g>
<defs>
<clipPath id="clip0_296_1075">
<rect width="87.3438" height="65" fill="white" transform="translate(42.0239 53.531)"/>
</clipPath>
</defs>
</svg>
