<?xml version="1.0" encoding="utf-8"?>
<!-- Generator: Adobe Illustrator 26.3.1, SVG Export Plug-In . SVG Version: 6.00 Build 0)  -->
<svg version="1.1" id="Layer_2_1_" xmlns="http://www.w3.org/2000/svg" xmlns:xlink="http://www.w3.org/1999/xlink" x="0px" y="0px"
	 viewBox="0 0 512 512" style="enable-background:new 0 0 512 512;" xml:space="preserve">
<style type="text/css">
	.st0{clip-path:url(#SVGID_00000151525661633949825250000005166411946019946165_);}
	.st1{fill:#FFFFFF;}
</style>
<g>
	<defs>
		<rect id="SVGID_1_" x="135.5" y="162.1" width="241" height="187.8"/>
	</defs>
	<clipPath id="SVGID_00000006669607128877441060000011182035849867274174_">
		<use xlink:href="#SVGID_1_"  style="overflow:visible;"/>
	</clipPath>
	<g style="clip-path:url(#SVGID_00000006669607128877441060000011182035849867274174_);">
		<path class="st1" d="M174,341.1c0.9,0,1.6,0.1,2.3,0.1c13.1,0,26.2,0,39.4,0c2.1,0,2.6-0.6,2.5-2.6c-0.1-12.7,0-25.4,0-38.1
			c0-4.3,1.3-5.6,5.7-5.6c11.3,0,22.6,0,33.9,0c4.4,0,5.8,1.4,5.8,5.8c0,12.5,0,25,0,37.5c0,0.9,0,1.8,0,2.9c14.7,0,29.3,0,44,0
			c0-0.8,0.1-1.6,0.1-2.4c0-9,0-18.1,0-27.1c0-1.6,0.3-2.3,2.1-2.2c2.1,0.2,4.2,0,6.4,0c0,0.9,0.1,1.6,0.1,2.3c0,11,0,22,0,33
			c0,3.7-1.5,5.3-5.2,5.3c-17,0-34,0-50.9,0c-3.7,0-5.2-1.6-5.2-5.3c0-12.6,0-25.3,0-37.9c0-0.9,0-1.8,0-3c-0.8,0-1.4-0.2-2.1-0.2
			c-8,0-16,0-24,0c-1.8,0-2.2,0.6-2.2,2.3c0,12.8,0,25.7,0,38.5c0,4.2-1.3,5.5-5.6,5.5c-16.8,0-33.5,0-50.3,0c-4,0-5.5-1.5-5.5-5.4
			c0-26.4,0-52.7,0-79.1c0-2.1,0.6-3.6,2.2-5c23.2-20.8,46.5-41.6,69.7-62.5c2.4-2.2,4.5-2.3,6.7-0.4c9,7.8,18,15.6,27,23.4
			c0.3,0.2,0.5,0.5,0.8,0.9c-1.8,2.1-3.6,4.2-5.6,6.4c-8.5-7.3-16.8-14.6-25.3-22c-0.6,0.5-1.2,1-1.8,1.5c-21.2,19-42.4,38-63.6,57
			c-1,0.9-1.6,1.7-1.6,3.2c0,23.8,0,47.6,0,71.3C173.9,339.8,174,340.3,174,341.1z"/>
		<path class="st1" d="M349.8,287.7c1.8-1.7,3.6-3.2,5.1-5.1c7.4-8.7,11-18.9,12.3-30.1c2-17-4-31.3-14.5-44.2
			c-11.5-14.3-25.4-25.7-41.3-34.6c-0.4-0.2-0.8-0.4-1.3-0.6c-0.4,0.6-0.9,1.1-1.3,1.6c-10.4,16.1-16.6,33.7-18.8,52.8
			c-1.1,9.5-1.3,18.9,1.7,28.1c5.1,15.2,14.2,27.1,29,34c3.7,1.7,7.8,2.4,12.1,3.7c-0.1,2.3-0.3,4.9-0.4,8.3
			c-3.8-0.8-7.5-1.3-10.9-2.5c-14.4-4.9-24.6-14.8-32.1-27.6c-7.4-12.7-9.7-26.4-8.4-40.9c1.9-20.4,7.7-39.6,18.4-57.1
			c2.4-3.9,5.1-7.5,7.8-11.4c1.8,0.8,3.4,1.4,4.8,2.2c21.8,11.4,40.2,26.9,53.7,47.6c12.8,19.6,13.2,40.3,4.8,61.5
			c-3.2,8.1-8.1,15-15,20.5c-0.3,0.2-0.6,0.3-1.3,0.7c4.9,5.5,9.4,10.7,14.1,15.7c2.1,2.3,4.4,4.3,6.6,6.5c2,2,2.1,4.6,0.5,6.4
			c-1.8,1.9-4.3,1.9-6.4-0.1c-23.4-22-40.6-47.8-49-79c-2.4-8.9-4-17.9-4.1-27.1c0-1.9,0.5-3.5,2.2-4.5c2.9-1.7,6.4,0.4,6.4,4
			c0.1,7.7,1.3,15.2,3.1,22.6c4.1,17,11.4,32.6,21.1,47.1C348.9,286.7,349.3,287,349.8,287.7z"/>
		<path class="st1" d="M276.4,194.6c-1.9,2.2-3.7,4.3-5.6,6.5c-1-0.8-1.9-1.5-2.7-2.3c-8.7-7.4-17.4-14.9-26-22.3
			c-1.3-1.1-2-0.9-3.1,0.1c-16.2,14.2-32.5,28.3-48.7,42.5c-0.5,0.5-1.1,0.9-2,1.7c0-10.8,0-21.1,0-31.7c-4.8,0-9.1,0-13.8,0
			c0,1,0,1.9,0,2.8c0,13,0,26,0,38.9c0,1.1-0.5,2.4-1.2,3.1c-10.3,9.2-20.7,18.3-31.1,27.4c-0.3,0.2-0.5,0.4-1,0.8
			c-1.9-2.1-3.6-4.1-5.6-6.4c0.7-0.6,1.2-1.2,1.9-1.7c9-7.9,17.9-15.7,26.9-23.5c1.2-1.1,1.7-2.2,1.7-3.8c0-14.4,0-28.9,0-43.4
			c0-0.8,0-1.7,0-2.7c10.3,0,20.4,0,30.7,0c0,6.9,0,13.8,0,20.8c0.2,0.1,0.3,0.2,0.5,0.3c14.4-12.5,28.7-25.1,43.3-37.8
			C252.4,174.1,264.3,184.3,276.4,194.6z"/>
	</g>
</g>
</svg>
