<svg width="50" height="50" viewBox="0 0 50 50" fill="none" xmlns="http://www.w3.org/2000/svg">
<rect x="1" y="1" width="48" height="48" rx="24" fill="#0052A3" stroke="#0052A3" stroke-width="2"/>
<g clip-path="url(#clip0_1667_347)">
<path d="M35.3356 22.7429C36.0406 22.7429 36.7144 22.7429 37.3926 22.7429C38.2538 22.7429 38.3876 22.859 38.5126 23.7118C38.5973 24.2878 38.6776 24.8593 38.7847 25.4309C38.8338 25.6854 38.6866 25.8774 38.6196 26.0873C37.8745 28.3689 37.107 30.6462 36.344 32.9234C35.9648 34.053 35.5899 35.1783 35.2107 36.3079C35.0679 36.7321 34.8626 36.8795 34.4254 36.8795C27.9019 36.8795 21.3829 36.8795 14.8595 36.8795C14.4668 36.8795 14.2348 36.7143 14.1143 36.3437C12.9855 32.9591 11.8566 29.5745 10.7232 26.19C10.6251 25.8908 10.5983 25.605 10.6563 25.2925C10.7634 24.6941 10.8482 24.0869 10.9374 23.4841C11.0177 22.9661 11.2676 22.7429 11.7941 22.7429C12.566 22.7429 13.338 22.7429 14.1456 22.7429C14.1456 22.6446 14.1456 22.5598 14.1456 22.475C14.1456 19.6396 14.1456 16.8043 14.1456 13.9689C14.1456 13.3795 14.4044 13.125 14.9889 13.125C21.5034 13.125 28.0179 13.125 34.5324 13.125C35.0634 13.125 35.3401 13.4018 35.3401 13.9377C35.3401 16.773 35.3401 19.6084 35.3401 22.4437C35.3356 22.533 35.3356 22.6223 35.3356 22.7429ZM12.3072 26.3954C12.334 26.4802 12.3519 26.5516 12.3742 26.6186C13.338 29.4763 14.3018 32.3384 15.2566 35.2006C15.3236 35.4015 15.4039 35.473 15.6225 35.473C21.6908 35.464 27.7547 35.4685 33.823 35.473C34.0149 35.473 34.1041 35.4283 34.171 35.2363C35.1304 32.3608 36.1031 29.4897 37.0669 26.6141C37.0892 26.5472 37.107 26.4802 37.1293 26.3998C28.8479 26.3954 20.5887 26.3954 12.3072 26.3954ZM15.5556 18.2644C21.6819 18.2644 27.7814 18.2644 33.8855 18.2644C33.8855 17.0097 33.8855 15.7728 33.8855 14.536C27.7681 14.536 21.664 14.536 15.5556 14.536C15.5556 15.7862 15.5556 17.0186 15.5556 18.2644ZM37.2721 24.9665C37.2409 24.77 37.2007 24.5959 37.1963 24.4218C37.1918 24.194 37.0936 24.1494 36.8795 24.1494C28.7765 24.1539 20.6735 24.1539 12.5705 24.1539C12.4768 24.1539 12.3786 24.1539 12.2715 24.1539C12.218 24.4307 12.1689 24.6897 12.1154 24.9665C20.5039 24.9665 28.8702 24.9665 37.2721 24.9665ZM26.1707 22.725C28.2143 22.725 30.2088 22.725 32.239 22.725C31.4403 21.5998 30.3962 21.0238 29.0531 21.0685C27.8216 21.1131 26.8801 21.6891 26.1707 22.725ZM23.3239 22.7339C22.5208 21.573 21.4588 21.0059 20.0979 21.0729C18.8931 21.1354 17.9651 21.698 17.2734 22.7339C19.3037 22.7339 21.2892 22.7339 23.3239 22.7339Z" fill="white"/>
<path d="M24.7247 28.8691C23.8457 28.8691 22.9711 28.8735 22.0921 28.8691C21.579 28.8646 21.2532 28.4493 21.3737 27.976C21.454 27.659 21.7217 27.4715 22.0966 27.4715C23.3995 27.4715 24.6979 27.4715 26.0008 27.4715C26.4559 27.4715 26.9066 27.467 27.3617 27.4715C27.7856 27.4759 28.1024 27.7796 28.098 28.1725C28.098 28.5565 27.7901 28.8646 27.3751 28.8646C26.4916 28.8735 25.6082 28.8691 24.7247 28.8691Z" fill="white"/>
</g>
<defs>
<clipPath id="clip0_1667_347">
<rect width="28.1686" height="23.75" fill="white" transform="translate(10.625 13.125)"/>
</clipPath>
</defs>
</svg>
