<?xml version="1.0" encoding="utf-8"?>
<!-- Generator: Adobe Illustrator 26.3.1, SVG Export Plug-In . SVG Version: 6.00 Build 0)  -->
<svg version="1.1" id="Layer_2_1_" xmlns="http://www.w3.org/2000/svg" xmlns:xlink="http://www.w3.org/1999/xlink" x="0px" y="0px"
	 viewBox="0 0 512 512" style="enable-background:new 0 0 512 512;" xml:space="preserve">
<style type="text/css">
	.st0{clip-path:url(#SVGID_00000139254058402612200720000001482518860978064005_);}
	.st1{fill:#FFFFFF;}
</style>
<g>
	<defs>
		<rect id="SVGID_1_" x="135.5" y="114.2" width="241" height="283.5"/>
	</defs>
	<clipPath id="SVGID_00000147196856409680934440000017783697817132278927_">
		<use xlink:href="#SVGID_1_"  style="overflow:visible;"/>
	</clipPath>
	<g style="clip-path:url(#SVGID_00000147196856409680934440000017783697817132278927_);">
		<path class="st1" d="M154,378.5c0,4.4,0,8.9,0,13.3s1.6,6,5.8,6c64.1,0,128.1,0,192.2,0c4.3,0,5.8-1.6,5.8-6s0-8.7,0-13.2
			c0.6-0.2,1.1-0.4,1.6-0.6c10.1-3,16.9-12.1,16.9-22.9c0-56.4,0-112.8,0-169.1c0-3.4-1.8-5.5-4.6-5.5c-2.9,0-4.8,2-4.8,5.5
			c0,56.1,0,112.1,0,168.1c0,6.6-2.6,11.5-8.5,14.1c-2.1,0.9-4.6,1.2-6.8,1.2c-55.8,0.1-111.5,0-167.3,0c-2.3,0-4.6,0-6.8,0
			c-3.2,0-5.2,1.9-5.3,4.6c0,2.8,2.1,4.8,5.3,4.8c19.9,0,39.8,0,59.8,0c36.3,0,72.6,0,108.9,0c0.6,0,1.3,0,2.1,0c0,3.2,0,6.2,0,9.3
			c-61.7,0-123.3,0-185.2,0c0-0.7-0.1-1.4-0.1-2.1c0-3.7,0-7.3,0-10.9c0-3.9-1.4-5.4-5.1-5.8c-7-0.7-11.9-5-13.2-11.7
			c-0.2-1.2-0.2-2.4-0.2-3.6c0-71.7,0-143.5,0-215.2c0-9.3,5.8-15.2,15-15.2c64.1,0,128.3,0,192.4,0c9.3,0,15.1,5.8,15.1,15.3
			c0,6.7,0,13.5,0,20.2c0,0.6,0,1.3,0,2.2c-1,0-1.8,0-2.6,0c-68.3,0-136.6,0-204.9,0c-3.5,0-5.5,1.5-5.6,4.4
			c-0.2,2.8,1.7,4.9,4.6,5.1c1.6,0.1,3.1,0,4.7,0c68.8,0,137.6,0,206.4,0c0.9,0,1.7,0,2.5,0c2.3-0.3,4.2-1.9,4.2-4.2
			c0-10.7,0.5-21.5-0.4-32.1c-0.9-11.6-11.1-20.2-22.5-20.3c-17-0.1-34,0-51,0c-47.8,0-95.5,0-143.3,0c-12.2,0-21.9,8.6-23.5,20.5
			c-0.1,0.9-0.1,1.9-0.1,2.8c0,72.5,0,145,0,217.6c0,10.8,6.6,19.8,16.8,22.8C152.8,378.1,153.3,378.3,154,378.5z"/>
		<path class="st1" d="M255.8,180.4c-29.1,0-58.1,0-87.2,0c-7.4,0-12.9,4.4-14.3,11.2c-0.3,1.3-0.3,2.6-0.3,3.9
			c0,49.6,0,99.3,0,148.9c0,9.7,5.7,15.5,15.3,15.5c57.8,0,115.7,0,173.5,0c9.3,0,15.1-5.9,15.1-15.3c0-49.6-0.1-99.3,0.1-148.9
			c0-8.8-6.4-15.5-15.1-15.4C313.8,180.6,284.8,180.4,255.8,180.4z M256.1,350.5c-29,0-58,0-87,0c-4.3,0-5.9-1.6-5.9-6
			c0-49.5,0-99,0-148.5c0-4.6,1.6-6.2,6-6.2c45.2,0,90.4,0,135.5,0c12.7,0,25.3,0,38,0c4.2,0,5.8,1.7,5.9,6c0,0.4,0,0.8,0,1.2
			c0,49.1,0,98.2,0,147.3c0,4.6-1.5,6.2-6.1,6.2C313.8,350.5,284.9,350.5,256.1,350.5z"/>
		<path class="st1" d="M325.4,147.3c6.1,0,12.2,0,18.3,0c2,0,3.5-0.8,4.4-2.7c0.8-1.7,0.8-3.5-0.5-4.8c-1-1-2.5-1.8-3.9-1.9
			c-12.2-0.1-24.4-0.1-36.6-0.1c-3,0-4.9,2.1-4.9,4.8s2,4.6,5,4.6C313.4,147.3,319.4,147.3,325.4,147.3z"/>
		<path class="st1" d="M200.3,142.5c0,5.2,4.1,9.5,9.2,9.5s9.3-4.2,9.3-9.4s-4.1-9.3-9.1-9.4C204.5,133.1,200.3,137.3,200.3,142.5z"
			/>
		<path class="st1" d="M172.6,152c5.1-0.1,9.2-4.3,9.2-9.6c0-5.2-4.3-9.4-9.4-9.3c-5.1,0.1-9.1,4.3-9.1,9.4
			C163.2,147.9,167.4,152.1,172.6,152z"/>
		<path class="st1" d="M281.8,265.5c13.8,0.6,26.6,7.9,34.2,22.9c7.6,14.9,6.3,29.7-2.7,43.8c-0.2,0.4-0.5,0.8-0.8,1.1
			c-1.6,2.5-1.2,5.3,1,6.8c2.1,1.5,4.8,1,6.5-1.3c3.2-4.4,5.7-9.1,7.4-14.3c11.4-34.7-15-70.3-50.9-68.5
			c-25.1,1.2-45.7,21.3-48.1,47c-1.2,13.1,2.1,24.9,9.5,35.5c1.5,2.1,3.3,2.9,5.3,2.3c3.2-0.9,4.2-4.4,2.5-7.5
			c-2.3-4-4.8-7.9-6.2-12.3C230.6,293.7,250.7,265.5,281.8,265.5z"/>
		<path class="st1" d="M279.1,331.6c12.8,0,23.1-10.6,23.1-23.7c0-13-10.5-23.7-23.2-23.6c-12.8,0.1-23.2,10.7-23.1,23.7
			C256,321.1,266.3,331.6,279.1,331.6z M279.1,322.2c-7.6,0-13.9-6.4-13.9-14.2c0-7.8,6.3-14.3,14-14.2c7.6,0.1,13.9,6.6,13.8,14.3
			C292.9,315.8,286.6,322.2,279.1,322.2z"/>
		<path class="st1" d="M210.7,265.5c7.9,0,15.8,0,23.7,0c3.2,0,5.4-2.2,5.2-5.1c-0.2-2.7-2.2-4.4-5.3-4.4c-10.8,0-21.7,0-32.5,0
			c-4.9,0-9.9,0-14.8,0c-3.3,0-5.4,1.8-5.4,4.6c0,2.9,2.1,4.8,5.5,4.8C195,265.5,202.9,265.5,210.7,265.5z"/>
		<path class="st1" d="M203.9,341c5.5,0,11,0,16.5,0c3.3,0,5.3-1.8,5.3-4.7c0-2.9-2.1-4.7-5.3-4.7c-11.1,0-22.3,0-33.5,0
			c-2.5,0-4.2,1.1-4.9,3.1c-0.7,1.9-0.3,4,1.4,5.2c1,0.7,2.4,1.1,3.6,1.1C192.6,341.1,198.3,341,203.9,341z"/>
		<path class="st1" d="M203.7,284.3c5.8,0,11.6,0,17.5,0c2.3,0,4.1-1.5,4.5-3.7c0.5-2.1-0.6-4.4-2.6-5.2c-0.7-0.3-1.6-0.5-2.5-0.5
			c-11.2,0-22.4,0-33.6,0c-3.2,0-5.3,1.9-5.3,4.8c0,2.8,2.1,4.6,5.2,4.6C192.6,284.4,198.1,284.3,203.7,284.3z"/>
		<path class="st1" d="M201.4,303.3c4.8,0,9.6,0,14.4,0c3.3,0,5.3-1.8,5.3-4.7c0-2.9-2-4.7-5.3-4.8c-9.6,0-19.2,0-28.8,0
			c-3.2,0-5.3,2-5.3,4.8c0,2.7,2.1,4.6,5.2,4.6C191.8,303.3,196.6,303.3,201.4,303.3z"/>
		<path class="st1" d="M201.4,312.7c-4.8,0-9.6,0-14.4,0c-3.1,0-5.2,1.8-5.3,4.6c-0.1,2.8,2.1,4.8,5.3,4.8c9.7,0,19.3,0,29,0
			c3.1,0,5.1-1.9,5.1-4.7c0-2.8-2-4.7-5.1-4.7C211.1,312.7,206.3,312.7,201.4,312.7z"/>
	</g>
</g>
</svg>
