<svg width="46" height="46" viewBox="0 0 46 46" fill="none" xmlns="http://www.w3.org/2000/svg">
<g clip-path="url(#clip0_3627_251)">
<path d="M4.43796 35.6508C3.87757 35.9875 3.31717 36.3803 2.75677 36.7169C2.30845 36.9975 1.86013 37.278 1.41181 37.5586C0.739334 37.9513 0.291016 37.7269 0.291016 36.9414C0.291016 33.7431 0.291016 30.601 0.291016 27.4027C0.291016 26.6172 0.795374 26.3366 1.46785 26.6733C4.32588 28.076 7.18392 29.4788 10.0419 30.8254C10.154 30.8815 10.2661 30.9376 10.3782 31.0499C10.6584 31.2743 10.6584 31.6109 10.4342 31.8915C10.3221 32.0037 10.154 32.1159 10.0419 32.172C9.08927 32.7893 8.13659 33.3504 7.18392 33.9676C7.07184 34.0237 7.0158 34.0798 6.84768 34.192C7.18392 34.6409 7.52016 35.1459 7.85639 35.5386C11.4429 39.8591 16.0382 42.384 21.6422 42.889C30.5525 43.6745 39.1827 38.0075 41.9847 29.4788C42.0407 29.3104 42.0967 29.086 42.2088 28.9177C42.5451 28.3005 43.3296 28.0199 44.0021 28.3005C44.6746 28.581 45.0108 29.3104 44.7867 30.0399C44.0581 32.2843 43.0494 34.3603 41.7045 36.2119C37.8377 41.4302 32.7381 44.5723 26.2935 45.5262C17.9436 46.7045 9.53759 42.9451 4.7742 35.9314C4.60608 35.8192 4.55004 35.7631 4.43796 35.6508Z" fill="#0052A3"/>
<path d="M41.088 10.7379C41.7605 10.2891 42.489 9.84018 43.2175 9.3913C43.5537 9.16686 43.89 8.94242 44.2262 8.77409C44.8427 8.43744 45.291 8.66187 45.291 9.33519C45.291 12.5334 45.291 15.7878 45.291 18.9861C45.291 19.7155 44.7866 19.996 44.0581 19.6594C41.7044 18.5372 39.3508 17.3589 36.9971 16.2367C36.4927 16.0122 35.9884 15.7317 35.484 15.5073C34.8115 15.1706 34.7555 14.6095 35.428 14.2167C36.3806 13.5995 37.3894 12.9823 38.342 12.4212C38.4541 12.3651 38.5102 12.309 38.6783 12.1968C38.0618 11.4113 37.5014 10.6818 36.829 9.9524C32.5699 5.40751 27.3022 3.27534 21.0818 3.55589C13.1802 4.00477 6.00705 9.55963 3.5413 17.1906C3.2611 18.0322 2.64466 18.4811 1.91614 18.3127C1.01951 18.1444 0.515148 17.3028 0.795347 16.405C1.74802 13.5434 3.14902 10.9063 5.16646 8.66187C8.80904 4.56586 13.2362 1.98482 18.56 1.08706C24.7244 0.0209762 30.4404 1.42372 35.5961 5.07085C37.6696 6.58581 39.4068 8.38133 40.8638 10.5135C40.9199 10.5696 40.9759 10.6257 40.9759 10.6818C41.032 10.6818 41.032 10.6818 41.088 10.7379Z" fill="#0052A3"/>
<path d="M24.2201 32.9014C24.2201 33.6869 24.2201 34.4164 24.2201 35.2019C24.2201 35.8752 23.7717 36.4363 23.1553 36.5485C22.5389 36.7168 21.9224 36.4363 21.5862 35.8752C21.4741 35.6508 21.4181 35.3702 21.4181 35.1458C21.4181 34.4725 21.4181 33.8553 21.4181 33.1819C21.4181 32.9575 21.362 32.9014 21.1379 32.8453C18.6721 32.2842 17.103 30.6009 16.7668 28.0759C16.7107 27.7954 16.7107 27.571 16.7668 27.2904C16.9349 26.6171 17.4953 26.2243 18.1678 26.2243C18.8402 26.2243 19.3446 26.7293 19.4567 27.3465C19.5127 27.571 19.5127 27.7393 19.5127 27.9637C19.6808 28.9737 20.2973 29.647 21.2499 29.9276C22.3147 30.2642 23.4355 30.2642 24.5003 29.8715C25.4529 29.5348 25.9573 28.8054 26.0133 27.7393C26.0694 26.6171 25.6211 25.8316 24.6123 25.3266C23.9399 25.046 23.2674 24.7655 22.5949 24.541C21.6422 24.2044 20.7456 23.8677 19.849 23.3066C17.9436 22.0722 17.159 20.2767 17.3832 18.0323C17.6074 15.844 18.9523 14.4974 20.9698 13.768C21.2499 13.6558 21.306 13.5435 21.306 13.263C21.306 12.6458 21.306 12.0286 21.306 11.3553C21.306 10.4575 21.8664 9.78418 22.707 9.78418C23.5476 9.78418 24.108 10.4014 24.108 11.3553C24.108 12.0286 24.108 12.7019 24.108 13.4313C24.4442 13.5435 24.7805 13.5996 25.0607 13.6558C26.91 14.273 27.9187 15.6196 28.2549 17.5273C28.311 17.864 28.311 18.2006 28.311 18.5373C28.311 19.2667 27.6945 19.8839 26.966 19.8839C26.2375 19.8839 25.6211 19.3789 25.509 18.6495C25.4529 18.2567 25.4529 17.9201 25.3409 17.5273C25.1727 16.9101 24.7244 16.5173 24.108 16.349C23.0993 16.0685 22.1466 16.1246 21.2499 16.6857C19.6248 17.6395 19.849 20.0523 21.1379 20.7817C21.8103 21.1745 22.5389 21.455 23.2674 21.7917C24.0519 22.1283 24.9486 22.4089 25.7331 22.7455C26.7979 23.2505 27.7506 23.9799 28.2549 25.1021C29.4318 27.7393 28.8153 31.7231 24.4442 32.7331C24.4442 32.8453 24.3321 32.8453 24.2201 32.9014Z" fill="#0052A3"/>
</g>
<defs>
<clipPath id="clip0_3627_251">
<rect width="45" height="45" fill="white" transform="translate(0.291016 0.750488)"/>
</clipPath>
</defs>
</svg>
