<svg width="14" height="15" viewBox="0 0 14 15" fill="none" xmlns="http://www.w3.org/2000/svg">
<path d="M13.3984 2.06488C14 2.66644 14 3.62347 13.3984 4.22504L12.5781 5.04535L9.89844 2.36566L10.7188 1.54535C11.3203 0.943787 12.2773 0.943787 12.8789 1.54535L13.3984 2.06488ZM4.70312 7.56097L9.26953 2.99457L11.9492 5.67426L7.38281 10.2407C7.21875 10.4047 7 10.5414 6.78125 10.6235L4.34766 11.4164C4.10156 11.4985 3.85547 11.4438 3.69141 11.2524C3.5 11.0883 3.44531 10.8149 3.52734 10.5961L4.32031 8.16254C4.40234 7.94379 4.53906 7.72504 4.70312 7.56097ZM5.25 2.69379C5.71484 2.69379 6.125 3.10394 6.125 3.56879C6.125 4.06097 5.71484 4.44379 5.25 4.44379H2.625C2.13281 4.44379 1.75 4.85394 1.75 5.31879V12.3188C1.75 12.811 2.13281 13.1938 2.625 13.1938H9.625C10.0898 13.1938 10.5 12.811 10.5 12.3188V9.69379C10.5 9.22894 10.8828 8.81879 11.375 8.81879C11.8398 8.81879 12.25 9.22894 12.25 9.69379V12.3188C12.25 13.768 11.0742 14.9438 9.625 14.9438H2.625C1.14844 14.9438 0 13.768 0 12.3188V5.31879C0 3.86957 1.14844 2.69379 2.625 2.69379H5.25Z" fill="white"/>
</svg>
