<svg width="22" height="21" viewBox="0 0 22 21" fill="none" xmlns="http://www.w3.org/2000/svg">
<g clip-path="url(#clip0_296_1028)">
<path d="M21.2162 5.16682C21.2041 6.0828 20.8517 6.84001 20.2077 7.48119C17.2671 10.4245 14.3325 13.3801 11.398 16.3296C10.7236 17.0074 10.0492 17.6791 9.38087 18.3569C9.16822 18.5707 8.93127 18.6561 8.62748 18.6867C8.23864 18.7233 7.86195 18.8577 7.47918 18.9615C5.62611 19.4622 3.76696 19.969 1.91388 20.4698C1.13012 20.6835 0.619765 20.1706 0.826338 19.395C1.43998 17.1173 2.04755 14.8396 2.67334 12.5679C2.74017 12.3359 2.87384 12.0977 3.04395 11.9267C6.64682 8.29336 10.2436 4.6783 13.8465 1.05713C15.1284 -0.225245 17.0848 -0.237458 18.3668 1.02659C19.0108 1.66167 19.6427 2.30286 20.2806 2.95015C20.8942 3.56691 21.198 4.3058 21.2162 5.16682ZM8.71862 16.641C11.5985 13.7465 14.4783 10.852 17.3278 7.98803C15.9973 6.6507 14.6485 5.29506 13.3179 3.95162C10.4563 6.82779 7.5764 9.7284 4.71476 12.6046C6.03925 13.9419 7.38805 15.3037 8.71862 16.641ZM18.5976 6.82169C18.786 6.62017 18.9804 6.42476 19.1627 6.22325C19.7338 5.60649 19.7459 4.73936 19.1627 4.13482C18.5065 3.45699 17.8443 2.78527 17.1699 2.12577C16.6595 1.63114 15.8575 1.55175 15.2986 1.95479C15.0009 2.16851 14.7517 2.45552 14.4966 2.69368C15.8697 4.07986 17.2124 5.4294 18.5976 6.82169ZM3.89455 14.2472C3.51785 15.6578 3.12901 17.0868 2.73409 18.5645C4.2044 18.1615 5.62611 17.7768 7.02959 17.3982C5.9785 16.3418 4.93956 15.2975 3.89455 14.2472Z" fill="#0061C1"/>
<path d="M9.28356 13.148C8.9251 12.7816 8.55448 12.4091 8.18994 12.0489C9.86075 10.3757 11.5437 8.69027 13.2024 7.02319C13.5547 7.37737 13.9254 7.75598 14.2838 8.12237C12.6495 9.77113 10.9665 11.4565 9.28356 13.148Z" fill="#0061C1"/>
</g>
<defs>
<clipPath id="clip0_296_1028">
<rect width="20.4324" height="20.4324" fill="white" transform="translate(0.783691 0.0861816)"/>
</clipPath>
</defs>
</svg>
