<svg width="20" height="15" viewBox="0 0 20 15" fill="none" xmlns="http://www.w3.org/2000/svg">
<g clip-path="url(#clip0_1706_5234)">
<path d="M2.7906 9.75851C3.01089 9.75851 3.13105 9.75851 3.25121 9.75851C7.10969 9.75851 10.9748 9.76485 14.8333 9.75851C17.7706 9.75218 20.0937 7.45345 20.0002 4.67344C19.9134 2.15306 17.6704 0.0506379 15.0136 -2.29149e-05C14.5129 -0.00635552 14.1391 0.291277 14.1324 0.709228C14.1324 1.09552 14.4728 1.38048 14.9668 1.39315C16.9762 1.46914 18.565 3.00796 18.5716 4.90141C18.5783 6.79486 16.9962 8.40967 15.0002 8.42867C11.0082 8.46033 7.00955 8.44133 3.01756 8.44133C2.97751 8.44133 2.93746 8.42867 2.85068 8.416C2.93746 8.32735 2.99754 8.25769 3.07097 8.19436C4.15909 7.21281 5.25388 6.23759 6.342 5.2497C6.84266 4.79376 6.7225 4.20482 6.10835 4.03384C5.7946 3.94519 5.57431 4.0845 5.36069 4.27448C3.72517 5.73731 2.08298 7.19381 0.447472 8.65664C0.30061 8.78329 0.160421 8.91628 0.000207901 9.06193C0.0669632 9.13792 0.120369 9.20125 0.180449 9.25824C1.88939 10.8667 3.59166 12.4689 5.30061 14.071C5.42077 14.185 5.58098 14.2863 5.74119 14.337C6.08165 14.4446 6.41543 14.3053 6.57564 14.0394C6.73585 13.7734 6.6958 13.4757 6.44881 13.2288C6.08832 12.8742 5.71449 12.5259 5.34066 12.1776C4.51957 11.3923 3.6918 10.6134 2.7906 9.75851Z" fill="#696969"/>
</g>
<defs>
<clipPath id="clip0_1706_5234">
<rect width="20" height="14.375" fill="white" transform="matrix(-1 0 0 1 20 0)"/>
</clipPath>
</defs>
</svg>
