<svg width="42" height="36" viewBox="0 0 42 36" fill="none" xmlns="http://www.w3.org/2000/svg">
<g clip-path="url(#clip0_1504_2907)">
<path d="M18.4371 19.7866C18.4371 19.531 18.4491 19.3288 18.4371 19.1326C18.4072 18.7997 18.5628 18.5678 18.8561 18.4548C19.1015 18.3597 19.1375 18.2111 19.1375 17.9792C19.1315 13.7579 19.1315 9.53656 19.1315 5.31525C19.1315 4.83367 19.1554 4.798 19.6223 4.70881C20.2748 4.57801 20.9333 4.5899 21.5858 4.7207C21.951 4.79205 21.9988 4.8634 21.9988 5.24391C21.9988 9.49494 21.9988 13.746 21.9929 17.997C21.9929 18.2229 22.0348 18.3597 22.2622 18.4489C22.5735 18.5678 22.7172 18.8115 22.6873 19.1564C22.6693 19.3466 22.6813 19.5428 22.6813 19.7926C22.8309 19.6915 22.9267 19.632 23.0225 19.5666C27.56 16.4036 32.0975 13.2406 36.629 10.0657C37.1678 9.69115 37.7125 9.60791 38.2932 9.86356C39.7059 10.4878 40.6457 11.5461 41.0588 13.0266C41.2623 13.74 41.0348 14.2097 40.4003 14.614C35.8448 17.5392 31.2894 20.4644 26.7339 23.3896C26.686 23.4193 26.6321 23.449 26.5783 23.4847C26.5543 23.4728 26.5184 23.4609 26.5064 23.4431C25.9677 22.3491 25.0338 21.7308 23.9024 21.4097C21.6876 20.7795 19.4487 20.7795 17.2339 21.4097C16.0845 21.7367 15.1447 22.3788 14.594 23.5025C14.4982 23.4431 14.4084 23.3955 14.3306 23.342C9.81702 20.4406 5.29747 17.5333 0.771938 14.6319C0.065572 14.18 -0.14993 13.7222 0.0955028 12.9196C0.526506 11.4926 1.44837 10.47 2.81322 9.85762C3.39986 9.59602 3.95657 9.67331 4.50131 10.0598C9.03283 13.2347 13.5703 16.3977 18.1078 19.5607C18.2036 19.6261 18.2934 19.6855 18.4371 19.7866Z" fill="white"/>
<path d="M20.5678 21.933C21.6274 21.9568 22.6809 22.0281 23.6926 22.3789C24.0398 22.4978 24.381 22.6583 24.6863 22.8545C25.8236 23.5918 26.2187 25.0068 25.5603 26.1899C25.2849 26.6775 24.8898 27.1293 24.4648 27.5039C23.5489 28.3065 22.4594 28.8357 21.2562 29.0795C20.8192 29.1686 20.3343 29.1686 19.9033 29.0795C18.6043 28.8 17.449 28.2055 16.4673 27.3136C15.8567 26.7607 15.3838 26.1067 15.3179 25.2625C15.2282 24.0971 15.725 23.2291 16.7606 22.6762C17.5089 22.2778 18.329 22.1113 19.167 22.0222C19.628 21.9746 20.1009 21.9627 20.5678 21.933Z" fill="white"/>
<path d="M14.3301 25.6311C14.7671 27.3969 16.0362 28.4077 17.5327 29.2698C17.4369 29.3411 17.3591 29.4006 17.2813 29.4481C14.0488 31.5231 10.8163 33.5981 7.58373 35.679C7.06294 36.012 6.53017 36.0833 5.96148 35.8752C5.02764 35.5304 4.33924 34.912 3.98007 33.9786C3.74661 33.3603 3.90823 32.9025 4.441 32.5279C6.98512 30.7502 9.53522 28.9725 12.0793 27.2007C12.8276 26.6835 13.5699 26.1662 14.3301 25.6311Z" fill="white"/>
<path d="M23.6094 29.2816C25.1059 28.4255 26.381 27.4147 26.818 25.6489C27.0454 25.8035 27.255 25.9521 27.4705 26.0948C30.5234 28.2233 33.5704 30.3518 36.6173 32.4803C37.2578 32.9262 37.4195 33.4434 37.0842 34.145C36.6413 35.0725 35.9169 35.6849 34.9053 35.9465C34.4743 36.0595 34.0552 36 33.6721 35.7562C30.3558 33.6278 27.0454 31.4993 23.7291 29.3767C23.7052 29.353 23.6752 29.3232 23.6094 29.2816Z" fill="white"/>
<path d="M20.7359 0C21.1609 0.083237 21.7475 0.148638 22.3042 0.327002C23.0705 0.570768 23.5374 1.12965 23.6032 1.94418C23.6691 2.73493 23.3398 3.3711 22.7293 3.86457C22.6455 3.92998 22.4778 3.94187 22.3761 3.91214C21.1788 3.53163 19.9876 3.53757 18.7844 3.90619C18.6647 3.94187 18.4611 3.8943 18.3594 3.80512C17.6949 3.21057 17.3836 2.47927 17.6171 1.59339C17.8625 0.671841 18.5928 0.315112 19.4488 0.142692C19.808 0.071346 20.1911 0.059455 20.7359 0Z" fill="white"/>
</g>
<defs>
<clipPath id="clip0_1504_2907">
<rect width="41.1429" height="36" fill="white"/>
</clipPath>
</defs>
</svg>
