<svg width="50" height="50" viewBox="0 0 50 50" fill="none" xmlns="http://www.w3.org/2000/svg">
<rect x="1" y="1" width="48" height="48" rx="24" fill="#0052A3" stroke="#0052A3" stroke-width="2"/>
<g clip-path="url(#clip0_1667_270)">
<path d="M23.3984 26.1166C23.3984 25.9568 23.4059 25.8305 23.3984 25.7078C23.3797 25.4998 23.477 25.3548 23.6603 25.2842C23.8137 25.2248 23.8362 25.1319 23.8362 24.987C23.8324 22.3486 23.8324 19.7103 23.8324 17.072C23.8324 16.771 23.8474 16.7487 24.1392 16.693C24.547 16.6112 24.9586 16.6187 25.3664 16.7004C25.5946 16.745 25.6245 16.7896 25.6245 17.0274C25.6245 19.6843 25.6245 22.3412 25.6208 24.9981C25.6208 25.1393 25.647 25.2248 25.7891 25.2805C25.9837 25.3548 26.0735 25.5072 26.0548 25.7227C26.0436 25.8416 26.051 25.9642 26.051 26.1203C26.1446 26.0571 26.2044 26.02 26.2643 25.9791C29.1002 24.0022 31.9362 22.0254 34.7684 20.041C35.1051 19.8069 35.4456 19.7549 35.8085 19.9147C36.6914 20.3049 37.2788 20.9663 37.537 21.8916C37.6642 22.3375 37.522 22.631 37.1254 22.8837C34.2783 24.712 31.4311 26.5402 28.5839 28.3685C28.554 28.387 28.5203 28.4056 28.4867 28.4279C28.4717 28.4205 28.4492 28.4131 28.4418 28.4019C28.105 27.7182 27.5214 27.3317 26.8143 27.1311C25.43 26.7372 24.0307 26.7372 22.6464 27.1311C21.9281 27.3354 21.3407 27.7367 20.9965 28.4391C20.9366 28.4019 20.8805 28.3722 20.8319 28.3387C18.0109 26.5254 15.1862 24.7083 12.3577 22.8949C11.9162 22.6125 11.7815 22.3263 11.9349 21.8247C12.2043 20.9329 12.7805 20.2937 13.6335 19.911C14.0002 19.7475 14.3481 19.7958 14.6886 20.0373C17.5208 22.0216 20.3567 23.9985 23.1926 25.9754C23.2525 26.0163 23.3086 26.0534 23.3984 26.1166Z" fill="white"/>
<path d="M24.73 27.458C25.3922 27.4729 26.0507 27.5175 26.683 27.7367C26.9 27.811 27.1132 27.9114 27.304 28.034C28.0149 28.4948 28.2618 29.3791 27.8503 30.1186C27.6782 30.4233 27.4312 30.7057 27.1656 30.9398C26.5932 31.4415 25.9123 31.7722 25.1603 31.9246C24.8871 31.9803 24.5841 31.9803 24.3147 31.9246C23.5028 31.7499 22.7808 31.3783 22.1672 30.8209C21.7856 30.4753 21.49 30.0666 21.4488 29.5389C21.3927 28.8106 21.7033 28.2681 22.3505 27.9225C22.8182 27.6735 23.3307 27.5695 23.8545 27.5137C24.1426 27.484 24.4382 27.4766 24.73 27.458Z" fill="white"/>
<path d="M20.8317 29.7693C21.1048 30.8729 21.898 31.5046 22.8333 32.0434C22.7735 32.088 22.7248 32.1252 22.6762 32.1549C20.6559 33.4518 18.6355 34.7486 16.6152 36.0492C16.2897 36.2573 15.9567 36.3019 15.6013 36.1719C15.0176 35.9563 14.5874 35.5699 14.3629 34.9865C14.217 34.6 14.318 34.3139 14.651 34.0798C16.2411 32.9687 17.8349 31.8576 19.425 30.7503C19.8926 30.427 20.3565 30.1037 20.8317 29.7693Z" fill="white"/>
<path d="M26.6309 32.0509C27.5662 31.5159 28.3631 30.8841 28.6362 29.7805C28.7784 29.8771 28.9093 29.97 29.044 30.0592C30.9521 31.3895 32.8565 32.7198 34.7608 34.0501C35.1611 34.3288 35.2622 34.6521 35.0526 35.0906C34.7758 35.6703 34.3231 36.053 33.6908 36.2165C33.4214 36.2871 33.1595 36.2499 32.9201 36.0976C30.8474 34.7673 28.7784 33.437 26.7057 32.1104C26.6907 32.0955 26.672 32.077 26.6309 32.0509Z" fill="white"/>
<path d="M24.8353 13.75C25.1009 13.802 25.4676 13.8429 25.8155 13.9544C26.2944 14.1067 26.5862 14.456 26.6274 14.9651C26.6685 15.4593 26.4628 15.8569 26.0812 16.1654C26.0288 16.2062 25.924 16.2137 25.8604 16.1951C25.1121 15.9573 24.3676 15.961 23.6156 16.1914C23.5408 16.2137 23.4136 16.1839 23.35 16.1282C22.9347 15.7566 22.7401 15.2995 22.886 14.7459C23.0394 14.1699 23.4959 13.9469 24.0309 13.8392C24.2554 13.7946 24.4948 13.7872 24.8353 13.75Z" fill="white"/>
</g>
<defs>
<clipPath id="clip0_1667_270">
<rect width="25.7143" height="22.5" fill="white" transform="translate(11.875 13.75)"/>
</clipPath>
</defs>
</svg>
