<svg width="46" height="38" viewBox="0 0 46 38" fill="none" xmlns="http://www.w3.org/2000/svg">
<g clip-path="url(#clip0_1504_2843)">
<path d="M39.5374 15.3886C40.6654 15.3886 41.7434 15.3886 42.8285 15.3886C44.2064 15.3886 44.4206 15.5744 44.6205 16.9389C44.7561 17.8605 44.8846 18.775 45.056 19.6894C45.1345 20.0966 44.8989 20.4038 44.7918 20.7396C43.5996 24.3903 42.3716 28.0338 41.1508 31.6774C40.544 33.4849 39.9443 35.2852 39.3375 37.0927C39.109 37.7714 38.7806 38.0071 38.081 38.0071C27.6435 38.0071 17.2131 38.0071 6.7756 38.0071C6.14735 38.0071 5.77611 37.7428 5.58335 37.1498C3.77713 31.7345 1.97092 26.3192 0.157561 20.9039C0.000498972 20.4253 -0.0423362 19.968 0.0504734 19.4679C0.221814 18.5106 0.357459 17.539 0.500243 16.5745C0.628748 15.7458 1.02854 15.3886 1.87097 15.3886C3.10605 15.3886 4.34113 15.3886 5.63332 15.3886C5.63332 15.2314 5.63332 15.0957 5.63332 14.96C5.63332 10.4234 5.63332 5.88682 5.63332 1.35025C5.63332 0.407219 6.0474 0 6.98263 0C17.4059 0 27.8291 0 38.2523 0C39.1019 0 39.5445 0.44294 39.5445 1.30024C39.5445 5.83681 39.5445 10.3734 39.5445 14.9099C39.5374 15.0528 39.5374 15.1957 39.5374 15.3886ZM2.69198 21.2326C2.73481 21.3683 2.76337 21.4826 2.79906 21.5898C4.34113 26.1621 5.8832 30.7415 7.41098 35.3209C7.51807 35.6424 7.64658 35.7567 7.9964 35.7567C17.7057 35.7424 27.4079 35.7496 37.1172 35.7567C37.4242 35.7567 37.5669 35.6853 37.674 35.3781C39.209 30.7772 40.7653 26.1835 42.3074 21.5826C42.3431 21.4755 42.3716 21.3683 42.4073 21.2397C29.157 21.2326 15.9423 21.2326 2.69198 21.2326ZM7.88931 8.22297C17.6914 8.22297 27.4507 8.22297 37.2171 8.22297C37.2171 6.21545 37.2171 4.23651 37.2171 2.25757C27.4293 2.25757 17.6629 2.25757 7.88931 2.25757C7.88931 4.25794 7.88931 6.22974 7.88931 8.22297ZM42.6358 18.9464C42.5858 18.6321 42.5215 18.3535 42.5144 18.0748C42.5073 17.7105 42.3502 17.639 42.0075 17.639C29.0427 17.6462 16.078 17.6462 3.11319 17.6462C2.96327 17.6462 2.8062 17.6462 2.63486 17.6462C2.54919 18.0891 2.47066 18.5035 2.38499 18.9464C15.8067 18.9464 29.1927 18.9464 42.6358 18.9464ZM24.8735 15.36C28.1432 15.36 31.3344 15.36 34.5828 15.36C33.3049 13.5597 31.6343 12.6381 29.4854 12.7095C27.515 12.781 26.0086 13.7026 24.8735 15.36ZM20.3187 15.3743C19.0336 13.5168 17.3345 12.6095 15.157 12.7167C13.2294 12.8167 11.7445 13.7169 10.6379 15.3743C13.8862 15.3743 17.0632 15.3743 20.3187 15.3743Z" fill="white"/>
<path d="M22.5599 25.1905C21.1534 25.1905 19.7542 25.1977 18.3477 25.1905C17.5267 25.1834 17.0056 24.5189 17.1983 23.7617C17.3268 23.2544 17.7552 22.9543 18.3549 22.9543C20.4395 22.9543 22.517 22.9543 24.6017 22.9543C25.3299 22.9543 26.051 22.9472 26.7792 22.9543C27.4574 22.9615 27.9643 23.4473 27.9571 24.076C27.9571 24.6904 27.4645 25.1834 26.8006 25.1834C25.387 25.1976 23.9734 25.1905 22.5599 25.1905Z" fill="white"/>
</g>
<defs>
<clipPath id="clip0_1504_2843">
<rect width="45.0698" height="38" fill="white"/>
</clipPath>
</defs>
</svg>
