<svg width="24" height="22" viewBox="0 0 24 22" fill="none" xmlns="http://www.w3.org/2000/svg">
<g clip-path="url(#clip0_1701_178)">
<path d="M8.84507 4.71046C8.54127 4.36417 8.27292 4.05352 7.99444 3.74796C7.28558 2.95352 6.57672 2.15398 5.86786 1.35954C5.62988 1.08963 5.5995 0.778982 5.71596 0.458148C5.8071 0.198426 6.19191 -0.0307406 6.52102 -0.000185048C7.14887 0.0609261 7.78178 0.0558335 8.40963 0.0965742C9.15393 0.142408 9.9033 0.213704 10.6476 0.259537C11.3362 0.300278 12.0198 0.320648 12.7084 0.361389C13.3868 0.40213 14.0653 0.458148 14.7489 0.503982C15.0324 0.524352 15.321 0.524352 15.6046 0.544722C16.1919 0.585463 16.7792 0.636389 17.3615 0.672037C18.3286 0.722963 19.2957 0.758611 20.2577 0.81463C21.0122 0.860463 21.7666 0.926667 22.521 0.977593C22.7489 0.992871 22.9767 0.982685 23.1995 1.00306C23.9185 1.07435 24.2172 1.71602 23.8223 2.32204C23.2603 3.18269 22.6982 4.03315 22.1362 4.8887C21.3109 6.14657 20.4856 7.40954 19.6552 8.66741C17.9995 11.1882 16.3438 13.7091 14.6932 16.2248C14.4653 16.5711 14.1514 16.7188 13.7919 16.6475C13.4527 16.5762 13.2552 16.3419 13.1691 15.9345C12.8603 14.4068 12.5463 12.879 12.2324 11.3512C12.1666 11.0355 12.1615 11.0406 11.8476 11.1424C8.96153 12.0693 6.53115 13.7091 4.4957 15.9549C3.59444 16.9531 2.81975 18.048 2.29317 19.2906C2.01469 19.9475 1.85267 20.6554 1.67039 21.3429C1.58431 21.6739 1.29064 21.9693 0.926084 21.9947C0.607096 22.0253 0.202033 21.7757 0.161527 21.4549C0.0754508 20.7878 0.009628 20.1156 -0.000498583 19.4433C-0.0106252 18.5521 0.141274 17.6813 0.348868 16.8156C0.59697 15.7767 0.9514 14.7734 1.38178 13.7956C2.4957 11.2697 4.05013 9.04426 6.01469 7.11926C6.80963 6.34009 7.70077 5.66278 8.5514 4.93963C8.63241 4.86833 8.72355 4.80213 8.84507 4.71046ZM8.48051 1.7313C8.47039 1.75167 8.46026 1.77713 8.45013 1.7975C8.50077 1.85861 8.54127 1.92481 8.59697 1.98593C9.26532 2.73963 9.93874 3.49333 10.6071 4.24194C11.0375 4.72574 10.9666 5.235 10.4451 5.60167C9.91849 5.96833 9.38178 6.32482 8.88051 6.72713C5.90836 9.12065 3.70077 12.0744 2.36912 15.6748C2.32862 15.7818 2.29824 15.8938 2.26786 16.0007C2.28811 16.0109 2.30836 16.0262 2.32862 16.0364C2.40963 15.9345 2.49064 15.8327 2.57165 15.7308C5.18937 12.4818 8.47545 10.2767 12.5362 9.2887C13.083 9.1563 13.483 9.41093 13.5944 9.97111C13.8122 11.0406 14.0299 12.11 14.2476 13.1845C14.278 13.3424 14.3236 13.5054 14.359 13.6632C14.3843 13.6683 14.4096 13.6734 14.4299 13.6785C16.8552 9.9813 19.2856 6.27898 21.7514 2.52574C17.2704 2.25583 12.8755 1.99611 8.48051 1.7313Z" fill="#0061C1"/>
</g>
<defs>
<clipPath id="clip0_1701_178">
<rect width="24" height="22" fill="white"/>
</clipPath>
</defs>
</svg>
