<svg width="36" height="38" viewBox="0 0 36 38" fill="none" xmlns="http://www.w3.org/2000/svg">
<g clip-path="url(#clip0_1504_2914)">
<path d="M26.2777 37.1401C27.8683 37.1401 29.4471 37.1527 31.0259 37.1148C31.1446 37.1148 31.3464 36.8366 31.3701 36.6722C31.7974 34.0545 31.2395 31.6519 29.8626 29.4642C29.2572 28.5031 28.723 27.5547 28.6043 26.3787C28.45 24.7727 29.0079 23.4069 29.7082 22.0665C30.1474 21.2193 30.5985 20.372 31.0259 19.5247C31.8212 17.9061 31.8093 16.2875 30.9546 14.6941C30.646 14.1251 30.373 13.5434 30.0169 13.0123C28.3313 10.4326 28.45 7.76435 29.6014 5.03291C29.9456 4.22359 30.3849 3.46485 30.6816 2.64289C30.919 1.99797 31.0021 1.28981 31.1683 0.518433C29.6014 0.518433 28.2126 0.518433 26.7288 0.518433C26.9781 2.73141 25.8622 4.46386 24.9838 6.29747C23.963 8.42192 23.963 10.4832 25.3518 12.4812C26.5032 14.1377 27.4054 15.9587 27.0493 18.0958C26.8237 19.4742 26.3727 20.8146 25.9097 22.1297C25.518 23.2552 24.9957 24.3174 24.5209 25.4049C23.8443 26.9477 23.8562 28.4525 24.6515 29.9447C25.0788 30.754 25.4705 31.576 25.8622 32.4106C26.5507 33.8522 26.8237 35.3444 26.2658 36.9251C26.254 36.963 26.2777 37.0262 26.2777 37.1401Z" fill="white"/>
<path d="M5.70686 36.6091C7.32123 36.8746 8.86437 37.1022 10.4075 37.3804C10.823 37.4563 10.8705 37.1781 10.9536 36.8999C11.6658 34.3961 11.5115 31.9302 10.4075 29.5908C9.65968 28.0101 9.2917 26.3914 9.9327 24.7348C10.3126 23.7611 10.9417 22.8886 11.4996 22.0034C11.9863 21.232 12.556 20.5365 13.0546 19.7778C13.9805 18.3868 14.1585 16.8819 13.5888 15.2759C13.3751 14.6689 13.1852 14.0367 12.9122 13.455C11.5827 10.6097 12.01 7.94149 13.5769 5.38708C14.0992 4.52718 14.6927 3.69257 15.1794 2.80738C15.4405 2.33949 15.5355 1.75779 15.7373 1.12551C14.206 0.8726 12.8172 0.657625 11.369 0.417358C11.3215 2.55446 10.0989 4.00871 9.07804 5.57676C8.57948 6.34814 8.16402 7.20804 7.86726 8.08059C7.4518 9.28192 7.65359 10.4706 8.15215 11.634C8.55574 12.5951 8.98307 13.5561 9.25609 14.5551C9.84961 16.7555 9.22048 18.7661 8.16402 20.6377C7.49928 21.8264 6.75145 22.9645 6.03923 24.1405C5.78995 24.5452 5.57628 24.9751 5.36262 25.3924C4.85219 26.4041 4.70975 27.4663 5.04212 28.5665C5.25578 29.262 5.45758 29.9701 5.69499 30.6656C6.38347 32.651 6.90576 34.6111 5.70686 36.6091Z" fill="white"/>
<path d="M32.0709 0.404611C32.1421 1.68182 31.7148 2.71876 31.2637 3.75569C30.8126 4.77999 30.3497 5.81693 30.0292 6.8918C29.4594 8.73806 29.7087 10.5084 30.6821 12.1524C31.0738 12.8099 31.4418 13.4802 31.8098 14.1504C32.8662 16.0599 32.8544 17.982 31.8929 19.9294C31.2637 21.194 30.5634 22.4206 30.0055 23.7231C29.3051 25.3544 29.4119 26.973 30.4091 28.4525C32.1421 31.0196 32.8425 33.8396 32.3558 37.0768C33.4004 37.0768 34.445 37.0895 35.4777 37.0642C35.5727 37.0642 35.7032 36.8113 35.7507 36.6469C36.273 34.9271 36 33.3211 35.1097 31.8163C34.7417 31.1966 34.35 30.5896 33.9583 29.9827C32.4508 27.6053 32.3321 25.2153 33.8871 22.8C34.8011 21.3963 35.3709 19.8409 35.5133 18.1211C35.6201 16.8059 35.4183 15.6046 34.6705 14.5424C34.3619 14.0998 34.0651 13.6572 33.804 13.1893C32.6763 11.2166 32.522 9.18065 33.4123 7.08148C33.8871 5.96867 34.445 4.90644 34.9317 3.79363C35.3471 2.84521 35.4183 1.84621 35.1335 0.847207C35.086 0.670169 34.8723 0.442548 34.7299 0.429902C33.8633 0.391966 32.9968 0.404611 32.0709 0.404611Z" fill="white"/>
<path d="M16.6398 1.22656C16.5448 2.63022 15.8919 3.67981 15.1679 4.7041C14.2657 5.9813 13.5297 7.33438 13.2092 8.91508C12.9481 10.2176 13.1855 11.4568 13.6366 12.6835C14.0402 13.7583 14.4556 14.8332 14.7524 15.9334C15.1085 17.2485 14.8948 18.551 14.1945 19.6891C13.506 20.8146 12.7226 21.8768 11.951 22.9517C10.9539 24.3427 10.301 25.8349 10.7046 27.6432C10.7996 28.0731 10.9657 28.4904 11.1438 28.8698C12.4614 31.6392 12.7107 34.4845 11.7848 37.532C12.8056 37.6964 13.8265 37.8735 14.8592 38.0126C14.9661 38.0252 15.156 37.7723 15.2272 37.6079C15.8682 36.141 15.9513 34.6488 15.3697 33.144C14.9898 32.1703 14.5387 31.2345 14.1589 30.2608C13.2567 27.9214 13.5179 25.7843 15.1441 23.8748C16.2599 22.5723 17.1383 21.1307 17.5419 19.373C17.8743 17.9314 17.7675 16.591 17.0671 15.2885C16.4617 14.163 16.07 12.9617 16.0344 11.6339C15.9988 10.1796 16.4736 8.90243 17.2214 7.73904C17.72 6.95501 18.2542 6.19628 18.7765 5.4249C19.4175 4.46383 19.738 3.4016 19.6311 2.21292C19.5955 1.83355 19.4768 1.65651 19.097 1.61858C18.3016 1.50477 17.5063 1.36566 16.6398 1.22656Z" fill="white"/>
<path d="M1.16007 36.1032C2.21653 36.2802 3.14241 36.4446 4.05643 36.5584C4.21075 36.5837 4.46002 36.4193 4.55499 36.2549C5.19599 35.2053 5.29095 34.0419 4.97045 32.8532C4.64995 31.6646 4.2701 30.4885 3.89025 29.3125C3.34421 27.6559 3.56975 26.1258 4.43628 24.6589C5.32656 23.1667 6.24058 21.6872 7.09524 20.1824C8.40098 17.8556 8.54342 15.4656 7.36826 13.025C7.09524 12.4686 6.82222 11.8995 6.64417 11.2925C6.05065 9.34509 6.47798 7.54942 7.5107 5.89284C8.11609 4.90649 8.80457 3.98336 9.40996 2.997C9.84916 2.26356 10.0866 1.4416 10.0628 0.467887C9.12507 0.31614 8.19918 0.164393 7.22582 0C7.20208 0.392013 7.17833 0.733444 7.14272 1.08752C6.97654 2.66822 6.1931 3.89484 5.21973 5.05824C3.80716 6.75275 3.3086 8.76339 3.64097 10.989C3.7478 11.6845 3.96147 12.3927 4.24636 13.025C5.83698 16.5657 5.24347 19.7903 3.1068 22.8632C2.39458 23.8875 1.71797 24.9877 1.30251 26.1637C0.673383 27.9468 0.792084 29.8057 1.49243 31.5887C1.55179 31.7278 1.5874 31.8669 1.64675 31.9933C2.32336 33.4349 2.44206 34.8007 1.16007 36.1032Z" fill="white"/>
<path d="M25.2573 0.505859C24.2958 0.505859 23.358 0.505859 22.3728 0.505859C22.5627 1.77042 22.5033 2.99704 21.9929 4.14779C21.7792 4.64097 21.5062 5.10885 21.2332 5.57674C19.6544 8.24496 19.7019 10.9132 21.1382 13.632C21.6843 14.6563 22.2422 15.6932 22.5508 16.806C23.1799 19.0569 22.7051 21.2193 21.7199 23.2806C21.1026 24.5578 20.3785 25.7718 20.1767 27.226C19.9275 29.0343 20.1649 30.7541 21.0077 32.3601C21.1382 32.613 21.2688 32.8786 21.435 33.1188C22.2541 34.4087 22.4677 35.7112 21.4231 37.1275C22.5271 37.1275 23.5242 37.1401 24.5094 37.1148C24.6163 37.1148 24.7587 36.8872 24.8299 36.7228C25.2691 35.5847 25.2335 34.4466 24.7587 33.3465C24.2483 32.1578 23.6904 30.9944 23.1325 29.8436C22.4321 28.4147 22.4321 26.9604 23.0138 25.5188C23.5835 24.0899 24.2364 22.6862 24.8062 21.2573C25.4472 19.6513 26.017 17.9821 25.554 16.237C25.2573 15.1115 24.7587 13.9734 24.1177 13.025C22.5271 10.6603 22.5033 8.2829 23.726 5.77907C24.1771 4.8433 24.64 3.90752 25.0317 2.94646C25.3166 2.17508 25.4353 1.36576 25.2573 0.505859Z" fill="white"/>
</g>
<defs>
<clipPath id="clip0_1504_2914">
<rect width="35.0769" height="38" fill="white" transform="matrix(-1 0 0 1 36 0)"/>
</clipPath>
</defs>
</svg>
