<?xml version="1.0" encoding="utf-8"?>
<!-- Generator: Adobe Illustrator 27.0.1, SVG Export Plug-In . SVG Version: 6.00 Build 0)  -->
<svg version="1.1" id="Layer_2" xmlns="http://www.w3.org/2000/svg" xmlns:xlink="http://www.w3.org/1999/xlink" x="0px" y="0px"
	 viewBox="0 0 512 512" style="enable-background:new 0 0 512 512;" xml:space="preserve">
<style type="text/css">
	.st0{fill:#FFFFFF;}
</style>
<g>
	<path class="st0" d="M192.857,349.452h126.286c2.209,0,4-1.791,4-4V166.548c0-2.209-1.791-4-4-4H192.857c-2.209,0-4,1.791-4,4
		v178.904C188.857,347.661,190.648,349.452,192.857,349.452z M196.857,170.548h118.286v170.904H196.857V170.548z"/>
	<path class="st0" d="M298.095,184.253h-84.19c-2.209,0-4,1.791-4,4v57.881c0,2.209,1.791,4,4,4h84.19c2.209,0,4-1.791,4-4v-57.881
		C302.095,186.044,300.304,184.253,298.095,184.253z M294.095,242.134h-76.19v-49.881h76.19V242.134z"/>
	<path class="st0" d="M298.095,292.122h-84.19c-2.209,0-4,1.791-4,4v28.94c0,2.209,1.791,4,4,4h84.19c2.209,0,4-1.791,4-4v-28.94
		C302.095,293.913,300.304,292.122,298.095,292.122z M294.095,321.062h-76.19v-20.94h76.19V321.062z"/>
	<path class="st0" d="M213.905,267.235h17.759c2.209,0,4-1.791,4-4s-1.791-4-4-4h-17.759c-2.209,0-4,1.791-4,4
		S211.696,267.235,213.905,267.235z"/>
</g>
</svg>
