<?xml version="1.0" encoding="utf-8"?>
<!-- Generator: Adobe Illustrator 27.0.1, SVG Export Plug-In . SVG Version: 6.00 Build 0)  -->
<svg version="1.1" id="Layer_2" xmlns="http://www.w3.org/2000/svg" xmlns:xlink="http://www.w3.org/1999/xlink" x="0px" y="0px"
	 viewBox="0 0 512 512" style="enable-background:new 0 0 512 512;" xml:space="preserve">
<style type="text/css">
	.st0{fill:#FFFFFF;}
</style>
<g>
	<path class="st0" d="M356.458,221.917c-0.103-18.833-15.459-34.124-34.32-34.124h-37.01h-8.336
		c-0.627-9.992-8.933-17.936-19.081-17.936h-3.425c-10.148,0-18.453,7.943-19.081,17.936h-8.336h-37.118
		c-18.862,0-34.219,15.291-34.32,34.126l-7.97,87.837c-1.958,18.443,11.45,35.049,29.89,37.017c1.207,0.129,2.406,0.191,3.593,0.191
		c16.962,0,31.586-12.836,33.425-30.073l1.201-11.231c10.758-0.711,19.535-8.769,21.351-19.193h38.398
		c1.803,10.347,10.464,18.362,21.115,19.175l1.198,11.248c1.967,18.445,18.568,31.85,37.019,29.883
		c18.444-1.969,31.849-18.575,29.888-36.961L356.458,221.917z M254.288,177.857h3.425c5.736,0,10.474,4.357,11.077,9.936h-25.578
		C243.814,182.215,248.552,177.857,254.288,177.857z M239.146,195.793h33.708h8.274v20.189c0,6.144-4.998,11.143-11.142,11.143
		h-27.974c-6.144,0-11.142-4.999-11.142-11.143v-20.189H239.146z M214.025,297.717c-0.573,0-1.111-0.027-1.622-0.084
		c-7.77-0.82-13.629-7.34-13.629-15.166c0-8.409,6.842-15.251,15.251-15.251s15.25,6.842,15.25,15.251
		S222.434,297.717,214.025,297.717z M282.97,282.467c0-8.409,6.841-15.251,15.25-15.251c8.414,0,15.259,6.842,15.259,15.251
		c0,7.924-5.94,14.448-13.888,15.185c-0.4,0.044-0.848,0.065-1.371,0.065C289.812,297.717,282.97,290.876,282.97,282.467z
		 M333.804,338.817c-14.051,1.511-26.715-8.718-28.215-22.775l-1.188-11.151c0.062-0.017,0.122-0.041,0.184-0.058
		c0.251-0.07,0.495-0.156,0.742-0.234c0.408-0.129,0.814-0.26,1.212-0.41c0.261-0.099,0.516-0.208,0.773-0.316
		c0.371-0.156,0.739-0.317,1.1-0.491c0.255-0.123,0.506-0.252,0.756-0.384c0.349-0.185,0.692-0.378,1.03-0.579
		c0.241-0.144,0.481-0.289,0.716-0.441c0.335-0.217,0.66-0.445,0.983-0.678c0.219-0.158,0.439-0.313,0.652-0.478
		c0.335-0.26,0.656-0.536,0.975-0.814c0.181-0.158,0.368-0.308,0.545-0.472c0.392-0.364,0.766-0.745,1.132-1.134
		c0.088-0.093,0.183-0.179,0.269-0.274c0.443-0.488,0.864-0.997,1.264-1.521c0.123-0.162,0.233-0.333,0.352-0.499
		c0.269-0.373,0.535-0.748,0.782-1.138c0.137-0.216,0.262-0.441,0.392-0.662c0.208-0.354,0.413-0.709,0.603-1.075
		c0.126-0.243,0.243-0.492,0.361-0.74c0.171-0.36,0.334-0.722,0.487-1.092c0.107-0.26,0.209-0.522,0.307-0.787
		c0.139-0.375,0.266-0.755,0.386-1.139c0.083-0.268,0.166-0.535,0.24-0.806c0.11-0.402,0.203-0.811,0.291-1.221
		c0.057-0.263,0.118-0.522,0.166-0.788c0.082-0.457,0.141-0.92,0.196-1.386c0.027-0.229,0.065-0.453,0.086-0.684
		c0.062-0.699,0.099-1.405,0.099-2.121c0-12.82-10.434-23.251-23.259-23.251c-0.661,0-1.314,0.034-1.961,0.089
		c-0.082,0.007-0.165,0.011-0.248,0.019c-0.613,0.058-1.219,0.143-1.817,0.248c-0.104,0.018-0.208,0.036-0.312,0.056
		c-0.589,0.112-1.171,0.245-1.744,0.4c-0.097,0.026-0.193,0.055-0.289,0.082c-0.583,0.166-1.158,0.35-1.721,0.56
		c-0.058,0.022-0.115,0.046-0.173,0.068c-0.571,0.218-1.133,0.456-1.681,0.716c-0.027,0.013-0.054,0.024-0.081,0.037
		c-0.55,0.264-1.085,0.554-1.611,0.859c-0.075,0.044-0.151,0.086-0.226,0.13c-0.502,0.299-0.991,0.619-1.468,0.954
		c-0.083,0.059-0.166,0.117-0.248,0.177c-0.472,0.341-0.931,0.698-1.376,1.072c-0.068,0.057-0.133,0.116-0.2,0.173
		c-0.455,0.393-0.899,0.798-1.322,1.224c-0.026,0.027-0.051,0.055-0.078,0.082c-0.421,0.428-0.826,0.873-1.213,1.332
		c-0.034,0.04-0.069,0.078-0.103,0.119c-0.381,0.457-0.741,0.932-1.086,1.418c-0.054,0.076-0.109,0.152-0.163,0.229
		c-0.331,0.478-0.643,0.968-0.938,1.471c-0.051,0.087-0.101,0.176-0.152,0.264c-0.291,0.51-0.565,1.031-0.818,1.565
		c-0.034,0.073-0.066,0.147-0.1,0.221c-0.259,0.562-0.501,1.133-0.715,1.718c-0.004,0.01-0.007,0.021-0.01,0.031
		c-0.212,0.582-0.397,1.176-0.562,1.779c-0.02,0.072-0.042,0.144-0.062,0.216c-0.154,0.581-0.282,1.173-0.391,1.771
		c-0.011,0.059-0.028,0.115-0.038,0.174h-38.383c-0.01-0.059-0.028-0.115-0.038-0.174c-0.109-0.598-0.237-1.189-0.391-1.771
		c-0.019-0.073-0.042-0.144-0.062-0.216c-0.166-0.602-0.35-1.197-0.562-1.779c-0.004-0.01-0.007-0.02-0.01-0.031
		c-0.214-0.585-0.456-1.156-0.715-1.718c-0.034-0.073-0.065-0.148-0.1-0.221c-0.252-0.533-0.527-1.054-0.818-1.565
		c-0.05-0.088-0.1-0.176-0.152-0.264c-0.295-0.502-0.608-0.993-0.938-1.471c-0.053-0.077-0.109-0.153-0.163-0.229
		c-0.345-0.486-0.705-0.961-1.086-1.418c-0.034-0.04-0.069-0.079-0.103-0.119c-0.388-0.459-0.792-0.904-1.213-1.332
		c-0.026-0.027-0.051-0.055-0.078-0.082c-0.424-0.426-0.867-0.832-1.322-1.224c-0.067-0.058-0.133-0.116-0.2-0.173
		c-0.445-0.375-0.904-0.731-1.376-1.072c-0.082-0.059-0.165-0.118-0.248-0.177c-0.477-0.335-0.966-0.654-1.468-0.954
		c-0.075-0.044-0.151-0.086-0.226-0.13c-0.525-0.305-1.06-0.595-1.611-0.859c-0.027-0.013-0.054-0.024-0.081-0.037
		c-0.549-0.261-1.11-0.498-1.681-0.716c-0.058-0.022-0.115-0.046-0.173-0.068c-0.563-0.21-1.138-0.394-1.721-0.56
		c-0.096-0.028-0.192-0.056-0.289-0.082c-0.573-0.156-1.155-0.289-1.744-0.4c-0.104-0.02-0.208-0.038-0.312-0.056
		c-0.599-0.105-1.204-0.19-1.817-0.248c-0.082-0.008-0.165-0.012-0.248-0.019c-0.647-0.054-1.3-0.089-1.961-0.089
		c-12.821,0-23.251,10.431-23.251,23.251c0,0.707,0.036,1.404,0.098,2.095c0.02,0.228,0.058,0.451,0.084,0.677
		c0.054,0.46,0.112,0.918,0.193,1.369c0.047,0.264,0.108,0.522,0.164,0.783c0.087,0.406,0.178,0.809,0.286,1.207
		c0.073,0.271,0.156,0.538,0.239,0.805c0.117,0.378,0.242,0.751,0.378,1.12c0.098,0.267,0.2,0.531,0.307,0.793
		c0.147,0.36,0.306,0.713,0.47,1.063c0.12,0.255,0.239,0.51,0.368,0.761c0.18,0.348,0.373,0.687,0.57,1.025
		c0.137,0.236,0.269,0.475,0.414,0.706c0.222,0.353,0.462,0.693,0.703,1.033c0.141,0.199,0.272,0.405,0.419,0.6
		c0.386,0.511,0.791,1.007,1.218,1.484c0.151,0.169,0.317,0.323,0.472,0.488c0.294,0.311,0.588,0.621,0.899,0.915
		c0.218,0.206,0.449,0.397,0.675,0.594c0.267,0.233,0.532,0.467,0.81,0.688c0.251,0.199,0.51,0.386,0.769,0.575
		c0.272,0.198,0.545,0.395,0.826,0.582c0.274,0.182,0.553,0.355,0.835,0.525c0.284,0.172,0.572,0.338,0.865,0.499
		c0.291,0.159,0.584,0.314,0.883,0.461c0.303,0.149,0.611,0.288,0.922,0.424c0.301,0.132,0.601,0.264,0.909,0.384
		c0.333,0.13,0.674,0.243,1.015,0.358c0.298,0.1,0.592,0.206,0.895,0.294c0.053,0.015,0.103,0.036,0.156,0.051l-1.199,11.215
		c-1.5,14.058-14.16,24.27-28.215,22.775c-14.056-1.5-24.276-14.158-22.778-28.278l7.992-88.072c0.011-0.12,0.016-0.24,0.016-0.361
		c0-14.509,11.807-26.312,26.32-26.312h33.118v20.189c0,10.556,8.587,19.143,19.142,19.143h27.974
		c10.555,0,19.142-8.587,19.142-19.143v-20.189h33.01c14.513,0,26.32,11.804,26.32,26.312c0,0.122,0.005,0.244,0.017,0.366
		l8.104,88.13C358.079,324.66,347.862,337.317,333.804,338.817z"/>
	<path class="st0" d="M209.469,230.299h-10.286v-10.285c0-2.209-1.791-4-4-4s-4,1.791-4,4v10.285h-10.285c-2.209,0-4,1.791-4,4
		s1.791,4,4,4h10.285v10.286c0,2.209,1.791,4,4,4s4-1.791,4-4v-10.286h10.286c2.209,0,4-1.791,4-4S211.678,230.299,209.469,230.299z
		"/>
	<path class="st0" d="M263.613,249.876h-15.226c-2.209,0-4,1.791-4,4s1.791,4,4,4h15.226c2.209,0,4-1.791,4-4
		S265.822,249.876,263.613,249.876z"/>
	<path class="st0" d="M323.48,217.529c-0.16-0.39-0.36-0.77-0.6-1.119c-0.23-0.36-0.51-0.69-0.81-0.99
		c-1.2-1.21-2.88-1.91-4.59-1.91s-3.39,0.7-4.6,1.91c-0.3,0.3-0.57,0.63-0.8,0.99c-0.24,0.35-0.44,0.729-0.6,1.119
		c-0.16,0.391-0.29,0.801-0.37,1.211c-0.09,0.42-0.13,0.85-0.13,1.27c0,1.72,0.69,3.39,1.9,4.6c0.3,0.301,0.64,0.57,0.99,0.811
		c0.35,0.229,0.73,0.43,1.12,0.59c0.4,0.17,0.81,0.29,1.22,0.37c0.42,0.09,0.85,0.13,1.27,0.13c1.71,0,3.39-0.69,4.59-1.9
		c0.3-0.3,0.58-0.63,0.81-0.989c0.24-0.351,0.44-0.73,0.6-1.12c0.16-0.391,0.29-0.8,0.37-1.221c0.09-0.42,0.13-0.84,0.13-1.27
		c0-0.42-0.04-0.85-0.13-1.27C323.77,218.33,323.64,217.92,323.48,217.529z"/>
	<path class="st0" d="M309.2,231.81c-0.17-0.39-0.37-0.77-0.6-1.12c-0.24-0.359-0.51-0.689-0.81-0.989
		c-0.3-0.301-0.63-0.57-0.99-0.811c-0.35-0.229-0.73-0.43-1.12-0.59c-0.39-0.17-0.8-0.29-1.22-0.37c-2.1-0.43-4.35,0.26-5.86,1.771
		c-0.3,0.3-0.57,0.63-0.81,0.989c-0.24,0.351-0.44,0.73-0.6,1.12c-0.16,0.391-0.29,0.8-0.37,1.22c-0.08,0.421-0.13,0.841-0.13,1.271
		c0,1.71,0.7,3.39,1.91,4.6c1.21,1.21,2.89,1.9,4.59,1.9c0.43,0,0.85-0.04,1.27-0.13c0.42-0.08,0.83-0.21,1.22-0.37
		c0.39-0.16,0.77-0.36,1.12-0.6c0.36-0.23,0.69-0.511,0.99-0.801c1.21-1.21,1.9-2.89,1.9-4.6c0-0.43-0.04-0.85-0.12-1.271
		C309.48,232.609,309.36,232.2,309.2,231.81z"/>
	<path class="st0" d="M337.77,231.81c-0.16-0.39-0.37-0.77-0.6-1.12c-0.24-0.359-0.51-0.689-0.81-0.989
		c-1.51-1.511-3.75-2.2-5.87-1.771c-0.41,0.08-0.82,0.2-1.21,0.37c-0.39,0.16-0.77,0.36-1.12,0.59c-0.36,0.24-0.69,0.51-0.99,0.811
		c-0.3,0.3-0.57,0.63-0.81,0.989c-0.23,0.351-0.43,0.73-0.6,1.12c-0.16,0.391-0.28,0.8-0.37,1.22c-0.08,0.421-0.12,0.841-0.12,1.271
		c0,1.71,0.69,3.39,1.9,4.6c0.3,0.29,0.63,0.57,0.99,0.801c0.35,0.239,0.73,0.439,1.12,0.6s0.8,0.29,1.22,0.37
		c0.41,0.09,0.84,0.13,1.26,0.13c0.43,0,0.86-0.04,1.27-0.13c0.42-0.08,0.83-0.21,1.22-0.37c0.39-0.16,0.77-0.36,1.12-0.6
		c0.36-0.23,0.69-0.511,0.99-0.801c1.21-1.21,1.91-2.89,1.91-4.6c0-0.43-0.05-0.85-0.13-1.271
		C338.06,232.609,337.93,232.2,337.77,231.81z"/>
	<path class="st0" d="M321.09,243.18c-0.35-0.229-0.73-0.439-1.12-0.6c-0.4-0.16-0.81-0.28-1.22-0.37c-0.84-0.17-1.7-0.17-2.54,0
		c-0.42,0.09-0.82,0.21-1.22,0.37c-0.39,0.16-0.77,0.37-1.12,0.6c-0.35,0.24-0.69,0.51-0.99,0.811c-0.3,0.3-0.57,0.63-0.81,0.989
		c-0.23,0.351-0.43,0.73-0.59,1.12c-0.17,0.391-0.29,0.8-0.37,1.21c-0.09,0.42-0.13,0.851-0.13,1.28c0,1.7,0.69,3.38,1.9,4.59
		s2.89,1.91,4.6,1.91c0.42,0,0.85-0.05,1.27-0.13c0.41-0.09,0.82-0.21,1.22-0.37c0.39-0.16,0.76-0.37,1.12-0.6
		c0.35-0.24,0.68-0.511,0.98-0.811c1.22-1.21,1.91-2.88,1.91-4.59c0-1.72-0.69-3.39-1.9-4.6
		C321.78,243.689,321.44,243.42,321.09,243.18z"/>
</g>
</svg>
