<?xml version="1.0" encoding="utf-8"?>
<!-- Generator: Adobe Illustrator 27.0.1, SVG Export Plug-In . SVG Version: 6.00 Build 0)  -->
<svg version="1.1" id="Layer_2" xmlns="http://www.w3.org/2000/svg" xmlns:xlink="http://www.w3.org/1999/xlink" x="0px" y="0px"
	 viewBox="0 0 512 512" style="enable-background:new 0 0 512 512;" xml:space="preserve">
<style type="text/css">
	.st0{fill:#FFFFFF;}
</style>
<g>
	<path class="st0" d="M223.05,186.391l-4.225,16.797c-0.3,1.195-0.033,2.463,0.725,3.435c0.758,0.972,1.922,1.541,3.155,1.541
		h39.956c1.233,0,2.396-0.568,3.155-1.541c0.758-0.972,1.025-2.24,0.724-3.436l-4.225-16.797c-1.426-5.67-6.505-9.63-12.352-9.63
		h-3.598c-1.767-10.378-10.819-18.306-21.693-18.306h-13.032c-12.137,0-22.011,9.874-22.011,22.011v57.147h-18.365
		c-7.53,0-13.656,6.125-13.656,13.655c0,7.262,5.703,13.202,12.864,13.616v33.388c0,22.363,18.194,40.557,40.557,40.557h3.356
		v10.717c0,2.209,1.791,4,4,4s4-1.791,4-4v-10.717h67.232v10.717c0,2.209,1.791,4,4,4s4-1.791,4-4v-10.717h3.356
		c22.363,0,40.557-18.194,40.557-40.557v-33.388c7.161-0.414,12.864-6.353,12.864-13.616c0-7.53-6.126-13.655-13.656-13.655H197.628
		v-57.147c0-7.726,6.286-14.011,14.011-14.011h13.032c6.442,0,11.868,4.375,13.498,10.306h-2.767
		C229.556,176.761,224.477,180.721,223.05,186.391z M333.529,298.271c0,17.952-14.605,32.557-32.557,32.557h-89.944
		c-17.952,0-32.557-14.605-32.557-32.557v-33.348h155.059V298.271z M346.393,251.268c0,3.119-2.537,5.656-5.656,5.656h-3.208
		H174.471h-3.208c-3.119,0-5.656-2.537-5.656-5.656c0-3.118,2.537-5.655,5.656-5.655h169.475
		C343.856,245.613,346.393,248.15,346.393,251.268z M254.556,188.342l2.974,11.821h-29.694l2.973-11.821
		c0.531-2.109,2.42-3.582,4.594-3.582h14.56C252.136,184.761,254.025,186.233,254.556,188.342z"/>
</g>
</svg>
