<?xml version="1.0" encoding="utf-8"?>
<!-- Generator: Adobe Illustrator 27.0.1, SVG Export Plug-In . SVG Version: 6.00 Build 0)  -->
<svg version="1.1" id="Layer_2" xmlns="http://www.w3.org/2000/svg" xmlns:xlink="http://www.w3.org/1999/xlink" x="0px" y="0px"
	 viewBox="0 0 512 512" style="enable-background:new 0 0 512 512;" xml:space="preserve">
<style type="text/css">
	.st0{fill:#FFFFFF;}
</style>
<g>
	<path class="st0" d="M262.256,334.248c-26.35,0-47.787-21.437-47.787-47.787c0-2.209-1.791-4-4-4s-4,1.791-4,4
		c0,30.761,25.026,55.787,55.787,55.787c2.209,0,4-1.791,4-4S264.465,334.248,262.256,334.248z"/>
	<path class="st0" d="M204.936,196.372c-0.016-0.029-0.033-0.059-0.051-0.088l-16.897-29.267c-0.714-1.238-2.035-2-3.464-2
		s-2.75,0.762-3.464,2l-16.896,29.262c-0.018,0.031-0.035,0.062-0.053,0.093c-0.903,1.618-1.612,3.34-2.107,5.124
		c-0.563,2.031-0.849,4.137-0.849,6.258c0,12.885,10.482,23.368,23.368,23.368s23.368-10.483,23.368-23.368
		c0-2.124-0.286-4.23-0.85-6.258C206.549,199.714,205.84,197.991,204.936,196.372z M184.523,223.122
		c-8.474,0-15.368-6.894-15.368-15.368c0-1.399,0.188-2.786,0.557-4.119c0.321-1.153,0.778-2.271,1.361-3.322l13.45-23.296
		l13.45,23.296c0.583,1.051,1.04,2.168,1.359,3.322c0.371,1.333,0.559,2.719,0.559,4.119
		C199.892,216.228,192.997,223.122,184.523,223.122z"/>
	<path class="st0" d="M350.845,234.093c0-3.322-0.446-6.616-1.327-9.789c-0.772-2.782-1.88-5.475-3.293-8.005
		c-0.015-0.026-0.031-0.055-0.048-0.083l-28.406-49.199c-0.715-1.238-2.035-2-3.464-2s-2.75,0.762-3.464,2l-18.68,32.354
		l-26.443-45.799c-0.715-1.238-2.035-2-3.464-2s-2.75,0.762-3.464,2l-57.528,99.637l-0.906,1.574
		c-0.029,0.046-0.057,0.094-0.084,0.142c-2.743,4.915-4.894,10.144-6.392,15.542c-1.711,6.165-2.578,12.562-2.578,19.01
		c0,39.124,31.829,70.953,70.952,70.953c39.124,0,70.953-31.829,70.953-70.953c0-6.449-0.867-12.845-2.578-19.011
		c-0.299-1.076-0.631-2.143-0.981-3.204C342.477,261.342,350.845,248.483,350.845,234.093z M262.256,352.429
		c-34.712,0-62.952-28.24-62.952-62.953c0-5.726,0.77-11.402,2.287-16.871c1.319-4.754,3.21-9.362,5.621-13.697
		c0.011-0.018,0.021-0.036,0.031-0.054l55.013-95.284l54.062,93.631l0.952,1.653c0.004,0.008,0.009,0.016,0.015,0.025
		c2.417,4.339,4.313,8.957,5.638,13.725c1.518,5.469,2.287,11.146,2.287,16.872C325.209,324.188,296.969,352.429,262.256,352.429z
		 M326.704,259.786c-0.761-1.65-1.579-3.275-2.466-4.863c-0.017-0.03-0.037-0.065-0.058-0.099l-27.399-47.455l17.526-30.354
		l24.955,43.222c0.001,0.001,0.002,0.002,0.002,0.004c1.092,1.962,1.947,4.048,2.545,6.202c0.688,2.477,1.036,5.05,1.036,7.649
		C342.845,245.175,336.482,255.079,326.704,259.786z"/>
</g>
</svg>
