<?xml version="1.0" encoding="utf-8"?>
<!-- Generator: Adobe Illustrator 27.0.1, SVG Export Plug-In . SVG Version: 6.00 Build 0)  -->
<svg version="1.1" id="Layer_2" xmlns="http://www.w3.org/2000/svg" xmlns:xlink="http://www.w3.org/1999/xlink" x="0px" y="0px"
	 viewBox="0 0 512 512" style="enable-background:new 0 0 512 512;" xml:space="preserve">
<style type="text/css">
	.st0{fill:#FFFFFF;}
</style>
<g>
	<path class="st0" d="M161.365,310.607h13.517c9.641,0,17.786-6.472,20.355-15.295h40.541c7.404,8.535,18.001,13.391,29.375,13.391
		s21.971-4.856,29.375-13.391h14.764c1.206,0,2.188,0.981,2.188,2.187v30.422c0,6.188,5.034,11.222,11.222,11.222h28.573
		c6.188,0,11.222-5.034,11.222-11.222v-54.237c0-16.211-13.188-29.399-29.399-29.399h-38.568c-4.16-4.796-9.36-8.449-15.231-10.729
		v-20.342c2.448-1.957,4.473-4.419,5.932-7.194h11.486c2.803,0,5.44-1.093,7.438-3.09c1.971-1.988,3.056-4.617,3.056-7.404
		c0-5.787-4.708-10.495-10.494-10.495h-11.481c-3.873-7.377-11.612-12.174-20.08-12.174c-8.478,0-16.217,4.796-20.082,12.174
		h-11.489c-2.804,0-5.438,1.09-7.417,3.069c-1.984,1.985-3.077,4.622-3.077,7.425c0,5.787,4.708,10.494,10.494,10.494h11.496
		c1.457,2.771,3.479,5.233,5.922,7.191v20.347c-5.867,2.279-11.062,5.932-15.222,10.727h-40.541
		c-2.569-8.824-10.714-15.296-20.355-15.296h-13.517c-6.54,0-11.86,5.321-11.86,11.861v57.896
		C149.505,305.286,154.825,310.607,161.365,310.607z M270.845,231.316c-3.755-0.553-7.62-0.553-11.372-0.003
		c-0.028,0.004-0.056,0.008-0.084,0.012c-0.13,0.019-0.26,0.034-0.39,0.054v-14.032c0.22,0.062,0.444,0.107,0.666,0.163
		c0.249,0.062,0.496,0.129,0.748,0.182c0.207,0.044,0.417,0.076,0.626,0.114c0.327,0.06,0.654,0.123,0.984,0.168
		c0.044,0.006,0.09,0.009,0.134,0.015c0.988,0.131,1.987,0.205,2.995,0.205c1.023,0,2.038-0.075,3.041-0.21
		c0.023-0.003,0.047-0.004,0.071-0.008c0.354-0.049,0.703-0.115,1.053-0.18c0.185-0.034,0.371-0.062,0.555-0.101
		c0.273-0.058,0.542-0.13,0.813-0.198c0.203-0.051,0.409-0.092,0.611-0.149v14.031c-0.139-0.022-0.28-0.038-0.419-0.058
		C270.866,231.319,270.855,231.318,270.845,231.316z M296.714,193.031c1.375,0,2.494,1.119,2.494,2.495
		c0,0.663-0.262,1.292-0.725,1.759c-0.335,0.335-0.915,0.735-1.77,0.735h-9.028c0.011-0.106,0.016-0.213,0.026-0.319
		c0.012-0.125,0.021-0.249,0.031-0.374c0.047-0.598,0.079-1.198,0.079-1.801c0-0.604-0.032-1.205-0.079-1.803
		c-0.01-0.123-0.018-0.247-0.03-0.37c-0.01-0.107-0.015-0.215-0.026-0.322H296.714z M265.152,180.857
		c6.104,0,11.635,3.845,13.758,9.561c0.604,1.636,0.911,3.354,0.911,5.108c0,1.752-0.306,3.469-0.91,5.104
		c-1.092,2.939-3.145,5.494-5.801,7.207c-2.364,1.542-5.115,2.357-7.958,2.357c-2.848,0-5.604-0.815-7.979-2.365
		c-2.639-1.708-4.691-4.266-5.779-7.196c-0.604-1.636-0.911-3.354-0.911-5.107c0-0.438,0.019-0.875,0.057-1.308
		c0.115-1.3,0.4-2.573,0.854-3.8c0-0.001,0-0.002,0.001-0.003C253.514,184.698,259.042,180.857,265.152,180.857z M233.581,198.02
		c-1.375,0-2.494-1.119-2.494-2.494c0-0.667,0.261-1.295,0.734-1.769c0.468-0.468,1.093-0.726,1.76-0.726h9.038
		c-0.012,0.107-0.016,0.216-0.027,0.323c-0.011,0.121-0.02,0.241-0.03,0.362c-0.048,0.6-0.08,1.202-0.08,1.809
		c0,0.606,0.032,1.208,0.08,1.808c0.01,0.121,0.018,0.243,0.03,0.364c0.01,0.107,0.015,0.215,0.026,0.322H233.581z M196.097,252.285
		h41.565c1.229,0,2.391-0.565,3.148-1.533c3.956-5.048,9.262-8.688,15.354-10.528c4.345-1.323,9.014-1.655,13.526-0.993
		c1.505,0.221,2.994,0.553,4.45,0.996c6.093,1.84,11.402,5.48,15.354,10.525c0.758,0.968,1.919,1.533,3.148,1.533h40.453
		c11.8,0,21.399,9.6,21.399,21.399v54.237c0,1.777-1.445,3.222-3.222,3.222H322.7c-1.776,0-3.222-1.445-3.222-3.222v-30.422
		c0-5.617-4.57-10.187-10.188-10.187h-16.648c-1.229,0-2.39,0.565-3.148,1.533c-5.906,7.536-14.778,11.858-24.342,11.858
		s-18.436-4.322-24.342-11.858c-0.759-0.968-1.919-1.533-3.148-1.533h-41.565V252.285z M157.505,240.85
		c0-2.129,1.731-3.861,3.86-3.861h13.517c7.284,0,13.211,5.926,13.211,13.211v39.197c0,7.284-5.927,13.21-13.211,13.21h-13.517
		c-2.129,0-3.86-1.732-3.86-3.861V240.85z"/>
</g>
</svg>
