<?xml version="1.0" encoding="utf-8"?>
<!-- Generator: Adobe Illustrator 27.0.1, SVG Export Plug-In . SVG Version: 6.00 Build 0)  -->
<svg version="1.1" id="Layer_2" xmlns="http://www.w3.org/2000/svg" xmlns:xlink="http://www.w3.org/1999/xlink" x="0px" y="0px"
	 viewBox="0 0 512 512" style="enable-background:new 0 0 512 512;" xml:space="preserve">
<style type="text/css">
	.st0{fill:#FFFFFF;}
</style>
<g>
	<path class="st0" d="M152.063,331.726c-0.006,7.841,3.135,15.135,8.844,20.538c5.346,5.059,12.293,7.572,19.273,7.571
		c7.387,0,14.809-2.815,20.399-8.406l72.775-72.775c23.535,8.229,49.773,2.313,67.517-15.428
		c18.368-18.369,24.062-45.846,14.503-70.001c-0.496-1.253-1.588-2.172-2.908-2.445c-1.317-0.272-2.688,0.136-3.64,1.088
		l-31.064,31.064c-7.898,7.898-20.75,7.897-28.646,0c-7.898-7.898-7.898-20.75,0-28.647l31.063-31.063
		c0.953-0.953,1.361-2.321,1.088-3.64c-0.273-1.319-1.192-2.412-2.445-2.908c-24.154-9.558-51.631-3.865-70,14.503
		c-17.739,17.741-23.658,43.982-15.429,67.517l-73.056,73.055C154.996,317.091,152.058,324.188,152.063,331.726z M240.867,242.534
		c1.127-1.128,1.478-2.817,0.891-4.3c-8.383-21.188-3.39-45.289,12.722-61.4c10.922-10.923,25.514-16.735,40.383-16.735
		c5.042,0,10.118,0.669,15.092,2.034l-26.495,26.495c-11.017,11.017-11.017,28.944,0,39.961c11.018,11.017,28.943,11.017,39.961,0
		l26.495-26.496c5.39,19.639-0.074,40.849-14.701,55.475c-16.112,16.112-40.213,21.104-61.4,12.722
		c-1.483-0.587-3.172-0.236-4.3,0.891l-74.591,74.592c-7.839,7.838-20.631,8.143-28.516,0.681
		c-4.095-3.875-6.347-9.103-6.343-14.727c-0.004-5.406,2.102-10.491,5.932-14.32L240.867,242.534z"/>
	<path class="st0" d="M181.236,343.646c3.288,0,6.577-1.252,9.08-3.755c5.006-5.007,5.006-13.153,0-18.16
		c-5.007-5.006-13.152-5.006-18.159,0c0,0,0,0,0,0c-5.006,5.007-5.006,13.153,0,18.16
		C174.659,342.395,177.948,343.646,181.236,343.646z M177.812,327.389c1.888-1.888,4.959-1.888,6.846,0
		c1.888,1.887,1.888,4.958,0,6.846c-1.887,1.888-4.959,1.888-6.846,0C175.925,332.347,175.925,329.276,177.812,327.389
		L177.812,327.389z"/>
</g>
</svg>
