<?xml version="1.0" encoding="utf-8"?>
<!-- Generator: Adobe Illustrator 27.0.1, SVG Export Plug-In . SVG Version: 6.00 Build 0)  -->
<svg version="1.1" id="Layer_2" xmlns="http://www.w3.org/2000/svg" xmlns:xlink="http://www.w3.org/1999/xlink" x="0px" y="0px"
	 viewBox="0 0 512 512" style="enable-background:new 0 0 512 512;" xml:space="preserve">
<style type="text/css">
	.st0{fill:#FFFFFF;}
</style>
<g>
	<path class="st0" d="M171.733,194.081v32.363c-0.001,0.036-0.011,0.07-0.011,0.106v116.414c0,3.309,2.692,6.001,6.001,6.001
		h156.536c3.309,0,6-2.692,6-6.001V226.74c0.003-0.059,0.018-0.115,0.018-0.174v-32.485c0-7.975-6.488-14.462-14.462-14.462h-4.736
		v-1.074c0-4.101-1.666-8.083-4.571-10.937c-2.853-2.906-6.836-4.572-10.938-4.572c-8.58,0-15.561,6.957-15.561,15.508v1.074
		h-20.196v-1.074c0-4.15-1.661-8.149-4.52-10.937c-2.948-2.948-6.851-4.571-10.989-4.571c-8.551,0-15.508,6.957-15.508,15.508v1.074
		h-20.614v-1.074c0-4.078-1.647-8.064-4.52-10.937c-2.948-2.948-6.851-4.571-10.989-4.571c-8.58,0-15.561,6.957-15.561,15.508v1.074
		h-0.917C178.221,179.618,171.733,186.106,171.733,194.081z M179.723,340.964V230.566H332.26v110.398H179.723z M298.01,178.544
		c0-4.14,3.392-7.508,7.561-7.508c1.975,0,3.886,0.799,5.245,2.192c0.023,0.024,0.047,0.048,0.071,0.071
		c1.394,1.359,2.193,3.271,2.193,5.245v5.074v5.074c0,4.169-3.369,7.561-7.509,7.561c-4.169,0-7.561-3.392-7.561-7.561v-5.074
		V178.544z M246.797,178.544c0-4.14,3.368-7.508,7.508-7.508c2.001,0,3.895,0.792,5.368,2.264c1.36,1.327,2.141,3.238,2.141,5.245
		v5.074v5.074c0,4.169-3.369,7.561-7.509,7.561s-7.508-3.392-7.508-7.561v-5.074V178.544z M195.113,178.544
		c0-4.14,3.392-7.508,7.561-7.508c2.001,0,3.896,0.792,5.332,2.229c1.383,1.383,2.177,3.308,2.177,5.28v5.074v5.074
		c0,4.169-3.369,7.561-7.509,7.561c-4.169,0-7.561-3.392-7.561-7.561v-5.074V178.544z M186.196,187.618h0.917v1.074
		c0,8.581,6.98,15.561,15.561,15.561c8.552,0,15.509-6.98,15.509-15.561v-1.074h20.614v1.074c0,8.581,6.957,15.561,15.508,15.561
		c8.552,0,15.509-6.98,15.509-15.561v-1.074h20.196v1.074c0,8.581,6.98,15.561,15.561,15.561c8.552,0,15.509-6.98,15.509-15.561
		v-1.074h4.736c3.563,0,6.462,2.899,6.462,6.462v28.469H179.733v-28.469C179.733,190.517,182.632,187.618,186.196,187.618z"/>
	<path class="st0" d="M202.866,252.035c-8.455,0-15.334,6.879-15.334,15.334c0,8.455,6.879,15.334,15.334,15.334
		c8.456,0,15.334-6.879,15.334-15.334C218.2,258.914,211.321,252.035,202.866,252.035z M202.866,274.703
		c-4.044,0-7.334-3.29-7.334-7.334c0-4.044,3.29-7.334,7.334-7.334c4.044,0,7.334,3.29,7.334,7.334
		C210.2,271.413,206.91,274.703,202.866,274.703z"/>
	<path class="st0" d="M254.305,252.035c-8.455,0-15.334,6.879-15.334,15.334c0,8.455,6.879,15.334,15.334,15.334
		c8.456,0,15.334-6.879,15.334-15.334C269.64,258.914,262.761,252.035,254.305,252.035z M254.305,274.703
		c-4.044,0-7.334-3.29-7.334-7.334c0-4.044,3.29-7.334,7.334-7.334c4.044,0,7.334,3.29,7.334,7.334
		C261.64,271.413,258.35,274.703,254.305,274.703z"/>
	<path class="st0" d="M305.546,252.035c-8.455,0-15.334,6.879-15.334,15.334c0,8.455,6.879,15.334,15.334,15.334
		s15.334-6.879,15.334-15.334C320.88,258.914,314.001,252.035,305.546,252.035z M305.546,274.703c-4.044,0-7.334-3.29-7.334-7.334
		c0-4.044,3.29-7.334,7.334-7.334s7.334,3.29,7.334,7.334C312.88,271.413,309.59,274.703,305.546,274.703z"/>
	<path class="st0" d="M202.866,292.14c-8.455,0-15.334,6.879-15.334,15.334c0,8.455,6.879,15.334,15.334,15.334
		c8.456,0,15.334-6.879,15.334-15.334C218.2,299.019,211.321,292.14,202.866,292.14z M202.866,314.809
		c-4.044,0-7.334-3.29-7.334-7.334c0-4.044,3.29-7.334,7.334-7.334c4.044,0,7.334,3.29,7.334,7.334
		C210.2,311.519,206.91,314.809,202.866,314.809z"/>
	<path class="st0" d="M254.305,292.14c-8.455,0-15.334,6.879-15.334,15.334c0,8.455,6.879,15.334,15.334,15.334
		c8.456,0,15.334-6.879,15.334-15.334C269.64,299.019,262.761,292.14,254.305,292.14z M254.305,314.809
		c-4.044,0-7.334-3.29-7.334-7.334c0-4.044,3.29-7.334,7.334-7.334c4.044,0,7.334,3.29,7.334,7.334
		C261.64,311.519,258.35,314.809,254.305,314.809z"/>
	<path class="st0" d="M305.546,292.14c-8.455,0-15.334,6.879-15.334,15.334c0,8.455,6.879,15.334,15.334,15.334
		s15.334-6.879,15.334-15.334C320.88,299.019,314.001,292.14,305.546,292.14z M305.546,314.809c-4.044,0-7.334-3.29-7.334-7.334
		c0-4.044,3.29-7.334,7.334-7.334s7.334,3.29,7.334,7.334C312.88,311.519,309.59,314.809,305.546,314.809z"/>
</g>
</svg>
