<?xml version="1.0" encoding="utf-8"?>
<!-- Generator: Adobe Illustrator 27.0.1, SVG Export Plug-In . SVG Version: 6.00 Build 0)  -->
<svg version="1.1" id="Layer_2" xmlns="http://www.w3.org/2000/svg" xmlns:xlink="http://www.w3.org/1999/xlink" x="0px" y="0px"
	 viewBox="0 0 512 512" style="enable-background:new 0 0 512 512;" xml:space="preserve">
<style type="text/css">
	.st0{fill:#FFFFFF;}
</style>
<g>
	<path class="st0" d="M220.278,202.03c2.209,0,4-1.791,4-4v-16.563c0-2.209-1.791-4-4-4s-4,1.791-4,4v16.563
		C216.278,200.239,218.069,202.03,220.278,202.03z"/>
	<path class="st0" d="M220.278,248.222c-2.209,0-4,1.791-4,4v16.563c0,2.209,1.791,4,4,4s4-1.791,4-4v-16.563
		C224.278,250.013,222.487,248.222,220.278,248.222z"/>
	<path class="st0" d="M286.065,355.763c2.209,0,4-1.791,4-4v-3.556h8.117c7.813,0,14.169-6.356,14.169-14.169V170.407
		c0-7.813-6.356-14.169-14.169-14.169h-84.364c-7.813,0-14.169,6.356-14.169,14.169v163.631c0,7.813,6.356,14.169,14.169,14.169
		h8.117v3.556c0,2.209,1.791,4,4,4s4-1.791,4-4v-3.556h52.13v3.556C282.065,353.972,283.856,355.763,286.065,355.763z
		 M213.818,164.237h84.364c3.402,0,6.169,2.768,6.169,6.169v47.942h-96.703v-47.942
		C207.648,167.005,210.416,164.237,213.818,164.237z M207.648,334.038V226.349h96.703v107.688c0,3.402-2.768,6.169-6.169,6.169
		h-84.364C210.416,340.207,207.648,337.439,207.648,334.038z"/>
</g>
</svg>
