<?xml version="1.0" encoding="utf-8"?>
<!-- Generator: Adobe Illustrator 27.0.1, SVG Export Plug-In . SVG Version: 6.00 Build 0)  -->
<svg version="1.1" id="Layer_2" xmlns="http://www.w3.org/2000/svg" xmlns:xlink="http://www.w3.org/1999/xlink" x="0px" y="0px"
	 viewBox="0 0 512 512" style="enable-background:new 0 0 512 512;" xml:space="preserve">
<style type="text/css">
	.st0{fill:#FFFFFF;}
</style>
<g>
	<path class="st0" d="M367.864,239.817c-0.75-0.75-1.768-1.172-2.828-1.172s-2.078,0.422-2.828,1.172l-11.166,11.167
		c-1.743,1.742-4.58,1.743-6.325,0c-1.743-1.744-1.743-4.581,0-6.325l11.167-11.167c0.75-0.75,1.172-1.768,1.172-2.828
		s-0.422-2.078-1.172-2.828l-9.328-9.327c-1.562-1.562-4.096-1.562-5.656,0l-11.166,11.167c-1.745,1.742-4.582,1.742-6.325,0
		c-0.847-0.847-1.312-1.97-1.312-3.163c0-1.192,0.466-2.315,1.312-3.162l11.167-11.167c0.75-0.75,1.172-1.768,1.172-2.828
		s-0.422-2.078-1.172-2.828l-8.562-8.561c-1.562-1.562-4.096-1.562-5.656,0l-11.166,11.167c-0.846,0.845-1.968,1.311-3.162,1.311
		h-0.001c-1.194-0.001-2.317-0.466-3.162-1.311s-1.31-1.968-1.311-3.162c0-1.194,0.465-2.317,1.311-3.163l11.167-11.166
		c1.562-1.562,1.562-4.094,0-5.656l-8.561-8.562c-0.75-0.75-1.768-1.172-2.828-1.172s-2.078,0.422-2.828,1.172l-11.167,11.167
		c-0.847,0.847-1.97,1.312-3.162,1.312c-1.193,0-2.316-0.466-3.163-1.312c-1.743-1.744-1.743-4.581,0-6.325l11.167-11.166
		c0.75-0.75,1.172-1.768,1.172-2.828s-0.422-2.078-1.172-2.828l-8.555-8.555c-1.562-1.562-4.094-1.562-5.656,0l-11.168,11.166
		c-0.845,0.846-1.968,1.312-3.16,1.312c-0.001,0-0.002,0-0.002,0c-1.193-0.001-2.316-0.467-3.162-1.312
		c-1.743-1.744-1.743-4.58,0-6.324l11.167-11.167c1.562-1.562,1.562-4.095,0-5.656l-15.63-15.63c-1.561-1.562-4.096-1.562-5.656,0
		l-27.413,27.413c-4.01,4.009-6.218,9.341-6.218,15.013c0,5.673,2.208,11.005,6.218,15.014l39.748,39.748l-7.715,7.715
		c-1.406,1.405-1.535,3.592-0.41,5.154l-86.005,86.005c-4.629,4.628-4.629,12.159,0,16.787c2.313,2.314,5.354,3.472,8.394,3.472
		s6.08-1.157,8.394-3.472l86.005-86.005c0.694,0.5,1.508,0.762,2.326,0.762c1.023,0,2.048-0.391,2.828-1.172l7.715-7.715
		l39.748,39.748c4.009,4.01,9.341,6.218,15.014,6.218c5.672,0,11.004-2.208,15.013-6.218l27.413-27.413
		c1.562-1.562,1.562-4.095,0-5.656L367.864,239.817z M181.004,336.471c-1.51,1.508-3.965,1.508-5.475,0
		c-1.509-1.51-1.509-3.965,0-5.475l85.959-85.958l5.474,5.474L181.004,336.471z M274.991,247.227l-10.218-10.218l10.938-10.938
		c1.366-1.366,3.183-2.119,5.114-2.12c0.002,0,0.003,0,0.004,0c1.93,0,3.743,0.751,5.106,2.114c1.361,1.362,2.111,3.179,2.111,5.115
		c0,0.241-0.012,0.48-0.035,0.717c-0.163,1.658-0.888,3.197-2.083,4.392l-2.489,2.49L274.991,247.227z M349.652,282.088
		c-2.499,2.498-5.821,3.874-9.356,3.874c-3.536,0-6.858-1.376-9.357-3.874l-39.747-39.747l0.395-0.396
		c2.877-2.876,4.461-6.699,4.461-10.766c0-4.073-1.582-7.899-4.454-10.771c-2.875-2.875-6.696-4.458-10.763-4.458
		c-0.003,0-0.006,0-0.009,0c-0.508,0-1.013,0.025-1.512,0.074c-3.496,0.344-6.738,1.873-9.254,4.388l-0.396,0.396l-39.747-39.747
		c-2.498-2.499-3.874-5.821-3.874-9.357c0-3.535,1.376-6.857,3.874-9.356l24.585-24.584l9.973,9.973l-8.338,8.339
		c-4.863,4.862-4.863,12.774,0,17.637c2.355,2.355,5.486,3.653,8.815,3.655c0.002,0,0.003,0,0.005,0
		c3.33-0.001,6.462-1.299,8.817-3.655l8.339-8.338l2.897,2.898l-8.338,8.338c-4.863,4.862-4.863,12.775,0,17.638
		c2.357,2.357,5.489,3.656,8.819,3.656c3.329,0,6.461-1.299,8.818-3.656l8.339-8.338l2.903,2.904l-8.338,8.338
		c-4.863,4.862-4.863,12.775,0,17.638c4.862,4.864,12.777,4.863,17.638,0l8.338-8.338l2.904,2.903l-8.338,8.339
		c-2.357,2.357-3.656,5.489-3.656,8.818c0,3.33,1.299,6.462,3.656,8.819c4.863,4.864,12.778,4.863,17.638,0l8.338-8.338l3.671,3.67
		l-8.338,8.339c-2.357,2.357-3.656,5.489-3.656,8.818c0,3.33,1.299,6.462,3.656,8.819c4.862,4.865,12.777,4.863,17.638,0
		l8.338-8.338l9.2,9.2L349.652,282.088z"/>
</g>
</svg>
