<?xml version="1.0" encoding="utf-8"?>
<!-- Generator: Adobe Illustrator 27.0.1, SVG Export Plug-In . SVG Version: 6.00 Build 0)  -->
<svg version="1.1" id="Layer_2" xmlns="http://www.w3.org/2000/svg" xmlns:xlink="http://www.w3.org/1999/xlink" x="0px" y="0px"
	 viewBox="0 0 512 512" style="enable-background:new 0 0 512 512;" xml:space="preserve">
<style type="text/css">
	.st0{fill:#FFFFFF;}
</style>
<g>
	<path class="st0" d="M326.04,248.66c0.24,0.1,0.49,0.17,0.75,0.23c0.26,0.05,0.52,0.07,0.78,0.07c0.26,0,0.52-0.02,0.78-0.07
		c0.26-0.06,0.51-0.13,0.75-0.23c0.24-0.1,0.47-0.23,0.69-0.37c0.22-0.15,0.43-0.31,0.61-0.5c0.74-0.74,1.17-1.77,1.17-2.83
		c0-0.26-0.03-0.52-0.08-0.78c-0.05-0.25-0.13-0.5-0.22-0.75c-0.1-0.24-0.23-0.47-0.37-0.69c-0.15-0.22-0.32-0.42-0.5-0.6
		c-0.18-0.19-0.39-0.36-0.61-0.5c-0.22-0.15-0.45-0.27-0.69-0.37c-0.24-0.1-0.49-0.18-0.75-0.23c-1.3-0.26-2.68,0.17-3.61,1.1
		c-0.18,0.18-0.35,0.38-0.49,0.6c-0.15,0.22-0.27,0.45-0.37,0.69c-0.1,0.25-0.18,0.5-0.23,0.75c-0.05,0.26-0.08,0.52-0.08,0.78
		c0,1.06,0.43,2.09,1.17,2.83c0.19,0.19,0.39,0.35,0.61,0.5C325.57,248.43,325.8,248.56,326.04,248.66z"/>
	<path class="st0" d="M356.187,305.177V192.465c0-2.209-1.791-4-4-4H159.813c-2.209,0-4,1.791-4,4v112.712c0,2.209,1.791,4,4,4
		h18.74v10.358c0,2.209,1.791,4,4,4s4-1.791,4-4v-10.358h138.893v10.358c0,2.209,1.791,4,4,4s4-1.791,4-4v-10.358h18.74
		C354.396,309.177,356.187,307.386,356.187,305.177z M163.813,196.465h134.373v104.712H163.813V196.465z M348.187,301.177h-42
		V196.465h42V301.177z"/>
	<path class="st0" d="M327.571,258.106c-8.586,0-15.571,6.985-15.571,15.571s6.985,15.571,15.571,15.571
		c8.586,0,15.572-6.985,15.572-15.571S336.158,258.106,327.571,258.106z M327.571,281.249c-4.175,0-7.571-3.396-7.571-7.571
		s3.396-7.571,7.571-7.571c4.175,0,7.572,3.396,7.572,7.571S331.747,281.249,327.571,281.249z"/>
	<path class="st0" d="M316,218.106h23.143c2.209,0,4-1.791,4-4s-1.791-4-4-4H316c-2.209,0-4,1.791-4,4S313.791,218.106,316,218.106z
		"/>
	<path class="st0" d="M316,231.821h23.143c2.209,0,4-1.791,4-4s-1.791-4-4-4H316c-2.209,0-4,1.791-4,4S313.791,231.821,316,231.821z
		"/>
	<path class="st0" d="M283.036,282.61v-68.504c0-2.209-1.791-4-4-4h-98.357c-2.209,0-4,1.791-4,4v68.504c0,2.209,1.791,4,4,4h98.357
		C281.245,286.61,283.036,284.819,283.036,282.61z M275.036,218.106v45.357h-90.357v-45.357H275.036z M184.679,278.61v-7.146h90.357
		v7.146H184.679z"/>
</g>
</svg>
