<?xml version="1.0" encoding="utf-8"?>
<!-- Generator: Adobe Illustrator 27.0.1, SVG Export Plug-In . SVG Version: 6.00 Build 0)  -->
<svg version="1.1" id="Layer_2" xmlns="http://www.w3.org/2000/svg" xmlns:xlink="http://www.w3.org/1999/xlink" x="0px" y="0px"
	 viewBox="0 0 512 512" style="enable-background:new 0 0 512 512;" xml:space="preserve">
<style type="text/css">
	.st0{fill:#FFFFFF;}
</style>
<g>
	<path class="st0" d="M163.571,343.617h184.857c5.296,0,9.604-4.309,9.604-9.605v-17.624c0-5.296-4.309-9.605-9.604-9.605h-15.384
		v-90.189c0-42.482-34.562-77.044-77.044-77.044s-77.044,34.562-77.044,77.044v90.189h-15.384c-5.296,0-9.604,4.309-9.604,9.605
		v17.624C153.967,339.308,158.275,343.617,163.571,343.617z M325.044,306.783H260v-75.617h65.044V306.783z M325.044,216.594v6.572
		H260v-75.492C296.216,149.754,325.044,179.866,325.044,216.594z M252,147.674v75.492h-65.044v-6.572
		C186.956,179.866,215.784,149.754,252,147.674z M186.956,231.167H252v75.617h-65.044V231.167z M161.967,316.388
		c0-0.885,0.72-1.605,1.604-1.605h19.384h146.089h19.384c0.885,0,1.604,0.72,1.604,1.605v17.624c0,0.885-0.72,1.605-1.604,1.605
		H163.571c-0.885,0-1.604-0.72-1.604-1.605V316.388z"/>
</g>
</svg>
