<?xml version="1.0" encoding="utf-8"?>
<!-- Generator: Adobe Illustrator 27.0.1, SVG Export Plug-In . SVG Version: 6.00 Build 0)  -->
<svg version="1.1" id="Layer_2" xmlns="http://www.w3.org/2000/svg" xmlns:xlink="http://www.w3.org/1999/xlink" x="0px" y="0px"
	 viewBox="0 0 512 512" style="enable-background:new 0 0 512 512;" xml:space="preserve">
<style type="text/css">
	.st0{fill:#FFFFFF;}
</style>
<g>
	<path class="st0" d="M291.248,276.008c-1.32-0.271-2.687,0.137-3.64,1.088l-11.274,11.275c-1.873,1.874-4.922,1.873-6.795,0
		c-0.907-0.907-1.407-2.114-1.407-3.397s0.5-2.49,1.407-3.397l11.274-11.275c0.953-0.953,1.362-2.321,1.089-3.64
		c-0.273-1.319-1.192-2.412-2.445-2.908c-9.713-3.844-20.76-1.553-28.146,5.832c0,0,0,0,0,0c-6.747,6.747-9.241,16.55-6.692,25.599
		l-25.424,25.424c-2.421,2.42-3.753,5.637-3.75,9.05c-0.003,3.502,1.457,6.895,4.007,9.308c2.428,2.297,5.581,3.439,8.746,3.438
		c3.336,0,6.686-1.269,9.206-3.79l25.322-25.323c9.048,2.55,18.852,0.055,25.599-6.693c7.386-7.386,9.675-18.435,5.832-28.146
		C293.66,277.201,292.567,276.282,291.248,276.008z M282.668,300.943c-5.129,5.129-12.799,6.72-19.547,4.05
		c-1.484-0.587-3.173-0.236-4.3,0.891l-27.075,27.075c-1.877,1.878-4.928,1.967-6.796,0.198c-0.973-0.92-1.507-2.16-1.506-3.498
		c-0.001-1.28,0.498-2.485,1.406-3.393l27.176-27.176c1.128-1.128,1.479-2.817,0.892-4.3c-2.67-6.745-1.08-14.417,4.049-19.547v0
		c3.478-3.477,8.123-5.328,12.856-5.328c0.021,0,0.042,0,0.063,0l-6.004,6.004c-2.419,2.418-3.751,5.634-3.751,9.054
		c0,3.42,1.332,6.636,3.751,9.054c2.418,2.418,5.634,3.75,9.054,3.75s6.636-1.332,9.054-3.751l6.005-6.004
		C288.012,292.779,286.16,297.451,282.668,300.943z"/>
	<path class="st0" d="M165.521,345.682c0.006,0.045,0.012,0.091,0.019,0.136c0.942,6.324,6.477,11.092,12.873,11.092h155.176
		c6.396,0,11.931-4.769,12.873-11.092c0.007-0.045,0.013-0.091,0.019-0.136l12.816-112.291c0.532-3.724-0.569-7.488-3.028-10.338
		c-1.701-1.972-3.934-3.348-6.392-4.027v-31.768c0-17.738-14.431-32.168-32.169-32.168H193.759
		c-17.738,0-32.169,14.431-32.169,32.168v31.916c-2.247,0.725-4.28,2.051-5.857,3.879c-2.459,2.851-3.561,6.615-3.028,10.338
		L165.521,345.682z M338.54,344.697c-0.389,2.406-2.507,4.213-4.952,4.213H178.412c-2.445,0-4.563-1.807-4.952-4.213l-10.025-87.831
		h14.776v4.183c0,6.107,4.969,11.076,11.075,11.076h11.394c6.106,0,11.075-4.969,11.075-11.076v-4.183h88.49v4.183
		c0,6.107,4.969,11.076,11.075,11.076h11.394c6.106,0,11.075-4.969,11.075-11.076v-4.183h14.776L338.54,344.697z M203.755,261.049
		c0,1.696-1.38,3.076-3.075,3.076h-11.394c-1.695,0-3.075-1.38-3.075-3.076v-16.366c0-1.696,1.38-3.076,3.075-3.076h11.394
		c1.695,0,3.075,1.38,3.075,3.076V261.049z M325.789,261.049c0,1.696-1.38,3.076-3.075,3.076H311.32
		c-1.695,0-3.075-1.38-3.075-3.076v-16.366c0-1.696,1.38-3.076,3.075-3.076h11.394c1.695,0,3.075,1.38,3.075,3.076V261.049z
		 M193.759,163.089h123.948c13.327,0,24.169,10.842,24.169,24.168v31.28H169.59v-31.28
		C169.59,173.931,180.432,163.089,193.759,163.089z M161.79,228.278c0.968-1.122,2.316-1.74,3.798-1.74h180.824
		c1.481,0,2.83,0.618,3.798,1.74c0.967,1.122,1.38,2.546,1.162,4.011c-0.006,0.044-0.012,0.089-0.018,0.134l-1.877,16.444h-15.689
		v-4.183c0-6.107-4.969-11.076-11.075-11.076H311.32c-6.106,0-11.075,4.969-11.075,11.076v4.183h-88.49v-4.183
		c0-6.107-4.969-11.076-11.075-11.076h-11.394c-6.106,0-11.075,4.969-11.075,11.076v4.183h-15.689l-1.877-16.444
		c-0.006-0.045-0.012-0.089-0.018-0.134C160.41,230.824,160.823,229.399,161.79,228.278z"/>
</g>
</svg>
