<?xml version="1.0" encoding="utf-8"?>
<!-- Generator: Adobe Illustrator 27.0.1, SVG Export Plug-In . SVG Version: 6.00 Build 0)  -->
<svg version="1.1" id="Layer_2" xmlns="http://www.w3.org/2000/svg" xmlns:xlink="http://www.w3.org/1999/xlink" x="0px" y="0px"
	 viewBox="0 0 512 512" style="enable-background:new 0 0 512 512;" xml:space="preserve">
<style type="text/css">
	.st0{fill:#FFFFFF;}
</style>
<g>
	<path class="st0" d="M256,231.87c0.26,0,0.52-0.021,0.78-0.08c0.26-0.05,0.51-0.12,0.75-0.221c0.239-0.1,0.47-0.229,0.689-0.369
		c0.22-0.15,0.42-0.311,0.61-0.5c0.739-0.74,1.17-1.771,1.17-2.83c0-0.261-0.03-0.521-0.08-0.78c-0.05-0.25-0.13-0.51-0.23-0.75
		c-0.1-0.24-0.22-0.47-0.359-0.69c-0.15-0.22-0.32-0.42-0.5-0.6c-0.75-0.75-1.78-1.18-2.83-1.18s-2.08,0.43-2.83,1.18
		c-0.74,0.74-1.17,1.77-1.17,2.82c0,1.06,0.43,2.09,1.17,2.83C253.91,231.45,254.939,231.87,256,231.87z"/>
	<path class="st0" d="M318.141,211.877h1.621c9.38,0,17.012-7.632,17.012-17.012v-26.982c0-2.209-1.791-4-4-4H179.227
		c-2.209,0-4,1.791-4,4v26.982c0,9.38,7.632,17.012,17.012,17.012h1.621l5.97,27.394c1.558,7.144,7.894,12.357,15.167,12.579
		c2.009,20.857,19.629,37.221,41.004,37.221s38.996-16.364,41.004-37.221c7.273-0.221,13.609-5.434,15.167-12.58L318.141,211.877z
		 M183.227,194.865v-22.982h145.547v22.982c0,4.969-4.043,9.012-9.012,9.012h-4.843H197.081h-4.843
		C187.27,203.877,183.227,199.834,183.227,194.865z M256,281.07c-16.952,0-30.968-12.774-32.951-29.2h65.901
		C286.968,268.296,272.952,281.07,256,281.07z M304.354,237.565c-0.797,3.653-4.088,6.305-7.827,6.305h-81.055
		c-3.739,0-7.03-2.651-7.827-6.304l-5.599-25.689h107.906L304.354,237.565z"/>
	<path class="st0" d="M284.337,297.728c1.562-1.562,1.562-4.095,0-5.656c-1.562-1.562-4.096-1.562-5.656,0
		c-6.271,6.271-14.608,9.725-23.477,9.725s-17.205-3.454-23.477-9.725c-1.561-1.562-4.096-1.562-5.656,0
		c-1.562,1.562-1.562,4.095,0,5.656c7.782,7.782,18.128,12.068,29.133,12.068C266.21,309.796,276.556,305.51,284.337,297.728z"/>
	<path class="st0" d="M214.38,304.928c-1.562,1.562-1.562,4.095,0,5.656c11.255,11.256,26.04,16.884,40.824,16.884
		s29.569-5.628,40.824-16.884c1.562-1.562,1.562-4.095,0-5.656c-1.561-1.562-4.096-1.562-5.656,0
		c-19.393,19.391-50.943,19.391-70.336,0C218.476,303.365,215.94,303.365,214.38,304.928z"/>
	<path class="st0" d="M202.588,320.666c-1.562,1.562-1.562,4.095,0,5.656c14.506,14.507,33.562,21.76,52.616,21.76
		s38.11-7.253,52.616-21.76c1.562-1.562,1.562-4.095,0-5.656c-1.561-1.562-4.096-1.562-5.656,0
		c-25.895,25.893-68.025,25.893-93.92,0C206.684,319.104,204.148,319.104,202.588,320.666z"/>
	<path class="st0" d="M278.628,191.88h33.909c2.209,0,4-1.791,4-4s-1.791-4-4-4h-33.909c-2.209,0-4,1.791-4,4
		S276.419,191.88,278.628,191.88z"/>
	<path class="st0" d="M233.372,191.88c2.209,0,4-1.791,4-4s-1.791-4-4-4h-33.909c-2.209,0-4,1.791-4,4s1.791,4,4,4H233.372z"/>
	<path class="st0" d="M256,200.909c7.185,0,13.029-5.845,13.029-13.029s-5.845-13.029-13.029-13.029s-13.029,5.845-13.029,13.029
		S248.815,200.909,256,200.909z M256,182.851c2.773,0,5.029,2.256,5.029,5.029s-2.256,5.029-5.029,5.029s-5.029-2.256-5.029-5.029
		S253.227,182.851,256,182.851z"/>
</g>
</svg>
