<?xml version="1.0" encoding="utf-8"?>
<!-- Generator: Adobe Illustrator 27.0.1, SVG Export Plug-In . SVG Version: 6.00 Build 0)  -->
<svg version="1.1" id="Layer_2" xmlns="http://www.w3.org/2000/svg" xmlns:xlink="http://www.w3.org/1999/xlink" x="0px" y="0px"
	 viewBox="0 0 512 512" style="enable-background:new 0 0 512 512;" xml:space="preserve">
<style type="text/css">
	.st0{fill:#FFFFFF;}
</style>
<g>
	<path class="st0" d="M147.643,176.491h35.596l8.428,13.441l-0.572,0.33c-10.045,5.799-13.499,18.69-7.699,28.735l32.386,56.093
		c0.53,0.919,1.404,1.589,2.429,1.864c0.341,0.091,0.688,0.136,1.035,0.136c0.696,0,1.387-0.182,2-0.536l13.131-7.581l6.877,13.305
		c-6.403,1.177-12.293,4.251-16.985,8.952c-1.74,1.74-3.254,3.672-4.543,5.74c-7.663,4.477-12.384,12.626-12.384,21.553
		c0,13.778,11.209,24.987,24.986,24.987c10.113,0,19.169-6.17,23.014-15.302h65.026c3.852,9.138,12.904,15.302,23.012,15.302
		c13.772,0,24.977-11.209,24.977-24.987c0-8.936-4.72-17.082-12.38-21.55c-5.905-9.422-16.316-15.24-27.464-15.24h-2.123v-8.364
		c0-9.332-7.592-16.924-16.923-16.924h-43.23c-9.332,0-16.924,7.592-16.924,16.924v7.323c-0.074-0.292-0.172-0.58-0.316-0.859
		l-7.683-14.865l3.798-2.193c8.867-5.12,11.918-16.501,6.798-25.369l-26.332-45.608c-2.479-4.296-6.484-7.369-11.276-8.653
		c-4.791-1.284-9.797-0.625-14.093,1.855l-1.608,0.928l-9.759-15.564c-0.731-1.167-2.012-1.875-3.389-1.875h-37.809
		c-2.209,0-4,1.791-4,4S145.434,176.491,147.643,176.491z M232.328,335.509c-9.366,0-16.986-7.62-16.986-16.987
		c0-6.331,3.488-12.094,9.104-15.041c2.413-1.267,5.139-1.936,7.882-1.936c9.367,0,16.987,7.616,16.987,16.977
		c0,1.579-0.212,3.122-0.636,4.605C246.636,330.418,239.911,335.509,232.328,335.509z M343.381,335.509
		c-7.583,0-14.308-5.091-16.356-12.4c-0.419-1.465-0.631-3.008-0.631-4.587c0-9.361,7.62-16.977,16.987-16.977
		c0.344,0,0.685,0.01,1.024,0.03c0.114,0.007,0.226,0.02,0.339,0.029c0.225,0.017,0.45,0.033,0.672,0.06
		c0.132,0.015,0.261,0.039,0.392,0.057c0.202,0.029,0.404,0.055,0.604,0.09c0.14,0.025,0.278,0.057,0.417,0.086
		c0.188,0.038,0.377,0.075,0.563,0.12c0.145,0.035,0.287,0.077,0.431,0.116c0.178,0.048,0.357,0.094,0.533,0.148
		c0.147,0.045,0.293,0.097,0.439,0.146c0.169,0.057,0.339,0.112,0.507,0.175c0.149,0.056,0.297,0.118,0.444,0.178
		c0.161,0.066,0.323,0.13,0.483,0.2c0.152,0.067,0.302,0.141,0.452,0.213c0.145,0.069,0.29,0.138,0.433,0.211
		c0.047,0.027,0.093,0.054,0.141,0.079c5.613,2.937,9.101,8.699,9.101,15.038C360.357,327.889,352.742,335.509,343.381,335.509z
		 M341.675,293.604c-0.151,0.01-0.3,0.029-0.451,0.042c-0.191,0.016-0.382,0.032-0.572,0.053c-0.221,0.024-0.441,0.054-0.66,0.084
		c-0.188,0.026-0.376,0.05-0.562,0.079c-0.219,0.035-0.436,0.076-0.653,0.117c-0.184,0.034-0.368,0.067-0.55,0.105
		c-0.218,0.046-0.432,0.098-0.648,0.15c-0.178,0.042-0.358,0.082-0.534,0.129c-0.217,0.057-0.43,0.121-0.645,0.183
		c-0.172,0.05-0.345,0.097-0.515,0.151c-0.216,0.068-0.429,0.144-0.643,0.218c-0.165,0.057-0.331,0.11-0.495,0.17
		c-0.22,0.081-0.435,0.17-0.652,0.258c-0.153,0.061-0.308,0.119-0.459,0.183c-0.274,0.116-0.543,0.242-0.812,0.368
		c-0.194,0.091-0.386,0.184-0.577,0.28c-0.247,0.123-0.494,0.246-0.737,0.378c-0.156,0.084-0.307,0.175-0.46,0.263
		c-0.189,0.107-0.379,0.212-0.564,0.325c-0.16,0.097-0.315,0.2-0.473,0.3c-0.175,0.111-0.351,0.22-0.522,0.335
		c-0.158,0.106-0.311,0.217-0.466,0.326c-0.166,0.117-0.333,0.232-0.495,0.352c-0.154,0.114-0.304,0.234-0.456,0.352
		c-0.158,0.123-0.317,0.245-0.473,0.371c-0.15,0.122-0.296,0.249-0.443,0.375c-0.15,0.129-0.301,0.256-0.448,0.388
		c-0.146,0.131-0.287,0.265-0.43,0.399c-0.143,0.134-0.286,0.268-0.426,0.406c-0.139,0.137-0.275,0.277-0.411,0.417
		c-0.137,0.141-0.274,0.283-0.407,0.427c-0.132,0.143-0.26,0.288-0.389,0.434c-0.131,0.148-0.261,0.297-0.389,0.448
		c-0.125,0.149-0.247,0.299-0.369,0.451c-0.124,0.154-0.247,0.309-0.367,0.467c-0.118,0.154-0.233,0.31-0.348,0.467
		c-0.117,0.16-0.232,0.322-0.345,0.485c-0.111,0.16-0.219,0.321-0.326,0.483c-0.109,0.166-0.217,0.333-0.322,0.502
		c-0.103,0.165-0.204,0.33-0.303,0.497c-0.103,0.173-0.203,0.347-0.301,0.523c-0.094,0.168-0.188,0.337-0.278,0.507
		c-0.095,0.179-0.187,0.359-0.278,0.541c-0.086,0.173-0.172,0.345-0.254,0.52c-0.087,0.184-0.17,0.37-0.252,0.557
		c-0.078,0.176-0.155,0.352-0.229,0.529c-0.079,0.192-0.154,0.386-0.229,0.58c-0.068,0.177-0.137,0.353-0.201,0.532
		c-0.072,0.199-0.138,0.401-0.204,0.603c-0.059,0.178-0.119,0.356-0.174,0.536c-0.063,0.207-0.12,0.415-0.178,0.624
		c-0.05,0.179-0.101,0.358-0.147,0.538c-0.054,0.214-0.101,0.43-0.15,0.646c-0.04,0.179-0.083,0.358-0.119,0.538
		c-0.045,0.224-0.082,0.451-0.121,0.677c-0.03,0.176-0.064,0.35-0.091,0.527c-0.036,0.24-0.063,0.484-0.093,0.726
		c-0.02,0.166-0.044,0.33-0.061,0.497c-0.027,0.276-0.045,0.554-0.063,0.832c-0.009,0.136-0.023,0.271-0.03,0.409
		c-0.021,0.417-0.032,0.836-0.032,1.258c0,0.564,0.019,1.126,0.056,1.685H257.26c0.037-0.559,0.056-1.121,0.056-1.685
		c0-0.422-0.011-0.841-0.032-1.258c-0.007-0.138-0.021-0.274-0.03-0.412c-0.019-0.278-0.036-0.556-0.063-0.831
		c-0.016-0.162-0.04-0.323-0.059-0.484c-0.03-0.247-0.057-0.495-0.094-0.74c-0.026-0.173-0.059-0.344-0.089-0.515
		c-0.04-0.23-0.078-0.462-0.124-0.69c-0.036-0.177-0.078-0.351-0.117-0.526c-0.049-0.221-0.098-0.442-0.153-0.66
		c-0.045-0.177-0.095-0.352-0.144-0.527c-0.059-0.213-0.117-0.425-0.181-0.636c-0.054-0.177-0.113-0.351-0.171-0.526
		c-0.068-0.206-0.135-0.411-0.208-0.615c-0.063-0.175-0.13-0.347-0.197-0.52c-0.077-0.199-0.153-0.397-0.234-0.594
		c-0.072-0.174-0.148-0.345-0.224-0.517c-0.084-0.191-0.169-0.382-0.258-0.571c-0.081-0.171-0.165-0.34-0.249-0.508
		c-0.093-0.186-0.187-0.37-0.284-0.553c-0.088-0.166-0.179-0.331-0.271-0.494c-0.101-0.18-0.204-0.36-0.309-0.537
		c-0.096-0.162-0.194-0.322-0.294-0.482c-0.109-0.175-0.22-0.347-0.333-0.519c-0.104-0.157-0.209-0.313-0.316-0.468
		c-0.117-0.168-0.236-0.335-0.357-0.501c-0.111-0.152-0.223-0.303-0.337-0.453c-0.124-0.162-0.251-0.323-0.379-0.482
		c-0.118-0.147-0.236-0.293-0.358-0.437c-0.132-0.156-0.266-0.31-0.402-0.463c-0.125-0.141-0.249-0.281-0.377-0.419
		c-0.139-0.15-0.28-0.297-0.423-0.443c-0.131-0.135-0.262-0.27-0.396-0.402c-0.146-0.144-0.295-0.283-0.444-0.423
		c-0.137-0.128-0.273-0.257-0.413-0.383c-0.153-0.137-0.309-0.27-0.466-0.403c-0.142-0.121-0.283-0.243-0.427-0.361
		c-0.16-0.131-0.325-0.257-0.488-0.384c-0.147-0.114-0.292-0.229-0.442-0.34c-0.168-0.125-0.34-0.244-0.512-0.364
		c-0.15-0.105-0.298-0.213-0.451-0.315c-0.178-0.12-0.361-0.233-0.543-0.348c-0.151-0.096-0.3-0.194-0.453-0.286
		c-0.191-0.115-0.387-0.224-0.581-0.334c-0.149-0.085-0.295-0.172-0.446-0.254c-0.214-0.116-0.434-0.224-0.652-0.334
		c-0.135-0.068-0.268-0.141-0.405-0.206c-0.354-0.171-0.713-0.333-1.076-0.487c-0.102-0.043-0.206-0.081-0.309-0.122
		c-0.267-0.109-0.533-0.218-0.804-0.317c-0.147-0.054-0.298-0.102-0.447-0.153c-0.229-0.079-0.458-0.161-0.69-0.234
		c-0.163-0.051-0.329-0.095-0.493-0.143c-0.222-0.065-0.444-0.131-0.669-0.19c-0.171-0.045-0.344-0.083-0.517-0.124
		c-0.222-0.053-0.442-0.107-0.666-0.154c-0.178-0.037-0.359-0.068-0.538-0.102c-0.221-0.041-0.442-0.084-0.665-0.119
		c-0.183-0.029-0.368-0.052-0.553-0.077c-0.223-0.03-0.446-0.061-0.671-0.086c-0.186-0.02-0.374-0.035-0.562-0.051
		c-0.162-0.014-0.323-0.033-0.486-0.044c3.898-2.519,8.444-3.868,13.202-3.868h6.078c0.016,0,0.032,0.005,0.048,0.005h69.077
		c0.017,0,0.032-0.005,0.048-0.005h6.075C333.243,289.732,337.801,291.121,341.675,293.604z M266.236,264.444h43.23
		c4.92,0,8.923,4.003,8.923,8.924v8.364h-61.077v-8.364C257.312,268.447,261.315,264.444,266.236,264.444z M209.476,190.508
		c0.918,0,1.843,0.121,2.754,0.365c2.728,0.73,5.007,2.48,6.419,4.925l26.332,45.608c2.914,5.048,1.178,11.526-3.87,14.441
		l-20.401,11.778l-30.386-52.629c-3.594-6.225-1.453-14.213,4.771-17.807l9.112-5.261
		C205.836,190.988,207.644,190.508,209.476,190.508z"/>
	<path class="st0" d="M210.215,236.641c0.751,1.246,2.073,1.935,3.43,1.935c0.703,0,1.415-0.186,2.062-0.575
		c1.892-1.141,2.501-3.599,1.36-5.491l-13.598-22.552c-1.141-1.892-3.598-2.501-5.491-1.36c-1.892,1.141-2.501,3.599-1.36,5.491
		L210.215,236.641z"/>
	<path class="st0" d="M301.83,300.97h-28.285c-2.209,0-4,1.791-4,4s1.791,4,4,4h28.285c2.209,0,4-1.791,4-4
		S304.039,300.97,301.83,300.97z"/>
</g>
</svg>
