<?xml version="1.0" encoding="utf-8"?>
<!-- Generator: Adobe Illustrator 27.0.1, SVG Export Plug-In . SVG Version: 6.00 Build 0)  -->
<svg version="1.1" id="Layer_2" xmlns="http://www.w3.org/2000/svg" xmlns:xlink="http://www.w3.org/1999/xlink" x="0px" y="0px"
	 viewBox="0 0 512 512" style="enable-background:new 0 0 512 512;" xml:space="preserve">
<style type="text/css">
	.st0{fill:#FFFFFF;}
</style>
<g>
	<path class="st0" d="M356.717,202.604c2.769-0.822,5.054-2.674,6.436-5.214c0.002-0.003,0.004-0.007,0.006-0.011
		c1.378-2.552,1.685-5.479,0.863-8.244c-0.827-2.772-2.684-5.06-5.227-6.439c-2.549-1.384-5.479-1.689-8.242-0.861l-195.28,57.853
		c-5.719,1.711-8.993,7.753-7.296,13.477c1.362,4.561,5.635,7.745,10.393,7.745c0.993,0,2.009-0.144,3.077-0.444l10.993-3.257v29.85
		h-14.075c-2.209,0-4,1.791-4,4v15.369c0,2.209,1.791,4,4,4h4.435v16.19c0,2.209,1.791,4,4,4h176.594c2.209,0,4-1.791,4-4V264.32
		h6.241c2.209,0,4-1.791,4-4v-15.368c0-2.209-1.791-4-4-4h-14.074v-33.264L356.717,202.604z M159.228,252.778
		c-0.309,0.087-0.597,0.131-0.859,0.131c-1.229,0-2.375-0.855-2.725-2.026c-0.444-1.497,0.418-3.081,1.911-3.528l195.28-57.853
		c0.264-0.079,0.534-0.118,0.803-0.118c0.462,0,0.921,0.116,1.342,0.344c0.669,0.363,1.158,0.966,1.375,1.691
		c0.216,0.727,0.135,1.474-0.234,2.158c-0.368,0.672-0.949,1.141-1.677,1.357l-20,5.926c-0.007,0.002-0.014,0.002-0.021,0.004
		l-12.66,3.75c-0.015,0.004-0.028,0.012-0.042,0.016l-84.91,25.159c-0.009,0.003-0.019,0.002-0.028,0.005l-12.65,3.75
		c-0.007,0.002-0.013,0.006-0.02,0.008l-42.792,12.68l-6.018,1.782c-0.002,0.001-0.004,0.002-0.007,0.003L159.228,252.778z
		 M221.269,242.739v28.951H207.18c-2.209,0-4,1.791-4,4v11.368h-10.081v-35.972L221.269,242.739z M233.919,238.99v32.699h-4.65
		v-31.321L233.919,238.99z M211.18,279.689h14.089h12.65h14.083v7.368H211.18V279.689z M300.818,264.32v7.369h-40.815v-7.369
		H300.818z M282.739,256.319h-4.66v-30.412l4.66-1.381V256.319z M270.079,256.32h-14.077c-2.209,0-4,1.791-4,4v11.369h-10.083
		V236.62l28.16-8.344V256.32z M180.439,254.837l4.66-1.381v33.601h-4.66V254.837z M162.364,295.058h14.055
		c0.007,0,0.013,0.002,0.019,0.002h12.66c0.007,0,0.013-0.002,0.019-0.002h14.061v7.369h-36.381h-4.435V295.058z M339.393,322.617
		H170.799v-12.19h36.381c2.209,0,4-1.791,4-4v-11.369h44.823c2.209,0,4-1.791,4-4v-11.368h44.815c2.209,0,4-1.791,4-4V264.32h30.575
		V322.617z M349.633,256.32h-6.241h-34.575v-7.368h40.815V256.32z M304.818,240.952c-2.209,0-4,1.791-4,4v11.368h-10.079v-34.166
		l28.16-8.344v27.142H304.818z M331.559,240.949h-4.66V211.44l4.66-1.381V240.949z"/>
</g>
</svg>
