<?xml version="1.0" encoding="utf-8"?>
<!-- Generator: Adobe Illustrator 27.0.1, SVG Export Plug-In . SVG Version: 6.00 Build 0)  -->
<svg version="1.1" id="Layer_2" xmlns="http://www.w3.org/2000/svg" xmlns:xlink="http://www.w3.org/1999/xlink" x="0px" y="0px"
	 viewBox="0 0 512 512" style="enable-background:new 0 0 512 512;" xml:space="preserve">
<style type="text/css">
	.st0{fill:#FFFFFF;}
</style>
<g>
	<path class="st0" d="M276.388,159.292c-0.326-5.965-5.268-10.721-11.312-10.721h-18.151c-6.046,0-10.989,4.759-11.312,10.726
		c-25.288,8.64-42.677,32.705-42.677,59.683v16.01c0,0.002,0,0.005,0,0.007c0,0.128,0.006,0.256,0.019,0.384v0
		c0.014,0.347,0.047,0.689,0.099,1.026l10.323,107.848c-0.011,0.185-0.013,0.345-0.013,0.472c0,12.849,27.286,18.702,52.639,18.702
		s52.639-5.853,52.639-18.702c0-0.127-0.002-0.288-0.013-0.472l10.323-107.848c0.052-0.337,0.084-0.679,0.099-1.026v0
		c0.012-0.127,0.019-0.256,0.019-0.384c0-0.002,0-0.005,0-0.007v-16.01C319.065,192.051,301.66,167.93,276.388,159.292z
		 M256,266.804c-30.364,0-49.966-6.97-53.175-12.252l-0.723-7.554c0.268,0.15,0.546,0.296,0.823,0.443
		c0.079,0.042,0.155,0.085,0.235,0.126c0.493,0.256,1.002,0.506,1.524,0.751c0.128,0.06,0.26,0.119,0.39,0.178
		c0.426,0.196,0.861,0.387,1.304,0.576c0.135,0.057,0.269,0.115,0.405,0.172c0.558,0.231,1.126,0.458,1.709,0.678
		c0.086,0.032,0.175,0.063,0.261,0.096c0.51,0.19,1.031,0.376,1.559,0.558c0.163,0.056,0.326,0.112,0.491,0.167
		c0.569,0.191,1.145,0.379,1.733,0.561c0.052,0.016,0.102,0.033,0.154,0.049c0.639,0.196,1.292,0.386,1.952,0.571
		c0.17,0.048,0.342,0.094,0.513,0.142c0.541,0.149,1.089,0.294,1.643,0.435c0.147,0.038,0.292,0.076,0.44,0.113
		c0.681,0.171,1.371,0.336,2.071,0.496c0.142,0.033,0.287,0.064,0.431,0.096c0.582,0.131,1.169,0.258,1.761,0.381
		c0.187,0.039,0.374,0.078,0.562,0.116c0.725,0.147,1.455,0.292,2.194,0.428c0.021,0.004,0.042,0.007,0.062,0.011
		c0.719,0.133,1.447,0.259,2.178,0.382c0.201,0.034,0.404,0.067,0.606,0.1c0.635,0.104,1.274,0.204,1.917,0.3
		c0.132,0.02,0.263,0.041,0.396,0.06c0.764,0.112,1.533,0.219,2.307,0.321c0.181,0.024,0.364,0.046,0.545,0.07
		c0.625,0.08,1.252,0.157,1.883,0.231c0.199,0.023,0.397,0.047,0.596,0.069c0.782,0.089,1.566,0.173,2.355,0.251
		c0.109,0.011,0.219,0.02,0.328,0.031c0.693,0.068,1.387,0.131,2.084,0.191c0.218,0.019,0.436,0.037,0.654,0.055
		c0.714,0.059,1.428,0.114,2.145,0.164c0.091,0.006,0.181,0.014,0.272,0.02c0.798,0.055,1.598,0.104,2.398,0.149
		c0.213,0.012,0.426,0.023,0.64,0.034c0.638,0.034,1.277,0.065,1.915,0.092c0.192,0.008,0.385,0.017,0.577,0.025
		c0.796,0.032,1.593,0.06,2.388,0.082c0.161,0.005,0.322,0.008,0.484,0.012c0.654,0.017,1.308,0.03,1.96,0.041
		c0.224,0.003,0.447,0.007,0.671,0.01c0.797,0.01,1.592,0.016,2.384,0.016s1.588-0.007,2.384-0.016
		c0.223-0.003,0.447-0.006,0.671-0.01c0.653-0.01,1.306-0.024,1.96-0.041c0.161-0.004,0.322-0.007,0.484-0.012
		c0.795-0.022,1.591-0.05,2.388-0.082c0.192-0.008,0.385-0.017,0.577-0.025c0.638-0.028,1.277-0.058,1.915-0.092
		c0.213-0.011,0.426-0.022,0.64-0.034c0.8-0.045,1.599-0.094,2.398-0.149c0.091-0.006,0.182-0.014,0.272-0.02
		c0.716-0.051,1.431-0.106,2.145-0.164c0.219-0.018,0.436-0.036,0.654-0.055c0.696-0.06,1.39-0.123,2.082-0.19
		c0.11-0.011,0.22-0.02,0.33-0.031c0.788-0.078,1.573-0.163,2.354-0.251c0.199-0.023,0.397-0.046,0.596-0.069
		c0.63-0.073,1.258-0.151,1.883-0.231c0.182-0.023,0.364-0.046,0.545-0.07c0.774-0.102,1.543-0.209,2.307-0.321
		c0.133-0.02,0.264-0.04,0.396-0.06c0.643-0.096,1.282-0.197,1.917-0.3c0.202-0.033,0.404-0.066,0.606-0.1
		c0.732-0.123,1.459-0.249,2.178-0.382c0.021-0.004,0.042-0.007,0.062-0.011c0.74-0.137,1.469-0.281,2.194-0.428
		c0.188-0.038,0.375-0.077,0.562-0.116c0.593-0.124,1.18-0.251,1.761-0.381c0.143-0.032,0.288-0.063,0.431-0.096
		c0.699-0.16,1.389-0.326,2.071-0.496c0.148-0.037,0.293-0.075,0.44-0.113c0.554-0.141,1.101-0.287,1.643-0.435
		c0.171-0.047,0.343-0.094,0.513-0.142c0.66-0.185,1.313-0.375,1.952-0.571c0.052-0.016,0.102-0.033,0.154-0.049
		c0.588-0.182,1.164-0.369,1.733-0.561c0.165-0.055,0.328-0.111,0.491-0.167c0.529-0.182,1.049-0.368,1.559-0.558
		c0.086-0.032,0.175-0.063,0.261-0.096c0.583-0.22,1.152-0.447,1.709-0.678c0.137-0.057,0.27-0.115,0.405-0.172
		c0.444-0.188,0.878-0.38,1.304-0.576c0.13-0.06,0.261-0.118,0.39-0.178c0.522-0.245,1.031-0.495,1.524-0.751
		c0.08-0.042,0.156-0.085,0.235-0.126c0.277-0.147,0.556-0.293,0.823-0.443l-0.723,7.554
		C305.966,259.835,286.364,266.804,256,266.804z M311.011,235.367c-0.017,0.074-0.042,0.149-0.067,0.225
		c-0.025,0.076-0.048,0.152-0.082,0.23c-0.035,0.081-0.081,0.165-0.125,0.248c-0.042,0.08-0.083,0.159-0.134,0.24
		c-0.053,0.084-0.116,0.17-0.178,0.256c-0.06,0.083-0.117,0.165-0.186,0.249c-0.07,0.086-0.151,0.174-0.23,0.262
		c-0.077,0.086-0.152,0.171-0.238,0.258c-0.088,0.089-0.186,0.179-0.282,0.268c-0.095,0.088-0.187,0.176-0.29,0.265
		c-0.105,0.09-0.221,0.182-0.334,0.273c-0.112,0.09-0.222,0.18-0.342,0.271c-0.122,0.092-0.255,0.184-0.385,0.277
		c-0.129,0.091-0.255,0.183-0.393,0.275c-0.14,0.093-0.291,0.187-0.439,0.281c-0.146,0.092-0.289,0.185-0.443,0.277
		c-0.156,0.094-0.324,0.188-0.49,0.282c-0.163,0.093-0.323,0.186-0.495,0.28c-0.174,0.094-0.359,0.189-0.541,0.283
		c-0.18,0.094-0.357,0.187-0.546,0.281c-0.191,0.094-0.394,0.189-0.593,0.283c-0.196,0.093-0.389,0.186-0.594,0.279
		c-0.209,0.095-0.43,0.189-0.647,0.283c-0.213,0.092-0.421,0.185-0.642,0.277c-0.227,0.094-0.466,0.188-0.702,0.282
		c-0.228,0.091-0.451,0.182-0.686,0.272c-0.245,0.094-0.503,0.187-0.757,0.28c-0.243,0.089-0.482,0.179-0.733,0.267
		c-0.262,0.092-0.537,0.183-0.808,0.275c-0.259,0.088-0.514,0.176-0.781,0.262c-0.281,0.091-0.574,0.18-0.864,0.27
		c-0.274,0.085-0.543,0.171-0.825,0.255c-0.299,0.089-0.612,0.177-0.92,0.265c-0.288,0.082-0.571,0.165-0.867,0.246
		c-0.319,0.087-0.651,0.172-0.978,0.258c-0.302,0.079-0.598,0.159-0.908,0.236c-0.336,0.084-0.685,0.166-1.03,0.248
		c-0.318,0.076-0.63,0.153-0.955,0.228c-0.35,0.08-0.714,0.157-1.072,0.235c-0.336,0.073-0.667,0.148-1.01,0.219
		c-0.365,0.076-0.744,0.148-1.117,0.222c-0.354,0.07-0.701,0.141-1.062,0.209c-0.386,0.073-0.786,0.141-1.18,0.211
		c-0.364,0.065-0.721,0.131-1.092,0.193c-0.412,0.069-0.838,0.135-1.259,0.202c-0.37,0.059-0.734,0.119-1.111,0.176
		c-0.427,0.064-0.868,0.123-1.304,0.185c-0.388,0.054-0.77,0.111-1.165,0.163c-0.444,0.059-0.903,0.112-1.356,0.167
		c-0.401,0.049-0.796,0.101-1.204,0.147c-0.467,0.053-0.948,0.101-1.424,0.151c-0.411,0.043-0.816,0.089-1.234,0.13
		c-0.499,0.048-1.014,0.091-1.523,0.135c-0.409,0.036-0.81,0.075-1.225,0.108c-0.526,0.042-1.067,0.078-1.603,0.116
		c-0.416,0.029-0.824,0.062-1.245,0.089c-0.53,0.034-1.076,0.06-1.616,0.09c-0.442,0.024-0.877,0.052-1.325,0.073
		c-0.572,0.027-1.16,0.047-1.743,0.069c-0.43,0.016-0.851,0.037-1.287,0.05c-0.667,0.021-1.351,0.033-2.031,0.048
		c-0.366,0.008-0.724,0.02-1.093,0.026c-1.057,0.016-2.128,0.025-3.216,0.025s-2.159-0.009-3.216-0.025
		c-0.37-0.006-0.727-0.018-1.093-0.026c-0.68-0.014-1.364-0.027-2.031-0.048c-0.435-0.014-0.857-0.034-1.287-0.05
		c-0.583-0.022-1.17-0.042-1.743-0.069c-0.449-0.021-0.883-0.049-1.325-0.073c-0.54-0.03-1.086-0.056-1.616-0.09
		c-0.422-0.027-0.83-0.06-1.245-0.089c-0.536-0.038-1.077-0.073-1.603-0.116c-0.415-0.033-0.816-0.072-1.225-0.108
		c-0.509-0.045-1.024-0.087-1.523-0.135c-0.418-0.041-0.823-0.086-1.234-0.13c-0.476-0.05-0.957-0.098-1.424-0.151
		c-0.408-0.047-0.803-0.098-1.204-0.147c-0.453-0.055-0.912-0.109-1.356-0.167c-0.395-0.052-0.777-0.109-1.165-0.163
		c-0.436-0.061-0.877-0.121-1.304-0.185c-0.377-0.057-0.741-0.117-1.111-0.176c-0.421-0.067-0.847-0.132-1.259-0.202
		c-0.371-0.063-0.728-0.129-1.092-0.193c-0.395-0.07-0.795-0.139-1.18-0.211c-0.361-0.068-0.709-0.139-1.062-0.209
		c-0.374-0.074-0.752-0.146-1.117-0.222c-0.344-0.071-0.674-0.146-1.01-0.219c-0.359-0.078-0.722-0.155-1.072-0.235
		c-0.325-0.074-0.637-0.152-0.955-0.228c-0.345-0.083-0.694-0.164-1.03-0.248c-0.309-0.078-0.606-0.157-0.908-0.236
		c-0.327-0.086-0.659-0.171-0.978-0.258c-0.296-0.081-0.579-0.164-0.867-0.246c-0.308-0.088-0.621-0.175-0.92-0.265
		c-0.282-0.084-0.551-0.17-0.825-0.255c-0.289-0.09-0.583-0.179-0.864-0.27c-0.267-0.087-0.522-0.175-0.781-0.262
		c-0.271-0.092-0.546-0.182-0.808-0.275c-0.251-0.089-0.49-0.178-0.733-0.267c-0.254-0.093-0.512-0.186-0.757-0.28
		c-0.235-0.09-0.459-0.181-0.686-0.272c-0.236-0.094-0.475-0.188-0.702-0.282c-0.221-0.092-0.429-0.184-0.642-0.277
		c-0.217-0.094-0.438-0.188-0.647-0.283c-0.205-0.093-0.398-0.186-0.594-0.279c-0.199-0.094-0.402-0.189-0.593-0.283
		c-0.189-0.094-0.366-0.187-0.546-0.281c-0.182-0.094-0.367-0.189-0.541-0.283c-0.172-0.093-0.332-0.186-0.495-0.28
		c-0.165-0.094-0.333-0.188-0.49-0.282c-0.154-0.093-0.297-0.185-0.443-0.277c-0.148-0.094-0.3-0.188-0.439-0.281
		c-0.138-0.092-0.264-0.183-0.393-0.275c-0.13-0.092-0.264-0.185-0.385-0.277c-0.121-0.091-0.23-0.181-0.342-0.271
		c-0.114-0.091-0.23-0.183-0.334-0.273c-0.103-0.089-0.195-0.177-0.29-0.265c-0.096-0.09-0.195-0.18-0.282-0.268
		c-0.086-0.087-0.161-0.172-0.238-0.258c-0.079-0.088-0.16-0.176-0.23-0.262c-0.068-0.084-0.126-0.167-0.186-0.249
		c-0.062-0.086-0.125-0.172-0.178-0.256c-0.051-0.081-0.091-0.16-0.134-0.24c-0.044-0.083-0.09-0.166-0.125-0.248
		c-0.033-0.078-0.057-0.154-0.082-0.23c-0.025-0.075-0.05-0.151-0.067-0.225l-0.049-0.507c0.369-4.738,19.772-13.711,55.06-13.711
		s54.691,8.973,55.06,13.711L311.011,235.367z M246.924,156.571h18.151c1.844,0,3.344,1.5,3.344,3.344
		c0,1.844-1.5,3.344-3.344,3.344h-18.151c-1.844,0-3.344-1.5-3.344-3.344C243.581,158.071,245.081,156.571,246.924,156.571z
		 M238.024,166.927c2.079,2.634,5.292,4.333,8.9,4.333h18.151c3.609,0,6.823-1.7,8.902-4.335
		c21.97,7.593,37.088,28.603,37.088,52.056v4.795c-11.387-7.007-33.314-10.626-55.065-10.626s-43.677,3.619-55.065,10.626v-4.795
		C200.935,195.484,216.039,174.52,238.024,166.927z M300.626,343.869c-0.012,0.126-0.018,0.253-0.018,0.381v0.006
		c0,0.165,0.01,0.33,0.03,0.493c-0.07,3.213-15.255,10.679-44.638,10.679c-29.329,0-44.512-7.439-44.638-10.686
		c0.02-0.163,0.03-0.33,0.03-0.493c0-0.127-0.006-0.254-0.018-0.381l-7.513-78.497c11.928,6.43,33.214,9.432,52.139,9.432
		s40.211-3.002,52.139-9.432L300.626,343.869z"/>
</g>
</svg>
