<?xml version="1.0" encoding="utf-8"?>
<!-- Generator: Adobe Illustrator 27.0.1, SVG Export Plug-In . SVG Version: 6.00 Build 0)  -->
<svg version="1.1" id="Layer_2" xmlns="http://www.w3.org/2000/svg" xmlns:xlink="http://www.w3.org/1999/xlink" x="0px" y="0px"
	 viewBox="0 0 512 512" style="enable-background:new 0 0 512 512;" xml:space="preserve">
<style type="text/css">
	.st0{fill:#FFFFFF;}
</style>
<g>
	<path class="st0" d="M152.115,301.657v-13.705h34.752v13.705c0,6.854,5.576,12.429,12.43,12.429s12.429-5.576,12.429-12.429
		v-43.394c0-6.854-5.575-12.429-12.429-12.429h-47.182v-42.08c0-6.854-5.576-12.429-12.43-12.429s-12.43,5.576-12.43,12.429v97.902
		c0,6.854,5.576,12.429,12.43,12.429S152.115,308.51,152.115,301.657z M152.115,279.952v-9.26h34.752v9.26H152.115z
		 M144.115,301.657c0,2.442-1.987,4.429-4.43,4.429s-4.43-1.987-4.43-4.429v-97.902c0-2.442,1.987-4.429,4.43-4.429
		s4.43,1.987,4.43,4.429v46.08c0,2.209,1.791,4,4,4h51.182c2.442,0,4.429,1.987,4.429,4.429v43.394c0,2.442-1.986,4.429-4.429,4.429
		s-4.43-1.987-4.43-4.429v-34.964c0-2.209-1.791-4-4-4h-42.752c-2.209,0-4,1.791-4,4V301.657z"/>
	<path class="st0" d="M372.314,191.325c-6.854,0-12.43,5.576-12.43,12.429v42.08h-47.182c-6.854,0-12.429,5.576-12.429,12.429
		v43.394c0,6.854,5.575,12.429,12.429,12.429s12.43-5.576,12.43-12.429v-13.705h34.752v13.705c0,6.854,5.576,12.429,12.43,12.429
		s12.43-5.576,12.43-12.429v-97.902C384.744,196.901,379.168,191.325,372.314,191.325z M325.133,279.952v-9.26h34.752v9.26H325.133z
		 M376.744,301.657c0,2.442-1.987,4.429-4.43,4.429s-4.43-1.987-4.43-4.429v-34.964c0-2.209-1.791-4-4-4h-42.752
		c-2.209,0-4,1.791-4,4v34.964c0,2.442-1.987,4.429-4.43,4.429s-4.429-1.987-4.429-4.429v-43.394c0-2.442,1.986-4.429,4.429-4.429
		h51.182c2.209,0,4-1.791,4-4v-46.08c0-2.442,1.987-4.429,4.43-4.429s4.43,1.987,4.43,4.429V301.657z"/>
	<path class="st0" d="M294.569,248.813c5.705,0,10.347-4.641,10.347-10.346v-3.802c0-5.705-4.642-10.346-10.347-10.346h-25.418
		v-13.308c0-5.136-4.069-9.328-9.151-9.55v-6.393c4.946-1.778,8.5-6.502,8.5-12.054c0-1.165-0.157-2.32-0.466-3.431
		c-0.268-0.967-0.651-1.904-1.141-2.785c-0.015-0.028-0.03-0.055-0.046-0.083l-7.701-13.337c-0.714-1.238-2.035-2-3.464-2
		s-2.749,0.762-3.464,2l-7.707,13.349c-0.013,0.022-0.025,0.044-0.038,0.066c-0.491,0.884-0.876,1.823-1.143,2.787
		c-0.31,1.114-0.467,2.269-0.467,3.434c0,5.788,3.858,10.686,9.136,12.273v6.174c-5.082,0.222-9.151,4.414-9.151,9.55v13.308
		h-25.418c-5.705,0-10.347,4.641-10.347,10.346v3.802c0,5.705,4.642,10.346,10.347,10.346h22.873l5.177,57.272h-10.193
		c-2.209,0-4,1.791-4,4s1.791,4,4,4h14.57h12.283h14.57c2.209,0,4-1.791,4-4s-1.791-4-4-4h-10.193l5.177-57.272H294.569z
		 M251.039,181.721c0.1-0.358,0.243-0.708,0.428-1.04l4.216-7.302l4.22,7.31c0.182,0.328,0.323,0.675,0.424,1.036
		c0.115,0.416,0.174,0.851,0.174,1.292c0,2.657-2.161,4.818-4.817,4.818c-2.657,0-4.818-2.161-4.818-4.818
		C250.864,182.574,250.923,182.14,251.039,181.721z M250.849,211.012c0-0.866,0.705-1.571,1.571-1.571h7.16
		c0.866,0,1.571,0.705,1.571,1.571v13.308h-10.303V211.012z M215.084,238.467v-3.802c0-1.294,1.053-2.346,2.347-2.346h29.418h18.303
		h29.418c1.294,0,2.347,1.052,2.347,2.346v3.802c0,1.294-1.053,2.346-2.347,2.346h-26.527h-24.084h-26.527
		C216.137,240.813,215.084,239.761,215.084,238.467z M258.487,306.086h-4.975l-5.177-57.272h15.328L258.487,306.086z"/>
</g>
</svg>
