<?xml version="1.0" encoding="utf-8"?>
<!-- Generator: Adobe Illustrator 27.0.1, SVG Export Plug-In . SVG Version: 6.00 Build 0)  -->
<svg version="1.1" id="Layer_2" xmlns="http://www.w3.org/2000/svg" xmlns:xlink="http://www.w3.org/1999/xlink" x="0px" y="0px"
	 viewBox="0 0 512 512" style="enable-background:new 0 0 512 512;" xml:space="preserve">
<style type="text/css">
	.st0{fill:#FFFFFF;}
</style>
<g>
	<path class="st0" d="M216.344,322.912c1.909,0,3.831-0.156,5.75-0.446l26.486,39.578c2.03,3.038,5.279,4.984,8.913,5.342
		c0.402,0.04,0.803,0.059,1.202,0.059c3.21,0,6.288-1.266,8.588-3.566l8.165-8.165c4.089-4.089,4.727-10.546,1.514-15.355
		l-24.92-37.247l37.151-37.151c2.373-2.374,3.681-5.53,3.681-8.889c0-3.066-1.1-5.956-3.094-8.243l8.325-8.325
		c2.229-2.229,3.457-5.192,3.457-8.345c0-1.89-0.45-3.708-1.284-5.345l10.201-10.201c2.229-2.229,3.457-5.192,3.457-8.345
		s-1.228-6.116-3.457-8.344l-1.841-1.841l29.149-29.149c1.562-1.562,1.562-4.095,0-5.657c-1.562-1.562-4.096-1.562-5.656,0
		l-29.149,29.149l-1.841-1.841c0,0,0,0,0,0c-4.602-4.601-12.087-4.6-16.688,0l-10.201,10.202c-1.636-0.834-3.455-1.284-5.345-1.284
		c-3.152,0-6.115,1.228-8.344,3.456l-8.326,8.326c-2.287-1.994-5.176-3.093-8.24-3.094c-0.002,0-0.003,0-0.004,0
		c-3.358,0-6.515,1.307-8.887,3.679l-45.729,45.729c-7.227,7.226-11.206,16.832-11.206,27.048c0,10.216,3.979,19.821,11.206,27.048
		C196.656,318.976,206.327,322.912,216.344,322.912z M270.312,344.805c1.098,1.644,0.88,3.854-0.52,5.252l-8.165,8.165
		c-0.887,0.887-2.118,1.322-3.351,1.202c-1.241-0.122-2.352-0.788-3.047-1.828l-24.956-37.292c0.693-0.269,1.374-0.563,2.049-0.872
		c0.181-0.083,0.358-0.173,0.537-0.259c0.56-0.267,1.113-0.546,1.658-0.84c0.213-0.114,0.425-0.229,0.635-0.347
		c0.606-0.341,1.204-0.698,1.791-1.072c0.094-0.06,0.191-0.114,0.284-0.175c0.67-0.435,1.324-0.896,1.967-1.373
		c0.179-0.133,0.354-0.272,0.53-0.408c0.482-0.371,0.956-0.754,1.422-1.149c0.18-0.153,0.361-0.304,0.539-0.461
		c0.607-0.535,1.204-1.083,1.779-1.658l2.811-2.811L270.312,344.805z M290.108,196.244c1.483-1.482,3.895-1.48,5.376,0l9.338,9.339
		c0.718,0.717,1.113,1.671,1.113,2.687s-0.396,1.97-1.113,2.688l-9.788,9.789l-14.713-14.714L290.108,196.244z M266.219,208.618
		c1.434-1.436,3.939-1.436,5.373,0c0.001,0,0.001,0,0.001,0l20.855,20.855c0.718,0.718,1.113,1.672,1.113,2.687
		c0,1.015-0.396,1.97-1.113,2.688l-8.294,8.294l-26.229-26.23L266.219,208.618z M195.032,263.258l45.729-45.729
		c0.862-0.862,2.009-1.336,3.23-1.336h0.001c1.224,0,2.373,0.477,3.237,1.342c0,0,0.001,0,0.001,0l36.307,36.306
		c0.862,0.862,1.337,2.01,1.337,3.232s-0.475,2.37-1.337,3.232l-39.474,39.474l-6.255,6.255c-1.015,1.015-2.094,1.951-3.229,2.805
		c-1.703,1.281-3.532,2.375-5.458,3.267c-1.926,0.892-3.95,1.582-6.041,2.053c-10.184,2.294-20.669-0.741-28.048-8.12
		c-5.715-5.715-8.862-13.312-8.862-21.391S189.317,268.973,195.032,263.258z"/>
	<path class="st0" d="M210.684,281.886c1.023,0,2.048-0.391,2.828-1.171l9.272-9.272c1.562-1.562,1.562-4.095,0-5.657
		c-1.561-1.562-4.096-1.562-5.656,0l-9.272,9.272c-1.562,1.562-1.562,4.095,0,5.657C208.636,281.495,209.66,281.886,210.684,281.886
		z"/>
	<path class="st0" d="M220.353,293.21c0.78,0.781,1.805,1.172,2.828,1.172s2.048-0.391,2.828-1.171l9.272-9.272
		c1.562-1.562,1.562-4.095,0-5.657c-1.561-1.562-4.096-1.562-5.656,0l-9.272,9.272C218.79,289.116,218.79,291.648,220.353,293.21z"
		/>
</g>
</svg>
