<?xml version="1.0" encoding="utf-8"?>
<!-- Generator: Adobe Illustrator 27.0.1, SVG Export Plug-In . SVG Version: 6.00 Build 0)  -->
<svg version="1.1" id="Layer_2" xmlns="http://www.w3.org/2000/svg" xmlns:xlink="http://www.w3.org/1999/xlink" x="0px" y="0px"
	 viewBox="0 0 512 512" style="enable-background:new 0 0 512 512;" xml:space="preserve">
<style type="text/css">
	.st0{fill:#FFFFFF;}
</style>
<g>
	<path class="st0" d="M165.238,208.353v120.769c0,2.763,2.248,5.011,5.01,5.011h120.769c2.763,0,5.011-2.248,5.011-5.011v-80.72
		l46.633-46.634c5.458-5.458,5.458-14.34,0-19.799c-2.645-2.644-6.16-4.1-9.9-4.1s-7.255,1.456-9.9,4.1l-26.833,26.834v-0.449
		c0-2.763-2.248-5.01-5.011-5.01H170.249C167.486,203.342,165.238,205.59,165.238,208.353z M328.519,187.625
		c2.34-2.34,6.146-2.339,8.485,0c2.339,2.34,2.339,6.146,0,8.486L235.8,297.316c-1.208,1.208-2.896,1.863-4.632,1.745
		c-1.723-0.112-3.314-0.961-4.367-2.329l-26.426-34.354c-2.017-2.622-1.525-6.397,1.097-8.414c1.06-0.815,2.332-1.246,3.647-1.246
		c0.261,0,0.524,0.017,0.788,0.052c1.589,0.207,3.002,1.021,3.979,2.292l19.482,25.326c0.702,0.912,1.763,1.478,2.911,1.553
		c1.149,0.074,2.274-0.349,3.088-1.163L328.519,187.625z M173.238,211.342h114.79v3.821v1.639l-55.096,55.097l-16.704-21.715
		c-2.28-2.964-5.578-4.863-9.286-5.347c-3.709-0.483-7.382,0.506-10.347,2.786c-6.119,4.707-7.268,13.514-2.561,19.633
		l26.426,34.354c2.456,3.192,6.17,5.173,10.188,5.435c0.304,0.02,0.606,0.029,0.909,0.029c3.739,0,7.254-1.456,9.899-4.1
		l46.572-46.572v69.731h-114.79V211.342z"/>
</g>
</svg>
