<?xml version="1.0" encoding="utf-8"?>
<!-- Generator: Adobe Illustrator 27.0.1, SVG Export Plug-In . SVG Version: 6.00 Build 0)  -->
<svg version="1.1" id="Layer_2" xmlns="http://www.w3.org/2000/svg" xmlns:xlink="http://www.w3.org/1999/xlink" x="0px" y="0px"
	 viewBox="0 0 512 512" style="enable-background:new 0 0 512 512;" xml:space="preserve">
<style type="text/css">
	.st0{fill:#FFFFFF;}
</style>
<g>
	<path class="st0" d="M194.295,345.881c2.308,2.308,5.452,3.603,8.702,3.603c0.189,0,0.381-0.004,0.571-0.014
		c3.45-0.161,6.692-1.779,8.896-4.438l52.945-63.878c1.317-1.59,1.208-3.921-0.252-5.381l-1.729-1.729l37.707-37.708l1.515,1.515
		l17.752,24.197c2.87,3.911,7.29,6.366,12.127,6.735c0.424,0.033,0.848,0.049,1.27,0.049c4.389,0,8.608-1.736,11.737-4.865
		l20.346-20.346c3.431-3.43,5.186-8.172,4.816-13.008c-0.369-4.837-2.824-9.256-6.735-12.125l-24.196-17.751l-35.786-35.785
		c-20.356-20.356-41.647-23.503-55.935-22.545c-15.471,1.03-26.07,6.887-26.515,7.136c-1.475,0.827-2.27,2.493-1.986,4.16
		s1.585,2.976,3.25,3.269c44.921,7.904,48.837,47.011,48.982,48.672c0,0.007,0.003,0.013,0.004,0.02
		c0.021,0.24,0.065,0.478,0.129,0.71c0.022,0.08,0.057,0.152,0.084,0.23c0.051,0.148,0.101,0.295,0.17,0.438
		c0.046,0.095,0.104,0.182,0.157,0.273c0.067,0.115,0.132,0.23,0.21,0.338c0.067,0.092,0.143,0.174,0.217,0.26
		c0.063,0.073,0.117,0.153,0.186,0.222l1.729,1.729l-37.708,37.708l-1.73-1.73c-1.46-1.459-3.791-1.569-5.381-0.251l-63.879,52.944
		c-2.659,2.204-4.276,5.447-4.438,8.897c-0.161,3.451,1.146,6.831,3.59,9.273L194.295,345.881z M362.723,231.222
		c0.191,2.507-0.719,4.964-2.496,6.742l-20.346,20.347c-1.778,1.777-4.239,2.681-6.742,2.496c-2.507-0.191-4.797-1.464-6.285-3.491
		l-15.903-21.677l26.604-26.604l21.678,15.904C361.259,226.425,362.531,228.715,362.723,231.222z M305.679,229.564l-1.712-1.712
		c-0.001-0.001-0.001-0.002-0.002-0.002l-20.815-20.816c-0.001-0.001-0.002-0.001-0.003-0.002l-2.22-2.22l20.824-30.778
		l29.591,29.59L305.679,229.564z M236.786,152.339c13.388-3.437,36.686-4.829,59.166,15.99l-18.217,26.924
		c-1.246-4.228-3.235-9.45-6.4-14.886C265.702,170.692,255.332,158.801,236.786,152.339z M280.321,215.52l7.579,7.579l7.58,7.58
		l-37.707,37.708l-15.159-15.159L280.321,215.52z M171.072,304.694l61.074-50.62l1.977,1.977c0.002,0.001,0.003,0.004,0.004,0.005
		l20.816,20.816c0,0,0,0,0,0l1.981,1.981l-50.621,61.074c-0.781,0.943-1.886,1.495-3.11,1.552c-1.237,0.064-2.377-0.389-3.243-1.255
		l-29.176-29.176c-0.866-0.867-1.312-2.019-1.255-3.243C169.577,306.581,170.129,305.477,171.072,304.694z"/>
</g>
</svg>
