<?xml version="1.0" encoding="utf-8"?>
<!-- Generator: Adobe Illustrator 27.0.1, SVG Export Plug-In . SVG Version: 6.00 Build 0)  -->
<svg version="1.1" id="Layer_2" xmlns="http://www.w3.org/2000/svg" xmlns:xlink="http://www.w3.org/1999/xlink" x="0px" y="0px"
	 viewBox="0 0 512 512" style="enable-background:new 0 0 512 512;" xml:space="preserve">
<style type="text/css">
	.st0{fill:#FFFFFF;}
</style>
<g>
	<path class="st0" d="M350.751,271.503c0-12.848-10.452-23.3-23.3-23.3H223.455v-23.617h4.402c4.298,0,8.346-1.674,11.411-4.725
		c3.038-3.053,4.712-7.101,4.712-11.399c0-8.896-7.232-16.133-16.123-16.133h-4.402v-18.142l12.359-0.822
		c1.805,3.215,5.252,5.362,9.109,5.362c4.389,0,8.157-2.744,9.693-6.615l19.231-1.283c2.101-0.141,3.733-1.886,3.733-3.991v-14.12
		c0-2.105-1.633-3.851-3.733-3.991l-18.918-1.262c-0.487-1.646-1.377-3.161-2.634-4.427c-1.976-1.961-4.594-3.041-7.372-3.041
		c-4.212,0-7.858,2.532-9.502,6.163l-15.699-1.047l-24.645-1.647c-1.098-0.073-2.19,0.313-2.999,1.07
		c-0.809,0.756-1.268,1.813-1.268,2.921v44.872h-4.402c-4.307,0-8.357,1.68-11.404,4.728c-3.043,3.042-4.72,7.093-4.72,11.405
		c0,8.891,7.233,16.124,16.124,16.124h4.402v23.617h-6.262c-12.848,0-23.3,10.452-23.3,23.3c0,8.02,4.074,15.106,10.26,19.3
		c-6.186,4.193-10.26,11.28-10.26,19.3c0,8.021,4.074,15.107,10.26,19.301c-6.187,4.193-10.26,11.28-10.26,19.3
		c0,12.848,10.452,23.3,23.3,23.3h142.902c12.848,0,23.3-10.452,23.3-23.3c0-8.021-4.074-15.107-10.26-19.3
		c6.187-4.193,10.26-11.28,10.26-19.301c0-8.02-4.074-15.106-10.26-19.3C346.677,286.609,350.751,279.523,350.751,271.503z
		 M269.58,163.097l-14.222,0.949v-8.534l14.222,0.949V163.097z M244.923,147.997c0.653,0,1.27,0.255,1.715,0.696
		c0.465,0.469,0.721,1.086,0.721,1.738v0.805v17.062c-0.007,1.34-1.1,2.429-2.436,2.429c-1.21,0-2.248-0.904-2.413-2.09
		c-0.015-0.109-0.021-0.228-0.021-0.345v-17.886C242.499,149.078,243.592,147.997,244.923,147.997z M234.488,165.436l-11.033,0.734
		v-12.79l11.033,0.736V165.436z M198.811,151.733l16.645,1.112v17.599v21.885h-16.645V151.733z M178.284,208.462
		c0-2.175,0.844-4.216,2.377-5.748c1.537-1.538,3.578-2.385,5.747-2.385h8.402h24.645h8.402c4.479,0,8.123,3.648,8.123,8.133
		c0,2.169-0.846,4.212-2.369,5.742c-1.543,1.536-3.586,2.382-5.754,2.382h-8.402h-24.645h-8.402
		C181.929,216.586,178.284,212.941,178.284,208.462z M215.455,224.586v23.612h-16.645v-23.612H215.455z M342.751,348.703
		c0,8.437-6.863,15.3-15.3,15.3H184.549c-8.437,0-15.3-6.863-15.3-15.3s6.863-15.3,15.3-15.3h142.902
		C335.888,333.403,342.751,340.267,342.751,348.703z M342.751,310.103c0,8.437-6.863,15.301-15.3,15.301H184.549
		c-8.437,0-15.3-6.864-15.3-15.301s6.863-15.3,15.3-15.3h142.902C335.888,294.803,342.751,301.666,342.751,310.103z
		 M327.451,286.803H184.549c-8.437,0-15.3-6.863-15.3-15.3s6.863-15.3,15.3-15.3h142.902c8.437,0,15.3,6.863,15.3,15.3
		S335.888,286.803,327.451,286.803z"/>
</g>
</svg>
