<?xml version="1.0" encoding="utf-8"?>
<!-- Generator: Adobe Illustrator 27.0.1, SVG Export Plug-In . SVG Version: 6.00 Build 0)  -->
<svg version="1.1" id="Layer_2" xmlns="http://www.w3.org/2000/svg" xmlns:xlink="http://www.w3.org/1999/xlink" x="0px" y="0px"
	 viewBox="0 0 512 512" style="enable-background:new 0 0 512 512;" xml:space="preserve">
<style type="text/css">
	.st0{fill:#FFFFFF;}
</style>
<g>
	<path class="st0" d="M329.31,289.067c2.209,0,4-1.791,4-4v-36.938c2.964-3.78,4.58-8.444,4.58-13.302
		c0-11.894-9.676-21.57-21.57-21.57c-2.544,0-4.975,0.466-7.243,1.278v-11.902c0-28.929-23.824-52.464-53.107-52.464
		c-29.283,0-53.107,23.535-53.107,52.464v11.879c-2.251-0.798-4.662-1.255-7.183-1.255c-11.894,0-21.57,9.676-21.57,21.57
		c0,4.812,1.595,9.445,4.52,13.21v37.03c0,2.209,1.791,4,4,4h69.34v15.693h-38.781c-2.209,0-4,1.791-4,4v26.317
		c-5.596,1.715-9.677,6.926-9.677,13.076c0,7.541,6.136,13.677,13.677,13.677s13.677-6.136,13.677-13.677
		c0-6.15-4.081-11.361-9.677-13.076v-22.318h34.781v7.458c-5.595,1.715-9.677,6.926-9.677,13.076
		c0,7.541,6.135,13.677,13.677,13.677s13.677-6.136,13.677-13.677c0-6.15-4.082-11.361-9.677-13.076v-7.458h34.781v22.318
		c-5.595,1.715-9.677,6.926-9.677,13.076c0,7.541,6.135,13.677,13.677,13.677s13.677-6.136,13.677-13.677
		c0-6.15-4.082-11.361-9.677-13.076v-26.317c0-2.209-1.791-4-4-4H259.97v-15.693H329.31z M218.866,348.154
		c0,3.13-2.546,5.677-5.677,5.677s-5.677-2.547-5.677-5.677s2.547-5.676,5.677-5.676S218.866,345.024,218.866,348.154z
		 M304.428,348.154c0,3.13-2.547,5.677-5.677,5.677s-5.677-2.547-5.677-5.677s2.546-5.676,5.677-5.676
		S304.428,345.024,304.428,348.154z M261.647,333.295c0,3.13-2.547,5.677-5.677,5.677s-5.677-2.547-5.677-5.677
		s2.546-5.676,5.677-5.676S261.647,330.165,261.647,333.295z M210.863,202.633c0-24.518,20.235-44.464,45.107-44.464
		s45.107,19.946,45.107,44.464v16.947c-3.907,3.906-6.327,9.299-6.327,15.247c0,5.719,2.249,11.144,6.23,15.158v8.102h-90.02v-8.03
		c4.025-4.021,6.3-9.471,6.3-15.229c0-5.98-2.45-11.397-6.397-15.308V202.633z M185.598,243.906
		c-2.249-2.489-3.488-5.713-3.488-9.079c0-7.482,6.087-13.57,13.57-13.57c7.488,0,13.58,6.087,13.58,13.57
		c0,4.032-1.772,7.822-4.861,10.398c-0.912,0.76-1.438,1.885-1.438,3.072v13.79c0,2.209,1.791,4,4,4h98.02c2.209,0,4-1.791,4-4
		v-13.85c0-1.18-0.521-2.299-1.423-3.059c-3.055-2.574-4.807-6.347-4.807-10.351c0-7.482,6.087-13.57,13.57-13.57
		c7.483,0,13.57,6.087,13.57,13.57c0,3.401-1.255,6.648-3.534,9.143c-0.673,0.737-1.046,1.699-1.046,2.697v34.4h-68.692
		c-0.212-0.035-0.427-0.065-0.649-0.065s-0.436,0.031-0.649,0.065H186.63v-34.48C186.63,245.597,186.262,244.641,185.598,243.906z"
		/>
</g>
</svg>
