<?xml version="1.0" encoding="utf-8"?>
<!-- Generator: Adobe Illustrator 27.0.1, SVG Export Plug-In . SVG Version: 6.00 Build 0)  -->
<svg version="1.1" id="Layer_2" xmlns="http://www.w3.org/2000/svg" xmlns:xlink="http://www.w3.org/1999/xlink" x="0px" y="0px"
	 viewBox="0 0 512 512" style="enable-background:new 0 0 512 512;" xml:space="preserve">
<style type="text/css">
	.st0{fill:#FFFFFF;}
</style>
<g>
	<path class="st0" d="M274.345,203.764h-70.601c-0.933,0-1.835,0.325-2.553,0.921l-1.902,1.577l-6.372-7.331
		c-2.781-3.198-7.556-3.641-10.88-1.11c-9.55-8.204-23.995-7.804-33.044,1.244c-4.597,4.598-7.128,10.71-7.128,17.21v52.219
		c0,2.209,1.791,4,4,4s4-1.791,4-4v-52.219c0-4.363,1.699-8.467,4.785-11.554c5.784-5.78,14.844-6.295,21.233-1.586l-1.053,0.915
		c-1.613,1.402-2.584,3.349-2.733,5.48c-0.149,2.133,0.541,4.196,1.943,5.809l5.991,6.892l-2.623,2.175
		c-0.916,0.761-1.445,1.889-1.445,3.078v23.92c0,2.209,1.791,4,4,4h16.46c8.211,0,14.891,6.684,14.891,14.899v17.4h-0.561
		c-4.325,0-8.386,1.687-11.428,4.742c-3.059,3.058-4.742,7.119-4.742,11.438c0,8.922,7.254,16.181,16.17,16.181h143.2
		c4.332,0,8.396-1.687,11.433-4.735c3.062-3.049,4.748-7.113,4.748-11.445c0-4.238-1.644-8.238-4.555-11.243
		C364.306,243.474,323.742,203.764,274.345,203.764z M186.881,204.179l6.248,7.189l-6.938,5.752l-6.111-7.032L186.881,204.179z
		 M196.424,247.404h-12.46v-18.042l21.223-17.599h69.158c43.452,0,79.417,33.68,82.981,76.296c-0.086-0.018-0.175-0.025-0.262-0.042
		c-0.35-0.069-0.702-0.122-1.057-0.168c-0.164-0.021-0.326-0.047-0.49-0.063c-0.518-0.05-1.039-0.083-1.563-0.083h-134.64v-17.4
		C219.314,257.677,209.046,247.404,196.424,247.404z M359.729,309.672c-1.536,1.543-3.587,2.393-5.775,2.393h-143.2
		c-4.505,0-8.17-3.67-8.17-8.181c0-2.181,0.852-4.234,2.405-5.787c1.536-1.543,3.583-2.393,5.765-2.393h4.561h138.64
		c0.268,0,0.532,0.016,0.794,0.04c1.368,0.129,2.654,0.587,3.783,1.356c0.024,0.016,0.047,0.036,0.071,0.053
		c0.167,0.116,0.332,0.236,0.492,0.366c1.933,1.569,3.041,3.889,3.041,6.364C362.135,306.072,361.285,308.123,359.729,309.672z"/>
	<path class="st0" d="M254.12,266.801c2.931,3.617,7.281,5.692,11.938,5.692h5.26h22.084h24.515c2.209,0,4-1.791,4-4
		c0-21.046-17.122-38.168-38.168-38.168h-23.542c-3.572,0-7.054,1.255-9.802,3.533l-2.047,1.694c-3.533,2.929-5.56,7.24-5.56,11.83
		c0,3.51,1.217,6.944,3.426,9.673L254.12,266.801z M275.317,264.493v-4.197c0-1.428,1.161-2.589,2.589-2.589h8.906
		c1.428,0,2.589,1.161,2.589,2.589v4.197H275.317z M253.461,241.714l2.047-1.695c1.317-1.092,2.986-1.693,4.698-1.693h23.542
		c15.279,0,27.941,11.417,29.904,26.168h-16.251v-4.197c0-5.839-4.75-10.589-10.589-10.589h-8.906
		c-5.839,0-10.589,4.75-10.589,10.589v4.197h-1.26c-2.231,0-4.316-0.994-5.721-2.729l-7.896-9.745
		c-1.06-1.308-1.643-2.954-1.643-4.637C250.798,245.183,251.77,243.116,253.461,241.714z"/>
	<path class="st0" d="M200.8,228.89c-0.21-0.149-0.45-0.27-0.69-0.37c-0.239-0.1-0.489-0.18-0.75-0.229
		c-0.51-0.101-1.04-0.101-1.56,0c-0.25,0.05-0.5,0.13-0.75,0.229c-0.24,0.101-0.47,0.221-0.69,0.37c-0.22,0.14-0.42,0.311-0.6,0.5
		c-0.75,0.74-1.18,1.771-1.18,2.82c0,0.26,0.029,0.53,0.08,0.79c0.05,0.25,0.13,0.5,0.229,0.74c0.101,0.239,0.22,0.479,0.37,0.689
		c0.14,0.22,0.31,0.43,0.5,0.61c0.18,0.189,0.38,0.35,0.6,0.5c0.221,0.14,0.45,0.27,0.69,0.37c0.24,0.1,0.5,0.17,0.75,0.229
		c0.26,0.05,0.52,0.07,0.78,0.07c0.26,0,0.529-0.021,0.779-0.07c0.261-0.06,0.511-0.13,0.75-0.229c0.24-0.101,0.48-0.23,0.69-0.37
		c0.22-0.15,0.43-0.311,0.61-0.5c0.189-0.181,0.35-0.391,0.5-0.61c0.14-0.21,0.27-0.45,0.37-0.689c0.1-0.24,0.17-0.49,0.22-0.74
		c0.06-0.26,0.08-0.53,0.08-0.79c0-1.05-0.42-2.08-1.17-2.82C201.229,229.2,201.02,229.029,200.8,228.89z"/>
	<path class="st0" d="M214.3,228.89c-0.22-0.149-0.45-0.27-0.69-0.37c-0.239-0.1-0.489-0.18-0.75-0.229
		c-1.3-0.261-2.68,0.17-3.609,1.1c-0.74,0.74-1.17,1.771-1.17,2.82c0,0.26,0.029,0.53,0.08,0.79c0.05,0.25,0.13,0.5,0.229,0.74
		c0.101,0.239,0.22,0.479,0.36,0.689c0.149,0.22,0.319,0.43,0.5,0.61c0.189,0.189,0.39,0.35,0.609,0.5
		c0.221,0.14,0.45,0.27,0.69,0.37c0.24,0.1,0.49,0.17,0.75,0.229c0.26,0.05,0.52,0.07,0.78,0.07c0.26,0,0.52-0.021,0.779-0.07
		c0.261-0.06,0.511-0.13,0.75-0.229c0.24-0.101,0.471-0.23,0.69-0.37c0.22-0.15,0.42-0.311,0.61-0.5
		c0.18-0.181,0.35-0.391,0.489-0.61c0.15-0.21,0.271-0.45,0.37-0.689c0.101-0.24,0.181-0.49,0.23-0.74
		c0.05-0.26,0.08-0.53,0.08-0.79c0-1.05-0.431-2.08-1.17-2.82C214.729,229.2,214.52,229.029,214.3,228.89z"/>
</g>
</svg>
