<?xml version="1.0" encoding="utf-8"?>
<!-- Generator: Adobe Illustrator 27.0.1, SVG Export Plug-In . SVG Version: 6.00 Build 0)  -->
<svg version="1.1" id="Layer_2" xmlns="http://www.w3.org/2000/svg" xmlns:xlink="http://www.w3.org/1999/xlink" x="0px" y="0px"
	 viewBox="0 0 512 512" style="enable-background:new 0 0 512 512;" xml:space="preserve">
<style type="text/css">
	.st0{fill:#FFFFFF;}
</style>
<g>
	<path class="st0" d="M226.37,266.852h24.817c2.209,0,4-1.791,4-4s-1.791-4-4-4H226.37c-2.209,0-4,1.791-4,4
		S224.161,266.852,226.37,266.852z"/>
	<path class="st0" d="M226.37,280.713h24.817c2.209,0,4-1.791,4-4s-1.791-4-4-4H226.37c-2.209,0-4,1.791-4,4
		S224.161,280.713,226.37,280.713z"/>
	<path class="st0" d="M251.188,286.574H226.37c-2.209,0-4,1.791-4,4s1.791,4,4,4h24.817c2.209,0,4-1.791,4-4
		S253.396,286.574,251.188,286.574z"/>
	<path class="st0" d="M144.014,191.685c0,5.728,4.66,10.387,10.387,10.387h5.64c2.445,5.188,7.747,8.705,13.648,8.705
		c5.904,0,11.207-3.516,13.654-8.706h0.67l16.467,42.37v51.94c0,0.135,0.027,0.263,0.04,0.395
		c-9.161,1.837-16.06,9.921-16.06,19.625c0,11.06,8.96,20.03,20.02,20.03c11.07,0,20.03-8.97,20.03-20.03
		c0-1.738-0.227-3.422-0.641-5.03h96.702c-0.414,1.608-0.641,3.292-0.641,5.03c0,11.06,8.96,20.03,20.03,20.03
		c11.06,0,20.03-8.97,20.03-20.03c0-4.272-1.339-8.23-3.621-11.481c0.867-0.747,1.391-1.844,1.391-3.028V286.02
		c0-1.081-0.437-2.115-1.212-2.868l-29.57-28.739c-0.578-0.562-1.312-0.936-2.105-1.073l-9.816-1.7v-15.163
		c0-6.061-4.329-11.24-10.294-12.316l-46.84-8.443c-3.659-0.658-7.394,0.331-10.246,2.714c-2.853,2.385-4.488,5.884-4.488,9.602
		v11.162l-24.078-4.17l-18.303-47.108c-1.569-4.02-5.371-6.616-9.687-6.616h-7.331c-0.754-1.981-1.918-3.803-3.429-5.314
		c-2.848-2.847-6.638-4.415-10.671-4.415c-6.377,0-11.915,4.004-14.089,9.727h-5.2C148.673,181.297,144.014,185.957,144.014,191.685
		z M255.188,228.031c0-1.341,0.59-2.604,1.619-3.463c1.028-0.86,2.377-1.218,3.696-0.979l46.839,8.443
		c2.152,0.388,3.714,2.257,3.714,4.443v13.314l-55.869-10.072V228.031z M203.454,316.4c0-2.773,2.257-5.03,5.031-5.03
		c2.778,0,5.038,2.257,5.038,5.03c0,2.778-2.26,5.038-5.038,5.038C205.71,321.438,203.454,319.179,203.454,316.4z M343.957,321.438
		c-2.774,0-5.031-2.26-5.031-5.038c0-2.773,2.257-5.03,5.031-5.03c2.774,0,5.031,2.257,5.031,5.03
		C348.988,319.179,346.731,321.438,343.957,321.438z M353.76,287.71v6.751c-3.05-1.363-6.377-2.081-9.8-2.081
		c-8.26,0-15.791,4.153-20.2,10.99h-95.077c-3.679-5.716-9.546-9.556-16.203-10.661v-49.02v-2.387l7.038,1.219c0,0,0.001,0,0.001,0
		l106.771,18.489L353.76,287.71z M188.78,189.3h6.34c0.996,0,1.872,0.599,2.231,1.519l16.556,42.612l-4.745-0.822
		c-0.227-0.039-0.456-0.059-0.683-0.059c-0.013,0-0.025,0-0.038,0l-13.963-35.929c-0.598-1.538-2.079-2.551-3.729-2.551h-1.97V189.3
		z M173.689,179.57c1.897,0,3.678,0.736,5.015,2.072c1.129,1.129,1.827,2.559,2.022,4.158c0.002,0.013-0.001,0.026,0.001,0.039
		c0.012,0.089,0.01,0.186,0.018,0.278c0.014,0.177,0.032,0.348,0.032,0.54v9.031c0,0.437-0.048,0.871-0.126,1.297
		c-0.014,0.074-0.02,0.149-0.037,0.224c-0.001,0.003,0,0.006-0.001,0.009c-0.708,3.221-3.619,5.559-6.924,5.559
		c-3.302,0-6.212-2.339-6.917-5.552c-0.109-0.505-0.165-1.021-0.165-1.536v-9.031c0-0.305,0.017-0.591,0.053-0.875
		C167.095,182.241,170.116,179.57,173.689,179.57z M154.401,189.297h4.207v4.774h-4.207c-1.316,0-2.387-1.07-2.387-2.387
		S153.084,189.297,154.401,189.297z"/>
</g>
</svg>
