<?xml version="1.0" encoding="utf-8"?>
<!-- Generator: Adobe Illustrator 27.0.1, SVG Export Plug-In . SVG Version: 6.00 Build 0)  -->
<svg version="1.1" id="Layer_2" xmlns="http://www.w3.org/2000/svg" xmlns:xlink="http://www.w3.org/1999/xlink" x="0px" y="0px"
	 viewBox="0 0 512 512" style="enable-background:new 0 0 512 512;" xml:space="preserve">
<style type="text/css">
	.st0{fill:#FFFFFF;}
</style>
<g>
	<path class="st0" d="M256,264.508c26.403,0,47.885-21.481,47.885-47.884S282.403,168.739,256,168.739s-47.885,21.481-47.885,47.884
		S229.597,264.508,256,264.508z M256,176.739c21.992,0,39.885,17.892,39.885,39.884S277.992,256.508,256,256.508
		s-39.885-17.892-39.885-39.884S234.008,176.739,256,176.739z"/>
	<path class="st0" d="M252,281.309v46.282h-14.476c-11.239,0-20.383,9.144-20.383,20.383c0,6.74,5.483,12.223,12.223,12.223h53.271
		c6.739,0,12.223-5.483,12.223-12.223c0-11.239-9.144-20.383-20.383-20.383H260v-46.282c33.885-2.075,60.821-30.287,60.821-64.686
		c0-35.743-29.079-64.821-64.821-64.821s-64.821,29.079-64.821,64.821C191.179,251.022,218.115,279.235,252,281.309z
		 M286.858,347.975c0,2.329-1.895,4.223-4.223,4.223h-53.271c-2.328,0-4.223-1.894-4.223-4.223c0-6.828,5.555-12.383,12.383-12.383
		h36.951C281.304,335.592,286.858,341.147,286.858,347.975z M256,159.802c31.331,0,56.821,25.49,56.821,56.821
		s-25.49,56.821-56.821,56.821s-56.821-25.49-56.821-56.821S224.669,159.802,256,159.802z"/>
	<path class="st0" d="M240.312,211.101l2.254-2.253l7.777,7.776l-10.605,10.605c-0.751,0.75-1.172,1.768-1.172,2.829
		c0,1.061,0.422,2.079,1.172,2.829l5.083,5.082c0.781,0.781,1.805,1.171,2.828,1.171s2.048-0.391,2.829-1.172
		c1.562-1.562,1.562-4.095-0.001-5.657l-2.254-2.254L256,222.28l10.605,10.605c0.75,0.75,1.768,1.171,2.828,1.171
		s2.078-0.421,2.828-1.172l5.082-5.083c1.562-1.562,1.562-4.095,0-5.657c-1.562-1.562-4.096-1.562-5.656,0l-2.254,2.253
		l-7.777-7.776l10.605-10.605c0.75-0.75,1.172-1.768,1.172-2.829s-0.422-2.079-1.172-2.829l-5.083-5.083
		c-1.562-1.562-4.096-1.562-5.656,0c-1.562,1.562-1.562,4.095,0,5.657l2.254,2.254L256,210.967l-10.605-10.605
		c-0.75-0.75-1.768-1.171-2.828-1.171s-2.078,0.421-2.828,1.172l-5.082,5.083c-1.562,1.562-1.562,4.095,0,5.657
		C236.219,212.663,238.752,212.663,240.312,211.101z"/>
</g>
</svg>
