<?xml version="1.0" encoding="utf-8"?>
<!-- Generator: Adobe Illustrator 27.0.1, SVG Export Plug-In . SVG Version: 6.00 Build 0)  -->
<svg version="1.1" id="Layer_2" xmlns="http://www.w3.org/2000/svg" xmlns:xlink="http://www.w3.org/1999/xlink" x="0px" y="0px"
	 viewBox="0 0 512 512" style="enable-background:new 0 0 512 512;" xml:space="preserve">
<style type="text/css">
	.st0{fill:#FFFFFF;}
</style>
<g>
	<path class="st0" d="M196.842,188.138c-16.691,0-30.271,13.58-30.271,30.271v9.889c0,2.209,1.791,4,4,4h170.857
		c2.209,0,4-1.791,4-4v-9.889c0-16.691-13.58-30.271-30.271-30.271h-36.719v-6.504c6.195-0.904,10.972-6.237,10.972-12.678v-1.178
		c0-7.073-5.755-12.828-12.828-12.828h-41.166c-7.073,0-12.828,5.755-12.828,12.828v1.178c0,6.441,4.778,11.774,10.972,12.678v6.504
		H196.842z M337.429,218.409v5.889H174.571v-5.889c0-12.28,9.991-22.271,22.271-22.271h40.719h36.878h40.719
		C327.438,196.138,337.429,206.129,337.429,218.409z M230.589,168.955v-1.178c0-2.662,2.166-4.828,4.828-4.828h41.166
		c2.662,0,4.828,2.166,4.828,4.828v1.178c0,2.662-2.166,4.828-4.828,4.828h-41.166C232.755,173.783,230.589,171.617,230.589,168.955
		z M241.561,182.104h28.878v6.034h-28.878V182.104z"/>
	<path class="st0" d="M352.503,262.719h-7.074v-16.341c0-2.209-1.791-4-4-4H170.571c-2.209,0-4,1.791-4,4v16.341h-7.074
		c-12.05,0-21.854,9.804-21.854,21.854c0,12.051,9.804,21.854,21.854,21.854h7.074v20.354c0,16.691,13.58,30.271,30.271,30.271
		h118.315c16.691,0,30.271-13.579,30.271-30.271v-20.354h7.074c12.05,0,21.854-9.804,21.854-21.854
		C374.357,272.522,364.553,262.719,352.503,262.719z M337.429,250.378v12.341H174.571v-12.341H337.429z M159.497,298.427
		c-7.639,0-13.854-6.215-13.854-13.854c0-7.639,6.215-13.854,13.854-13.854h7.074v27.708H159.497z M337.429,326.78
		c0,12.28-9.991,22.271-22.271,22.271H196.842c-12.28,0-22.271-9.99-22.271-22.271v-24.354v-31.708h162.857v31.708V326.78z
		 M352.503,298.427h-7.074v-27.708h7.074c7.639,0,13.854,6.215,13.854,13.854C366.357,292.212,360.142,298.427,352.503,298.427z"/>
</g>
</svg>
