<?xml version="1.0" encoding="utf-8"?>
<!-- Generator: Adobe Illustrator 27.0.1, SVG Export Plug-In . SVG Version: 6.00 Build 0)  -->
<svg version="1.1" id="Layer_2" xmlns="http://www.w3.org/2000/svg" xmlns:xlink="http://www.w3.org/1999/xlink" x="0px" y="0px"
	 viewBox="0 0 512 512" style="enable-background:new 0 0 512 512;" xml:space="preserve">
<style type="text/css">
	.st0{fill:#FFFFFF;}
</style>
<g>
	<path class="st0" d="M281.035,204.129l0.01-0.099c0.039-0.271,0.066-0.545,0.08-0.823l0.01-0.108
		c0.013-0.129,0.019-0.259,0.019-0.389c0-14.345-31.729-21.85-63.07-21.85s-63.07,7.505-63.07,21.85c0,0.13,0.006,0.259,0.019,0.389
		l0.101,1.03c0,0.005,0.002,0.01,0.002,0.015l10.323,107.84c-0.009,0.151-0.014,0.304-0.014,0.456c0,12.848,27.287,18.7,52.64,18.7
		s52.64-5.852,52.64-18.7c0-0.152-0.005-0.305-0.014-0.456l10.323-107.84C281.033,204.139,281.035,204.134,281.035,204.129z
		 M218.084,188.86c35.248,0,54.647,8.952,55.061,13.696l-0.053,0.549c-0.017,0.075-0.042,0.15-0.067,0.226
		c-0.028,0.085-0.053,0.17-0.089,0.256c-0.037,0.087-0.086,0.175-0.133,0.263c-0.047,0.088-0.091,0.176-0.147,0.266
		c-0.055,0.088-0.122,0.176-0.186,0.265c-0.066,0.091-0.129,0.182-0.205,0.274c-0.072,0.088-0.156,0.177-0.237,0.266
		c-0.085,0.094-0.168,0.187-0.263,0.281c-0.089,0.088-0.189,0.177-0.286,0.265c-0.105,0.096-0.207,0.191-0.322,0.287
		c-0.105,0.088-0.221,0.177-0.334,0.265c-0.124,0.097-0.245,0.194-0.379,0.292c-0.12,0.088-0.253,0.176-0.381,0.264
		c-0.144,0.099-0.284,0.197-0.438,0.296c-0.135,0.087-0.281,0.174-0.423,0.26c-0.164,0.1-0.325,0.2-0.498,0.3
		c-0.149,0.086-0.31,0.172-0.466,0.258c-0.183,0.101-0.363,0.201-0.556,0.302c-0.163,0.085-0.337,0.169-0.507,0.254
		c-0.203,0.101-0.403,0.202-0.615,0.303c-0.176,0.083-0.364,0.167-0.547,0.25c-0.222,0.101-0.441,0.202-0.673,0.303
		c-0.191,0.083-0.392,0.165-0.589,0.247c-0.24,0.1-0.476,0.2-0.725,0.299c-0.204,0.081-0.42,0.162-0.63,0.242
		c-0.258,0.099-0.513,0.198-0.781,0.297c-0.216,0.079-0.442,0.157-0.664,0.235c-0.277,0.098-0.551,0.196-0.838,0.293
		c-0.229,0.077-0.469,0.153-0.704,0.23c-0.295,0.096-0.586,0.193-0.891,0.287c-0.243,0.076-0.497,0.15-0.746,0.225
		c-0.31,0.093-0.617,0.187-0.937,0.279c-0.26,0.075-0.53,0.147-0.796,0.221c-0.323,0.09-0.643,0.18-0.975,0.268
		c-0.275,0.073-0.561,0.143-0.841,0.215c-0.337,0.086-0.671,0.173-1.016,0.257c-0.288,0.07-0.588,0.138-0.882,0.207
		c-0.353,0.083-0.701,0.166-1.062,0.247c-0.3,0.067-0.611,0.131-0.917,0.197c-0.368,0.079-0.732,0.159-1.108,0.236
		c-0.318,0.065-0.647,0.127-0.97,0.19c-0.378,0.074-0.751,0.149-1.136,0.221c-0.331,0.062-0.672,0.12-1.009,0.18
		c-0.392,0.07-0.78,0.141-1.181,0.208c-0.341,0.057-0.693,0.111-1.039,0.167c-0.408,0.065-0.811,0.132-1.226,0.195
		c-0.355,0.054-0.721,0.104-1.082,0.155c-0.419,0.06-0.834,0.122-1.26,0.179c-0.371,0.05-0.754,0.096-1.131,0.143
		c-0.428,0.054-0.852,0.11-1.287,0.162c-0.383,0.045-0.777,0.086-1.165,0.129c-0.442,0.049-0.879,0.1-1.328,0.146
		c-0.408,0.042-0.827,0.078-1.24,0.117c-0.439,0.041-0.873,0.085-1.318,0.124c-0.458,0.04-0.928,0.073-1.392,0.11
		c-0.413,0.032-0.822,0.068-1.24,0.097c-0.489,0.035-0.99,0.063-1.486,0.094c-0.406,0.025-0.807,0.054-1.218,0.077
		c-0.535,0.03-1.082,0.053-1.625,0.078c-0.382,0.018-0.758,0.039-1.144,0.055c-0.655,0.026-1.322,0.045-1.988,0.065
		c-0.283,0.008-0.561,0.02-0.847,0.028c-0.957,0.024-1.924,0.041-2.902,0.051c-0.64,0.01-1.308,0.013-1.94,0.009
		c-3.871,0-7.729-0.115-11.467-0.343c0,0-0.001,0-0.001,0c0,0-0.001,0-0.001,0c-4.607-0.278-9.113-0.731-13.391-1.346
		c-1.201-0.173-2.38-0.359-3.535-0.556c-3.466-0.593-6.719-1.296-9.708-2.098c-0.001,0-0.002,0-0.002,0c0,0,0,0,0,0
		c-0.782-0.209-1.53-0.421-2.247-0.635c-0.236-0.07-0.449-0.142-0.678-0.212c-0.466-0.144-0.936-0.287-1.374-0.432
		c-0.272-0.09-0.518-0.18-0.779-0.27c-0.367-0.127-0.743-0.253-1.089-0.38c-0.261-0.096-0.498-0.192-0.748-0.287
		c-0.318-0.122-0.645-0.244-0.944-0.366c-0.241-0.098-0.459-0.196-0.689-0.293c-0.28-0.119-0.568-0.239-0.831-0.358
		c-0.223-0.101-0.424-0.2-0.635-0.3c-0.243-0.115-0.493-0.231-0.721-0.345c-0.201-0.101-0.383-0.201-0.573-0.301
		c-0.212-0.112-0.431-0.224-0.629-0.335c-0.179-0.1-0.341-0.199-0.509-0.298c-0.183-0.108-0.372-0.217-0.543-0.324
		c-0.158-0.099-0.299-0.196-0.446-0.293c-0.158-0.104-0.32-0.21-0.465-0.312c-0.136-0.096-0.257-0.189-0.382-0.283
		c-0.134-0.1-0.272-0.202-0.394-0.3c-0.115-0.093-0.218-0.183-0.323-0.273c-0.111-0.095-0.225-0.192-0.326-0.284
		c-0.096-0.089-0.18-0.174-0.266-0.26c-0.09-0.09-0.183-0.181-0.263-0.268c-0.077-0.083-0.143-0.164-0.211-0.245
		c-0.071-0.084-0.143-0.169-0.205-0.25c-0.059-0.078-0.109-0.152-0.16-0.227c-0.053-0.078-0.107-0.156-0.151-0.231
		c-0.042-0.071-0.076-0.138-0.111-0.206c-0.036-0.072-0.073-0.144-0.102-0.211c-0.026-0.063-0.046-0.123-0.066-0.183
		c-0.019-0.058-0.037-0.116-0.05-0.17l-0.05-0.511C163.393,197.833,182.798,188.86,218.084,188.86z M216.084,224.55v19.59
		c0,1.577-1.283,2.86-2.86,2.86c-1.571,0-2.85-1.283-2.85-2.86v-19.728c0.288,0.011,0.581,0.011,0.87,0.021
		c0.888,0.03,1.778,0.046,2.672,0.064C214.64,224.513,215.357,224.543,216.084,224.55z M182.944,221.159
		c0.361,0.078,0.737,0.149,1.103,0.225c0.361,0.074,0.721,0.149,1.087,0.221c0.844,0.166,1.702,0.324,2.571,0.477
		c0.256,0.045,0.506,0.094,0.764,0.138c0.063,0.011,0.123,0.023,0.186,0.033v12.457c0,1.577-1.283,2.86-2.86,2.86
		c-1.571,0-2.85-1.283-2.85-2.86V221.159z M196.654,234.71v-11.331c0.202,0.023,0.413,0.038,0.616,0.06
		c1.617,0.179,3.25,0.343,4.906,0.479c0.067,0.006,0.131,0.014,0.197,0.019v20.203v11.14c0,1.577-1.283,2.86-2.86,2.86
		s-2.859-1.283-2.859-2.86V234.71z M262.713,311.579c-0.013,0.127-0.019,0.254-0.019,0.381v0.01c0,0.173,0.007,0.298,0.029,0.47
		c0,3.2-15.188,10.7-44.64,10.7s-44.64-7.5-44.644-10.653c0.022-0.171,0.033-0.354,0.033-0.527c0-0.127-0.006-0.254-0.019-0.381
		l-9.271-96.845c0.156,0.087,0.325,0.171,0.485,0.256c0.177,0.095,0.354,0.189,0.535,0.283c0.388,0.2,0.789,0.397,1.199,0.592
		c0.157,0.075,0.309,0.151,0.469,0.225c0.576,0.266,1.169,0.528,1.787,0.784c0.069,0.029,0.143,0.056,0.212,0.084
		c0.551,0.226,1.118,0.448,1.701,0.666c0.21,0.079,0.428,0.156,0.643,0.233c0.464,0.168,0.935,0.334,1.418,0.497
		c0.244,0.082,0.49,0.164,0.739,0.245c0.498,0.162,1.008,0.322,1.526,0.48c0.016,0.005,0.03,0.01,0.046,0.014v15.617
		c0,5.988,4.867,10.86,10.85,10.86c0.991,0,1.947-0.145,2.86-0.395v10.105c0,5.988,4.871,10.86,10.859,10.86
		s10.86-4.872,10.86-10.86v-0.673c0.91,0.249,1.862,0.393,2.85,0.393c5.988,0,10.86-4.872,10.86-10.86v-19.675
		c0.064-0.002,0.128-0.005,0.192-0.007c0.878-0.028,1.758-0.063,2.638-0.103c0.236-0.011,0.471-0.02,0.707-0.031
		c1.084-0.054,2.167-0.117,3.25-0.19c0.246-0.017,0.491-0.036,0.736-0.053c0.87-0.062,1.738-0.13,2.604-0.204
		c0.303-0.026,0.606-0.052,0.908-0.079c1.084-0.098,2.165-0.203,3.239-0.32c0.022-0.002,0.044-0.005,0.066-0.008
		c1.051-0.115,2.093-0.243,3.131-0.377c0.299-0.038,0.596-0.079,0.894-0.119c0.848-0.114,1.691-0.235,2.528-0.361
		c0.229-0.035,0.461-0.067,0.689-0.103c1.027-0.161,2.044-0.331,3.05-0.51c0.239-0.043,0.474-0.088,0.711-0.132
		c0.799-0.147,1.589-0.3,2.372-0.46c0.279-0.057,0.559-0.113,0.836-0.172c0.979-0.207,1.948-0.42,2.897-0.646
		c0.051-0.012,0.101-0.026,0.152-0.038c0.899-0.216,1.779-0.443,2.648-0.677c0.263-0.071,0.523-0.143,0.783-0.215
		c0.729-0.203,1.445-0.412,2.15-0.628c0.19-0.058,0.385-0.114,0.573-0.174c0.858-0.27,1.695-0.551,2.511-0.841
		c0.198-0.07,0.388-0.144,0.583-0.215c0.641-0.235,1.268-0.476,1.88-0.723c0.218-0.088,0.437-0.176,0.652-0.265
		c0.761-0.318,1.504-0.644,2.214-0.983c0.048-0.023,0.092-0.047,0.14-0.071c0.662-0.319,1.295-0.649,1.909-0.986
		c0.085-0.047,0.181-0.09,0.265-0.137L262.713,311.579z"/>
	<path class="st0" d="M292.094,254.268v16.266l-7.982,48.11c-0.192,1.16,0.135,2.345,0.896,3.241
		c0.76,0.896,1.875,1.414,3.051,1.414h64.929c1.182,0,2.302-0.522,3.062-1.426c0.76-0.904,1.081-2.098,0.878-3.262l-8.399-48.093
		v-16.25c0-2.209-1.791-4-4-4h-12.826l4.082-32.377c0.539-4.278-0.787-8.586-3.64-11.82c-2.852-3.234-6.96-5.088-11.271-5.088
		c-4.227,0-8.28,1.794-11.123,4.921c-2.842,3.127-4.241,7.333-3.838,11.54l3.143,32.824h-12.96
		C293.885,250.268,292.094,252.059,292.094,254.268z M333.203,315.298V301.41c0-2.209-1.791-4-4-4s-4,1.791-4,4v13.888h-10V301.41
		c0-2.209-1.791-4-4-4s-4,1.791-4,4v13.888h-14.427l6.708-40.434h41.681l7.062,40.434H333.203z M313.874,216.681
		c-0.19-1.996,0.447-3.913,1.796-5.397s3.196-2.302,5.202-2.302c2.046,0,3.918,0.845,5.271,2.38s1.958,3.498,1.702,5.528
		l-4.208,33.377h-6.547L313.874,216.681z M300.094,258.268h13.361h13.71h13.362v8.597h-40.434V258.268z"/>
</g>
</svg>
