<?xml version="1.0" encoding="utf-8"?>
<!-- Generator: Adobe Illustrator 27.0.1, SVG Export Plug-In . SVG Version: 6.00 Build 0)  -->
<svg version="1.1" id="Layer_2" xmlns="http://www.w3.org/2000/svg" xmlns:xlink="http://www.w3.org/1999/xlink" x="0px" y="0px"
	 viewBox="0 0 512 512" style="enable-background:new 0 0 512 512;" xml:space="preserve">
<style type="text/css">
	.st0{fill:#FFFFFF;}
</style>
<g>
	<path class="st0" d="M352.187,193.446H281.71v-24.472c0-9.215-7.497-16.712-16.712-16.712s-16.712,7.497-16.712,16.712
		c0,2.209,1.791,4,4,4s4-1.791,4-4c0-4.804,3.908-8.712,8.712-8.712s8.712,3.908,8.712,8.712v8.712H238.29v-8.712
		c0-9.215-7.497-16.712-16.711-16.712s-16.712,7.497-16.712,16.712c0,2.209,1.791,4,4,4s4-1.791,4-4
		c0-4.804,3.908-8.712,8.712-8.712s8.711,3.908,8.711,8.712v24.472h-70.476c-8.748,0-15.864,7.117-15.864,15.865v100.847
		c0,8.748,7.117,15.865,15.864,15.865h192.373c8.748,0,15.864-7.117,15.864-15.865V209.312
		C368.051,200.563,360.934,193.446,352.187,193.446z M238.29,209.163h35.421v15.478H238.29V209.163z M273.71,185.687v15.477H238.29
		v-15.477H273.71z M360.051,310.158c0,4.337-3.528,7.865-7.864,7.865H159.813c-4.336,0-7.864-3.528-7.864-7.865V209.312
		c0-4.337,3.528-7.865,7.864-7.865h70.476v41.432c0,2.209,1.791,4,4,4s4-1.791,4-4v-10.237h35.421v10.237c0,2.209,1.791,4,4,4
		s4-1.791,4-4v-41.432h70.476c4.336,0,7.864,3.528,7.864,7.865V310.158z"/>
	<path class="st0" d="M331.279,291.179c-5.076-5.075-13.332-5.074-18.409,0.001l-0.962,0.963c-1.956,1.956-5.138,1.957-7.096-0.002
		l-0.264-0.264c-2.458-2.459-5.727-3.813-9.204-3.813s-6.745,1.354-9.2,3.81l-0.218,0.218c-1.954,1.956-5.137,1.956-7.093,0
		l-0.269-0.269c-2.458-2.459-5.727-3.812-9.204-3.812c-3.477,0-6.746,1.354-9.203,3.812c-1.957,1.955-5.138,1.953-7.109-0.017
		c-5.075-5.074-13.332-5.076-18.408,0.001l-0.597,0.598c-1.956,1.956-5.137,1.957-7.094-0.001l-1.591-1.59
		c-2.458-2.459-5.727-3.813-9.204-3.813s-6.745,1.354-9.202,3.812l-1.305,1.304c-0.947,0.947-2.207,1.47-3.546,1.47
		c-1.339,0-2.599-0.522-3.546-1.47l-0.322-0.322c-5.074-5.072-13.332-5.073-18.407,0.001l-6.446,6.446
		c-1.562,1.562-1.562,4.095,0,5.656c1.562,1.562,4.095,1.562,5.657,0l6.446-6.445c1.956-1.956,5.138-1.956,7.093-0.001l0.321,0.321
		c2.458,2.459,5.727,3.813,9.204,3.813c3.477,0,6.746-1.354,9.202-3.812l1.305-1.304c0.947-0.947,2.207-1.47,3.546-1.47
		s2.599,0.522,3.547,1.471l1.591,1.591c5.074,5.072,13.332,5.074,18.408-0.002l0.597-0.598c1.956-1.955,5.138-1.954,7.109,0.017
		c5.075,5.074,13.332,5.074,18.407,0c0.947-0.947,2.207-1.469,3.546-1.469c1.339,0,2.599,0.521,3.546,1.469l0.269,0.27
		c5.075,5.072,13.332,5.073,18.403,0.003l0.218-0.218c0.947-0.947,2.207-1.47,3.546-1.47s2.599,0.522,3.549,1.473l0.264,0.264
		c5.076,5.075,13.332,5.074,18.409-0.001l0.962-0.963c1.957-1.957,5.139-1.956,7.093-0.001l7.339,7.34
		c0.781,0.781,1.805,1.172,2.829,1.172c1.023,0,2.047-0.391,2.828-1.172c1.562-1.562,1.562-4.095,0-5.656L331.279,291.179z"/>
	<path class="st0" d="M331.279,270.512c-5.075-5.076-13.332-5.074-18.407,0l-0.964,0.964c-0.947,0.947-2.207,1.469-3.546,1.469
		c-1.34,0-2.599-0.521-3.549-1.472l-0.265-0.265c-5.075-5.072-13.332-5.072-18.41,0.004l-0.211,0.212
		c-1.955,1.955-5.138,1.955-7.088,0.005l-0.274-0.275c-5.075-5.074-13.333-5.073-18.407,0.001c-0.947,0.947-2.207,1.469-3.546,1.469
		c-1.34,0-2.599-0.521-3.562-1.484c-5.075-5.074-13.332-5.076-18.408,0.001l-0.597,0.598c-1.957,1.956-5.139,1.954-7.093,0
		l-1.592-1.592c-5.074-5.074-13.332-5.074-18.407,0l-1.304,1.304c-1.955,1.956-5.137,1.956-7.093,0l-0.322-0.322
		c-5.074-5.072-13.332-5.073-18.407,0.001l-6.446,6.446c-1.562,1.562-1.562,4.095,0,5.656c1.562,1.562,4.095,1.562,5.657,0
		l6.446-6.445c1.956-1.956,5.138-1.956,7.093-0.001l0.322,0.322c5.076,5.075,13.332,5.074,18.407-0.001l1.303-1.303
		c1.957-1.957,5.139-1.956,7.093-0.001l1.592,1.593c5.074,5.072,13.332,5.074,18.408-0.002l0.597-0.598
		c1.956-1.955,5.137-1.955,7.109,0.016c2.458,2.459,5.727,3.812,9.204,3.812c3.477,0,6.745-1.354,9.204-3.812
		c1.954-1.957,5.137-1.956,7.088-0.005l0.274,0.275c5.075,5.073,13.332,5.073,18.41-0.004l0.211-0.211
		c1.956-1.955,5.138-1.955,7.096,0.002l0.264,0.264c2.458,2.459,5.727,3.812,9.204,3.812c3.477,0,6.745-1.354,9.204-3.812
		l0.963-0.963c1.956-1.955,5.138-1.956,7.094-0.001l7.339,7.339c0.781,0.781,1.804,1.172,2.828,1.172s2.047-0.391,2.829-1.172
		c1.562-1.562,1.562-4.095,0-5.656L331.279,270.512z"/>
	<path class="st0" d="M331.279,249.844c-5.076-5.075-13.332-5.074-18.409,0.001l-0.962,0.963c-1.956,1.956-5.138,1.956-7.096-0.002
		l-0.264-0.264c-2.458-2.459-5.727-3.813-9.204-3.813s-6.745,1.354-9.2,3.81l-0.218,0.218c-1.954,1.956-5.137,1.956-7.093,0
		l-0.269-0.269c-2.458-2.459-5.727-3.812-9.204-3.812c-3.477,0-6.746,1.354-9.203,3.812c-1.956,1.954-5.137,1.956-7.109-0.016
		c-2.458-2.459-5.727-3.812-9.204-3.812c-3.477,0-6.745,1.354-9.202,3.812l-0.6,0.599c-0.947,0.947-2.207,1.47-3.546,1.47
		s-2.599-0.522-3.547-1.471l-1.591-1.59c-2.458-2.459-5.727-3.813-9.204-3.813s-6.745,1.354-9.204,3.813l-1.304,1.304
		c-1.955,1.956-5.138,1.954-7.089,0.004l-0.326-0.327c-5.074-5.072-13.332-5.073-18.407,0.001l-6.446,6.447
		c-1.562,1.562-1.562,4.095,0,5.657c1.562,1.561,4.095,1.562,5.657-0.001l6.446-6.446c1.956-1.956,5.138-1.955,7.089-0.005
		l0.326,0.327c5.076,5.075,13.332,5.074,18.407-0.001l1.304-1.304c0.947-0.947,2.207-1.47,3.546-1.47s2.599,0.522,3.547,1.471
		l1.591,1.59c2.458,2.459,5.727,3.813,9.204,3.813s6.745-1.354,9.202-3.812l0.6-0.6c0.947-0.947,2.207-1.469,3.546-1.469
		c1.34,0,2.599,0.521,3.562,1.484c5.075,5.074,13.332,5.074,18.407,0c0.947-0.947,2.207-1.469,3.546-1.469
		c1.339,0,2.599,0.521,3.546,1.469l0.269,0.27c5.075,5.073,13.332,5.072,18.403,0.003l0.218-0.218
		c0.947-0.947,2.207-1.47,3.546-1.47s2.599,0.522,3.549,1.473l0.264,0.264c5.076,5.075,13.332,5.074,18.409-0.001l0.962-0.963
		c1.957-1.957,5.139-1.956,7.093-0.001l7.339,7.34c0.781,0.781,1.805,1.172,2.829,1.172c1.023,0,2.047-0.391,2.828-1.172
		c1.562-1.562,1.562-4.095,0-5.656L331.279,249.844z"/>
</g>
</svg>
