<?xml version="1.0" encoding="utf-8"?>
<!-- Generator: Adobe Illustrator 27.0.1, SVG Export Plug-In . SVG Version: 6.00 Build 0)  -->
<svg version="1.1" id="Layer_2" xmlns="http://www.w3.org/2000/svg" xmlns:xlink="http://www.w3.org/1999/xlink" x="0px" y="0px"
	 viewBox="0 0 512 512" style="enable-background:new 0 0 512 512;" xml:space="preserve">
<style type="text/css">
	.st0{fill:#FFFFFF;}
</style>
<g>
	<path class="st0" d="M198.314,145.345l-8.624,66.759c-4.4,34.03,17.748,65.792,50.77,73.613l2.193,16.279
		c1.506,11.132,1.366,22.406-0.414,33.512c-1.472,9.206-6.888,17.263-14.855,22.105l-8.421,5.111
		c-1.534,0.931-2.26,2.769-1.777,4.496c0.483,1.729,2.059,2.923,3.853,2.923h69.924c1.794,0,3.369-1.194,3.853-2.923
		c0.482-1.728-0.243-3.565-1.777-4.496l-8.42-5.111c-3.954-2.4-7.271-5.568-9.858-9.413c-2.581-3.843-4.264-8.114-4.999-12.693
		c-1.779-11.104-1.919-22.379-0.413-33.513l2.193-16.277c33.023-7.823,55.169-39.584,50.77-73.613l-8.624-66.759
		c-0.258-1.994-1.956-3.487-3.967-3.487H202.281C200.271,141.857,198.572,143.351,198.314,145.345z M277.067,362.143h-42.14
		c8.117-6.154,13.585-15.204,15.211-25.371c1.904-11.878,2.054-23.939,0.442-35.847l-1.856-13.781
		c0.13,0.014,0.262,0.018,0.393,0.031c0.795,0.081,1.593,0.139,2.393,0.192c0.341,0.022,0.68,0.055,1.022,0.072
		c1.154,0.059,2.31,0.094,3.468,0.094c1.158,0,2.313-0.035,3.467-0.094c0.343-0.017,0.683-0.05,1.026-0.073
		c0.798-0.053,1.595-0.111,2.389-0.192c0.131-0.013,0.263-0.018,0.394-0.032l-1.856,13.779c-1.611,11.909-1.462,23.971,0.442,35.85
		c0.92,5.732,3.025,11.077,6.259,15.891C270.589,356.332,273.588,359.509,277.067,362.143z M306.202,149.857l8.174,63.271
		c3.982,30.81-16.74,59.513-47.179,65.346c-0.001,0-0.002,0.001-0.004,0.001c-5.467,1.053-11.226,1.317-16.839,0.79
		c-1.872-0.176-3.728-0.439-5.552-0.791c-30.438-5.833-51.161-34.536-47.179-65.346l8.174-63.271H306.202z"/>
	<path class="st0" d="M256,269.593c14.512,0,28.33-6.251,37.911-17.15c9.582-10.899,14.011-25.404,12.15-39.797
		c-0.204-1.583-1.334-2.888-2.868-3.327c-1.536-0.44-3.187,0.08-4.199,1.312c-0.076,0.093-7.737,9.282-18.705,9.821
		c-7.184,0.342-14.392-3.053-21.461-10.122c-23.455-23.458-43.797-7.755-49.473-2.382c-2.199,2.082-3.521,4.847-3.722,7.785
		c-0.948,13.861,3.967,27.655,13.483,37.845C228.763,263.905,241.861,269.593,256,269.593z M213.614,216.279
		c0.064-0.929,0.505-1.824,1.241-2.521c3.884-3.677,10.051-7.941,17.755-7.941c6.031,0,13.005,2.614,20.562,10.17
		c8.763,8.764,18.07,12.946,27.603,12.452c7.327-0.384,13.369-3.493,17.612-6.549c-0.607,9.273-4.249,18.18-10.483,25.271
		c-8.063,9.172-19.691,14.433-31.903,14.433c-11.898,0-22.92-4.785-31.036-13.475C216.954,239.542,212.817,227.938,213.614,216.279z
		"/>
</g>
</svg>
