<?xml version="1.0" encoding="utf-8"?>
<!-- Generator: Adobe Illustrator 27.0.1, SVG Export Plug-In . SVG Version: 6.00 Build 0)  -->
<svg version="1.1" id="Layer_2" xmlns="http://www.w3.org/2000/svg" xmlns:xlink="http://www.w3.org/1999/xlink" x="0px" y="0px"
	 viewBox="0 0 512 512" style="enable-background:new 0 0 512 512;" xml:space="preserve">
<style type="text/css">
	.st0{fill:#FFFFFF;}
</style>
<g>
	<path class="st0" d="M318.592,305.327c4.312,0,7.819-3.508,7.819-7.819V226.56c0-14.592-11.872-26.464-26.464-26.464h-87.895
		c-14.592,0-26.464,11.872-26.464,26.464v70.948c0,4.312,3.508,7.819,7.819,7.819H318.592z M278.497,255.892H260v-5.958h18.497
		V255.892z M286.497,249.934h18.498v5.958h-18.498V249.934z M252,255.892h-18.497v-5.958H252V255.892z M225.503,255.892h-18.498
		v-5.958h18.498V255.892z M304.995,263.892v5.957h-97.99v-5.957H304.995z M304.995,241.934h-18.498v-5.957h18.498V241.934z
		 M278.497,241.934H260v-5.957h18.497V241.934z M252,241.934h-18.497v-5.957H252V241.934z M225.503,241.934h-18.498v-5.957h18.498
		V241.934z M207.005,277.849h97.99v5.957h-97.99V277.849z M304.995,227.977h-18.498v-5.958h18.498V227.977z M278.497,227.977H260
		v-5.958h18.497V227.977z M260,214.019v-5.923h18.497v5.923H260z M252,214.019h-18.497v-5.923H252V214.019z M252,222.019v5.958
		h-18.497v-5.958H252z M225.503,227.977h-18.498v-5.958h18.498V227.977z M207.005,291.806h97.99v5.521h-97.99V291.806z
		 M318.411,226.56v70.768h-5.416v-83.819C316.34,216.852,318.411,221.468,318.411,226.56z M305.746,209.042
		c-0.468,0.655-0.75,1.452-0.75,2.318v2.658h-18.498v-5.923h13.45C301.974,208.096,303.92,208.436,305.746,209.042z
		 M225.503,208.096v5.923h-18.498v-2.658c0-0.866-0.282-1.663-0.75-2.318c1.826-0.606,3.772-0.947,5.798-0.947H225.503z
		 M193.589,226.56c0-5.091,2.072-9.708,5.416-13.051v83.819h-5.416V226.56z"/>
	<path class="st0" d="M203.005,311.559c-2.209,0-4,1.791-4,4s1.791,4,4,4h24.208c2.209,0,4-1.791,4-4s-1.791-4-4-4H203.005z"/>
	<path class="st0" d="M203.005,332.207h24.208c2.209,0,4-1.791,4-4s-1.791-4-4-4h-24.208c-2.209,0-4,1.791-4,4
		S200.796,332.207,203.005,332.207z"/>
	<path class="st0" d="M306.705,311.559h-24.208c-2.209,0-4,1.791-4,4s1.791,4,4,4h24.208c2.209,0,4-1.791,4-4
		S308.914,311.559,306.705,311.559z"/>
	<path class="st0" d="M306.705,324.207h-24.208c-2.209,0-4,1.791-4,4s1.791,4,4,4h24.208c2.209,0,4-1.791,4-4
		S308.914,324.207,306.705,324.207z"/>
	<path class="st0" d="M256,311.721c-6.294,0-11.415,5.121-11.415,11.415s5.121,11.415,11.415,11.415s11.415-5.121,11.415-11.415
		S262.294,311.721,256,311.721z M256,326.551c-1.883,0-3.415-1.532-3.415-3.415s1.532-3.415,3.415-3.415s3.415,1.532,3.415,3.415
		S257.883,326.551,256,326.551z"/>
	<path class="st0" d="M302.943,365.52c5.543,0,10.052-4.51,10.052-10.053v-9.049c14.955-0.443,26.986-12.738,26.986-27.798v-93.131
		c0-21.484-17.479-38.963-38.962-38.963H210.98c-21.483,0-38.962,17.479-38.962,38.963v93.131c0,15.06,12.031,27.355,26.986,27.798
		v9.049c0,5.543,4.509,10.053,10.052,10.053s10.053-4.51,10.053-10.053v-9.028h73.781v9.028
		C292.891,361.01,297.4,365.52,302.943,365.52z M304.995,355.467c0,1.132-0.921,2.053-2.052,2.053c-1.132,0-2.053-0.921-2.053-2.053
		v-9.028h4.104V355.467z M180.019,318.619v-93.131c0-17.073,13.89-30.963,30.962-30.963h90.039c17.072,0,30.962,13.89,30.962,30.963
		v93.131c0,10.929-8.891,19.819-19.819,19.819h-3.167h-12.104h-81.781h-12.104h-3.167
		C188.909,338.438,180.019,329.548,180.019,318.619z M211.109,355.467c0,1.132-0.921,2.053-2.053,2.053
		c-1.131,0-2.052-0.921-2.052-2.053v-9.028h4.104V355.467z"/>
	<path class="st0" d="M230.041,153.309c1.562-1.562,1.562-4.095,0-5.656c-1.561-1.562-4.096-1.562-5.656,0l-4.69,4.689
		c-3.752,3.754-3.752,9.862,0.001,13.616c0.635,0.636,0.635,1.668,0,2.304l-5.091,5.091c-1.562,1.562-1.562,4.095,0,5.656
		c0.78,0.781,1.805,1.172,2.828,1.172s2.048-0.391,2.828-1.172l5.091-5.091c3.755-3.754,3.755-9.862,0.001-13.616
		c-0.635-0.635-0.635-1.669-0.001-2.304L230.041,153.309z"/>
	<path class="st0" d="M263.719,153.309c1.562-1.562,1.562-4.095-0.001-5.657c-1.562-1.561-4.095-1.562-5.657,0.001l-4.688,4.689
		c-1.819,1.818-2.82,4.236-2.82,6.809c0,2.571,1.001,4.989,2.82,6.808c0.635,0.636,0.635,1.668,0,2.304l-5.091,5.091
		c-1.562,1.562-1.562,4.095,0,5.656c0.78,0.781,1.805,1.172,2.828,1.172s2.048-0.391,2.828-1.172l5.091-5.091
		c3.755-3.754,3.755-9.862,0-13.616c-0.635-0.636-0.635-1.668,0.001-2.304L263.719,153.309z"/>
	<path class="st0" d="M297.396,153.309c1.562-1.562,1.562-4.095,0-5.656c-1.561-1.562-4.096-1.562-5.656,0l-4.689,4.689
		c-3.755,3.754-3.755,9.862,0,13.616c0.415,0.415,0.477,0.9,0.477,1.152c0,0.251-0.062,0.736-0.477,1.151l-5.091,5.091
		c-1.562,1.562-1.562,4.095,0,5.656c0.78,0.781,1.805,1.172,2.828,1.172s2.048-0.391,2.828-1.172l5.091-5.091
		c3.755-3.754,3.755-9.862,0-13.616c-0.635-0.636-0.635-1.668,0-2.304L297.396,153.309z"/>
</g>
</svg>
