<?xml version="1.0" encoding="utf-8"?>
<!-- Generator: Adobe Illustrator 27.0.1, SVG Export Plug-In . SVG Version: 6.00 Build 0)  -->
<svg version="1.1" id="Layer_2" xmlns="http://www.w3.org/2000/svg" xmlns:xlink="http://www.w3.org/1999/xlink" x="0px" y="0px"
	 viewBox="0 0 512 512" style="enable-background:new 0 0 512 512;" xml:space="preserve">
<style type="text/css">
	.st0{fill:#FFFFFF;}
</style>
<g>
	<path class="st0" d="M150.406,296.727l30.861-5.475c1.91-0.339,3.302-1.999,3.302-3.938v-7.724h21.33c2.209,0,4-1.791,4-4v-89.512
		h27.751c0.909,4.718,5.065,8.295,10.045,8.295h9.734c-0.843,1.807-1.302,3.785-1.302,5.833V209
		c-0.338,0.211-0.677,0.417-1.009,0.642c-9.313,6.306-14.874,16.777-14.874,28.013v104.09c0,9.317,7.58,16.897,16.897,16.897h33.798
		c9.317,0,16.897-7.58,16.897-16.897v-104.09c0-9.02-3.513-17.505-9.893-23.895c-1.495-1.495-3.166-2.878-4.984-4.12
		c-0.332-0.224-0.67-0.43-1.007-0.64v-8.793c0-2.299-0.563-4.515-1.617-6.493l25.929,4.766c0.643,0.115,1.282,0.173,1.894,0.173
		c0.215,0,0.426-0.008,0.633-0.021c4.868-0.289,8.879-3.84,9.756-8.637c0.512-2.781-0.091-5.594-1.697-7.92
		c-1.604-2.322-4.017-3.879-6.784-4.382l-4.668-0.857l6.544-3.732c5.054-2.892,6.822-9.358,3.939-14.421
		c-2.883-5.051-9.348-6.816-14.413-3.934l-23.387,13.34c-3.689-3.698-8.719-5.828-14.041-5.828c-6.142,0-11.797,2.777-15.542,7.521
		h-10.804c-4.979,0-9.133,3.577-10.044,8.298h-31.752c-2.209,0-4,1.791-4,4v89.512h-17.33v-7.724c0-1.939-1.392-3.6-3.301-3.938
		l-30.861-5.476c-1.172-0.207-2.362,0.113-3.269,0.873c-0.907,0.76-1.431,1.882-1.431,3.065v34.397c0,1.183,0.523,2.306,1.431,3.065
		c0.726,0.608,1.637,0.935,2.569,0.935C149.94,296.788,150.174,296.768,150.406,296.727z M266.503,200.426
		c0.007,0.003,0.013,0.005,0.02,0.007c0.519,0.212,1.05,0.395,1.586,0.562c0.134,0.042,0.269,0.083,0.404,0.122
		c0.547,0.158,1.098,0.301,1.659,0.411c0.004,0.001,0.008,0.001,0.012,0.002c0.556,0.109,1.12,0.186,1.688,0.247
		c0.144,0.016,0.287,0.03,0.432,0.042c0.575,0.05,1.153,0.084,1.737,0.084s1.162-0.034,1.737-0.084
		c0.144-0.012,0.288-0.026,0.431-0.042c0.567-0.061,1.13-0.138,1.686-0.247c0.005-0.001,0.01-0.001,0.015-0.003
		c0.56-0.11,1.11-0.253,1.656-0.41c0.138-0.04,0.274-0.081,0.411-0.124c0.527-0.165,1.048-0.344,1.559-0.552
		c0.016-0.006,0.032-0.011,0.048-0.018c0.518-0.213,1.024-0.456,1.523-0.713c0.135-0.07,0.269-0.141,0.402-0.214
		c0.125-0.068,0.252-0.129,0.375-0.199c0.047,0.298,0.07,0.602,0.07,0.908v5.134c-0.129-0.039-0.262-0.066-0.392-0.104
		c-0.597-0.175-1.198-0.335-1.805-0.477c-0.197-0.046-0.394-0.086-0.592-0.128c-0.63-0.135-1.264-0.253-1.901-0.352
		c-0.119-0.018-0.238-0.038-0.357-0.055c-1.608-0.233-3.233-0.366-4.866-0.366c-1.634,0-3.26,0.133-4.869,0.366
		c-0.117,0.017-0.233,0.036-0.349,0.053c-0.644,0.1-1.284,0.219-1.92,0.356c-0.189,0.04-0.379,0.079-0.567,0.122
		c-0.63,0.147-1.255,0.313-1.874,0.495c-0.11,0.032-0.224,0.055-0.334,0.088v-5.134c0-0.307,0.023-0.61,0.07-0.908
		c0.128,0.074,0.262,0.137,0.392,0.208c0.123,0.067,0.247,0.133,0.372,0.197C265.467,199.964,265.978,200.21,266.503,200.426z
		 M299.838,315.394h-51.593v-68.286h51.593V315.394z M290.94,350.642h-33.798c-4.906,0-8.897-3.991-8.897-8.897v-18.351h51.593
		v18.351C299.838,346.65,295.847,350.642,290.94,350.642z M299.838,237.654v1.453h-51.593v-1.453
		c0-8.577,4.246-16.573,11.355-21.386c0.778-0.526,1.58-1.005,2.402-1.436c3.667-1.946,7.83-2.975,12.038-2.975
		c4.209,0,8.371,1.028,12.061,2.986c0.801,0.418,1.602,0.897,2.363,1.412c1.392,0.951,2.679,2.015,3.821,3.157
		C297.156,224.292,299.838,230.77,299.838,237.654z M315.431,161.697c1.231-0.703,2.804-0.276,3.503,0.946
		c0.701,1.232,0.27,2.81-0.958,3.512l-16.058,9.159c-1.46,0.833-2.243,2.488-1.962,4.145c0.281,1.657,1.568,2.961,3.221,3.265
		l15.453,2.838c0.669,0.122,1.251,0.498,1.64,1.06c0.39,0.564,0.536,1.248,0.412,1.925c-0.001,0.002-0.001,0.005-0.002,0.007
		c-0.211,1.161-1.182,2.021-2.395,2.093c-0.179,0.013-0.387-0.002-0.591-0.039l-24.254-4.457c0.011-0.052,0.014-0.105,0.025-0.157
		c0.117-0.584,0.212-1.173,0.277-1.767c0.01-0.091,0.016-0.182,0.024-0.273c0.059-0.621,0.097-1.245,0.097-1.871
		c0-0.574-0.031-1.144-0.08-1.711c-0.015-0.176-0.039-0.35-0.058-0.525c-0.045-0.397-0.099-0.792-0.168-1.185
		c-0.033-0.192-0.068-0.383-0.107-0.574c-0.082-0.399-0.178-0.793-0.284-1.186c-0.043-0.158-0.079-0.318-0.126-0.475
		c-0.159-0.535-0.337-1.063-0.541-1.583c-0.007-0.017-0.011-0.036-0.018-0.053L315.431,161.697z M274.041,170.259
		c3.929,0,7.595,1.946,9.801,5.198c1.322,1.96,2.021,4.251,2.021,6.624c0,1.889-0.43,3.686-1.285,5.356
		c-0.577,1.142-1.325,2.169-2.228,3.058c-2.226,2.197-5.177,3.408-8.31,3.408c-0.392,0-0.78-0.019-1.165-0.056
		c-1.924-0.187-3.75-0.836-5.346-1.892c-0.638-0.422-1.239-0.909-1.794-1.458c-0.676-0.668-1.273-1.419-1.771-2.219
		c-1.142-1.857-1.745-4.001-1.745-6.197c0-2.204,0.604-4.347,1.749-6.197C266.146,172.361,269.911,170.259,274.041,170.259z
		 M245.461,180.023c0-1.237,1.002-2.243,2.234-2.243h6.993c-0.009,0.039-0.014,0.079-0.023,0.118
		c-0.025,0.115-0.044,0.231-0.067,0.347c-0.058,0.297-0.111,0.595-0.156,0.895c-0.021,0.139-0.039,0.278-0.057,0.417
		c-0.037,0.294-0.067,0.588-0.092,0.884c-0.011,0.128-0.023,0.255-0.031,0.383c-0.026,0.418-0.043,0.836-0.043,1.257
		c0,0.419,0.017,0.836,0.043,1.252c0.008,0.128,0.021,0.256,0.031,0.384c0.024,0.295,0.054,0.59,0.092,0.883
		c0.017,0.136,0.036,0.272,0.056,0.408c0.047,0.314,0.102,0.627,0.163,0.938c0.019,0.096,0.035,0.193,0.056,0.289
		c0.01,0.046,0.016,0.092,0.026,0.138h-6.991c-1.232,0-2.234-1.002-2.234-2.234V180.023z M153.708,263.163l22.861,4.056v16.742
		l-22.861,4.055V263.163z"/>
</g>
</svg>
