<?xml version="1.0" encoding="utf-8"?>
<!-- Generator: Adobe Illustrator 27.0.1, SVG Export Plug-In . SVG Version: 6.00 Build 0)  -->
<svg version="1.1" id="Layer_2" xmlns="http://www.w3.org/2000/svg" xmlns:xlink="http://www.w3.org/1999/xlink" x="0px" y="0px"
	 viewBox="0 0 512 512" style="enable-background:new 0 0 512 512;" xml:space="preserve">
<style type="text/css">
	.st0{fill:#FFFFFF;}
</style>
<g>
	<path class="st0" d="M212.178,148.03h-8.357c-6.794,0-12.321,5.527-12.321,12.321v10.11c-9.837,0.851-17.585,9.117-17.585,19.169
		v155.085c0,10.616,8.638,19.254,19.255,19.254h29.661c10.616,0,19.254-8.638,19.254-19.254V189.631
		c0-10.053-7.749-18.319-17.585-19.169v-10.11C224.499,153.558,218.972,148.03,212.178,148.03z M199.499,160.352
		c0-2.383,1.938-4.321,4.321-4.321h8.357c2.383,0,4.321,1.938,4.321,4.321v10.025h-17V160.352z M222.83,355.97h-29.661
		c-6.206,0-11.255-5.049-11.255-11.254v-73.543h52.17v73.543C234.084,350.921,229.035,355.97,222.83,355.97z M234.084,189.631
		v73.542h-52.17v-73.542c0-6.205,5.049-11.254,11.255-11.254h2.33h25h2.331C229.035,178.377,234.084,183.426,234.084,189.631z"/>
	<path class="st0" d="M217.214,201.173h-5.215v-5.214c0-2.209-1.791-4-4-4s-4,1.791-4,4v5.214h-5.214c-2.209,0-4,1.791-4,4
		s1.791,4,4,4h5.214v5.215c0,2.209,1.791,4,4,4s4-1.791,4-4v-5.215h5.215c2.209,0,4-1.791,4-4S219.423,201.173,217.214,201.173z"/>
	<path class="st0" d="M217.214,328.03h-18.429c-2.209,0-4,1.791-4,4s1.791,4,4,4h18.429c2.209,0,4-1.791,4-4
		S219.423,328.03,217.214,328.03z"/>
	<path class="st0" d="M299.822,363.97h8.357c6.794,0,12.321-5.527,12.321-12.321v-10.11c9.837-0.851,17.585-9.117,17.585-19.169
		V167.284c0-10.616-8.638-19.254-19.255-19.254H289.17c-10.616,0-19.254,8.638-19.254,19.254v155.085
		c0,10.053,7.749,18.319,17.585,19.169v10.11C287.501,358.442,293.028,363.97,299.822,363.97z M312.501,351.648
		c0,2.383-1.938,4.321-4.321,4.321h-8.357c-2.383,0-4.321-1.938-4.321-4.321v-10.025h17V351.648z M289.17,156.03h29.661
		c6.206,0,11.255,5.049,11.255,11.254v73.543h-52.17v-73.543C277.916,161.079,282.965,156.03,289.17,156.03z M277.916,322.369
		v-73.542h52.17v73.542c0,6.205-5.049,11.254-11.255,11.254h-2.33h-25h-2.331C282.965,333.623,277.916,328.574,277.916,322.369z"/>
	<path class="st0" d="M294.786,310.827h5.215v5.214c0,2.209,1.791,4,4,4s4-1.791,4-4v-5.214h5.214c2.209,0,4-1.791,4-4s-1.791-4-4-4
		h-5.214v-5.215c0-2.209-1.791-4-4-4s-4,1.791-4,4v5.215h-5.215c-2.209,0-4,1.791-4,4S292.577,310.827,294.786,310.827z"/>
	<path class="st0" d="M294.786,183.97h18.429c2.209,0,4-1.791,4-4s-1.791-4-4-4h-18.429c-2.209,0-4,1.791-4,4
		S292.577,183.97,294.786,183.97z"/>
</g>
</svg>
