<?xml version="1.0" encoding="utf-8"?>
<!-- Generator: Adobe Illustrator 27.0.1, SVG Export Plug-In . SVG Version: 6.00 Build 0)  -->
<svg version="1.1" id="Layer_2" xmlns="http://www.w3.org/2000/svg" xmlns:xlink="http://www.w3.org/1999/xlink" x="0px" y="0px"
	 viewBox="0 0 512 512" style="enable-background:new 0 0 512 512;" xml:space="preserve">
<style type="text/css">
	.st0{fill:#FFFFFF;}
</style>
<g>
	<path class="st0" d="M267.44,351.45c0.1,0.24,0.22,0.47,0.37,0.69c0.14,0.22,0.31,0.42,0.5,0.61c0.74,0.74,1.77,1.17,2.82,1.17
		c0.27,0,0.53-0.03,0.79-0.08c0.25-0.05,0.5-0.13,0.74-0.23c0.25-0.1,0.48-0.22,0.69-0.37c0.22-0.14,0.43-0.31,0.61-0.49
		c0.19-0.19,0.35-0.39,0.5-0.61c0.14-0.22,0.27-0.45,0.37-0.69c0.1-0.24,0.17-0.5,0.23-0.75c0.05-0.26,0.07-0.52,0.07-0.78
		c0-1.06-0.42-2.09-1.17-2.83c-0.18-0.19-0.39-0.35-0.61-0.5c-0.21-0.14-0.44-0.27-0.69-0.37c-0.24-0.1-0.49-0.17-0.74-0.22
		c-1.31-0.27-2.69,0.16-3.61,1.09c-0.75,0.74-1.18,1.77-1.18,2.83c0,0.26,0.03,0.52,0.08,0.78
		C267.26,350.95,267.34,351.21,267.44,351.45z"/>
	<path class="st0" d="M257.97,348.39c-0.1-0.24-0.22-0.48-0.37-0.69c-0.14-0.22-0.31-0.43-0.5-0.61c-0.18-0.19-0.38-0.35-0.6-0.5
		c-0.22-0.14-0.45-0.27-0.69-0.37c-0.25-0.1-0.5-0.17-0.75-0.22c-0.52-0.11-1.05-0.11-1.57,0c-0.25,0.05-0.5,0.12-0.74,0.22
		c-0.25,0.1-0.48,0.23-0.69,0.37c-0.22,0.15-0.43,0.31-0.61,0.5c-0.75,0.74-1.17,1.77-1.17,2.83c0,0.26,0.02,0.52,0.07,0.78
		c0.06,0.25,0.13,0.51,0.23,0.75c0.1,0.24,0.23,0.47,0.37,0.69c0.15,0.22,0.31,0.42,0.5,0.61c0.18,0.18,0.39,0.35,0.61,0.49
		c0.21,0.15,0.44,0.27,0.69,0.37c0.24,0.1,0.49,0.18,0.74,0.23c0.26,0.05,0.53,0.08,0.79,0.08c0.26,0,0.52-0.03,0.78-0.08
		c0.25-0.05,0.5-0.13,0.75-0.23c0.24-0.1,0.47-0.22,0.69-0.37c0.22-0.14,0.42-0.31,0.6-0.49c0.19-0.19,0.36-0.39,0.5-0.61
		c0.15-0.22,0.27-0.45,0.37-0.69c0.1-0.24,0.18-0.5,0.23-0.75c0.05-0.26,0.08-0.52,0.08-0.78c0-0.26-0.03-0.53-0.08-0.78
		C258.15,348.88,258.07,348.63,257.97,348.39z"/>
	<path class="st0" d="M233.42,349.92c0,0.26,0.02,0.52,0.08,0.78c0.05,0.25,0.12,0.51,0.22,0.75c0.1,0.24,0.23,0.47,0.37,0.69
		c0.15,0.22,0.32,0.42,0.5,0.61c0.74,0.74,1.77,1.17,2.83,1.17c0.26,0,0.52-0.03,0.78-0.08c0.26-0.05,0.51-0.13,0.75-0.23
		c0.24-0.1,0.47-0.22,0.69-0.37c0.22-0.14,0.42-0.31,0.61-0.49c0.18-0.19,0.35-0.39,0.49-0.61c0.15-0.22,0.27-0.45,0.37-0.69
		c0.1-0.24,0.18-0.5,0.23-0.75c0.05-0.26,0.08-0.52,0.08-0.78c0-1.06-0.43-2.09-1.17-2.83c-0.19-0.19-0.39-0.35-0.61-0.5
		c-0.22-0.14-0.45-0.27-0.69-0.37c-0.24-0.1-0.49-0.17-0.75-0.22c-1.3-0.27-2.68,0.16-3.61,1.09
		C233.85,347.83,233.42,348.86,233.42,349.92z"/>
	<path class="st0" d="M294.713,285.422c0.02-0.111,0.034-0.223,0.044-0.335l1.451-16.424c19.046-0.481,34.395-16.112,34.395-35.272
		c0-16.789-12.113-31.258-28.226-34.572l1.68-19.019c0.099-1.118-0.276-2.226-1.034-3.053s-1.828-1.299-2.95-1.299H208.48
		c-1.122,0-2.192,0.471-2.95,1.299s-1.133,1.936-1.034,3.053l9.299,105.287c0.01,0.112,0.024,0.224,0.044,0.334
		c1.008,5.783,4.243,10.676,8.731,13.874c-4.488,3.198-7.723,8.091-8.731,13.874l-9.299,53.357
		c-0.203,1.164,0.119,2.357,0.879,3.261c0.76,0.904,1.88,1.426,3.062,1.426h91.592c1.181,0,2.302-0.522,3.062-1.426
		c0.76-0.904,1.082-2.098,0.879-3.261l-9.299-53.357c-1.008-5.782-4.243-10.676-8.732-13.874
		C290.47,296.098,293.706,291.205,294.713,285.422z M322.603,233.392c0,14.51-11.382,26.407-25.685,27.243l4.751-53.786
		C313.68,209.748,322.603,220.717,322.603,233.392z M295.704,183.449l-1.627,18.416c0,0.001-0.001,0.003-0.001,0.004
		c0,0.001,0,0.003,0,0.004l-2.47,27.968c-5.18,0.511-17.507,0.792-36.243-4.498c-18.478-5.216-31.269,0.528-38.316,5.63
		l-4.198-47.525H295.704z M286.833,314.544l8.482,48.67h-82.078l8.482-48.671c1.136-6.517,6.762-11.247,13.377-11.247h38.357
		C280.07,303.296,285.696,308.027,286.833,314.544z M273.455,295.296h-38.357c-6.562,0-12.151-4.655-13.349-11.092l-3.84-43.475
		c3.321-3.452,15.028-13.407,35.281-7.687c18.329,5.175,31.053,5.382,37.702,4.897l-2.321,26.278c0,0,0,0.001,0,0.001
		s0,0.001,0,0.001l-1.765,19.984C285.606,290.641,280.017,295.296,273.455,295.296z"/>
	<path class="st0" d="M300.072,157.683H274.78c-1.873-9.615-10.349-16.897-20.504-16.897c-10.154,0-18.631,7.283-20.503,16.897
		H208.48c-2.209,0-4,1.791-4,4s1.791,4,4,4h91.592c2.209,0,4-1.791,4-4S302.281,157.683,300.072,157.683z M254.276,148.786
		c5.715,0,10.567,3.739,12.255,8.897h-24.509C243.71,152.525,248.561,148.786,254.276,148.786z"/>
	<path class="st0" d="M254.276,337.255c6.975,0,12.649-5.674,12.649-12.649s-5.674-12.648-12.649-12.648
		s-12.648,5.674-12.648,12.648S247.301,337.255,254.276,337.255z M254.276,319.958c2.563,0,4.649,2.085,4.649,4.648
		c0,2.563-2.085,4.649-4.649,4.649c-2.563,0-4.648-2.085-4.648-4.649C249.627,322.043,251.713,319.958,254.276,319.958z"/>
</g>
</svg>
