<svg width="22" height="22" viewBox="0 0 22 22" fill="none" xmlns="http://www.w3.org/2000/svg">
<g clip-path="url(#clip0_1740_1633)">
<path d="M11 21.9999C8.78571 21.9999 6.60714 21.9999 4.39286 21.9999C3.67857 21.9999 2.96429 21.9285 2.28571 21.8214C1.03571 21.5714 0.357143 20.8571 0.142857 19.5714C0.0714286 18.8928 0 18.2499 0 17.6071C0 13.2142 0 8.85707 0 4.46422C0 3.74993 0.0714286 2.99993 0.178571 2.28564C0.392857 1.03564 1.14286 0.321359 2.39286 0.178502C3.21429 0.0713588 4.07143 0.0356445 4.89286 0.0356445C9.10714 0.0356445 13.3571 0.0356445 17.5714 0.0356445C18.2857 0.0356445 19 0.107073 19.6786 0.214216C20.9643 0.464216 21.6429 1.1785 21.8214 2.46422C21.9286 3.14279 21.9643 3.85707 21.9643 4.57136C21.9643 8.9285 21.9643 13.3214 21.9643 17.6785C21.9643 18.3571 21.9286 19.0356 21.7857 19.6785C21.5357 20.9642 20.8214 21.6428 19.5357 21.8214C18.7857 21.9285 18 21.9642 17.25 21.9642C15.2143 21.9999 13.1071 21.9999 11 21.9999ZM1.71429 10.9999C1.71429 13.3571 1.71429 15.7142 1.71429 18.0714C1.71429 18.5356 1.78571 18.9999 1.85714 19.4285C1.92857 19.8214 2.17857 20.0714 2.57143 20.1428C3.03571 20.2142 3.53571 20.2856 4 20.2856C8.60714 20.2856 13.25 20.2856 17.8571 20.2856C18.3929 20.2856 18.9286 20.2142 19.4643 20.1428C19.8571 20.1071 20.1071 19.8571 20.1786 19.4285C20.25 18.9642 20.3214 18.4999 20.3214 18.0356C20.3571 16.1428 20.3571 14.2499 20.3571 12.3571C20.3571 9.57136 20.3571 6.74993 20.3214 3.96422C20.3214 3.46422 20.25 2.99993 20.1786 2.49993C20.1071 2.14279 19.8929 1.89279 19.5 1.85707C19.0714 1.78564 18.6071 1.71422 18.1786 1.71422C16.1786 1.6785 14.1786 1.6785 12.1786 1.6785C9.39286 1.6785 6.60714 1.6785 3.82143 1.71422C3.42857 1.71422 3 1.78564 2.57143 1.85707C2.14286 1.9285 1.89286 2.1785 1.85714 2.57136C1.78571 3.14279 1.71429 3.71422 1.71429 4.28564C1.67857 6.53564 1.71429 8.74993 1.71429 10.9999Z" fill="#0061C1"/>
<path d="M12.7143 13.0357C12.1071 13.6429 11.5357 14.2143 10.9286 14.8214C11.1071 15 11.3214 15.2143 11.5357 15.4286C11.9286 15.8214 11.9286 16.3214 11.5714 16.6786C11.2143 17.0357 10.7143 17 10.3214 16.6071C9.17857 15.4643 8.03571 14.3214 6.89286 13.1786C6.85714 13.1429 6.82143 13.0714 6.75 13C6.67857 13.0714 6.60714 13.1071 6.57143 13.1786C5.96429 13.7857 5.39286 14.3571 4.78571 14.9643C4.53571 15.2143 4.25 15.2857 3.89286 15.1786C3.57143 15.0714 3.35714 14.8214 3.32143 14.4643C3.28571 14.2143 3.35714 14 3.53571 13.8214C4.39286 12.9643 5.25 12.1071 6.10714 11.25C6.46429 10.9286 6.96429 10.9286 7.32143 11.2857C8.03571 12 8.78571 12.7143 9.5 13.4643C9.53571 13.5 9.57143 13.5714 9.64286 13.6429C9.71429 13.5714 9.78571 13.5357 9.82143 13.4643C10.5357 12.75 11.25 12.0357 11.9643 11.3214C12.3929 10.8929 12.8571 10.8929 13.3214 11.3214C14.9643 12.9643 16.6429 14.6071 18.2857 16.2857C18.7857 16.7857 18.6071 17.5357 18 17.75C17.6429 17.8571 17.3571 17.75 17.1071 17.5C16.2857 16.6786 15.4643 15.8571 14.6429 15.0357C14 14.3571 13.3571 13.6786 12.7143 13.0357Z" fill="#0061C1"/>
<path d="M15.2504 5.07153C16.179 5.07153 16.929 5.82153 16.929 6.7501C16.929 7.67868 16.179 8.42868 15.2147 8.42868C14.2861 8.42868 13.5361 7.67868 13.5361 6.7501C13.5361 5.82153 14.3218 5.07153 15.2504 5.07153Z" fill="#0061C1"/>
</g>
<defs>
<clipPath id="clip0_1740_1633">
<rect width="22" height="22" fill="white"/>
</clipPath>
</defs>
</svg>
