<svg width="19" height="27" viewBox="0 0 19 27" fill="none" xmlns="http://www.w3.org/2000/svg">
<g clip-path="url(#clip0_1579_1167)">
<path d="M18.2969 17.1851C18.2278 21.808 14.9804 25.652 10.4518 26.3932C6.50723 27.0339 2.46848 24.7978 0.816544 21.0606C-0.301493 18.5167 -0.213558 15.954 0.728609 13.385C1.4949 11.2872 2.63807 9.38398 3.85032 7.53105C5.4206 5.1191 7.02228 2.73228 8.6114 0.332898C8.89405 -0.0942175 9.30232 -0.119342 9.57241 0.295211C11.5698 3.33527 13.5923 6.36276 15.5457 9.43422C16.601 11.0862 17.474 12.8449 17.9137 14.7732C18.0959 15.5646 18.1712 16.3811 18.2969 17.1851ZM9.12017 1.62053C9.05108 1.71474 9.00711 1.77127 8.96314 1.8278C7.89535 3.40436 6.82128 4.97464 5.75978 6.55748C4.49099 8.45437 3.23477 10.3575 2.28632 12.4429C1.4635 14.2581 0.954729 16.1362 1.17457 18.1587C1.64565 22.6183 5.6844 25.8405 10.1251 25.2877C14.2581 24.7727 17.5745 20.9161 17.0532 16.2241C16.8648 14.5345 16.2492 12.9831 15.4767 11.4881C14.3523 9.3086 12.9642 7.28608 11.5949 5.25729C10.7784 4.06388 9.96184 2.86418 9.12017 1.62053Z" fill="#3195E7"/>
<path d="M3.70544 14.9804C4.05718 15.0684 4.39008 15.15 4.73554 15.238C4.67273 15.6211 4.58479 15.9854 4.55339 16.356C4.39636 18.1336 4.84232 19.7101 6.22417 20.9098C7.63113 22.1409 9.69762 22.3231 11.4249 21.4123C11.7578 21.2364 12.0656 21.0292 12.4111 20.8219C12.6372 21.0857 12.857 21.3558 13.0831 21.6259C11.0104 23.3909 8.17759 23.5605 6.06714 22.2037C3.53585 20.5706 2.9517 17.273 3.70544 14.9804Z" fill="#3195E7"/>
</g>
<defs>
<clipPath id="clip0_1579_1167">
<rect width="18.2969" height="26.5" fill="white"/>
</clipPath>
</defs>
</svg>
