<svg width="47" height="47" viewBox="0 0 47 47" fill="none" xmlns="http://www.w3.org/2000/svg">
<circle cx="23.5" cy="23.5" r="23.5" fill="#0061C1"/>
<path d="M29.0768 22.1002C29.5338 22.0994 29.9209 22.2745 30.273 22.5903C30.59 22.9413 30.7665 23.3277 30.7673 23.7847L30.7792 30.5347C30.78 31.0269 30.6049 31.4139 30.2891 31.7309C29.9381 32.0831 29.5517 32.2244 29.0946 32.2252L16.7196 32.247C16.2275 32.2479 15.8405 32.1079 15.5235 31.7569C15.1714 31.4411 15.03 31.0547 15.0292 30.5625L15.0173 23.8125C15.0165 23.3555 15.1564 22.9685 15.5074 22.6163C15.8232 22.2993 16.2096 22.1229 16.7018 22.122L17.2643 22.121L17.2603 19.871C17.2586 18.8867 17.503 17.937 17.9937 17.0572C18.4844 16.2126 19.1863 15.5083 20.0643 15.0145C20.9072 14.5208 21.8559 14.2379 22.8754 14.2361C23.895 14.2343 24.8447 14.5139 25.6893 15.0046C26.534 15.5305 27.2383 16.2323 27.732 17.0752C28.2257 17.9533 28.5087 18.902 28.5104 19.8864L28.5143 22.1012L29.0768 22.1002ZM18.3853 19.869L18.3893 22.119L27.3893 22.1032L27.3853 19.8532C27.3839 19.0446 27.1717 18.3067 26.7837 17.6042C26.3606 16.9019 25.8323 16.3755 25.1285 15.9548C24.4247 15.5693 23.686 15.3597 22.8774 15.3611C22.0337 15.3626 21.2958 15.5748 20.5933 15.9628C19.8909 16.3859 19.3645 16.9142 18.979 17.618C18.5584 18.3219 18.3839 19.0605 18.3853 19.869ZM29.0926 31.1002C29.2333 31.1 29.3738 31.0645 29.4791 30.9589C29.5844 30.8532 29.6545 30.7125 29.6542 30.5367L29.6423 23.7867C29.642 23.6461 29.5715 23.5056 29.4658 23.4003C29.3601 23.295 29.2194 23.225 29.0788 23.2252L16.7038 23.247C16.528 23.2473 16.3875 23.3179 16.2822 23.4235C16.1769 23.5292 16.142 23.6699 16.1423 23.8105L16.1542 30.5605C16.1545 30.7363 16.1899 30.8768 16.2955 30.9821C16.4012 31.0874 16.5419 31.1223 16.7177 31.122L29.0926 31.1002Z" fill="white"/>
</svg>
