<svg width="172" height="172" viewBox="0 0 172 172" fill="none" xmlns="http://www.w3.org/2000/svg">
<circle r="84.806" transform="matrix(-1 0 0 1 86.0978 86.1248)" stroke="#C6C6C6" stroke-dasharray="2 2"/>
<g clip-path="url(#clip0_1919_27)">
<path d="M120.011 52.5344C120.011 48.7723 120.011 45.1042 120.011 41.3823C114.296 41.3823 108.582 41.3823 102.841 41.3823C102.841 45.0773 102.841 48.7588 102.841 52.5344C103.468 52.5344 104.109 52.5344 104.75 52.5344C105.658 52.5478 105.952 52.8434 105.952 53.7571C105.952 56.9146 105.952 60.0721 105.952 63.2297C105.952 63.7537 105.898 64.2239 105.337 64.4523C104.803 64.6673 104.456 64.3583 104.109 64.009C98.6482 58.6076 93.1873 53.2197 87.7265 47.8183C86.4981 46.5956 85.7103 46.5956 84.4953 47.8048C71.4907 60.6499 58.4861 73.5084 45.4682 86.3534C44.9742 86.8371 44.5336 87.3343 44.587 88.0733C44.6537 89.0138 45.3747 89.6722 46.3895 89.6856C48.0584 89.699 49.7274 89.6856 51.3964 89.6991C52.4645 89.6991 52.7315 89.9812 52.7315 91.0561C52.7315 103.686 52.7315 116.316 52.7315 128.946C52.7315 130.733 53.3057 131.298 55.0948 131.298C55.6689 131.298 56.2564 131.298 56.8305 131.298C57.4047 131.311 57.7651 131.607 57.7785 132.198C57.7919 132.789 57.4314 133.125 56.8706 133.152C55.936 133.179 55.0013 133.219 54.0667 133.112C52.2642 132.923 50.9958 131.526 50.8623 129.712C50.8356 129.417 50.8489 129.134 50.8489 128.839C50.8489 116.719 50.8489 104.613 50.8489 92.4938C50.8489 92.2116 50.8489 91.9295 50.8489 91.5667C49.2868 91.5667 47.7914 91.5801 46.3094 91.5667C44.4268 91.5398 42.9981 90.2902 42.7311 88.4226C42.5575 87.1596 43.0248 86.1116 43.9327 85.2248C48.0451 81.167 52.1574 77.0959 56.2698 73.0381C65.2288 64.1836 74.1878 55.3426 83.1335 46.4881C85.0962 44.5533 87.0455 44.5667 89.0082 46.5015C93.8149 51.258 98.6348 56.0144 103.441 60.7574C103.602 60.9052 103.762 61.053 103.989 61.2814C103.989 58.9435 103.989 56.7131 103.989 54.402C103.335 54.402 102.72 54.4155 102.093 54.402C101.185 54.3886 100.878 54.0796 100.878 53.1928C100.878 49.0275 100.878 44.8623 100.878 40.6971C100.878 39.77 101.198 39.4609 102.133 39.4609C108.275 39.4609 114.417 39.4609 120.558 39.4609C121.533 39.4609 121.84 39.77 121.84 40.7374C121.84 44.8757 121.84 49.0275 121.84 53.1659C121.84 54.1064 121.546 54.3886 120.598 54.4155C120.064 54.4289 119.53 54.4155 118.903 54.4155C118.903 54.7245 118.903 54.9798 118.903 55.2351C118.903 61.9532 118.903 68.6713 118.889 75.3895C118.889 75.8866 119.05 76.2091 119.397 76.545C122.348 79.4338 125.272 82.3494 128.222 85.2382C129.17 86.1788 129.624 87.294 129.357 88.6376C129.023 90.3306 127.648 91.5264 125.926 91.5532C124.417 91.5801 122.908 91.5532 121.319 91.5532C121.306 91.8757 121.279 92.1579 121.279 92.44C121.279 104.694 121.279 116.934 121.279 129.188C121.279 131.11 120.331 132.507 118.689 132.977C118.249 133.098 117.768 133.152 117.301 133.152C99.1689 133.165 81.0239 133.165 62.8922 133.152C62.6652 133.152 62.4383 133.152 62.2246 133.098C61.7573 132.977 61.4903 132.641 61.517 132.171C61.5437 131.66 61.8374 131.338 62.3581 131.298C62.5985 131.271 62.8522 131.284 63.0925 131.284C81.0773 131.284 99.0487 131.284 117.034 131.284C118.823 131.284 119.397 130.706 119.397 128.919C119.397 116.357 119.397 103.794 119.397 91.2308C119.397 89.8872 119.597 89.6856 120.946 89.6856C122.441 89.6856 123.923 89.6722 125.418 89.6991C126.313 89.7125 127.061 89.4975 127.421 88.5838C127.768 87.7105 127.381 87.0387 126.767 86.434C123.723 83.4512 120.705 80.4415 117.661 77.4586C117.207 77.0152 117.02 76.5584 117.02 75.9269C117.034 68.6041 117.034 61.2814 117.034 53.9586C117.034 52.7763 117.274 52.5344 118.422 52.5344C118.956 52.5344 119.437 52.5344 120.011 52.5344Z" fill="#3E4CC2"/>
<path d="M55.5222 133.313C55.0416 133.313 54.5609 133.3 54.0802 133.246C52.2377 133.045 50.9025 131.634 50.7557 129.726C50.7423 129.497 50.7423 129.269 50.7423 129.041C50.7423 128.973 50.7423 128.906 50.7423 128.839C50.7423 116.719 50.7423 104.613 50.7423 92.4939V91.7012C50.3017 91.7012 49.8611 91.7012 49.4338 91.7012C48.3657 91.7012 47.3643 91.7012 46.3362 91.6878C44.3869 91.6609 42.9048 90.3576 42.6244 88.4228C42.4509 87.2001 42.8648 86.0848 43.8528 85.104C46.9638 82.0405 50.1148 78.9233 53.159 75.9136L83.0669 46.3673C85.0697 44.3921 87.1125 44.3921 89.1286 46.3807C93.9352 51.1371 98.7552 55.8936 103.562 60.6366C103.655 60.7306 103.762 60.8247 103.882 60.9456V54.5096C103.722 54.5096 103.562 54.5096 103.415 54.5096C102.974 54.5096 102.547 54.5096 102.12 54.5096C101.145 54.4962 100.771 54.1334 100.771 53.166C100.771 49.1889 100.771 44.9833 100.771 40.6703C100.771 39.6626 101.145 39.2998 102.16 39.2998C108.088 39.2998 114.11 39.2998 120.585 39.2998C121.64 39.2998 122.001 39.6626 122.001 40.7106C122.001 45.1446 122.001 49.2158 122.001 53.1391C122.001 54.1469 121.653 54.4962 120.625 54.5096C120.265 54.5096 119.891 54.5096 119.504 54.5096C119.357 54.5096 119.21 54.5096 119.05 54.5096V59.1855C119.05 64.4793 119.05 69.9613 119.037 75.3493C119.037 75.7927 119.17 76.0883 119.491 76.4107C121.613 78.4934 123.763 80.6163 125.846 82.672C126.674 83.4916 127.488 84.2978 128.316 85.1174C129.344 86.1386 129.745 87.321 129.491 88.6377C129.144 90.4113 127.715 91.634 125.926 91.6609C124.885 91.6743 123.857 91.6743 122.775 91.6743C122.334 91.6743 121.894 91.6743 121.453 91.6743C121.453 91.7415 121.453 91.7953 121.44 91.849C121.427 92.0505 121.413 92.2386 121.413 92.4268C121.413 97.8281 121.413 103.216 121.413 108.617C121.413 115.47 121.413 122.322 121.413 129.175C121.413 131.177 120.438 132.601 118.729 133.085C118.316 133.206 117.835 133.26 117.314 133.26C98.7953 133.273 80.2897 133.273 62.9058 133.26H62.8791C62.6521 133.26 62.4251 133.26 62.2115 133.206C61.6774 133.071 61.3703 132.668 61.4104 132.131C61.4371 131.553 61.7976 131.177 62.3717 131.137C62.5586 131.123 62.7455 131.123 62.9325 131.123C62.9992 131.123 63.0526 131.123 63.1194 131.123H117.06C118.77 131.123 119.29 130.599 119.29 128.893V91.2041C119.29 89.7933 119.557 89.5245 120.973 89.5245C121.4 89.5245 121.84 89.5245 122.268 89.5245C123.309 89.5245 124.391 89.5111 125.445 89.538C126.473 89.5648 127.034 89.2558 127.328 88.5168C127.608 87.8181 127.421 87.2135 126.7 86.5148C125.352 85.1846 124.003 83.8544 122.655 82.5242C120.999 80.885 119.29 79.192 117.595 77.5394C117.114 77.0691 116.914 76.5854 116.914 75.9136C116.927 70.3241 116.927 64.6271 116.927 59.1317V53.9453C116.927 52.6958 117.221 52.3867 118.449 52.3867C118.783 52.3867 119.103 52.3867 119.464 52.3867H119.851V41.5034H102.961V52.3867C103.108 52.3867 103.255 52.3867 103.415 52.3867C103.842 52.3867 104.296 52.3867 104.737 52.3867C105.711 52.4002 106.072 52.7495 106.072 53.7438C106.072 55.4099 106.072 57.076 106.072 58.7286C106.072 60.2201 106.072 61.7115 106.072 63.2163C106.072 63.7269 106.019 64.3047 105.378 64.56C104.737 64.8153 104.31 64.3987 104.002 64.0897C100.05 60.1797 96.0982 56.2698 92.1461 52.3733L87.6332 47.9124C86.4449 46.7435 85.764 46.7301 84.589 47.899L81.7985 50.6534C69.7152 62.5848 57.6452 74.5162 45.5618 86.4476C45.0812 86.9313 44.6806 87.3882 44.7207 88.0734C44.7874 88.9602 45.455 89.5514 46.3896 89.5648C47.4578 89.5783 48.5526 89.5783 49.6074 89.5783C50.2082 89.5783 50.7957 89.5783 51.3965 89.5783C52.5448 89.5783 52.8652 89.9142 52.8652 91.0697C52.8652 99.9914 52.8652 108.9 52.8652 117.821V128.96C52.8652 130.666 53.386 131.177 55.095 131.177C55.2552 131.177 55.4288 131.177 55.589 131.177C55.9896 131.177 56.4168 131.177 56.8307 131.177C57.4983 131.19 57.8989 131.567 57.9122 132.198C57.9256 132.843 57.5384 133.26 56.8708 133.286C56.4435 133.3 55.9896 133.313 55.5222 133.313ZM50.8892 91.4325H51.0227V92.4939C51.0227 104.613 51.0227 116.719 51.0227 128.839C51.0227 128.906 51.0227 128.973 51.0227 129.041C51.0227 129.256 51.0227 129.484 51.036 129.699C51.1696 131.473 52.3979 132.789 54.1203 132.977C55.0416 133.071 55.9896 133.045 56.8975 133.018C57.4048 133.004 57.6852 132.709 57.6719 132.198C57.6585 131.701 57.3781 131.446 56.8441 131.432C56.4302 131.419 56.0163 131.432 55.6157 131.432C55.4421 131.432 55.2819 131.432 55.1083 131.432C53.2391 131.432 52.6116 130.801 52.6116 128.946V117.808C52.6116 108.886 52.6116 99.9779 52.6116 91.0563C52.6116 90.062 52.3979 89.8336 51.4099 89.8336C50.8091 89.8336 50.2216 89.8336 49.6208 89.8336C48.566 89.8336 47.4711 89.8336 46.403 89.8201C45.3215 89.8067 44.5471 89.108 44.467 88.0868C44.4136 87.2941 44.8675 86.7701 45.3883 86.2595C57.4582 74.3281 69.5282 62.3967 81.6116 50.4653L84.4021 47.7109C85.6705 46.4479 86.5384 46.4613 87.8201 47.7243L92.3464 52.1986C96.2985 56.1086 100.251 60.0051 104.203 63.915C104.563 64.2644 104.844 64.5062 105.284 64.3315C105.725 64.1569 105.805 63.8075 105.805 63.2298C105.805 61.7384 105.805 60.2335 105.805 58.7421C105.805 57.076 105.805 55.4233 105.805 53.7572C105.805 52.9107 105.578 52.6823 104.737 52.6689C104.296 52.6689 103.842 52.6689 103.415 52.6689C103.215 52.6689 103.028 52.6689 102.828 52.6689H102.694V41.2481H120.131V52.6689H119.477C119.13 52.6689 118.796 52.6689 118.462 52.6689C117.381 52.6689 117.207 52.857 117.207 53.9588V59.1452C117.207 64.6406 117.207 70.3376 117.194 75.927C117.194 76.5182 117.368 76.9482 117.795 77.3647C119.491 79.0174 121.2 80.7103 122.855 82.3496C124.204 83.6798 125.552 85.0099 126.901 86.3401C127.435 86.8641 127.996 87.6031 127.582 88.6377C127.141 89.7395 126.153 89.847 125.445 89.8336C124.391 89.8201 123.309 89.8201 122.268 89.8201C121.84 89.8201 121.4 89.8201 120.973 89.8201C119.704 89.8201 119.557 89.9679 119.557 91.2309V128.92C119.557 130.787 118.93 131.419 117.06 131.419H63.1194C63.0526 131.419 62.9992 131.419 62.9325 131.419C62.7589 131.419 62.572 131.419 62.3984 131.432C61.9578 131.473 61.7041 131.728 61.6774 132.185C61.6507 132.588 61.8643 132.87 62.2782 132.977C62.4652 133.031 62.6788 133.018 62.8791 133.031H62.9058C80.2897 133.031 98.7953 133.031 117.314 133.031C117.822 133.031 118.275 132.977 118.663 132.856C120.238 132.4 121.146 131.069 121.146 129.202C121.146 122.349 121.146 115.497 121.146 108.644C121.146 103.243 121.146 97.855 121.146 92.4536C121.146 92.2655 121.159 92.064 121.173 91.8624C121.173 91.7684 121.186 91.6609 121.186 91.5534V91.419H121.32C121.814 91.419 122.294 91.419 122.775 91.419C123.857 91.419 124.885 91.4325 125.926 91.4056C127.582 91.3787 128.903 90.2501 129.224 88.5974C129.464 87.3613 129.104 86.2864 128.129 85.319C127.301 84.4994 126.487 83.6932 125.659 82.8736C123.576 80.8178 121.427 78.6949 119.304 76.6123C118.916 76.2361 118.756 75.8733 118.756 75.3627C118.77 69.9748 118.77 64.5062 118.77 59.1989V54.2544H118.903C119.103 54.2544 119.304 54.2544 119.491 54.2544C119.878 54.2544 120.238 54.2544 120.599 54.2544C121.48 54.2409 121.72 54.0125 121.72 53.1391C121.72 49.2158 121.72 45.1446 121.72 40.7106C121.72 39.8104 121.467 39.5685 120.572 39.5685C114.096 39.5685 108.075 39.5685 102.147 39.5685C101.292 39.5685 101.025 39.8238 101.025 40.6703C101.025 44.9833 101.025 49.1889 101.025 53.166C101.025 53.9722 101.279 54.2275 102.107 54.2409C102.534 54.2544 102.948 54.2409 103.388 54.2409C103.589 54.2409 103.789 54.2409 103.989 54.2409H104.123V61.5637L103.896 61.3487C103.816 61.2681 103.749 61.2009 103.682 61.1472C103.549 61.0262 103.455 60.9322 103.348 60.8247C98.5416 56.0683 93.7216 51.3253 88.915 46.5688C86.9923 44.6743 85.1364 44.6609 83.2271 46.5554L53.3593 76.1286C50.3151 79.1383 47.164 82.2555 44.0531 85.319C43.1185 86.2461 42.7313 87.2538 42.8915 88.4093C43.1452 90.1963 44.5337 91.419 46.3362 91.4459C47.3643 91.4593 48.3657 91.4593 49.4338 91.4593C49.9145 91.4325 50.3952 91.4325 50.8892 91.4325Z" fill="#231F20"/>
<path d="M86.0978 89.1348C86.6051 88.5839 87.0591 88.033 87.5531 87.5224C89.142 85.9369 91.0112 84.8755 93.1876 84.3649C93.9887 84.1768 94.496 84.4052 94.6295 84.9964C94.7497 85.5742 94.4026 85.9907 93.6415 86.1654C90.8777 86.8372 88.7948 88.4361 87.2594 90.8009C87.206 90.8815 87.1659 90.9487 87.1259 91.0293C86.4316 92.1445 85.764 92.1445 85.083 91.0562C83.828 89.0407 82.1724 87.4956 79.956 86.6222C77.2723 85.5742 74.5886 85.6145 71.985 86.8641C68.7405 88.4227 67.4988 91.2443 67.4187 94.684C67.3386 97.6534 68.2331 100.408 69.4615 103.082C71.1572 106.777 73.8409 109.625 76.9118 112.178C79.6622 114.462 82.5996 116.478 85.6839 118.291C85.8842 118.412 86.258 118.453 86.4316 118.345C90.6107 115.859 94.6028 113.092 98.0743 109.625C101.532 106.185 103.722 102.074 104.577 97.2503C104.884 95.5439 104.857 93.824 104.416 92.1176C103.722 89.4304 102.093 87.5896 99.5296 86.5685C99.3694 86.5013 99.1958 86.461 99.0223 86.3938C98.4882 86.1654 98.2612 85.6817 98.4214 85.2114C98.595 84.7008 99.089 84.459 99.6632 84.6471C101.933 85.3995 103.789 86.7431 105.031 88.8257C106.312 90.9755 106.753 93.3403 106.553 95.7992C106.099 101.644 103.629 106.575 99.5697 110.727C95.7644 114.623 91.305 117.66 86.6318 120.374C86.3515 120.535 85.804 120.562 85.5237 120.401C80.5702 117.499 75.8169 114.287 71.8915 110.028C68.2198 106.024 66.0034 101.321 65.5628 95.8529C65.4293 94.254 65.5895 92.6685 66.0702 91.1368C67.4187 86.9178 70.4495 84.7142 74.6954 84.1634C79.1549 83.5856 82.7999 85.2248 85.6572 88.6914C85.7506 88.8123 85.8574 88.9332 85.9509 89.0542C86.0043 89.081 86.031 89.0945 86.0978 89.1348Z" fill="#3E4CC2"/>
<path d="M86.0844 120.656C85.8708 120.656 85.6438 120.616 85.4969 120.522C81.1042 117.956 76.0573 114.704 71.8381 110.122C68.0462 105.997 65.9099 101.201 65.4693 95.8664C65.3358 94.2003 65.5094 92.6014 65.99 91.0965C67.3119 86.9985 70.2492 84.6203 74.7221 84.0291C79.1015 83.4647 82.8266 84.9965 85.804 88.5974C85.8574 88.6646 85.9242 88.7452 85.9776 88.8124C86.0043 88.8527 86.0444 88.893 86.0711 88.9333C86.2046 88.7855 86.3248 88.6511 86.4449 88.5033C86.7787 88.1271 87.0992 87.7643 87.4463 87.415C89.0485 85.8161 90.9712 84.7412 93.1475 84.2172C93.6415 84.0962 94.0421 84.1365 94.3358 84.3112C94.5494 84.4456 94.6963 84.6606 94.7631 84.9562C94.9099 85.6011 94.5094 86.0848 93.6816 86.2863C91.0646 86.9179 88.9417 88.463 87.3795 90.8681C87.3528 90.9084 87.3261 90.9487 87.2994 91.0025C87.2861 91.0294 87.2594 91.0697 87.246 91.0965C86.8722 91.7012 86.4983 91.9968 86.0978 91.9968C85.7106 91.9968 85.3501 91.7146 84.9762 91.11C83.6544 88.987 81.9988 87.5494 79.9159 86.7297C77.2322 85.6683 74.5886 85.7489 72.0517 86.9716C69.1143 88.3824 67.6457 90.9084 67.5522 94.6706C67.4854 97.2503 68.113 99.8167 69.5817 103.014C71.0504 106.199 73.4003 109.074 76.9919 112.057C79.6222 114.247 82.4794 116.236 85.7373 118.157C85.9108 118.251 86.2179 118.278 86.3515 118.211C91.2382 115.295 94.9366 112.541 97.9675 109.518C101.426 106.091 103.602 101.94 104.443 97.21C104.75 95.4499 104.71 93.7435 104.296 92.1311C103.629 89.5111 102.013 87.6837 99.4896 86.676C99.4228 86.6491 99.3427 86.6223 99.276 86.5954C99.1825 86.5685 99.089 86.5282 98.9956 86.4879C98.4081 86.2326 98.1277 85.6817 98.3146 85.1443C98.5149 84.5396 99.089 84.2843 99.7299 84.4993C102.133 85.3055 103.976 86.7297 105.177 88.7317C106.406 90.7875 106.927 93.1523 106.726 95.7858C106.286 101.429 103.922 106.481 99.7032 110.794C96.3786 114.193 92.3731 117.19 86.7387 120.468C86.5651 120.603 86.3248 120.656 86.0844 120.656ZM76.4578 84.1903C75.897 84.1903 75.3363 84.2306 74.7621 84.2978C70.3961 84.8621 67.5388 87.1731 66.2571 91.1771C65.7898 92.6417 65.6162 94.2003 65.7497 95.8395C66.177 101.12 68.2999 105.863 72.0517 109.934C76.2442 114.489 81.2778 117.727 85.6438 120.28C85.8708 120.414 86.3648 120.401 86.6185 120.253C92.2262 116.975 96.205 114.005 99.5163 110.619C103.695 106.347 106.032 101.348 106.459 95.7858C106.659 93.2195 106.152 90.895 104.95 88.893C103.775 86.9447 102 85.5474 99.6498 84.768C99.1558 84.6068 98.7285 84.7949 98.5683 85.2518C98.4214 85.6683 98.6351 86.0714 99.1024 86.2729C99.1825 86.3132 99.276 86.3401 99.3694 86.367C99.4495 86.3938 99.5296 86.4207 99.6097 86.4476C102.213 87.4822 103.882 89.3901 104.577 92.0908C105.004 93.7435 105.057 95.4902 104.737 97.2772C103.882 102.061 101.679 106.253 98.1945 109.719C95.1503 112.756 91.4385 115.524 86.525 118.453C86.2847 118.587 85.8708 118.547 85.6438 118.399C82.3726 116.478 79.502 114.476 76.8584 112.272C73.24 109.262 70.8634 106.36 69.3814 103.135C67.8993 99.8973 67.2585 97.2906 67.3252 94.6706C67.4187 90.7875 68.9408 88.1943 71.9716 86.7297C74.5752 85.4802 77.2856 85.3996 80.0494 86.4745C82.159 87.3075 83.9081 88.8124 85.2299 90.9622C85.537 91.4593 85.8441 91.7146 86.1245 91.7146C86.4182 91.7146 86.7253 91.4593 87.0457 90.9353C87.0591 90.9084 87.0858 90.8681 87.0992 90.8412C87.1259 90.8009 87.1526 90.7472 87.1793 90.7069C88.7815 88.248 90.9578 86.6626 93.6415 86.0176C94.1222 85.8967 94.6562 85.628 94.5227 85.0099C94.4827 84.7949 94.3759 84.6337 94.2156 84.5396C93.9887 84.3918 93.6549 84.3784 93.241 84.4725C91.1047 84.983 89.2354 86.0311 87.6599 87.6031C87.3261 87.939 87.0057 88.3018 86.6719 88.678C86.525 88.8527 86.3648 89.0273 86.2046 89.202L86.1245 89.2961L86.031 89.2155C86.0043 89.202 85.991 89.1886 85.9776 89.1751C85.9509 89.1617 85.9376 89.1348 85.9108 89.1214C85.8708 89.0677 85.8307 89.0139 85.7907 88.9736C85.7373 88.9064 85.6839 88.8258 85.6171 88.7586C83.0803 85.7355 80.0094 84.1903 76.4578 84.1903Z" fill="#231F20"/>
</g>
<defs>
<clipPath id="clip0_1919_27">
<rect width="87" height="94" fill="white" transform="translate(42.5977 39.3132)"/>
</clipPath>
</defs>
</svg>
