<svg width="47" height="47" viewBox="0 0 47 47" fill="none" xmlns="http://www.w3.org/2000/svg">
<circle cx="23.5" cy="23.5" r="23.5" fill="#0061C1"/>
<path d="M26.0573 24.3555C26.9011 24.3541 27.6749 24.5636 28.4139 24.9842C29.1178 25.4048 29.7165 26.0014 30.1396 26.7038C30.5628 27.4414 30.7751 28.2144 30.7766 29.0582L30.7792 30.5347C30.78 31.0269 30.6049 31.4139 30.2891 31.7309C29.9381 32.0831 29.5517 32.2244 29.0946 32.2252L16.7196 32.247C16.2275 32.2479 15.8405 32.1079 15.5235 31.7569C15.1714 31.4411 15.03 31.0547 15.0292 30.5625L15.0266 29.0859C15.0251 28.2422 15.2347 27.4684 15.6552 26.7293C16.0759 26.0255 16.6373 25.4268 17.3749 25.0036C18.0772 24.5805 18.8855 24.3682 19.7292 24.3667C20.0105 24.3662 20.4325 24.4709 20.925 24.6107C21.2415 24.7156 21.5229 24.7854 21.7339 24.8202C22.0856 24.8899 22.4724 24.9244 22.8943 24.9236C23.3161 24.9229 23.7028 24.887 24.0542 24.8161C24.2651 24.7806 24.5111 24.7098 24.8624 24.6037C25.3544 24.4622 25.7409 24.3561 26.0573 24.3555ZM29.6542 30.5367L29.6516 29.0601C29.6498 28.0758 29.2968 27.2326 28.5924 26.5308C27.888 25.8289 27.0437 25.4788 26.0593 25.4805C25.8484 25.4809 25.5672 25.5517 25.1807 25.6579C24.3726 25.9405 23.5994 26.0474 22.8962 26.0486C22.158 26.0499 21.3843 25.9458 20.6104 25.6659C20.1883 25.5612 19.907 25.4914 19.7312 25.4917C18.7468 25.4934 17.9037 25.8465 17.2018 26.5508C16.4999 27.2552 16.1498 28.0996 16.1516 29.0839L16.1542 30.5605C16.1545 30.7363 16.1899 30.8768 16.2955 30.9821C16.4012 31.0874 16.5419 31.1223 16.7177 31.122L29.0926 31.1002C29.2333 31.1 29.3738 31.0645 29.4791 30.9589C29.5844 30.8532 29.6545 30.7125 29.6542 30.5367ZM22.8913 23.2361C22.0475 23.2376 21.3089 23.0631 20.6051 22.6425C19.9013 22.257 19.373 21.7306 18.985 21.0281C18.5619 20.3258 18.3848 19.5878 18.3834 18.744C18.3819 17.9355 18.5564 17.1969 18.9771 16.493C19.3625 15.7892 19.8889 15.2609 20.5913 14.8378C21.2938 14.4499 22.0317 14.2376 22.8754 14.2361C23.684 14.2347 24.4227 14.4443 25.1265 14.8298C25.8303 15.2505 26.3586 15.7769 26.7817 16.4792C27.1697 17.1817 27.3819 17.9196 27.3833 18.7282C27.3848 19.5719 27.1752 20.3106 26.7897 21.0144C26.3691 21.7183 25.8427 22.2465 25.1402 22.6345C24.4378 23.0576 23.6999 23.2347 22.8913 23.2361ZM22.8774 15.3611C21.9282 15.3628 21.1202 15.7158 20.4885 16.3497C19.8217 17.0189 19.5068 17.828 19.5084 18.7421C19.51 19.6913 19.8279 20.4993 20.4969 21.131C21.1309 21.7978 21.9401 22.1128 22.8893 22.1111C23.8034 22.1095 24.6114 21.7917 25.2782 21.1225C25.9099 20.4886 26.26 19.6794 26.2584 18.7302C26.2567 17.8161 25.9038 17.0081 25.2698 16.3413C24.6007 15.7097 23.7915 15.3595 22.8774 15.3611Z" fill="white"/>
</svg>
