<svg width="24" height="31" viewBox="0 0 24 31" fill="none" xmlns="http://www.w3.org/2000/svg">
<g clip-path="url(#clip0_1579_1371)">
<path d="M23.0542 30.5C15.3591 30.5 7.6899 30.5 0 30.5C0 20.5 0 10.5052 0 0.5C7.67955 0.5 15.3591 0.5 23.0542 0.5C23.0542 10.4948 23.0542 20.4845 23.0542 30.5ZM1.14365 29.3458C8.06767 29.3458 14.9813 29.3458 21.9002 29.3458C21.9002 22.0321 21.9002 14.734 21.9002 7.43582C14.971 7.43582 8.05732 7.43582 1.14365 7.43582C1.14365 14.7443 1.14365 22.0373 1.14365 29.3458ZM21.9054 6.24017C21.9054 4.7029 21.9054 3.18116 21.9054 1.64907C14.9762 1.64907 8.06767 1.64907 1.14365 1.64907C1.14365 3.18634 1.14365 4.70807 1.14365 6.24017C8.07285 6.24017 14.9865 6.24017 21.9054 6.24017Z" fill="#35AFBA"/>
<path d="M11.5243 9.71838C15.9851 9.71838 19.6023 13.3364 19.6023 17.8033C19.6023 22.265 15.9851 25.8933 11.5243 25.8933C7.06355 25.8933 3.44629 22.2701 3.44629 17.8084C3.45146 13.3416 7.06355 9.71838 11.5243 9.71838ZM11.5191 24.7339C15.3382 24.7391 18.4535 21.6335 18.4535 17.8084C18.4535 13.9937 15.3641 10.8882 11.5554 10.8778C7.71041 10.8726 4.60029 13.9627 4.59512 17.7981C4.59512 21.6231 7.69488 24.7287 11.5191 24.7339Z" fill="#35AFBA"/>
<path d="M9.2165 2.7981C9.85302 2.7981 10.3705 3.31052 10.3757 3.94199C10.3809 4.58381 9.85302 5.10141 9.20615 5.09623C8.57481 5.09106 8.0625 4.57346 8.0625 3.94199C8.06767 3.30534 8.57999 2.7981 9.2165 2.7981Z" fill="#35AFBA"/>
<path d="M13.8275 5.09627C13.1962 5.09109 12.6787 4.57349 12.6787 3.94202C12.6839 3.3002 13.2117 2.78778 13.8586 2.79813C14.4951 2.80848 14.9971 3.33125 14.9919 3.96272C14.9815 4.59937 14.4641 5.10144 13.8275 5.09627Z" fill="#35AFBA"/>
<path d="M18.459 2.79814C19.0955 2.79814 19.6027 3.30538 19.6027 3.9472C19.6027 4.5942 19.0852 5.10663 18.4331 5.10145C17.7966 5.09627 17.2947 4.57867 17.2998 3.94203C17.3102 3.29503 17.8173 2.79296 18.459 2.79814Z" fill="#35AFBA"/>
<path d="M5.74898 3.95237C5.74381 4.58902 5.23667 5.09627 4.60015 5.09627C3.95329 5.09627 3.44098 4.57867 3.45133 3.92649C3.4565 3.28985 3.97399 2.78778 4.61568 2.79813C5.25219 2.80331 5.74898 3.31055 5.74898 3.95237Z" fill="#35AFBA"/>
<path d="M6.91407 17.7826C6.91925 15.2463 8.99438 13.1811 11.5301 13.1863C14.0917 13.1915 16.1461 15.267 16.1409 17.8447C16.1357 20.3757 14.0503 22.441 11.5094 22.4306C8.95816 22.4202 6.9089 20.3447 6.91407 17.7826ZM11.5404 14.3457C9.62572 14.3405 8.07325 15.8726 8.0629 17.7774C8.05255 19.6977 9.59467 21.2608 11.5146 21.2712C13.4241 21.2815 14.9921 19.7184 14.9921 17.8033C14.9921 15.8985 13.45 14.3509 11.5404 14.3457Z" fill="#35AFBA"/>
</g>
<defs>
<clipPath id="clip0_1579_1371">
<rect width="23.0542" height="30" fill="white" transform="translate(0 0.5)"/>
</clipPath>
</defs>
</svg>
