<svg width="35" height="27" viewBox="0 0 35 27" fill="none" xmlns="http://www.w3.org/2000/svg">
<g clip-path="url(#clip0_1579_957)">
<path d="M5.53821 25.741C5.66531 25.747 5.76215 25.7531 5.86504 25.7531C7.75341 25.7531 9.63572 25.747 11.5241 25.7591C11.8207 25.7591 11.8933 25.6683 11.8872 25.3839C11.8751 23.556 11.8812 21.7343 11.8812 19.9064C11.8812 19.2891 12.0749 19.0954 12.6983 19.0954C14.3203 19.0954 15.9484 19.0954 17.5705 19.0954C18.2 19.0954 18.4057 19.3012 18.4057 19.9246C18.4057 21.7221 18.4057 23.5137 18.4057 25.3113C18.4057 25.4384 18.4057 25.5715 18.4057 25.7289C20.5241 25.7289 22.6122 25.7289 24.7366 25.7289C24.7427 25.6078 24.7487 25.4928 24.7548 25.3778C24.7548 24.0766 24.7608 22.7753 24.7548 21.474C24.7548 21.244 24.8032 21.1411 25.0574 21.1593C25.354 21.1835 25.6566 21.1653 25.9774 21.1653C25.9834 21.2985 25.9955 21.3953 25.9955 21.4922C25.9955 23.0779 25.9955 24.6576 25.9955 26.2433C25.9955 26.782 25.7837 26.9999 25.245 26.9999C22.8059 26.9999 20.3607 26.9999 17.9215 26.9999C17.3889 26.9999 17.171 26.7759 17.171 26.2433C17.171 24.4276 17.171 22.6119 17.171 20.7961C17.171 20.663 17.171 20.5359 17.171 20.3664C17.0621 20.3603 16.9653 20.3422 16.8684 20.3422C15.7184 20.3422 14.5685 20.3482 13.4185 20.3361C13.1583 20.3361 13.0977 20.4269 13.1038 20.669C13.1098 22.515 13.1098 24.361 13.1098 26.207C13.1098 26.8123 12.9162 26.9999 12.3109 26.9999C9.90203 26.9999 7.4871 26.9999 5.07822 26.9999C4.50324 26.9999 4.28535 26.782 4.28535 26.2191C4.28535 22.4242 4.28535 18.6354 4.2793 14.8405C4.2793 14.5439 4.37008 14.32 4.59402 14.1263C7.93498 11.1364 11.2759 8.14044 14.6229 5.14448C14.974 4.82975 15.2706 4.81159 15.5913 5.08395C16.8866 6.20366 18.1818 7.32941 19.471 8.45517C19.5073 8.48543 19.5375 8.5278 19.586 8.58227C19.3257 8.88489 19.0655 9.18146 18.787 9.50224C17.5705 8.44912 16.3721 7.40809 15.1495 6.34286C15.0587 6.41549 14.974 6.48207 14.8953 6.5547C11.8449 9.28435 8.79443 12.0201 5.74399 14.7497C5.60479 14.8768 5.514 14.9979 5.514 15.2097C5.52005 18.6293 5.52005 22.049 5.52005 25.4686C5.52005 25.5473 5.53216 25.626 5.53821 25.741Z" fill="#3E4CC2"/>
<path d="M30.8194 18.0545C31.0736 17.8063 31.3339 17.5884 31.5518 17.3282C32.617 16.0814 33.1315 14.6106 33.3191 13.0007C33.6096 10.5555 32.7441 8.49765 31.237 6.63954C29.5787 4.58776 27.5874 2.94149 25.2935 1.65837C25.2391 1.62811 25.1846 1.6039 25.1059 1.56759C25.0454 1.65232 24.9788 1.72495 24.9243 1.80363C23.4233 4.11567 22.5397 6.65165 22.225 9.39341C22.0676 10.7552 22.0313 12.111 22.4731 13.4304C23.2054 15.6153 24.5128 17.3342 26.6432 18.3268C27.1759 18.575 27.769 18.6779 28.3863 18.8594C28.3682 19.1863 28.35 19.5676 28.3319 20.0518C27.7811 19.9307 27.2485 19.8642 26.7582 19.6947C24.6944 18.9926 23.2236 17.5703 22.1402 15.7243C21.075 13.9025 20.7482 11.9294 20.9358 9.84129C21.2021 6.90585 22.0434 4.15198 23.5868 1.63416C23.9257 1.07734 24.3252 0.556826 24.7125 0C24.9728 0.121049 25.1967 0.205783 25.4025 0.314728C28.5437 1.961 31.1826 4.17619 33.1315 7.154C34.9714 9.96839 35.0259 12.9462 33.8154 15.9966C33.3554 17.1587 32.6473 18.1574 31.6607 18.9442C31.6244 18.9744 31.5699 18.9926 31.467 19.041C32.1752 19.8339 32.8228 20.5783 33.4886 21.3046C33.7851 21.6315 34.118 21.928 34.4327 22.2367C34.7172 22.5212 34.7414 22.8964 34.4993 23.1506C34.2451 23.4169 33.888 23.4169 33.5854 23.1325C30.2263 19.9731 27.7508 16.2629 26.5343 11.7781C26.1893 10.501 25.9654 9.19973 25.9472 7.87424C25.9412 7.60188 26.0198 7.37794 26.2619 7.23268C26.6796 6.98453 27.1819 7.28716 27.1819 7.80767C27.194 8.91527 27.3635 9.9926 27.6237 11.0639C28.2169 13.5091 29.264 15.7545 30.6621 17.8426C30.6923 17.9092 30.7408 17.9576 30.8194 18.0545Z" fill="#3E4CC2"/>
<path d="M20.2574 4.67249C19.979 4.99327 19.7308 5.28379 19.4584 5.60457C19.3192 5.48957 19.1921 5.38668 19.065 5.27774C17.8182 4.20645 16.5654 3.14122 15.3246 2.06388C15.137 1.90047 15.0402 1.93678 14.8767 2.08204C12.5465 4.12172 10.2103 6.15534 7.8801 8.18897C7.80747 8.25555 7.72879 8.31607 7.58958 8.43107C7.58958 6.88164 7.58958 5.39273 7.58958 3.87962C6.90566 3.87962 6.2762 3.87962 5.60438 3.87962C5.60438 4.02488 5.60438 4.15198 5.60438 4.27908C5.60438 6.14324 5.61043 8.01345 5.59833 9.8776C5.59833 10.0289 5.53175 10.2226 5.42281 10.3194C3.93995 11.6389 2.43895 12.9462 0.94399 14.2535C0.907675 14.2838 0.865308 14.3141 0.804783 14.3625C0.538475 14.0598 0.284272 13.7693 0.00585938 13.4485C0.102699 13.3578 0.181381 13.273 0.272167 13.2004C1.56134 12.0686 2.84446 10.9368 4.14574 9.81708C4.32126 9.65971 4.38784 9.50235 4.38784 9.27236C4.38178 7.19637 4.38178 5.11432 4.38784 3.03833C4.38784 2.91728 4.38784 2.79623 4.38784 2.65097C5.86463 2.65097 7.32328 2.65097 8.80613 2.65097C8.80613 3.64963 8.80613 4.64223 8.80613 5.64088C8.83034 5.65904 8.85455 5.67115 8.87876 5.6893C10.9487 3.88567 13.0126 2.08204 15.1067 0.260254C16.8075 1.72495 18.5203 3.18964 20.2574 4.67249Z" fill="#3E4CC2"/>
</g>
<defs>
<clipPath id="clip0_1579_957">
<rect width="34.6564" height="27" fill="white"/>
</clipPath>
</defs>
</svg>
