<svg width="172" height="172" viewBox="0 0 172 172" fill="none" xmlns="http://www.w3.org/2000/svg">
<circle r="84.805" transform="matrix(-1 0 0 1 86.0988 86.0241)" stroke="#C6C6C6" stroke-dasharray="2 2"/>
<g clip-path="url(#clip0_296_999)">
<path d="M100.488 129.939C89.0538 138.421 74.7033 137.627 64.4574 129.924C63.8864 131.527 63.3309 133.098 62.7754 134.686C62.3434 135.915 62.2199 136.024 60.9546 136.024C59.1338 136.024 57.2975 136.04 55.4767 136.024C52.1437 136.009 50.1069 133.332 50.9864 130.095C51.9585 126.5 52.977 122.906 53.9491 119.311C54.0262 119.031 54.0262 118.61 53.8719 118.377C48.8415 110.363 46.1103 101.601 45.2462 92.2021C44.2586 81.48 45.6628 71.1003 49.9217 61.1719C53.0233 53.9357 57.3901 47.6332 63.6395 42.7935C69.7192 38.0627 76.555 35.6039 84.3012 36.0863C90.5969 36.4754 96.1828 38.8408 101.151 42.6845C107.926 47.9288 112.508 54.8227 115.641 62.7437C119.329 72.0652 120.563 81.7446 119.715 91.7353C118.928 100.995 116.351 109.678 111.49 117.614C110.981 118.439 110.888 119.14 111.166 120.058C112.169 123.481 113.126 126.936 114.036 130.391C114.684 132.865 113.218 135.293 110.78 135.9C110.333 136.009 109.87 136.024 109.407 136.024C107.586 136.04 105.75 136.024 103.929 136.024C102.756 136.024 102.617 135.915 102.216 134.764C101.63 133.176 101.074 131.589 100.488 129.939ZM47.1596 85.6195C47.2213 93.4626 48.3786 100.668 51.0018 107.608C53.8102 115.031 57.9302 121.552 64.0099 126.671C74.8113 135.76 88.6218 136.164 99.6547 127.699C104.67 123.839 108.481 118.953 111.367 113.335C115.054 106.192 117.014 98.5669 117.554 90.5526C118.249 80.2195 116.721 70.2756 112.4 60.8451C109.222 53.9046 104.855 47.8355 98.4974 43.5249C88.5909 36.8177 78.345 36.3664 68.0064 42.4667C62.1891 45.9058 57.9148 50.9323 54.5818 56.7679C49.4279 65.8405 47.2522 75.6911 47.1596 85.6195ZM109.191 121.256C109.067 121.349 108.99 121.396 108.944 121.443C107.077 123.901 104.994 126.158 102.664 128.181C102.509 128.321 102.463 128.741 102.54 128.959C103.003 130.391 103.528 131.791 104.006 133.223C104.145 133.628 104.33 133.783 104.778 133.783C106.367 133.752 107.972 133.783 109.561 133.768C111.259 133.752 112.262 132.445 111.829 130.78C111.459 129.348 111.058 127.932 110.657 126.516C110.178 124.773 109.685 123.046 109.191 121.256ZM55.7391 121.24C54.8132 124.555 53.9028 127.745 53.0541 130.951C52.6529 132.46 53.7176 133.768 55.2916 133.783C56.9118 133.814 58.532 133.768 60.1522 133.799C60.5843 133.799 60.7849 133.659 60.9238 133.254C61.4021 131.838 61.8959 130.422 62.4205 129.006C62.5748 128.601 62.4977 128.383 62.1736 128.088C60.97 126.967 59.7665 125.831 58.6246 124.633C57.637 123.575 56.7575 122.439 55.7391 121.24Z" fill="#D84A31"/>
<path d="M127.06 84.8569C127.06 86.382 127.075 87.9226 127.06 89.4477C127.044 90.3969 126.628 90.9105 125.933 90.9105C125.193 90.9105 124.776 90.3502 124.822 89.3698C125.223 80.2818 124.066 71.4271 121.258 62.7748C119.668 57.8728 117.524 53.2354 114.808 48.8625C114.576 48.5046 114.407 47.9755 114.484 47.5865C114.545 47.2752 114.993 46.8706 115.317 46.8395C115.672 46.8084 116.197 47.0262 116.413 47.3219C116.968 48.0378 117.4 48.8314 117.848 49.6251C122.554 57.8417 125.331 66.7119 126.489 76.0956C126.844 79.0057 127.013 81.9313 127.26 84.8414C127.183 84.8414 127.121 84.8414 127.06 84.8569Z" fill="#D84A31"/>
<path d="M82.5574 74.2283C96.7844 74.3061 108.512 86.133 108.419 100.294C108.311 114.938 96.7227 126.625 82.3722 126.563C68.5309 126.516 56.3253 115.311 56.5259 100.03C56.711 85.2771 68.6081 74.2283 82.5574 74.2283ZM59.1182 95.8436C58.9948 97.1819 58.8713 98.4268 58.7788 99.6718C58.717 100.59 59.1182 101.368 59.8126 101.913C60.6767 102.582 61.5871 103.251 62.5747 103.733C65.6917 105.29 69.0556 106.021 72.4657 106.535C76.9715 107.219 81.5081 107.437 86.0756 107.173C90.6893 106.908 95.2259 106.317 99.6237 104.854C101.429 104.247 103.188 103.516 104.685 102.286C105.379 101.726 106.074 101.088 106.089 100.139C106.105 98.7381 105.935 97.322 105.842 95.8592C105.58 95.937 105.503 95.9525 105.441 95.9836C102.941 97.711 100.117 98.6603 97.2011 99.3761C90.535 100.995 83.7764 101.321 76.9715 100.792C70.7838 100.325 64.6887 99.345 59.1182 95.8436ZM59.1491 104.434C59.1799 104.729 59.1645 104.994 59.2417 105.212C59.9206 107.188 60.5841 109.18 61.3248 111.125C61.4637 111.514 61.8803 111.872 62.2506 112.075C64.5035 113.257 66.9107 113.973 69.395 114.487C77.311 116.121 85.2732 116.198 93.2508 114.938C96.5067 114.424 99.7008 113.631 102.664 112.09C103.065 111.888 103.497 111.499 103.651 111.094C104.407 109.087 105.071 107.048 105.75 105.025C105.811 104.854 105.781 104.667 105.781 104.48C104.839 104.994 103.991 105.523 103.08 105.943C98.3275 108.122 93.2662 108.915 88.1278 109.351C83.9924 109.694 79.857 109.678 75.7216 109.242C69.9351 108.62 64.2566 107.655 59.1491 104.434ZM103.389 88.9964C89.3469 93.7894 75.5519 93.7739 61.5408 88.9964C61.0625 90.1635 60.5224 91.5019 59.9515 92.8246C59.7509 93.2759 59.8589 93.5871 60.2601 93.7894C61.8649 94.6298 63.4234 95.6257 65.1207 96.2482C69.5339 97.8666 74.1477 98.4735 78.8077 98.6914C85.5664 99.0182 92.2633 98.5825 98.7904 96.6061C100.858 95.9836 102.88 95.19 104.592 93.805C104.808 93.6338 105.024 93.167 104.947 92.9491C104.469 91.5641 103.883 90.2258 103.389 88.9964ZM101.969 86.8489C100.874 85.1993 99.5774 83.7365 98.0806 82.4605C97.9109 82.3204 97.556 82.3204 97.3091 82.3826C87.9427 84.5146 78.5454 84.6235 69.1636 82.6628C67.3891 82.2893 66.2626 82.5849 65.2288 83.9544C64.5035 84.9348 63.6703 85.8374 62.8679 86.8022C72.3114 91.424 92.8342 91.3774 101.969 86.8489ZM100.781 115.467C88.5908 118.968 76.3851 118.953 64.2103 115.498C72.7898 126.874 91.2603 127.621 100.781 115.467ZM95.5037 80.4997C87.2174 74.7418 76.0302 75.66 69.5031 80.5152C78.1751 82.1959 86.7545 82.1959 95.5037 80.4997Z" fill="#D84A31"/>
<path d="M65.2443 66.0427C76.7401 60.5961 88.1897 60.5805 99.6855 66.0583C100.688 64.9534 101.923 64.222 103.451 64.0352C106.614 63.6306 109.623 66.0116 109.931 69.1862C110.271 72.5787 107.833 75.5198 104.484 75.7377C101.306 75.94 98.4819 73.3879 98.343 70.1666C98.3276 69.6531 98.3584 69.124 98.4665 68.626C98.5436 68.2369 98.4973 68.0191 98.1116 67.8323C87.5724 62.9304 77.0487 62.9615 66.5404 67.9724C66.4787 68.0035 66.417 68.0658 66.3707 68.1124C66.8028 72.0184 65.4294 74.5706 62.4205 75.4732C59.6892 76.2979 56.7883 75.0374 55.523 72.4697C54.2885 69.9799 54.9829 66.9142 57.1895 65.2024C59.6584 63.3038 62.6056 63.5995 65.2443 66.0427ZM104.191 73.4501C106.166 73.4346 107.771 71.8161 107.756 69.8242C107.756 67.8168 106.089 66.1983 104.083 66.2295C102.124 66.2606 100.519 67.9257 100.55 69.902C100.596 71.8784 102.216 73.4657 104.191 73.4501ZM60.7231 73.4501C62.7136 73.4657 64.3184 71.9095 64.3493 69.902C64.3802 67.9101 62.8062 66.2606 60.8311 66.2295C58.8097 66.1983 57.174 67.8012 57.174 69.8242C57.1586 71.8317 58.748 73.4346 60.7231 73.4501Z" fill="#D84A31"/>
<path d="M82.4187 58.5108C77.6815 58.4797 73.8547 54.5892 73.8702 49.8118C73.8856 45.0187 77.805 41.1594 82.5885 41.2061C87.264 41.2528 91.0753 45.1744 91.0599 49.9051C91.029 54.6826 87.156 58.5419 82.4187 58.5108ZM81.354 43.5871C77.9439 44.194 75.7218 47.353 76.1693 50.7766C76.6014 54.029 79.6567 56.5345 82.8662 56.2543C86.369 55.9587 88.9459 53.0486 88.807 49.5628C88.6836 46.5905 86.1067 43.6649 83.5606 43.6649C83.5606 44.1784 83.5606 44.6919 83.5606 45.2055C83.5606 46.6839 83.5606 48.1622 83.5606 49.6406C83.5606 50.4654 83.144 50.9633 82.4805 50.9789C81.8015 50.9945 81.3695 50.4809 81.3386 49.6095C81.3232 49.1893 81.3386 48.7847 81.3386 48.3645C81.354 46.7928 81.354 45.221 81.354 43.5871Z" fill="#D84A31"/>
</g>
<defs>
<clipPath id="clip0_296_999">
<rect x="44.9531" y="36.024" width="82.2917" height="100" fill="white"/>
</clipPath>
</defs>
</svg>
