<svg width="172" height="171" viewBox="0 0 172 171" fill="none" xmlns="http://www.w3.org/2000/svg">
<circle r="84.805" transform="matrix(-1 0 0 1 86.0988 85.6606)" stroke="#C6C6C6" stroke-dasharray="2 2"/>
<g clip-path="url(#clip0_296_991)">
<path d="M66.3566 116.854C66.1755 117.064 66.0245 117.229 65.8886 117.394C64.1974 119.27 61.5702 119.945 59.2147 119.105C56.8139 118.249 55.1832 116.073 55.1077 113.522C55.0624 112.126 55.0926 110.716 55.0926 109.32C55.0926 109.05 55.0926 108.78 55.0926 108.464C54.7906 108.449 54.5641 108.419 54.3527 108.419C53.326 108.419 52.2992 108.419 51.197 108.419C51.197 108.765 51.197 109.035 51.197 109.305C51.197 112.186 51.197 115.053 51.197 117.934C51.197 119.12 50.8648 119.45 49.6719 119.45C48.313 119.45 46.9692 119.45 45.5045 119.45C45.5045 120.395 45.4743 121.281 45.5347 122.166C45.5498 122.346 45.8518 122.556 46.0783 122.662C47.8298 123.472 48.7811 125.153 48.5546 127.059C48.3432 128.83 46.9541 130.255 45.127 130.585C43.1037 130.946 41.0804 129.745 40.4312 127.794C39.7819 125.828 40.6576 123.682 42.5451 122.797C43.149 122.511 43.3755 122.211 43.3151 121.566C43.2547 120.906 43.3 120.23 43.3 119.45C41.9109 119.45 40.5821 119.45 39.2534 119.45C37.8945 119.45 37.6227 119.18 37.6227 117.829C37.6227 92.6615 37.6227 67.5089 37.6227 42.3414C37.5925 40.9607 37.8794 40.6605 39.2685 40.6605C42.7111 40.6605 46.1689 40.6605 49.6115 40.6605C50.8346 40.6605 51.1819 41.0057 51.1819 42.2213C51.1819 45.1027 51.1819 47.9692 51.1819 50.8506C51.1819 51.1208 51.1819 51.3759 51.1819 51.691C52.4955 51.691 53.7336 51.691 55.0473 51.691C55.0624 51.4359 55.0926 51.1658 55.0926 50.9106C55.0926 49.605 55.0926 48.3143 55.0926 47.0087C55.1077 44.2323 56.6478 41.9812 59.1392 41.0807C61.691 40.1503 64.2729 40.8706 66.1302 43.0317C66.1906 43.1067 66.2661 43.1668 66.3717 43.2868C67.6552 41.636 69.3312 40.6905 71.4149 40.6905C73.5137 40.6755 75.2048 41.576 76.5336 43.3018C77.8472 41.636 79.5232 40.6755 81.6371 40.6755C83.7208 40.6755 85.412 41.591 86.7256 43.2868C88.0241 41.621 89.7002 40.6755 91.7839 40.6755C93.8827 40.6755 95.5587 41.576 96.8723 43.3018C98.1709 41.636 99.8318 40.6905 101.916 40.6755C104.014 40.6605 105.705 41.561 107.034 43.2718C108.363 41.636 110.039 40.6605 112.153 40.6605C114.252 40.6605 115.928 41.591 117.226 43.2718C117.407 43.0767 117.558 42.9116 117.709 42.7616C119.461 40.8556 122.073 40.1953 124.459 41.0657C126.875 41.9512 128.475 44.1723 128.52 46.7686C128.551 48.3894 128.52 50.0102 128.52 51.706C130.544 51.8111 132.22 52.5465 133.428 54.1523C134.273 55.2778 134.666 56.5385 134.621 57.9492C134.515 61.0557 132.461 63.0517 128.581 63.7721C128.581 74.6225 128.581 85.4879 128.581 96.4284C130.574 96.5334 132.265 97.2838 133.473 98.9346C134.303 100.06 134.681 101.336 134.621 102.732C134.485 105.823 132.461 107.774 128.536 108.494C128.536 109.23 128.536 109.995 128.536 110.761C128.52 111.856 128.611 112.982 128.46 114.062C128.098 116.659 126.618 118.399 124.096 119.18C123.553 119.345 123.357 119.585 123.432 120.11C123.447 120.185 123.432 120.26 123.432 120.335C123.326 121.551 123.402 122.496 124.791 123.202C126.452 124.057 126.92 126.203 126.256 127.959C125.621 129.625 123.855 130.781 122.118 130.645C120.186 130.495 118.63 129.16 118.253 127.314C117.875 125.468 118.736 123.592 120.442 122.812C121.122 122.496 121.228 122.136 121.273 121.476C121.379 120.125 121.228 119.18 119.612 118.76C118.721 118.534 117.996 117.634 117.151 117.004C115.928 118.504 114.297 119.465 112.138 119.465C110.009 119.465 108.393 118.504 107.049 116.869C105.736 118.504 104.09 119.45 101.991 119.45C99.8771 119.45 98.2313 118.519 96.8874 116.854C95.5587 118.504 93.9129 119.465 91.7688 119.45C89.67 119.435 88.0241 118.504 86.7256 116.884C83.8114 120.44 79.1609 120.185 76.5034 116.869C75.2048 118.504 73.5439 119.45 71.3998 119.45C69.3161 119.435 67.6703 118.489 66.3566 116.854ZM48.9472 42.9116C45.8518 42.9116 42.847 42.9116 39.8121 42.9116C39.8121 67.704 39.8121 92.4514 39.8121 117.214C42.8772 117.214 45.8971 117.214 48.9472 117.214C48.9472 92.4214 48.9472 67.704 48.9472 42.9116ZM77.6509 80.1152C77.6509 91.0707 77.6509 102.026 77.6509 112.982C77.6509 113.372 77.6509 113.792 77.7415 114.167C78.1794 116.133 80.0215 117.454 81.9693 117.259C84.0832 117.034 85.5932 115.398 85.5932 113.267C85.5932 91.1608 85.5932 69.0547 85.5932 46.9487C85.5932 46.4984 85.5479 46.0482 85.412 45.628C84.8231 43.7521 82.9206 42.6265 80.9879 42.9417C79.0854 43.2568 77.6811 44.8776 77.666 46.8286C77.6509 57.9041 77.6509 69.0097 77.6509 80.1152ZM65.2544 80.1002C65.2544 76.0782 65.2544 72.0412 65.2544 68.0192C65.2544 60.9957 65.2544 53.9572 65.2544 46.9337C65.2544 45.0727 64.122 43.527 62.4308 43.0317C59.7885 42.2513 57.2971 44.1573 57.282 47.0087C57.2669 52.5164 57.282 58.0092 57.282 63.5169C57.282 77.4439 57.2971 91.3709 57.2971 105.313C57.2971 107.939 57.2669 110.565 57.282 113.192C57.2971 114.993 58.3087 116.448 59.9093 117.034C62.5516 117.994 65.2544 116.073 65.2544 113.192C65.2695 102.161 65.2544 91.1307 65.2544 80.1002ZM95.7852 80.0252C95.7852 78.5244 95.7852 77.0237 95.7852 75.5229C95.7852 66.0232 95.7852 56.5235 95.7852 47.0087C95.7852 45.3879 95.1359 44.1423 93.7166 43.3469C90.9836 41.8161 87.8279 43.8121 87.8279 47.0687C87.8279 65.3178 87.8279 83.582 87.8279 101.831C87.8279 105.628 87.8128 109.44 87.8279 113.237C87.843 115.833 90.0626 117.649 92.5841 117.169C94.4866 116.809 95.7701 115.188 95.7701 113.102C95.7852 102.086 95.7852 91.0557 95.7852 80.0252ZM108.197 80.0702C108.197 91.0407 108.197 102.026 108.197 112.997C108.197 113.957 108.378 114.828 108.952 115.608C109.963 116.989 111.73 117.559 113.376 117.049C115.067 116.508 116.139 115.023 116.139 113.177C116.139 101.351 116.139 89.5249 116.139 77.699C116.139 67.4489 116.139 57.1988 116.139 46.9487C116.139 44.2473 113.708 42.3414 111.141 43.0317C109.359 43.5119 108.212 45.0277 108.212 46.9937C108.197 58.0092 108.197 69.0397 108.197 80.0702ZM105.917 80.0252C105.917 69.0247 105.917 58.0242 105.917 47.0237C105.917 46.5735 105.902 46.1082 105.781 45.688C105.237 43.8121 103.38 42.6415 101.417 42.8966C99.4241 43.1668 98.0199 44.8326 98.0199 46.9337C98.0199 69.0097 98.0199 91.1007 98.0199 113.177C98.0199 113.552 98.035 113.927 98.1256 114.287C98.6088 116.193 100.466 117.454 102.384 117.229C104.467 116.989 105.917 115.398 105.917 113.327C105.917 102.236 105.917 91.1307 105.917 80.0252ZM75.4162 80.0702C75.4162 69.0397 75.4162 58.0092 75.4162 46.9937C75.4162 45.0427 74.3291 43.527 72.5776 43.0317C69.9201 42.2663 67.474 44.1873 67.474 47.0537C67.474 61.3559 67.474 75.658 67.474 89.9602C67.474 97.659 67.4891 105.358 67.474 113.072C67.474 114.407 67.8817 115.533 68.9386 116.373C70.207 117.379 71.6414 117.589 73.1211 116.899C74.6462 116.178 75.4162 114.948 75.4162 113.252C75.4162 102.176 75.4162 91.1307 75.4162 80.0702ZM118.374 80.0852C118.374 91.0557 118.374 102.041 118.374 113.012C118.374 113.477 118.389 113.972 118.525 114.422C119.068 116.313 120.941 117.499 122.888 117.214C124.942 116.914 126.301 115.293 126.316 113.117C126.316 91.0857 126.316 69.0547 126.316 47.0237C126.316 46.6335 126.286 46.2133 126.195 45.8381C125.682 43.8721 123.809 42.6265 121.786 42.8966C119.823 43.1518 118.389 44.8176 118.389 46.8586C118.374 57.9342 118.374 69.0097 118.374 80.0852ZM51.2272 63.7421C51.2272 74.6525 51.2272 85.5179 51.2272 96.4134C52.5106 96.4134 53.7487 96.4134 55.0473 96.4134C55.0473 85.5179 55.0473 74.6525 55.0473 63.7421C53.7638 63.7421 52.5106 63.7421 51.2272 63.7421ZM54.9869 106.198C54.9869 103.647 54.9869 101.171 54.9869 98.6795C53.7034 98.6795 52.4804 98.6795 51.2725 98.6795C51.2725 101.216 51.2725 103.692 51.2725 106.198C52.5257 106.198 53.7185 106.198 54.9869 106.198ZM51.2574 53.9422C51.2574 56.4784 51.2574 58.9547 51.2574 61.4459C52.5408 61.4459 53.7638 61.4459 54.9718 61.4459C54.9718 58.9247 54.9718 56.4334 54.9718 53.9422C53.7034 53.9422 52.4804 53.9422 51.2574 53.9422ZM128.566 53.9872C128.566 56.4784 128.566 58.9697 128.566 61.4459C130.665 61.536 132.446 59.7651 132.431 57.664C132.401 55.563 130.634 53.8671 128.566 53.9872ZM128.581 98.6795C128.581 101.216 128.581 103.707 128.581 106.183C130.71 106.198 132.431 104.487 132.431 102.431C132.416 100.345 130.74 98.6795 128.581 98.6795ZM122.33 124.522C121.228 124.522 120.367 125.363 120.352 126.443C120.337 127.569 121.212 128.454 122.33 128.454C123.447 128.454 124.338 127.554 124.323 126.458C124.293 125.363 123.432 124.522 122.33 124.522ZM44.4023 128.454C45.5196 128.439 46.4105 127.524 46.3652 126.428C46.335 125.363 45.4441 124.522 44.357 124.522C43.2245 124.537 42.379 125.423 42.4092 126.548C42.4394 127.629 43.3151 128.454 44.4023 128.454Z" fill="#D84A31"/>
<path d="M51.2271 63.7421C52.5105 63.7421 53.7637 63.7421 55.0472 63.7421C55.0472 74.6525 55.0472 85.518 55.0472 96.4134C53.7637 96.4134 52.5105 96.4134 51.2271 96.4134C51.2271 85.5029 51.2271 74.6375 51.2271 63.7421Z" fill="white"/>
<path d="M45.4742 57.7241C45.4742 59.2698 45.4742 60.8156 45.4742 62.3614C45.4742 63.1568 45.0665 63.637 44.4323 63.667C43.7679 63.697 43.2848 63.2018 43.2848 62.3914C43.2697 59.2698 43.2697 56.1483 43.2848 53.0267C43.2848 52.1863 43.7226 51.7061 44.4172 51.7361C45.0967 51.7511 45.4893 52.2313 45.4893 53.0867C45.4893 54.6325 45.4742 56.1783 45.4742 57.7241Z" fill="#D84A31"/>
<path d="M45.4741 102.431C45.4741 103.977 45.4741 105.523 45.4741 107.069C45.4741 107.909 45.0513 108.389 44.3719 108.389C43.6924 108.389 43.2696 107.909 43.2696 107.054C43.2545 103.962 43.2545 100.871 43.2696 97.779C43.2696 96.9386 43.7075 96.4584 44.3719 96.4584C45.0513 96.4584 45.459 96.9536 45.459 97.794C45.4892 99.3398 45.4741 100.886 45.4741 102.431Z" fill="#D84A31"/>
</g>
<defs>
<clipPath id="clip0_296_991">
<rect x="37.5923" y="40.6605" width="97.013" height="90" fill="white"/>
</clipPath>
</defs>
</svg>
