<svg width="70" height="75" viewBox="0 0 70 75" fill="none" xmlns="http://www.w3.org/2000/svg">
<g clip-path="url(#clip0_1644_1237)">
<path d="M61.7662 10.5489C61.7662 7.54716 61.7662 4.62049 61.7662 1.65094C57.2067 1.65094 52.6472 1.65094 48.0664 1.65094C48.0664 4.59905 48.0664 7.53644 48.0664 10.5489C48.5671 10.5489 49.0784 10.5489 49.5898 10.5489C50.3142 10.5596 50.5486 10.7954 50.5486 11.5244C50.5486 14.0437 50.5486 16.563 50.5486 19.0823C50.5486 19.5004 50.5059 19.8756 50.0585 20.0579C49.6324 20.2294 49.3554 19.9828 49.0784 19.7041C44.7214 15.3945 40.3643 11.0956 36.0072 6.78601C35.0272 5.81046 34.3986 5.81046 33.4292 6.77529C23.0532 17.024 12.6772 27.2834 2.29053 37.5321C1.89637 37.9181 1.54482 38.3147 1.58743 38.9044C1.6407 39.6548 2.21596 40.1801 3.02558 40.1908C4.35721 40.2015 5.68883 40.1908 7.02045 40.2015C7.87269 40.2015 8.08575 40.4266 8.08575 41.2843C8.08575 51.3615 8.08575 61.4386 8.08575 71.5158C8.08575 72.9416 8.54383 73.3919 9.97133 73.3919C10.4294 73.3919 10.8981 73.3919 11.3562 73.3919C11.8143 73.4026 12.1019 73.6385 12.1126 74.1102C12.1232 74.5819 11.8356 74.8499 11.3882 74.8713C10.6425 74.8928 9.89676 74.9249 9.15105 74.8391C7.7129 74.6891 6.70086 73.5742 6.59433 72.1269C6.57303 71.891 6.58368 71.6659 6.58368 71.4301C6.58368 61.7603 6.58368 52.1012 6.58368 42.4314C6.58368 42.2062 6.58368 41.9811 6.58368 41.6917C5.33728 41.6917 4.14415 41.7024 2.96167 41.6917C1.45959 41.6702 0.319725 40.6732 0.106666 39.1831C-0.0318233 38.1754 0.341031 37.3392 1.06543 36.6316C4.34655 33.3941 7.62768 30.1458 10.9088 26.9082C18.0569 19.8435 25.2051 12.7894 32.3426 5.72469C33.9086 4.18095 35.4639 4.19167 37.0299 5.73541C40.865 9.53044 44.7107 13.3255 48.5458 17.1098C48.6736 17.2277 48.8015 17.3456 48.9826 17.5279C48.9826 15.6625 48.9826 13.8829 48.9826 12.039C48.4606 12.039 47.9705 12.0497 47.4698 12.039C46.7454 12.0283 46.5004 11.7817 46.5004 11.0742C46.5004 7.75085 46.5004 4.42752 46.5004 1.1042C46.5004 0.364489 46.7561 0.11792 47.5018 0.11792C52.4022 0.11792 57.3026 0.11792 62.2029 0.11792C62.9806 0.11792 63.2256 0.364489 63.2256 1.13636C63.2256 4.43824 63.2256 7.75085 63.2256 11.0527C63.2256 11.8032 62.9912 12.0283 62.2349 12.0497C61.8088 12.0605 61.3826 12.0497 60.882 12.0497C60.882 12.2963 60.882 12.5 60.882 12.7037C60.882 18.0639 60.882 23.4241 60.8713 28.7843C60.8713 29.1809 60.9991 29.4382 61.2761 29.7062C63.6304 32.0111 65.9634 34.3375 68.3177 36.6423C69.0741 37.3928 69.4363 38.2826 69.2232 39.3546C68.9569 40.7054 67.8597 41.6595 66.4854 41.6809C65.2816 41.7024 64.0778 41.6809 62.8101 41.6809C62.7995 41.9382 62.7782 42.1634 62.7782 42.3885C62.7782 52.1655 62.7782 61.9318 62.7782 71.7088C62.7782 73.2418 62.0218 74.3567 60.7115 74.7319C60.36 74.8284 59.9764 74.8713 59.6036 74.8713C45.1368 74.882 30.6594 74.882 16.1927 74.8713C16.0116 74.8713 15.8305 74.8713 15.66 74.8284C15.2872 74.7319 15.0741 74.4639 15.0954 74.0887C15.1167 73.6814 15.3511 73.4241 15.7666 73.3919C15.9583 73.3705 16.1607 73.3812 16.3525 73.3812C30.702 73.3812 45.041 73.3812 59.3905 73.3812C60.818 73.3812 61.2761 72.9202 61.2761 71.4944C61.2761 61.4708 61.2761 51.4472 61.2761 41.4236C61.2761 40.3516 61.4359 40.1908 62.5119 40.1908C63.705 40.1908 64.8875 40.1801 66.0806 40.2015C66.7944 40.2122 67.3909 40.0407 67.6786 39.3117C67.9555 38.6149 67.6466 38.0789 67.1566 37.5965C64.7277 35.2165 62.3201 32.8152 59.8912 30.4352C59.529 30.0815 59.3799 29.717 59.3799 29.2131C59.3905 23.3705 59.3905 17.5279 59.3905 11.6852C59.3905 10.7418 59.5823 10.5489 60.4984 10.5489C60.9246 10.5489 61.3081 10.5489 61.7662 10.5489Z" fill="#3E4CC2"/>
<path d="M10.3118 75C9.92824 75 9.54473 74.9893 9.16123 74.9464C7.69111 74.7856 6.62581 73.66 6.50863 72.1377C6.49798 71.9554 6.49798 71.7732 6.49798 71.5909C6.49798 71.5373 6.49798 71.4837 6.49798 71.4301C6.49798 61.7603 6.49798 52.1012 6.49798 42.4314V41.7989C6.14643 41.7989 5.79488 41.7989 5.45398 41.7989C4.60174 41.7989 3.80277 41.7989 2.98249 41.7882C1.42715 41.7667 0.24467 40.7268 0.0209567 39.1831C-0.117532 38.2075 0.212711 37.3177 1.00103 36.5352C3.48318 34.0909 5.99729 31.6038 8.42617 29.2024L32.2889 5.6282C33.8868 4.0523 35.5167 4.0523 37.1253 5.63892C40.9604 9.43394 44.8062 13.229 48.6412 17.0133C48.7158 17.0883 48.801 17.1634 48.8969 17.2598V12.1248C48.7691 12.1248 48.6412 12.1248 48.524 12.1248C48.1725 12.1248 47.8316 12.1248 47.4907 12.1248C46.713 12.114 46.4148 11.8246 46.4148 11.0527C46.4148 7.87948 46.4148 4.52399 46.4148 1.08274C46.4148 0.278709 46.713 -0.0107422 47.5227 -0.0107422C52.2526 -0.0107422 57.0571 -0.0107422 62.2238 -0.0107422C63.0654 -0.0107422 63.353 0.278709 63.353 1.1149C63.353 4.65264 63.353 7.90093 63.353 11.0313C63.353 11.8353 63.076 12.114 62.2558 12.1248C61.9681 12.1248 61.6698 12.1248 61.3609 12.1248C61.2437 12.1248 61.1265 12.1248 60.9987 12.1248V15.8555C60.9987 20.0793 60.9987 24.4533 60.9881 28.7521C60.9881 29.1059 61.0946 29.3418 61.3503 29.5991C63.0441 31.2607 64.7592 32.9545 66.4211 34.5948C67.0816 35.2487 67.7314 35.8919 68.3919 36.5459C69.2122 37.3606 69.5318 38.304 69.3293 39.3546C69.0524 40.7697 67.9125 41.7453 66.485 41.7667C65.6541 41.7774 64.8338 41.7774 63.9709 41.7774C63.6193 41.7774 63.2678 41.7774 62.9162 41.7774C62.9162 41.831 62.9162 41.8739 62.9056 41.9168C62.8949 42.0776 62.8843 42.2277 62.8843 42.3778C62.8843 46.6874 62.8843 50.9863 62.8843 55.2959C62.8843 60.7633 62.8843 66.2307 62.8843 71.6981C62.8843 73.2955 62.1066 74.4318 60.743 74.8178C60.4128 74.9143 60.0293 74.9571 59.6138 74.9571C44.8381 74.9678 30.0731 74.9678 16.2029 74.9571H16.1816C16.0005 74.9571 15.8193 74.9571 15.6489 74.9142C15.2228 74.807 14.9778 74.4854 15.0097 74.0566C15.031 73.5956 15.3187 73.2955 15.7767 73.2633C15.9259 73.2526 16.075 73.2526 16.2242 73.2526C16.2774 73.2526 16.32 73.2526 16.3733 73.2526H59.4114C60.775 73.2526 61.1905 72.8345 61.1905 71.473V41.4022C61.1905 40.2766 61.4035 40.0622 62.5327 40.0622C62.8736 40.0622 63.2252 40.0622 63.5661 40.0622C64.397 40.0622 65.2599 40.0515 66.1015 40.0729C66.9218 40.0943 67.3692 39.8478 67.6036 39.2581C67.8273 38.7007 67.6781 38.2183 67.1029 37.6608C66.0269 36.5995 64.951 35.5382 63.875 34.4768C62.554 33.1689 61.1905 31.8182 59.8375 30.4996C59.454 30.1243 59.2942 29.7384 59.2942 29.2024C59.3049 24.7427 59.3049 20.1972 59.3049 15.8126V11.6745C59.3049 10.6775 59.5392 10.4309 60.5193 10.4309C60.7856 10.4309 61.0413 10.4309 61.3289 10.4309H61.6379V1.74741H48.1618V10.4309C48.279 10.4309 48.3962 10.4309 48.524 10.4309C48.8649 10.4309 49.2271 10.4309 49.5787 10.4309C50.3564 10.4417 50.644 10.7204 50.644 11.5137C50.644 12.843 50.644 14.1724 50.644 15.491C50.644 16.6809 50.644 17.8709 50.644 19.0716C50.644 19.479 50.6014 19.94 50.09 20.1436C49.5787 20.3473 49.2378 20.015 48.9928 19.7684C45.8395 16.6488 42.6862 13.5291 39.5329 10.4202L35.9322 6.86104C34.9841 5.92837 34.4408 5.91765 33.5033 6.85032L31.2768 9.04801C21.6359 18.5677 12.0056 28.0875 2.36462 37.6072C1.98111 37.9931 1.66152 38.3576 1.69348 38.9044C1.74674 39.6119 2.27939 40.0836 3.0251 40.0943C3.87734 40.1051 4.75089 40.1051 5.59247 40.1051C6.07186 40.1051 6.54059 40.1051 7.01998 40.1051C7.93613 40.1051 8.1918 40.3731 8.1918 41.295C8.1918 48.4134 8.1918 55.521 8.1918 62.6394V71.5266C8.1918 72.8881 8.60727 73.2955 9.97085 73.2955C10.0987 73.2955 10.2372 73.2955 10.365 73.2955C10.6846 73.2955 11.0255 73.2955 11.3557 73.2955C11.8884 73.3062 12.208 73.6064 12.2186 74.1102C12.2293 74.6248 11.9204 74.9571 11.3877 74.9786C11.0468 74.9893 10.6846 75 10.3118 75ZM6.61516 41.5845H6.72169V42.4314C6.72169 52.1012 6.72169 61.7603 6.72169 71.4301C6.72169 71.4837 6.72169 71.5373 6.72169 71.5909C6.72169 71.7624 6.72169 71.9447 6.73234 72.1162C6.83887 73.5313 7.81895 74.5819 9.19319 74.732C9.92824 74.807 10.6846 74.7856 11.409 74.7642C11.8138 74.7534 12.0375 74.5176 12.0269 74.1102C12.0162 73.7136 11.7925 73.5099 11.3664 73.4992C11.0362 73.4884 10.7059 73.4992 10.3863 73.4992C10.2478 73.4992 10.12 73.4992 9.98151 73.4992C8.49009 73.4992 7.9894 72.9953 7.9894 71.5159V62.6287C7.9894 55.5103 7.9894 48.4027 7.9894 41.2843C7.9894 40.491 7.81895 40.3087 7.03063 40.3087C6.55124 40.3087 6.08251 40.3087 5.60313 40.3087C4.76154 40.3087 3.88799 40.3087 3.03575 40.298C2.17286 40.2873 1.55499 39.7298 1.49107 38.9151C1.44846 38.2826 1.81066 37.8645 2.22613 37.4571C11.8564 27.9374 21.4867 18.4177 31.1277 8.89792L33.3542 6.70024C34.3662 5.69252 35.0587 5.70324 36.0813 6.71096L39.6927 10.2809C42.846 13.4005 45.9993 16.5094 49.1526 19.6291C49.4402 19.9078 49.6639 20.1008 50.0155 19.9614C50.367 19.822 50.4309 19.5433 50.4309 19.0823C50.4309 17.8924 50.4309 16.6917 50.4309 15.5017C50.4309 14.1724 50.4309 12.8538 50.4309 11.5244C50.4309 10.849 50.2498 10.6668 49.5787 10.6561C49.2271 10.6561 48.8649 10.6561 48.524 10.6561C48.3643 10.6561 48.2151 10.6561 48.0553 10.6561H47.9488V1.54372H61.8616V10.6561H61.3396C61.0626 10.6561 60.7963 10.6561 60.53 10.6561C59.6671 10.6561 59.5286 10.8062 59.5286 11.6852V15.8233C59.5286 20.208 59.5286 24.7534 59.5179 29.2131C59.5179 29.6848 59.6564 30.0279 59.9973 30.3602C61.3503 31.6788 62.7138 33.0296 64.0348 34.3375C65.1108 35.3988 66.1867 36.4601 67.2627 37.5214C67.6888 37.9395 68.1362 38.5292 67.806 39.3546C67.4544 40.2337 66.6661 40.3195 66.1015 40.3087C65.2599 40.298 64.397 40.298 63.5661 40.298C63.2252 40.298 62.8736 40.298 62.5327 40.298C61.5207 40.298 61.4035 40.416 61.4035 41.4237V71.4944C61.4035 72.9846 60.9028 73.4884 59.4114 73.4884H16.3733C16.32 73.4884 16.2774 73.4884 16.2242 73.4884C16.0857 73.4884 15.9365 73.4884 15.798 73.4992C15.4465 73.5313 15.2441 73.735 15.2228 74.0995C15.2015 74.4211 15.3719 74.6462 15.7022 74.732C15.8513 74.7749 16.0218 74.7642 16.1816 74.7749H16.2029C30.0731 74.7749 44.8381 74.7749 59.6138 74.7749C60.0186 74.7749 60.3808 74.732 60.6898 74.6355C61.9468 74.271 62.6712 73.2097 62.6712 71.7196C62.6712 66.2522 62.6712 60.7847 62.6712 55.3173C62.6712 51.0077 62.6712 46.7088 62.6712 42.3992C62.6712 42.2491 62.6819 42.0883 62.6925 41.9275C62.6925 41.8525 62.7032 41.7667 62.7032 41.681V41.5738H62.8097C63.2039 41.5738 63.5874 41.5738 63.9709 41.5738C64.8338 41.5738 65.6541 41.5845 66.485 41.563C67.806 41.5416 68.8606 40.6411 69.1163 39.3225C69.308 38.3362 69.0204 37.4786 68.2427 36.7067C67.5823 36.0527 66.9324 35.4095 66.2719 34.7556C64.6101 33.1153 62.8949 31.4215 61.2011 29.7599C60.8922 29.4597 60.7643 29.1702 60.7643 28.7629C60.775 24.464 60.775 20.1008 60.775 15.8662V11.9211H60.8815C61.0413 11.9211 61.2011 11.9211 61.3503 11.9211C61.6592 11.9211 61.9468 11.9211 62.2345 11.9211C62.9375 11.9104 63.1293 11.7281 63.1293 11.0313C63.1293 7.90093 63.1293 4.65264 63.1293 1.1149C63.1293 0.396634 62.9269 0.203666 62.2131 0.203666C57.0464 0.203666 52.2419 0.203666 47.512 0.203666C46.8302 0.203666 46.6172 0.407354 46.6172 1.08274C46.6172 4.52399 46.6172 7.87948 46.6172 11.0527C46.6172 11.696 46.8196 11.8996 47.4801 11.9104C47.8209 11.9211 48.1512 11.9104 48.5027 11.9104C48.6625 11.9104 48.8223 11.9104 48.9821 11.9104H49.0887V17.753L48.9076 17.5815C48.8436 17.5171 48.7904 17.4635 48.7371 17.4207C48.6306 17.3242 48.556 17.2491 48.4708 17.1634C44.6357 13.3683 40.79 9.58403 36.9549 5.789C35.4209 4.27742 33.9401 4.2667 32.4167 5.77828L8.58597 29.3739C6.15708 31.7753 3.64298 34.2624 1.16083 36.7067C0.415118 37.4464 0.106181 38.2504 0.234017 39.1724C0.436424 40.5982 1.54434 41.5738 2.98249 41.5952C3.80277 41.6059 4.60174 41.6059 5.45398 41.6059C5.83749 41.5845 6.221 41.5845 6.61516 41.5845Z" fill="#231F20"/>
<path d="M34.7075 39.7512C35.1123 39.3117 35.4745 38.8721 35.8687 38.4648C37.1364 37.1997 38.6278 36.3528 40.3642 35.9455C41.0034 35.7954 41.4082 35.9776 41.5147 36.4493C41.6106 36.9103 41.3336 37.2426 40.7264 37.382C38.5213 37.918 36.8594 39.1937 35.6343 41.0805C35.5917 41.1449 35.5597 41.1985 35.5278 41.2628C34.9738 42.1526 34.4412 42.1526 33.8979 41.2842C32.8965 39.6762 31.5755 38.4433 29.8071 37.7465C27.6659 36.9103 25.5246 36.9425 23.4473 37.9395C20.8586 39.183 19.8679 41.4343 19.8039 44.1787C19.74 46.5479 20.4538 48.7456 21.4339 50.879C22.7868 53.8271 24.928 56.0998 27.3782 58.1367C29.5727 59.9592 31.9164 61.5672 34.3772 63.0145C34.537 63.111 34.8353 63.1431 34.9738 63.0574C38.3082 61.0741 41.4934 58.8657 44.2632 56.0998C47.0223 53.3554 48.7694 50.075 49.4512 46.2263C49.6962 44.8648 49.6749 43.4926 49.3234 42.1311C48.7694 39.9871 47.4698 38.5184 45.4244 37.7036C45.2966 37.65 45.1581 37.6178 45.0196 37.5642C44.5935 37.382 44.4124 36.9961 44.5402 36.6208C44.6787 36.2135 45.0728 36.0205 45.5309 36.1706C47.3419 36.7709 48.8227 37.843 49.8134 39.5046C50.8361 41.2199 51.1877 43.1067 51.0279 45.0685C50.6657 49.7319 48.6949 53.6663 45.4564 56.9789C42.4202 60.0878 38.8621 62.5106 35.1336 64.6762C34.9099 64.8048 34.4731 64.8262 34.2494 64.6976C30.2971 62.382 26.5047 59.8198 23.3727 56.4214C20.4431 53.2268 18.6747 49.4746 18.3232 45.1114C18.2167 43.8357 18.3445 42.5707 18.728 41.3485C19.8039 37.9823 22.2222 36.2242 25.6098 35.7846C29.1679 35.3237 32.0762 36.6316 34.3559 39.3974C34.4305 39.4939 34.5157 39.5904 34.5903 39.6869C34.6329 39.7083 34.6542 39.719 34.7075 39.7512Z" fill="#3E4CC2"/>
<path d="M34.6959 64.9013C34.5254 64.9013 34.3443 64.8691 34.2271 64.7941C30.7223 62.7465 26.6955 60.1521 23.3291 56.4965C20.3037 53.2053 18.5992 49.3781 18.2476 45.1221C18.1411 43.7928 18.2796 42.517 18.6631 41.3163C19.7177 38.0466 22.0614 36.1491 25.6302 35.6774C29.1243 35.2271 32.0965 36.4493 34.4721 39.3223C34.5147 39.3759 34.568 39.4403 34.6106 39.4939C34.6319 39.526 34.6639 39.5582 34.6852 39.5903C34.7917 39.4724 34.8876 39.3652 34.9835 39.2473C35.2498 38.9471 35.5055 38.6577 35.7825 38.3789C37.0608 37.1032 38.5948 36.2456 40.3313 35.8275C40.7254 35.731 41.045 35.7632 41.2794 35.9025C41.4498 36.0097 41.567 36.1813 41.6203 36.4171C41.7375 36.9317 41.4179 37.3176 40.7574 37.4784C38.6694 37.9823 36.9756 39.2151 35.7292 41.1341C35.7079 41.1663 35.6866 41.1984 35.6653 41.2413C35.6546 41.2627 35.6333 41.2949 35.6227 41.3163C35.3244 41.7988 35.0261 42.0346 34.7065 42.0346C34.3976 42.0346 34.1099 41.8095 33.8116 41.3271C32.757 39.6332 31.436 38.4861 29.7742 37.8322C27.6329 36.9853 25.5236 37.0496 23.4996 38.0252C21.1559 39.1508 19.9841 41.1663 19.9095 44.168C19.8562 46.2263 20.3569 48.2739 21.5288 50.8254C22.7006 53.3661 24.5755 55.6603 27.4412 58.0402C29.5398 59.7876 31.8195 61.3742 34.4189 62.9073C34.5574 62.9823 34.8024 63.0038 34.9089 62.9502C38.8079 60.6238 41.7588 58.4261 44.177 56.014C46.9361 53.2803 48.6726 49.9677 49.3437 46.1941C49.5887 44.7898 49.5568 43.4283 49.2265 42.1418C48.6939 40.0513 47.4049 38.5934 45.3915 37.7893C45.3382 37.7679 45.2743 37.7464 45.221 37.725C45.1464 37.7036 45.0719 37.6714 44.9973 37.6392C44.5286 37.4355 44.3048 36.996 44.454 36.5672C44.6138 36.0848 45.0719 35.8811 45.5832 36.0526C47.5007 36.6958 48.9709 37.8322 49.9296 39.4295C50.9097 41.0698 51.3252 42.9566 51.1654 45.0578C50.8138 49.5603 48.9282 53.5912 45.5619 57.0325C42.9093 59.7447 39.7134 62.1354 35.2178 64.7512C35.0794 64.8584 34.8876 64.9013 34.6959 64.9013ZM27.015 35.806C26.5676 35.806 26.1202 35.8382 25.6621 35.8918C22.1786 36.3421 19.8988 38.186 18.8762 41.3807C18.5033 42.5492 18.3648 43.7928 18.4713 45.1006C18.8122 49.3138 20.5061 53.0981 23.4996 56.3464C26.8446 59.9806 30.8608 62.5642 34.3443 64.6011C34.5254 64.7083 34.9196 64.6976 35.122 64.5797C39.5962 61.9639 42.7708 59.5947 45.4128 56.8931C48.7471 53.484 50.6114 49.496 50.9523 45.0578C51.1121 43.0102 50.7073 41.1555 49.7485 39.5582C48.8111 38.0037 47.3942 36.8888 45.5193 36.267C45.1251 36.1384 44.7842 36.2885 44.6564 36.653C44.5392 36.9853 44.7097 37.3069 45.0825 37.4677C45.1464 37.4999 45.221 37.5213 45.2956 37.5428C45.3595 37.5642 45.4234 37.5856 45.4873 37.6071C47.5647 38.4325 48.8963 39.9548 49.4502 42.1096C49.7911 43.4283 49.8338 44.8219 49.5781 46.2477C48.8963 50.0642 47.1385 53.409 44.3581 56.1748C41.9292 58.5977 38.9677 60.8061 35.0474 63.1431C34.8556 63.2503 34.5254 63.2182 34.3443 63.1002C31.7343 61.5672 29.4439 59.9699 27.3346 58.2117C24.4477 55.8104 22.5514 53.4947 21.369 50.9218C20.1865 48.3382 19.6751 46.2585 19.7284 44.168C19.803 41.0698 21.0174 39.0007 23.4356 37.8322C25.513 36.8352 27.6755 36.7709 29.8807 37.6285C31.5639 38.2932 32.9594 39.4939 34.0141 41.2091C34.2591 41.6058 34.5041 41.8095 34.7278 41.8095C34.9622 41.8095 35.2072 41.6058 35.4629 41.1877C35.4735 41.1663 35.4948 41.1341 35.5055 41.1127C35.5268 41.0805 35.5481 41.0376 35.5694 41.0054C36.8478 39.0436 38.5842 37.7786 40.7254 37.264C41.1089 37.1675 41.5351 36.9531 41.4285 36.46C41.3966 36.2885 41.3114 36.1598 41.1835 36.0848C41.0024 35.9668 40.7361 35.9561 40.4059 36.0312C38.7014 36.4385 37.21 37.2747 35.9529 38.529C35.6866 38.797 35.4309 39.0865 35.1646 39.3867C35.0474 39.526 34.9196 39.6654 34.7917 39.8048L34.7278 39.8798L34.6532 39.8155C34.6319 39.8048 34.6213 39.794 34.6106 39.7833C34.5893 39.7726 34.5787 39.7512 34.5574 39.7404C34.5254 39.6976 34.4934 39.6547 34.4615 39.6225C34.4189 39.5689 34.3763 39.5046 34.323 39.451C32.2989 37.0389 29.8487 35.806 27.015 35.806Z" fill="#231F20"/>
</g>
<defs>
<clipPath id="clip0_1644_1237">
<rect width="69.4149" height="75" fill="white"/>
</clipPath>
</defs>
</svg>
