<svg width="193" height="83" viewBox="0 0 193 83" fill="none" xmlns="http://www.w3.org/2000/svg">
<path fill-rule="evenodd" clip-rule="evenodd" d="M157.701 64.4286C157.701 67.6635 154.909 70.2858 151.464 70.2858H21.383C17.9385 70.2858 15.1462 67.6635 15.1462 64.4286C15.1462 61.1938 17.9385 58.5715 21.383 58.5715H26.7288C30.1732 58.5715 32.9655 55.9492 32.9655 52.7144C32.9655 49.4795 30.1732 46.8572 26.7288 46.8572H9.80038C6.35591 46.8572 3.56361 44.2349 3.56361 41.0001C3.56361 37.7653 6.35591 35.1429 9.80038 35.1429H29.4017C25.9572 35.1429 23.1649 32.5206 23.1649 29.2858C23.1649 26.051 25.9572 23.4286 29.4017 23.4286H86.4236C82.9791 23.4286 80.1868 20.8063 80.1868 17.5715C80.1868 14.3367 82.9791 11.7144 86.4236 11.7144H137.209C140.653 11.7144 143.446 14.3367 143.446 17.5715C143.446 20.8063 140.653 23.4286 137.209 23.4286H172.847C176.292 23.4286 179.084 26.051 179.084 29.2858C179.084 32.5206 176.292 35.1429 172.847 35.1429H150.573C147.129 35.1429 144.336 37.7653 144.336 41.0001C144.336 44.2349 147.129 46.8572 150.573 46.8572H186.212C189.656 46.8572 192.449 49.4795 192.449 52.7144C192.449 55.9492 189.656 58.5715 186.212 58.5715H151.464C154.909 58.5715 157.701 61.1938 157.701 64.4286ZM6.23662 70.2857C2.79214 70.2857 -0.000152588 67.6634 -0.000152588 64.4286C-0.000152588 61.1938 2.79214 58.5714 6.23662 58.5714C9.68109 58.5714 12.4734 61.1938 12.4734 64.4286C12.4734 67.6634 9.68109 70.2857 6.23662 70.2857Z" fill="#CEE7FF"/>
<g clip-path="url(#clip0_2090_126)">
<path d="M37.0634 54.4515C35.6685 54.2618 34.3501 54.1859 33.089 53.8824C29.4968 53.0476 26.7644 49.955 26.1721 46.3692C25.5988 42.9351 26.6498 40.0513 29.0955 37.6228C41.4008 25.3854 53.7443 13.129 66.0878 0.872654C67.2725 -0.303654 67.6164 -0.303654 68.782 0.853681C74.4569 6.50754 80.1319 12.1424 85.8068 17.7773C85.9597 17.9291 86.2272 18.0619 86.2654 18.2516C86.3419 18.6501 86.3227 19.0864 86.3419 19.5038C85.9215 19.5038 85.5011 19.5608 85.0808 19.5038C84.9088 19.4849 84.7559 19.2193 84.6031 19.0485C79.1574 13.6413 73.6926 8.23406 68.247 2.80787C67.9986 2.56122 67.8075 2.27663 67.54 1.97307C67.1961 2.29561 66.9668 2.48533 66.7375 2.71301C54.5468 14.7986 42.3753 26.9032 30.1847 38.9888C28.5987 40.5635 27.6433 42.5367 27.7198 44.7565C27.8726 48.3803 29.9363 51.4728 33.9489 52.3835C36.8914 53.0476 39.4327 52.1559 41.4963 50.1258C49.8081 41.9296 58.1008 33.6954 66.3553 25.4423C67.1769 24.6265 67.4445 24.266 68.6482 25.4613C77.0938 33.8472 85.5393 42.2331 93.9849 50.6191C95.2078 51.8143 96.7173 52.3835 98.4179 52.6112C102.717 53.1804 106.214 50.1447 107.035 46.7676C107.647 44.1873 107.265 41.8157 105.335 39.8805C100.997 35.5358 96.6408 31.229 92.2843 26.9032C91.9977 26.6186 91.6538 26.2961 91.5773 25.9356C91.5009 25.632 91.6538 25.1008 91.8831 24.93C92.0741 24.7783 92.6665 24.8731 92.8958 25.0818C95.2078 27.2637 97.5007 29.4455 99.7554 31.6843C106.118 37.9833 112.462 44.3012 118.806 50.6001C120.029 51.8143 121.519 52.3835 123.22 52.6112C127.48 53.1804 131.015 50.1827 131.837 46.7866C132.506 44.0545 131.99 41.5501 130.003 39.558C117.487 26.9981 104.895 14.514 92.3034 2.02999C92.1315 1.85923 91.8257 1.68848 91.7875 1.49875C91.7111 1.10033 91.6347 0.56909 91.8257 0.2845C91.9595 0.094773 92.5709 0.189636 92.9722 0.265527C93.1442 0.303473 93.297 0.550118 93.4499 0.720872C98.5325 5.76761 103.634 10.8333 108.717 15.899C108.965 16.1457 109.061 16.5062 109.233 16.8097C109.386 16.7149 109.538 16.62 109.672 16.5251C109.672 15.216 109.672 13.9259 109.672 12.6168C109.672 11.2887 109.71 11.2317 111.086 11.2317C115.041 11.2317 118.978 11.2317 122.933 11.2317C124.079 11.2317 124.194 11.3456 124.194 12.4839C124.194 15.5196 124.213 18.5552 124.194 21.5908C124.156 24.4937 124.041 27.3775 124.041 30.2803C124.041 30.7167 124.27 31.2669 124.576 31.5705C126.678 33.7334 128.799 35.8583 130.977 37.9453C133.041 39.9374 134.034 42.347 133.92 45.1549C133.729 49.6894 130.614 53.2942 126.219 54.2618C125.207 54.4895 124.118 54.4326 122.914 54.5274C122.895 54.7551 122.876 55.1156 122.876 55.4761C122.876 63.862 122.876 72.229 122.876 80.6149C122.876 81.943 122.837 81.9999 121.462 81.9999C116.838 81.9999 112.233 81.9999 107.609 81.9999C106.959 81.9999 106.214 82.0948 106.271 81.1272C106.309 80.2354 107.035 80.2924 107.666 80.2924C111.774 80.2924 115.882 80.2924 119.99 80.2924C120.334 80.2924 120.678 80.2924 121.099 80.2924C121.118 79.9319 121.137 79.6283 121.137 79.3248C121.137 71.1665 121.137 63.0082 121.156 54.85C121.156 54.2049 120.984 53.9203 120.334 53.6547C119.436 53.2752 118.557 52.7061 117.85 52.023C115.175 49.4617 112.557 46.8056 109.921 44.1873C109.71 43.9786 109.481 43.7699 109.099 43.4094C109.309 46.6727 108.468 49.4807 106.252 51.6626C104.074 53.8254 101.322 54.6982 98.0739 54.4326C98.0548 54.7741 98.0357 55.1346 98.0357 55.495C98.0357 63.843 98.0166 72.191 98.0548 80.539C98.0548 81.8861 97.7682 82.0189 96.6217 82.0189C77.2658 81.9999 57.8907 81.9999 38.5347 81.9999C37.1207 81.9999 37.1016 81.962 37.1016 80.558C37.1016 72.21 37.1016 63.862 37.1016 55.514C37.0634 55.1156 37.0634 54.7361 37.0634 54.4515ZM96.2969 80.2354C96.2969 79.7991 96.2969 79.4386 96.2969 79.0971C96.2969 73.9175 96.2969 68.719 96.2969 63.5395C96.2969 60.5608 96.316 57.601 96.2778 54.6223C96.2778 54.3187 96.0485 53.8444 95.8192 53.7685C94.2142 53.2373 92.9722 52.1938 91.8257 51.0554C83.9343 43.2577 76.062 35.4219 68.1896 27.5862C67.9604 27.3585 67.8648 26.9601 67.712 26.6376C67.0623 27.1498 66.8521 27.4344 66.6037 27.6811C58.6167 35.6117 50.6298 43.5802 42.6046 51.4728C41.7639 52.3076 40.6747 52.9337 39.6047 53.5029C39.0124 53.8255 38.7449 54.0911 38.7449 54.812C38.7831 62.9703 38.764 71.1285 38.764 79.2868C38.764 79.5904 38.7831 79.8939 38.8022 80.2354C57.9862 80.2354 77.0747 80.2354 96.2969 80.2354ZM111.392 12.9583C111.392 14.6468 111.354 16.2216 111.411 17.7963C111.43 18.2137 111.621 18.726 111.908 19.0106C115.156 22.2739 118.423 25.5182 121.691 28.7435C121.844 28.8953 121.997 29.0281 122.341 29.3507C122.341 23.7348 122.341 18.3655 122.341 12.9583C118.748 12.9583 115.137 12.9583 111.392 12.9583Z" fill="#0052A3"/>
<path d="M67.5015 71.1666C64.6736 71.1666 61.8457 71.1666 58.9987 71.1666C57.0306 71.1666 55.9606 70.1041 55.9606 68.1879C55.9606 63.8621 56.037 59.5363 55.9223 55.2106C55.8841 53.2564 56.9924 52.0421 58.9796 52.0232C64.6736 51.9662 70.3677 51.9662 76.0617 52.0232C78.068 52.0421 79.1381 53.3133 79.0998 55.1347C79.0043 59.5174 79.0807 63.919 79.0616 68.3017C79.0616 70.0093 77.9152 71.1476 76.1573 71.1476C73.3102 71.1666 70.4059 71.1666 67.5015 71.1666ZM67.5398 69.2693C70.3677 69.2693 73.1956 69.2693 76.0426 69.2693C77.1891 69.2693 77.3802 69.0986 77.3802 67.9792C77.3802 63.7103 77.3802 59.4415 77.3802 55.1916C77.3802 54.2809 76.998 53.9015 76.0426 53.9015C70.3868 53.9015 64.7118 53.9015 59.056 53.9015C58.1388 53.9015 57.7185 54.2809 57.6993 55.1916C57.6802 59.5174 57.6802 63.8431 57.6993 68.1689C57.6993 68.9089 58.0051 69.2883 58.8458 69.2883C61.7502 69.2504 64.6354 69.2693 67.5398 69.2693Z" fill="#0052A3"/>
<path fill-rule="evenodd" clip-rule="evenodd" d="M33.0653 6.23587C32.1505 8.5224 30.3387 10.3342 28.0522 11.2489L27.6734 11.4005L28.0522 11.552C30.3387 12.4668 32.1505 14.2786 33.0653 16.5651L33.2168 16.9438L33.3683 16.5651C34.2831 14.2786 36.0949 12.4668 38.3814 11.552L38.7602 11.4005L38.3814 11.2489C36.0949 10.3342 34.2831 8.5224 33.3683 6.23587L33.2168 5.85711L33.0653 6.23587Z" stroke="#0061C1" stroke-width="2" stroke-linejoin="round"/>
</g>
<path fill-rule="evenodd" clip-rule="evenodd" d="M159.099 51.9425C158.184 54.229 156.372 56.0408 154.086 56.9555L153.184 57.3163L154.086 57.677C156.372 58.5918 158.184 60.4036 159.099 62.6901L159.459 63.5918L159.82 62.6901C160.735 60.4036 162.547 58.5918 164.833 57.677L165.735 57.3163L164.833 56.9555C162.547 56.0408 160.735 54.229 159.82 51.9425L159.459 51.0408L159.099 51.9425Z" stroke="#0061C1" stroke-width="2.5" stroke-linejoin="round"/>
<path fill-rule="evenodd" clip-rule="evenodd" d="M140.842 73.0051C140.04 75.0087 138.453 76.5963 136.449 77.3979V77.3979V77.3979C138.453 78.1995 140.04 79.7871 140.842 81.7908V81.7908V81.7908C141.643 79.7871 143.231 78.1995 145.235 77.3979V77.3979V77.3979C143.231 76.5963 141.643 75.0087 140.842 73.0051V73.0051V73.0051Z" stroke="#0061C1" stroke-width="2" stroke-linejoin="round"/>
<defs>
<clipPath id="clip0_2090_126">
<rect width="107.939" height="82" fill="white" transform="translate(26)"/>
</clipPath>
</defs>
</svg>
