<?xml version="1.0" encoding="utf-8"?>
<!-- Generator: Adobe Illustrator 26.3.1, SVG Export Plug-In . SVG Version: 6.00 Build 0)  -->
<svg version="1.1" id="Layer_2_1_" xmlns="http://www.w3.org/2000/svg" xmlns:xlink="http://www.w3.org/1999/xlink" x="0px" y="0px"
	 viewBox="0 0 512 512" style="enable-background:new 0 0 512 512;" xml:space="preserve">
<style type="text/css">
	.st0{clip-path:url(#SVGID_00000062896984476287288110000010956165574482195109_);}
	.st1{fill:#FFFFFF;}
</style>
<g>
	<defs>
		<rect id="SVGID_1_" x="135.5" y="174.3" width="241" height="164.6"/>
	</defs>
	<clipPath id="SVGID_00000032620407814421732450000000925590249958092188_">
		<use xlink:href="#SVGID_1_"  style="overflow:visible;"/>
	</clipPath>
	<g style="clip-path:url(#SVGID_00000032620407814421732450000000925590249958092188_);">
		<path class="st1" d="M183.8,197.7c-0.3-1.2-0.5-2.5-0.9-3.6c-1.8-5.3-7.1-8.5-12.9-7.9c-5.5,0.6-10.3,5-10.5,10.4
			c-0.3,8.1-0.1,16.3-0.1,24.7c72.3,0,144.6,0,217,0c0,4,0,7.7,0,11.7c-3.9,0-7.8,0-11.9,0c0,0.9,0,1.7,0,2.4c0,8.8,0,17.5,0,26.3
			c-0.1,29.1-18.2,53.5-46.6,62.5c-1.4,0.4-1.7,1.1-1.7,2.4c0.1,4.1,0,8.1,0,12.3c-4.1,0-7.9,0-12,0c0-3.8,0-7.7,0-11.7
			c-32.3,0-64.3,0-96.6,0c0,3.8,0,7.7,0,11.7c-4.1,0-8,0-12.1,0c0-3.8-0.2-7.5,0-11.2c0.1-2.2-0.6-3.1-2.8-3.8
			c-27.1-8.8-45.1-32.9-45.5-60.6c-0.1-9.2,0-18.3,0-27.5c0-0.8,0-1.5,0-2.5c-4.1,0-7.9,0-11.9,0c0-4,0-7.7,0-11.7
			c3.9,0,7.8,0,11.9,0c0-0.9,0-1.7,0-2.4c0-7.2-0.1-14.4,0-21.5c0.2-11.7,9-21.3,20.8-23c11.4-1.7,22.7,5.2,26.2,16.1
			c0.7,2.2,1,4.6,1.5,7.1C191.6,197.7,187.7,197.7,183.8,197.7z M159.5,233.3c0,0.6,0,1.1,0,1.5c0,9.5-0.1,19,0.1,28.5
			c0,3.2,0.4,6.5,1,9.6c5.3,25.1,27.2,42.5,53.8,42.6c27.8,0,55.5,0,83.3,0c2.4,0,4.9-0.1,7.3-0.4c27.6-3.7,47.4-25.7,47.5-52.9
			c0-9,0-17.9,0-26.9c0-0.6,0-1.3-0.1-2.1C288.1,233.3,223.9,233.3,159.5,233.3z"/>
		<path class="st1" d="M304.2,198.1c-0.1,6.5-5.6,11.7-12.4,11.5c-6.5-0.1-11.9-5.5-11.7-11.9c0.2-6.6,5.6-11.7,12.4-11.5
			C299.1,186.3,304.3,191.6,304.2,198.1z"/>
		<path class="st1" d="M262,197.9c3.3,0,6,2.7,6,6c0,3.2-2.8,5.9-6.2,5.8c-3.2-0.1-5.9-2.7-5.9-5.9C256,200.5,258.7,197.9,262,197.9
			z"/>
		<path class="st1" d="M328.3,192c0,3.3-2.7,5.9-6.1,5.8c-3.4,0-6-2.7-5.9-6c0-3.2,2.7-5.7,6-5.7C325.7,186.1,328.4,188.8,328.3,192
			z"/>
	</g>
</g>
</svg>
