<svg width="18" height="18" viewBox="0 0 18 18" fill="none" xmlns="http://www.w3.org/2000/svg">
<path d="M9.08301 4.26868C8.27572 4.26868 7.52051 4.47701 6.81738 4.89368C6.1403 5.2843 5.59342 5.83118 5.17676 6.5343C4.78613 7.21139 4.59082 7.95357 4.59082 8.76086C4.59082 9.56816 4.78613 10.3234 5.17676 11.0265C5.59342 11.7036 6.1403 12.2504 6.81738 12.6671C7.52051 13.0577 8.27572 13.2531 9.08301 13.2531C9.8903 13.2531 10.6325 13.0577 11.3096 12.6671C12.0127 12.2504 12.5596 11.7036 12.9502 11.0265C13.3669 10.3234 13.5752 9.56816 13.5752 8.76086C13.5752 7.95357 13.3669 7.21139 12.9502 6.5343C12.5596 5.83118 12.0127 5.2843 11.3096 4.89368C10.6325 4.47701 9.8903 4.26868 9.08301 4.26868ZM9.08301 11.6906C8.27572 11.6906 7.58561 11.4041 7.0127 10.8312C6.43978 10.2583 6.15332 9.56816 6.15332 8.76086C6.15332 7.95357 6.43978 7.26347 7.0127 6.69055C7.58561 6.11764 8.27572 5.83118 9.08301 5.83118C9.8903 5.83118 10.5804 6.11764 11.1533 6.69055C11.7262 7.26347 12.0127 7.95357 12.0127 8.76086C12.0127 9.56816 11.7262 10.2583 11.1533 10.8312C10.5804 11.4041 9.8903 11.6906 9.08301 11.6906ZM14.8252 4.07336C14.7992 4.35982 14.682 4.60722 14.4736 4.81555C14.2913 5.02389 14.057 5.12805 13.7705 5.12805C13.484 5.12805 13.2367 5.02389 13.0283 4.81555C12.82 4.60722 12.7158 4.35982 12.7158 4.07336C12.7158 3.78691 12.82 3.53951 13.0283 3.33118C13.2367 3.12284 13.484 3.01868 13.7705 3.01868C14.057 3.01868 14.3044 3.12284 14.5127 3.33118C14.721 3.53951 14.8252 3.78691 14.8252 4.07336ZM17.7939 5.12805C17.7419 4.37284 17.6247 3.7218 17.4424 3.17493C17.208 2.52389 16.8434 1.96399 16.3486 1.49524C15.8799 1.00045 15.32 0.635864 14.6689 0.401489C14.1221 0.219198 13.471 0.115031 12.7158 0.0889893C11.9867 0.0369059 10.7757 0.0108643 9.08301 0.0108643C7.3903 0.0108643 6.16634 0.0369059 5.41113 0.0889893C4.68197 0.115031 4.04395 0.219198 3.49707 0.401489C2.84603 0.635864 2.27311 1.00045 1.77832 1.49524C1.30957 1.96399 0.958008 2.52389 0.723633 3.17493C0.541341 3.7218 0.424154 4.37284 0.37207 5.12805C0.346029 5.85722 0.333008 7.06816 0.333008 8.76086C0.333008 10.4536 0.346029 11.6775 0.37207 12.4327C0.424154 13.1619 0.541341 13.7999 0.723633 14.3468C0.958008 14.9978 1.30957 15.5708 1.77832 16.0656C2.27311 16.5343 2.84603 16.8728 3.49707 17.0812C4.04395 17.2895 4.68197 17.4067 5.41113 17.4327C6.16634 17.4848 7.3903 17.5109 9.08301 17.5109C10.7757 17.5109 11.9867 17.4848 12.7158 17.4327C13.471 17.4067 14.1221 17.3025 14.6689 17.1202C15.32 16.8859 15.8799 16.5343 16.3486 16.0656C16.8434 15.5708 17.208 14.9978 17.4424 14.3468C17.6247 13.7999 17.7288 13.1619 17.7549 12.4327C17.807 11.6775 17.833 10.4536 17.833 8.76086C17.833 7.06816 17.82 5.85722 17.7939 5.12805ZM15.9189 13.9171C15.6064 14.6984 15.0465 15.2583 14.2393 15.5968C13.8226 15.7531 13.1195 15.8572 12.1299 15.9093C11.583 15.9353 10.7757 15.9484 9.70801 15.9484H8.45801C7.41634 15.9484 6.60905 15.9353 6.03613 15.9093C5.07259 15.8572 4.36947 15.7531 3.92676 15.5968C3.14551 15.2843 2.58561 14.7244 2.24707 13.9171C2.09082 13.4744 1.98665 12.7713 1.93457 11.8077C1.90853 11.2348 1.89551 10.4275 1.89551 9.38586V8.13586C1.89551 7.0942 1.90853 6.28691 1.93457 5.71399C1.98665 4.72441 2.09082 4.02128 2.24707 3.60461C2.55957 2.79732 3.11947 2.23743 3.92676 1.92493C4.36947 1.76868 5.07259 1.66451 6.03613 1.61243C6.60905 1.58639 7.41634 1.57336 8.45801 1.57336H9.70801C10.7497 1.57336 11.557 1.58639 12.1299 1.61243C13.1195 1.66451 13.8226 1.76868 14.2393 1.92493C15.0465 2.23743 15.6064 2.79732 15.9189 3.60461C16.0752 4.02128 16.1794 4.72441 16.2314 5.71399C16.2575 6.26086 16.2705 7.06816 16.2705 8.13586V9.38586C16.2705 10.4275 16.2575 11.2348 16.2314 11.8077C16.1794 12.7713 16.0752 13.4744 15.9189 13.9171Z" fill="#616161"/>
</svg>
