<svg width="27" height="28" viewBox="0 0 27 28" fill="none" xmlns="http://www.w3.org/2000/svg">
<path d="M13.5713 7.26874C9.82129 7.26874 6.83301 10.3156 6.83301 14.007C6.83301 17.757 9.82129 20.7453 13.5713 20.7453C17.2627 20.7453 20.3096 17.757 20.3096 14.007C20.3096 10.3156 17.2627 7.26874 13.5713 7.26874ZM13.5713 18.4016C11.1689 18.4016 9.17676 16.468 9.17676 14.007C9.17676 11.6047 11.1104 9.67108 13.5713 9.67108C15.9736 9.67108 17.9072 11.6047 17.9072 14.007C17.9072 16.468 15.9736 18.4016 13.5713 18.4016ZM22.126 7.03436C22.126 7.91327 21.4229 8.61639 20.5439 8.61639C19.665 8.61639 18.9619 7.91327 18.9619 7.03436C18.9619 6.15546 19.665 5.45233 20.5439 5.45233C21.4229 5.45233 22.126 6.15546 22.126 7.03436ZM26.5791 8.61639C26.4619 6.50702 25.9932 4.63202 24.4697 3.10858C22.9463 1.58514 21.0713 1.11639 18.9619 0.999207C16.7939 0.882019 10.29 0.882019 8.12207 0.999207C6.0127 1.11639 4.19629 1.58514 2.61426 3.10858C1.09082 4.63202 0.62207 6.50702 0.504883 8.61639C0.387695 10.7844 0.387695 17.2883 0.504883 19.4562C0.62207 21.5656 1.09082 23.382 2.61426 24.9641C4.19629 26.4875 6.0127 26.9562 8.12207 27.0734C10.29 27.1906 16.7939 27.1906 18.9619 27.0734C21.0713 26.9562 22.9463 26.4875 24.4697 24.9641C25.9932 23.382 26.4619 21.5656 26.5791 19.4562C26.6963 17.2883 26.6963 10.7844 26.5791 8.61639ZM23.7666 21.7414C23.3564 22.9133 22.4189 23.7922 21.3057 24.2609C19.5479 24.9641 15.4463 24.7883 13.5713 24.7883C11.6377 24.7883 7.53613 24.9641 5.83691 24.2609C4.66504 23.7922 3.78613 22.9133 3.31738 21.7414C2.61426 20.0422 2.79004 15.9406 2.79004 14.007C2.79004 12.132 2.61426 8.03046 3.31738 6.27264C3.78613 5.15936 4.66504 4.28046 5.83691 3.81171C7.53613 3.10858 11.6377 3.28436 13.5713 3.28436C15.4463 3.28436 19.5479 3.10858 21.3057 3.81171C22.4189 4.22186 23.2979 5.15936 23.7666 6.27264C24.4697 8.03046 24.2939 12.132 24.2939 14.007C24.2939 15.9406 24.4697 20.0422 23.7666 21.7414Z" fill="#0061C1"/>
</svg>
