<?xml version="1.0" encoding="utf-8"?>
<!-- Generator: Adobe Illustrator 26.3.1, SVG Export Plug-In . SVG Version: 6.00 Build 0)  -->
<svg version="1.1" id="Layer_2_1_" xmlns="http://www.w3.org/2000/svg" xmlns:xlink="http://www.w3.org/1999/xlink" x="0px" y="0px"
	 viewBox="0 0 512 512" style="enable-background:new 0 0 512 512;" xml:space="preserve">
<style type="text/css">
	.st0{clip-path:url(#SVGID_00000137108162182390782550000009742060498627823536_);}
	.st1{fill:#FFFFFF;}
</style>
<g>
	<defs>
		<rect id="SVGID_1_" x="135.5" y="142.4" width="241" height="227.2"/>
	</defs>
	<clipPath id="SVGID_00000114782573992155548020000001714593546190762672_">
		<use xlink:href="#SVGID_1_"  style="overflow:visible;"/>
	</clipPath>
	<g style="clip-path:url(#SVGID_00000114782573992155548020000001714593546190762672_);">
		<path class="st1" d="M207.7,289.5c1.2-21.4,1.5-42.2,0.3-63.1c-1.1-19.7-3.3-39.3-8.6-58.5c-1.8-6.5-4.2-12.8-6.4-19.3
			c-0.9-2.6-0.6-4.4,1.4-5.7c1.9-1.1,3.8-0.9,5.9,0.9c6.2,5.3,10.9,11.8,14.9,18.7c9.5,16,15.4,33.2,19.9,51
			c5.7,22.7,8.7,45.7,10.3,68.9c0.1,1.1,0.2,2.2,0.3,3.3c0,0.2,0.1,0.4,0.2,0.6c2-5.5,3.8-11,6-16.4c5.1-12.7,11.9-24.5,22-34.4
			c4.7-4.6,9.9-8.4,15.9-11.2c2-1,3.9-1.1,5.6,0.4c1.8,1.6,1.6,3.4,0.6,5.4c-12.9,26.1-20.9,53.6-24.1,82.2c-0.6,5-0.7,9.9-1,14.9
			c-0.1,1.1,0,2.3,0.3,3.6c0.3-0.7,0.7-1.4,1-2c5.4-11.7,12.3-22.4,22.4-30.9c8.6-7.3,18.6-12,30-13.8c2.9-0.4,4.7,0.3,5.7,2.2
			c0.9,2,0.2,3.7-2.1,5.5c-10.1,7.6-17.9,16.8-20.9,29c-0.3,1.1-0.5,2.3-0.7,3.9c0.8-0.6,1.3-0.8,1.7-1.2
			c14-11.6,30.4-17.4,48.7-18.6c2.6-0.2,4.2,0.8,4.9,2.8c0.7,1.9,0,3.6-2.3,5c-7.8,4.9-14.9,10.5-20.6,17.5
			c-1.9,2.3-3.5,4.9-5.3,7.4c0.1,0.1,0.3,0.3,0.5,0.4c0.9-0.4,1.8-0.9,2.7-1.4c9.2-4.7,18.8-8.5,29.3-9.8c1.9-0.2,3.8-0.2,5.8-0.3
			c2.2,0,3.7,0.9,4.4,2.9c0.6,1.9-0.2,3.4-1.8,4.6c-4.1,3.3-8.3,6.6-12.1,10.2c-2.6,2.5-4.6,5.6-6.7,8.6c-1.1,1.5-1.1,3.2,0.4,4.8
			c1.6,1.8,1.2,4.1-0.6,5.5c-1.7,1.4-4.1,1.3-5.9-0.3c-3.2-3-4-6.7-2.8-10.7c1.4-5,4.8-8.9,8.4-12.8c0.6-0.7,1.3-1.4,1.7-2.5
			c-2.6,1-5.4,1.8-7.9,3c-6.4,3.3-12.8,6.7-19.2,10.3c-1.8,1-3.5,1.9-5.6,0.8c-2.1-1.2-2.3-3.1-2-5.2c0.9-7.1,4-13.4,8.5-19
			c3-3.8,6.4-7.3,9.8-11c-1.3,0.4-2.6,0.7-3.9,1.1c-12.2,4.2-22.7,10.6-30.4,20.7c-1.2,1.5-2.7,2.2-4.6,1.7c-2.2-0.5-3-2.1-3.3-4
			c-1.4-9.3,0-18.3,4.4-26.8c1.8-3.5,4-6.7,5.8-10.4c-2.4,1.7-4.8,3.3-7.1,5.1c-10.6,8.7-17.6,19.8-22.6,32
			c-2.7,6.6-4.5,13.5-6.6,20.3c-0.8,2.7-2.2,4.1-4.7,4c-2.4-0.1-3.8-1.7-4.1-4.5c-2.3-19.1-1.5-38.1,1.6-57
			c3.2-19.6,8.7-38.5,16.4-56.9c0.1-0.4,0.3-0.8,0.5-1.5c-1.5,1.4-2.8,2.4-4,3.6c-8,8.6-13.5,18.5-17.8,29.1
			c-7.2,17.7-11.2,36.1-13.4,54.9c-0.1,0.7-0.1,1.3-0.3,1.9c-0.6,1.8-2.5,3.1-4.4,2.9c-2-0.1-3.6-1.5-3.9-3.5
			c-0.1-0.7-0.1-1.5-0.1-2.2c0-22.2-0.8-44.4-3.5-66.5c-3.2-26.1-8.2-51.9-18.6-76.4c-2-4.9-4.5-9.6-7.2-14.2
			c1.2,5.9,2.5,11.7,3.5,17.6c4.5,26.8,5.9,53.7,4.8,80.7c-0.7,19.4-2.5,38.8-3.9,58.1c-0.2,3.4-0.8,6.8-1.3,10.3
			c-0.4,2.7-1.9,4.2-4.4,4.2c-2.5,0-4.1-1.7-4.3-4.5c-0.4-6.8-0.5-13.6-1.1-20.4c-2.2-25.1-7.5-49.5-19.1-72.3
			c-1.9-3.8-4.1-7.5-6.7-11c0.9,4.5,1.8,8.9,2.6,13.4c3.9,22,4.8,44,3.3,66.2c-0.7,10.6-2.2,21.3-3.5,31.9c-0.3,2.9-1.9,4.3-4.3,4.4
			c-2.4,0-4-1.4-4.5-4.1c-2.3-12-7.7-22.5-16.2-31.6c-2-2.2-4.1-4.4-6.1-6.6c-0.3,0.2-0.6,0.4-0.9,0.6c0.7,3.2,1.4,6.3,2.1,9.5
			c2.6,12,4.5,24.2,3.9,36.4c-0.2,4.7-1.2,9.4-2,14.1c-0.2,1.1-1.1,2.6-2.1,2.9c-1.3,0.5-3.2,0.5-4.5,0c-1.7-0.6-2.4-2.4-1.9-4.1
			c3.2-10.6,2.6-21.3,0.8-31.9c-1.7-11.5-4.5-22.8-6.9-34.2c-0.1-0.4-0.2-0.9-0.3-1.3c-0.6-1.8-0.3-3.5,1.3-4.8
			c1.8-1.3,3.6-1.1,5.4,0c8.9,4.8,16.4,11.3,22.4,19.1c2.6,3.3,4.5,7,6.8,10.5c0.3,0.4,0.5,0.8,1.1,1.7c0.3-4,0.6-7.4,0.8-10.8
			c1.7-27.5,0.4-54.8-6.3-81.8c-1.4-5.5-3.2-11-4.9-16.5c-1-3.3-0.7-5.1,1.3-6.2c2.1-1.2,3.9-0.8,6.5,1.7
			c8.1,7.6,14.1,16.6,19.2,26.2c8.4,15.8,13.7,32.5,17.2,49.8c0.1,0.6,0.2,1.1,0.4,1.7C207.2,288.6,207.3,288.8,207.7,289.5z"/>
	</g>
</g>
</svg>
