<svg width="6" height="8" viewBox="0 0 6 8" fill="none" xmlns="http://www.w3.org/2000/svg">
<path d="M0.75 4.25V4.28125C0.6875 4.21875 0.65625 4.125 0.65625 4C0.65625 3.90625 0.6875 3.8125 0.75 3.71875L4.4375 0.09375C4.5 0.03125 4.59375 0 4.6875 0C4.8125 0 4.90625 0.03125 4.96875 0.09375L5.1875 0.34375C5.25 0.40625 5.28125 0.5 5.28125 0.59375C5.28125 0.71875 5.25 0.8125 5.1875 0.875L2 4L5.1875 7.125C5.28125 7.21875 5.3125 7.3125 5.3125 7.40625C5.3125 7.53125 5.28125 7.59375 5.1875 7.65625L4.96875 7.875C4.90625 7.96875 4.8125 8 4.6875 8C4.59375 8 4.5 7.96875 4.4375 7.875L0.75 4.25Z" fill="white"/>
</svg>
