<svg width="31" height="40" viewBox="0 0 31 40" fill="none" xmlns="http://www.w3.org/2000/svg">
<g clip-path="url(#clip0_1504_2847)">
<path d="M30.5299 3.32523V3.15022C30.5299 2.83909 30.5299 2.52795 30.491 2.21682C30.316 0.913952 29.4993 0.136121 28.2159 0.097229C26.8741 0.0388916 25.5323 0.0388916 24.21 0.097229C22.8683 0.155566 21.9932 1.05007 21.9543 2.45017C21.9543 2.78075 21.9543 3.09188 21.9543 3.44191C21.9543 3.50024 21.9543 3.55858 21.9543 3.63636H8.5756C8.5756 3.57803 8.5756 3.51969 8.5756 3.46135C8.5756 3.15022 8.5756 2.85853 8.5756 2.58629C8.51726 0.913952 7.62275 0.0194458 5.98931 0C5.11424 0 4.21974 0 3.36412 0H2.78075C0.836169 0 0 0.836169 0 2.74186C0 13.7482 0 24.7739 0 35.7803C0 38.5805 1.41954 40 4.23918 40C7.79776 40 11.3563 40 14.9149 40C18.5707 40 22.246 40 25.9018 40C29.052 40 30.5105 38.5221 30.5105 35.3719C30.5299 24.6962 30.5299 14.001 30.5299 3.32523ZM6.84492 4.25863V5.32815H23.5683V5.03646C23.5683 4.78367 23.5683 4.55032 23.5683 4.29752C23.5683 3.77248 23.5683 3.26689 23.5683 2.7613C23.5877 1.88624 23.7239 1.75012 24.6184 1.73068C25.3184 1.73068 26.0379 1.73068 26.7185 1.73068H27.438C28.8381 1.73068 28.8381 1.73068 28.8381 3.07244C28.8381 6.74769 28.8381 10.4035 28.8381 14.0788V18.1429V23.0238C28.8381 27.263 28.8381 31.5022 28.8381 35.7414C28.8381 37.6471 28.0797 38.4249 26.1935 38.4249C18.4541 38.4249 11.2591 38.4249 4.21974 38.4249C2.41128 38.4249 1.614 37.6082 1.614 35.7803V27.1074C1.59456 19.1347 1.59456 10.8702 1.57511 2.72241C1.57511 2.3335 1.65289 2.06125 1.78901 1.92513C1.92513 1.78901 2.13904 1.73068 2.46962 1.73068C2.48906 1.73068 2.50851 1.73068 2.52795 1.73068C3.57803 1.75012 4.64755 1.75012 5.67817 1.73068H5.95041C6.26155 1.73068 6.4949 1.78901 6.63102 1.92513C6.76714 2.06125 6.84492 2.2946 6.84492 2.62518C6.84492 3.16966 6.84492 3.6947 6.84492 4.25863Z" fill="white"/>
<path d="M24.6959 7.2533H5.7168V8.80896H24.6959V7.2533Z" fill="white"/>
<path d="M9.48918 28.3715L9.45029 28.5076C9.29472 28.9743 9.29472 29.2854 9.46973 29.5188C9.64475 29.7521 9.95588 29.791 10.2281 29.791C10.2865 29.791 10.3448 29.791 10.3837 29.791C11.0643 29.7521 11.7643 29.7521 12.4838 29.791C12.9311 29.8105 13.2228 29.7327 13.3978 29.5188C13.5728 29.3049 13.5728 28.9743 13.3978 28.5076L13.3589 28.3715H9.48918Z" fill="white"/>
<path d="M17.0346 28.488C16.8596 28.9547 16.8596 29.2853 17.0346 29.4992C17.1901 29.7131 17.4818 29.8104 17.9485 29.7715C18.668 29.7326 19.3681 29.7326 20.0487 29.7715C20.107 29.7715 20.1459 29.7715 20.2043 29.7715C20.4765 29.7715 20.7876 29.7326 20.9626 29.4992C21.1377 29.2853 21.1377 28.9547 20.9821 28.488L20.9432 28.3519H17.0735L17.0346 28.488Z" fill="white"/>
<path d="M9.58672 26.6018H5.54199V27.9825H9.58672V26.6018Z" fill="white"/>
<path d="M5.5611 34.8274H9.60582V33.4662H5.46387L5.5611 34.8274Z" fill="white"/>
<path d="M9.39198 18.6486L9.25586 18.8041L9.41143 18.9403C9.46976 18.9791 9.5281 19.0375 9.58644 19.1153C9.74201 19.2708 9.89757 19.4458 10.1115 19.4847C10.2865 19.5236 10.4809 19.5236 10.656 19.5236C10.7921 19.5236 10.9088 19.5236 11.0449 19.5042C11.1616 19.5042 11.2977 19.4847 11.4143 19.4847C11.5505 19.4847 11.6671 19.4847 11.8033 19.5042C12.1338 19.5236 12.4644 19.5236 12.795 19.4653C13.0867 19.4069 13.3784 19.0569 13.4756 18.7652C13.4951 18.668 13.4756 18.5708 13.3784 18.4347C13.2617 18.2791 13.0284 18.0457 12.8144 18.0263C11.8616 17.968 10.9476 17.968 10.092 18.0263C9.87813 18.0457 9.72256 18.2402 9.56699 18.4347C9.48921 18.5319 9.45032 18.6097 9.39198 18.6486Z" fill="white"/>
<path d="M20.9425 18.4346C20.8258 18.2791 20.5925 18.0457 20.3786 18.0457C19.4841 17.9874 18.5701 17.9874 17.6562 18.0457C17.4423 18.0652 17.17 18.2791 17.0534 18.4541C16.9756 18.5707 16.9367 18.668 16.9561 18.7458C17.0339 19.0374 17.3062 19.4264 17.5978 19.4847C17.9284 19.5625 18.259 19.543 18.5896 19.5236C18.7257 19.5236 18.8424 19.5041 18.9785 19.5041C19.1146 19.5041 19.2313 19.5041 19.3674 19.5236C19.5035 19.5236 19.6397 19.543 19.7758 19.543C19.9702 19.543 20.1647 19.5236 20.3591 19.4847C20.6508 19.4264 20.9425 19.0569 21.0203 18.7652C21.0592 18.668 21.0203 18.5707 20.9425 18.4346Z" fill="white"/>
<path d="M24.8123 33.4856H20.7676V34.8274H24.8123V33.4856Z" fill="white"/>
<path d="M13.2232 27.963H17.229V26.6018H13.126L13.2232 27.963Z" fill="white"/>
<path d="M24.8124 26.6018H20.7871V27.9825H24.8124V26.6018Z" fill="white"/>
<path d="M13.1445 33.5051L13.2029 34.8274H17.2865L17.2087 33.5051H13.1445Z" fill="white"/>
<path d="M9.27539 14.7205L9.4504 16.0233H13.5146L13.4368 14.7205H9.27539Z" fill="white"/>
<path d="M21.0009 14.701H16.9756V16.0039H21.0009V14.701Z" fill="white"/>
<path d="M9.3916 24.9101V26.2713H13.3196L13.6697 25.8435L13.5724 25.7268C13.5141 25.649 13.4558 25.5712 13.3974 25.474C13.2419 25.2212 13.0669 24.9684 12.8141 24.949C12.0362 24.8906 11.2778 24.9101 10.4611 24.9101C10.1694 24.9101 9.87775 24.9101 9.58606 24.9101H9.3916Z" fill="white"/>
<path d="M20.9426 26.1935C21.0398 25.9018 21.1565 25.474 20.9426 25.1823C20.787 24.9878 20.5148 24.8906 20.1064 24.91C19.4064 24.9489 18.6674 24.9489 17.8896 24.91C17.4423 24.8906 17.1507 24.9878 16.9951 25.2017C16.7812 25.4934 16.9368 25.9212 17.0534 26.2129L17.1118 26.3296H20.9037L20.9426 26.1935Z" fill="white"/>
<path d="M13.4558 21.5265H9.3916V22.8099H13.4558V21.5265Z" fill="white"/>
<path d="M9.62527 24.5405V23.2377H5.46387L5.54165 24.5405H9.62527Z" fill="white"/>
<path d="M5.54174 31.3661H9.60591V30.0826H5.4834L5.54174 31.3661Z" fill="white"/>
<path d="M13.4168 31.8328H9.37207V33.1356H13.4168V31.8328Z" fill="white"/>
<path d="M21.0008 31.8134H16.9561V33.1162H21.0786L21.0008 31.8134Z" fill="white"/>
<path d="M5.52246 21.0598H9.70331L9.56719 19.7958H5.52246V21.0598Z" fill="white"/>
<path d="M21.0202 21.5459H16.9561V22.8293H21.0202V21.5459Z" fill="white"/>
<path d="M9.60582 14.2927V13.0093H5.46387L5.5611 14.2927H9.60582Z" fill="white"/>
<path d="M9.60582 17.754V16.4316H5.46387L5.5611 17.754H9.60582Z" fill="white"/>
<path d="M17.2095 14.2927V13.0093H13.1064L13.2231 14.2927H17.2095Z" fill="white"/>
<path d="M24.8509 14.2927L24.7926 12.9703H20.709L20.8062 14.2927H24.8509Z" fill="white"/>
<path d="M13.2038 17.754H17.229V16.4512H13.126L13.2038 17.754Z" fill="white"/>
<path d="M24.8121 16.4512H20.709L20.8062 17.754H24.8121V16.4512Z" fill="white"/>
<path d="M17.2088 23.2377H13.1641V24.56H17.2671L17.2088 23.2377Z" fill="white"/>
<path d="M20.8066 19.7764V21.0987H24.8708L24.793 19.7764H20.8066Z" fill="white"/>
<path d="M17.209 19.7764H13.2227V21.0987H17.2868L17.209 19.7764Z" fill="white"/>
<path d="M17.2095 30.0826H13.1064L13.2426 31.3661H17.2095V30.0826Z" fill="white"/>
<path d="M24.7734 30.0826H20.7676V31.3855H24.7734V30.0826Z" fill="white"/>
<path d="M24.7732 23.2183H20.7285L20.8063 24.56H24.8899L24.7732 23.2183Z" fill="white"/>
</g>
<defs>
<clipPath id="clip0_1504_2847">
<rect width="30.5299" height="40" fill="white"/>
</clipPath>
</defs>
</svg>
