<svg width="50" height="50" viewBox="0 0 50 50" fill="none" xmlns="http://www.w3.org/2000/svg">
<rect x="1" y="1" width="48" height="48" rx="24" fill="#0052A3" stroke="#0052A3" stroke-width="2"/>
<g clip-path="url(#clip0_1667_305)">
<path d="M34.7062 14.5783V14.4689C34.7062 14.2744 34.7062 14.08 34.6819 13.8855C34.5725 13.0712 34.062 12.5851 33.2599 12.5608C32.4213 12.5243 31.5827 12.5243 30.7563 12.5608C29.9177 12.5972 29.3707 13.1563 29.3464 14.0314C29.3464 14.238 29.3464 14.4324 29.3464 14.6512C29.3464 14.6877 29.3464 14.7241 29.3464 14.7727H20.9847C20.9847 14.7363 20.9847 14.6998 20.9847 14.6633C20.9847 14.4689 20.9847 14.2866 20.9847 14.1164C20.9483 13.0712 20.3892 12.5122 19.3683 12.5C18.8214 12.5 18.2623 12.5 17.7276 12.5H17.363C16.1476 12.5 15.625 13.0226 15.625 14.2137C15.625 21.0926 15.625 27.9837 15.625 34.8627C15.625 36.6128 16.5122 37.5 18.2745 37.5C20.4986 37.5 22.7227 37.5 24.9468 37.5C27.2317 37.5 29.5287 37.5 31.8136 37.5C33.7825 37.5 34.694 36.5763 34.694 34.6074C34.7062 27.9351 34.7062 21.2506 34.7062 14.5783ZM19.9031 15.1616V15.8301H30.3552V15.6478C30.3552 15.4898 30.3552 15.3439 30.3552 15.186C30.3552 14.8578 30.3552 14.5418 30.3552 14.2258C30.3673 13.6789 30.4524 13.5938 31.0115 13.5817C31.449 13.5817 31.8987 13.5817 32.3241 13.5817H32.7738C33.6488 13.5817 33.6488 13.5817 33.6488 14.4203C33.6488 16.7173 33.6488 19.0022 33.6488 21.2992V23.8393V26.8899C33.6488 29.5394 33.6488 32.1889 33.6488 34.8384C33.6488 36.0294 33.1748 36.5156 31.9959 36.5156C27.1588 36.5156 22.6619 36.5156 18.2623 36.5156C17.132 36.5156 16.6338 36.0051 16.6338 34.8627V29.4421C16.6216 24.4592 16.6216 19.2939 16.6094 14.2015C16.6094 13.9584 16.6581 13.7883 16.7431 13.7032C16.8282 13.6181 16.9619 13.5817 17.1685 13.5817C17.1807 13.5817 17.1928 13.5817 17.205 13.5817C17.8613 13.5938 18.5297 13.5938 19.1739 13.5817H19.344C19.5385 13.5817 19.6843 13.6181 19.7694 13.7032C19.8545 13.7883 19.9031 13.9341 19.9031 14.1407C19.9031 14.481 19.9031 14.8092 19.9031 15.1616Z" fill="white"/>
<path d="M31.0602 17.0332H19.1982V18.0055H31.0602V17.0332Z" fill="white"/>
<path d="M21.5557 30.2322L21.5314 30.3173C21.4342 30.6089 21.4342 30.8034 21.5436 30.9492C21.653 31.0951 21.8474 31.1194 22.0176 31.1194C22.054 31.1194 22.0905 31.1194 22.1148 31.1194C22.5402 31.0951 22.9777 31.0951 23.4274 31.1194C23.7069 31.1316 23.8892 31.0829 23.9986 30.9492C24.108 30.8156 24.108 30.6089 23.9986 30.3173L23.9743 30.2322H21.5557Z" fill="white"/>
<path d="M26.2715 30.305C26.1621 30.5967 26.1621 30.8033 26.2715 30.937C26.3687 31.0707 26.551 31.1315 26.8427 31.1072C27.2924 31.0829 27.7299 31.0829 28.1553 31.1072C28.1918 31.1072 28.2161 31.1072 28.2525 31.1072C28.4227 31.1072 28.6171 31.0829 28.7265 30.937C28.8359 30.8033 28.8359 30.5967 28.7387 30.305L28.7144 30.22H26.2958L26.2715 30.305Z" fill="white"/>
<path d="M21.6168 29.1262H19.0889V29.9891H21.6168V29.1262Z" fill="white"/>
<path d="M19.1008 34.267H21.6288V33.4163H19.04L19.1008 34.267Z" fill="white"/>
<path d="M21.4952 24.1553L21.4102 24.2525L21.5074 24.3376C21.5438 24.3619 21.5803 24.3983 21.6168 24.447C21.714 24.5442 21.8112 24.6536 21.9449 24.6779C22.0543 24.7022 22.1758 24.7022 22.2852 24.7022C22.3703 24.7022 22.4432 24.7022 22.5283 24.69C22.6012 24.69 22.6863 24.6779 22.7592 24.6779C22.8443 24.6779 22.9172 24.6779 23.0023 24.69C23.2089 24.7022 23.4155 24.7022 23.6221 24.6657C23.8044 24.6293 23.9867 24.4105 24.0475 24.2282C24.0597 24.1674 24.0475 24.1067 23.9867 24.0216C23.9138 23.9244 23.768 23.7785 23.6343 23.7664C23.0387 23.7299 22.4675 23.7299 21.9328 23.7664C21.7991 23.7785 21.7018 23.9 21.6046 24.0216C21.556 24.0824 21.5317 24.131 21.4952 24.1553Z" fill="white"/>
<path d="M28.7143 24.0216C28.6414 23.9244 28.4956 23.7786 28.3619 23.7786C27.8028 23.7421 27.2316 23.7421 26.6604 23.7786C26.5267 23.7907 26.3565 23.9244 26.2836 24.0338C26.235 24.1067 26.2107 24.1675 26.2228 24.2161C26.2714 24.3984 26.4416 24.6415 26.6239 24.6779C26.8305 24.7265 27.0371 24.7144 27.2437 24.7022C27.3288 24.7022 27.4017 24.6901 27.4868 24.6901C27.5719 24.6901 27.6448 24.6901 27.7299 24.7022C27.815 24.7022 27.9 24.7144 27.9851 24.7144C28.1066 24.7144 28.2282 24.7022 28.3497 24.6779C28.532 24.6415 28.7143 24.4106 28.7629 24.2283C28.7872 24.1675 28.7629 24.1067 28.7143 24.0216Z" fill="white"/>
<path d="M31.1324 33.4285H28.6045V34.2671H31.1324V33.4285Z" fill="white"/>
<path d="M23.8889 29.977H26.3925V29.1262H23.8281L23.8889 29.977Z" fill="white"/>
<path d="M31.133 29.1262H28.6172V29.9891H31.133V29.1262Z" fill="white"/>
<path d="M23.8408 33.4407L23.8773 34.2671H26.4295L26.3809 33.4407H23.8408Z" fill="white"/>
<path d="M21.4219 21.7002L21.5313 22.5145H24.0714L24.0228 21.7002H21.4219Z" fill="white"/>
<path d="M28.7512 21.6882H26.2354V22.5025H28.7512V21.6882Z" fill="white"/>
<path d="M21.4951 28.0688V28.9196H23.9501L24.1689 28.6522L24.1081 28.5793C24.0717 28.5307 24.0352 28.4821 23.9988 28.4213C23.9015 28.2633 23.7921 28.1053 23.6342 28.0931C23.148 28.0567 22.674 28.0688 22.1636 28.0688C21.9813 28.0688 21.799 28.0688 21.6167 28.0688H21.4951V28.0688Z" fill="white"/>
<path d="M28.7144 28.8708C28.7751 28.6885 28.8481 28.4211 28.7144 28.2388C28.6171 28.1173 28.447 28.0565 28.1918 28.0687C27.7542 28.093 27.2924 28.093 26.8062 28.0687C26.5267 28.0565 26.3444 28.1173 26.2472 28.251C26.1135 28.4333 26.2107 28.7007 26.2836 28.883L26.3201 28.9559H28.6901L28.7144 28.8708Z" fill="white"/>
<path d="M24.0352 25.9541H21.4951V26.7562H24.0352V25.9541Z" fill="white"/>
<path d="M21.6409 27.838V27.0237H19.04L19.0887 27.838H21.6409Z" fill="white"/>
<path d="M19.0882 32.1037H21.6283V31.3015H19.0518L19.0882 32.1037Z" fill="white"/>
<path d="M24.0114 32.3955H21.4834V33.2098H24.0114V32.3955Z" fill="white"/>
<path d="M28.7506 32.3833H26.2227V33.1976H28.7992L28.7506 32.3833Z" fill="white"/>
<path d="M19.0762 25.6623H21.6892L21.6041 24.8723H19.0762V25.6623Z" fill="white"/>
<path d="M28.7628 25.9663H26.2227V26.7684H28.7628V25.9663Z" fill="white"/>
<path d="M21.6288 21.433V20.6309H19.04L19.1008 21.433H21.6288Z" fill="white"/>
<path d="M21.6288 23.5962V22.7698H19.04L19.1008 23.5962H21.6288Z" fill="white"/>
<path d="M26.3808 21.433V20.6309H23.8164L23.8893 21.433H26.3808Z" fill="white"/>
<path d="M31.1571 21.4329L31.1206 20.6064H28.5684L28.6291 21.4329H31.1571Z" fill="white"/>
<path d="M23.8767 23.5963H26.3925V22.782H23.8281L23.8767 23.5963Z" fill="white"/>
<path d="M31.1328 22.782H28.5684L28.6291 23.5963H31.1328V22.782Z" fill="white"/>
<path d="M26.3805 27.0237H23.8525V27.8501H26.417L26.3805 27.0237Z" fill="white"/>
<path d="M28.6289 24.8601V25.6866H31.169L31.1204 24.8601H28.6289Z" fill="white"/>
<path d="M26.3811 24.8601H23.8896V25.6866H26.4298L26.3811 24.8601Z" fill="white"/>
<path d="M26.3808 31.3015H23.8164L23.9015 32.1037H26.3808V31.3015Z" fill="white"/>
<path d="M31.1081 31.3015H28.6045V32.1158H31.1081V31.3015Z" fill="white"/>
<path d="M31.109 27.0115H28.5811L28.6297 27.8501H31.1819L31.109 27.0115Z" fill="white"/>
</g>
<defs>
<clipPath id="clip0_1667_305">
<rect width="19.0812" height="25" fill="white" transform="translate(15.625 12.5)"/>
</clipPath>
</defs>
</svg>
