<svg width="24" height="28" viewBox="0 0 24 28" fill="none" xmlns="http://www.w3.org/2000/svg">
<g clip-path="url(#clip0_1483_1422)">
<path d="M11.509 2.39062e-05C16.4235 -0.00963127 20.8745 2.90623 22.6608 7.1352C24.4952 11.4607 23.5683 16.6552 20.2952 19.9959C17.7849 22.5642 15.2263 25.0745 12.687 27.6042C12.1656 28.1255 11.509 28.1255 11.0359 27.6331C10.6111 27.189 10.6497 26.6193 11.1614 26.098C13.6525 23.6069 16.1628 21.1352 18.6442 18.6345C21.8594 15.3904 22.3711 10.1573 19.8511 6.43037C17.7463 3.31175 13.7104 1.60278 10.0897 2.30761C6.22765 3.06071 3.07041 6.08278 2.34627 9.87726C1.71868 13.1793 2.58765 16.1049 4.90489 18.5476C6.27592 19.9959 7.7242 21.3669 9.13386 22.7862C9.29799 22.9504 9.47179 23.1435 9.57799 23.3462C9.80972 23.7807 9.71317 24.1959 9.36558 24.5338C9.02765 24.8717 8.61248 24.9586 8.16834 24.7559C8.04282 24.698 7.9173 24.6014 7.82075 24.5049C6.24696 22.9407 4.59592 21.4442 3.12834 19.7738C0.00971732 16.2304 -0.782007 12.1076 0.772476 7.70485C2.29799 3.36968 5.60006 0.975196 10.0608 0.154507C10.6304 0.0482998 11.2097 0.0289894 11.509 2.39062e-05Z" fill="#393939"/>
<path d="M17.1572 11.8083C17.1476 14.7531 14.6565 17.2538 11.76 17.2441C8.94068 17.2248 6.41103 14.7241 6.42068 11.9434C6.43034 9.00827 8.93102 6.50758 11.8372 6.51724C14.6855 6.52689 17.1669 8.99862 17.1572 11.8083ZM15.0138 11.9241C15.0138 10.1766 13.5172 8.66069 11.8083 8.66069C10.08 8.66069 8.56413 10.1476 8.58344 11.8469C8.59309 13.6041 10.0221 15.0814 11.6924 15.0717C13.4883 15.0524 15.0234 13.6138 15.0138 11.9241Z" fill="#393939"/>
</g>
<defs>
<clipPath id="clip0_1483_1422">
<rect width="23.5876" height="28" fill="white"/>
</clipPath>
</defs>
</svg>
