<svg width="24" height="28" viewBox="0 0 24 28" fill="none" xmlns="http://www.w3.org/2000/svg">
<g clip-path="url(#clip0_1059_4744)">
<path d="M11.5087 2.39062e-05C16.4232 -0.00963127 20.8742 2.90623 22.6604 7.1352C24.4949 11.4607 23.568 16.6552 20.2949 19.9959C17.7846 22.5642 15.226 25.0745 12.6867 27.6042C12.1653 28.1255 11.5087 28.1255 11.0356 27.6331C10.6108 27.189 10.6494 26.6193 11.1611 26.098C13.6522 23.6069 16.1625 21.1352 18.6439 18.6345C21.8591 15.3904 22.3708 10.1573 19.8508 6.43037C17.746 3.31175 13.7101 1.60278 10.0894 2.30761C6.22734 3.06071 3.0701 6.08278 2.34596 9.87726C1.71838 13.1793 2.58734 16.1049 4.90458 18.5476C6.27562 19.9959 7.7239 21.3669 9.13355 22.7862C9.29769 22.9504 9.47148 23.1435 9.57769 23.3462C9.80941 23.7807 9.71286 24.1959 9.36528 24.5338C9.02734 24.8717 8.61217 24.9586 8.16803 24.7559C8.04252 24.698 7.917 24.6014 7.82045 24.5049C6.24665 22.9407 4.59562 21.4442 3.12803 19.7738C0.00941215 16.2304 -0.782312 12.1076 0.772171 7.70485C2.29769 3.36968 5.59976 0.975196 10.0604 0.154507C10.6301 0.0482998 11.2094 0.0289894 11.5087 2.39062e-05Z" fill="black"/>
<path d="M17.1575 11.8083C17.1478 14.7531 14.6568 17.2538 11.7602 17.2441C8.94092 17.2248 6.41127 14.7241 6.42093 11.9434C6.43058 9.00827 8.93127 6.50758 11.8375 6.51724C14.6857 6.52689 17.1671 8.99862 17.1575 11.8083ZM15.014 11.9241C15.014 10.1766 13.5175 8.66069 11.8085 8.66069C10.0802 8.66069 8.56437 10.1476 8.58368 11.8469C8.59334 13.6041 10.0223 15.0814 11.6926 15.0717C13.4885 15.0524 15.0237 13.6138 15.014 11.9241Z" fill="black"/>
</g>
<defs>
<clipPath id="clip0_1059_4744">
<rect width="23.5876" height="28" fill="white"/>
</clipPath>
</defs>
</svg>
