<svg width="169" height="99" viewBox="0 0 169 99" fill="none" xmlns="http://www.w3.org/2000/svg">
<g clip-path="url(#clip0_2090_22)">
<path d="M13.2228 65.0764C11.5558 64.8496 9.98008 64.7589 8.47291 64.3961C4.17976 63.3984 0.914229 59.7025 0.206316 55.417C-0.478761 51.3128 0.777214 47.8663 3.70021 44.9639C18.4065 30.3388 33.1585 15.6909 47.9105 1.04306C49.3263 -0.362766 49.7374 -0.362766 51.1304 1.02039C57.9126 7.77745 64.6949 14.5118 71.4772 21.2462C71.6598 21.4276 71.9795 21.5863 72.0252 21.8131C72.1166 22.2892 72.0937 22.8108 72.1166 23.3096C71.6142 23.3096 71.1118 23.3776 70.6094 23.3096C70.4039 23.2869 70.2212 22.9695 70.0385 22.7654C63.5303 16.3031 56.9992 9.84084 50.491 3.35588C50.1941 3.06111 49.9657 2.72099 49.646 2.3582C49.235 2.74367 48.961 2.97041 48.6869 3.24251C34.1176 17.6863 19.5712 32.1527 5.00185 46.5965C3.10648 48.4785 1.96468 50.8367 2.05602 53.4896C2.23871 57.8205 4.70499 61.5165 9.50053 62.6048C13.0173 63.3985 16.0544 62.3327 18.5207 59.9066C28.4543 50.1111 38.3651 40.2703 48.2302 30.4068C49.2122 29.4318 49.5319 29.001 50.9705 30.4295C61.064 40.4517 71.1575 50.4739 81.2509 60.4961C82.7124 61.9246 84.5165 62.6048 86.5489 62.8769C91.6869 63.5572 95.8659 59.9292 96.8478 55.8931C97.5786 52.8094 97.1219 49.975 94.8154 47.6622C89.6317 42.4697 84.4251 37.3226 79.2185 32.1527C78.876 31.8126 78.4649 31.4271 78.3736 30.9963C78.2823 30.6335 78.4649 29.9986 78.739 29.7946C78.9673 29.6132 79.6752 29.7265 79.9493 29.976C82.7124 32.5836 85.4527 35.1911 88.1474 37.8668C95.7517 45.3948 103.333 52.9454 110.915 60.4734C112.376 61.9246 114.157 62.6048 116.19 62.8769C121.282 63.5572 125.507 59.9746 126.489 55.9158C127.288 52.6507 126.672 49.6576 124.297 47.2768C109.339 32.2661 94.2902 17.3462 79.2414 2.42622C79.0358 2.22215 78.6705 2.01808 78.6248 1.79133C78.5334 1.31516 78.4421 0.680269 78.6705 0.340149C78.8303 0.113402 79.5611 0.226776 80.0406 0.317474C80.2461 0.362824 80.4288 0.657595 80.6115 0.861667C86.6859 6.89313 92.7831 12.9473 98.8574 19.0014C99.1543 19.2962 99.2684 19.727 99.474 20.0898C99.6567 19.9764 99.8393 19.8631 99.9992 19.7497C99.9992 18.1851 99.9992 16.6432 99.9992 15.0787C99.9992 13.4915 100.045 13.4234 101.689 13.4234C106.416 13.4234 111.12 13.4234 115.847 13.4234C117.217 13.4234 117.354 13.5595 117.354 14.92C117.354 18.5479 117.377 22.1759 117.354 25.8038C117.309 29.2731 117.172 32.7196 117.172 36.1888C117.172 36.7104 117.446 37.3679 117.811 37.7307C120.323 40.3156 122.858 42.8552 125.461 45.3494C127.927 47.7302 129.115 50.6099 128.978 53.9658C128.75 59.385 125.027 63.6932 119.775 64.8496C118.565 65.1217 117.263 65.0537 115.824 65.1671C115.802 65.4392 115.779 65.87 115.779 66.3008C115.779 76.323 115.779 86.3226 115.779 96.3448C115.779 97.932 115.733 98 114.089 98C108.563 98 103.059 98 97.5329 98C96.7565 98 95.8659 98.1134 95.9344 96.957C95.9801 95.8913 96.8478 95.9593 97.6014 95.9593C102.511 95.9593 107.421 95.9593 112.331 95.9593C112.742 95.9593 113.153 95.9593 113.655 95.9593C113.678 95.5285 113.701 95.1657 113.701 94.8029C113.701 85.0528 113.701 75.3027 113.724 65.5526C113.724 64.7816 113.518 64.4415 112.742 64.124C111.668 63.6705 110.618 62.9903 109.773 62.174C106.576 59.1129 103.447 55.9385 100.296 52.8094C100.045 52.56 99.7708 52.3105 99.3141 51.8797C99.5653 55.7798 98.5605 59.1356 95.9116 61.7432C93.3083 64.3281 90.0199 65.3711 86.1378 65.0537C86.115 65.4618 86.0921 65.8927 86.0921 66.3235C86.0921 76.3003 86.0693 86.2772 86.115 96.2541C86.115 97.864 85.7724 98.0227 84.4023 98.0227C61.2695 98 38.1139 98 14.9811 98C13.2913 98 13.2684 97.9547 13.2684 96.2767C13.2684 86.2999 13.2684 76.323 13.2684 66.3462C13.2228 65.87 13.2228 65.4165 13.2228 65.0764ZM84.0141 95.8913C84.0141 95.3698 84.0141 94.9389 84.0141 94.5308C84.0141 88.3406 84.0141 82.1277 84.0141 75.9376C84.0141 72.3776 84.0369 68.8404 83.9912 65.2804C83.9912 64.9177 83.7172 64.3508 83.4432 64.2601C81.5249 63.6252 80.0406 62.3781 78.6705 61.0176C69.2392 51.6983 59.8308 42.3337 50.4225 32.969C50.1484 32.6969 50.0342 32.2208 49.8516 31.8353C49.0751 32.4475 48.8239 32.7876 48.5271 33.0824C38.9817 42.5604 29.4363 52.0838 19.8452 61.5164C18.8404 62.5141 17.5388 63.2624 16.26 63.9426C15.552 64.3281 15.2323 64.6456 15.2323 65.5072C15.278 75.2573 15.2552 85.0074 15.2552 94.7575C15.2552 95.1203 15.278 95.4831 15.3008 95.8913C38.2281 95.8913 61.0411 95.8913 84.0141 95.8913ZM102.054 15.4868C102.054 17.5049 102.009 19.3869 102.077 21.2689C102.1 21.7677 102.328 22.3799 102.671 22.7201C106.553 26.6201 110.458 30.4975 114.363 34.3522C114.546 34.5336 114.728 34.6923 115.139 35.0778C115.139 28.3661 115.139 21.9491 115.139 15.4868C110.846 15.4868 106.53 15.4868 102.054 15.4868Z" fill="#0052A3"/>
<path d="M49.5995 85.0528C46.2197 85.0528 42.84 85.0528 39.4375 85.0528C37.0854 85.0528 35.8066 83.783 35.8066 81.4929C35.8066 76.3231 35.8979 71.1532 35.7609 65.9834C35.7152 63.6479 37.0397 62.1967 39.4147 62.1741C46.2198 62.106 53.0248 62.106 59.8299 62.1741C62.2277 62.1967 63.5065 63.7159 63.4608 65.8927C63.3467 71.1306 63.438 76.3911 63.4152 81.6289C63.4152 83.6697 62.045 85.0301 59.9441 85.0301C56.5416 85.0528 53.0705 85.0528 49.5995 85.0528ZM49.6451 82.7854C53.0248 82.7854 56.4046 82.7854 59.8071 82.7854C61.1773 82.7854 61.4056 82.5813 61.4056 81.2435C61.4056 76.1417 61.4056 71.0399 61.4056 65.9607C61.4056 64.8723 60.9489 64.4189 59.8071 64.4189C53.0477 64.4189 46.2654 64.4189 39.506 64.4189C38.4099 64.4189 37.9075 64.8723 37.8846 65.9607C37.8618 71.1306 37.8618 76.3004 37.8846 81.4702C37.8846 82.3545 38.25 82.808 39.2548 82.808C42.7259 82.7627 46.1741 82.7854 49.6451 82.7854Z" fill="#0052A3"/>
<path fill-rule="evenodd" clip-rule="evenodd" d="M8.16439 8.15132C7.24963 10.4378 5.43784 12.2496 3.15132 13.1644L2 13.625L3.15132 14.0856C5.43784 15.0004 7.24963 16.8122 8.16439 19.0987L8.625 20.25L9.08561 19.0987C10.0004 16.8122 11.8122 15.0004 14.0987 14.0856L15.25 13.625L14.0987 13.1644C11.8122 12.2496 10.0004 10.4378 9.08561 8.15132L8.625 7L8.16439 8.15132Z" stroke="#0061C1" stroke-width="2" stroke-linejoin="round"/>
</g>
<path fill-rule="evenodd" clip-rule="evenodd" d="M158.789 62.7763C157.875 65.0628 156.063 66.8746 153.776 67.7894L152 68.5L153.776 69.2106C156.063 70.1254 157.875 71.9372 158.789 74.2237L159.5 76L160.211 74.2237C161.125 71.9372 162.937 70.1254 165.224 69.2106L167 68.5L165.224 67.7894C162.937 66.8746 161.125 65.0628 160.211 62.7763L159.5 61L158.789 62.7763Z" stroke="#0061C1" stroke-width="2.5" stroke-linejoin="round"/>
<path fill-rule="evenodd" clip-rule="evenodd" d="M137.182 87.4192C136.268 89.7057 134.456 91.5175 132.169 92.4323L132 92.5L132.169 92.5677C134.456 93.4825 136.268 95.2943 137.182 97.5808L137.25 97.75L137.318 97.5808C138.232 95.2943 140.044 93.4825 142.331 92.5677L142.5 92.5L142.331 92.4323C140.044 91.5175 138.232 89.7057 137.318 87.4192L137.25 87.25L137.182 87.4192Z" stroke="#0061C1" stroke-width="2" stroke-linejoin="round"/>
<defs>
<clipPath id="clip0_2090_22">
<rect width="129" height="98" fill="white"/>
</clipPath>
</defs>
</svg>
