<svg width="40" height="36" viewBox="0 0 40 36" fill="none" xmlns="http://www.w3.org/2000/svg">
<path d="M39.2773 30.4531L22.8711 2.01562C22.4609 1.33203 21.8457 0.853516 21.0938 0.580078C20.3418 0.306641 19.5898 0.306641 18.8379 0.580078C18.0859 0.853516 17.5391 1.33203 17.1289 2.01562L0.722656 30.4531C0.3125 31.2051 0.244141 31.957 0.380859 32.709C0.517578 33.4609 0.859375 34.0762 1.47461 34.623C2.02148 35.1699 2.77344 35.375 3.59375 35.375H36.4062C37.2266 35.375 37.9102 35.1699 38.5254 34.623C39.0723 34.0762 39.4824 33.4609 39.6191 32.709C39.7559 31.957 39.6191 31.2051 39.2773 30.4531ZM37.3633 31.5469C37.5 31.957 37.5 32.2988 37.2949 32.6406C37.0898 33.0508 36.8164 33.1875 36.4062 33.1875H3.59375C3.18359 33.1875 2.8418 33.0508 2.63672 32.6406C2.43164 32.2988 2.43164 31.957 2.63672 31.5469L19.043 3.10938C19.248 2.76758 19.5898 2.5625 20 2.5625C20.4102 2.5625 20.6836 2.76758 20.957 3.10938L37.3633 31.5469ZM20 25.8047C20.5469 25.8047 20.957 26.0098 21.3672 26.3516C21.709 26.7617 21.9141 27.1719 21.9141 27.7188C21.9141 28.2656 21.709 28.7441 21.3672 29.0859C20.957 29.4961 20.5469 29.6328 20 29.6328C19.4531 29.6328 18.9746 29.4961 18.6328 29.0859C18.2227 28.7441 18.0859 28.2656 18.0859 27.7188C18.0859 27.1719 18.2227 26.7617 18.6328 26.3516C18.9746 26.0098 19.4531 25.8047 20 25.8047ZM19.248 11.3125C18.9746 11.3125 18.7012 11.4492 18.5645 11.5859C18.4277 11.7227 18.3594 11.9277 18.4277 12.1328L18.9062 23.6855C18.9062 23.8906 18.9746 24.0957 19.1113 24.2324C19.248 24.3691 19.4531 24.4375 19.7266 24.4375H20.2734C20.4785 24.4375 20.6836 24.3691 20.8203 24.2324C20.957 24.0957 21.0938 23.8906 21.0938 23.6172L21.5723 12.1328C21.5723 11.9277 21.5039 11.7227 21.3672 11.5859C21.2305 11.4492 21.0254 11.3125 20.752 11.3125H19.248ZM20 25.8047C20.5469 25.8047 20.957 26.0098 21.3672 26.3516C21.709 26.7617 21.9141 27.1719 21.9141 27.7188C21.9141 28.2656 21.709 28.7441 21.3672 29.0859C20.957 29.4961 20.5469 29.6328 20 29.6328C19.4531 29.6328 18.9746 29.4961 18.6328 29.0859C18.2227 28.7441 18.0859 28.2656 18.0859 27.7188C18.0859 27.1719 18.2227 26.7617 18.6328 26.3516C18.9746 26.0098 19.4531 25.8047 20 25.8047Z" fill="#D74238"/>
</svg>
