<?xml version="1.0" encoding="utf-8"?>
<!-- Generator: Adobe Illustrator 26.3.1, SVG Export Plug-In . SVG Version: 6.00 Build 0)  -->
<svg version="1.1" id="Layer_2_1_" xmlns="http://www.w3.org/2000/svg" xmlns:xlink="http://www.w3.org/1999/xlink" x="0px" y="0px"
	 viewBox="0 0 512 512" style="enable-background:new 0 0 512 512;" xml:space="preserve">
<style type="text/css">
	.st0{fill:#FFFFFF;}
</style>
<path class="st0" d="M351.3,201.8c4.5,0,8.8,0,13.1,0c7.5,0,12,4.5,12.1,12c0,4.7,0,9.4,0,14.1c0,7.2-4.7,11.9-11.9,11.9
	c-4.3,0-8.7,0-13.1,0c0,14.9,0,29.6,0,44.6c0.6,0,1.2,0.1,1.8,0.1c3.9,0,7.8,0,11.7,0c6.8,0,11.5,4.7,11.6,11.5
	c0.1,5,0.1,9.9,0,14.9c-0.1,6.9-4.8,11.5-11.7,11.5c-4.4,0-8.8,0-13.4,0c0,11.1,0,22.1,0,33.2c-16.7,0-33.2,0-49.9,0c0-11,0-22,0-33
	c-6.8,0-13.5,0-20.3,0c0,11,0,22,0,33c-16.7,0-33.2,0-50,0c0-10.9,0-21.9,0-33c-6.5,0-12.8,0-19.2,0c0,11,0,21.9,0,33
	c-16.7,0-33.3,0-50,0c0-11,0-22,0-33.1c-3.4,0-6.6,0-9.8,0c-2.4,0-4.8,0.1-7.1-0.2c-5.2-0.7-9.1-4.8-9.3-10.1
	c-0.2-5.7-0.2-11.4,0-17.1c0.2-5.9,5.1-10.3,11.1-10.4c4.3-0.1,8.7,0,13,0c0.6,0,1.2,0,1.9,0c0-15,0-29.8,0-44.8
	c-4.2,0-8.3,0-12.4,0c-1.6,0-3.2,0-4.7-0.2c-5.2-0.9-8.8-5.1-9-10.4c-0.1-5.5-0.2-11.1,0-16.6c0.2-6.1,4.9-10.6,11.1-10.7
	c4.3,0,8.7,0,13,0c0.6,0,1.2,0,2,0c0-3,0.1-5.8,0-8.6c-0.1-3.4,0.8-6.4,2.6-9.3c4.3-6.7,8.4-13.5,12.6-20.3c4.9-7.9,14.7-8,19.7-0.1
	c4.3,6.9,8.6,13.8,12.9,20.7c1.5,2.3,2.2,4.8,2.1,7.5c-0.1,3.3,0,6.5,0,9.9c6.4,0,12.7,0,19.3,0c0-1.5,0.1-3.1,0-4.6
	c-0.6-6.1,1.1-11.4,4.6-16.3c3.8-5.5,7.1-11.4,10.7-17.1c4.9-7.9,14.7-7.9,19.7,0c4.2,6.8,8.5,13.7,12.8,20.5c1.6,2.5,2.3,5.1,2.3,8
	c-0.1,3.2,0,6.3,0,9.6c6.8,0,13.4,0,20.3,0c0-1.6,0.1-3.3,0-4.8c-0.6-6,1-11.1,4.4-16c3.8-5.5,7.1-11.4,10.7-17.1
	c5-8.1,14.8-8.1,19.9,0c4.3,6.9,8.6,13.8,12.9,20.7c1.4,2.2,2.1,4.5,2,7C351.2,194.7,351.3,198.1,351.3,201.8z M206.1,349.7
	c0-0.8,0-1.3,0-1.9c0-51.9,0-103.9-0.1-155.8c0-1.5-0.5-3.3-1.3-4.6c-4.2-6.9-8.5-13.7-12.8-20.6c-2.7-4.2-7.1-4.2-9.8,0
	c-4.4,7-8.9,14-13.2,21.1c-0.8,1.3-1.3,2.9-1.3,4.4c-0.1,51.8-0.1,103.7-0.1,155.5c0,0.6,0,1.2,0,1.9
	C180.5,349.7,193.2,349.7,206.1,349.7z M275.2,349.7c0-0.6,0.1-1.2,0.1-1.7c0-52,0-104,0-156c0-1.5-0.5-3.2-1.3-4.4
	c-4.2-6.9-8.5-13.7-12.8-20.6c-2.8-4.4-7.2-4.4-10,0c-4.3,7-8.7,14-12.9,21.1c-0.8,1.3-1.3,2.9-1.3,4.4
	c-0.1,51.8-0.2,103.6-0.2,155.3c0,0.6,0,1.2,0,1.9C249.7,349.7,262.4,349.7,275.2,349.7z M345.4,349.7c0-0.6,0.1-1.1,0.1-1.5
	c0-52.2,0-104.4,0-156.6c0-1.3-0.4-2.8-1.2-4c-4.2-6.9-8.5-13.8-12.9-20.7c-2.7-4.3-7.1-4.3-9.9,0c-4.3,7-8.7,14-12.9,21
	c-0.8,1.4-1.3,3.2-1.3,4.8c-0.1,51.7-0.1,103.4-0.2,155.1c0,0.6,0,1.2,0,1.9C320,349.7,332.6,349.7,345.4,349.7z M281.1,284.3
	c6.8,0,13.5,0,20.1,0c0-14.9,0-29.7,0-44.5c-6.8,0-13.4,0-20.1,0C281.1,254.7,281.1,269.4,281.1,284.3z M230.9,239.8
	c-6.5,0-12.7,0-19,0c0,14.9,0,29.6,0,44.5c6.4,0,12.7,0,19,0C230.9,269.4,230.9,254.7,230.9,239.8z M281.1,316.4
	c6.8,0,13.5,0,20.1,0c0-8.8,0-17.4,0-26.1c-6.8,0-13.4,0-20.1,0C281.1,299,281.1,307.7,281.1,316.4z M281.1,207.7c0,8.7,0,17.4,0,26
	c6.8,0,13.5,0,20.1,0c0-8.8,0-17.4,0-26C294.4,207.7,287.8,207.7,281.1,207.7z M161.7,233.8c0-8.8,0-17.5,0-26.2
	c-5.2,0-10.2-0.1-15.2,0c-2.9,0.1-5,2.3-5,5.3c0,5.3,0,10.5,0,15.7c0,2.8,1.9,5,4.6,5.1C151.3,233.9,156.4,233.8,161.7,233.8z
	 M161.8,290.4c-5,0-9.8,0-14.6,0c-3.7,0-5.7,2.1-5.7,5.8c0,4.8,0,9.7,0,14.5c0,3.8,2.1,5.9,5.9,5.9c4.3,0,8.7,0,13,0
	c0.5,0,0.9-0.1,1.5-0.1C161.8,307.9,161.8,299.3,161.8,290.4z M230.9,207.7c-6.5,0-12.7,0-19.1,0c0,8.7,0,17.3,0,26.1
	c6.4,0,12.7,0,19.1,0C230.9,225,230.9,216.4,230.9,207.7z M211.9,290.3c-0.1,0.3-0.1,0.5-0.1,0.7c0,8.1,0,16.1,0,24.2
	c0,1.1,0.5,1.3,1.4,1.3c5.5,0,10.9,0,16.4,0c0.4,0,0.8-0.1,1.3-0.2c0-8.7,0-17.3,0-26.1C224.6,290.3,218.3,290.3,211.9,290.3z
	 M351.3,233.8c5,0,9.8,0.1,14.7-0.1c2.7-0.1,4.5-2.4,4.5-5.2c0-5.2,0-10.4,0-15.6c0-3.2-2.1-5.3-5.3-5.4c-1.9-0.1-3.7,0-5.6,0
	c-2.7,0-5.5,0-8.3,0C351.3,216.4,351.3,225,351.3,233.8z M351.4,290.4c0,8.8,0,17.4,0,26.1c5,0,9.8,0.1,14.6-0.1
	c2.7-0.1,4.5-2.4,4.5-5.2c0-5,0-10,0-15.1c0-3.6-2.1-5.7-5.7-5.7c-2.6,0-5.3,0-8,0C355.1,290.4,353.3,290.4,351.4,290.4z"/>
<path class="st0" d="M186.3,230c-5.2,0-9.3-4.1-9.3-9.3c0-5.2,4.3-9.4,9.4-9.3c5.1,0.1,9.2,4.3,9.2,9.4
	C195.6,225.9,191.5,230,186.3,230z M186.3,224.2c1.9,0,3.5-1.5,3.5-3.4c0-1.9-1.5-3.5-3.4-3.5c-2-0.1-3.6,1.5-3.6,3.5
	C182.9,222.6,184.4,224.2,186.3,224.2z"/>
<path class="st0" d="M186.3,312.3c-5.1,0-9.2-4.2-9.2-9.4c0-5.1,4.3-9.3,9.3-9.2c5.1,0,9.3,4.2,9.3,9.3
	C195.6,308.2,191.5,312.4,186.3,312.3z M189.8,303.1c0-1.9-1.5-3.4-3.4-3.5c-2,0-3.6,1.6-3.6,3.5c0,1.9,1.6,3.4,3.5,3.4
	C188.3,306.5,189.8,305,189.8,303.1z"/>
<path class="st0" d="M264.2,303c0,5.2-4.1,9.3-9.2,9.3c-5.2,0-9.4-4.1-9.4-9.3c0-5.1,4.2-9.3,9.3-9.3
	C260.1,293.7,264.2,297.9,264.2,303z M255.1,299.6c-1.9-0.1-3.5,1.4-3.6,3.3c-0.1,1.9,1.3,3.5,3.2,3.6c2,0.1,3.6-1.4,3.7-3.4
	C258.4,301.2,257,299.7,255.1,299.6z"/>
<path class="st0" d="M255,230c-5.2,0-9.3-4-9.4-9.1c-0.1-5.2,4.2-9.4,9.3-9.4c5.1,0,9.3,4.2,9.3,9.3C264.2,225.9,260.2,230,255,230z
	 M255,217.3c-1.9,0-3.5,1.4-3.5,3.4c0,1.9,1.4,3.5,3.3,3.6c2,0.1,3.6-1.5,3.6-3.4C258.4,218.8,256.9,217.3,255,217.3z"/>
<path class="st0" d="M326.2,230c-5.1,0-9.2-4.2-9.2-9.3c0-5.1,4.2-9.3,9.3-9.3c5.1,0,9.3,4.2,9.3,9.3
	C335.6,225.9,331.5,230,326.2,230z M326.3,224.2c1.9,0,3.5-1.6,3.5-3.4c0-2-1.6-3.5-3.6-3.5c-1.9,0-3.4,1.6-3.4,3.5
	C322.8,222.7,324.4,224.2,326.3,224.2z"/>
<path class="st0" d="M326.3,312.3c-5.1,0-9.3-4.1-9.3-9.2c0-5.2,4.2-9.4,9.4-9.4c5.1,0,9.3,4.2,9.3,9.3
	C335.6,308.2,331.5,312.3,326.3,312.3z M326.3,306.5c1.9,0,3.5-1.6,3.5-3.4c0-1.9-1.6-3.5-3.6-3.5c-1.9,0-3.4,1.6-3.4,3.5
	C322.8,305,324.4,306.5,326.3,306.5z"/>
</svg>
