<?xml version="1.0" encoding="utf-8"?>
<!-- Generator: Adobe Illustrator 26.3.1, SVG Export Plug-In . SVG Version: 6.00 Build 0)  -->
<svg version="1.1" id="Layer_2_1_" xmlns="http://www.w3.org/2000/svg" xmlns:xlink="http://www.w3.org/1999/xlink" x="0px" y="0px"
	 viewBox="0 0 512 512" style="enable-background:new 0 0 512 512;" xml:space="preserve">
<style type="text/css">
	.st0{clip-path:url(#SVGID_00000031908002679399150100000015735422320873465216_);}
	.st1{fill:#FFFFFF;}
</style>
<g>
	<defs>
		<rect id="SVGID_1_" x="135.5" y="115.4" width="241" height="281.2"/>
	</defs>
	<clipPath id="SVGID_00000155868906570638657680000005800911608655944080_">
		<use xlink:href="#SVGID_1_"  style="overflow:visible;"/>
	</clipPath>
	<g style="clip-path:url(#SVGID_00000155868906570638657680000005800911608655944080_);">
		<path class="st1" d="M198.7,298.1c0-26.1,0-51.6,0-77c0-25-0.1-50.1,0-75.1c0.1-17.9,14.2-31.2,32.2-30.4
			c15.5,0.7,28.4,13.9,28.6,29.1c0.1,4.3-2.8,7.5-6.7,7.7c-4.1,0.2-7.1-2.9-7.4-7.7c-0.5-7.7-5.8-13.5-13.4-15
			c-7.3-1.4-14.7,2.4-17.7,9.2c-0.9,2.1-1.5,4.6-1.5,6.8c-0.1,16.6-0.1,33.1-0.1,49.7c0,0.5,0.1,1,0.2,1.8c29.5,0,58.9,0,88.8,0
			c0-1.4,0-2.6,0-3.8c0-16-0.1-32.1,0-48.1c0.1-13.8,9.8-25.7,23.2-28.9c13.7-3.2,27.9,3,34.1,15.5c1.8,3.5,2.6,7.5,3.3,11.4
			c0.9,5-2,8.8-6.4,9.1c-4.2,0.3-7.2-2.8-7.6-7.9c-0.7-8.1-6.4-14.1-14.5-15.1c-7.3-1-14.7,3.6-17.2,10.7c-0.7,1.9-1,4-1,6
			c-0.1,46.1-0.1,92.2-0.1,138.4c0,0.5,0.1,1,0.1,1.9c1-0.1,2-0.1,2.9-0.1c10.3-1,20.1,0.5,28.9,6c6.9,4.4,14,7.7,22.5,7.7
			c3.9,0,6.4,3.2,6.4,6.8c-0.1,3.7-2.9,6.6-6.9,6.8c-7.8,0.2-15.1-1.5-22-5.3c-1.9-1-3.7-2.2-5.6-3.3c-12-7.1-24.1-7.3-35.8,0.2
			c-10.7,6.8-22.1,9.7-34.9,8c-7.1-1-13.4-3.8-19.3-7.7c-7.1-4.8-14.9-6.3-23.4-5.4c-6.1,0.6-11.1,3.6-16.1,6.7
			c-11.9,7.4-24.8,8.7-38.1,4.9c-4.7-1.4-9-3.8-13.2-6.3c-5.6-3.3-11.3-5.5-17.8-5.6c-5-0.1-8.1-3.1-7.9-7.2
			c0.2-4.1,3.5-6.6,8.5-6.6c9.5,0.1,18,3.2,25.7,8.4c7,4.7,14.8,6.1,23.1,5.1C194.8,299.1,196.8,298.5,198.7,298.1z M212.9,247.5
			c29.7,0,59.2,0,88.6,0c0-12.3,0-24.3,0-36.3c-29.6,0-59,0-88.6,0C212.9,223.5,212.9,235.5,212.9,247.5z M212.8,290.2
			c2.5-0.9,4.5-1.8,6.6-2.4c14-3.8,27.3-2.6,39.4,5.5c7.5,5,15.5,7,24.4,6.1c6.8-0.7,12.3-4.3,17.8-7.7c0.2-3.9,0.4-7.8,0.6-11.7
			c0-0.2,0-0.5,0-0.6c0-5.7,0-11.5,0-17.4c-29.8,0-59.3,0-88.9,0C212.8,271.5,212.8,280.7,212.8,290.2z"/>
		<path class="st1" d="M367.3,354.9c-9.2-0.1-17.3-3.3-24.8-8.3c-8-5.3-16.8-6.7-25.9-4.6c-3.9,0.9-7.6,2.7-11,4.8
			c-17.9,11-35.7,11.2-53.6,0.1c-12.5-7.8-25.1-7.8-37.5,0.1c-14,9-28.8,10.6-44.4,4.6c-3.7-1.4-7.1-3.7-10.6-5.7
			c-4.8-2.9-10-4.5-15.8-4.6c-5.1-0.1-8.5-3.1-8.3-7.2c0.2-4.2,3.7-6.8,8.8-6.7c9.1,0.3,17.4,3.1,24.8,8.1c7.4,5,15.6,7.2,24.2,5.2
			c5.2-1.2,10.3-3.5,14.9-6.3c11.3-6.7,23.3-8.7,35.8-5.7c5.3,1.2,10.5,3.7,15.1,6.6c13,8,25.7,8.1,38.7,0
			c17.4-10.8,35-10.7,52.4,0.1c5.7,3.5,11.6,5.8,18.4,6c4.8,0.1,7.7,2.8,7.7,6.9c-0.1,4.2-3.2,6.8-8.2,6.8
			C367.9,354.9,367.6,354.9,367.3,354.9z"/>
		<path class="st1" d="M145.2,368.8c9,0.1,17,3.5,24.4,8.3c7.7,5.1,16.2,6.8,25,4.6c4.8-1.2,9.6-3.6,13.9-6.2
			c11.8-7.1,24.4-8.6,37.5-5.2c4.8,1.2,9.3,3.7,13.6,6.3c12.8,7.9,25.4,7.9,38.1,0c17.6-11,35.4-10.9,52.9,0.1
			c5.8,3.6,11.9,5.8,18.7,5.8c4.2,0,7.1,3,7.1,6.9c0,3.9-3,6.7-7.2,6.8c-9.9,0.3-18.7-2.9-26.7-8.3c-7.7-5.2-16.3-6.8-25.3-4.7
			c-4.7,1.1-9.2,3.4-13.3,5.9c-10.9,6.7-22.6,8.8-34.9,6.1c-5.6-1.2-11.2-3.7-16.1-6.7c-13.2-8.1-25.9-8.2-39.1-0.1
			c-17.4,10.8-35,10.6-52.4-0.2c-5.6-3.5-11.4-5.8-18.1-5.8c-4.8,0-8.1-3-7.9-7.2c0.1-4.1,3.4-6.7,8.4-6.6
			C144.3,368.8,144.8,368.8,145.2,368.8z"/>
	</g>
</g>
</svg>
