<svg width="24" height="24" viewBox="0 0 24 24" fill="none" xmlns="http://www.w3.org/2000/svg">
<g clip-path="url(#clip0_5436_14)">
<path d="M12.3716 0.0904846C18.7101 0.0904846 23.8716 5.25197 23.8672 11.5861C23.8629 17.9377 18.7057 23.0948 12.3541 23.0861C6.01562 23.0818 0.854134 17.9116 0.867212 11.5818C0.88029 5.23453 6.0287 0.0904846 12.3716 0.0904846ZM2.50633 11.5905C2.50633 17.031 6.91801 21.447 12.3629 21.4514C17.8077 21.4557 22.2194 17.044 22.2281 11.5992C22.2368 6.15 17.8121 1.72525 12.3629 1.72961C6.91365 1.73396 2.50633 6.14564 2.50633 11.5905Z" fill="#494949"/>
<path d="M13.1476 14.6333C12.6375 14.6333 12.11 14.6333 11.5608 14.6333C11.5433 14.1582 11.6392 13.7048 11.8005 13.2688C12.1362 12.3621 12.7378 11.682 13.5617 11.1807C15.0177 10.3045 15.118 8.25994 13.7535 7.27036C13.0255 6.74288 12.2234 6.65134 11.4038 7.02188C10.5843 7.39243 10.1265 8.05505 10.0306 8.94436C10.0132 9.11438 9.96087 9.16669 9.79521 9.16233C9.39415 9.15361 8.99745 9.14925 8.59638 9.16233C8.41765 9.16669 8.3697 9.1013 8.38714 8.93564C8.53099 7.31832 9.32876 6.13257 10.8197 5.50046C12.838 4.64167 15.0264 5.5179 15.9768 7.48833C16.853 9.30183 16.173 11.5077 14.3943 12.5888C13.8974 12.8896 13.5225 13.2906 13.3307 13.8399C13.2522 14.084 13.213 14.3456 13.1476 14.6333Z" fill="#494949"/>
<path d="M11.5478 16.0719C12.0971 16.0719 12.6246 16.0719 13.1651 16.0719C13.1739 16.1155 13.1826 16.1547 13.1826 16.1983C13.1826 16.7694 13.1782 17.3448 13.1869 17.9159C13.1869 18.0554 13.1433 18.1077 12.9995 18.1077C12.5723 18.099 12.145 18.1034 11.7178 18.1077C11.6045 18.1077 11.5435 18.0816 11.5435 17.9508C11.5522 17.3318 11.5478 16.7171 11.5478 16.0719Z" fill="#494949"/>
</g>
<defs>
<clipPath id="clip0_5436_14">
<rect width="22.9956" height="23" fill="white" transform="translate(0.867188 0.0904846)"/>
</clipPath>
</defs>
</svg>
