<?xml version="1.0" encoding="utf-8"?>
<!-- Generator: Adobe Illustrator 26.3.1, SVG Export Plug-In . SVG Version: 6.00 Build 0)  -->
<svg version="1.1" id="Layer_2_1_" xmlns="http://www.w3.org/2000/svg" xmlns:xlink="http://www.w3.org/1999/xlink" x="0px" y="0px"
	 viewBox="0 0 512 512" style="enable-background:new 0 0 512 512;" xml:space="preserve">
<style type="text/css">
	.st0{clip-path:url(#SVGID_00000138532694776682294930000014646435516215420552_);}
	.st1{fill:#FFFFFF;}
</style>
<g>
	<defs>
		<rect id="SVGID_1_" x="135.5" y="120.5" width="241" height="271.9"/>
	</defs>
	<clipPath id="SVGID_00000026870741784647006150000014344247870485643707_">
		<use xlink:href="#SVGID_1_"  style="overflow:visible;"/>
	</clipPath>
	<g style="clip-path:url(#SVGID_00000026870741784647006150000014344247870485643707_);">
		<path class="st1" d="M135.5,269.3c0-2.4,0.8-4.1,2.4-5.8c6.5-6.4,12.9-12.7,19.3-19.1c9.6-9.5,19.4-19.3,29.2-28.8
			c1.7-1.7,2.3-3.3,2.3-5.7c-0.1-21.8-0.1-44,0-65.4c0-5.9,0-11.7,0-17.6c0-5,1.2-6.2,6.1-6.2c41.3,0,82.6,0,123.9,0
			c4.9,0,6.1,1.3,6.1,6.3v10.7c0,24.7,0,50.2,0,75.3c0,1.4,0.4,2.3,1.3,3.3c7.6,7.5,15.2,15,22.6,22.4c8.3,8.2,16.8,16.6,25.2,24.9
			c1.8,1.8,2.5,3.6,2.5,6.2c0,11.9,0,24.1,0,35.8c0,4.1,0,8.2,0,12.3c0,5.3-1.1,6.4-6.2,6.4H256h-31.7c-27.7,0-55.4,0-83.1,0
			c-4.4,0-5.8-1.3-5.8-5.7c0-4.8,0-9.6,0-14.5C135.5,292.4,135.5,280.8,135.5,269.3z M144.2,272.3v42.9h223.7v-42.9H144.2z
			 M197.3,129.3v81.2h118.8v-81.2H197.3z M196.7,219.3c-1.5,0-2.5,0.4-3.6,1.5c-13,13-26.2,26.1-39.1,38.7l-2.8,2.8
			c-0.1,0.1-0.3,0.3-0.4,0.4c-0.1,0.1-0.3,0.2-0.4,0.4h211c-0.9-1-1.8-1.9-2.7-2.8c-4-4-8-7.9-12-11.9c-9.2-9.2-18.8-18.6-28.1-27.9
			c-0.9-0.9-1.7-1.2-3.1-1.2C272.3,219.4,233.4,219.4,196.7,219.3z"/>
		<path class="st1" d="M268.8,344.6c-0.1-3.7-1.1-7.2-2.9-10.8c-0.8-1.6-0.8-3.2-0.1-4.5c0.8-1.4,2.3-2.2,4.4-2.2h0.4l0.3,0.3
			c0.1,0.1,0.4,0.3,0.6,0.5c0.7,0.6,1.6,1.3,2.2,2.4c5,10,5,20.2,0,30.5c-1.7,3.5-3,7-3.8,10.5c-1.1,4.6-0.7,9.5,1.2,14.9
			c0.9,2.7,0,5-2.3,6c-0.5,0.2-1.1,0.3-1.5,0.3c-1.7,0-3.2-1.2-4.1-3.2c-0.2-0.4-0.3-0.8-0.5-1.3c-3.2-10.5-2.2-20.6,2.8-30
			C267.9,353.2,268.9,349,268.8,344.6z"/>
		<path class="st1" d="M292.4,334.9c-1.1-2.2-1.3-3.9-0.8-5.2c0.4-0.9,1-1.7,2.1-2.2c2.6-1.2,4.8,0,6.5,3.7c0,0,0,0.1,0.1,0.2l0,0
			c4.5,10.1,4.2,20-0.8,29.4c-3.2,6.1-4.6,11.8-4,17.5c0.2,2.2,0.8,4.3,1.3,6.4c0.1,0.6,0.3,1.1,0.4,1.7c0.4,1.5,0.1,3-0.8,4.1
			c-0.8,1.1-2.3,1.7-3.9,1.7c0,0-0.1,0-0.2,0h-0.3l-0.2-0.2c-0.1-0.1-0.3-0.2-0.4-0.4c-0.6-0.4-1.3-1-1.9-1.8
			c-0.6-0.8-0.8-1.8-1.1-2.7c0-0.2-0.1-0.3-0.1-0.5c-2.8-10.3-1.6-20.2,3.4-29.5C295.7,350,295.9,342.4,292.4,334.9z"/>
		<path class="st1" d="M240.4,335.1c-1.1-2.4-1.4-4.1-0.9-5.4c0.4-0.9,1.1-1.6,2.1-2.1c1.4-0.6,2.6-0.6,3.8,0.2
			c1.1,0.7,2,1.9,2.8,3.8c4.5,10.2,4.2,20.2-1.1,29.8c-2.4,4.5-3.8,9.3-4.3,14.8c0.2,1,0.4,2,0.7,3c0.5,2.4,1.1,4.9,1.7,7.3
			c0.7,2.7-0.2,4.8-2.4,5.7c-0.5,0.2-1.1,0.3-1.6,0.3c-1.7,0-3.2-1.1-4-3c-0.4-0.9-0.7-1.8-1-2.9c-2.7-10.2-1.5-20.2,3.6-29.5
			C243.6,350,243.8,342.6,240.4,335.1z"/>
		<path class="st1" d="M216.6,344.2c-0.2-3.6-1.2-7.1-3.1-10.7c-1.2-2.2-0.4-4.7,1.7-5.8c2-1.1,4.2-0.4,5.6,1.5
			c0.4,0.5,0.7,1.1,1.1,1.9c4.7,10.2,4.5,20.2-0.7,29.9c-2.7,5.1-4,10.1-4.1,15.8c0,0.3,0,0.5,0.1,0.9c0,0.9,0.1,2.1,0.4,3.2
			c0.3,1.6,0.8,3.1,1.2,4.7l0.3,0.9c0.8,2.6-0.2,4.8-2.4,5.7c-0.5,0.2-1,0.3-1.5,0.3c-1.7,0-3.2-1.1-4-3c-0.2-0.5-0.4-1.1-0.5-1.6
			c-3.2-10.5-2.2-20.6,2.9-30.2C215.9,353.1,216.9,348.7,216.6,344.2z"/>
		<path class="st1" d="M299.7,310c-15.6,0-31.2,0-46.8,0c-14.9,0-29.7,0-44.6,0c-3.8,0-5.4-1.5-5.4-5.5c0-6.3,0-12.6,0-18.9v-3.1
			c0-4.7,1.3-6.1,5.9-6.1c11.9,0,23.8,0,35.8,0h9.1h13.4c10.8,0,21.7,0,32.6,0c3.7,0,5.3,1.6,5.3,5.4c0,6.8,0,14,0,22.7
			C305,308.5,303.5,310,299.7,310z M296.3,301.3v-15.9h-84.6v15.9H296.3z"/>
		<path class="st1" d="M282.8,288.5c2.7,0,5,2.2,5.1,4.9c0,1.4-0.4,2.7-1.3,3.7c-0.9,1-2.2,1.6-3.5,1.6c0,0-0.1,0-0.2,0
			c-1.3,0-2.5-0.5-3.5-1.4c-1-0.9-1.5-2.2-1.6-3.6c0-1.3,0.5-2.7,1.4-3.7C280.2,289.1,281.5,288.5,282.8,288.5z"/>
		<path class="st1" d="M229.2,288.5c1.3,0,2.6,0.5,3.6,1.5c1,1,1.5,2.3,1.5,3.7c0,2.8-2.2,5-4.9,5.1c0,0-0.1,0-0.2,0
			c-1.3,0-2.6-0.5-3.5-1.4c-1-0.9-1.5-2.2-1.5-3.6c0-1.3,0.5-2.7,1.5-3.7C226.6,289.1,227.9,288.5,229.2,288.5z"/>
		<path class="st1" d="M265.1,288.5c1.3,0,2.6,0.6,3.6,1.6c1,1,1.5,2.3,1.5,3.7c0,1.3-0.6,2.6-1.5,3.6c-1,0.9-2.2,1.4-3.5,1.4
			c0,0-0.1,0-0.1,0c-2.7-0.1-4.9-2.3-4.9-5.1c0-1.3,0.5-2.7,1.5-3.7C262.4,289,263.7,288.5,265.1,288.5z"/>
		<path class="st1" d="M247.1,288.5C247.1,288.5,247.1,288.5,247.1,288.5c1.3,0,2.6,0.5,3.5,1.5c1,1,1.5,2.3,1.5,3.7
			c0,2.7-2.1,5-4.9,5.1c0,0-0.1,0-0.2,0c-1.3,0-2.6-0.5-3.5-1.4c-1-0.9-1.5-2.2-1.5-3.6c0-1.4,0.5-2.7,1.5-3.7
			C244.5,289.1,245.8,288.5,247.1,288.5z"/>
	</g>
</g>
</svg>
