<svg width="6" height="8" viewBox="0 0 6 8" fill="none" xmlns="http://www.w3.org/2000/svg">
<path d="M5.21875 4.25V4.28125C5.28125 4.21875 5.3125 4.125 5.3125 4C5.3125 3.90625 5.28125 3.8125 5.21875 3.71875L1.53125 0.09375C1.46875 0.03125 1.375 0 1.28125 0C1.15625 0 1.0625 0.03125 1 0.09375L0.78125 0.34375C0.71875 0.40625 0.6875 0.5 0.6875 0.59375C0.6875 0.71875 0.71875 0.8125 0.78125 0.875L3.96875 4L0.78125 7.125C0.6875 7.21875 0.65625 7.3125 0.65625 7.40625C0.65625 7.53125 0.6875 7.59375 0.78125 7.65625L1 7.875C1.0625 7.96875 1.15625 8 1.28125 8C1.375 8 1.46875 7.96875 1.53125 7.875L5.21875 4.25Z" fill="white"/>
</svg>
