<svg width="21" height="21" viewBox="0 0 21 21" fill="none" xmlns="http://www.w3.org/2000/svg">
<g clip-path="url(#clip0_3858_5266)">
<path d="M8.80533 2.86821C8.80533 2.46929 8.80533 2.08833 8.80533 1.70379C8.80533 1.44143 8.80173 1.17549 8.80533 0.913131C8.80892 0.668747 8.95627 0.507022 9.18987 0.503428C10.0272 0.499834 10.8682 0.499834 11.7056 0.503428C11.9536 0.503428 12.0937 0.672341 12.0973 0.941882C12.1009 1.50972 12.0973 2.08115 12.0973 2.64898C12.0973 2.71367 12.0973 2.77836 12.0973 2.86102C12.2231 2.89696 12.3417 2.9293 12.4603 2.96165C13.1144 3.15212 13.7361 3.41448 14.3184 3.76309C14.4154 3.82059 14.4693 3.8134 14.5448 3.73434C14.9509 3.31744 15.3642 2.90774 15.7739 2.49804C16.0111 2.26084 16.2123 2.26084 16.4531 2.49804C17.118 3.16291 17.7829 3.82778 18.4477 4.49265C18.6849 4.72984 18.6885 4.93469 18.4513 5.17189C18.0416 5.58159 17.6283 5.9913 17.2186 6.4046C17.1791 6.44413 17.1467 6.54116 17.1647 6.5771C17.578 7.2851 17.8835 8.03263 18.0848 8.84844C18.153 8.84844 18.2177 8.84844 18.2824 8.84844C18.8503 8.84844 19.4217 8.84844 19.9895 8.84844C20.3058 8.84844 20.4495 8.9922 20.4495 9.31205C20.4495 10.1027 20.4495 10.8934 20.4495 11.684C20.4495 12.0003 20.3058 12.1404 19.9859 12.144C19.4217 12.144 18.861 12.144 18.2968 12.144C18.2321 12.144 18.1674 12.144 18.0883 12.144C18.0632 12.2375 18.0416 12.3237 18.0165 12.4064C17.8296 13.0856 17.5636 13.7325 17.2007 14.3363C17.1252 14.4585 17.1432 14.5232 17.2402 14.6202C17.6499 15.0156 18.0488 15.4217 18.4513 15.8242C18.6813 16.0542 18.6849 16.2626 18.4549 16.4926C17.7865 17.1611 17.118 17.8332 16.4495 18.5016C16.2123 18.7388 16.0111 18.7388 15.7703 18.498C15.3714 18.0991 14.9724 17.7038 14.5807 17.3013C14.4837 17.2006 14.4154 17.1755 14.2824 17.2546C13.6535 17.6319 12.9814 17.9122 12.2662 18.0883C12.1297 18.1207 12.0937 18.1818 12.0937 18.3183C12.1009 18.8862 12.0973 19.4576 12.0973 20.0254C12.0973 20.3561 11.9572 20.4998 11.6301 20.4998C10.8395 20.4998 10.0488 20.4998 9.25816 20.4998C8.95268 20.4998 8.80533 20.3525 8.80533 20.0506C8.80533 19.4648 8.80173 18.8754 8.80892 18.2896C8.80892 18.171 8.77298 18.1243 8.66157 18.0955C7.93201 17.9158 7.24198 17.6283 6.59508 17.2438C6.49445 17.1827 6.43695 17.1899 6.35429 17.2725C5.95178 17.6822 5.54567 18.0883 5.13956 18.4944C4.89517 18.7388 4.69392 18.7388 4.44594 18.4909C3.78107 17.826 3.1162 17.1611 2.45133 16.4962C2.22132 16.2662 2.22132 16.0578 2.44773 15.8314C2.85744 15.4217 3.26714 15.0084 3.68403 14.6023C3.76669 14.5196 3.77388 14.4621 3.71278 14.3615C3.32824 13.711 3.04073 13.0245 2.86103 12.2914C2.83228 12.18 2.78556 12.1404 2.66696 12.1404C2.08475 12.1476 1.50613 12.144 0.923925 12.144C0.596881 12.144 0.453125 12.0039 0.453125 11.6732C0.453125 10.8898 0.453125 10.1027 0.453125 9.31924C0.453125 8.9922 0.596881 8.85204 0.927519 8.85204C1.50254 8.85204 2.07756 8.84844 2.65259 8.85563C2.77478 8.85563 2.83228 8.82688 2.86103 8.70469C3.04073 7.97153 3.32824 7.2851 3.71638 6.6382C3.77747 6.53398 3.7631 6.47647 3.68044 6.39741C3.27074 5.99489 2.86463 5.58878 2.45852 5.18267C2.21773 4.94188 2.21773 4.74062 2.45133 4.50343C3.1162 3.83856 3.78107 3.17369 4.44594 2.50882C4.69392 2.26443 4.89158 2.26443 5.13956 2.51241C5.54567 2.91852 5.95178 3.32823 6.35789 3.73434C6.4118 3.78824 6.45133 3.84934 6.55196 3.78824C7.24558 3.36416 7.99311 3.06587 8.80533 2.86821ZM16.1045 3.28869C15.6697 3.71996 15.2384 4.15482 14.8035 4.58249C14.631 4.755 14.4513 4.77656 14.2537 4.64718C13.4594 4.12248 12.5969 3.76668 11.6661 3.5762C11.4145 3.52589 11.3139 3.39292 11.3139 3.13416C11.3139 2.58788 11.3139 2.04521 11.3139 1.49894C11.3139 1.43425 11.3139 1.36956 11.3139 1.30127C10.7281 1.30127 10.1638 1.30127 9.58879 1.30127C9.58879 1.91583 9.58879 2.51241 9.58879 3.11259C9.58879 3.4037 9.49176 3.52589 9.20425 3.58699C8.2914 3.77387 7.44684 4.12607 6.66696 4.64C6.44773 4.78375 6.27523 4.76219 6.08835 4.57531C5.71458 4.20513 5.34082 3.83137 4.97424 3.45401C4.91674 3.39651 4.8772 3.31744 4.84127 3.26354C4.28421 3.82059 3.76669 4.33811 3.24917 4.85563C3.66966 5.27971 4.10452 5.71098 4.53219 6.14224C4.71188 6.32194 4.72985 6.49804 4.59329 6.70648C4.07577 7.48995 3.72357 8.3417 3.53309 9.26174C3.47559 9.53487 3.3498 9.6355 3.06948 9.6355C2.52321 9.6355 1.98053 9.6355 1.43426 9.6355C1.37316 9.6355 1.30847 9.64269 1.25097 9.64269C1.25097 10.2249 1.25097 10.7855 1.25097 11.3606C1.33003 11.3606 1.39472 11.3606 1.45941 11.3606C1.9985 11.3606 2.53758 11.3606 3.07666 11.3606C3.34621 11.3606 3.47559 11.4612 3.5295 11.7236C3.71997 12.6508 4.07577 13.5061 4.59329 14.2932C4.72626 14.4944 4.7047 14.6705 4.53938 14.8466C4.48547 14.9041 4.42797 14.9581 4.37406 15.012C3.99311 15.3929 3.61575 15.7739 3.24198 16.1476C3.76669 16.6723 4.28062 17.1863 4.83408 17.7361C4.86283 17.693 4.89517 17.6283 4.9383 17.5816C5.31566 17.197 5.69661 16.8161 6.08116 16.4351C6.28242 16.2339 6.44773 16.2159 6.68852 16.374C7.45762 16.8772 8.2914 17.2258 9.19347 17.4091C9.49535 17.4702 9.58879 17.5924 9.58879 17.9086C9.58879 18.4405 9.58879 18.976 9.58879 19.5079C9.58879 19.5726 9.58879 19.6337 9.58879 19.6984C10.1746 19.6984 10.7352 19.6984 11.3139 19.6984C11.3139 19.6229 11.3139 19.5582 11.3139 19.4935C11.3139 18.9652 11.3139 18.4405 11.3139 17.9122C11.3139 17.5888 11.4073 17.4702 11.7236 17.4055C12.6077 17.2258 13.4271 16.8844 14.1818 16.392C14.4729 16.2051 14.6131 16.2195 14.8574 16.4675C15.2707 16.8808 15.6876 17.2977 16.0758 17.6894C16.6005 17.1647 17.118 16.6472 17.6391 16.1261C17.2294 15.7128 16.8017 15.2851 16.3741 14.8574C16.1872 14.6705 16.1692 14.498 16.313 14.2788C16.8305 13.4953 17.1791 12.6436 17.3696 11.7236C17.4235 11.4612 17.5529 11.357 17.8224 11.357C18.3687 11.357 18.9113 11.357 19.4576 11.357C19.5223 11.357 19.5834 11.357 19.6553 11.357C19.6553 10.7712 19.6553 10.2105 19.6553 9.63191C19.5798 9.63191 19.5151 9.63191 19.4504 9.63191C18.9185 9.63191 18.383 9.63191 17.8511 9.63191C17.5493 9.63191 17.4235 9.53487 17.3624 9.24377C17.1755 8.33452 16.8269 7.49714 16.3166 6.72086C16.1656 6.49085 16.1836 6.32194 16.3777 6.12787C16.7658 5.73613 17.1575 5.34799 17.5457 4.95985C17.5852 4.92032 17.6211 4.87719 17.6535 4.84125C17.1396 4.32373 16.6292 3.80981 16.1045 3.28869Z" fill="#494949"/>
<path d="M10.4482 14.6706C8.14093 14.667 6.2793 12.8054 6.2793 10.4981C6.2793 8.18362 8.15171 6.31839 10.4662 6.32558C12.7735 6.33277 14.6279 8.198 14.6243 10.5053C14.6207 12.8161 12.7555 14.6742 10.4482 14.6706ZM13.7977 10.4981C13.7977 8.65083 12.2955 7.15218 10.4446 7.15577C8.60454 7.15936 7.10949 8.65442 7.10589 10.4945C7.1023 12.3453 8.60095 13.844 10.4482 13.844C12.2991 13.844 13.7977 12.3453 13.7977 10.4981Z" fill="#494949"/>
</g>
<defs>
<clipPath id="clip0_3858_5266">
<rect width="20" height="20" fill="white" transform="translate(0.453125 0.499878)"/>
</clipPath>
</defs>
</svg>
