<?xml version="1.0" encoding="utf-8"?>
<!-- Generator: Adobe Illustrator 26.3.1, SVG Export Plug-In . SVG Version: 6.00 Build 0)  -->
<svg version="1.1" id="Layer_2_1_" xmlns="http://www.w3.org/2000/svg" xmlns:xlink="http://www.w3.org/1999/xlink" x="0px" y="0px"
	 viewBox="0 0 512 512" style="enable-background:new 0 0 512 512;" xml:space="preserve">
<style type="text/css">
	.st0{clip-path:url(#SVGID_00000127044390118816795470000007404887872625574826_);}
	.st1{fill:#FFFFFF;}
</style>
<g>
	<defs>
		<rect id="SVGID_1_" x="135.6" y="147.8" width="241" height="217.5"/>
	</defs>
	<clipPath id="SVGID_00000134954011824015151860000005021918106843530165_">
		<use xlink:href="#SVGID_1_"  style="overflow:visible;"/>
	</clipPath>
	<g style="clip-path:url(#SVGID_00000134954011824015151860000005021918106843530165_);">
		<path class="st1" d="M372.4,356.9c-0.5-0.1-1-0.1-1.4,0c-0.2,0-0.3,0-0.5,0c-7.5,0-15,0-22.5,0h-5.4v-30.4c0.1,0,0.2,0.1,0.3,0.1
			c1.3,0.5,2.5,1,3.9,1.3c2.5,0.7,5,1.1,7.5,1.1c8.7,0,16.5-4.4,20.7-12c2.2-3.9,2.2-7.8,0.2-11.3c-1.5-2.6-3.4-5.2-5.6-7.7
			c-1.4-1.6-3.1-3-4.6-4.3c-0.5-0.4-0.9-0.8-1.4-1.2c1.1-2.1,1.2-4.3,0.3-6.2c-1.3-2.6-2.8-5.7-4.8-8.2
			c-4.8-5.8-10.6-10.3-17.8-15.3c-1.6-1.1-3.4-1.1-5,0c-0.8,0.5-1.5,1-2.2,1.5c-6.1,4.4-12.6,9.3-17.5,16c-2.5,3.4-4.7,7.5-2.7,12.4
			c-0.3,0.3-0.7,0.5-1,0.8c-3.5,2.8-7.4,6.3-10.1,11.1c-2.5,4.5-2.6,8.8,0,13.1c4.9,8.3,13.9,12.6,23.5,11.1c2.3-0.3,4.5-1,6.6-1.6
			c0.5-0.2,1-0.3,1.5-0.4v30.1H218.8V337c0.2,0,0.3,0,0.5-0.1c0.8-0.1,1.6-0.2,2.4-0.3c10.9-2,22.1-4.9,28.4-16
			c0.4,0.2,0.8,0.5,1.1,0.7c1.6,1,3.2,2,4.9,2.7c7.4,3.2,15.5,4.1,24.3,2.5c10.3-1.9,15.1-8.8,13.3-19.5c-1.3-7.9-4.9-14.5-8.7-20.5
			c-0.2-0.4-0.5-0.8-0.8-1.2c2.4-2.8,3.9-5.9,4.4-9.5c0.6-4.3,0.4-8.8-0.6-13.4c-1.9-8.2-5.8-15.9-12.1-23.3l-0.1-0.1
			c-0.2-0.2-0.4-0.5-0.4-0.6c0,0,0-0.1,0.1-0.3c2.8-4.8,2.9-9.9,0.3-15.7c-2-4.5-5-8.6-8.8-12.2c-3-2.9-6.1-5.6-9.3-8.4
			c-1.1-1-2.3-2-3.5-3.1c3.2-4.9,2.8-10.5-1.3-17c-1.9-3.2-4.3-6.2-6.8-9.1c-8.8-9.8-19.4-17.5-28.5-23.8c-1.9-1.3-3.9-1.3-5.8,0.3
			c-2.1,1.6-4.3,3.3-6.3,4.8c-4.4,3.3-8.9,6.8-13.2,10.4c-7.4,6.2-12.5,12-16.1,18.5c-3.4,6-3.6,11.3-0.6,16.2c-0.6,0.5-1.3,1-2,1.6
			c-1.9,1.5-3.9,3.1-5.8,4.7c-5,4.3-10.5,9.8-13.8,16.9c-2.7,5.8-2.6,11.1,0.2,15.9c0.1,0.2,0.1,0.3,0.1,0.3c0,0.1-0.2,0.3-0.4,0.5
			c-5.4,6.3-8.9,12.5-10.9,19c-2.8,9-4.4,18.6,2.4,27.5c-0.3,0.4-0.5,0.8-0.8,1.2c-3.3,5.1-7.2,12.1-8.7,20.1
			c-1.9,10.2,2.7,17.6,12,19.4c12.8,2.5,23.1,0.6,31.6-5.7c2.5,5.1,6.8,8.9,13.4,11.9c4.9,2.2,10.2,3.7,17.2,4.7v20H142
			c-0.2,0-0.3,0-0.5,0c-0.5,0-1,0-1.5,0c-2.2,0.3-3.6,1.7-3.8,3.9c-0.2,2.1,1.4,4.1,3.7,4.4c0.5,0.1,1,0.1,1.5,0.1
			c0.1,0,0.3,0,0.4,0c76.2,0,152.5,0,228.7,0c0.2,0,0.3,0,0.4,0c0.2,0,0.3,0,0.5,0c0.4,0,0.8,0,1.2-0.1c2.2-0.5,3.5-2,3.5-4.2
			C376,358.8,374.6,357.2,372.4,356.9z M247,194.8c-2,3.3-5,5.7-9.2,7.4c-5.8,2.4-12.3,3.4-21.1,3.3c-0.4,0-0.8,0-1.2,0
			c-0.3,0-0.7,0-1,0h-1c-6.5,0.1-14.1-0.3-21.3-3.3c-4.1-1.7-7-4-9-7.1c-1.6-2.5-1.7-4.8-0.4-7c1.4-2.3,2.9-4.8,4.7-6.9
			c6.8-8.1,14.8-14.6,22.5-20.4l0.2-0.1c1.5-1.1,3-2.3,4.6-3.2c0.2-0.1,0.5-0.1,0.7,0c7.9,5.6,18,13.2,26.5,22.9
			c2.1,2.4,3.8,5.2,5.6,8.1C248.5,190.3,248.4,192.4,247,194.8z M234.4,212c5.7-1.5,10.2-3.6,13.9-6.4c0.2,0,0.5-0.1,0.6,0
			c7.1,5.1,12.3,9.9,16.4,15.2c5.6,7.4,5.5,11.6-0.5,18.7c-6.5,7.6-15.1,10.9-26.5,10c-5.3-0.4-9.7-1.7-13.4-3.9
			c-2.5-1.5-4.8-3.4-6.8-5.1c-1.4-1.2-2.7-1.7-4-1.6c-1.1,0.1-2.2,0.7-3,1.7c-4.7,5.5-13.9,9.2-23.3,9.1c-5.3,0-10.7-1.1-15.3-3.8
			c-5.3-3-9.1-7.3-11.3-12.7c-0.5-1.3-0.6-3.1-0.3-5.1c0.2-1.3,0.9-2.8,2-4.6c4.5-7,10.6-12.3,18.3-18c9.5,7.2,20.3,8.4,29.7,8.5
			C218.5,214,226.6,214.1,234.4,212z M184.8,257.8c10.9,0.8,22.2-2.6,29.8-9c8.1,6.4,17.8,9.5,28.9,9.1c11-0.3,20.1-4.5,27.1-12.3
			c5,6.5,10.3,15.3,10.1,26.3c-0.1,6.6-3.2,10.1-9.5,10.9c-7,0.9-13.4-0.7-19.2-4.7c-1.1-0.8-2-1.9-3-3c-0.2-0.2-0.3-0.4-0.5-0.6
			c-1.1-1.3-2.5-2-3.9-1.8c-1.3,0.1-2.3,0.8-3,2c-3.1,5.3-8,8.7-15.5,10.5c-8.9,2.1-17.6,1.8-25.8-0.9c-5.8-2-9.8-5-12.4-9.4
			c-0.7-1.3-1.9-2-3.2-2.1c-0.1,0-0.2,0-0.3,0c-1.3,0-2.5,0.7-3.4,1.8c-6,7.4-14.1,10-24.7,8c-4.5-0.9-7-4-7.4-9.2
			c-0.4-5.7,0.7-11.1,3.2-16.1c1.5-2.9,3.2-5.8,5-8.8c0.5-0.9,1.1-1.8,1.7-2.8C165.4,252.7,174.5,257.1,184.8,257.8z M144,309.7
			c0.4-4.7,2.3-9,4.3-12.9c0.9-1.8,2-3.6,3.1-5.4c0.3-0.5,0.6-1,0.9-1.5c11.5,3.3,21.9,1.3,32-6.2c7.4,7.5,17.1,11.1,30.4,11.1
			c13.4,0,23.2-3.5,30.7-11.2c4.3,3.6,9.3,5.9,14.9,7.1c6.4,1.3,11.8,1,16.9-0.9c3.9,6.2,7.5,12.4,8.4,19.7c0.6,4.9-1.2,7.4-6,8.4
			c-7.5,1.5-14.5,0.9-20.7-1.9c-3.5-1.5-5.8-3.7-7.2-6.6c-0.9-2-2.7-2.8-4.7-2.3c-1.9,0.5-3.1,1.9-3.2,4c-0.2,5.2-2.8,9.2-7.7,11.9
			c-10.5,5.7-21.2,7.2-32,4.3c-3.9-1.1-8-2.4-11.7-4.9c-4.4-2.9-6.6-6.6-6.6-11.2c0-2.1-1.2-3.5-3.1-4c-0.4-0.1-0.8-0.2-1.2-0.2
			c-1.5,0-2.8,0.8-3.5,2.2c-1.9,3.9-5.2,6.5-10.6,8.1c-6,1.8-12,2-17.8,0.6C145.4,316.8,143.7,314.4,144,309.7z M355.9,289.1
			c-0.2,1.1-1.5,2.3-3.9,3.6c-3.5,2-7.4,2.3-11.5,2.6c-0.6,0-1.3,0.1-2,0.2c-1.1-0.2-2.2-0.3-3.3-0.5c-2.7-0.3-5.4-0.7-7.9-1.4
			c-1.9-0.5-3.8-2.1-5.4-3.4c-1.3-1.1-0.6-2.4-0.2-3.1c0.2-0.3,0.5-0.7,0.7-1c0.7-1.1,1.4-2.1,2.2-2.9c4.6-4.2,9.5-8.3,13.5-11.8
			c0.2-0.1,0.5-0.1,0.6,0c4.6,3.3,10.4,7.7,15.1,13.6C355.5,286.9,356.1,288.1,355.9,289.1z M352.2,320.4c-4.5-0.4-8-1.9-10.7-4.7
			c-1.9-2-4.3-2-6.4,0c-5,4.6-10.9,5.9-18,3.8c-3-0.9-5.4-2.9-7.4-6.1c-1.1-1.7-1.1-3.2,0-5c2.4-3.9,5.9-6.9,9-9.2
			c13.2,6.1,26.1,6,39.4,0c3.8,2.8,6.6,5.7,8.8,8.7c1.5,2.1,1.5,3.9,0,6.1C363.6,318.9,358.8,321,352.2,320.4z"/>
	</g>
</g>
</svg>
