<svg width="23" height="23" viewBox="0 0 23 23" fill="none" xmlns="http://www.w3.org/2000/svg">
<rect x="1" y="1" width="21" height="21" rx="10.5" fill="#D74238" stroke="#D74238" stroke-width="2"/>
<g clip-path="url(#clip0_2082_14)">
<path d="M14.7831 11.4987C13.927 10.4915 13.071 9.48435 12.2807 8.41005C12.149 8.27576 12.0832 8.07433 12.0173 7.87289C11.9515 7.53717 12.149 7.20145 12.4783 7.06716C12.8075 6.93288 13.1368 7.00002 13.4002 7.33574C13.9929 8.07433 14.5856 8.81291 15.1782 9.5515C15.5734 10.0215 15.9026 10.4915 16.2977 10.8944C16.627 11.3644 16.627 11.633 16.2977 12.103C15.3758 13.3116 14.388 14.453 13.4661 15.6616C13.1368 16.0645 12.6758 16.1316 12.2807 15.863C11.8856 15.5945 11.8856 15.0573 12.2149 14.6544C13.071 13.6473 13.927 12.573 14.7831 11.4987Z" fill="white"/>
<path d="M10.7655 11.4987C9.97531 10.5587 9.18508 9.55151 8.39484 8.6115C8.32899 8.47721 8.26313 8.41006 8.19728 8.27577C7.93387 7.94005 7.99972 7.47005 8.32899 7.13432C8.65825 6.86575 9.11922 6.86575 9.44849 7.26861C9.97531 7.94005 10.5021 8.6115 11.029 9.21579C11.4899 9.75295 11.9509 10.3572 12.346 10.8944C12.6094 11.3644 12.6094 11.7001 12.2802 12.103C11.3582 13.3116 10.3704 14.453 9.44849 15.6616C9.11922 16.0645 8.65825 16.1988 8.26313 15.8631C7.86802 15.5273 7.86802 15.0573 8.26313 14.6545C9.05337 13.5802 9.90946 12.573 10.7655 11.4987Z" fill="white"/>
</g>
<defs>
<clipPath id="clip0_2082_14">
<rect width="8.56088" height="9.06446" fill="white" transform="translate(8 7)"/>
</clipPath>
</defs>
</svg>
