<?xml version="1.0" encoding="utf-8"?>
<!-- Generator: Adobe Illustrator 26.3.1, SVG Export Plug-In . SVG Version: 6.00 Build 0)  -->
<svg version="1.1" id="Layer_2_1_" xmlns="http://www.w3.org/2000/svg" xmlns:xlink="http://www.w3.org/1999/xlink" x="0px" y="0px"
	 viewBox="0 0 512 512" style="enable-background:new 0 0 512 512;" xml:space="preserve">
<style type="text/css">
	.st0{clip-path:url(#SVGID_00000069380221568073846500000018196990409060294076_);}
	.st1{fill:#FFFFFF;}
</style>
<g>
	<defs>
		<rect id="SVGID_1_" x="135.5" y="142" width="241" height="229.5"/>
	</defs>
	<clipPath id="SVGID_00000076600184806248880420000003883259848137646482_">
		<use xlink:href="#SVGID_1_"  style="overflow:visible;"/>
	</clipPath>
	<g style="clip-path:url(#SVGID_00000076600184806248880420000003883259848137646482_);">
		<path class="st1" d="M275.3,352.8c0,3.2,0,5.9,0,8.7c-0.1,6.1-4.1,9.9-10.3,10c-6,0-12.1,0-18.1,0c-6,0-10-3.9-10.2-9.7
			c0-2.9,0-5.8,0-8.9c-1.5,0-2.9,0-4.3,0c-1.6,0-3.2,0-4.8,0c-6.1-0.1-10.1-4-10.2-9.9c0-14.8,0-29.5,0-44.3c0-1.5-0.4-2.4-1.8-3.1
			c-29.5-16.1-45.8-48.5-40.8-80.8c5.1-33.1,30.4-59.3,63.9-66.3c46.3-9.7,91.4,20.8,98.2,66.4c4.8,32.3-11.2,64.2-40.4,80.4
			c-1.7,0.9-2.2,1.9-2.2,3.7c0.1,14.3,0,28.6,0,42.8c0,7.5-3.7,11-11.4,11C280.6,352.8,278.1,352.8,275.3,352.8z M284.9,305.8
			c0-3.5,0.2-6.9,0-10.3c-0.2-3.4,1.2-5.4,4.3-6.9c28.4-14.2,43.9-45.2,37.8-75.3c-7.8-38.5-44.8-63-84.6-56
			c-32.1,5.6-57.2,33-58.5,64.6c-1.3,30.1,12.3,52.5,39.4,67c2.6,1.4,3.8,3.1,3.7,6c-0.1,3.6,0,7.2,0,10.8c8.2,0,16.1,0,24,0
			c0-0.3,0.1-0.5,0.1-0.6c0-6.3,0.1-12.6,0-18.9c0-1-0.6-2.3-1.3-3.1c-3.5-3.6-7.2-7.1-10.8-10.6c-2.6-2.5-2.9-5.3-0.8-7.3
			c2.1-2.1,5-1.8,7.6,0.7c2,2,4.1,3.9,6.1,6c1.3,1.3,2.5,2.8,3.9,4.3c4-3.9,7.5-7.3,11-10.7c2.2-2.1,5.2-2.1,7.1-0.2
			c1.9,1.9,1.8,4.7-0.3,6.8c-1.9,2-4,3.9-6,5.8c-2.2,2.2-5.3,4-6.4,6.7c-1.1,2.7-0.4,6.2-0.4,9.3c0,3.9,0,7.9,0,12
			C268.9,305.8,276.8,305.8,284.9,305.8z M284.8,315.5c-19.3,0-38.5,0-57.6,0c0,3.1,0,6.1,0,9.1c19.3,0,38.4,0,57.6,0
			C284.8,321.5,284.8,318.6,284.8,315.5z M284.8,334.2c-19.4,0-38.5,0-57.6,0c0,3.1,0,6.1,0,9.1c19.3,0,38.4,0,57.6,0
			C284.8,340.1,284.8,337.2,284.8,334.2z M265.5,362.1c0-3.2,0-6.1,0-9.1c-6.4,0-12.7,0-18.9,0c0,3.1,0,6.1,0,9.1
			C252.9,362.1,259.1,362.1,265.5,362.1z"/>
		<path class="st1" d="M362.1,231c-3,0-6,0-9.1,0c-3.2,0-5.4-2-5.4-4.7s2.2-4.7,5.5-4.7c6,0,11.9,0,17.9,0c3.3,0,5.5,1.9,5.5,4.6
			c0,2.8-2.2,4.7-5.6,4.8C367.9,231,365,231,362.1,231z"/>
		<path class="st1" d="M150,231c-3,0-6,0-9.1,0c-3.2,0-5.4-2-5.4-4.7c0-2.7,2.2-4.7,5.5-4.7c6,0,12.1,0,18.1,0
			c3.2,0,5.3,1.9,5.3,4.6c0,2.8-2.1,4.7-5.4,4.8C156,231,153,231,150,231z"/>
		<path class="st1" d="M174.8,142c0.6,0.3,2,0.8,2.9,1.6c4.5,4.2,8.9,8.5,13.3,12.9c2.2,2.2,2.2,5,0.2,6.9c-1.9,1.8-4.8,1.8-7-0.3
			c-4.5-4.3-9-8.7-13.4-13.1c-1.5-1.5-2-3.3-1.1-5.2C170.5,143.1,172,142.1,174.8,142z"/>
		<path class="st1" d="M192.6,293.3c-0.3,0.5-0.8,1.8-1.7,2.8c-4.3,4.3-8.7,8.6-13.1,12.8c-2.2,2.1-5.1,2.2-7.1,0.3
			c-2-2-1.9-4.7,0.3-6.9c4.4-4.3,8.7-8.5,13.1-12.8c1.6-1.6,3.5-2.1,5.5-1.2C191.6,289.1,192.6,290.5,192.6,293.3z"/>
		<path class="st1" d="M342.9,147c-0.6,1.1-1.1,2.4-2,3.3c-4.4,4.4-8.8,8.7-13.3,12.9c-2.1,2.1-5,2.1-7,0.2
			c-1.9-1.9-1.9-4.7,0.1-6.8c4.4-4.4,8.9-8.7,13.4-13.1c1.5-1.5,3.3-1.9,5.4-1.1C341.6,143.3,342.5,144.7,342.9,147z"/>
		<path class="st1" d="M337.2,310.6c-0.6-0.3-2-0.8-2.9-1.6c-4.5-4.2-8.9-8.5-13.3-12.9c-2.1-2.1-2.1-4.9-0.2-6.8
			c1.9-1.9,4.8-1.9,7,0.1c4.5,4.3,8.9,8.7,13.4,13c1.6,1.6,2,3.4,1,5.4C341.3,309.6,339.9,310.5,337.2,310.6z"/>
	</g>
</g>
</svg>
