<?xml version="1.0" encoding="utf-8"?>
<!-- Generator: Adobe Illustrator 26.3.1, SVG Export Plug-In . SVG Version: 6.00 Build 0)  -->
<svg version="1.1" id="Layer_2_1_" xmlns="http://www.w3.org/2000/svg" xmlns:xlink="http://www.w3.org/1999/xlink" x="0px" y="0px"
	 viewBox="0 0 512 512" style="enable-background:new 0 0 512 512;" xml:space="preserve">
<style type="text/css">
	.st0{clip-path:url(#SVGID_00000005258410838921511740000000260198084996794266_);}
	.st1{fill:#FFFFFF;}
</style>
<g>
	<defs>
		<rect id="SVGID_1_" x="135.5" y="98.1" width="241" height="315.8"/>
	</defs>
	<clipPath id="SVGID_00000169529499552619942220000018380270921493988514_">
		<use xlink:href="#SVGID_1_"  style="overflow:visible;"/>
	</clipPath>
	<g style="clip-path:url(#SVGID_00000169529499552619942220000018380270921493988514_);">
		<path class="st1" d="M212.2,150.9c0-1.2,0-2.1,0-3c0-6.4,0-12.8,0-19.3c0-4.8,2.7-7.3,7.4-7.3c23.4,0,46.8,0,70.3,0
			c6.1,0,8.5,2.4,8.6,8.5c0,6,0,12,0,18c0,0.9,0,1.8,0,3c4.2,0,8.1-0.1,12,0c17.3,0.8,30.7,8.3,40.2,22.8c5.1,7.8,7.6,16.4,7.7,25.6
			c0.1,5.3,0,10.5,0,15.8c0,5.2-2.5,7.7-7.7,7.7c-63.1,0-126.1,0-189.2,0c-5.2,0-7.8-2.4-7.7-7.7c0.1-8.2-0.3-16.6,1.1-24.6
			c4.1-22.8,23.7-39.1,46.8-39.7C205.1,150.8,208.4,150.9,212.2,150.9z M167,208c59.4,0,118.7,0,178.2,0c0-2.7,0-5.3,0-7.9
			c-0.6-20.3-15.6-35.7-35.9-35.9c-35.5-0.2-71.1-0.1-106.6,0c-7,0-13.5,1.9-19.3,5.8C169.9,178.9,165.7,192.2,167,208z
			 M225.5,150.5c20,0,39.8,0,59.6,0c0-4.8,0-9.5,0-14.2c-20,0-39.8,0-59.8,0c0,4.5,0,8.7,0,13C225.4,149.7,225.5,150.1,225.5,150.5z
			"/>
		<path class="st1" d="M298.6,357.2c-0.4,3.4-0.9,9.1-2.1,14.7c-2.4,11.2-9,19.8-17.8,26.7c-6.2,4.9-12.5,9.5-18.9,14.2
			c-1.8,1.3-5.7,1.4-7.5,0c-8-6.3-16.1-12.5-23.7-19.2c-9.8-8.6-14.3-19.9-14.8-32.8c-1.4-32.5,10.3-59.2,35.1-80.2
			c5.2-4.4,8.9-4.4,14.2,0C286.2,300,297.8,324.8,298.6,357.2z M282.9,363.4c6.1-20.7-8.7-59.2-27.1-71.4
			c-11,9.4-19.2,20.8-24.2,34.4c-4.8,13.1-6.5,34.8-3.2,41.7c0.1-0.7,0.2-1.4,0.3-2c0-0.3,0.1-0.6,0.1-1
			c2.4-15.7,9.6-28.5,21.7-38.6c1.5-1.3,4-1.9,6-1.9c1.7,0,3.7,0.9,5,2.1C273,336.3,280,348.4,282.9,363.4z M256,341.8
			c-9,9.9-14.3,20.9-14.5,34.1c-0.1,7.6,2.6,13.8,8.5,18.5c6.8,5.3,4.6,5.3,11.5,0.2c0.6-0.5,1.3-1,1.9-1.5c4-3.3,6.6-7.5,6.9-12.6
			c0.2-4.9,0.2-9.9-0.5-14.7C268.2,356.3,263.5,348.3,256,341.8z"/>
		<path class="st1" d="M263.8,243.5c-0.4,3-0.3,6.1-1.4,8.8c-1.5,3.7-4.6,4.9-7.7,4c-3.5-0.9-5.8-3.9-5.9-7.6c0-3.8,0-7.6,0-11.4
			c0.1-4.4,2.9-7.3,7.2-7.4c4.3,0,7.2,2.8,7.4,7.2c0.1,2.1,0,4.1,0,6.2C263.5,243.5,263.6,243.5,263.8,243.5z"/>
		<path class="st1" d="M296.7,269.2c0,0,0-0.5,0.2-1c0.8-2.7,4.1-4.7,7.7-4.6c2.5,0,4.8,2.2,5.4,5c0.9,4.3,1.9,8.7,2.7,13
			c0.1,0.9,0,2.3-0.6,2.9c-1.6,1.7-3.3,3.5-5.3,4.7c-3.5,2.2-7.5,0.4-8.2-3.7C297.8,280.2,297.4,274.9,296.7,269.2z"/>
		<path class="st1" d="M376.5,314.6c0,3.9-3.2,7.9-5.8,8.1c-2.4,0.1-4.4-0.8-5.6-2.9c-2.4-4.5-4.7-9-6.8-13.6
			c-1.3-2.9,0.2-7,2.9-8.3c3.2-1.6,7-0.6,8.7,2.6c2.1,4,4.1,8,6,12.1C376.4,313.3,376.5,314.3,376.5,314.6z"/>
		<path class="st1" d="M360.6,278.3c-0.4,1.1-0.6,2.4-1.2,3.2c-1.3,1.6-2.8,3.3-4.5,4.2c-1,0.5-2.9-0.1-4.1-0.8
			c-1.1-0.7-1.9-2-2.5-3.2c-2-3.7-3.8-7.5-5.6-11.2c-1.7-3.6-0.5-7.8,2.7-9.4c3.2-1.6,7.2,0,9,3.6c1.8,3.5,3.5,7,5.3,10.6
			C360,276.1,360.2,277.2,360.6,278.3z"/>
		<path class="st1" d="M211.5,264c2.7-0.1,6.8,4.8,6.3,7.7c-0.7,4.2-1.3,8.5-2.9,12.4c-0.9,2.3-3.2,4.3-5.4,5.7
			c-2.3,1.4-4.3-0.5-6.1-1.9c-1.5-1.2-2.2-2.7-1.7-4.8c1-3.9,1.8-8,2.7-12C205.3,267.8,208.9,264.1,211.5,264z"/>
		<path class="st1" d="M156.5,286c-3.2,0.8-6-5-4.4-8.6c1.9-4.2,4-8.3,6.1-12.3c1.3-2.4,4.5-3.6,7.2-3.1c2.4,0.5,5,3.1,5.3,5.6
			c0.1,0.9-0.1,2-0.5,2.8c-1.7,3.6-3.7,7-5.4,10.5C163.3,284.4,160.5,285.7,156.5,286z"/>
		<path class="st1" d="M140.8,322.7c-3.7,0-6.5-4.5-4.9-8.3c1.9-4.3,4.1-8.5,6.3-12.7c0.4-0.9,1.4-1.6,2.3-2.1
			c2.3-1.4,5.7-1.4,6.9,0.1c1.6,2,1.7,4.4,0.7,6.7c-2,4.5-4.1,9.1-6.3,13.6C144.9,322.1,143,322.8,140.8,322.7z"/>
		<path class="st1" d="M304.2,243.1c0.1,4-5.7,8.3-9.3,7.3c-2-0.6-3.2-1.9-3.6-4c-0.6-3.2-1.3-6.4-1.9-9.7c-0.1-0.5-0.1-1,0-1.5
			c0.3-2.3,4.2-5.2,7.3-5.5c2.5-0.2,5.1,1.4,5.8,4C303.2,237,303.7,240.2,304.2,243.1z"/>
		<path class="st1" d="M173.4,249.2c-5.9,0-8.6-4.2-6.4-9.1c0.8-1.8,1.7-3.6,2.6-5.3c1.9-3.6,6-4.7,9.7-2.9c2.9,1.5,4.5,6.2,3.1,9.4
			c-0.4,0.9-0.9,1.7-1.3,2.7C179.7,248,177,249.8,173.4,249.2z"/>
		<path class="st1" d="M215.2,250.7c-4.2,0-6.8-3.4-5.9-7.6c0.4-1.8,0.7-3.7,1.1-5.5c0.2-1.1,0.5-2.3,1-3.3c1.3-2.8,4.6-4.6,6.7-4
			c3.1,0.9,5.9,5.1,5.5,8.1c-0.3,2-0.7,4-1.2,6C221.5,248.3,218.7,250.7,215.2,250.7z"/>
		<path class="st1" d="M338,249.2c-2.2,0-3.8-0.9-4.9-2.8c-1.4-2.6-2.9-5.2-4-7.9c-1.3-3,0.2-6.9,2.9-8.3c2.8-1.5,6.9-0.4,8.6,2.5
			c1.2,2.1,2.4,4.3,3.3,6.6C345.5,243.5,341.9,249.3,338,249.2z"/>
		<path class="st1" d="M248.8,111c0-4.1,0-8,0-11.8c0-0.3,0.1-0.6,0.1-1c4.3,0,8.5,0,12.9,0c0,4.3,0,8.5,0,12.9
			C257.4,111,253.2,111,248.8,111z"/>
	</g>
</g>
</svg>
