<svg width="104" height="102" viewBox="0 0 104 102" fill="none" xmlns="http://www.w3.org/2000/svg">
<ellipse cx="52.0078" cy="50.5898" rx="51" ry="50.5" transform="rotate(-0.100936 52.0078 50.5898)" fill="url(#paint0_linear_7999_6)"/>
<g clip-path="url(#clip0_7999_6)">
<path d="M52.2468 24.0891C64.2377 24.068 75.1097 32.3418 78.107 43.7779C81.6544 57.2897 74.3717 70.8606 60.996 75.5197C54.0079 77.9569 47.0966 77.5136 40.3583 74.4843C39.9893 74.3108 39.4839 74.2447 39.0743 74.3258C35.2653 75.0827 31.4701 75.8933 27.6748 76.677C26.0092 77.0283 25.1474 76.1991 25.4996 74.564C26.2851 70.8382 27.098 67.0989 27.8562 63.3597C27.9374 62.9576 27.8819 62.462 27.7037 62.1006C25.5517 57.643 24.5737 52.9155 25.1796 47.9976C26.4183 37.8804 31.7863 30.6095 41.2432 26.3459C44.7503 24.7722 48.4911 24.0957 52.2468 24.0891ZM28.9116 73.2987C29.1847 73.2714 29.3213 73.2712 29.4442 73.2441C32.7616 72.555 36.0654 71.8525 39.3966 71.2036C39.8881 71.109 40.5028 71.1883 40.9538 71.4018C49.0592 75.246 57.0483 75.0444 64.7154 70.4355C75.8888 63.744 79.3319 49.1079 72.4297 38.2816C65.0207 26.6657 50.2798 23.8782 39.066 30.8646C28.6571 37.3539 25.1025 50.7174 30.8028 61.4788C31.0221 61.9072 31.146 62.4696 31.0648 62.9387C30.7132 64.9087 30.2523 66.8656 29.8461 68.8357C29.5482 70.2965 29.2367 71.744 28.9116 73.2987Z" fill="white"/>
<path d="M60.6573 53.1735C59.8787 53.1079 59.1413 53.136 58.4445 52.9764C55.4114 52.2851 53.5629 49.5821 53.9809 46.5535C54.3856 43.6724 56.9905 41.618 60.1318 41.7196C62.9863 41.8218 65.3258 44.1756 65.5631 47.1092C65.8984 51.3824 63.9238 54.5878 60.7327 57.206C59.8326 57.9444 58.8093 58.5357 57.8272 59.1939C57.4725 59.4223 57.0903 59.5167 56.7892 59.1421C56.4607 58.7408 56.6923 58.4054 57.0195 58.0967C58.3421 56.8618 59.5142 55.5066 60.3717 53.8974C60.467 53.7231 60.5623 53.5354 60.6439 53.3611C60.6575 53.3342 60.6438 53.2539 60.6573 53.1735Z" fill="white"/>
<path d="M45.2931 53.147C44.7741 53.1479 44.3917 53.162 44.0093 53.1493C40.9909 53.034 38.6515 50.7472 38.4412 47.6796C38.2451 44.8932 40.4393 42.2635 43.3338 41.8029C46.2283 41.3423 49.2087 43.1457 49.8691 45.9446C50.6259 49.1184 49.7842 52.0003 47.8495 54.6028C46.378 56.5882 44.4413 58.0654 42.2993 59.2749C41.9309 59.4899 41.5623 59.5575 41.2748 59.1561C41.0147 58.7815 41.1917 58.4864 41.478 58.218C42.8279 56.9696 44.0136 55.601 44.8848 53.9784C45.021 53.737 45.1298 53.4956 45.2931 53.147Z" fill="white"/>
</g>
<defs>
<linearGradient id="paint0_linear_7999_6" x1="52.0078" y1="0.0897636" x2="52.0078" y2="101.09" gradientUnits="userSpaceOnUse">
<stop stop-color="#0052A3"/>
<stop offset="1" stop-color="#1173DA"/>
</linearGradient>
<clipPath id="clip0_7999_6">
<rect width="54" height="53" fill="white" transform="translate(24.9612 24.1372) rotate(-0.100936)"/>
</clipPath>
</defs>
</svg>
