<svg width="65" height="64" viewBox="0 0 65 64" fill="none" xmlns="http://www.w3.org/2000/svg">
<g clip-path="url(#clip0_2049_35)">
<path d="M31.9994 63.9999C14.2764 63.9999 -0.164671 49.5589 -0.000568224 31.6717C0.163534 14.1128 14.5499 -0.164167 32.3276 -6.41887e-05C49.8319 0.164038 64.2182 14.441 64.0541 32.2734C63.9447 49.8324 49.6131 63.9999 31.9994 63.9999ZM31.9994 61.4837C48.2456 61.4837 61.5379 48.2461 61.5926 31.9999C61.6473 15.7538 48.355 2.46147 32.0541 2.46147C15.7533 2.46147 2.46097 15.6991 2.46097 31.9999C2.51567 48.2461 15.7533 61.4837 31.9994 61.4837Z" fill="#66C275"/>
<path d="M26.9661 44.4717C22.59 40.0956 18.2139 35.6648 13.8926 31.3435C14.3849 30.8512 14.9866 30.2494 15.643 29.593C19.3627 33.3674 23.1917 37.1965 26.9661 41.0255C34.1319 33.805 41.2977 26.6392 48.4088 19.5281C49.0652 20.1845 49.6122 20.7315 50.1592 21.2785C42.5011 28.9366 34.7336 36.7041 26.9661 44.4717Z" fill="#66C275"/>
</g>
<defs>
<clipPath id="clip0_2049_35">
<rect width="64.0547" height="64" fill="white"/>
</clipPath>
</defs>
</svg>
