<?xml version="1.0" encoding="utf-8"?>
<!-- Generator: Adobe Illustrator 26.3.1, SVG Export Plug-In . SVG Version: 6.00 Build 0)  -->
<svg version="1.1" id="Layer_2_1_" xmlns="http://www.w3.org/2000/svg" xmlns:xlink="http://www.w3.org/1999/xlink" x="0px" y="0px"
	 viewBox="0 0 512 512" style="enable-background:new 0 0 512 512;" xml:space="preserve">
<style type="text/css">
	.st0{clip-path:url(#SVGID_00000047039676666612528440000009003644261420630942_);}
	.st1{fill:#FFFFFF;}
</style>
<g>
	<defs>
		<rect id="SVGID_1_" x="135.5" y="81.5" width="241" height="349"/>
	</defs>
	<clipPath id="SVGID_00000062166015011212532950000010714503979419244198_">
		<use xlink:href="#SVGID_1_"  style="overflow:visible;"/>
	</clipPath>
	<g style="clip-path:url(#SVGID_00000062166015011212532950000010714503979419244198_);">
		<path class="st1" d="M376.5,307.8c-0.9,60.9-43.7,111.5-103.3,121.3c-52,8.4-105.2-21-126.9-70.2c-14.7-33.5-13.6-67.3-1.2-101.1
			c10.1-27.6,25.2-52.7,41.1-77.1c20.7-31.8,41.8-63.2,62.7-94.8c3.7-5.6,9.1-6,12.7-0.5c26.3,40,52.9,79.9,78.7,120.4
			c13.9,21.8,25.4,44.9,31.2,70.3C373.9,286.5,374.8,297.2,376.5,307.8z M255.6,102.8c-0.9,1.2-1.5,2-2.1,2.7
			c-14.1,20.8-28.2,41.4-42.2,62.3c-16.7,25-33.3,50.1-45.8,77.5c-10.8,23.9-17.5,48.6-14.6,75.3c6.2,58.7,59.4,101.2,117.9,93.9
			c54.4-6.8,98.1-57.6,91.3-119.4c-2.5-22.3-10.6-42.7-20.8-62.4c-14.8-28.7-33.1-55.3-51.1-82.1C277.5,135,266.7,119.2,255.6,102.8
			z"/>
		<path class="st1" d="M184.3,278.8c4.6,1.2,9,2.2,13.6,3.4c-0.8,5-2,9.8-2.4,14.7c-2.1,23.4,3.8,44.2,22,60
			c18.5,16.2,45.8,18.6,68.5,6.6c4.4-2.3,8.4-5,13-7.8c3,3.5,5.9,7,8.9,10.6c-27.3,23.2-64.6,25.5-92.4,7.6
			C182.1,352.4,174.4,309,184.3,278.8z"/>
	</g>
</g>
</svg>
