<svg width="21" height="17" viewBox="0 0 21 17" fill="none" xmlns="http://www.w3.org/2000/svg">
<path d="M18.5967 4.69836C18.6227 4.80253 18.6357 4.9718 18.6357 5.20618C18.6357 7.08118 18.18 8.89107 17.2686 10.6359C16.3311 12.4848 15.016 13.9562 13.3232 15.0499C11.4743 16.2739 9.35189 16.8859 6.95605 16.8859C4.66439 16.8859 2.56803 16.2739 0.666992 15.0499C0.953451 15.076 1.27897 15.089 1.64355 15.089C3.5446 15.089 5.25033 14.5031 6.76074 13.3312C5.84928 13.3312 5.04199 13.0708 4.33887 12.5499C3.66178 12.0031 3.19303 11.326 2.93262 10.5187C3.19303 10.5447 3.44043 10.5577 3.6748 10.5577C4.03939 10.5577 4.40397 10.5187 4.76855 10.4406C3.83105 10.2322 3.0498 9.75045 2.4248 8.99524C1.7998 8.24003 1.4873 7.38066 1.4873 6.41711V6.33899C2.06022 6.67753 2.6722 6.85982 3.32324 6.88586C2.77637 6.49524 2.33366 6.00045 1.99512 5.40149C1.65658 4.80253 1.4873 4.15149 1.4873 3.44836C1.4873 2.7192 1.68262 2.02909 2.07324 1.37805C3.08887 2.65409 4.32585 3.66972 5.78418 4.42493C7.26855 5.18014 8.84408 5.5968 10.5107 5.67493C10.4587 5.36243 10.4326 5.04993 10.4326 4.73743C10.4326 4.00826 10.6149 3.33118 10.9795 2.70618C11.3441 2.05514 11.8389 1.54732 12.4639 1.18274C13.0889 0.818156 13.766 0.635864 14.4951 0.635864C15.0941 0.635864 15.641 0.753052 16.1357 0.987427C16.6566 1.2218 17.1123 1.5343 17.5029 1.92493C18.4404 1.74264 19.3128 1.41711 20.1201 0.948364C19.8076 1.91191 19.2087 2.66711 18.3232 3.21399C19.1045 3.10982 19.8857 2.88847 20.667 2.54993C20.0941 3.38326 19.404 4.09941 18.5967 4.69836Z" fill="#616161"/>
</svg>
