<svg width="28" height="26" viewBox="0 0 28 26" fill="none" xmlns="http://www.w3.org/2000/svg">
<g clip-path="url(#clip0_7655_2)">
<path d="M11.9 15.8C11.4 16.4 10.9 16.9 10.4 17.4C7.8 20.2 5.2 23 2.6 25.8C2.5 25.9 2.4 26 2.3 26C1.6 26 0.8 26 0 26C3.6 22.1 7.2 18.2 10.8 14.3C7.2 9.6 3.7 4.8 0.1 0C0.3 0 0.4 0 0.5 0C3 0 5.5 0 8 0C8.3 0 8.5 0.1 8.6 0.3C10.8 3.3 13 6.2 15.3 9.2C15.3 9.2 15.4 9.3 15.4 9.4C15.8 8.9 16.3 8.5 16.7 8C19.1 5.4 21.5 2.8 23.9 0.2C24 0.1 24.2 0 24.4 0C25.1 0 25.8 0 26.5 0.1C23.2 3.7 19.9 7.3 16.5 10.9C20.3 15.9 24 20.9 27.8 26C27.6 26 27.5 26 27.4 26C24.9 26 22.3 26 19.8 26C19.6 26 19.4 25.9 19.3 25.7C16.9 22.5 14.5 19.2 12.1 16C12 16 12 15.9 11.9 15.8ZM3.7 1.8C3.8 2 3.8 2 3.9 2.1C6.4 5.5 9 8.9 11.5 12.3C14.4 16.2 17.4 20.1 20.3 24C20.4 24.1 20.6 24.2 20.7 24.2C21.8 24.2 22.8 24.2 23.9 24.2C24 24.2 24.1 24.2 24.2 24.2C23.8 23.7 23.5 23.3 23.2 22.8C20.1 18.7 17 14.6 14 10.5C11.8 7.6 9.7 4.8 7.6 2C7.5 1.9 7.4 1.8 7.1 1.8C6.1 1.8 5 1.8 4 1.8C3.9 1.8 3.8 1.8 3.7 1.8Z" fill="#0061C1"/>
</g>
<defs>
<clipPath id="clip0_7655_2">
<rect width="27.8" height="26" fill="white"/>
</clipPath>
</defs>
</svg>
