<svg width="191" height="44" viewBox="0 0 191 44" fill="none" xmlns="http://www.w3.org/2000/svg">
<path fill-rule="evenodd" clip-rule="evenodd" d="M0 43.1136L28.1778 17.5534V4.31137H38.1864V8.46873L47.579 0H63.0537L86.6502 21.3675H71.2878L50.1196 2.23268L4.6194 43.1136H0Z" fill="#0061C1"/>
<path d="M38.407 41.6635C39.5237 41.6635 40.4487 41.4552 41.182 41.0385C41.932 40.6052 42.5237 40.0469 42.957 39.3635C43.407 38.6635 43.7154 37.8719 43.882 36.9885C44.0654 36.1052 44.157 35.2135 44.157 34.3135V25.3635H45.907V34.3135C45.907 35.5135 45.7737 36.6552 45.507 37.7385C45.2404 38.8052 44.807 39.7469 44.207 40.5635C43.6237 41.3802 42.857 42.0302 41.907 42.5135C40.957 42.9969 39.7987 43.2385 38.432 43.2385C37.0154 43.2385 35.832 42.9885 34.882 42.4885C33.932 41.9719 33.1654 41.2969 32.582 40.4635C31.9987 39.6302 31.582 38.6802 31.332 37.6135C31.082 36.5469 30.957 35.4469 30.957 34.3135V25.3635H32.682V34.3135C32.682 35.2469 32.7737 36.1552 32.957 37.0385C33.1404 37.9219 33.4487 38.7052 33.882 39.3885C34.332 40.0719 34.9237 40.6219 35.657 41.0385C36.3904 41.4552 37.307 41.6635 38.407 41.6635Z" fill="#0061C1"/>
<path d="M50.3541 43.1135V25.3635H57.7041C58.4708 25.3635 59.1708 25.5302 59.8041 25.8635C60.4541 26.1802 61.0124 26.6052 61.4791 27.1385C61.9458 27.6552 62.3041 28.2469 62.5541 28.9135C62.8208 29.5802 62.9541 30.2552 62.9541 30.9385C62.9541 31.6719 62.8291 32.3802 62.5791 33.0635C62.3458 33.7302 62.0041 34.3219 61.5541 34.8385C61.1041 35.3552 60.5624 35.7719 59.9291 36.0885C59.3124 36.4052 58.6208 36.5635 57.8541 36.5635H52.0791V43.1135H50.3541ZM52.0791 35.0135H57.7541C58.2708 35.0135 58.7374 34.9052 59.1541 34.6885C59.5874 34.4552 59.9541 34.1552 60.2541 33.7885C60.5541 33.4052 60.7874 32.9719 60.9541 32.4885C61.1208 31.9885 61.2041 31.4719 61.2041 30.9385C61.2041 30.3885 61.1041 29.8719 60.9041 29.3885C60.7208 28.8885 60.4624 28.4552 60.1291 28.0885C59.8124 27.7219 59.4291 27.4385 58.9791 27.2385C58.5458 27.0219 58.0874 26.9135 57.6041 26.9135H52.0791V35.0135Z" fill="#0061C1"/>
<path d="M66.1314 43.1135V25.3885H67.8564V35.6885L77.6314 25.3635H79.5564L72.3064 33.1635L79.9564 43.1135H78.0314L71.2314 34.1885L67.8564 37.6635V43.1135H66.1314Z" fill="#0061C1"/>
<path d="M94.3221 41.5635V43.1135H82.3971V25.3635H94.0971V26.9135H84.1221V33.3135H92.8221V34.7885H84.1221V41.5635H94.3221Z" fill="#0061C1"/>
<path d="M109.904 41.5635V43.1135H97.9791V25.3635H109.679V26.9135H99.7041V33.3135H108.404V34.7885H99.7041V41.5635H109.904Z" fill="#0061C1"/>
<path d="M113.561 43.1135V25.3635H120.911C121.678 25.3635 122.378 25.5302 123.011 25.8635C123.661 26.1802 124.219 26.6052 124.686 27.1385C125.153 27.6552 125.511 28.2469 125.761 28.9135C126.028 29.5802 126.161 30.2552 126.161 30.9385C126.161 31.6719 126.036 32.3802 125.786 33.0635C125.553 33.7302 125.211 34.3219 124.761 34.8385C124.311 35.3552 123.769 35.7719 123.136 36.0885C122.519 36.4052 121.828 36.5635 121.061 36.5635H115.286V43.1135H113.561ZM115.286 35.0135H120.961C121.478 35.0135 121.944 34.9052 122.361 34.6885C122.794 34.4552 123.161 34.1552 123.461 33.7885C123.761 33.4052 123.994 32.9719 124.161 32.4885C124.328 31.9885 124.411 31.4719 124.411 30.9385C124.411 30.3885 124.311 29.8719 124.111 29.3885C123.928 28.8885 123.669 28.4552 123.336 28.0885C123.019 27.7219 122.636 27.4385 122.186 27.2385C121.753 27.0219 121.294 26.9135 120.811 26.9135H115.286V35.0135Z" fill="#0061C1"/>
<path d="M127.463 43.1135L134.888 25.3635H136.313L143.738 43.1135H141.863L139.563 37.5635H131.588L129.313 43.1135H127.463ZM135.613 27.4135L131.963 36.1885H139.163L135.613 27.4135Z" fill="#6FB5FF"/>
<path d="M159.881 38.5385C159.881 39.2052 159.748 39.8219 159.481 40.3885C159.215 40.9385 158.856 41.4219 158.406 41.8385C157.956 42.2385 157.431 42.5552 156.831 42.7885C156.231 43.0052 155.59 43.1135 154.906 43.1135H146.556V25.3635H155.081C155.698 25.3635 156.256 25.4969 156.756 25.7635C157.256 26.0302 157.681 26.3802 158.031 26.8135C158.381 27.2302 158.648 27.7135 158.831 28.2635C159.031 28.7969 159.131 29.3385 159.131 29.8885C159.131 30.7885 158.906 31.6135 158.456 32.3635C158.006 33.0969 157.381 33.6469 156.581 34.0135C157.598 34.3135 158.398 34.8719 158.981 35.6885C159.581 36.5052 159.881 37.4552 159.881 38.5385ZM158.131 38.2385C158.131 37.8052 158.056 37.3885 157.906 36.9885C157.756 36.5719 157.54 36.2135 157.256 35.9135C156.99 35.5969 156.665 35.3469 156.281 35.1635C155.915 34.9635 155.515 34.8635 155.081 34.8635H148.281V41.5885H154.906C155.356 41.5885 155.781 41.4969 156.181 41.3135C156.581 41.1302 156.923 40.8885 157.206 40.5885C157.49 40.2719 157.715 39.9135 157.881 39.5135C158.048 39.0969 158.131 38.6719 158.131 38.2385ZM148.281 26.8885V33.4385H154.381C154.815 33.4385 155.215 33.3469 155.581 33.1635C155.965 32.9802 156.29 32.7385 156.556 32.4385C156.84 32.1385 157.056 31.7969 157.206 31.4135C157.356 31.0135 157.431 30.5969 157.431 30.1635C157.431 29.7135 157.356 29.2885 157.206 28.8885C157.073 28.4885 156.873 28.1469 156.606 27.8635C156.356 27.5635 156.048 27.3302 155.681 27.1635C155.331 26.9802 154.948 26.8885 154.531 26.8885H148.281Z" fill="#6FB5FF"/>
<path d="M163.505 43.1135V25.3635H165.23V41.5635H175.505V43.1135H163.505Z" fill="#6FB5FF"/>
<path d="M190.427 41.5635V43.1135H178.502V25.3635H190.202V26.9135H180.227V33.3135H188.927V34.7885H180.227V41.5635H190.427Z" fill="#6FB5FF"/>
</svg>
