<svg width="207" height="47" viewBox="0 0 207 47" fill="none" xmlns="http://www.w3.org/2000/svg">
<path fill-rule="evenodd" clip-rule="evenodd" d="M0.606477 46.8702L31.0027 19.1999L30.9775 4.89245L41.7914 4.8734L41.7993 9.36526L51.9315 0.19728L68.6512 0.167825L94.1867 23.2095L77.5883 23.2387L54.6807 2.60476L5.59754 46.8614L0.606477 46.8702Z" fill="white"/>
<path d="M42.1009 45.2303C43.3075 45.2282 44.3065 45.0014 45.098 44.5498C45.9075 44.0801 46.5457 43.4758 47.0126 42.7366C47.4975 41.9794 47.8292 41.1235 48.0075 40.1688C48.2039 39.214 48.3013 38.2504 48.2996 37.278L48.2825 27.6079L50.1733 27.6046L50.1904 37.2747C50.1927 38.5712 50.0508 39.805 49.7647 40.976C49.4786 42.129 49.0122 43.1473 48.3655 44.0308C47.7368 44.9143 46.9097 45.618 45.8842 46.1421C44.8586 46.6661 43.6076 46.9294 42.1309 46.932C40.6003 46.9347 39.3213 46.6668 38.2939 46.1284C37.2665 45.572 36.4368 44.8441 35.805 43.9449C35.1731 43.0456 34.7211 42.02 34.449 40.8679C34.1769 39.7159 34.0397 38.5277 34.0375 37.3031L34.0205 27.6331L35.8843 27.6298L35.9013 37.2999C35.9031 38.3083 36.0039 39.2895 36.2036 40.2436C36.4034 41.1976 36.738 42.0434 37.2075 42.7809C37.695 43.5184 38.3354 44.1115 39.1285 44.5603C39.9216 45.0091 40.9124 45.2324 42.1009 45.2303Z" fill="white"/>
<path d="M55.012 46.7743L54.9782 27.5961L62.9196 27.5821C63.7479 27.5807 64.5046 27.7594 65.1895 28.1184C65.8924 28.4593 66.4965 28.9174 67.0017 29.4928C67.5069 30.0501 67.8952 30.6887 68.1666 31.4085C68.4559 32.1283 68.6013 32.8574 68.6026 33.5957C68.604 34.388 68.4703 35.1536 68.2015 35.8924C67.9506 36.6131 67.5826 37.2531 67.0974 37.8122C66.6121 38.3712 66.0277 38.8225 65.344 39.1658C64.6783 39.5091 63.9313 39.6815 63.103 39.683L56.8633 39.694L56.8758 46.771L55.012 46.7743ZM56.8604 38.0193L62.992 38.0085C63.5502 38.0075 64.0542 37.8895 64.504 37.6547C64.9717 37.4017 65.3673 37.0769 65.6908 36.6801C66.0142 36.2654 66.2655 35.7968 66.4446 35.2742C66.6238 34.7337 66.7128 34.1753 66.7118 33.599C66.7107 33.0048 66.6017 32.4467 66.3847 31.9249C66.1857 31.385 65.9057 30.9173 65.5449 30.5218C65.202 30.1262 64.7873 29.8208 64.3007 29.6056C63.8321 29.3723 63.3367 29.2561 62.8145 29.257L56.845 29.2676L56.8604 38.0193Z" fill="white"/>
<path d="M72.0587 46.7442L72.025 27.5931L73.8888 27.5898L73.9084 38.7185L84.4502 27.5442L86.5301 27.5406L78.7116 35.9819L86.9961 46.7179L84.9162 46.7216L77.5521 37.0914L73.9122 40.8524L73.9225 46.7409L72.0587 46.7442Z" fill="white"/>
<path d="M102.515 45.0159L102.518 46.6906L89.6331 46.7133L89.5993 27.5351L102.241 27.5129L102.244 29.1876L91.466 29.2066L91.4782 36.1215L100.878 36.1049L100.881 37.6986L91.481 37.7152L91.4939 45.0353L102.515 45.0159Z" fill="white"/>
<path d="M119.35 44.9862L119.353 46.6609L106.469 46.6836L106.435 27.5055L119.076 27.4832L119.079 29.1579L108.302 29.1769L108.314 36.0918L117.714 36.0753L117.717 37.669L108.317 37.6855L108.33 45.0056L119.35 44.9862Z" fill="white"/>
<path d="M123.304 46.6539L123.271 27.4758L131.212 27.4618C132.04 27.4604 132.797 27.6391 133.482 27.9981C134.185 28.339 134.789 28.7971 135.294 29.3725C135.799 29.9298 136.188 30.5684 136.459 31.2882C136.748 32.008 136.894 32.7371 136.895 33.4754C136.896 34.2677 136.763 35.0333 136.494 35.7721C136.243 36.4928 135.875 37.1328 135.39 37.6918C134.905 38.2509 134.32 38.7022 133.637 39.0455C132.971 39.3888 132.224 39.5612 131.395 39.5627L125.156 39.5737L125.168 46.6507L123.304 46.6539ZM125.153 37.899L131.284 37.8882C131.843 37.8872 132.347 37.7692 132.796 37.5343C133.264 37.2814 133.66 36.9566 133.983 36.5598C134.307 36.1451 134.558 35.6764 134.737 35.1539C134.916 34.6134 135.005 34.055 135.004 33.4787C135.003 32.8845 134.894 32.3264 134.677 31.8046C134.478 31.2647 134.198 30.797 133.837 30.4015C133.495 30.0059 133.08 29.7005 132.593 29.4853C132.125 29.252 131.629 29.1358 131.107 29.1367L125.137 29.1473L125.153 37.899Z" fill="white"/>
<path d="M138.325 46.6275L146.314 27.4352L147.854 27.4325L155.91 46.5965L153.884 46.6001L151.388 40.6079L142.772 40.6231L140.324 46.624L138.325 46.6275ZM147.101 29.6488L143.174 39.1368L150.954 39.123L147.101 29.6488Z" fill="white"/>
<path d="M173.343 41.6227C173.344 42.343 173.201 43.0095 172.914 43.6223C172.627 44.2171 172.241 44.74 171.755 45.191C171.27 45.624 170.703 45.9672 170.055 46.2204C169.408 46.4557 168.714 46.5739 167.976 46.5752L158.954 46.5911L158.921 27.413L168.131 27.3968C168.798 27.3956 169.401 27.5386 169.942 27.8258C170.483 28.113 170.943 28.4903 171.322 28.9578C171.7 29.4074 171.99 29.9291 172.189 30.523C172.406 31.0988 172.515 31.6839 172.516 32.2782C172.518 33.2506 172.276 34.1424 171.791 34.9536C171.306 35.7468 170.632 36.3422 169.769 36.7399C170.868 37.0621 171.733 37.6638 172.365 38.5451C173.015 39.4263 173.341 40.4522 173.343 41.6227ZM171.451 41.3019C171.451 40.8337 171.369 40.3836 171.206 39.9517C171.043 39.5018 170.808 39.1151 170.501 38.7915C170.213 38.4498 169.861 38.1804 169.447 37.983C169.05 37.7676 168.618 37.6603 168.15 37.6611L160.802 37.6741L160.815 44.9402L167.973 44.9276C168.459 44.9267 168.918 44.8268 169.35 44.628C169.782 44.4292 170.151 44.1674 170.456 43.8427C170.762 43.5 171.004 43.1124 171.184 42.6799C171.363 42.2294 171.452 41.7701 171.451 41.3019ZM160.787 29.0574L160.8 36.1344L167.39 36.1228C167.859 36.122 168.291 36.0222 168.687 35.8234C169.1 35.6246 169.451 35.3629 169.739 35.0382C170.044 34.7136 170.278 34.344 170.439 33.9295C170.6 33.4971 170.68 33.0467 170.68 32.5785C170.679 32.0923 170.597 31.6333 170.434 31.2014C170.289 30.7694 170.073 30.4007 169.784 30.095C169.513 29.7714 169.18 29.5199 168.783 29.3405C168.405 29.1431 167.99 29.0447 167.54 29.0455L160.787 29.0574Z" fill="white"/>
<path d="M177.267 46.5589L177.233 27.3808L179.097 27.3775L179.128 44.8809L190.23 44.8613L190.233 46.536L177.267 46.5589Z" fill="white"/>
<path d="M206.351 44.8329L206.354 46.5076L193.47 46.5303L193.436 27.3522L206.077 27.33L206.08 29.0047L195.303 29.0236L195.315 35.9386L204.715 35.922L204.718 37.5157L195.318 37.5322L195.331 44.8523L206.351 44.8329Z" fill="white"/>
</svg>
