<svg width="162" height="38" viewBox="0 0 162 38" fill="none" xmlns="http://www.w3.org/2000/svg">
<path fill-rule="evenodd" clip-rule="evenodd" d="M0.0641915 37.438L23.8409 15.7935L23.8212 4.60185L32.2801 4.58695L32.2863 8.1006L40.2119 0.92916L53.2906 0.90612L73.2651 18.9299L60.2814 18.9528L42.3625 2.81235L3.96833 37.4311L0.0641915 37.438Z" fill="white"/>
<path d="M32.5219 36.1552C33.4657 36.1535 34.2471 35.9761 34.8663 35.6228C35.4995 35.2555 35.9987 34.7827 36.364 34.2045C36.7432 33.6123 37.0027 32.9427 37.1422 32.1959C37.2958 31.4491 37.372 30.6953 37.3706 29.9347L37.3573 22.3705L38.8363 22.3679L38.8497 29.9321C38.8515 30.9463 38.7405 31.9114 38.5167 32.8274C38.2929 33.7293 37.9281 34.5258 37.4222 35.2169C36.9304 35.908 36.2834 36.4585 35.4812 36.8684C34.679 37.2783 33.7004 37.4842 32.5454 37.4863C31.3481 37.4884 30.3476 37.2789 29.5439 36.8577C28.7403 36.4224 28.0913 35.8531 27.597 35.1497C27.1028 34.4462 26.7492 33.6439 26.5363 32.7428C26.3235 31.8417 26.2162 30.9122 26.2145 29.9543L26.2012 22.3901L27.6591 22.3876L27.6724 29.9518C27.6738 30.7406 27.7526 31.5081 27.9089 32.2544C28.0651 33.0007 28.3269 33.6623 28.6942 34.2392C29.0755 34.816 29.5764 35.28 30.1968 35.6311C30.8172 35.9821 31.5922 36.1568 32.5219 36.1552Z" fill="white"/>
<path d="M42.6213 37.3629L42.5948 22.3613L48.8068 22.3503C49.4547 22.3492 50.0466 22.489 50.5824 22.7698C51.1322 23.0364 51.6047 23.3948 51.9999 23.8449C52.3951 24.2808 52.6988 24.7803 52.9111 25.3434C53.1375 25.9065 53.2512 26.4767 53.2522 27.0543C53.2533 27.6741 53.1487 28.2729 52.9384 28.8508C52.7422 29.4146 52.4543 29.9152 52.0748 30.3525C51.6952 30.7898 51.238 31.1428 50.7032 31.4114C50.1825 31.6799 49.5982 31.8148 48.9502 31.8159L44.0694 31.8245L44.0792 37.3603L42.6213 37.3629ZM44.0671 30.5145L48.8634 30.5061C49.3001 30.5053 49.6943 30.413 50.0461 30.2293C50.412 30.0314 50.7215 29.7773 50.9745 29.467C51.2275 29.1426 51.424 28.776 51.5642 28.3673C51.7043 27.9444 51.7739 27.5076 51.7731 27.0569C51.7723 26.592 51.687 26.1555 51.5173 25.7473C51.3616 25.325 51.1426 24.9592 50.8604 24.6498C50.5922 24.3403 50.2678 24.1015 49.8872 23.9331C49.5206 23.7506 49.1331 23.6597 48.7246 23.6605L44.0551 23.6687L44.0671 30.5145Z" fill="white"/>
<path d="M55.9557 37.3394L55.9293 22.3589L57.3872 22.3563L57.4025 31.0615L65.6486 22.3206L67.2756 22.3178L61.1597 28.9208L67.64 37.3188L66.0131 37.3217L60.2527 29.7887L57.4055 32.7307L57.4136 37.3368L55.9557 37.3394Z" fill="white"/>
<path d="M79.779 35.9874L79.7813 37.2974L69.7028 37.3152L69.6763 22.3135L79.5647 22.2961L79.567 23.6061L71.1366 23.621L71.1461 29.03L78.499 29.0171L78.5012 30.2637L71.1483 30.2766L71.1584 36.0026L79.779 35.9874Z" fill="white"/>
<path d="M92.9484 35.9642L92.9507 37.2742L82.8721 37.292L82.8457 22.2903L92.7341 22.2729L92.7364 23.5829L84.3059 23.5978L84.3154 29.0068L91.6683 28.9939L91.6705 30.2405L84.3176 30.2534L84.3277 35.9794L92.9484 35.9642Z" fill="white"/>
<path d="M96.0414 37.2688L96.015 22.2671L102.227 22.2562C102.875 22.2551 103.467 22.3949 104.003 22.6757C104.552 22.9423 105.025 23.3007 105.42 23.7507C105.815 24.1867 106.119 24.6862 106.331 25.2493C106.558 25.8124 106.671 26.3826 106.672 26.9602C106.673 27.58 106.569 28.1788 106.359 28.7567C106.162 29.3205 105.875 29.821 105.495 30.2584C105.115 30.6957 104.658 31.0487 104.123 31.3173C103.603 31.5858 103.018 31.7207 102.37 31.7218L97.4896 31.7304L97.4994 37.2662L96.0414 37.2688ZM97.4873 30.4204L102.284 30.4119C102.72 30.4112 103.115 30.3189 103.466 30.1352C103.832 29.9373 104.142 29.6832 104.395 29.3729C104.648 29.0485 104.844 28.6819 104.984 28.2731C105.124 27.8503 105.194 27.4135 105.193 26.9628C105.193 26.4979 105.107 26.0614 104.937 25.6532C104.782 25.2309 104.563 24.8651 104.281 24.5557C104.012 24.2462 103.688 24.0073 103.307 23.839C102.941 23.6565 102.553 23.5656 102.145 23.5664L97.4752 23.5746L97.4873 30.4204Z" fill="white"/>
<path d="M107.791 37.2481L114.04 22.2354L115.244 22.2333L121.546 37.2238L119.962 37.2266L118.009 32.5394L111.269 32.5513L109.355 37.2453L107.791 37.2481ZM114.656 23.9669L111.584 31.3886L117.669 31.3779L114.656 23.9669Z" fill="white"/>
<path d="M135.183 33.3332C135.184 33.8966 135.072 34.418 134.847 34.8973C134.623 35.3626 134.321 35.7716 133.941 36.1244C133.561 36.4632 133.118 36.7316 132.611 36.9297C132.104 37.1137 131.562 37.2062 130.985 37.2072L123.928 37.2196L123.901 22.218L131.106 22.2053C131.627 22.2044 132.1 22.3163 132.522 22.5409C132.945 22.7655 133.305 23.0607 133.602 23.4264C133.898 23.7781 134.124 24.1861 134.28 24.6507C134.45 25.1012 134.535 25.5588 134.536 26.0237C134.537 26.7843 134.348 27.4819 133.969 28.1164C133.59 28.7369 133.062 29.2027 132.387 29.5137C133.247 29.7658 133.924 30.2365 134.418 30.9258C134.926 31.6151 135.181 32.4176 135.183 33.3332ZM133.703 33.0822C133.703 32.716 133.639 32.364 133.511 32.0261C133.384 31.6742 133.2 31.3717 132.96 31.1185C132.734 30.8513 132.459 30.6405 132.135 30.4861C131.825 30.3176 131.487 30.2337 131.12 30.2344L125.373 30.2445L125.383 35.9282L130.983 35.9183C131.363 35.9177 131.722 35.8396 132.06 35.684C132.397 35.5285 132.686 35.3237 132.925 35.0698C133.164 34.8017 133.354 34.4985 133.494 34.1602C133.634 33.8078 133.704 33.4485 133.703 33.0822ZM125.361 23.5043L125.371 29.0401L130.527 29.0311C130.893 29.0304 131.231 28.9523 131.54 28.7968C131.864 28.6413 132.138 28.4366 132.363 28.1827C132.602 27.9287 132.785 27.6396 132.911 27.3154C133.037 26.9771 133.1 26.6248 133.1 26.2586C133.099 25.8783 133.035 25.5192 132.907 25.1814C132.794 24.8435 132.625 24.555 132.399 24.316C132.187 24.0628 131.926 23.866 131.616 23.7257C131.32 23.5713 130.996 23.4944 130.644 23.495L125.361 23.5043Z" fill="white"/>
<path d="M138.253 37.1944L138.226 22.1928L139.684 22.1902L139.708 35.8818L148.392 35.8665L148.394 37.1765L138.253 37.1944Z" fill="white"/>
<path d="M161.003 35.8443L161.005 37.1543L150.927 37.1721L150.9 22.1705L160.789 22.153L160.791 23.463L152.36 23.4779L152.37 28.8869L159.723 28.874L159.725 30.1206L152.372 30.1335L152.382 35.8595L161.003 35.8443Z" fill="white"/>
</svg>
