<svg width="171" height="171" viewBox="0 0 171 171" fill="none" xmlns="http://www.w3.org/2000/svg">
<circle r="84.805" transform="matrix(-1 0 0 1 85.6955 85.5665)" stroke="#C6C6C6" stroke-dasharray="2 2"/>
<g clip-path="url(#clip0_296_1032)">
<path d="M125.047 92.022C124.627 91.5664 123.972 91.3327 123.096 91.3327C122.477 91.3327 121.857 91.3327 121.215 91.3327H120.42V71.2479C120.42 66.6094 120.42 61.819 120.42 57.0987C120.42 54.2595 118.714 51.8876 116.097 51.058C115.63 50.9062 115.396 50.8361 115.291 50.6958C115.186 50.5556 115.186 50.2986 115.186 49.7845V49.7378C115.186 49.691 115.186 49.656 115.186 49.6092C115.151 47.8683 114.076 46.3611 112.487 45.8587C111.903 45.6717 111.213 45.5783 110.325 45.5783C94.8325 45.5666 79.3279 45.5666 63.4845 45.5666C62.8302 45.5666 62.1759 45.5666 61.5216 45.5666C59.2549 45.5666 56.9064 45.5549 54.6047 45.625C52.8287 45.6717 51.263 47.0855 50.9476 48.9082C50.8775 49.3522 50.8424 49.8079 50.8191 50.2752C50.8074 50.4739 50.7957 50.6725 50.784 50.8711L50.6672 50.9062C50.5386 50.9412 50.4218 50.9763 50.2933 51.0113C47.6527 51.7357 45.8066 54.1426 45.8066 56.8533V60.0664C45.8066 79.5319 45.8066 99.6633 45.83 119.468C45.83 120.274 46.017 121.162 46.3558 121.886C47.4774 124.328 49.4637 125.567 52.2912 125.567C63.6831 125.567 75.0749 125.567 86.4668 125.567H104.39C108.83 125.567 113.422 125.567 117.943 125.567C119.906 125.567 121.11 124.55 121.402 122.646C121.834 119.853 122.255 117.002 122.664 114.245C122.816 113.193 122.967 112.153 123.131 111.102L123.54 108.356C124.007 105.166 124.498 101.883 124.977 98.6352C125.024 98.2963 125.082 97.9575 125.129 97.6186C125.316 96.4035 125.503 95.1416 125.596 93.8915C125.631 93.0853 125.456 92.466 125.047 92.022ZM113.422 50.5206C113.41 50.5907 113.281 50.7075 113.141 50.7776C113.094 50.801 113.013 50.7893 112.931 50.7893C112.884 50.7893 112.837 50.7776 112.791 50.7776H52.6768C52.6768 50.6257 52.6651 50.4739 52.6651 50.3336C52.6534 49.9598 52.6418 49.6092 52.6885 49.2704C52.8521 48.1604 53.8802 47.3425 55.1304 47.3425C59.2782 47.3425 63.4845 47.3425 67.5622 47.3425H70.6701C83.9898 47.3425 97.3095 47.3425 110.629 47.3425C111.599 47.3425 112.37 47.6463 112.873 48.2072C113.363 48.768 113.55 49.5742 113.422 50.5206ZM58.0164 122.47V123.767C58.0047 123.767 58.0047 123.767 57.993 123.767C57.8762 123.779 57.7476 123.779 57.6191 123.791H56.4975C55.0837 123.791 53.6232 123.791 52.1861 123.791C49.452 123.779 47.5943 121.91 47.5826 119.152C47.5709 116.523 47.5709 113.836 47.5709 111.254C47.5709 110.191 47.5709 109.127 47.5709 108.052V96.8475C47.5709 83.9951 47.5709 70.7105 47.5592 57.6361C47.5592 55.755 48.05 54.5165 49.1366 53.5935C49.9544 52.9041 50.9593 52.5653 52.1861 52.5653H52.1978C58.3435 52.577 64.5944 52.577 70.635 52.577C72.668 52.577 74.701 52.577 76.7341 52.577H85.8125C95.2297 52.577 104.647 52.577 114.064 52.577C116.319 52.577 118.06 53.944 118.516 56.0471C118.586 56.3976 118.598 56.7598 118.598 57.0052C118.598 66.9015 118.598 76.7978 118.598 86.6941V91.3093H103.619V90.7251V85.5958C103.619 81.226 103.619 76.8562 103.619 72.4981C103.619 68.7242 100.99 66.0836 97.216 66.0836C87.2262 66.0836 78.0076 66.0836 69.0577 66.0836C65.459 66.0836 62.7367 68.806 62.7367 72.4047V77.4989C62.7367 89.066 62.7367 101.019 62.7367 112.784C62.7367 114.023 62.7367 115.308 63.3676 116.582C63.3442 116.582 63.3209 116.582 63.2975 116.593C63.1573 116.605 63.0405 116.628 62.9236 116.628C62.5264 116.628 62.1291 116.628 61.7319 116.628C61.4281 116.628 61.1243 116.628 60.8205 116.628C59.0095 116.64 58.0164 117.645 58.0164 119.468C58.0164 120.449 58.0164 121.454 58.0164 122.47ZM101.878 90.7835C101.878 91.0289 101.843 91.1808 101.773 91.2509C101.691 91.321 101.551 91.356 101.317 91.3444C100.254 91.321 99.1789 91.321 98.139 91.3327C97.8119 91.3327 97.4847 91.3327 97.1693 91.3327C96.2346 91.3327 95.5452 91.5897 95.1129 92.0804C94.6806 92.5829 94.5404 93.3189 94.6806 94.277C95.3115 98.4482 95.9425 102.689 96.55 106.791C96.8188 108.625 97.0992 110.448 97.3679 112.282C97.5081 113.24 97.66 114.198 97.8002 115.18L98.0105 116.558C97.9638 116.558 97.9287 116.57 97.882 116.57C97.7301 116.593 97.5782 116.605 97.438 116.605C94.6222 116.605 91.8063 116.605 88.9788 116.605C81.4894 116.605 73.743 116.605 66.125 116.617C65.6109 116.617 65.3305 116.453 65.0852 115.986C64.7113 115.285 64.536 114.502 64.536 113.509C64.5477 107.468 64.5477 101.334 64.536 95.387V89.0894C64.536 87.5821 64.536 86.0749 64.536 84.5677C64.536 80.5367 64.536 76.3655 64.5477 72.2761C64.5477 70.0679 66.0082 68.3269 68.158 67.9531C68.5086 67.8946 68.8708 67.883 69.268 67.883C69.4316 67.883 69.5952 67.883 69.7587 67.8713V68.5723C69.7587 69.1448 69.7587 69.6823 69.7587 70.2314C69.7704 71.949 70.7402 72.9304 72.4344 72.9304H79.4097C84.0599 72.9304 88.7101 72.9304 93.3486 72.9304C95.1947 72.9304 96.1294 71.984 96.1411 70.1146C96.1411 69.5888 96.1411 69.063 96.1411 68.5489V67.9647C97.8119 67.696 99.249 68.0348 100.312 68.9345C101.317 69.7874 101.89 71.1077 101.878 72.5565C101.843 78.3985 101.855 84.0302 101.878 90.7835ZM94.295 70.6521C94.2833 70.8857 94.1782 71.1428 93.5122 71.1428H93.5005C92.3204 71.1428 91.1404 71.1428 89.9603 71.1428C89.2826 71.1428 88.6166 71.1428 87.9506 71.1428H83.3705C79.7602 71.1428 76.1499 71.1428 72.5395 71.1428C71.71 71.1428 71.5581 70.9909 71.5464 70.1613C71.5347 69.6239 71.5464 69.0981 71.5464 68.5489C71.5464 68.3386 71.5464 68.14 71.5464 67.9297H94.3184C94.3184 68.1751 94.3184 68.4204 94.3301 68.6658C94.3301 69.3084 94.3418 69.9861 94.295 70.6521ZM61.0075 118.393C67.2467 118.393 73.4976 118.393 79.7368 118.393C80.4262 118.393 81.1155 118.393 81.8049 118.393H89.6916C90.3926 118.393 91.0936 118.393 91.7947 118.393C93.7108 118.393 95.6854 118.404 97.6366 118.369C98.1975 118.358 98.3143 118.556 98.3727 119.035C98.5246 120.286 98.7116 121.524 98.8751 122.564C98.9219 122.868 99.0037 123.16 99.0854 123.475C99.1088 123.58 99.1439 123.686 99.1672 123.802H90.4393C80.5898 123.802 70.7519 123.802 60.9023 123.802C60.0026 123.802 59.7806 123.58 59.7806 122.669C59.7806 121.653 59.7806 120.648 59.7806 119.631C59.804 118.568 59.9793 118.393 61.0075 118.393ZM98.3961 107.129C98.326 106.685 98.4078 106.534 98.8167 106.428C100.055 106.078 101.118 106.195 102.088 106.802C104.098 108.064 106.119 108.064 108.269 106.814C109.718 105.973 111.073 106.008 112.429 106.907C114.169 108.076 116.086 108.087 118.119 106.966C118.82 106.58 119.673 106.195 120.654 106.218H120.701C120.829 106.218 120.934 106.23 121.051 106.241C121.495 106.3 121.752 106.358 121.857 106.498C121.963 106.639 121.951 106.896 121.881 107.316C121.063 112.936 120.327 117.867 119.661 122.377C119.521 123.335 118.96 123.791 117.967 123.791C116.109 123.791 114.24 123.791 112.382 123.791H110.15C107.545 123.791 104.939 123.791 102.322 123.791C101.317 123.791 100.826 123.382 100.686 122.412C100.312 119.993 99.9501 117.528 99.5995 115.145C99.4593 114.198 99.3191 113.263 99.1789 112.317C99.1088 111.85 99.0387 111.382 98.9686 110.915C98.7817 109.676 98.5947 108.391 98.3961 107.129ZM116.997 105.529C115.758 106.218 114.485 106.16 113.316 105.353C112.358 104.699 111.365 104.372 110.349 104.372C109.426 104.372 108.479 104.641 107.521 105.19C105.85 106.148 104.355 106.136 102.824 105.155C101.668 104.419 100.289 104.232 98.7349 104.594C98.5714 104.629 98.4195 104.664 98.2325 104.711L98.0689 104.746C98.0339 104.489 97.9872 104.243 97.9521 103.998C97.8586 103.391 97.7652 102.795 97.6717 102.199C97.4964 100.984 97.3095 99.7685 97.1342 98.5534C96.9122 97.0228 96.6786 95.4805 96.4566 93.9499C96.4098 93.611 96.3865 93.3657 96.4799 93.2605C96.5617 93.1671 96.737 93.132 97.1109 93.132C99.0971 93.132 101.083 93.132 103.07 93.132C109.613 93.132 116.378 93.132 123.038 93.1203C123.038 93.1203 123.038 93.1203 123.049 93.1203C123.411 93.1203 123.645 93.1787 123.75 93.3073C123.867 93.4358 123.89 93.6695 123.832 94.055C123.446 96.8125 123.026 99.6166 122.629 102.339L122.325 104.384C122.313 104.454 122.29 104.536 122.255 104.629C122.255 104.641 122.243 104.664 122.243 104.676C120.584 104.173 118.96 104.442 116.997 105.529Z" fill="#3195E7"/>
<path d="M110.98 65.9549C111.003 65.9549 111.015 65.9549 111.038 65.9549C114.029 65.9549 116.378 63.6181 116.413 60.6153C116.448 57.6593 114.076 55.229 111.12 55.194C111.097 55.194 111.085 55.194 111.062 55.194C108.094 55.194 105.664 57.5541 105.629 60.4751C105.617 61.9473 106.154 63.326 107.159 64.3542C108.164 65.3707 109.519 65.9432 110.98 65.9549ZM111.027 56.9699C111.038 56.9699 111.038 56.9699 111.027 56.9699C112.954 56.9699 114.602 58.6057 114.625 60.5219C114.637 61.4916 114.275 62.403 113.585 63.0923C112.908 63.7934 111.996 64.1789 111.027 64.1789C111.015 64.1789 111.015 64.1789 111.003 64.1789C109.064 64.1789 107.416 62.5432 107.405 60.592C107.393 59.6222 107.767 58.7225 108.456 58.0332C109.157 57.3555 110.069 56.9699 111.027 56.9699Z" fill="#3195E7"/>
<path d="M86.7706 80.7584C85.7541 79.3447 84.4922 77.4285 83.8847 75.1735C83.7445 74.6594 83.4056 74.3907 82.8915 74.3907C82.3775 74.3907 82.0269 74.6477 81.8867 75.1618C81.2675 77.4402 79.9939 79.3797 78.8256 80.9687C78.1829 81.845 77.3651 83.0251 76.7458 84.2987C75.4139 87.0327 75.8462 89.907 77.8675 91.7998C79.1644 93.0149 80.7651 93.6225 82.6345 93.6225C82.6812 93.6225 82.728 93.6225 82.7747 93.6225C85.4153 93.6458 87.6235 92.5709 88.827 90.6547C90.007 88.7853 90.0304 86.3901 88.8971 84.1117C88.3362 82.9667 87.6002 81.9152 86.7706 80.7584ZM84.1534 91.7647C82.5527 92.0334 81.1857 91.8465 79.9823 91.1688C77.9843 90.0589 77.2599 87.8973 78.1245 85.6774C78.5451 84.5791 79.2228 83.5392 79.7486 82.7681C79.9589 82.4526 80.1809 82.1371 80.4029 81.8334C81.3025 80.5598 82.2256 79.2395 82.8565 77.7557C82.9383 77.9076 83.0084 78.0594 83.0785 78.1997C83.2771 78.6203 83.4874 79.0409 83.7445 79.4382C84.2819 80.256 84.8428 81.0622 85.3802 81.8567C85.7074 82.3241 86.0462 82.8148 86.3733 83.2939C87.1562 84.4506 87.717 85.4671 87.8806 86.6705C88.2428 89.1826 86.6771 91.3324 84.1534 91.7647Z" fill="#3195E7"/>
<path d="M86.8524 102.082L86.6655 101.813C85.6256 100.352 84.4806 98.5648 83.8964 96.4266C83.7445 95.8658 83.429 95.6088 82.8916 95.5971H82.8799C82.3424 95.5971 82.0036 95.8541 81.8634 96.3916C81.2675 98.5765 80.0874 100.411 79.0008 101.918C78.1596 103.086 77.3534 104.243 76.7458 105.482C75.3555 108.333 75.9163 111.394 78.1713 113.263C79.9122 114.712 81.7349 114.829 82.2606 114.829C82.3191 114.829 82.3775 114.829 82.4359 114.829C85.24 114.829 87.5651 113.719 88.8036 111.779C89.972 109.957 90.0304 107.632 88.9555 105.412C88.3947 104.232 87.6119 103.145 86.8524 102.082ZM84.5156 112.854C83.4641 113.123 82.3892 113.123 81.3376 112.878C79.9706 112.55 78.884 111.768 78.2881 110.681C77.6922 109.583 77.6221 108.239 78.0895 106.884C78.2998 106.288 78.5919 105.68 78.9658 105.084C79.4215 104.372 79.9239 103.671 80.4146 102.993C81.3026 101.766 82.2139 100.493 82.8682 99.0555C83.5342 100.516 84.4572 101.801 85.3569 103.04C85.7775 103.624 86.2098 104.22 86.6071 104.839C87.1211 105.61 87.717 106.662 87.8806 107.877C88.2194 110.26 86.8641 112.27 84.5156 112.854Z" fill="#3195E7"/>
</g>
<defs>
<clipPath id="clip0_296_1032">
<rect width="79.778" height="80" fill="white" transform="translate(45.8066 45.5664)"/>
</clipPath>
</defs>
</svg>
