<svg width="50" height="50" viewBox="0 0 50 50" fill="none" xmlns="http://www.w3.org/2000/svg">
<rect x="1" y="1" width="48" height="48" rx="24" fill="#0052A3" stroke="#0052A3" stroke-width="2"/>
<g clip-path="url(#clip0_1667_291)">
<path d="M25.7699 27.564C25.7699 28.2241 25.7699 28.8286 25.7699 29.4262C25.7699 30.8645 25.7768 32.2959 25.7631 33.7343C25.7631 33.9844 25.8178 34.0748 26.0849 34.0748C27.3653 34.0609 28.6389 34.0748 29.9193 34.0817C30.2343 34.0817 30.378 33.9566 30.3643 33.6231C30.337 32.2681 30.5424 32.5461 29.4126 31.7956C28.543 31.2189 27.6734 30.6422 26.8175 30.0516C26.393 29.7597 26.2424 29.3359 26.3862 28.912C26.6053 28.2588 27.2352 28.0018 27.8446 28.3422C28.2006 28.5437 28.5362 28.7869 28.8785 29.0162C29.8166 29.6347 30.7409 30.267 31.6859 30.8715C32.1446 31.1703 32.3569 31.5663 32.3432 32.1153C32.3295 32.6225 32.3432 33.1367 32.3363 33.6439C32.3295 33.9427 32.4664 34.0609 32.7472 34.0609C33.1374 34.0609 33.5209 34.047 33.9112 34.0748C34.4726 34.1164 34.7739 34.3944 34.8287 34.9572C34.8766 35.4645 34.8698 35.9717 34.8698 36.4859C34.8698 36.7013 34.7465 36.8264 34.5343 36.8472C34.4384 36.875 34.3357 36.875 34.233 36.875C28.0021 36.875 21.7712 36.8681 15.5403 36.8681C14.8555 36.8681 14.8555 36.8681 14.8555 36.1801C14.8555 35.7771 14.8487 35.3672 14.8898 34.9642C14.9445 34.4222 15.2527 34.1303 15.7799 34.0886C16.1223 34.0609 16.4646 34.0748 16.807 34.0748C17.2589 34.0748 17.3547 33.9844 17.3547 33.5328C17.3547 33.0464 17.3479 32.56 17.3479 32.0736C17.3411 31.5663 17.5533 31.1772 17.9641 30.9062C19.1966 30.0863 20.4291 29.2733 21.6616 28.4604C22.2094 28.099 22.7161 28.1199 23.0653 28.4951C23.5172 28.9745 23.4145 29.6624 22.8051 30.1072C22.36 30.4268 21.8944 30.7256 21.4357 31.0313C20.8536 31.4204 20.2716 31.8095 19.6828 32.1848C19.4226 32.3515 19.3062 32.5669 19.3267 32.8796C19.3404 33.1089 19.3336 33.3452 19.3336 33.5745C19.3336 34.0331 19.3815 34.0817 19.8471 34.0817C21.0659 34.0817 22.2915 34.0817 23.5103 34.0748C23.6199 34.0748 23.7363 34.0678 23.8664 34.0609C23.8664 31.8999 23.8664 29.7597 23.8664 27.5709C23.346 27.5709 22.8256 27.5501 22.3052 27.5779C21.9355 27.5918 21.6342 27.4806 21.3877 27.2096C21.0659 26.8483 20.7441 26.4939 20.4428 26.1118C20.2032 25.806 20.3607 25.3683 20.7304 25.2571C20.8468 25.2224 20.9769 25.2154 21.1001 25.2154C23.5994 25.2154 26.0986 25.2085 28.5978 25.2224C28.8032 25.2224 29.0497 25.2779 29.1935 25.403C29.3921 25.5698 29.4263 25.8408 29.2757 26.0979C29.2551 26.1396 29.2209 26.1743 29.1935 26.209C28.1596 27.564 28.1459 27.5779 26.4615 27.5779C26.2424 27.564 26.0301 27.564 25.7699 27.564Z" fill="white"/>
<path d="M24.8242 17.3496C24.3106 16.3699 23.7765 15.4666 23.6054 14.4104C23.53 13.9587 23.7218 13.6252 24.0915 13.382C24.5366 13.0902 25.0022 13.0137 25.4678 13.3195C25.8718 13.5835 26.1388 13.9518 26.043 14.4451C25.8512 15.4735 25.3377 16.3768 24.8242 17.3496Z" fill="white"/>
<path d="M29.5556 17.8777C29.405 16.8076 29.268 15.8001 29.4324 14.7856C29.5077 14.2853 29.8774 14.0282 30.343 13.917C30.8566 13.792 31.2605 13.9865 31.5687 14.3965C31.8494 14.7787 31.9316 15.1956 31.6782 15.6264C31.151 16.5227 30.3499 17.1481 29.5556 17.8777Z" fill="white"/>
<path d="M33.6163 19.1354C34.0819 18.3224 34.5065 17.4817 35.0131 16.6965C35.3897 16.1197 35.9649 16.0433 36.5469 16.3629C37.0604 16.6478 37.3069 17.2663 37.0878 17.8499C36.9988 18.0792 36.8139 18.3294 36.6085 18.4406C35.7116 18.927 34.7187 19.059 33.7396 19.2466C33.6916 19.2049 33.6574 19.1701 33.6163 19.1354Z" fill="white"/>
<path d="M28.3915 23.8187C28.7407 22.9571 29.0489 22.0816 29.446 21.2408C29.7473 20.5946 30.3224 20.4279 30.9729 20.6919C31.4864 20.9004 31.8151 21.5327 31.6576 22.1233C31.596 22.3526 31.4385 22.5958 31.2536 22.7348C30.432 23.3393 29.4597 23.5964 28.5148 23.9021C28.4737 23.8743 28.4326 23.8465 28.3915 23.8187Z" fill="white"/>
<path d="M21.1337 23.9021C20.1751 23.6103 19.2233 23.3184 18.3811 22.7417C17.9703 22.4568 17.9018 22.026 17.9908 21.5674C18.0867 21.0671 18.3879 20.7405 18.8809 20.6294C19.3465 20.5321 19.7779 20.6016 20.0724 21.0185C20.2093 21.2061 20.3325 21.4076 20.4147 21.6161C20.6886 22.3456 20.9488 23.0891 21.209 23.8257C21.1884 23.8535 21.1611 23.8743 21.1337 23.9021Z" fill="white"/>
<path d="M15.9305 19.2397C14.965 19.0591 13.979 18.9271 13.0889 18.4615C12.6507 18.2322 12.459 17.85 12.5137 17.3081C12.5617 16.773 12.863 16.3978 13.3628 16.2519C13.8421 16.1129 14.3146 16.1616 14.5884 16.5993C15.102 17.4192 15.5607 18.2878 16.04 19.1355C15.999 19.1703 15.9647 19.205 15.9305 19.2397Z" fill="white"/>
<path d="M19.9901 17.8638C19.3465 17.1689 18.6755 16.4949 18.0592 15.7723C17.7305 15.3832 17.7716 14.8412 18.0592 14.4173C18.3331 14.0074 18.8466 13.7989 19.3191 13.9101C19.8189 14.0213 20.2229 14.4034 20.2298 14.9037C20.2503 15.8696 20.2092 16.8354 20.1887 17.8012C20.127 17.8221 20.0586 17.8429 19.9901 17.8638Z" fill="white"/>
<path d="M24.8593 23.6382C24.3526 22.7001 23.8938 21.8385 23.661 20.8727C23.5446 20.3793 23.7637 19.9068 24.2019 19.622C24.6196 19.351 25.1468 19.3718 25.5508 19.6636C25.9754 19.9763 26.1465 20.4349 26.0027 20.9422C25.9 21.3104 25.7768 21.6718 25.6261 22.0192C25.4002 22.5473 25.1468 23.0476 24.8593 23.6382Z" fill="white"/>
</g>
<defs>
<clipPath id="clip0_1667_291">
<rect width="24.6635" height="23.75" fill="white" transform="translate(37.1631 36.875) rotate(-180)"/>
</clipPath>
</defs>
</svg>
