<svg width="50" height="50" viewBox="0 0 50 50" fill="none" xmlns="http://www.w3.org/2000/svg">
<rect x="1" y="1" width="48" height="48" rx="24" fill="#0052A3" stroke="#0052A3" stroke-width="2"/>
<g clip-path="url(#clip0_1667_280)">
<path d="M29.5486 36.3375C30.5427 36.3375 31.5294 36.3454 32.5162 36.3217C32.5903 36.3217 32.7165 36.1478 32.7313 36.0451C32.9984 34.409 32.6497 32.9074 31.7891 31.5401C31.4107 30.9394 31.0769 30.3466 31.0027 29.6116C30.9062 28.6079 31.2549 27.7543 31.6927 26.9165C31.9672 26.387 32.2491 25.8575 32.5162 25.3279C33.0132 24.3163 33.0058 23.3046 32.4716 22.3088C32.2787 21.9531 32.1081 21.5896 31.8855 21.2576C30.832 19.6453 30.9062 17.9777 31.6259 16.2705C31.841 15.7647 32.1155 15.2905 32.301 14.7768C32.4494 14.3737 32.5013 13.9311 32.6052 13.449C31.6259 13.449 30.7579 13.449 29.8305 13.449C29.9863 14.8321 29.2889 15.9149 28.7399 17.0609C28.1019 18.3887 28.1019 19.6769 28.9699 20.9257C29.6895 21.961 30.2534 23.0991 30.0308 24.4348C29.8898 25.2963 29.6079 26.1341 29.3186 26.956C29.0738 27.6595 28.7473 28.3233 28.4506 29.003C28.0277 29.9673 28.0351 30.9078 28.5322 31.8404C28.7992 32.3462 29.0441 32.8599 29.2889 33.3816C29.7192 34.2826 29.8898 35.2152 29.5411 36.2031C29.5337 36.2268 29.5486 36.2664 29.5486 36.3375Z" fill="white"/>
<path d="M16.6909 36.0056C17.6999 36.1715 18.6644 36.3138 19.6288 36.4877C19.8885 36.5351 19.9182 36.3612 19.9701 36.1873C20.4153 34.6224 20.3188 33.0813 19.6288 31.6191C19.1614 30.6312 18.9315 29.6195 19.3321 28.5842C19.5695 27.9756 19.9627 27.4303 20.3114 26.877C20.6156 26.3949 20.9717 25.9602 21.2833 25.486C21.862 24.6166 21.9732 23.6761 21.6171 22.6724C21.4836 22.293 21.3649 21.8978 21.1942 21.5342C20.3633 19.756 20.6304 18.0883 21.6097 16.4918C21.9361 15.9544 22.3071 15.4327 22.6113 14.8795C22.7745 14.5871 22.8338 14.2235 22.96 13.8283C22.0029 13.6703 21.1349 13.5359 20.2298 13.3857C20.2001 14.7214 19.4359 15.6303 18.7979 16.6104C18.4863 17.0925 18.2267 17.6299 18.0412 18.1753C17.7815 18.9261 17.9076 19.669 18.2192 20.3961C18.4715 20.9968 18.7386 21.5975 18.9092 22.2219C19.2802 23.5971 18.8869 24.8537 18.2267 26.0234C17.8112 26.7664 17.3438 27.4777 16.8987 28.2127C16.7429 28.4656 16.6093 28.7343 16.4758 28.9952C16.1568 29.6274 16.0677 30.2913 16.2755 30.9789C16.409 31.4136 16.5351 31.8562 16.6835 32.2909C17.1138 33.5318 17.4402 34.7568 16.6909 36.0056Z" fill="white"/>
<path d="M33.169 13.378C33.2135 14.1762 32.9464 14.8243 32.6645 15.4724C32.3825 16.1126 32.0932 16.7607 31.8929 17.4325C31.5368 18.5864 31.6926 19.6929 32.3009 20.7203C32.5458 21.1313 32.7757 21.5502 33.0057 21.9691C33.666 23.1625 33.6586 24.3638 33.0577 25.581C32.6645 26.3713 32.2267 27.138 31.878 27.952C31.4403 28.9716 31.5071 29.9832 32.1303 30.9079C33.2135 32.5123 33.6512 34.2748 33.347 36.2981C33.9999 36.2981 34.6527 36.306 35.2982 36.2902C35.3575 36.2902 35.4392 36.1321 35.4688 36.0294C35.7953 34.9545 35.6246 33.9508 35.0682 33.0103C34.8382 32.623 34.5934 32.2436 34.3486 31.8643C33.4064 30.3784 33.3322 28.8846 34.3041 27.3751C34.8753 26.4978 35.2314 25.5256 35.3205 24.4508C35.3872 23.6288 35.2611 22.878 34.7937 22.2141C34.6008 21.9375 34.4153 21.6608 34.2521 21.3684C33.5473 20.1355 33.4509 18.863 34.0073 17.551C34.3041 16.8555 34.6527 16.1916 34.9569 15.4961C35.2166 14.9033 35.2611 14.279 35.083 13.6546C35.0534 13.5439 34.9198 13.4017 34.8308 13.3938C34.2892 13.3701 33.7476 13.378 33.169 13.378Z" fill="white"/>
<path d="M23.524 13.8916C23.4647 14.7689 23.0566 15.4249 22.6041 16.0651C22.0402 16.8633 21.5802 17.709 21.3799 18.6969C21.2167 19.511 21.3651 20.2855 21.647 21.0522C21.8993 21.724 22.1589 22.3958 22.3444 23.0834C22.567 23.9053 22.4334 24.7194 21.9957 25.4307C21.5654 26.1341 21.0757 26.798 20.5935 27.4698C19.9703 28.3392 19.5623 29.2718 19.8145 30.402C19.8739 30.6707 19.9777 30.9315 20.089 31.1686C20.9125 32.8995 21.0683 34.6778 20.4896 36.5825C21.1277 36.6853 21.7657 36.7959 22.4112 36.8829C22.4779 36.8908 22.5966 36.7327 22.6411 36.6299C23.0418 35.7131 23.0937 34.7805 22.7302 33.84C22.4928 33.2314 22.2108 32.6466 21.9734 32.038C21.4096 30.5759 21.5728 29.2402 22.5892 28.0468C23.2866 27.2327 23.8356 26.3317 24.0879 25.2331C24.2956 24.3321 24.2288 23.4943 23.7911 22.6803C23.4127 21.9769 23.1679 21.226 23.1456 20.3962C23.1234 19.4873 23.4201 18.689 23.8875 17.9619C24.1991 17.4719 24.533 16.9977 24.8594 16.5156C25.2601 15.9149 25.4604 15.251 25.3936 14.5081C25.3713 14.271 25.2971 14.1603 25.0597 14.1366C24.5627 14.0655 24.0656 13.9785 23.524 13.8916Z" fill="white"/>
<path d="M13.8498 35.6895C14.5101 35.8001 15.0888 35.9029 15.66 35.974C15.7565 35.9898 15.9123 35.8871 15.9716 35.7843C16.3722 35.1283 16.4316 34.4012 16.2313 33.6583C16.031 32.9153 15.7936 32.1803 15.5562 31.4453C15.2149 30.4099 15.3558 29.4536 15.8974 28.5368C16.4539 27.6042 17.0251 26.6795 17.5593 25.739C18.3754 24.2847 18.4644 22.791 17.7299 21.2656C17.5593 20.9178 17.3886 20.5622 17.2774 20.1828C16.9064 18.9657 17.1735 17.8434 17.8189 16.808C18.1973 16.1916 18.6276 15.6146 19.006 14.9981C19.2805 14.5397 19.4289 14.026 19.414 13.4174C18.8279 13.3226 18.2492 13.2277 17.6409 13.125C17.6261 13.37 17.6112 13.5834 17.589 13.8047C17.4851 14.7926 16.9954 15.5593 16.3871 16.2864C15.5042 17.3455 15.1926 18.6021 15.4004 19.9931C15.4671 20.4278 15.6007 20.8704 15.7787 21.2656C16.7729 23.4786 16.4019 25.494 15.0665 27.4145C14.6214 28.0547 14.1985 28.7423 13.9388 29.4773C13.5456 30.5917 13.6198 31.7535 14.0575 32.8679C14.0946 32.9549 14.1169 33.0418 14.154 33.1208C14.5769 34.0218 14.651 34.8754 13.8498 35.6895Z" fill="white"/>
<path d="M28.9103 13.4412C28.3094 13.4412 27.7233 13.4412 27.1075 13.4412C27.2262 14.2315 27.1891 14.9982 26.8701 15.7174C26.7365 16.0256 26.5659 16.318 26.3953 16.6105C25.4085 18.2781 25.4382 19.9457 26.3359 21.645C26.6772 22.2852 27.0259 22.9333 27.2188 23.6288C27.612 25.0356 27.3152 26.3871 26.6994 27.6754C26.3137 28.4736 25.8611 29.2323 25.735 30.1412C25.5792 31.2714 25.7276 32.3463 26.2543 33.3501C26.3359 33.5081 26.4175 33.6741 26.5214 33.8243C27.0333 34.6304 27.1668 35.4445 26.514 36.3297C27.2039 36.3297 27.8271 36.3376 28.4429 36.3218C28.5097 36.3218 28.5987 36.1795 28.6432 36.0768C28.9177 35.3655 28.8955 34.6541 28.5987 33.9665C28.2797 33.2236 27.931 32.4965 27.5823 31.7773C27.1446 30.8842 27.1446 29.9753 27.5081 29.0743C27.8642 28.1812 28.2723 27.3039 28.6284 26.4108C29.029 25.4071 29.3851 24.3638 29.0958 23.2731C28.9103 22.5697 28.5987 21.8584 28.1981 21.2656C27.2039 19.7877 27.1891 18.3018 27.9532 16.7369C28.2352 16.1521 28.5245 15.5672 28.7693 14.9665C28.9474 14.4844 29.0216 13.9786 28.9103 13.4412Z" fill="white"/>
</g>
<defs>
<clipPath id="clip0_1667_280">
<rect width="21.9231" height="23.75" fill="white" transform="matrix(-1 0 0 1 35.625 13.125)"/>
</clipPath>
</defs>
</svg>
