<svg width="216" height="111" viewBox="0 0 216 111" fill="none" xmlns="http://www.w3.org/2000/svg">
<g clip-path="url(#clip0_1823_8233)">
<path d="M34.1207 26.448C33.4777 27.434 32.7918 28.4199 32.1917 29.4486C24.2187 42.3512 19.8035 56.3683 19.8035 71.6285C19.8035 73.9432 20.1893 76.3437 20.7894 78.5727C21.3038 80.5445 22.5898 80.7589 23.79 79.0871C27.005 74.5433 29.6626 69.6566 31.0343 64.1698C32.2775 59.1546 33.5206 54.0964 34.8494 48.8239C36.2211 49.2526 37.0355 49.4669 37.7643 49.8098C38.9216 50.2814 39.1788 50.9672 38.8359 52.3389C37.4213 58.1686 36.1354 63.9984 35.0637 69.871C34.6779 71.9714 34.978 74.2861 35.3209 76.4294C35.621 78.3584 37.0784 78.9156 38.6644 77.844C39.9075 77.0295 41.1935 76.0008 41.8794 74.8005C44.7085 69.871 47.3662 64.8128 50.0238 59.7547C50.2382 59.326 50.1524 58.383 49.8524 58.0829C44.9228 53.6249 44.5799 47.7951 45.3515 41.8797C45.7373 38.8362 46.8518 35.7499 48.3521 33.0922C49.338 31.3347 51.3955 29.8773 53.3245 28.9771C56.1536 27.6483 58.3827 29.02 58.7256 32.1063C58.9828 34.764 59.0256 37.5931 58.5112 40.2079C57.5253 45.2232 56.0679 50.1956 54.8248 55.168C54.6533 55.8539 54.439 56.4969 54.1818 57.2256C56.1965 57.7829 57.1395 57.097 58.0397 55.2966C59.9687 51.5673 62.112 47.9666 64.5982 44.6231C65.6698 43.1657 67.7702 42.2655 69.6135 41.6654C71.7567 40.9366 73.0427 42.1369 73.0427 44.4088C73.0427 48.0523 71.4995 51.1387 68.8419 53.4534C67.0415 55.0394 64.8125 56.1111 62.7978 57.4399C62.2406 57.8257 61.4261 58.2115 61.2975 58.7688C60.183 63.3554 59.1971 67.942 58.2112 72.5286C58.0826 73.1716 58.2969 73.9003 58.4255 75.0577C59.8401 74.4576 61.1689 74.2433 61.8976 73.4717C65.5412 69.6566 69.0133 65.713 72.4855 61.7694C72.8284 61.3836 72.8713 60.6977 72.9998 60.1833C76.2148 48.2238 80.9729 36.9501 88.0028 26.7481C89.3317 24.8191 90.9606 23.1045 92.6323 21.4756C93.9612 20.1897 95.5901 19.3323 97.519 20.3183C99.2765 21.2184 99.4908 23.1045 99.0622 24.6477C98.0334 28.4627 97.0475 32.4064 95.3757 35.9642C91.5607 43.9801 85.9453 50.7529 79.8584 57.1399C76.772 60.3977 76.5577 64.5985 76.0004 68.6279C75.829 69.8281 76.6434 70.2996 77.8008 69.7852C78.5724 69.4423 79.4297 69.1423 80.0727 68.585C84.3164 64.9843 88.4744 61.4264 89.8889 55.511C90.8748 51.3101 93.061 47.538 96.0616 44.3659C98.162 42.094 100.648 40.4651 103.949 40.6794C106.692 40.8509 107.807 42.2226 106.907 44.7946C106.135 46.9807 104.935 48.9954 103.906 51.0958C103.735 51.0101 103.563 50.9672 103.392 50.8815C103.777 49.2526 104.378 47.6666 104.506 46.0377C104.592 45.1375 103.906 44.1944 103.563 43.2514C102.749 43.68 101.591 43.8515 101.12 44.5374C96.4902 50.9243 93.4039 57.9972 91.8179 65.7559C91.6464 66.5274 91.9036 67.7277 92.418 68.2421C92.7609 68.585 94.2184 68.3707 94.7327 67.8992C98.8479 64.3842 102.834 60.7406 106.821 57.097C107.292 56.6683 107.378 55.811 107.592 55.1252C109.479 49.7241 111.965 44.666 116.037 40.6366C117.666 39.0506 119.809 37.8074 121.91 36.993C124.096 36.1357 125.768 37.3359 125.982 39.6935C126.196 42.0511 126.025 44.4945 126.025 47.0236C128.511 45.6947 130.869 44.023 132.412 41.3653C133.398 39.6935 134.212 37.936 135.241 36.3071C137.17 33.2208 138.241 33.0494 141.413 35.1069C138.327 41.151 135.241 47.195 132.154 53.282C132.326 53.3677 132.497 53.4534 132.669 53.582C135.241 49.9813 137.813 46.3377 140.428 42.737C142.056 40.508 143.814 38.279 145.529 36.1357C147.843 33.2637 148.786 33.2637 151.787 35.9214C150.029 39.4363 148.229 42.9513 146.429 46.5092C146.514 46.5949 146.643 46.6806 146.729 46.7235C148.272 44.8374 149.815 42.9942 151.401 41.1081C153.673 38.3647 155.945 35.5784 158.217 32.8779C160.446 30.2202 161.346 30.2202 163.918 33.0494C160.274 40.6794 155.859 48.0095 153.502 56.2397C153.673 56.3683 153.845 56.4969 153.973 56.6255C154.53 56.2826 155.216 56.0682 155.645 55.5967C157.874 53.282 160.146 51.0101 162.203 48.5667C162.846 47.7952 162.975 46.4663 163.232 45.3947C164.518 39.3935 166.79 33.8209 171.805 30.0488C173.949 28.4627 176.692 27.434 179.35 26.8338C182.35 26.148 183.979 27.7769 183.722 30.9061C183.422 35.2355 181.707 39.0506 177.892 41.3224C175.62 42.6941 172.92 43.2943 170.434 44.3659C169.705 44.666 168.676 45.3089 168.59 45.9091C168.119 49.6384 167.433 53.4106 167.604 57.1399C167.862 62.6695 171.248 65.07 176.735 64.2984C183.465 63.3983 188.351 59.8833 191.824 54.1393C189.852 60.0547 186.122 64.2984 180.035 66.0988C170.734 68.8422 164.004 64.3413 162.846 54.6965C162.761 53.8821 162.675 53.0248 162.546 51.7817C161.346 53.2391 160.532 54.4822 159.417 55.4252C157.745 56.8398 156.074 58.383 154.102 59.2403C151.187 60.5263 149.172 58.9831 149.687 55.811C150.287 52.4675 151.358 49.2097 152.344 45.9519C152.816 44.3659 153.587 42.8227 154.059 41.151C149.429 47.538 145.529 54.3536 142.699 61.6836C139.399 61.4264 138.113 59.8404 138.842 56.8398C139.742 53.0248 140.813 49.2526 141.585 45.3089C141.285 45.6947 140.899 45.9948 140.642 46.4234C137.127 52.0389 133.569 57.6543 130.14 63.3125C129.325 64.6414 128.554 65.1557 127.053 64.5985C125.553 64.0412 124.782 63.2268 125.296 61.555C126.41 57.7829 127.525 54.0535 128.682 50.2814C128.897 49.6384 129.154 48.9954 129.54 47.8809C126.453 50.1528 123.624 51.6959 122.038 55.0823C120.409 58.5544 117.752 61.6408 115.351 64.6842C114.451 65.7987 113.079 66.656 111.75 67.299C108.407 68.8851 106.349 67.642 105.921 63.9984C105.835 63.3554 105.835 62.7124 105.835 62.0694C105.621 61.8551 105.406 61.6836 105.192 61.4693C104.12 62.7553 103.22 64.2556 101.977 65.3272C99.9195 67.0847 97.7762 68.7993 95.3757 70.0424C91.4321 72.1 88.6887 70.4711 88.2172 66.0131C88.1314 65.3701 88.1314 64.7271 88.0457 63.5697C87.4027 64.3413 86.9741 64.8128 86.5883 65.3272C84.4021 68.1135 82.0874 70.6854 78.7438 72.1C74.2001 73.9861 72.1425 72.7001 71.9282 67.7706C71.9282 67.3848 71.8853 66.999 71.8425 66.3131C69.8278 68.5421 68.156 70.6426 66.1842 72.4429C64.5124 73.9432 62.6264 75.3578 60.6117 76.3437C57.6539 77.7583 55.1677 76.4723 54.9105 73.1716C54.6533 69.7424 55.2106 66.2274 55.4678 62.7981C55.5535 61.8122 55.8964 60.8692 56.1536 59.8833C54.0532 59.1974 52.9816 59.8404 51.9528 61.8551C49.5523 66.5275 46.7232 70.9855 44.0226 75.5292C43.6797 76.0865 43.2511 76.558 42.8224 77.0295C40.9792 78.9585 39.0931 80.9732 36.0068 80.1159C32.9633 79.2585 32.0203 76.6866 31.2915 73.9861C31.1629 73.4717 31.0772 72.9144 30.8629 71.7999C30.3485 72.8287 30.1342 73.4717 29.7912 74.0289C28.4195 76.258 27.2622 78.7013 25.5047 80.6303C23.0185 83.4165 19.2034 82.8164 17.8746 79.3443C16.7601 76.4294 15.8599 73.1288 15.9456 70.0424C16.2028 62.5838 17.0601 55.1252 17.7031 47.6666C17.746 47.3665 17.7889 47.0236 17.8317 46.5949C15.8599 48.3524 14.1453 50.1956 12.0877 51.5673C10.5017 52.639 8.57273 53.4963 6.64378 53.8821C3.38599 54.4822 0.342522 52.0388 -0.0432688 48.7382C-0.214731 47.3665 -0.214731 45.8233 0.213925 44.4945C2.22861 38.0218 6.30085 33.2637 12.1306 29.1486C12.7736 31.0347 13.4594 32.6207 13.8452 34.2925C13.9309 34.764 13.1165 35.5784 12.5592 35.9642C9.21572 38.0646 6.38658 40.6366 4.71482 44.2373C4.02897 45.7376 3.64318 47.4951 3.55745 49.1669C3.47172 51.1815 4.97202 52.0817 6.72951 51.1387C8.52987 50.1528 10.416 48.9954 11.6591 47.4522C16.9744 40.9366 22.1183 34.2925 27.2193 27.6054C29.3197 24.7763 30.7343 24.3905 34.1207 26.448ZM97.0046 22.7616C96.6188 22.633 96.233 22.5044 95.8901 22.3758C88.8601 31.2061 85.3452 41.8797 80.93 52.0817C82.9875 50.067 84.8736 47.9237 86.6311 45.6947C91.1749 39.9507 95.0757 33.8638 96.7046 26.5766C96.9618 25.3335 96.9189 24.0476 97.0046 22.7616ZM51.4384 56.0682C51.6527 55.7253 51.8671 55.511 51.9099 55.2538C53.3674 49.8956 54.8677 44.5802 56.1536 39.1791C56.6252 37.1216 56.5823 34.9354 56.6252 32.835C56.6252 32.3206 56.1108 31.5062 55.6392 31.3776C55.2106 31.249 54.5247 31.7205 54.0104 32.0634C53.6246 32.3635 53.3674 32.835 53.1102 33.2637C50.4525 38.579 48.9951 44.1944 49.0379 50.1099C49.0808 52.2532 49.5523 54.3965 51.4384 56.0682ZM169.319 41.9226C175.792 41.9226 181.579 36.3929 181.793 30.8632C181.879 29.1057 180.893 28.2055 179.264 28.8485C177.935 29.4058 176.478 30.2202 175.706 31.3776C173.477 34.6354 171.591 38.1075 169.319 41.9226ZM115.051 49.8956C111.236 56.6255 109.007 62.841 109.693 65.1558C113.122 64.77 119.552 57.097 120.452 52.8104C118.609 51.8245 116.894 50.8815 115.051 49.8956ZM62.5406 55.0394C67.9417 53.0248 72.0997 47.2379 70.8137 43.5943C65.7127 45.6519 64.6839 50.4528 62.5406 55.0394ZM124.439 40.1651C124.181 40.0793 123.924 39.9936 123.624 39.9079C121.095 41.3224 119.338 43.4657 118.48 46.2091C118.266 46.8092 118.695 48.1809 119.123 48.3524C120.023 48.6953 121.138 48.5667 122.124 48.3953C122.467 48.3095 122.724 47.4951 122.853 46.9378C123.453 44.7088 123.924 42.4369 124.439 40.1651Z" fill="#62ADFF"/>
<path d="M96.1478 110.079C92.9329 110.765 89.5893 110.979 86.2458 109.95C81.1448 108.364 78.5729 103.263 80.6304 97.9051C81.6163 95.3332 83.5882 93.1042 85.3028 90.8752C86.203 89.7178 87.5318 88.9033 88.9464 87.6602C72.786 85.3883 57.14 84.3167 42.48 92.7612C42.3942 92.5898 42.3514 92.3755 42.2656 92.204C43.5945 91.4324 44.9233 90.618 46.2521 89.8892C47.6238 89.1605 49.0384 88.4747 50.4958 87.8317C60.3978 83.4594 70.857 83.1165 81.402 83.7594C85.0884 83.9738 88.8178 84.4453 92.5042 84.6168C93.4473 84.6596 94.476 84.3596 95.2905 83.9309C106.221 78.5298 117.666 74.5862 129.754 72.7001C134.727 71.9285 139.742 71.9285 144.629 73.1716C149.087 74.329 151.445 76.558 151.616 79.6872C151.787 82.7307 149.858 85.3455 145.572 86.8458C136.013 90.2322 126.154 91.4753 116.08 90.618C109.179 90.0178 102.32 89.0748 95.4191 88.3889C94.4332 88.3032 93.1901 88.4747 92.4185 89.0319C89.6751 91.0466 86.8031 92.9756 84.5312 95.4618C83.1595 96.9621 82.345 99.3197 82.0878 101.42C81.6163 105.107 83.631 107.893 87.2317 108.793C90.1466 109.565 93.2329 109.693 96.1478 110.079ZM100.563 84.7454C100.606 84.9597 100.692 85.1312 100.734 85.3455C100.949 85.4312 101.12 85.5169 101.335 85.5598C112.18 86.7172 123.067 87.9174 133.955 85.6455C137.642 84.874 141.285 83.8452 144.843 82.6021C145.915 82.2163 146.601 80.8017 147.458 79.8587C146.515 79.0871 145.658 77.9297 144.586 77.6297C142.186 76.9867 139.699 76.5152 137.256 76.3866C130.269 76.0865 123.496 77.5868 116.852 79.5586C111.322 81.1875 105.964 83.0307 100.563 84.7454Z" fill="#62ADFF"/>
<path d="M211.498 0C213.256 1.45743 214.584 2.44334 215.699 3.55785C216.042 3.94364 216.128 4.92955 215.913 5.44394C210.812 16.7605 207.855 28.6771 205.711 40.851C203.311 39.7365 202.368 38.2362 202.925 35.8357C205.626 24.1334 208.498 12.431 211.498 0Z" fill="#62ADFF"/>
<path d="M200.525 45.009C204.555 46.295 205.627 48.0954 205.069 51.7389C204.855 53.0249 204.683 54.268 204.512 55.554C204.341 56.7542 204.169 57.9545 203.998 59.1547C201.34 58.6832 199.84 57.0972 199.925 54.6109C200.054 51.4818 200.311 48.3526 200.525 45.009Z" fill="#62ADFF"/>
</g>
<defs>
<clipPath id="clip0_1823_8233">
<rect width="216" height="110.679" fill="white"/>
</clipPath>
</defs>
</svg>
