<svg width="22" height="24" viewBox="0 0 22 24" fill="none" xmlns="http://www.w3.org/2000/svg">
<path d="M11.1003 22.4568C11.4596 22.4562 11.8188 22.3208 12.0878 22.0508C12.3569 21.7808 12.5359 21.4211 12.5352 21.0168L13.9727 21.0143C13.9741 21.8229 13.6609 22.4973 13.1228 23.0373C12.5398 23.6223 11.8665 23.893 11.1028 23.8943C10.2942 23.8958 9.61989 23.6274 9.0798 23.0444C8.49486 22.5064 8.22415 21.833 8.22272 21.0244L9.66022 21.0219C9.66093 21.4262 9.79633 21.7853 10.0663 22.0544C10.3363 22.3234 10.696 22.4576 11.1003 22.4568ZM20.4774 15.9266C20.7924 16.2405 21.0177 16.5995 21.1082 17.0037C21.1989 17.4527 21.1547 17.8571 20.9757 18.2617C20.7967 18.6663 20.5727 18.9812 20.2137 19.2064C19.8548 19.4766 19.4506 19.5671 19.0014 19.5679L3.18895 19.5958C2.73973 19.5966 2.33527 19.5074 1.97543 19.2385C1.61566 19.0146 1.34557 18.7006 1.16517 18.2966C0.984772 17.8926 0.98406 17.4883 1.07311 17.039C1.16224 16.6345 1.3413 16.2748 1.70012 15.9597C2.4176 15.2397 2.9554 14.52 3.2685 13.7558C3.6709 12.677 3.8929 11.1941 3.88949 9.2625C3.88744 8.09453 4.15507 7.01594 4.73731 6.02663C5.27463 5.0374 6.08172 4.18246 7.06889 3.55181C8.05606 2.92117 9.13348 2.51497 10.3462 2.42299L10.3448 1.6144C10.3445 1.43471 10.3891 1.25494 10.5236 1.11994C10.6581 0.984939 10.8377 0.894779 11.0623 0.894383C11.242 0.894066 11.4218 0.983593 11.5568 1.11812C11.6918 1.25265 11.782 1.43218 11.7823 1.61187L11.7837 2.42046C12.9518 2.50824 14.0756 2.91056 15.065 3.53773C16.0544 4.16489 16.8195 5.01706 17.4053 6.00431C17.9461 6.99164 18.2624 8.06921 18.2645 9.23718C18.2679 11.1688 18.4502 12.6509 18.9013 13.7282C19.1722 14.4914 19.7125 15.2092 20.4774 15.9266ZM18.9989 18.1304C19.3133 18.1299 19.5377 17.9947 19.672 17.7249C19.7614 17.4553 19.716 17.1858 19.491 16.9616C18.591 16.1097 17.9605 15.2123 17.5994 14.2247C17.0582 13.0127 16.8307 11.351 16.827 9.23971C16.8252 8.25143 16.5541 7.35347 16.0585 6.50082C15.518 5.69318 14.843 5.02054 13.9437 4.52798C13.0444 4.03543 12.1005 3.76756 11.0673 3.76938C9.98921 3.77128 9.04632 4.04247 8.14876 4.53819C7.25119 5.03392 6.57855 5.70893 6.08584 6.51839C5.54828 7.37286 5.32525 8.27169 5.32699 9.25997C5.33071 11.3713 5.06411 13.0339 4.57219 14.2926C4.21447 15.2365 3.58715 16.1361 2.69022 16.9912C2.42108 17.2163 2.37664 17.4859 2.51188 17.7552C2.60219 18.0245 2.82704 18.1589 3.18642 18.1583L18.9989 18.1304Z" fill="white"/>
</svg>
