<svg width="22" height="16" viewBox="0 0 22 16" fill="none" xmlns="http://www.w3.org/2000/svg">
<path d="M21.4844 2.60461C21.3542 2.13586 21.1198 1.73222 20.7812 1.39368C20.4427 1.05514 20.0391 0.82076 19.5703 0.690552C18.8932 0.50826 17.3047 0.378052 14.8047 0.299927L11.25 0.260864L7.69531 0.299927C5.19531 0.378052 3.60677 0.50826 2.92969 0.690552C2.46094 0.82076 2.05729 1.05514 1.71875 1.39368C1.38021 1.73222 1.14583 2.13586 1.01562 2.60461C0.833333 3.30774 0.703125 4.37545 0.625 5.80774C0.598958 6.53691 0.585938 7.18795 0.585938 7.76086L0.625 9.71399C0.703125 11.1723 0.833333 12.2531 1.01562 12.9562C1.14583 13.3989 1.38021 13.7895 1.71875 14.1281C2.05729 14.4666 2.46094 14.701 2.92969 14.8312C3.60677 15.0135 5.19531 15.1437 7.69531 15.2218L11.25 15.2609L14.8047 15.2218C17.3047 15.1437 18.8932 15.0135 19.5703 14.8312C20.0391 14.701 20.4427 14.4666 20.7812 14.1281C21.1198 13.7895 21.3542 13.3989 21.4844 12.9562C21.6667 12.2531 21.7969 11.1723 21.875 9.71399L21.9141 7.76086L21.875 5.80774C21.7969 4.37545 21.6667 3.30774 21.4844 2.60461ZM9.0625 10.964V4.5968L14.6484 7.76086L9.0625 10.964Z" fill="#616161"/>
</svg>
