<svg width="33" height="23" viewBox="0 0 33 23" fill="none" xmlns="http://www.w3.org/2000/svg">
<path d="M31.4443 4.07422C31.0928 2.66797 29.9795 1.55469 28.6318 1.20312C26.1123 0.5 16.1514 0.5 16.1514 0.5C16.1514 0.5 6.13184 0.5 3.6123 1.20312C2.26465 1.55469 1.15137 2.66797 0.799805 4.07422C0.0966797 6.53516 0.0966797 11.8086 0.0966797 11.8086C0.0966797 11.8086 0.0966797 17.0234 0.799805 19.543C1.15137 20.9492 2.26465 22.0039 3.6123 22.3555C6.13184 23 16.1514 23 16.1514 23C16.1514 23 26.1123 23 28.6318 22.3555C29.9795 22.0039 31.0928 20.9492 31.4443 19.543C32.1475 17.0234 32.1475 11.8086 32.1475 11.8086C32.1475 11.8086 32.1475 6.53516 31.4443 4.07422ZM12.8701 16.5547V7.0625L21.1904 11.8086L12.8701 16.5547Z" fill="#0061C1"/>
</svg>
