<svg width="44" height="38" viewBox="0 0 44 38" fill="none" xmlns="http://www.w3.org/2000/svg">
<path d="M40.4667 19.7412C37.4172 19.7412 34.4745 19.7412 31.5012 19.7412C31.5012 22.6458 31.5012 25.5505 31.5012 28.4856C33.3157 28.4856 35.1453 28.4856 37.0741 28.4856C36.51 28.0587 36.0144 27.7004 35.5265 27.3192C35.3664 27.1972 35.214 27.06 35.0996 26.8999C34.9166 26.6407 34.9548 26.3662 35.1606 26.1299C35.3588 25.9088 35.6104 25.8478 35.8848 25.9621C36.0144 26.0155 36.1364 26.0918 36.2432 26.1756C37.3105 26.9685 38.3854 27.7613 39.4527 28.5695C40.0703 29.0421 40.0779 29.4462 39.4604 29.9036C38.3702 30.7117 37.2724 31.5122 36.1669 32.3051C35.7781 32.5872 35.4427 32.5948 35.1911 32.3737C34.8328 32.0535 34.8709 31.6113 35.3054 31.2683C35.7781 30.9023 36.266 30.5592 36.7463 30.2086C36.8302 30.1476 36.9064 30.0713 37.0436 29.957C35.1453 29.957 33.3233 29.957 31.4555 29.957C31.4478 30.1095 31.4326 30.2543 31.4326 30.3992C31.4326 31.9239 31.4326 33.4486 31.4326 34.9734C31.4326 36.8946 30.3195 38 28.3984 38C23.077 38 17.748 38 12.4267 38C10.536 38 9.44579 36.9098 9.43816 35.0191C9.43054 33.4791 9.43816 31.9468 9.43816 30.4068C9.43816 30.2695 9.43816 30.1323 9.43816 29.957C6.28194 29.957 3.16384 29.957 0.00762372 29.957C0.00762372 29.4767 0.00762372 29.0421 0.00762372 28.5618C0.160098 28.5542 0.304949 28.539 0.449799 28.539C3.28582 28.539 6.11422 28.539 8.95025 28.539C9.42292 28.539 9.46103 28.5008 9.46103 28.051C9.45341 25.4361 9.44579 22.8136 9.43816 20.1986C9.43816 20.0614 9.43816 19.9242 9.43816 19.7336C7.41788 19.7336 5.42809 19.7336 3.41543 19.7336C3.41543 19.2457 3.41543 18.8035 3.41543 18.3232C3.55265 18.3156 3.68988 18.3079 3.81948 18.3003C5.51957 18.3003 7.22729 18.2851 8.92737 18.3003C9.27807 18.3003 9.43816 18.1936 9.43816 17.8276C9.43054 15.1212 9.43054 12.4148 9.43054 9.70838C9.43054 9.67026 9.41529 9.63214 9.40005 9.54066C6.28194 9.54066 3.1486 9.54066 0 9.54066C0 9.04512 0 8.61057 0 8.09978C0.32782 8.09978 0.632769 8.09978 0.930094 8.09978C3.57552 8.09978 6.21333 8.09978 8.85876 8.09978C9.40767 8.09978 9.46103 8.02354 9.45341 7.48226C9.43816 5.90415 9.40767 4.33366 9.44579 2.75555C9.48391 1.05546 10.597 0.011012 12.3047 0.00338832C17.7175 -0.0042354 23.1304 0.00338832 28.5432 0.00338832C30.3043 0.00338832 31.425 1.1317 31.4326 2.89278C31.4402 4.57 31.4402 6.24721 31.4402 7.92443C31.4402 7.9473 31.4478 7.9778 31.4631 8.03116C33.3004 8.03116 35.1377 8.03116 37.0741 8.03116C36.5405 7.62711 36.0678 7.27642 35.5951 6.9181C35.435 6.79612 35.2597 6.67414 35.1377 6.52167C34.9243 6.24721 34.9319 5.94989 35.1606 5.68306C35.3741 5.43148 35.6561 5.38573 35.9535 5.53058C36.1136 5.60682 36.2508 5.72118 36.3956 5.82791C37.402 6.58266 38.4159 7.32978 39.4146 8.08453C40.0855 8.58769 40.0779 8.99938 39.3994 9.49492C38.3473 10.2725 37.2876 11.0425 36.2279 11.8049C36.0983 11.904 35.9458 11.9802 35.7934 12.0412C35.4884 12.1556 35.2444 12.0412 35.0691 11.782C34.8938 11.5381 34.8938 11.2712 35.092 11.0425C35.2368 10.8748 35.4198 10.73 35.6028 10.5927C36.0602 10.2497 36.5176 9.91422 37.0513 9.52541C35.153 9.52541 33.3385 9.52541 31.4936 9.52541C31.4936 12.4224 31.4936 15.3347 31.4936 18.2698C34.4745 18.2698 37.4477 18.2698 40.5048 18.2698C39.9178 17.8353 39.3918 17.4465 38.8733 17.05C38.7361 16.9433 38.5913 16.8213 38.4998 16.6765C38.3244 16.4173 38.3626 16.1428 38.5684 15.9065C38.7666 15.6854 39.0106 15.6091 39.2926 15.7387C39.4299 15.7997 39.5595 15.8836 39.6815 15.9751C40.7488 16.7679 41.8237 17.5684 42.891 18.3689C43.4781 18.8111 43.4704 19.238 42.8834 19.6726C41.778 20.4807 40.6725 21.2964 39.5519 22.0893C39.3689 22.2189 39.0868 22.318 38.8962 22.2723C38.7056 22.2265 38.4617 21.9978 38.4235 21.8072C38.3778 21.6014 38.4769 21.2812 38.637 21.144C39.0868 20.7399 39.5976 20.4045 40.0931 20.0385C40.177 19.9547 40.2761 19.8784 40.4667 19.7412ZM28.7795 1.42902C28.7795 13.1695 28.7795 24.8796 28.7795 36.5896C29.5343 36.4905 29.8926 36.1703 30.0222 35.4765C30.0603 35.2936 30.0756 35.0954 30.0756 34.9124C30.0756 24.2544 30.0756 13.6041 30.0679 2.94614C30.0679 2.64882 29.9993 2.33625 29.885 2.06179C29.6868 1.59675 29.2903 1.3909 28.7795 1.42902ZM23.664 1.39853C23.6488 1.59675 23.6335 1.77209 23.6335 1.94744C23.6335 13.2534 23.6335 24.5594 23.6335 35.8654C23.6335 36.0407 23.6412 36.2237 23.6945 36.3914C23.725 36.4905 23.8546 36.6125 23.9461 36.6277C24.2129 36.6582 24.4874 36.6354 24.7695 36.6354C24.7695 24.8643 24.7695 13.1391 24.7695 1.39853C24.4035 1.39853 24.0681 1.39853 23.664 1.39853ZM26.1798 1.40615C26.1798 1.5815 26.1798 1.71872 26.1798 1.85595C26.1722 7.93968 26.1646 14.0234 26.1646 20.1071C26.1646 25.1845 26.1646 30.2696 26.1646 35.3469C26.1646 35.629 26.1722 35.9035 26.1875 36.1856C26.2103 36.5972 26.3323 36.6887 26.7821 36.6735C27.3387 36.6506 27.3387 36.6506 27.3387 36.1703C27.3387 24.7271 27.3387 13.2839 27.3387 1.8407C27.3387 1.70348 27.3387 1.56625 27.3387 1.40615C26.9346 1.40615 26.5915 1.40615 26.1798 1.40615ZM21.1787 19.7336C21.1787 25.3827 21.1787 30.9786 21.1787 36.5896C21.5523 36.5896 21.8953 36.5896 22.246 36.5896C22.246 30.9557 22.246 25.3446 22.246 19.7336C21.8801 19.7336 21.537 19.7336 21.1787 19.7336ZM22.2536 18.2622C22.2536 12.6359 22.2536 7.02483 22.2536 1.40615C21.8801 1.40615 21.537 1.40615 21.1863 1.40615C21.1863 7.04008 21.1863 12.6435 21.1863 18.2622C21.5523 18.2622 21.8953 18.2622 22.2536 18.2622ZM10.8409 9.52541C10.8409 12.4682 10.8409 15.3576 10.8409 18.2317C10.8867 18.2469 10.9095 18.2698 10.9324 18.2698C11.1611 18.2774 11.3898 18.2774 11.6185 18.2774C12.137 18.2851 12.1522 18.2698 12.1522 17.7514C12.1522 15.1746 12.1522 12.5978 12.1522 10.0286C12.1522 9.92947 12.1751 9.81511 12.137 9.73125C12.0988 9.64739 12.0074 9.54066 11.9311 9.54066C11.5728 9.51016 11.2221 9.52541 10.8409 9.52541ZM10.8333 28.4704C11.2831 28.4704 11.6795 28.4704 12.0912 28.4704C12.0912 25.5505 12.0912 22.6535 12.0912 19.7412C11.6567 19.7412 11.245 19.7412 10.8333 19.7412C10.8333 22.6687 10.8333 25.5581 10.8333 28.4704ZM19.7683 9.52541C19.5015 9.52541 19.2804 9.54066 19.0593 9.51779C18.6934 9.47967 18.5714 9.60927 18.579 9.98283C18.5866 12.5597 18.579 15.1365 18.5714 17.7209C18.5714 17.8963 18.5866 18.0716 18.6019 18.2851C18.762 18.2851 18.884 18.2851 19.0059 18.2851C19.7683 18.2851 19.7683 18.2927 19.7683 17.5303C19.7683 15.0297 19.7683 12.5292 19.7683 10.021C19.7683 9.86848 19.7683 9.72363 19.7683 9.52541ZM18.5942 19.7336C18.5866 19.8479 18.579 19.9089 18.5714 19.9699C18.5638 21.7767 18.5561 23.5759 18.5561 25.3827C18.5561 26.2976 18.5638 27.2124 18.5714 28.1273C18.5714 28.3026 18.5409 28.5085 18.8077 28.5161C19.0974 28.5237 19.3871 28.5161 19.6921 28.5161C19.6921 25.5657 19.6921 22.6535 19.6921 19.7336C19.3261 19.7336 18.9754 19.7336 18.5942 19.7336ZM17.1534 28.4551C17.1534 25.5352 17.1534 22.6458 17.1534 19.7183C16.8942 19.7183 16.6502 19.7412 16.4139 19.7107C16.0937 19.6726 16.0098 19.8022 16.0098 20.1148C16.0251 22.6153 16.0098 25.1159 16.0174 27.6165C16.0174 28.5466 15.9793 28.5695 17.0238 28.4856C17.0695 28.4932 17.1076 28.4704 17.1534 28.4551ZM17.1686 18.2317C17.1686 15.3271 17.1686 12.4529 17.1686 9.55591C16.7951 9.55591 16.4291 9.55591 16.0251 9.55591C16.0251 9.70076 16.0251 9.83798 16.0251 9.97521C16.0251 12.4377 16.0251 14.9001 16.0251 17.355C16.0251 18.3461 16.0479 18.3689 17.0314 18.2698C17.0695 18.2698 17.1 18.2469 17.1686 18.2317ZM13.5473 18.2393C13.9285 18.2393 14.264 18.2393 14.607 18.2393C14.607 15.3271 14.607 12.4453 14.607 9.55591C14.2411 9.55591 13.898 9.55591 13.5473 9.55591C13.5473 12.4682 13.5473 15.3499 13.5473 18.2393ZM14.6147 28.4704C14.6147 25.5352 14.6147 22.6458 14.6147 19.7412C14.2487 19.7412 13.898 19.7412 13.5473 19.7412C13.5473 22.6687 13.5473 25.5581 13.5473 28.4856C13.8218 28.4856 14.0734 28.4856 14.325 28.4856C14.4165 28.4856 14.5079 28.478 14.6147 28.4704ZM12.1522 1.38328C11.9464 1.41378 11.8091 1.4214 11.6795 1.45952C11.1535 1.61962 10.8028 2.06942 10.8028 2.66407C10.7876 4.41752 10.7952 6.16335 10.7952 7.91681C10.7952 7.96255 10.8181 8.00829 10.8409 8.07691C11.0925 8.07691 11.3288 8.06928 11.5728 8.07691C12.1065 8.09978 12.1522 8.06166 12.1522 7.50513C12.1522 5.66781 12.1522 3.82287 12.1522 1.98556C12.1522 1.81021 12.1522 1.63486 12.1522 1.38328ZM12.0912 36.5744C12.0912 34.3787 12.0912 32.1755 12.0912 29.9646C11.649 29.9646 11.245 29.9646 10.8257 29.9646C10.8181 30.0408 10.8028 30.0866 10.8028 30.1323C10.8028 31.8705 10.7952 33.6087 10.8028 35.3469C10.8104 36.0712 11.306 36.5286 12.0912 36.5744ZM19.7378 1.37566C19.4634 1.37566 19.2118 1.39091 18.9602 1.36803C18.6324 1.33754 18.5561 1.46714 18.5561 1.77971C18.5714 3.17485 18.5638 4.57 18.5638 5.96514C18.5638 6.55216 18.5561 7.13156 18.5866 7.71097C18.5942 7.84819 18.7315 8.06928 18.8382 8.08453C19.1279 8.1379 19.4329 8.09978 19.7378 8.09978C19.7378 5.84316 19.7378 3.63228 19.7378 1.37566ZM16.0479 1.37566C16.0403 1.51288 16.0251 1.64249 16.0251 1.76447C16.0251 3.61703 16.0251 5.46959 16.0251 7.32216C16.0251 7.45176 16.0327 7.57374 16.0479 7.70334C16.1013 8.06928 16.2233 8.11502 16.8027 8.09978C17.1229 8.09215 17.1915 7.96255 17.1915 7.66522C17.1762 5.69831 17.1839 3.73139 17.1839 1.76447C17.1839 1.64249 17.1686 1.52051 17.161 1.38328C16.7798 1.37566 16.4291 1.37566 16.0479 1.37566ZM17.1534 36.6354C17.1534 34.3864 17.1534 32.1755 17.1534 29.9646C16.7722 29.9646 16.4215 29.9646 16.0251 29.9646C16.0251 30.1247 16.0251 30.2619 16.0251 30.3992C16.0251 31.7714 16.0251 33.1437 16.0251 34.5083C16.0251 35.103 16.0251 35.6976 16.0251 36.2999C16.0251 36.4753 16.0327 36.643 16.2766 36.643C16.5587 36.6354 16.8484 36.6354 17.1534 36.6354ZM19.7073 29.9341C19.4938 29.9341 19.288 29.9341 19.0898 29.9341C18.579 29.9341 18.579 29.9417 18.5714 30.4373C18.5638 32.0001 18.5638 33.5554 18.5561 35.1182C18.5561 35.5223 18.5485 35.934 18.5714 36.338C18.579 36.4371 18.701 36.5972 18.7772 36.6049C19.0745 36.6354 19.3795 36.6201 19.6997 36.6201C19.7073 34.3711 19.7073 32.1755 19.7073 29.9341ZM13.5626 1.36041C13.5626 3.59416 13.5626 5.81266 13.5626 8.03116C13.9362 8.03116 14.2792 8.03116 14.6452 8.03116C14.6452 6.09474 14.6452 4.19643 14.6452 2.2905C14.6375 1.28417 14.6375 1.28417 13.5626 1.36041ZM14.6147 36.5972C14.6147 34.3787 14.6147 32.1831 14.6147 29.9722C14.2411 29.9722 13.898 29.9722 13.555 29.9722C13.555 32.1984 13.555 34.4016 13.555 36.6277C13.8523 36.6277 14.1115 36.6277 14.3783 36.6277C14.4469 36.6201 14.5232 36.6049 14.6147 36.5972Z" fill="white"/>
</svg>
