<svg width="40" height="38" viewBox="0 0 40 38" fill="none" xmlns="http://www.w3.org/2000/svg">
<g clip-path="url(#clip0_1504_2896)">
<path d="M21.2326 23.1024C21.2326 24.1586 21.2326 25.1258 21.2326 26.0819C21.2326 28.3833 21.2436 30.6735 21.2217 32.9748C21.2217 33.3751 21.3093 33.5196 21.7366 33.5196C23.7853 33.4974 25.823 33.5196 27.8716 33.5307C28.3756 33.5307 28.6057 33.3306 28.5837 32.797C28.5399 30.629 28.8686 31.0737 27.0609 29.873C25.6696 28.9503 24.2782 28.0275 22.9088 27.0825C22.2296 26.6156 21.9886 25.9374 22.2186 25.2592C22.5692 24.2142 23.5771 23.8028 24.5521 24.3476C25.1218 24.67 25.6586 25.0591 26.2064 25.426C27.7073 26.4154 29.1863 27.4271 30.6981 28.3944C31.4322 28.8724 31.7718 29.5061 31.7499 30.3844C31.728 31.196 31.7499 32.0187 31.7389 32.8303C31.728 33.3084 31.9471 33.4974 32.3962 33.4974C33.0207 33.4974 33.6342 33.4751 34.2587 33.5196C35.157 33.5863 35.6391 34.031 35.7267 34.9315C35.8034 35.7431 35.7924 36.5547 35.7924 37.3774C35.7924 37.7221 35.5952 37.9222 35.2556 37.9555C35.1022 38 34.9379 38 34.7736 38C24.8041 38 14.8346 37.9889 4.86518 37.9889C3.76964 37.9889 3.76964 37.9889 3.76964 36.8882C3.76964 36.2434 3.75868 35.5875 3.82442 34.9427C3.91206 34.0755 4.40506 33.6085 5.24862 33.5418C5.7964 33.4974 6.34417 33.5196 6.89194 33.5196C7.615 33.5196 7.76838 33.3751 7.76838 32.6524C7.76838 31.8742 7.75742 31.096 7.75742 30.3177C7.74647 29.5061 8.08609 28.8836 8.74341 28.45C10.7154 27.1381 12.6874 25.8373 14.6594 24.5366C15.5358 23.9585 16.3465 23.9918 16.9052 24.5922C17.6283 25.3593 17.464 26.4599 16.4889 27.1714C15.7768 27.6829 15.0318 28.1609 14.2978 28.6501C13.3666 29.2727 12.4354 29.8953 11.4932 30.4956C11.0769 30.7624 10.8907 31.1071 10.9235 31.6074C10.9455 31.9743 10.9345 32.3523 10.9345 32.7191C10.9345 33.4529 11.0112 33.5307 11.7562 33.5307C13.7062 33.5307 15.6673 33.5307 17.6173 33.5196C17.7926 33.5196 17.9789 33.5085 18.187 33.4974C18.187 30.0398 18.187 26.6156 18.187 23.1135C17.3544 23.1135 16.5218 23.0802 15.6892 23.1246C15.0976 23.1469 14.6155 22.969 14.2211 22.5354C13.7062 21.9573 13.1913 21.3903 12.7093 20.7788C12.3258 20.2896 12.5778 19.5892 13.1694 19.4114C13.3557 19.3558 13.5638 19.3446 13.761 19.3446C17.7598 19.3446 21.7585 19.3335 25.7572 19.3558C26.0859 19.3558 26.4803 19.4447 26.7104 19.6448C27.0281 19.9116 27.0828 20.3452 26.8418 20.7566C26.809 20.8233 26.7542 20.8789 26.7104 20.9345C25.0561 23.1024 25.0342 23.1246 22.3391 23.1246C21.9886 23.1024 21.6489 23.1024 21.2326 23.1024Z" fill="white"/>
<path d="M19.7198 6.75952C18.8982 5.19194 18.0436 3.74665 17.7698 2.05677C17.6492 1.33413 17.956 0.800478 18.5476 0.411362C19.2597 -0.0555778 20.0047 -0.177871 20.7496 0.311304C21.396 0.733773 21.8233 1.32301 21.6699 2.11236C21.3631 3.75777 20.5415 5.20306 19.7198 6.75952Z" fill="white"/>
<path d="M27.2905 7.60449C27.0495 5.89238 26.8304 4.28033 27.0933 2.65715C27.2138 1.85669 27.8054 1.44533 28.5504 1.26745C29.3721 1.06734 30.0184 1.37863 30.5114 2.03457C30.9606 2.64604 31.0921 3.31309 30.6867 4.00239C29.8431 5.43656 28.5614 6.43714 27.2905 7.60449Z" fill="white"/>
<path d="M33.7871 9.61679C34.5321 8.31603 35.2113 6.9708 36.022 5.7145C36.6246 4.79174 37.5448 4.66944 38.476 5.18085C39.2977 5.63668 39.6921 6.62615 39.3415 7.56003C39.1991 7.92691 38.9033 8.32715 38.5746 8.50503C37.1395 9.28327 35.5509 9.4945 33.9843 9.79468C33.9076 9.72797 33.8528 9.67238 33.7871 9.61679Z" fill="white"/>
<path d="M25.4276 17.11C25.9863 15.7314 26.4793 14.3306 27.1148 12.9854C27.5968 11.9515 28.517 11.6846 29.5578 12.1071C30.3795 12.4406 30.9053 13.4523 30.6534 14.3973C30.5548 14.7642 30.3028 15.1533 30.007 15.3757C28.6923 16.3429 27.1367 16.7542 25.6248 17.2434C25.5591 17.1989 25.4933 17.1545 25.4276 17.11Z" fill="white"/>
<path d="M13.815 17.2434C12.2813 16.7765 10.7585 16.3095 9.41093 15.3868C8.7536 14.931 8.64404 14.2417 8.78646 13.5079C8.93984 12.7074 9.42188 12.1849 10.2107 12.007C10.9557 11.8514 11.6458 11.9626 12.1169 12.6296C12.336 12.9298 12.5332 13.2522 12.6647 13.5857C13.1029 14.7531 13.5192 15.9427 13.9355 17.1211C13.9027 17.1656 13.8589 17.1989 13.815 17.2434Z" fill="white"/>
<path d="M5.48877 9.78345C3.94405 9.49439 2.36647 9.28316 0.942258 8.53828C0.241108 8.1714 -0.0656438 7.55993 0.0219998 6.69276C0.0986881 5.8367 0.580728 5.23635 1.38048 5.00288C2.14736 4.78053 2.90329 4.85836 3.3415 5.55876C4.16316 6.87064 4.89718 8.26034 5.66406 9.61668C5.59833 9.67227 5.54355 9.72786 5.48877 9.78345Z" fill="white"/>
<path d="M11.9855 7.58215C10.9557 6.4704 9.88209 5.39199 8.8961 4.23577C8.37024 3.61318 8.43597 2.74601 8.8961 2.06784C9.33432 1.4119 10.156 1.07838 10.9119 1.25626C11.7116 1.43414 12.358 2.04561 12.369 2.84607C12.4018 4.39141 12.3361 5.93675 12.3032 7.4821C12.2046 7.51545 12.0951 7.5488 11.9855 7.58215Z" fill="white"/>
<path d="M19.775 16.8209C18.9643 15.32 18.2303 13.9415 17.8578 12.3961C17.6716 11.6068 18.0222 10.8508 18.7233 10.395C19.3916 9.96136 20.2352 9.99472 20.8815 10.4617C21.5608 10.9619 21.8346 11.6957 21.6046 12.5073C21.4403 13.0965 21.2431 13.6746 21.002 14.2305C20.6405 15.0755 20.2352 15.8759 19.775 16.8209Z" fill="white"/>
</g>
<defs>
<clipPath id="clip0_1504_2896">
<rect width="39.4615" height="38" fill="white" transform="translate(39.4619 38) rotate(-180)"/>
</clipPath>
</defs>
</svg>
