<?xml version="1.0" encoding="utf-8"?>
<!-- Generator: Adobe Illustrator 27.0.1, SVG Export Plug-In . SVG Version: 6.00 Build 0)  -->
<svg version="1.1" id="Layer_2" xmlns="http://www.w3.org/2000/svg" xmlns:xlink="http://www.w3.org/1999/xlink" x="0px" y="0px"
	 viewBox="0 0 512 512" style="enable-background:new 0 0 512 512;" xml:space="preserve">
<style type="text/css">
	.st0{fill:#FFFFFF;}
</style>
<g>
	<path class="st0" d="M242.029,319.43c-0.05-0.26-0.13-0.51-0.229-0.75s-0.23-0.47-0.37-0.689c-0.15-0.221-0.31-0.421-0.5-0.61
		c-0.18-0.18-0.39-0.35-0.61-0.5c-0.21-0.14-0.439-0.26-0.689-0.36c-0.24-0.1-0.49-0.18-0.74-0.229c-0.52-0.11-1.05-0.11-1.57,0
		c-0.25,0.05-0.51,0.13-0.75,0.229c-0.239,0.101-0.47,0.221-0.689,0.36c-0.22,0.15-0.42,0.32-0.61,0.5
		c-0.74,0.74-1.17,1.78-1.17,2.83s0.43,2.09,1.18,2.83c0.74,0.74,1.771,1.17,2.82,1.17c1.061,0,2.09-0.43,2.83-1.17
		c0.75-0.75,1.18-1.78,1.18-2.83C242.109,319.95,242.08,319.689,242.029,319.43z"/>
	<path class="st0" d="M277.59,318.68c-0.1-0.24-0.23-0.47-0.37-0.689c-0.15-0.221-0.31-0.421-0.5-0.61
		c-0.92-0.93-2.31-1.36-3.61-1.09c-0.25,0.05-0.5,0.13-0.75,0.229c-0.239,0.101-0.47,0.221-0.689,0.36
		c-0.22,0.15-0.42,0.32-0.601,0.5c-0.189,0.189-0.359,0.39-0.5,0.61c-0.14,0.22-0.27,0.449-0.369,0.689
		c-0.101,0.24-0.181,0.49-0.23,0.75s-0.07,0.521-0.07,0.78s0.021,0.52,0.07,0.78c0.05,0.26,0.13,0.51,0.23,0.75
		c0.1,0.239,0.229,0.47,0.369,0.689c0.141,0.22,0.311,0.42,0.5,0.61c0.181,0.18,0.391,0.35,0.601,0.5
		c0.22,0.14,0.45,0.26,0.689,0.359c0.25,0.101,0.5,0.181,0.75,0.23c0.261,0.05,0.53,0.08,0.79,0.08c0.261,0,0.521-0.03,0.78-0.08
		c0.25-0.05,0.5-0.13,0.75-0.23c0.24-0.1,0.47-0.22,0.68-0.359c0.221-0.15,0.431-0.32,0.61-0.5c0.19-0.19,0.35-0.391,0.5-0.61
		c0.14-0.22,0.271-0.45,0.37-0.689c0.1-0.24,0.18-0.49,0.229-0.75c0.051-0.261,0.08-0.521,0.08-0.78s-0.029-0.521-0.08-0.78
		C277.77,319.17,277.689,318.92,277.59,318.68z"/>
	<path class="st0" d="M317.855,339.076c2.209,0,4-1.791,4-4V161.259c0-2.209-1.791-4-4-4H194.145c-2.209,0-4,1.791-4,4v173.817
		c0,2.209,1.791,4,4,4H317.855z M313.855,301.344H260v-21.731h53.855V301.344z M252,301.344h-53.855v-21.731H252V301.344z
		 M198.145,309.344H252v21.732h-53.855V309.344z M260,331.076v-21.732h53.855v21.732H260z M313.855,271.612H260V165.259h53.855
		V271.612z M252,165.259v106.354h-53.855V165.259H252z"/>
	<path class="st0" d="M235.279,293.31c0.74,0.74,1.771,1.17,2.82,1.17c1.061,0,2.09-0.43,2.83-1.17c0.18-0.189,0.35-0.39,0.5-0.609
		c0.14-0.221,0.271-0.45,0.37-0.69s0.18-0.5,0.229-0.75c0.051-0.26,0.08-0.52,0.08-0.78c0-1.05-0.43-2.09-1.18-2.83
		c-0.18-0.18-0.39-0.35-0.61-0.5c-0.21-0.14-0.439-0.27-0.689-0.369c-0.24-0.091-0.49-0.171-0.74-0.221
		c-0.52-0.109-1.05-0.109-1.57,0c-0.25,0.05-0.51,0.13-0.75,0.221c-0.239,0.1-0.47,0.229-0.689,0.369c-0.22,0.15-0.42,0.32-0.61,0.5
		c-0.74,0.74-1.17,1.771-1.17,2.83C234.1,291.53,234.529,292.56,235.279,293.31z"/>
	<path class="st0" d="M238.1,233.46c1.061,0,2.09-0.43,2.83-1.17c0.75-0.75,1.18-1.78,1.18-2.83c0-0.26-0.029-0.52-0.08-0.78
		c-0.05-0.25-0.13-0.51-0.229-0.75c-0.1-0.24-0.23-0.47-0.37-0.69c-0.15-0.22-0.31-0.42-0.5-0.61c-0.74-0.74-1.77-1.17-2.83-1.17
		c-1.05,0-2.08,0.43-2.82,1.17c-0.189,0.19-0.359,0.39-0.5,0.61c-0.149,0.22-0.27,0.45-0.369,0.69c-0.101,0.24-0.181,0.49-0.23,0.75
		c-0.05,0.26-0.08,0.52-0.08,0.78c0,1.06,0.43,2.09,1.18,2.83C236.02,233.03,237.05,233.46,238.1,233.46z"/>
	<path class="st0" d="M269.97,291.26c0.05,0.26,0.13,0.51,0.23,0.75c0.1,0.24,0.229,0.47,0.369,0.69
		c0.141,0.22,0.311,0.42,0.5,0.609c0.181,0.181,0.391,0.351,0.601,0.49c0.22,0.15,0.45,0.27,0.689,0.37
		c0.25,0.1,0.5,0.18,0.75,0.229c0.261,0.051,0.53,0.08,0.79,0.08c0.261,0,0.521-0.029,0.78-0.08c0.25-0.05,0.5-0.13,0.75-0.229
		c0.24-0.101,0.47-0.22,0.68-0.37c0.221-0.14,0.431-0.31,0.61-0.49c0.19-0.189,0.35-0.39,0.5-0.609c0.14-0.221,0.271-0.45,0.37-0.69
		s0.18-0.49,0.229-0.75c0.051-0.26,0.08-0.52,0.08-0.78c0-0.26-0.029-0.529-0.08-0.779c-0.05-0.261-0.13-0.511-0.229-0.75
		c-0.1-0.24-0.23-0.48-0.37-0.69c-0.15-0.22-0.31-0.43-0.5-0.61c-0.92-0.93-2.31-1.35-3.61-1.09c-0.25,0.05-0.5,0.12-0.75,0.221
		c-0.239,0.1-0.47,0.229-0.689,0.369c-0.22,0.15-0.42,0.32-0.601,0.5c-0.189,0.181-0.359,0.391-0.5,0.61
		c-0.14,0.21-0.27,0.45-0.369,0.69c-0.101,0.239-0.181,0.489-0.23,0.75c-0.05,0.25-0.07,0.52-0.07,0.779
		C269.899,290.74,269.92,291,269.97,291.26z"/>
	<path class="st0" d="M269.97,230.24c0.05,0.26,0.13,0.51,0.23,0.75c0.1,0.24,0.229,0.47,0.369,0.69c0.141,0.22,0.311,0.42,0.5,0.61
		c0.181,0.18,0.381,0.35,0.601,0.5c0.22,0.14,0.45,0.27,0.689,0.37c0.25,0.09,0.5,0.17,0.75,0.22c0.261,0.05,0.53,0.08,0.79,0.08
		c1.051,0,2.08-0.43,2.82-1.17c0.19-0.19,0.35-0.39,0.5-0.61c0.14-0.22,0.271-0.45,0.37-0.69c0.1-0.24,0.18-0.49,0.229-0.75
		c0.051-0.25,0.08-0.52,0.08-0.78c0-0.26-0.029-0.52-0.08-0.78c-0.05-0.25-0.13-0.51-0.229-0.75c-0.1-0.24-0.23-0.47-0.37-0.69
		c-0.15-0.22-0.31-0.42-0.5-0.61c-0.92-0.92-2.31-1.35-3.61-1.09c-0.25,0.05-0.5,0.13-0.75,0.23c-0.239,0.1-0.47,0.22-0.689,0.37
		c-0.22,0.14-0.42,0.31-0.601,0.49c-0.189,0.19-0.359,0.39-0.5,0.61c-0.14,0.22-0.27,0.45-0.369,0.69
		c-0.101,0.24-0.181,0.5-0.23,0.75c-0.05,0.26-0.07,0.52-0.07,0.78C269.899,229.72,269.92,229.99,269.97,230.24z"/>
	<path class="st0" d="M317.855,368.357c2.209,0,4-1.791,4-4v-11.666h9.616c2.209,0,4-1.791,4-4V147.643c0-2.209-1.791-4-4-4H180.528
		c-2.209,0-4,1.791-4,4v201.048c0,2.209,1.791,4,4,4h9.616v11.666c0,2.209,1.791,4,4,4s4-1.791,4-4v-11.666h115.711v11.666
		C313.855,366.566,315.646,368.357,317.855,368.357z M184.528,151.643h142.943v193.048H184.528V151.643z"/>
</g>
</svg>
