<?xml version="1.0" encoding="utf-8"?>
<!-- Generator: Adobe Illustrator 27.0.1, SVG Export Plug-In . SVG Version: 6.00 Build 0)  -->
<svg version="1.1" id="Layer_2" xmlns="http://www.w3.org/2000/svg" xmlns:xlink="http://www.w3.org/1999/xlink" x="0px" y="0px"
	 viewBox="0 0 512 512" style="enable-background:new 0 0 512 512;" xml:space="preserve">
<style type="text/css">
	.st0{fill:#FFFFFF;}
</style>
<g>
	<path class="st0" d="M230.606,148.192c1.562-1.562,1.562-4.094,0-5.656c-1.562-1.562-4.094-1.562-5.657,0l-4.689,4.688
		c-1.818,1.818-2.82,4.236-2.82,6.809s1.002,4.99,2.821,6.81c0.415,0.414,0.476,0.898,0.476,1.15s-0.062,0.737-0.477,1.152
		l-5.091,5.091c-1.562,1.562-1.562,4.095,0,5.656c0.781,0.781,1.805,1.172,2.829,1.172s2.047-0.391,2.829-1.172l5.091-5.091
		c1.818-1.818,2.82-4.236,2.82-6.809s-1.001-4.99-2.82-6.808c-0.635-0.636-0.635-1.669,0-2.305L230.606,148.192z"/>
	<path class="st0" d="M264.284,148.192c1.562-1.562,1.562-4.095,0-5.656c-1.562-1.562-4.095-1.562-5.657,0l-4.688,4.688
		c-3.754,3.754-3.754,9.863,0,13.618c0.415,0.414,0.477,0.898,0.477,1.15s-0.062,0.737-0.477,1.152l-5.091,5.091
		c-1.562,1.562-1.562,4.095,0,5.656c0.781,0.781,1.805,1.172,2.829,1.172s2.047-0.391,2.829-1.172l5.091-5.091
		c1.818-1.818,2.82-4.236,2.82-6.809s-1.001-4.99-2.82-6.808c-0.635-0.636-0.635-1.669,0-2.305L264.284,148.192z"/>
	<path class="st0" d="M297.96,148.192c1.562-1.562,1.562-4.094,0-5.656c-1.562-1.562-4.094-1.562-5.657,0l-4.689,4.688
		c-3.753,3.754-3.753,9.863,0.001,13.618c0.415,0.414,0.476,0.898,0.476,1.15s-0.062,0.737-0.477,1.152l-5.09,5.091
		c-1.562,1.562-1.562,4.095,0,5.656c0.781,0.781,1.804,1.172,2.828,1.172s2.047-0.391,2.829-1.172l5.09-5.091
		c1.818-1.818,2.82-4.236,2.82-6.809s-1.001-4.99-2.82-6.808c-0.635-0.636-0.635-1.669,0-2.305L297.96,148.192z"/>
	<path class="st0" d="M356.565,224.757c-2.209,0-4,1.791-4,4c0,6.993-5.689,12.683-12.682,12.683h-10.197
		c1.069-5.034,1.639-10.225,1.639-15.514v-9.368c3.938-0.324,7.597-2.002,10.418-4.824c3.154-3.154,4.892-7.352,4.892-11.817
		c0-9.22-7.496-16.721-16.71-16.721h-146.72c-4.474,0-8.674,1.743-11.819,4.902c-3.154,3.154-4.891,7.352-4.891,11.818
		c0,8.741,6.75,15.924,15.31,16.639v9.371c0,5.289,0.57,10.48,1.639,15.514h-11.328c-6.993,0-12.682-5.689-12.682-12.683
		c0-2.209-1.791-4-4-4s-4,1.791-4,4c0,11.404,9.278,20.683,20.682,20.683h13.437c0.019,0,0.037-0.005,0.056-0.006
		c6.744,20.326,22.039,37.167,42.362,45.572l-27.765,70.158c-0.813,2.054,0.193,4.378,2.248,5.191
		c0.483,0.19,0.981,0.281,1.471,0.281c1.593,0,3.099-0.958,3.72-2.529l16.544-41.803c2.499,1.202,5.059,2.28,7.662,3.191
		c7.911,2.777,16.226,4.186,24.715,4.186c8.49,0,16.805-1.408,24.711-4.185c2.606-0.912,5.167-1.99,7.666-3.192l16.544,41.804
		c0.622,1.571,2.127,2.529,3.72,2.529c0.49,0,0.988-0.091,1.471-0.281c2.054-0.813,3.061-3.138,2.248-5.191l-27.765-70.159
		c20.322-8.405,35.615-25.243,42.36-45.566h12.364c11.404,0,20.682-9.278,20.682-20.683
		C360.565,226.548,358.774,224.757,356.565,224.757z M174.496,199.916c0-2.33,0.905-4.519,2.555-6.168
		c1.639-1.646,3.825-2.553,6.155-2.553h146.72c4.803,0,8.71,3.912,8.71,8.721c0,2.329-0.905,4.518-2.549,6.161
		c-1.643,1.644-3.831,2.549-6.161,2.549h-2.6h-141.52h-2.6C178.403,208.626,174.496,204.719,174.496,199.916z M278.63,321.946
		c-7.056,2.479-14.48,3.734-22.065,3.734c-7.584,0-15.008-1.256-22.069-3.735c-2.505-0.877-4.966-1.919-7.358-3.095l8.382-21.18
		c6.798,1.995,13.858,3.016,21.045,3.016c7.189,0,14.249-1.021,21.045-3.016l8.382,21.18
		C283.6,320.026,281.139,321.069,278.63,321.946z M278.63,288.951c-7.056,2.479-14.48,3.734-22.065,3.734
		c-7.584,0-15.008-1.256-22.069-3.735c-26.731-9.351-44.69-34.678-44.69-63.024v-9.3h133.52v9.3
		C323.326,254.272,305.366,279.6,278.63,288.951z"/>
</g>
</svg>
