<?xml version="1.0" encoding="utf-8"?>
<!-- Generator: Adobe Illustrator 27.0.1, SVG Export Plug-In . SVG Version: 6.00 Build 0)  -->
<svg version="1.1" id="Layer_2" xmlns="http://www.w3.org/2000/svg" xmlns:xlink="http://www.w3.org/1999/xlink" x="0px" y="0px"
	 viewBox="0 0 512 512" style="enable-background:new 0 0 512 512;" xml:space="preserve">
<style type="text/css">
	.st0{fill:#FFFFFF;}
</style>
<g>
	<path class="st0" d="M252.31,257.25c0.101,0.24,0.22,0.47,0.36,0.689c0.149,0.221,0.32,0.42,0.5,0.61
		c0.75,0.74,1.78,1.17,2.83,1.17c0.26,0,0.52-0.03,0.779-0.08c0.261-0.05,0.511-0.13,0.75-0.229c0.24-0.101,0.471-0.221,0.69-0.37
		c0.22-0.141,0.42-0.311,0.61-0.49c0.739-0.75,1.17-1.78,1.17-2.83c0-1.06-0.431-2.09-1.17-2.83c-0.19-0.189-0.391-0.35-0.61-0.5
		c-0.22-0.14-0.45-0.27-0.69-0.37c-0.239-0.1-0.489-0.17-0.75-0.229c-0.52-0.101-1.05-0.101-1.56,0c-0.26,0.06-0.51,0.13-0.75,0.229
		c-0.24,0.101-0.479,0.23-0.69,0.37c-0.22,0.15-0.43,0.311-0.609,0.5c-0.74,0.74-1.17,1.771-1.17,2.83c0,0.26,0.029,0.521,0.08,0.78
		C252.13,256.75,252.21,257,252.31,257.25z"/>
	<path class="st0" d="M353.724,295.244h-16.771v-8.642c2.607-0.682,5.075-2.027,7.113-4.066c10.164-10.164,10.164-26.702,0-36.867
		l-8.285-8.285c-1.561-1.562-4.096-1.562-5.656,0l-8.285,8.285c-10.164,10.165-10.164,26.703,0,36.867
		c2.039,2.039,4.506,3.384,7.113,4.066v8.642h-57.447v-21.111c6.231-0.557,11.135-5.802,11.135-12.176v-19.97l10.878-28.249
		c0.474-1.23,0.312-2.614-0.435-3.701s-1.979-1.736-3.298-1.736h-67.572c-1.318,0-2.552,0.649-3.298,1.736s-0.908,2.471-0.435,3.701
		l10.878,28.249v19.97c0,6.374,4.903,11.619,11.135,12.176v21.111h-57.447v-8.642c2.607-0.682,5.075-2.027,7.113-4.066
		c10.164-10.164,10.164-26.702,0-36.867l-8.285-8.285c-1.561-1.562-4.096-1.562-5.656,0l-8.285,8.285
		c-10.164,10.165-10.164,26.703,0,36.867c2.039,2.039,4.506,3.384,7.113,4.066v8.642h-16.771c-7.936,0-14.392,6.456-14.392,14.393
		s6.456,14.393,14.392,14.393h195.447c7.936,0,14.392-6.456,14.392-14.393S361.659,295.244,353.724,295.244z M327.496,251.325
		l5.457-5.456l5.457,5.456c7.045,7.046,7.045,18.51,0,25.555c-3.01,3.008-7.904,3.008-10.914,0
		C320.451,269.835,320.451,258.371,327.496,251.325z M173.59,251.325l5.457-5.456l5.457,5.456c7.045,7.046,7.045,18.51,0,25.555
		c-3.01,3.008-7.904,3.008-10.914,0C166.545,269.835,166.545,258.371,173.59,251.325z M283.96,216.301l-8.065,20.943h-39.789
		l-8.065-20.943H283.96z M237.359,261.957v-16.713h37.281v16.713c0,2.333-1.898,4.231-4.231,4.231h-2.903h-23.012h-2.903
		C239.258,266.188,237.359,264.29,237.359,261.957z M248.494,274.188h15.012v21.056h-15.012V274.188z M353.724,316.029H158.276
		c-3.524,0-6.392-2.868-6.392-6.393s2.867-6.393,6.392-6.393h86.218h23.012h86.218c3.524,0,6.392,2.868,6.392,6.393
		S357.248,316.029,353.724,316.029z"/>
	<path class="st0" d="M207.852,192.525c-8.251,2.317-14.939,8.354-19.879,17.943c-1.012,1.964-0.24,4.376,1.724,5.388
		c0.586,0.302,1.212,0.445,1.829,0.445c1.449,0,2.849-0.791,3.559-2.169c3.868-7.509,8.87-12.181,14.868-13.888
		c9.421-2.685,18.621,2.698,18.805,2.807c1.886,1.143,4.341,0.546,5.487-1.339c1.15-1.887,0.554-4.348-1.333-5.497
		C232.419,195.916,220.711,188.91,207.852,192.525z"/>
	<path class="st0" d="M242.367,199.493c0.566,0,1.144-0.121,1.69-0.377c2.002-0.936,2.866-3.316,1.931-5.317
		c-0.304-0.65-7.621-15.977-23.433-21.081c-10.128-3.271-21.232-1.599-33.004,4.97c-1.929,1.076-2.62,3.513-1.544,5.442
		c1.076,1.929,3.51,2.618,5.442,1.544c9.726-5.427,18.666-6.896,26.583-4.364c12.459,3.986,18.631,16.715,18.711,16.885
		C239.426,198.643,240.864,199.493,242.367,199.493z"/>
	<path class="st0" d="M249.83,191.425c0.182,0.023,0.36,0.035,0.538,0.035c1.973,0,3.689-1.459,3.96-3.467
		c0.062-0.472,1.47-11.635-5.535-20.162c-4.5-5.478-11.267-8.532-20.112-9.08c-2.201-0.146-4.103,1.54-4.239,3.745
		s1.54,4.103,3.745,4.239c6.51,0.403,11.35,2.464,14.385,6.126c4.779,5.767,3.845,13.923,3.825,14.081
		C246.111,189.126,247.646,191.131,249.83,191.425z"/>
	<path class="st0" d="M283.813,166.735c2.205-0.137,3.882-2.034,3.745-4.239c-0.136-2.205-2.022-3.865-4.239-3.745
		c-8.846,0.548-15.612,3.603-20.112,9.08c-7.005,8.527-5.598,19.69-5.535,20.162c0.271,2.007,1.984,3.459,3.956,3.459
		c0.173,0,0.348-0.012,0.523-0.034c2.184-0.284,3.727-2.289,3.452-4.474c-0.011-0.082-0.977-8.289,3.825-14.083
		C272.464,169.199,277.304,167.139,283.813,166.735z"/>
	<path class="st0" d="M322.448,177.688c-11.771-6.567-22.877-8.241-33.004-4.97c-15.812,5.104-23.129,20.431-23.433,21.081
		c-0.936,2.001-0.071,4.382,1.931,5.317c0.548,0.256,1.124,0.377,1.69,0.377c1.506,0,2.947-0.854,3.627-2.308
		c0.06-0.127,6.109-12.809,18.644-16.855c7.926-2.559,16.894-1.099,26.646,4.344c1.932,1.075,4.366,0.385,5.442-1.544
		C325.068,181.2,324.377,178.764,322.448,177.688z"/>
	<path class="st0" d="M304.148,192.525c-12.859-3.614-24.567,3.39-25.06,3.69c-1.887,1.149-2.483,3.61-1.333,5.497
		c1.147,1.886,3.607,2.484,5.497,1.333c0.091-0.055,9.187-5.503,18.732-2.818c6.025,1.692,11.049,6.371,14.931,13.905
		c0.71,1.378,2.108,2.169,3.559,2.169c0.617,0,1.243-0.144,1.829-0.445c1.964-1.012,2.735-3.424,1.724-5.388
		C319.088,200.88,312.399,194.843,304.148,192.525z"/>
</g>
</svg>
