<?xml version="1.0" encoding="utf-8"?>
<!-- Generator: Adobe Illustrator 27.0.1, SVG Export Plug-In . SVG Version: 6.00 Build 0)  -->
<svg version="1.1" id="Layer_2" xmlns="http://www.w3.org/2000/svg" xmlns:xlink="http://www.w3.org/1999/xlink" x="0px" y="0px"
	 viewBox="0 0 512 512" style="enable-background:new 0 0 512 512;" xml:space="preserve">
<style type="text/css">
	.st0{fill:#FFFFFF;}
</style>
<g>
	<path class="st0" d="M328.226,203.603l-63.852-56.061c-4.774-4.181-11.975-4.179-16.752,0.004l-63.846,56.056
		c-2.549,2.235-4.074,5.331-4.292,8.715c-0.219,3.386,0.894,6.654,3.132,9.198c2.236,2.549,5.331,4.073,8.715,4.293
		c0.28,0.018,0.56,0.027,0.838,0.027c3.083-0.001,6.026-1.107,8.361-3.161l0.256-0.225v72.856c0,2.209,1.791,4,4,4h36.529v60.303
		h-42.734c-2.209,0-4,1.791-4,4s1.791,4,4,4h46.734h21.369h46.734c2.209,0,4-1.791,4-4s-1.791-4-4-4h-42.734v-60.303h36.529
		c2.209,0,4-1.791,4-4v-72.856l0.254,0.223c2.319,2.039,5.295,3.161,8.38,3.161c3.656,0,7.132-1.573,9.536-4.317
		c2.24-2.548,3.352-5.814,3.133-9.199C332.298,208.933,330.773,205.837,328.226,203.603z M286.034,291.302h-19.35h-21.369h-19.35
		v-67.635L256,195.397l30.034,28.27V291.302z M262.685,359.607h-13.369v-60.303h13.369V359.607z M303.214,215.428v75.877h-9.18
		v-69.366c0-1.103-0.456-2.157-1.258-2.913l-34.034-32.034c-1.541-1.449-3.942-1.449-5.483,0l-34.034,32.034
		c-0.803,0.756-1.258,1.811-1.258,2.913v69.366h-9.18v-75.877L256,173.985L303.214,215.428z M323.374,216.235
		c-0.002,0.002-0.004,0.004-0.006,0.007c-0.886,1.011-2.169,1.591-3.521,1.591c-0.807,0-1.999-0.203-3.1-1.171l-58.109-51.005
		c-1.51-1.326-3.768-1.326-5.277,0l-58.112,51.007c-0.942,0.829-2.147,1.244-3.402,1.16c-1.25-0.081-2.393-0.644-3.222-1.589
		c-0.829-0.942-1.241-2.15-1.16-3.402c0.081-1.249,0.644-2.392,1.586-3.219l63.844-56.053c0.885-0.775,1.995-1.163,3.105-1.163
		c1.108,0,2.216,0.387,3.098,1.159l63.849,56.058c0.941,0.826,1.504,1.969,1.585,3.218
		C324.615,214.085,324.203,215.293,323.374,216.235z"/>
	<path class="st0" d="M233.989,246.675c0,12.138,9.874,22.012,22.011,22.012s22.011-9.874,22.011-22.012
		c0-12.137-9.874-22.011-22.011-22.011S233.989,234.538,233.989,246.675z M270.011,246.675c0,7.727-6.286,14.012-14.011,14.012
		s-14.011-6.285-14.011-14.012c0-7.726,6.286-14.011,14.011-14.011S270.011,238.949,270.011,246.675z"/>
	<path class="st0" d="M274.011,276.15h-36.022c-2.209,0-4,1.791-4,4s1.791,4,4,4h36.022c2.209,0,4-1.791,4-4
		S276.22,276.15,274.011,276.15z"/>
</g>
</svg>
