<?xml version="1.0" encoding="utf-8"?>
<!-- Generator: Adobe Illustrator 27.0.1, SVG Export Plug-In . SVG Version: 6.00 Build 0)  -->
<svg version="1.1" id="Layer_2" xmlns="http://www.w3.org/2000/svg" xmlns:xlink="http://www.w3.org/1999/xlink" x="0px" y="0px"
	 viewBox="0 0 512 512" style="enable-background:new 0 0 512 512;" xml:space="preserve">
<style type="text/css">
	.st0{fill:#FFFFFF;}
</style>
<g>
	<path class="st0" d="M223.918,238.085c8.829,0,16.012-7.183,16.012-16.011c0-8.829-7.183-16.012-16.012-16.012
		s-16.012,7.183-16.012,16.012C207.906,230.903,215.089,238.085,223.918,238.085z M223.918,214.062c4.417,0,8.012,3.594,8.012,8.012
		s-3.594,8.011-8.012,8.011s-8.012-3.594-8.012-8.011S219.5,214.062,223.918,214.062z"/>
	<path class="st0" d="M352.857,348.857V163.143c0-2.209-1.791-4-4-4H163.143c-2.209,0-4,1.791-4,4v185.714c0,2.209,1.791,4,4,4
		h185.714C351.066,352.857,352.857,351.066,352.857,348.857z M344.857,344.857H167.143V167.143h177.714V344.857z"/>
	<path class="st0" d="M186.526,322.259c0.023,0.126,0.06,0.245,0.094,0.366c0.036,0.128,0.069,0.255,0.118,0.379
		c0.047,0.12,0.107,0.232,0.165,0.346c0.059,0.117,0.116,0.234,0.188,0.346c0.07,0.109,0.151,0.208,0.231,0.31
		c0.08,0.102,0.156,0.204,0.247,0.299c0.101,0.106,0.214,0.198,0.327,0.292c0.071,0.06,0.13,0.129,0.206,0.184
		c0.019,0.014,0.04,0.021,0.059,0.034c0.127,0.089,0.265,0.161,0.403,0.235c0.096,0.052,0.188,0.112,0.286,0.156
		c0.122,0.053,0.252,0.088,0.379,0.129c0.123,0.04,0.245,0.087,0.37,0.115c0.108,0.024,0.221,0.029,0.333,0.044
		c0.152,0.02,0.303,0.043,0.455,0.046c0.023,0,0.045,0.007,0.069,0.007h131.093c0.001,0,0.001,0,0.002,0c0,0,0.001,0,0.001,0
		c0.243,0,0.486-0.029,0.727-0.074c0.078-0.014,0.151-0.036,0.227-0.055c0.158-0.039,0.313-0.086,0.467-0.145
		c0.084-0.032,0.166-0.066,0.247-0.103c0.137-0.063,0.269-0.137,0.4-0.217c0.079-0.048,0.158-0.093,0.233-0.146
		c0.028-0.02,0.058-0.033,0.086-0.053c0.071-0.053,0.125-0.118,0.191-0.175c0.111-0.094,0.221-0.188,0.321-0.294
		c0.089-0.094,0.166-0.195,0.244-0.296c0.08-0.103,0.159-0.204,0.229-0.314c0.07-0.111,0.128-0.227,0.187-0.344
		c0.058-0.115,0.115-0.228,0.161-0.349c0.047-0.123,0.082-0.249,0.117-0.376c0.034-0.122,0.068-0.242,0.09-0.368
		c0.025-0.143,0.034-0.287,0.044-0.432c0.006-0.087,0.026-0.171,0.026-0.259V190.454c0-2.209-1.791-4-4-4H190.454
		c-2.209,0-4,1.791-4,4v131.092c0,0.092,0.021,0.179,0.027,0.269C186.491,321.964,186.499,322.112,186.526,322.259z
		 M287.893,317.546l-16.127-22.16l12.65-16.978l29.162,39.138H287.893z M277.999,317.546h-79.687l39.843-54.748L277.999,317.546z
		 M317.546,194.454v115.03l-29.923-40.159c-0.755-1.014-1.944-1.61-3.208-1.61c-1.264,0-2.453,0.597-3.208,1.61l-14.372,19.289
		l-25.447-34.966c-0.753-1.035-1.955-1.646-3.234-1.646s-2.481,0.612-3.234,1.646l-40.467,55.605V194.454H317.546z"/>
</g>
</svg>
