<?xml version="1.0" encoding="utf-8"?>
<!-- Generator: Adobe Illustrator 27.0.1, SVG Export Plug-In . SVG Version: 6.00 Build 0)  -->
<svg version="1.1" id="Layer_2" xmlns="http://www.w3.org/2000/svg" xmlns:xlink="http://www.w3.org/1999/xlink" x="0px" y="0px"
	 viewBox="0 0 512 512" style="enable-background:new 0 0 512 512;" xml:space="preserve">
<style type="text/css">
	.st0{fill:#FFFFFF;}
</style>
<g>
	<path class="st0" d="M219.262,326.893h73.477c2.209,0,4-1.791,4-4V189.107c0-2.209-1.791-4-4-4h-73.477c-2.209,0-4,1.791-4,4
		v133.786C215.262,325.102,217.053,326.893,219.262,326.893z M223.262,193.107h65.477v125.786h-65.477V193.107z"/>
	<path class="st0" d="M318.288,375.429c2.209,0,4-1.791,4-4v-26.538V167.109v-26.538c0-2.209-1.791-4-4-4s-4,1.791-4,4v22.538
		h-7.572v-15.466c0-2.209-1.791-4-4-4s-4,1.791-4,4v15.466h-7.571v-15.466c0-2.209-1.791-4-4-4s-4,1.791-4,4v15.466h-7.572v-15.466
		c0-2.209-1.791-4-4-4s-4,1.791-4,4v15.466H260v-15.466c0-2.209-1.791-4-4-4s-4,1.791-4,4v15.466h-7.572v-15.466
		c0-2.209-1.791-4-4-4s-4,1.791-4,4v15.466h-7.572v-15.466c0-2.209-1.791-4-4-4s-4,1.791-4,4v15.466h-7.571v-15.466
		c0-2.209-1.791-4-4-4s-4,1.791-4,4v15.466h-7.572v-22.538c0-2.209-1.791-4-4-4s-4,1.791-4,4v26.538v177.781v26.538
		c0,2.209,1.791,4,4,4s4-1.791,4-4v-22.538h7.572v15.467c0,2.209,1.791,4,4,4s4-1.791,4-4v-15.467h7.571v15.467c0,2.209,1.791,4,4,4
		s4-1.791,4-4v-15.467h7.572v15.467c0,2.209,1.791,4,4,4s4-1.791,4-4v-15.467H252v15.467c0,2.209,1.791,4,4,4s4-1.791,4-4v-15.467
		h7.572v15.467c0,2.209,1.791,4,4,4s4-1.791,4-4v-15.467h7.572v15.467c0,2.209,1.791,4,4,4s4-1.791,4-4v-15.467h7.571v15.467
		c0,2.209,1.791,4,4,4s4-1.791,4-4v-15.467h7.572v22.538C314.288,373.638,316.079,375.429,318.288,375.429z M197.712,171.109
		h116.576v169.781H197.712V171.109z"/>
	<path class="st0" d="M259.752,212.471c-0.58-1.571-2.077-2.614-3.752-2.614s-3.172,1.043-3.752,2.614l-15.572,42.143
		c-0.331,0.895-0.331,1.878,0,2.773l15.572,42.143c0.58,1.57,2.077,2.613,3.752,2.613s3.172-1.043,3.752-2.613l15.572-42.143
		c0.331-0.895,0.331-1.878,0-2.773L259.752,212.471z M256,286.603L244.692,256L256,225.397L267.308,256L256,286.603z"/>
</g>
</svg>
