<?xml version="1.0" encoding="utf-8"?>
<!-- Generator: Adobe Illustrator 27.0.1, SVG Export Plug-In . SVG Version: 6.00 Build 0)  -->
<svg version="1.1" id="Layer_2" xmlns="http://www.w3.org/2000/svg" xmlns:xlink="http://www.w3.org/1999/xlink" x="0px" y="0px"
	 viewBox="0 0 512 512" style="enable-background:new 0 0 512 512;" xml:space="preserve">
<style type="text/css">
	.st0{fill:#FFFFFF;}
</style>
<g>
	<path class="st0" d="M162.606,318.661c4.853,4.854,12.758,4.855,17.626,0l72.284-72.284c1.92-1.922,5.047-1.922,6.969,0
		l72.288,72.288c2.431,2.425,5.623,3.638,8.812,3.638c3.192,0,6.383-1.214,8.811-3.641l12.884-12.884c0,0,0,0,0,0
		c4.859-4.86,4.859-12.767,0-17.626l-97.567-97.566c-4.805-4.804-12.622-4.803-17.426,0l-97.566,97.566
		c-4.859,4.86-4.859,12.767,0,17.627L162.606,318.661z M155.379,293.807l97.566-97.566c1.685-1.686,4.428-1.685,6.112,0
		l97.567,97.566c1.741,1.74,1.74,4.572,0,6.313l-12.884,12.884c-1.737,1.739-4.571,1.737-6.312,0l-72.284-72.284
		c-2.521-2.52-5.831-3.78-9.142-3.78c-3.311,0-6.622,1.26-9.142,3.78L174.579,313c-1.745,1.74-4.579,1.742-6.316,0.003
		l-12.884-12.884c-0.845-0.845-1.311-1.966-1.311-3.156S154.534,294.652,155.379,293.807z"/>
	<path class="st0" d="M340.927,253.931c0.766,0.765,1.789,1.171,2.83,1.171c0.515,0,1.035-0.1,1.53-0.305
		c1.495-0.619,2.469-2.078,2.469-3.695v-71.92c0-6.873-5.591-12.464-12.464-12.464h-18.219c-6.873,0-12.464,5.591-12.464,12.464
		v36.772c0,1.061,0.421,2.078,1.171,2.829L340.927,253.931z M312.607,179.183c0-2.461,2.003-4.464,4.464-4.464h18.219
		c2.461,0,4.464,2.002,4.464,4.464v62.263l-27.148-27.147V179.183z"/>
	<path class="st0" d="M312.892,322.308c2.209,0,4-1.791,4-4s-1.791-4-4-4H199.108c-2.209,0-4,1.791-4,4s1.791,4,4,4H312.892z"/>
</g>
</svg>
