<?xml version="1.0" encoding="utf-8"?>
<!-- Generator: Adobe Illustrator 27.0.1, SVG Export Plug-In . SVG Version: 6.00 Build 0)  -->
<svg version="1.1" id="Layer_2" xmlns="http://www.w3.org/2000/svg" xmlns:xlink="http://www.w3.org/1999/xlink" x="0px" y="0px"
	 viewBox="0 0 512 512" style="enable-background:new 0 0 512 512;" xml:space="preserve">
<style type="text/css">
	.st0{fill:#FFFFFF;}
</style>
<g>
	<path class="st0" d="M312.904,341.942V223.454c0-11.961-7.433-22.522-18.4-26.705v-43.658c0-6.417-5.217-11.638-11.63-11.638
		h-53.748c-6.413,0-11.63,5.221-11.63,11.638v43.658c-10.969,4.186-18.4,14.745-18.4,26.705v118.488
		c0,15.772,12.836,28.604,28.613,28.604h56.582C300.068,370.547,312.904,357.715,312.904,341.942z M225.496,153.091
		c0-2.006,1.628-3.638,3.63-3.638h6.657v25.416c0,2.209,1.791,4,4,4s4-1.791,4-4v-25.416H252v25.416c0,2.209,1.791,4,4,4
		s4-1.791,4-4v-25.416h8.217v25.416c0,2.209,1.791,4,4,4s4-1.791,4-4v-25.416h6.657c2.002,0,3.63,1.632,3.63,3.638v41.843
		c-0.058-0.004-0.116-0.002-0.174-0.007c-0.677-0.048-1.357-0.077-2.039-0.077h-56.582c-0.683,0-1.363,0.03-2.04,0.077
		c-0.057,0.004-0.115,0.002-0.173,0.007V153.091z M207.096,341.942V223.454c0-9.38,6.336-17.581,15.414-19.943
		c1.257-0.329,2.555-0.536,3.874-0.62c0.44-0.028,0.882-0.042,1.325-0.042h56.582c1.773,0,3.523,0.223,5.205,0.663
		c9.072,2.36,15.408,10.562,15.408,19.941v118.488c0,11.361-9.247,20.604-20.613,20.604h-56.582
		C216.343,362.547,207.096,353.304,207.096,341.942z"/>
	<path class="st0" d="M260,303.672v-4.78l24.757-10.832c1.456-0.638,2.396-2.076,2.396-3.665v-16.531c0-2.209-1.791-4-4-4
		s-4,1.791-4,4v13.915L260,290.159V243.17l3.103,3.103c1.561,1.562,4.094,1.562,5.656,0c1.562-1.562,1.562-4.095,0-5.656
		l-9.785-9.786c-0.732-0.821-1.787-1.348-2.974-1.348c-0.005,0-0.01,0.001-0.015,0.001c-0.005,0-0.01-0.001-0.015-0.001
		c-1.061,0-2.078,0.422-2.828,1.172l-10.183,10.183c-1.562,1.562-1.562,4.095,0,5.656c0.78,0.781,1.805,1.172,2.828,1.172
		s2.048-0.391,2.828-1.172l3.385-3.384v30.976l-19.295-3.331v-13.162c0-2.209-1.791-4-4-4s-4,1.791-4,4v16.531
		c0,1.946,1.401,3.61,3.319,3.941L252,282.203v14.115c0,0.005,0,0.01,0,0.015v7.34c-5.103,1.685-8.8,6.491-8.8,12.151
		c0,7.059,5.742,12.801,12.8,12.801s12.8-5.742,12.8-12.801C268.8,310.163,265.103,305.357,260,303.672z M256,320.624
		c-2.646,0-4.8-2.153-4.8-4.801c0-2.646,2.153-4.8,4.8-4.8s4.8,2.153,4.8,4.8C260.8,318.471,258.646,320.624,256,320.624z"/>
</g>
</svg>
