<?xml version="1.0" encoding="utf-8"?>
<!-- Generator: Adobe Illustrator 27.0.1, SVG Export Plug-In . SVG Version: 6.00 Build 0)  -->
<svg version="1.1" id="Layer_2" xmlns="http://www.w3.org/2000/svg" xmlns:xlink="http://www.w3.org/1999/xlink" x="0px" y="0px"
	 viewBox="0 0 512 512" style="enable-background:new 0 0 512 512;" xml:space="preserve">
<style type="text/css">
	.st0{fill:#FFFFFF;}
</style>
<g>
	<path class="st0" d="M304.407,359.406c10.051,0,18.228-8.177,18.228-18.228V170.822c0-10.051-8.177-18.228-18.228-18.228
		s-18.228,8.177-18.228,18.228v5.321h-60.357v-5.321c0-10.051-8.177-18.228-18.228-18.228s-18.228,8.177-18.228,18.228v170.356
		c0,10.051,8.177,18.228,18.228,18.228s18.228-8.177,18.228-18.228v-5.321h60.357v5.321
		C286.179,351.229,294.356,359.406,304.407,359.406z M286.179,252h-60.357v-29.929h60.357V252z M225.821,260h60.357v29.929h-60.357
		V260z M294.179,170.822c0-5.64,4.588-10.228,10.228-10.228s10.228,4.588,10.228,10.228v170.356c0,5.64-4.588,10.228-10.228,10.228
		s-10.228-4.588-10.228-10.228V170.822z M286.179,184.143v29.928h-60.357v-29.928H286.179z M217.821,341.178
		c0,5.64-4.588,10.228-10.228,10.228s-10.228-4.588-10.228-10.228V170.822c0-5.64,4.588-10.228,10.228-10.228
		s10.228,4.588,10.228,10.228V341.178z M225.821,327.857v-29.928h60.357v29.928H225.821z"/>
</g>
</svg>
