<?xml version="1.0" encoding="utf-8"?>
<!-- Generator: Adobe Illustrator 27.0.1, SVG Export Plug-In . SVG Version: 6.00 Build 0)  -->
<svg version="1.1" id="Layer_2" xmlns="http://www.w3.org/2000/svg" xmlns:xlink="http://www.w3.org/1999/xlink" x="0px" y="0px"
	 viewBox="0 0 512 512" style="enable-background:new 0 0 512 512;" xml:space="preserve">
<style type="text/css">
	.st0{fill:#FFFFFF;}
</style>
<g>
	<path class="st0" d="M160.318,331.643c-0.115,5.078,2.047,10.22,5.933,14.105c3.788,3.788,8.767,5.938,13.719,5.938
		c0.129,0,0.259-0.002,0.388-0.005c4.23-0.097,8.047-1.777,10.747-4.735l44.373-48.616c1.53,0.568,3.151,0.87,4.813,0.87
		c3.707,0,7.194-1.446,9.819-4.072c4.081-4.081,5.121-10.151,2.963-15.234l8.337-8.344c11.173,7.121,23.781,10.626,36.337,10.626
		c17.463,0,34.814-6.768,48.001-19.954c26.458-26.459,26.458-69.51,0-95.969c-12.817-12.817-29.858-19.877-47.984-19.877
		s-35.167,7.06-47.984,19.877c-22.67,22.671-26.359,57.634-9.331,84.341l-8.342,8.336c-1.703-0.722-3.547-1.111-5.414-1.111
		c-3.706,0-7.193,1.445-9.818,4.071c-3.927,3.927-5.066,9.655-3.209,14.638l-48.61,44.366
		C162.096,323.596,160.415,327.412,160.318,331.643z M248.134,273.518l-9.651-9.652l6.707-6.702
		c0.076,0.093,0.159,0.182,0.236,0.275c0.519,0.628,1.053,1.245,1.597,1.857c0.172,0.194,0.339,0.392,0.514,0.584
		c0.726,0.798,1.467,1.584,2.233,2.35c0.765,0.766,1.552,1.507,2.35,2.233c0.195,0.177,0.395,0.346,0.592,0.521
		c0.605,0.538,1.216,1.067,1.837,1.581c0.097,0.08,0.189,0.167,0.286,0.246L248.134,273.518z M255.435,171.91
		c11.671-11.671,26.997-17.504,42.327-17.504c15.327,0,30.659,5.836,42.327,17.504c23.339,23.34,23.339,61.316,0,84.656
		c-20.705,20.7-53.032,23.467-76.876,6.571c-0.002-0.002-0.004-0.004-0.006-0.006c-2.743-1.936-5.36-4.143-7.777-6.56
		c-2.417-2.418-4.625-5.035-6.56-7.778c-0.002-0.003-0.005-0.005-0.006-0.007c0,0,0,0,0,0
		C231.964,224.948,234.728,192.617,255.435,171.91z M222.529,267.548c1.114-1.114,2.592-1.728,4.161-1.728
		c1.307,0,2.588,0.441,3.63,1.262c0.189,0.146,0.374,0.309,0.531,0.466l13.598,13.599c0.161,0.161,0.323,0.346,0.482,0.551
		c1.827,2.332,1.621,5.674-0.479,7.773c0,0.001,0,0.001,0,0.001c-1.115,1.114-2.592,1.729-4.162,1.729
		c-1.22,0-2.396-0.375-3.396-1.083c-0.274-0.194-0.532-0.412-0.766-0.646l-13.6-13.6c-0.233-0.233-0.451-0.492-0.647-0.768
		C220.219,272.763,220.492,269.585,222.529,267.548z M170.447,326.804l47.942-43.758l10.564,10.564l-43.758,47.942
		c-1.554,1.702-3.587,2.099-5.02,2.131c-2.896,0.088-5.918-1.244-8.267-3.592c-2.349-2.35-3.658-5.362-3.592-8.268
		C168.349,330.392,168.745,328.357,170.447,326.804z"/>
	<path class="st0" d="M297.759,261.504c12.107,0,24.219-4.61,33.436-13.827c0,0,0,0,0,0c18.436-18.437,18.436-48.436,0-66.872
		c-8.931-8.932-20.806-13.851-33.437-13.851s-24.505,4.919-33.436,13.851c-8.931,8.931-13.85,20.806-13.85,33.436
		c0,12.631,4.918,24.506,13.85,33.437C273.543,256.896,285.649,261.504,297.759,261.504z M269.98,186.461
		c7.42-7.42,17.285-11.507,27.779-11.507s20.359,4.087,27.779,11.507c15.317,15.318,15.317,40.241,0,55.56
		c-15.318,15.312-40.242,15.314-55.558,0c-7.42-7.421-11.507-17.286-11.507-27.78C258.474,203.747,262.56,193.882,269.98,186.461z"
		/>
	<path class="st0" d="M297.759,244.812c8.166,0,15.843-3.181,21.618-8.955c1.562-1.562,1.562-4.095,0-5.656
		c-1.562-1.562-4.095-1.562-5.657,0c-4.263,4.263-9.931,6.611-15.96,6.611c-6.029,0-11.697-2.349-15.96-6.611
		c-1.562-1.562-4.094-1.562-5.657,0c-1.562,1.562-1.562,4.095,0,5.656C281.916,241.632,289.593,244.812,297.759,244.812z"/>
	<path class="st0" d="M278.971,199.452c1.024,0,2.047-0.391,2.829-1.172c4.263-4.263,9.931-6.611,15.96-6.611
		c6.029,0,11.697,2.349,15.96,6.611c1.562,1.562,4.095,1.562,5.657,0c1.562-1.562,1.562-4.095,0-5.656
		c-5.774-5.774-13.452-8.955-21.618-8.955s-15.843,3.181-21.617,8.955c-1.562,1.562-1.562,4.095,0,5.656
		C276.923,199.062,277.947,199.452,278.971,199.452z"/>
</g>
</svg>
