<?xml version="1.0" encoding="utf-8"?>
<!-- Generator: Adobe Illustrator 27.0.1, SVG Export Plug-In . SVG Version: 6.00 Build 0)  -->
<svg version="1.1" id="Layer_2" xmlns="http://www.w3.org/2000/svg" xmlns:xlink="http://www.w3.org/1999/xlink" x="0px" y="0px"
	 viewBox="0 0 512 512" style="enable-background:new 0 0 512 512;" xml:space="preserve">
<style type="text/css">
	.st0{fill:#FFFFFF;}
</style>
<g>
	<path class="st0" d="M245.81,306.27c-0.05-0.26-0.12-0.51-0.22-0.75c-0.1-0.24-0.23-0.48-0.37-0.69c-0.15-0.22-0.32-0.43-0.5-0.61
		c-0.74-0.75-1.78-1.17-2.83-1.17s-2.08,0.42-2.83,1.17c-0.18,0.18-0.35,0.39-0.49,0.61c-0.149,0.21-0.27,0.45-0.369,0.69
		c-0.101,0.24-0.181,0.49-0.23,0.75c-0.05,0.25-0.08,0.52-0.08,0.78c0,0.26,0.03,0.52,0.08,0.78c0.05,0.25,0.13,0.5,0.23,0.75
		c0.1,0.24,0.22,0.47,0.369,0.69c0.141,0.22,0.311,0.42,0.49,0.6c0.75,0.75,1.78,1.18,2.83,1.18s2.09-0.43,2.83-1.18
		c0.18-0.18,0.35-0.38,0.5-0.6c0.14-0.22,0.271-0.45,0.37-0.69c0.1-0.25,0.17-0.5,0.22-0.75c0.061-0.26,0.08-0.52,0.08-0.78
		C245.89,306.79,245.87,306.52,245.81,306.27z"/>
	<path class="st0" d="M273.8,305.52c-0.1-0.24-0.22-0.48-0.37-0.69c-0.14-0.22-0.31-0.43-0.49-0.61c-0.189-0.19-0.39-0.35-0.609-0.5
		c-0.221-0.14-0.45-0.27-0.69-0.37c-0.24-0.1-0.5-0.17-0.75-0.22c-0.52-0.11-1.05-0.11-1.56,0c-0.261,0.05-0.511,0.12-0.75,0.22
		c-0.24,0.1-0.48,0.23-0.69,0.37c-0.22,0.15-0.43,0.31-0.609,0.5c-0.181,0.18-0.351,0.39-0.5,0.61c-0.141,0.21-0.271,0.44-0.37,0.69
		c-0.101,0.24-0.17,0.49-0.221,0.74c-0.06,0.26-0.08,0.53-0.08,0.79c0,0.26,0.021,0.52,0.08,0.78c0.051,0.25,0.12,0.5,0.221,0.75
		c0.1,0.24,0.229,0.47,0.37,0.69c0.149,0.21,0.319,0.42,0.5,0.6c0.18,0.19,0.39,0.36,0.609,0.5c0.21,0.15,0.45,0.27,0.69,0.37
		c0.239,0.1,0.489,0.18,0.75,0.23c0.25,0.05,0.52,0.08,0.779,0.08c0.261,0,0.521-0.03,0.78-0.08c0.25-0.05,0.51-0.13,0.75-0.23
		s0.47-0.22,0.69-0.37c0.22-0.14,0.42-0.31,0.609-0.5c0.74-0.74,1.17-1.77,1.17-2.82c0-0.26-0.029-0.53-0.079-0.79
		C273.979,306.01,273.899,305.76,273.8,305.52z"/>
	<path class="st0" d="M325.179,155.018H186.821c-2.209,0-4,1.791-4,4V333.54c0,2.209,1.791,4,4,4h8.524v15.443c0,2.209,1.791,4,4,4
		h113.309c2.209,0,4-1.791,4-4V337.54h8.524c2.209,0,4-1.791,4-4V159.018C329.179,156.809,327.388,155.018,325.179,155.018z
		 M308.654,348.982H203.346V337.54h105.309V348.982z M321.179,329.54h-8.524H199.346h-8.524V163.018h130.357V329.54z"/>
	<path class="st0" d="M199.346,325.016h113.309c2.209,0,4-1.791,4-4V171.541c0-2.209-1.791-4-4-4H199.346c-2.209,0-4,1.791-4,4
		v149.475C195.346,323.225,197.137,325.016,199.346,325.016z M260,189.029h4.717v19.122H260V189.029z M252,208.151h-4.717v-19.122
		H252V208.151z M243.283,216.151H256h12.717h39.938v32.463h-9.114V225.18c0-2.209-1.791-4-4-4h-12.717h-12.716c-2.209,0-4,1.791-4,4
		v23.434H246.76v-5.874h5.001c2.209,0,4-1.791,4-4v-12.716c0-2.209-1.791-4-4-4H224.64c-2.209,0-4,1.791-4,4v9.896h-5.002
		c-2.209,0-4,1.791-4,4v8.693h-8.292v-32.463H243.283z M233.199,289.077v-19.122h4.716v19.122H233.199z M220.482,289.077v-19.122
		h4.717v19.122H220.482z M245.915,269.955h4.717v19.122h-4.717V269.955z M258.632,289.077v-19.122h4.716v19.122H258.632z
		 M271.348,283.643l5.434,5.434h-5.434V283.643z M273.005,273.986l3.335-3.335l13.521,13.521l-3.335,3.335L273.005,273.986z
		 M298.346,281.343l-19.178-19.178c-1.562-1.562-4.096-1.562-5.656,0l-2.42,2.42c-0.561-1.531-2.018-2.631-3.744-2.631h-12.716
		h-12.717h-12.716h-12.717c-2.209,0-4,1.791-4,4v23.122h-9.137v-32.463h12.064c0.077,0.004,0.15,0.023,0.228,0.023h27.122
		c0.078,0,0.151-0.019,0.228-0.023h65.667v32.463h-12.385l2.076-2.076c0.75-0.75,1.172-1.768,1.172-2.829
		S299.096,282.094,298.346,281.343z M228.64,234.74v-4.716h19.121v4.716H228.64z M238.76,243.92v4.693h-19.122v-4.693H238.76z
		 M291.54,248.301h-4.717V229.18h4.717V248.301z M278.823,248.301h-4.716V229.18h4.716V248.301z M203.346,297.077h13.137h12.717
		h12.716H252v19.939h-48.654V297.077z M260,317.016v-19.939h7.348h18.368c0.267,0.055,0.538,0.087,0.81,0.087
		s0.543-0.032,0.81-0.087h21.319v19.939H260z M308.654,175.541v32.61h-35.938v-23.122c0-2.209-1.791-4-4-4H256h-12.717
		c-2.209,0-4,1.791-4,4v23.122h-35.938v-32.61H308.654z"/>
</g>
</svg>
