<?xml version="1.0" encoding="utf-8"?>
<!-- Generator: Adobe Illustrator 27.0.1, SVG Export Plug-In . SVG Version: 6.00 Build 0)  -->
<svg version="1.1" id="Layer_2" xmlns="http://www.w3.org/2000/svg" xmlns:xlink="http://www.w3.org/1999/xlink" x="0px" y="0px"
	 viewBox="0 0 512 512" style="enable-background:new 0 0 512 512;" xml:space="preserve">
<style type="text/css">
	.st0{fill:#FFFFFF;}
</style>
<g>
	<path class="st0" d="M166.363,353.185h179.273c7.687,0,13.939-6.253,13.939-13.939v-166.49c0-7.686-6.253-13.939-13.939-13.939
		H166.363c-7.687,0-13.939,6.253-13.939,13.939v166.49C152.424,346.931,158.677,353.185,166.363,353.185z M345.637,345.185H166.363
		c-3.275,0-5.939-2.665-5.939-5.939v-125.21h191.152v125.21C351.576,342.52,348.912,345.185,345.637,345.185z M166.363,166.815
		h179.273c3.275,0,5.939,2.665,5.939,5.939v33.28H160.424v-33.28C160.424,169.48,163.088,166.815,166.363,166.815z"/>
	<path class="st0" d="M330.857,227H181.143c-2.209,0-4,1.791-4,4v97.46c0,2.209,1.791,4,4,4h149.715c2.209,0,4-1.791,4-4V231
		C334.857,228.791,333.066,227,330.857,227z M207.013,300.495c0-13.215,10.751-23.966,23.966-23.966s23.966,10.751,23.966,23.966
		s-10.751,23.966-23.966,23.966S207.013,313.709,207.013,300.495z M287.601,291.345c-9.587,0-17.387-7.8-17.387-17.387v-17.387
		h34.773v17.387C304.987,283.545,297.188,291.345,287.601,291.345z M326.857,324.46h-35.286v-25.428
		c12.118-1.912,21.416-12.427,21.416-25.074v-21.387c0-2.209-1.791-4-4-4h-42.773c-2.209,0-4,1.791-4,4v21.387
		c0,12.627,9.268,23.127,21.357,25.063v25.439h-31.473c6.644-5.862,10.846-14.43,10.846-23.966c0-17.626-14.34-31.966-31.966-31.966
		s-31.966,14.34-31.966,31.966c0,9.536,4.202,18.104,10.846,23.966h-24.717V235h141.715V324.46z"/>
	<path class="st0" d="M230.949,190.63h50.102c2.209,0,4-1.791,4-4s-1.791-4-4-4h-50.102c-2.209,0-4,1.791-4,4
		S228.74,190.63,230.949,190.63z"/>
	<path class="st0" d="M186.636,190.63h16.406c2.209,0,4-1.791,4-4s-1.791-4-4-4h-16.406c-2.209,0-4,1.791-4,4
		S184.427,190.63,186.636,190.63z"/>
	<path class="st0" d="M308.958,190.63h16.406c2.209,0,4-1.791,4-4s-1.791-4-4-4h-16.406c-2.209,0-4,1.791-4,4
		S306.749,190.63,308.958,190.63z"/>
	<path class="st0" d="M230.979,286.322c-7.814,0-14.172,6.358-14.172,14.172s6.357,14.172,14.172,14.172s14.173-6.358,14.173-14.172
		S238.793,286.322,230.979,286.322z M230.979,306.667c-3.403,0-6.172-2.769-6.172-6.172s2.769-6.172,6.172-6.172
		s6.173,2.769,6.173,6.172S234.382,306.667,230.979,306.667z"/>
</g>
</svg>
