<?xml version="1.0" encoding="utf-8"?>
<!-- Generator: Adobe Illustrator 27.0.1, SVG Export Plug-In . SVG Version: 6.00 Build 0)  -->
<svg version="1.1" id="Layer_2" xmlns="http://www.w3.org/2000/svg" xmlns:xlink="http://www.w3.org/1999/xlink" x="0px" y="0px"
	 viewBox="0 0 512 512" style="enable-background:new 0 0 512 512;" xml:space="preserve">
<style type="text/css">
	.st0{fill:#FFFFFF;}
</style>
<g>
	<path class="st0" d="M282.149,189.18c-0.1-0.24-0.229-0.48-0.369-0.69c-0.15-0.22-0.311-0.43-0.5-0.61
		c-0.181-0.19-0.391-0.35-0.61-0.5c-0.21-0.14-0.44-0.27-0.69-0.37c-0.239-0.1-0.489-0.17-0.75-0.22c-0.51-0.11-1.04-0.11-1.56,0
		c-0.25,0.05-0.51,0.12-0.75,0.22s-0.47,0.23-0.69,0.37c-0.22,0.15-0.42,0.31-0.609,0.5c-0.181,0.18-0.351,0.39-0.49,0.61
		c-0.15,0.21-0.271,0.45-0.37,0.69c-0.1,0.24-0.18,0.49-0.229,0.75c-0.051,0.25-0.08,0.52-0.08,0.78c0,1.05,0.43,2.08,1.17,2.82
		c0.189,0.19,0.39,0.36,0.609,0.5c0.221,0.15,0.45,0.27,0.69,0.37s0.5,0.18,0.75,0.23c0.26,0.05,0.52,0.08,0.78,0.08
		c0.26,0,0.529-0.03,0.779-0.08c0.261-0.05,0.511-0.13,0.75-0.23c0.25-0.1,0.48-0.22,0.69-0.37c0.22-0.14,0.43-0.31,0.61-0.5
		c0.75-0.74,1.17-1.77,1.17-2.82c0-0.26-0.021-0.53-0.08-0.78C282.319,189.67,282.25,189.42,282.149,189.18z"/>
	<path class="st0" d="M267.399,189.18c-0.1-0.24-0.22-0.48-0.359-0.69c-0.15-0.22-0.32-0.43-0.5-0.61
		c-0.931-0.93-2.311-1.36-3.61-1.1c-0.25,0.06-0.51,0.13-0.75,0.23s-0.47,0.23-0.689,0.37c-0.221,0.15-0.421,0.31-0.61,0.5
		c-0.18,0.18-0.35,0.39-0.49,0.61c-0.149,0.21-0.27,0.45-0.37,0.69c-0.1,0.24-0.18,0.49-0.229,0.75c-0.05,0.25-0.08,0.52-0.08,0.78
		c0,1.05,0.43,2.08,1.17,2.83c0.189,0.18,0.39,0.35,0.61,0.49c0.22,0.15,0.449,0.27,0.689,0.37s0.5,0.18,0.75,0.23
		c0.26,0.05,0.521,0.08,0.78,0.08c1.05,0,2.08-0.43,2.83-1.17c0.74-0.75,1.17-1.78,1.17-2.83c0-0.26-0.03-0.53-0.08-0.78
		C267.58,189.67,267.5,189.42,267.399,189.18z"/>
	<path class="st0" d="M294.646,145.837h-9.905c-8.346,0-15.136,6.79-15.136,15.136v3.844l-94.924,16.037
		c-11.383,1.923-19.645,11.698-19.645,23.242v63.573v26.341c0,2.209,1.791,4,4,4h13.484c9.295,0,16.857-7.562,16.857-16.857v-9.484
		h92.896v6.797c0,6.679,5.434,12.113,12.113,12.113h11.125v34.289h-5.489c-4.214,0-7.643,3.429-7.643,7.643v26.009
		c0,4.214,3.429,7.643,7.643,7.643h18.979c4.214,0,7.643-3.429,7.643-7.643v-26.009c0-4.214-3.429-7.643-7.643-7.643h-5.489v-34.289
		h11.125c6.679,0,12.112-5.434,12.112-12.113v-10.797v-65.796c0-12.066-5.285-23.454-14.501-31.244
		c-3.746-3.166-7.974-5.579-12.468-7.209v-2.448C309.782,152.627,302.992,145.837,294.646,145.837z M300.382,332.868h5.132v25.295
		h-5.132V332.868z M318.646,332.868v25.295h-5.132v-25.295H318.646z M277.605,160.973c0-3.935,3.201-7.136,7.136-7.136h9.905
		c3.935,0,7.136,3.201,7.136,7.136v0.43c-4.183-0.612-8.482-0.588-12.755,0.133l-11.422,1.93V160.973z M176.014,188.743
		l53.857-9.099l12.142,48.931c0.442,1.784,2.044,3.037,3.882,3.037h82.856v15.266H163.037v-42.781
		C163.037,196.47,168.495,190.013,176.014,188.743z M185.379,263.669h-22.342v-8.792h165.714v8.792h-42.476H185.379z
		 M181.379,281.153c0,4.884-3.974,8.857-8.857,8.857h-9.484v-18.341h18.342V281.153z M328.751,278.466
		c0,2.268-1.845,4.113-4.112,4.113h-30.25c-2.269,0-4.113-1.845-4.113-4.113v-6.797h38.476V278.466z M328.751,201.873v21.738
		h-79.728l-11.243-45.304l52.579-8.883c9.574-1.619,19.313,1.049,26.727,7.315S328.751,192.166,328.751,201.873z"/>
	<path class="st0" d="M289.897,190.707c0,2.209,1.791,4,4,4h10.97c2.209,0,4-1.791,4-4s-1.791-4-4-4h-10.97
		C291.688,186.707,289.897,188.498,289.897,190.707z"/>
	<path class="st0" d="M304.867,202.351h-10.97c-2.209,0-4,1.791-4,4s1.791,4,4,4h10.97c2.209,0,4-1.791,4-4
		S307.076,202.351,304.867,202.351z"/>
	<path class="st0" d="M172.492,210.351h21.521c2.209,0,4-1.791,4-4s-1.791-4-4-4h-21.521c-2.209,0-4,1.791-4,4
		S170.283,210.351,172.492,210.351z"/>
	<path class="st0" d="M172.492,231.611h21.521c2.209,0,4-1.791,4-4s-1.791-4-4-4h-21.521c-2.209,0-4,1.791-4,4
		S170.283,231.611,172.492,231.611z"/>
</g>
</svg>
