<?xml version="1.0" encoding="utf-8"?>
<!-- Generator: Adobe Illustrator 27.0.1, SVG Export Plug-In . SVG Version: 6.00 Build 0)  -->
<svg version="1.1" id="Layer_2" xmlns="http://www.w3.org/2000/svg" xmlns:xlink="http://www.w3.org/1999/xlink" x="0px" y="0px"
	 viewBox="0 0 512 512" style="enable-background:new 0 0 512 512;" xml:space="preserve">
<style type="text/css">
	.st0{fill:#FFFFFF;}
</style>
<g>
	<path class="st0" d="M190.426,197.982V347.43h-11.783c-2.209,0-4,1.791-4,4v15.783c0,2.209,1.791,4,4,4h154.714
		c2.209,0,4-1.791,4-4V351.43c0-2.209-1.791-4-4-4h-11.783V197.982c0-2.209-1.791-4-4-4H194.426
		C192.217,193.982,190.426,195.773,190.426,197.982z M329.357,363.213H182.643v-7.783h11.783h17.592h87.963h17.592h11.783V363.213z
		 M295.981,217.862V347.43H260V217.862H295.981z M252,347.43h-35.981V217.862H252V347.43z M198.426,201.982h115.147V347.43h-9.592
		V213.862c0-2.209-1.791-4-4-4h-87.963c-2.209,0-4,1.791-4,4V347.43h-9.592V201.982z"/>
	<path class="st0" d="M284.254,186.491c2.209,0,4-1.791,4-4v-37.704c0-2.209-1.791-4-4-4h-56.508c-2.209,0-4,1.791-4,4v37.704
		c0,2.209,1.791,4,4,4H284.254z M231.746,148.787h48.508v29.704h-48.508V148.787z"/>
	<path class="st0" d="M249.849,152.96c-1.395-0.664-3.044-0.467-4.241,0.506l-5.302,4.306c-1.715,1.394-1.976,3.912-0.583,5.627
		c1.087,1.34,2.863,1.792,4.407,1.262v6.047c0,2.209,1.791,4,4,4s4-1.791,4-4v-14.136
		C252.129,155.028,251.242,153.623,249.849,152.96z"/>
	<path class="st0" d="M267.871,162.618v-6.047c0-2.209-1.791-4-4-4s-4,1.791-4,4v14.136c0,1.543,0.887,2.948,2.28,3.611
		c0.548,0.261,1.135,0.389,1.719,0.389c0.901,0,1.795-0.305,2.522-0.895l5.302-4.306c1.715-1.394,1.976-3.912,0.583-5.627
		C271.19,162.539,269.413,162.085,267.871,162.618z"/>
</g>
</svg>
