<?xml version="1.0" encoding="utf-8"?>
<!-- Generator: Adobe Illustrator 27.0.1, SVG Export Plug-In . SVG Version: 6.00 Build 0)  -->
<svg version="1.1" id="Layer_2" xmlns="http://www.w3.org/2000/svg" xmlns:xlink="http://www.w3.org/1999/xlink" x="0px" y="0px"
	 viewBox="0 0 512 512" style="enable-background:new 0 0 512 512;" xml:space="preserve">
<style type="text/css">
	.st0{fill:#FFFFFF;}
</style>
<g>
	<path class="st0" d="M230.05,215.817c10.503-10.582,10.503-27.8-0.019-38.4l-11.657-11.59c-5.068-5.105-11.818-7.917-19.008-7.918
		c-0.001,0-0.001,0-0.002,0c-7.408,0-14.445,2.979-19.806,8.378c-25.289,25.285-28.859,64.501-8.49,93.246
		c22.394,31.623,49.784,59.013,81.416,81.414c12.206,8.599,26.53,13.144,41.423,13.144c19.528,0,37.932-7.688,51.812-21.637
		l0.472-0.472c10.568-10.568,10.568-27.767,0.008-38.329l-11.607-11.676h0c-0.002-0.003-0.005-0.005-0.008-0.008
		c-0.003-0.003-0.005-0.006-0.008-0.008c-10.582-10.503-27.8-10.503-38.409,0.027l-5.486,5.553
		c-3.548,3.546-9.115,4.08-13.234,1.271c-21.389-14.611-39.64-32.863-54.245-54.246c-2.813-4.122-2.28-9.688,1.252-13.218
		L230.05,215.817z M218.814,215.674c-6.266,6.264-7.2,16.105-2.22,23.403c15.17,22.21,34.126,41.165,56.342,56.343
		c7.295,4.975,17.137,4.042,23.418-2.238l5.476-5.542c7.471-7.414,19.625-7.418,27.102-0.009l11.603,11.671
		c7.45,7.451,7.45,19.574,0.001,27.022l-0.479,0.479c-12.376,12.438-28.766,19.288-46.15,19.288
		c-13.235,0-25.966-4.04-36.808-11.679c-30.884-21.871-57.633-48.619-79.503-79.503c-18.107-25.554-14.903-60.445,7.629-82.975
		c3.858-3.886,8.879-6.025,14.14-6.025c0,0,0.001,0,0.001,0c5.042,0.001,9.776,1.973,13.349,5.573l11.657,11.59
		c7.418,7.474,7.418,19.635,0.027,27.083L218.814,215.674z"/>
	<path class="st0" d="M343.141,266.654c0.053,0.002,0.106,0.003,0.159,0.003c5.905,0,10.71-4.805,10.71-10.711
		c0-26.225-10.194-50.814-28.692-69.229c-18.448-18.519-43.042-28.717-69.251-28.717c-5.906,0-10.71,4.805-10.71,10.711
		c0,5.905,4.805,10.71,10.71,10.71c20.484,0,39.696,7.966,54.108,22.441c14.456,14.397,22.417,33.604,22.417,54.082
		C332.592,261.797,337.309,266.567,343.141,266.654z M256.067,171.422c-1.495,0-2.71-1.216-2.71-2.71
		c0-1.495,1.216-2.711,2.71-2.711c24.067,0,46.647,9.362,63.595,26.375c16.99,16.913,26.348,39.49,26.348,63.57
		c0,1.468-1.172,2.667-2.629,2.71c-0.026-0.001-0.052-0.001-0.079-0.001c-1.495,0-2.71-1.216-2.71-2.71
		c0-22.621-8.797-43.841-24.759-59.738C299.92,180.224,278.695,171.422,256.067,171.422z"/>
	<path class="st0" d="M256.072,184.911c-5.906,0-10.71,4.805-10.71,10.71c0,5.906,4.805,10.711,10.71,10.711
		c13.282,0,25.749,5.153,35.104,14.51c9.358,9.365,14.512,21.832,14.512,35.105c0,5.905,4.805,10.71,10.71,10.71
		s10.71-4.805,10.71-10.711c0-19.001-7.382-36.847-20.786-50.25C292.911,192.293,275.066,184.911,256.072,184.911z M316.397,258.657
		c-1.494,0-2.71-1.216-2.71-2.71c0-15.409-5.985-29.885-16.854-40.761c-10.866-10.869-25.342-16.854-40.762-16.854
		c-1.495,0-2.71-1.216-2.71-2.711c0-1.494,1.216-2.71,2.71-2.71c16.857,0,32.694,6.55,44.593,18.442
		c11.893,11.893,18.442,27.729,18.442,44.593C319.107,257.441,317.892,258.657,316.397,258.657z"/>
	<path class="st0" d="M256.065,233.105c6.088,0,11.832,2.361,16.139,6.615c4.322,4.375,6.703,10.137,6.703,16.226
		c0,5.906,4.805,10.711,10.71,10.711s10.71-4.805,10.71-10.711c0-11.771-4.598-22.901-12.978-31.37
		c-8.411-8.313-19.521-12.892-31.285-12.892c-5.906,0-10.71,4.805-10.71,10.71C245.355,228.301,250.16,233.105,256.065,233.105z
		 M256.065,219.685c9.644,0,18.757,3.758,25.629,10.55c6.856,6.93,10.633,16.062,10.633,25.712c0,1.495-1.216,2.711-2.71,2.711
		s-2.71-1.216-2.71-2.711c0-8.207-3.201-15.967-9.046-21.883c-5.848-5.776-13.588-8.958-21.795-8.958
		c-1.495,0-2.71-1.216-2.71-2.711C253.355,220.9,254.571,219.685,256.065,219.685z"/>
</g>
</svg>
