<?xml version="1.0" encoding="utf-8"?>
<!-- Generator: Adobe Illustrator 27.0.1, SVG Export Plug-In . SVG Version: 6.00 Build 0)  -->
<svg version="1.1" id="Layer_2" xmlns="http://www.w3.org/2000/svg" xmlns:xlink="http://www.w3.org/1999/xlink" x="0px" y="0px"
	 viewBox="0 0 512 512" style="enable-background:new 0 0 512 512;" xml:space="preserve">
<style type="text/css">
	.st0{fill:#FFFFFF;}
</style>
<g>
	<path class="st0" d="M216.309,360.169c0.466,0.177,0.945,0.26,1.417,0.26c1.614,0,3.135-0.984,3.741-2.583
		c0.783-2.066-0.258-4.375-2.324-5.158c-40.188-15.227-67.189-54.341-67.19-97.331c0-27.766,10.83-53.887,30.496-73.553
		c19.666-19.666,45.788-30.497,73.553-30.496c57.372,0,104.046,46.676,104.046,104.047c0,39.515-21.931,75.13-57.234,92.948
		c-9.39,4.738-20.326,4.153-29.257-1.567c-8.445-5.409-13.456-14.373-13.644-24.219c7.871-1.789,13.77-8.832,13.77-17.24v-11.528
		c14.814-6.844,24.589-21.931,24.589-38.393v-38.272c0-2.209-1.791-4-4-4h-9.582v-19.606c0-6.544-5.324-11.869-11.869-11.869
		s-11.869,5.325-11.869,11.869v19.606h-9.906v-19.606c0-6.544-5.325-11.869-11.869-11.869s-11.869,5.325-11.869,11.869v19.606
		h-9.582c-2.209,0-4,1.791-4,4v38.272c0,16.463,9.777,31.551,24.589,38.393v11.528c0,8.347,5.815,15.345,13.6,17.196
		c0.17,12.607,6.541,24.093,17.325,31c11.337,7.262,25.235,8,37.176,1.972c38.014-19.185,61.629-57.537,61.629-100.089
		c0-61.783-50.264-112.047-112.046-112.047c-0.002,0,0,0-0.002,0c-29.9,0-58.032,11.663-79.208,32.839
		c-21.177,21.177-32.84,49.308-32.839,79.21c0,23.197,7.028,45.454,20.322,64.365C177.27,338.209,195.263,352.195,216.309,360.169z
		 M268.953,193.478c0-2.133,1.736-3.869,3.869-3.869s3.869,1.736,3.869,3.869v19.606h-7.738V193.478z M235.309,193.478
		c0-2.133,1.735-3.869,3.869-3.869s3.869,1.736,3.869,3.869v19.606h-7.738V193.478z M221.728,255.356v-34.272h9.572
		c0.003,0,0.006,0.001,0.01,0.001h15.738c0.003,0,0.006-0.001,0.01-0.001h17.887c0.003,0,0.006,0.001,0.01,0.001h15.738
		c0.003,0,0.006-0.001,0.01-0.001h9.572v34.272c0,14.106-8.849,26.971-22.022,32.014c-3.905,1.499-8.026,2.258-12.25,2.258
		c-0.528,0-1.054-0.012-1.579-0.036c-0.558-0.025-1.114-0.066-1.668-0.118c-3.089-0.29-6.107-0.993-9.006-2.106
		C230.577,282.327,221.728,269.462,221.728,255.356z M246.317,305.277v-8.765c0.015,0.003,0.031,0.006,0.046,0.009
		c0.724,0.169,1.454,0.316,2.187,0.446c0.18,0.032,0.361,0.058,0.542,0.087c0.578,0.095,1.158,0.179,1.741,0.25
		c0.195,0.024,0.39,0.046,0.586,0.067c0.611,0.066,1.224,0.118,1.839,0.157c0.143,0.009,0.286,0.021,0.43,0.029
		c0.769,0.042,1.54,0.069,2.314,0.069s1.545-0.027,2.314-0.069c0.144-0.008,0.286-0.02,0.43-0.029
		c0.615-0.04,1.228-0.092,1.839-0.157c0.195-0.021,0.39-0.043,0.584-0.067c0.585-0.072,1.167-0.156,1.747-0.251
		c0.178-0.029,0.356-0.054,0.534-0.086c0.735-0.131,1.467-0.278,2.193-0.448c0.014-0.003,0.028-0.005,0.042-0.009v8.765
		c0,5.344-4.344,9.691-9.683,9.691S246.317,310.621,246.317,305.277z"/>
</g>
</svg>
