<?xml version="1.0" encoding="utf-8"?>
<!-- Generator: Adobe Illustrator 27.0.1, SVG Export Plug-In . SVG Version: 6.00 Build 0)  -->
<svg version="1.1" id="Layer_2" xmlns="http://www.w3.org/2000/svg" xmlns:xlink="http://www.w3.org/1999/xlink" x="0px" y="0px"
	 viewBox="0 0 512 512" style="enable-background:new 0 0 512 512;" xml:space="preserve">
<style type="text/css">
	.st0{fill:#FFFFFF;}
</style>
<g>
	<path class="st0" d="M311.084,159.143H200.916c-2.209,0-4,1.791-4,4v141.325h-12.621c-2.209,0-4,1.791-4,4v40.39
		c0,2.209,1.791,4,4,4s4-1.791,4-4v-18.964h135.411v18.964c0,2.209,1.791,4,4,4s4-1.791,4-4v-40.39c0-2.209-1.791-4-4-4h-12.621
		V163.143C315.084,160.934,313.293,159.143,311.084,159.143z M204.916,167.143h102.169v137.325H204.916V167.143z M323.706,321.894
		H188.294v-9.426h12.621h110.169h12.621V321.894z"/>
	<path class="st0" d="M298.187,172.041h-84.374c-2.209,0-4,1.791-4,4v119.53c0,2.209,1.791,4,4,4h84.374c2.209,0,4-1.791,4-4
		v-119.53C302.187,173.832,300.396,172.041,298.187,172.041z M294.187,291.57h-76.374v-111.53h76.374V291.57z"/>
	<path class="st0" d="M232.27,242.003c1.024,0,2.047-0.391,2.829-1.171l44.384-44.384c1.562-1.562,1.562-4.095,0-5.657
		c-1.562-1.562-4.095-1.562-5.657,0l-44.384,44.384c-1.562,1.562-1.562,4.095,0,5.657
		C230.223,241.612,231.246,242.003,232.27,242.003z"/>
	<path class="st0" d="M232.27,281.992c1.024,0,2.047-0.391,2.829-1.172l44.384-44.383c1.562-1.562,1.562-4.095,0-5.657
		c-1.562-1.562-4.095-1.562-5.657,0l-44.384,44.384c-1.562,1.562-1.562,4.095,0,5.656
		C230.223,281.602,231.246,281.992,232.27,281.992z"/>
	<path class="st0" d="M240.18,209.833c1.024,0,2.047-0.391,2.829-1.171l12.229-12.229c1.562-1.562,1.562-4.095,0-5.657
		c-1.562-1.562-4.095-1.562-5.657,0l-12.229,12.229c-1.562,1.562-1.562,4.095,0,5.657
		C238.132,209.442,239.156,209.833,240.18,209.833z"/>
	<path class="st0" d="M267.711,262.936l-12.228,12.229c-1.562,1.562-1.562,4.095,0,5.656c0.781,0.781,1.804,1.172,2.828,1.172
		s2.047-0.391,2.829-1.172l12.228-12.229c1.562-1.562,1.562-4.095,0-5.656C271.806,261.373,269.273,261.373,267.711,262.936z"/>
</g>
</svg>
