<?xml version="1.0" encoding="utf-8"?>
<!-- Generator: Adobe Illustrator 27.0.1, SVG Export Plug-In . SVG Version: 6.00 Build 0)  -->
<svg version="1.1" id="Layer_2" xmlns="http://www.w3.org/2000/svg" xmlns:xlink="http://www.w3.org/1999/xlink" x="0px" y="0px"
	 viewBox="0 0 512 512" style="enable-background:new 0 0 512 512;" xml:space="preserve">
<style type="text/css">
	.st0{fill:#FFFFFF;}
</style>
<g>
	<path class="st0" d="M188.97,267.45c0.1,0.239,0.23,0.479,0.37,0.689c0.15,0.22,0.31,0.43,0.5,0.61c0.74,0.74,1.77,1.17,2.83,1.17
		c1.05,0,2.08-0.43,2.82-1.17c0.189-0.181,0.359-0.391,0.5-0.61c0.149-0.21,0.27-0.45,0.369-0.689c0.101-0.24,0.181-0.49,0.23-0.75
		c0.05-0.25,0.08-0.521,0.08-0.78s-0.03-0.521-0.08-0.78c-0.05-0.25-0.13-0.51-0.23-0.75c-0.1-0.24-0.22-0.47-0.369-0.689
		c-0.141-0.221-0.311-0.42-0.5-0.61c-0.74-0.74-1.771-1.17-2.82-1.17c-1.061,0-2.09,0.43-2.83,1.17c-0.19,0.19-0.35,0.39-0.5,0.61
		c-0.14,0.22-0.271,0.449-0.37,0.689s-0.17,0.5-0.22,0.75c-0.061,0.26-0.08,0.521-0.08,0.78s0.02,0.53,0.08,0.78
		C188.8,266.96,188.87,267.21,188.97,267.45z"/>
	<path class="st0" d="M192.67,296.45c1.05,0,2.08-0.42,2.82-1.17c0.75-0.74,1.18-1.771,1.18-2.82c0-1.061-0.43-2.09-1.18-2.83
		c-0.74-0.75-1.771-1.17-2.82-1.17c-1.061,0-2.09,0.42-2.83,1.17c-0.75,0.74-1.17,1.77-1.17,2.83c0,1.05,0.42,2.08,1.17,2.82
		C190.58,296.03,191.609,296.45,192.67,296.45z"/>
	<path class="st0" d="M192.67,322.99c1.05,0,2.08-0.431,2.82-1.171c0.189-0.189,0.359-0.39,0.5-0.609
		c0.149-0.22,0.27-0.45,0.369-0.69c0.101-0.239,0.181-0.5,0.23-0.75c0.05-0.26,0.08-0.52,0.08-0.779c0-0.261-0.03-0.53-0.08-0.78
		c-0.05-0.26-0.13-0.51-0.23-0.75c-0.1-0.24-0.22-0.48-0.369-0.69c-0.141-0.22-0.311-0.43-0.5-0.609
		c-0.74-0.75-1.771-1.17-2.82-1.17c-1.061,0-2.09,0.42-2.83,1.17c-0.75,0.75-1.17,1.779-1.17,2.83c0,1.05,0.42,2.079,1.17,2.829
		C190.58,322.56,191.609,322.99,192.67,322.99z"/>
	<path class="st0" d="M306.569,283.189c1.051,0,2.08-0.43,2.83-1.17c0.74-0.75,1.17-1.779,1.17-2.83c0-0.26-0.029-0.52-0.079-0.779
		c-0.051-0.261-0.131-0.511-0.23-0.75c-0.1-0.24-0.22-0.471-0.36-0.69c-0.149-0.22-0.319-0.42-0.5-0.61
		c-0.75-0.739-1.779-1.17-2.83-1.17c-1.05,0-2.079,0.431-2.829,1.17c-0.181,0.19-0.351,0.391-0.5,0.61
		c-0.141,0.22-0.261,0.45-0.36,0.69c-0.1,0.239-0.18,0.489-0.23,0.75c-0.05,0.26-0.08,0.52-0.08,0.779
		c0,1.051,0.431,2.08,1.171,2.83C304.49,282.76,305.52,283.189,306.569,283.189z"/>
	<path class="st0" d="M315.64,320.52c0.101,0.24,0.22,0.471,0.37,0.69c0.14,0.22,0.31,0.42,0.49,0.609
		c0.189,0.181,0.39,0.351,0.609,0.49c0.221,0.15,0.45,0.271,0.69,0.37c0.24,0.101,0.5,0.18,0.75,0.23c0.26,0.05,0.52,0.08,0.78,0.08
		c1.06,0,2.09-0.431,2.83-1.171c0.75-0.75,1.17-1.779,1.17-2.829c0-1.051-0.42-2.091-1.17-2.83c-0.181-0.181-0.391-0.351-0.61-0.5
		c-0.21-0.141-0.45-0.271-0.69-0.37c-0.239-0.101-0.489-0.17-0.75-0.221c-0.51-0.109-1.04-0.109-1.56,0
		c-0.25,0.051-0.51,0.12-0.75,0.221c-0.24,0.1-0.47,0.229-0.69,0.37c-0.22,0.149-0.42,0.319-0.609,0.5
		c-0.74,0.739-1.17,1.779-1.17,2.83c0,0.26,0.029,0.52,0.08,0.779C315.46,320.02,315.54,320.28,315.64,320.52z"/>
	<path class="st0" d="M270.416,179.685l-37.057,37.056c-1.562,1.562-1.562,4.095,0,5.657c0.781,0.781,1.805,1.171,2.828,1.171
		s2.048-0.391,2.828-1.171l37.057-37.056c1.562-1.562,1.562-4.095,0-5.657C274.51,178.123,271.977,178.123,270.416,179.685z"/>
	<path class="st0" d="M242.792,196.711c1.023,0,2.048-0.391,2.828-1.172l10.209-10.209c1.562-1.562,1.562-4.095,0-5.657
		c-1.562-1.562-4.096-1.562-5.656,0l-10.209,10.209c-1.562,1.562-1.562,4.095,0,5.657
		C240.745,196.32,241.769,196.711,242.792,196.711z"/>
	<path class="st0" d="M265.311,209.802l-10.209,10.209c-1.562,1.562-1.562,4.095,0,5.657c0.781,0.781,1.805,1.171,2.828,1.171
		s2.048-0.391,2.828-1.172l10.209-10.209c1.562-1.562,1.562-4.095,0-5.657C269.404,208.24,266.871,208.239,265.311,209.802z"/>
	<path class="st0" d="M349.785,256.657h0.72c5.306,0,9.622-4.317,9.622-9.623s-4.316-9.623-9.622-9.623h-41.84v-43.511
		c0-29.04-23.625-52.665-52.665-52.665s-52.665,23.625-52.665,52.665v43.511h-41.84c-5.306,0-9.622,4.317-9.622,9.623
		s4.316,9.623,9.622,9.623h0.72v22.532v26.533v26.532c0,2.209,1.791,4,4,4h52.905c2.209,0,4-1.791,4-4v-26.532v-26.533v-22.532
		h65.76v48.904c0,0.028,0.008,0.053,0.008,0.081c0,0.027-0.008,0.053-0.008,0.081v26.532c0,2.209,1.791,4,4,4h52.905
		c2.209,0,4-1.791,4-4v-26.532c0-0.028-0.008-0.053-0.008-0.081c0-0.027,0.008-0.053,0.008-0.081V256.657z M287.222,236.094h-62.443
		v-42.171c0-17.215,14.006-31.221,31.222-31.221s31.222,14.006,31.222,31.221V236.094z M211.335,193.901
		c0-24.628,20.037-44.665,44.665-44.665s44.665,20.037,44.665,44.665v42.192h-5.443v-42.171c0-21.626-17.595-39.221-39.222-39.221
		s-39.222,17.595-39.222,39.221v42.171h-5.443V193.901z M159.873,247.035c0-0.895,0.728-1.623,1.622-1.623h189.01
		c0.895,0,1.622,0.728,1.622,1.623s-0.728,1.623-1.622,1.623h-4.72H292.88h-73.76h-52.905h-4.72
		C160.601,248.657,159.873,247.929,159.873,247.035z M215.12,301.723h-44.905v-18.533h44.905V301.723z M215.12,328.255h-44.905
		v-18.532h44.905V328.255z M215.12,275.189h-44.905v-18.532h44.905V275.189z M341.785,256.657v44.904H296.88v-44.904H341.785z
		 M341.785,328.255H296.88v-18.532h44.905V328.255z"/>
	<path class="st0" d="M234.531,267.229c-2.209,0-4,1.791-4,4v18.088v42.938c0,2.209,1.791,4,4,4h42.938c2.209,0,4-1.791,4-4v-42.938
		v-18.088c0-2.209-1.791-4-4-4H234.531z M238.531,275.229h34.938v10.088h-34.938V275.229z M273.469,328.255h-34.938v-34.938h34.938
		V328.255z"/>
</g>
</svg>
