<?xml version="1.0" encoding="utf-8"?>
<!-- Generator: Adobe Illustrator 27.0.1, SVG Export Plug-In . SVG Version: 6.00 Build 0)  -->
<svg version="1.1" id="Layer_2" xmlns="http://www.w3.org/2000/svg" xmlns:xlink="http://www.w3.org/1999/xlink" x="0px" y="0px"
	 viewBox="0 0 512 512" style="enable-background:new 0 0 512 512;" xml:space="preserve">
<style type="text/css">
	.st0{fill:#FFFFFF;}
</style>
<g>
	<path class="st0" d="M365.201,233.238c-5.642,0-10.809,2.065-14.794,5.473v-17.193c0-18.101-13.88-33.017-31.554-34.676
		c-0.339-0.093-0.688-0.159-1.057-0.159h-2.224H196.429h-2.224c-0.368,0-0.718,0.066-1.057,0.159
		c-17.675,1.659-31.555,16.575-31.555,34.676v17.194c-3.985-3.408-9.152-5.474-14.795-5.474c-12.571,0-22.799,10.228-22.799,22.799
		c0,12.403,9.957,22.524,22.297,22.793v19.129c0,6.424,5.227,11.65,11.65,11.65h12.502v11.708c0,2.209,1.791,4,4,4s4-1.791,4-4
		v-11.708h154.836v11.708c0,2.209,1.791,4,4,4s4-1.791,4-4v-11.708h12.768c6.424,0,11.65-5.226,11.65-11.65V278.83
		c12.34-0.269,22.297-10.39,22.297-22.793C388,243.466,377.772,233.238,365.201,233.238z M169.598,260.037h172.805v26.272H169.598
		V260.037z M313.584,194.683c-1.669,13.205-12.973,23.452-26.623,23.452H225.04c-13.65,0-24.954-10.247-26.623-23.452H313.584z
		 M169.594,221.518c0-12.741,8.929-23.429,20.856-26.155c2.02,17.299,16.757,30.772,34.59,30.772h61.921
		c17.833,0,32.57-13.472,34.59-30.772c11.927,2.726,20.856,13.414,20.856,26.155v30.519H169.594V221.518z M365.201,270.835
		c-0.927,0-1.854-0.086-2.756-0.257c-1.166-0.219-2.378,0.091-3.295,0.851s-1.447,1.889-1.447,3.08v23.45
		c0,2.013-1.638,3.65-3.65,3.65H157.947c-2.013,0-3.65-1.637-3.65-3.65v-23.45c0-1.191-0.53-2.32-1.447-3.08
		c-0.724-0.6-1.628-0.92-2.553-0.92c-0.247,0-0.496,0.023-0.742,0.069c-0.901,0.17-1.829,0.257-2.756,0.257
		c-8.16,0-14.799-6.639-14.799-14.798c0-8.16,6.639-14.799,14.799-14.799c8.134,0,14.753,6.597,14.795,14.722v0.077
		c0,0.013,0.004,0.026,0.004,0.039v34.233c0,2.209,1.791,4,4,4h180.805c2.209,0,4-1.791,4-4v-34.224
		c0-0.017,0.005-0.032,0.005-0.048v-0.096c0.053-8.115,6.666-14.702,14.794-14.702c8.16,0,14.799,6.639,14.799,14.799
		C380,264.197,373.361,270.835,365.201,270.835z"/>
</g>
</svg>
