<?xml version="1.0" encoding="utf-8"?>
<!-- Generator: Adobe Illustrator 27.0.1, SVG Export Plug-In . SVG Version: 6.00 Build 0)  -->
<svg version="1.1" id="Layer_2" xmlns="http://www.w3.org/2000/svg" xmlns:xlink="http://www.w3.org/1999/xlink" x="0px" y="0px"
	 viewBox="0 0 512 512" style="enable-background:new 0 0 512 512;" xml:space="preserve">
<style type="text/css">
	.st0{fill:#FFFFFF;}
</style>
<g>
	<path class="st0" d="M209.73,363.613h92.54c14.53,0,26.352-11.821,26.352-26.352V235.596h3.583c6.898,0,12.511-5.612,12.511-12.511
		v-0.727c0-23.07-18.769-41.839-41.839-41.839h-3.226v-2.791c0-16.179-13.163-29.342-29.342-29.342h-28.614
		c-16.179,0-29.342,13.163-29.342,29.342v2.791h-3.226c-23.07,0-41.839,18.769-41.839,41.839v0.715
		c0,6.905,5.617,12.522,12.522,12.522h3.571v101.666C183.379,351.792,195.2,363.613,209.73,363.613z M320.621,337.262
		c0,10.119-8.232,18.352-18.352,18.352h-92.54c-10.119,0-18.351-8.232-18.351-18.352V235.599h129.242V337.262z M220.351,177.729
		c0-11.768,9.574-21.342,21.342-21.342h28.614c11.768,0,21.342,9.574,21.342,21.342v2.791h-8.753v-2.791
		c0-6.941-5.647-12.588-12.588-12.588h-28.614c-6.941,0-12.589,5.646-12.589,12.588v2.791h-8.753V177.729z M237.104,180.52v-2.791
		c0-2.529,2.059-4.588,4.589-4.588h28.614c2.53,0,4.588,2.059,4.588,4.588v2.791H237.104z M175.286,223.073v-0.715
		c0-18.659,15.18-33.839,33.839-33.839h7.226h16.753h45.792h16.753h7.226c18.659,0,33.839,15.18,33.839,33.839v0.727
		c0,2.487-2.023,4.511-4.511,4.511H179.808C177.314,227.596,175.286,225.567,175.286,223.073z"/>
	<path class="st0" d="M287.272,326.847c2.209,0,4-1.791,4-4v-54.482c0-2.209-1.791-4-4-4s-4,1.791-4,4v54.482
		C283.272,325.056,285.063,326.847,287.272,326.847z"/>
	<path class="st0" d="M256,335.543c2.209,0,4-1.791,4-4v-71.875c0-2.209-1.791-4-4-4s-4,1.791-4,4v71.875
		C252,333.752,253.791,335.543,256,335.543z"/>
	<path class="st0" d="M224.728,326.847c2.209,0,4-1.791,4-4v-54.482c0-2.209-1.791-4-4-4s-4,1.791-4,4v54.482
		C220.728,325.056,222.519,326.847,224.728,326.847z"/>
</g>
</svg>
