<?xml version="1.0" encoding="utf-8"?>
<!-- Generator: Adobe Illustrator 27.0.1, SVG Export Plug-In . SVG Version: 6.00 Build 0)  -->
<svg version="1.1" id="Layer_2" xmlns="http://www.w3.org/2000/svg" xmlns:xlink="http://www.w3.org/1999/xlink" x="0px" y="0px"
	 viewBox="0 0 512 512" style="enable-background:new 0 0 512 512;" xml:space="preserve">
<style type="text/css">
	.st0{fill:#FFFFFF;}
</style>
<g>
	<path class="st0" d="M159.57,273.758v11.164h-1.879c-2.209,0-4,1.791-4,4v21.164v21.164c0,2.209,1.791,4,4,4h12.09
		c10.595,0,19.214-8.62,19.214-19.214v-1.95h134.008v1.95c0,10.595,8.62,19.214,19.214,19.214h12.09c2.209,0,4-1.791,4-4v-21.164
		v-21.164c0-2.209-1.791-4-4-4h-1.879v-11.164c0-5.253-3.211-9.769-7.773-11.69v-66.14c0-10.575-8.604-19.179-19.179-19.179h-3.503
		H190.025h-3.503c-10.575,0-19.179,8.604-19.179,19.179v66.14C162.782,263.99,159.57,268.505,159.57,273.758z M350.309,292.922
		v13.164h-23.305H184.996h-23.305v-13.164h1.879H348.43H350.309z M180.996,316.036c0,6.184-5.031,11.214-11.214,11.214h-8.09
		v-13.164h19.305V316.036z M350.309,327.25h-8.09c-6.184,0-11.214-5.031-11.214-11.214v-1.95h19.305V327.25z M167.57,284.922
		v-11.164c0-2.58,2.099-4.679,4.679-4.679h17.776h48.338h35.273h48.338h17.776c2.58,0,4.679,2.099,4.679,4.679v11.164H167.57z
		 M234.363,261.08h-40.338v-32.589c0-2.58,2.099-4.679,4.679-4.679h30.98c2.58,0,4.679,2.099,4.679,4.679V261.08z M317.975,261.08
		h-40.338v-32.589c0-2.58,2.099-4.679,4.679-4.679h30.98c2.58,0,4.679,2.099,4.679,4.679V261.08z M317.975,184.75v0.222
		c0,6.164-5.015,11.179-11.179,11.179H205.204c-6.164,0-11.179-5.015-11.179-11.179v-0.222H317.975z M175.344,195.929
		c0-5.996,4.749-10.891,10.682-11.154v0.197c0,10.575,8.604,19.179,19.179,19.179h101.592c10.575,0,19.179-8.604,19.179-19.179
		v-0.197c5.933,0.263,10.682,5.157,10.682,11.154v65.151h-10.682v-32.589c0-6.991-5.688-12.679-12.679-12.679h-30.98
		c-6.991,0-12.679,5.688-12.679,12.679v32.589h-27.273v-32.589c0-6.991-5.688-12.679-12.679-12.679h-30.98
		c-6.991,0-12.679,5.688-12.679,12.679v32.589h-10.682V195.929z"/>
</g>
</svg>
