<?xml version="1.0" encoding="utf-8"?>
<!-- Generator: Adobe Illustrator 27.0.1, SVG Export Plug-In . SVG Version: 6.00 Build 0)  -->
<svg version="1.1" id="Layer_2" xmlns="http://www.w3.org/2000/svg" xmlns:xlink="http://www.w3.org/1999/xlink" x="0px" y="0px"
	 viewBox="0 0 512 512" style="enable-background:new 0 0 512 512;" xml:space="preserve">
<style type="text/css">
	.st0{fill:#FFFFFF;}
</style>
<g>
	<path class="st0" d="M340.143,358.73c2.209,0,4-1.791,4-4V157.27c0-2.209-1.791-4-4-4H220.5c-2.209,0-4,1.791-4,4v29.143
		l-47.063,35.77c-0.995,0.757-1.58,1.935-1.58,3.185v44.04c0,2.209,1.791,4,4,4h22.135v39.586h-22.135c-2.209,0-4,1.791-4,4v37.738
		c0,2.209,1.791,4,4,4h52.963h90.126H340.143z M336.143,184.396h-31.08V161.27h31.08V184.396z M263.58,184.396V161.27h33.483v23.127
		H263.58z M255.58,161.27v23.127H224.5V161.27H255.58z M175.857,320.992h22.135c2.209,0,4-1.791,4-4v-47.586c0-2.209-1.791-4-4-4
		h-22.135v-38.056l45.99-34.954h114.296V350.73h-17.197v-35.948c0-2.209-1.791-4-4-4H224.82c-2.209,0-4,1.791-4,4v35.948h-44.963
		V320.992z M228.82,350.73v-31.948h82.126v31.948H228.82z"/>
	<path class="st0" d="M314.946,295.417c2.209,0,4-1.791,4-4v-77.721c0-2.209-1.791-4-4-4s-4,1.791-4,4v77.721
		C310.946,293.626,312.737,295.417,314.946,295.417z"/>
	<path class="st0" d="M296.718,330.757h-54.109c-2.209,0-4,1.791-4,4s1.791,4,4,4h54.109c2.209,0,4-1.791,4-4
		S298.927,330.757,296.718,330.757z"/>
</g>
</svg>
