<?xml version="1.0" encoding="utf-8"?>
<!-- Generator: Adobe Illustrator 27.0.1, SVG Export Plug-In . SVG Version: 6.00 Build 0)  -->
<svg version="1.1" id="Layer_2" xmlns="http://www.w3.org/2000/svg" xmlns:xlink="http://www.w3.org/1999/xlink" x="0px" y="0px"
	 viewBox="0 0 512 512" style="enable-background:new 0 0 512 512;" xml:space="preserve">
<style type="text/css">
	.st0{fill:#FFFFFF;}
</style>
<g>
	<path class="st0" d="M273.49,260.35c0.06,0.25,0.13,0.5,0.229,0.75c0.1,0.24,0.23,0.47,0.37,0.69c0.15,0.22,0.31,0.42,0.5,0.61
		c0.18,0.18,0.39,0.35,0.61,0.49c0.21,0.15,0.449,0.27,0.689,0.37s0.49,0.18,0.75,0.23c0.25,0.05,0.521,0.08,0.78,0.08
		c1.05,0,2.08-0.43,2.82-1.17c0.189-0.19,0.359-0.39,0.5-0.61c0.149-0.22,0.27-0.45,0.369-0.69c0.101-0.25,0.181-0.5,0.23-0.75
		c0.05-0.26,0.08-0.52,0.08-0.78s-0.03-0.53-0.08-0.79c-0.05-0.25-0.13-0.5-0.23-0.74c-0.1-0.25-0.22-0.48-0.369-0.69
		c-0.141-0.22-0.311-0.43-0.5-0.61c-0.921-0.93-2.301-1.36-3.601-1.1c-0.26,0.05-0.51,0.13-0.75,0.23
		c-0.24,0.1-0.479,0.23-0.689,0.37c-0.221,0.15-0.431,0.31-0.61,0.5c-0.19,0.18-0.35,0.39-0.5,0.61c-0.14,0.21-0.271,0.44-0.37,0.69
		c-0.1,0.24-0.17,0.49-0.229,0.74c-0.051,0.26-0.07,0.53-0.07,0.79S273.439,260.09,273.49,260.35z"/>
	<path class="st0" d="M238.5,258.79c-0.05-0.26-0.12-0.51-0.221-0.75c-0.1-0.24-0.229-0.48-0.369-0.69
		c-0.15-0.22-0.32-0.43-0.5-0.61c-0.181-0.19-0.391-0.35-0.61-0.5c-0.21-0.14-0.45-0.27-0.69-0.37c-0.239-0.1-0.489-0.17-0.75-0.23
		c-0.51-0.1-1.04-0.1-1.56,0c-0.25,0.06-0.51,0.13-0.75,0.23c-0.24,0.1-0.47,0.23-0.69,0.37c-0.22,0.15-0.42,0.31-0.6,0.5
		c-0.19,0.18-0.36,0.39-0.5,0.61c-0.15,0.21-0.27,0.45-0.37,0.69c-0.1,0.24-0.18,0.49-0.229,0.75c-0.051,0.25-0.08,0.52-0.08,0.78
		c0,1.05,0.43,2.08,1.18,2.83c0.74,0.74,1.77,1.17,2.82,1.17c0.26,0,0.529-0.03,0.779-0.08c0.261-0.05,0.511-0.13,0.75-0.23
		c0.24-0.1,0.48-0.22,0.69-0.37c0.22-0.14,0.43-0.31,0.61-0.49c0.18-0.19,0.35-0.39,0.5-0.61c0.14-0.22,0.27-0.45,0.369-0.69
		c0.101-0.25,0.171-0.5,0.221-0.75c0.06-0.26,0.08-0.52,0.08-0.78S238.56,259.04,238.5,258.79z"/>
	<path class="st0" d="M351.102,243.662v-24.064c0-2.209-1.791-4-4-4H260v-7.84h17.417c1.205,0,2.347-0.543,3.106-1.479
		c0.759-0.936,1.056-2.165,0.808-3.345l-6.299-29.921c-0.39-1.851-2.022-3.176-3.914-3.176h-30.236
		c-1.892,0-3.524,1.325-3.914,3.176l-6.299,29.921c-0.248,1.18,0.049,2.409,0.808,3.345c0.76,0.936,1.901,1.479,3.106,1.479H252
		v7.84h-87.102c-2.209,0-4,1.791-4,4v24.064c0,2.972,2.418,5.391,5.391,5.391h8.76v25.027v64.084c0,2.209,1.791,4,4,4s4-1.791,4-4
		V278.08h145.902v60.084c0,2.209,1.791,4,4,4s4-1.791,4-4V274.08v-25.027h8.76C348.684,249.052,351.102,246.634,351.102,243.662z
		 M244.128,177.836h23.744l4.615,21.921h-15.223c-0.4-0.134-0.82-0.224-1.265-0.224s-0.865,0.09-1.265,0.224h-15.223
		L244.128,177.836z M183.049,249.052H252v21.027h-68.951V249.052z M328.951,270.08H260v-21.027h68.951V270.08z M343.102,241.052
		h-10.15H179.049h-10.15v-17.455h174.203V241.052z"/>
</g>
</svg>
