<?xml version="1.0" encoding="utf-8"?>
<!-- Generator: Adobe Illustrator 27.0.1, SVG Export Plug-In . SVG Version: 6.00 Build 0)  -->
<svg version="1.1" id="Layer_2" xmlns="http://www.w3.org/2000/svg" xmlns:xlink="http://www.w3.org/1999/xlink" x="0px" y="0px"
	 viewBox="0 0 512 512" style="enable-background:new 0 0 512 512;" xml:space="preserve">
<style type="text/css">
	.st0{fill:#FFFFFF;}
</style>
<g>
	<path class="st0" d="M209.73,363.613h92.54c14.53,0,26.352-11.821,26.352-26.352V235.596h3.583c6.898,0,12.511-5.612,12.511-12.511
		v-0.727c0-23.07-18.769-41.839-41.839-41.839h-3.226v-2.791c0-16.179-13.163-29.342-29.342-29.342h-28.614
		c-16.179,0-29.342,13.163-29.342,29.342v2.791h-3.226c-23.07,0-41.839,18.769-41.839,41.839v0.715
		c0,6.905,5.617,12.522,12.522,12.522h3.571v101.666C183.379,351.792,195.2,363.613,209.73,363.613z M320.621,337.262
		c0,10.119-8.232,18.352-18.352,18.352h-92.54c-10.119,0-18.351-8.232-18.351-18.352V235.599h129.242V337.262z M220.351,177.729
		c0-11.768,9.574-21.342,21.342-21.342h28.614c11.768,0,21.342,9.574,21.342,21.342v2.791h-8.753v-2.791
		c0-6.941-5.647-12.588-12.588-12.588h-28.614c-6.941,0-12.589,5.646-12.589,12.588v2.791h-8.753V177.729z M237.104,180.52v-2.791
		c0-2.529,2.059-4.588,4.589-4.588h28.614c2.53,0,4.588,2.059,4.588,4.588v2.791H237.104z M175.286,223.073v-0.715
		c0-18.659,15.18-33.839,33.839-33.839h7.226h16.753h45.792h16.753h7.226c18.659,0,33.839,15.18,33.839,33.839v0.727
		c0,2.487-2.023,4.511-4.511,4.511H179.808C177.314,227.596,175.286,225.567,175.286,223.073z"/>
	<path class="st0" d="M214.255,301.262h7.172c1.18,7.203,4.614,13.935,9.798,19.118c6.806,6.807,15.762,10.299,24.781,10.299
		c7.027,0,14.092-2.121,20.205-6.446c1.803-1.276,2.23-3.772,0.955-5.576c-1.276-1.803-3.772-2.23-5.576-0.955
		c-10.767,7.62-25.364,6.367-34.708-2.978c-3.748-3.748-6.236-8.364-7.312-13.462h6.466c1.429,0,2.75-0.763,3.464-2
		c0.715-1.237,0.715-2.763,0-4l-10.89-18.862c-0.714-1.237-2.035-2-3.464-2s-2.75,0.763-3.464,2l-10.89,18.862
		c-0.715,1.237-0.715,2.763,0,4C211.506,300.499,212.826,301.262,214.255,301.262z M225.146,286.399l3.962,6.862h-7.924
		L225.146,286.399z"/>
	<path class="st0" d="M240.41,273.51c10.767-7.621,25.364-6.367,34.709,2.978c3.323,3.323,5.664,7.325,6.902,11.743h-6.547
		c-1.429,0-2.75,0.763-3.464,2c-0.715,1.237-0.715,2.763,0,4l10.89,18.863c0.715,1.237,2.035,2,3.464,2s2.75-0.763,3.464-2
		l10.89-18.863c0.714-1.237,0.714-2.763,0-4c-0.714-1.237-2.035-2-3.464-2h-7.009c-1.415-6.551-4.701-12.631-9.47-17.399
		c-12.109-12.11-31.029-13.729-44.987-3.853c-1.803,1.276-2.23,3.772-0.955,5.576C236.109,274.358,238.607,274.784,240.41,273.51z
		 M286.364,303.094l-3.962-6.863h7.924L286.364,303.094z"/>
</g>
</svg>
