<svg width="17" height="17" viewBox="0 0 17 17" fill="none" xmlns="http://www.w3.org/2000/svg">
<circle cx="8.63086" cy="8.19165" r="8" fill="#0061C1"/>
<path fill-rule="evenodd" clip-rule="evenodd" d="M2.1543 9.66702L6.36647 5.84614V3.86665H7.8626V4.48812L9.26666 3.22217H11.5799L15.1071 6.41616H12.8106L9.64645 3.55592L2.84483 9.66702H2.1543Z" fill="white"/>
<path d="M7.97011 12.7358C8.27185 12.7358 8.52179 12.6795 8.71995 12.5669C8.92261 12.4498 9.08248 12.2989 9.19957 12.1143C9.32117 11.9251 9.40448 11.7112 9.44952 11.4725C9.49906 11.2338 9.52383 10.9929 9.52383 10.7497V8.3313H9.9967V10.7497C9.9967 11.0739 9.96067 11.3824 9.88861 11.6752C9.81656 11.9634 9.69946 12.2178 9.53734 12.4385C9.37971 12.6592 9.17255 12.8348 8.91585 12.9654C8.65915 13.096 8.34615 13.1613 7.97686 13.1613C7.59406 13.1613 7.27431 13.0938 7.01761 12.9587C6.76091 12.8191 6.55375 12.6367 6.39613 12.4115C6.2385 12.1863 6.12591 11.9296 6.05836 11.6414C5.99081 11.3532 5.95703 11.0559 5.95703 10.7497V8.3313H6.42315V10.7497C6.42315 11.0019 6.44792 11.2473 6.49745 11.486C6.54699 11.7247 6.63031 11.9364 6.7474 12.121C6.869 12.3057 7.02887 12.4543 7.22703 12.5669C7.42518 12.6795 7.67288 12.7358 7.97011 12.7358Z" fill="white"/>
<path d="M11.1983 13.1276V8.3313H13.1844C13.3916 8.3313 13.5807 8.37633 13.7519 8.4664C13.9275 8.55197 14.0784 8.66681 14.2045 8.81092C14.3306 8.95053 14.4274 9.11041 14.4949 9.29055C14.567 9.47069 14.603 9.65309 14.603 9.83773C14.603 10.0359 14.5692 10.2273 14.5017 10.4119C14.4386 10.5921 14.3463 10.7519 14.2247 10.8916C14.1031 11.0312 13.9568 11.1438 13.7856 11.2293C13.619 11.3149 13.4321 11.3577 13.2249 11.3577H11.6645V13.1276H11.1983ZM11.6645 10.9388H13.1979C13.3375 10.9388 13.4636 10.9096 13.5762 10.851C13.6933 10.788 13.7924 10.7069 13.8734 10.6078C13.9545 10.5043 14.0176 10.3872 14.0626 10.2566C14.1076 10.1215 14.1301 9.98184 14.1301 9.83773C14.1301 9.68911 14.1031 9.5495 14.0491 9.4189C13.9995 9.2838 13.9297 9.1667 13.8397 9.06763C13.7541 8.96855 13.6505 8.89199 13.5289 8.83795C13.4118 8.7794 13.288 8.75013 13.1574 8.75013H11.6645V10.9388Z" fill="white"/>
</svg>
